<?xml version="1.0" encoding="UTF-8" standalone="no"?>
<!DOCTYPE svg PUBLIC "-//W3C//DTD SVG 1.1//EN"
 "http://www.w3.org/Graphics/SVG/1.1/DTD/svg11.dtd">
<!-- Generated by graphviz version 2.43.0 (0)
 -->
<!-- Title: SCdebug/0 Pages: 1 -->
<svg width="288pt" height="869pt"
 viewBox="0.00 0.00 288.49 869.45" xmlns="http://www.w3.org/2000/svg" xmlns:xlink="http://www.w3.org/1999/xlink">
<g id="graph0" class="graph" transform="scale(1 1) rotate(0) translate(4 865.45)">
<title>SCdebug/0</title>
<polygon fill="white" stroke="transparent" points="-4,4 -4,-865.45 284.49,-865.45 284.49,4 -4,4"/>
<!-- R000_Leee -->
<g id="node1" class="node">
<title>R000_Leee</title>
<ellipse fill="none" stroke="black" cx="139.74" cy="-795.7" rx="61.98" ry="61.98"/>
<ellipse fill="none" stroke="black" cx="139.74" cy="-795.7" rx="65.99" ry="65.99"/>
<text text-anchor="middle" x="139.74" y="-792" font-family="Times,serif" font-size="14.00">R000_Leee</text>
</g>
<!-- R100_Leee -->
<g id="node2" class="node">
<title>R100_Leee</title>
<ellipse fill="none" stroke="black" cx="65.74" cy="-613.21" rx="61.98" ry="61.98"/>
<ellipse fill="none" stroke="black" cx="65.74" cy="-613.21" rx="65.99" ry="65.99"/>
<text text-anchor="middle" x="65.74" y="-609.51" font-family="Times,serif" font-size="14.00">R100_Leee</text>
</g>
<!-- R000_Leee&#45;&gt;R100_Leee -->
<g id="edge1" class="edge">
<title>R000_Leee&#45;&gt;R100_Leee</title>
<path fill="none" stroke="black" d="M115.1,-734.6C108.46,-718.4 101.22,-700.73 94.38,-684.05"/>
<polygon fill="black" stroke="black" points="97.44,-682.28 90.4,-674.36 90.96,-684.94 97.44,-682.28"/>
<text text-anchor="middle" x="123.24" y="-700.76" font-family="Times,serif" font-size="14.00">t1R1</text>
</g>
<!-- R001_Lee2 -->
<g id="node6" class="node">
<title>R001_Lee2</title>
<ellipse fill="none" stroke="black" cx="214.74" cy="-613.21" rx="61.98" ry="61.98"/>
<ellipse fill="none" stroke="black" cx="214.74" cy="-613.21" rx="65.99" ry="65.99"/>
<text text-anchor="middle" x="214.74" y="-609.51" font-family="Times,serif" font-size="14.00">R001_Lee2</text>
</g>
<!-- R000_Leee&#45;&gt;R001_Lee2 -->
<g id="edge2" class="edge">
<title>R000_Leee&#45;&gt;R001_Lee2</title>
<path fill="none" stroke="black" d="M164.72,-734.6C171.45,-718.4 178.79,-700.73 185.72,-684.05"/>
<polygon fill="black" stroke="black" points="189.15,-684.93 189.75,-674.36 182.68,-682.25 189.15,-684.93"/>
<text text-anchor="middle" x="186.74" y="-700.76" font-family="Times,serif" font-size="14.00">t7</text>
</g>
<!-- R101_Lee2 -->
<g id="node4" class="node">
<title>R101_Lee2</title>
<ellipse fill="none" stroke="black" cx="139.74" cy="-430.72" rx="61.98" ry="61.98"/>
<ellipse fill="none" stroke="black" cx="139.74" cy="-430.72" rx="65.99" ry="65.99"/>
<text text-anchor="middle" x="139.74" y="-427.02" font-family="Times,serif" font-size="14.00">R101_Lee2</text>
</g>
<!-- R100_Leee&#45;&gt;R101_Lee2 -->
<g id="edge3" class="edge">
<title>R100_Leee&#45;&gt;R101_Lee2</title>
<path fill="none" stroke="black" d="M90.39,-552.11C97.03,-535.91 104.27,-518.24 111.11,-501.56"/>
<polygon fill="black" stroke="black" points="114.53,-502.45 115.09,-491.87 108.05,-499.79 114.53,-502.45"/>
<text text-anchor="middle" x="113.74" y="-518.27" font-family="Times,serif" font-size="14.00">t7</text>
</g>
<!-- R101_Leee -->
<g id="node3" class="node">
<title>R101_Leee</title>
<ellipse fill="none" stroke="black" cx="139.74" cy="-65.74" rx="61.98" ry="61.98"/>
<ellipse fill="none" stroke="black" cx="139.74" cy="-65.74" rx="65.99" ry="65.99"/>
<text text-anchor="middle" x="139.74" y="-62.04" font-family="Times,serif" font-size="14.00">R101_Leee</text>
</g>
<!-- R001_Leee -->
<g id="node5" class="node">
<title>R001_Leee</title>
<ellipse fill="none" stroke="black" cx="139.74" cy="-248.23" rx="61.98" ry="61.98"/>
<ellipse fill="none" stroke="black" cx="139.74" cy="-248.23" rx="65.99" ry="65.99"/>
<text text-anchor="middle" x="139.74" y="-244.53" font-family="Times,serif" font-size="14.00">R001_Leee</text>
</g>
<!-- R101_Lee2&#45;&gt;R001_Leee -->
<g id="edge4" class="edge">
<title>R101_Lee2&#45;&gt;R001_Leee</title>
<path fill="none" stroke="black" d="M139.74,-364.82C139.74,-351.69 139.74,-337.78 139.74,-324.34"/>
<polygon fill="black" stroke="black" points="143.24,-324.17 139.74,-314.17 136.24,-324.17 143.24,-324.17"/>
<text text-anchor="middle" x="147.74" y="-335.78" font-family="Times,serif" font-size="14.00">t3</text>
</g>
<!-- R001_Leee&#45;&gt;R101_Leee -->
<g id="edge5" class="edge">
<title>R001_Leee&#45;&gt;R101_Leee</title>
<path fill="none" stroke="black" d="M139.74,-182.33C139.74,-169.2 139.74,-155.3 139.74,-141.85"/>
<polygon fill="black" stroke="black" points="143.24,-141.68 139.74,-131.68 136.24,-141.68 143.24,-141.68"/>
<text text-anchor="middle" x="157.24" y="-153.29" font-family="Times,serif" font-size="14.00">t1R1</text>
</g>
<!-- R001_Lee2&#45;&gt;R101_Lee2 -->
<g id="edge6" class="edge">
<title>R001_Lee2&#45;&gt;R101_Lee2</title>
<path fill="none" stroke="black" d="M189.77,-552.11C183.04,-535.91 175.7,-518.24 168.76,-501.56"/>
<polygon fill="black" stroke="black" points="171.81,-499.76 164.74,-491.87 165.34,-502.45 171.81,-499.76"/>
<text text-anchor="middle" x="196.24" y="-518.27" font-family="Times,serif" font-size="14.00">t1R1</text>
</g>
</g>
</svg>
