<?xml version="1.0" encoding="UTF-8" standalone="no"?>
<!DOCTYPE svg PUBLIC "-//W3C//DTD SVG 1.1//EN"
 "http://www.w3.org/Graphics/SVG/1.1/DTD/svg11.dtd">
<!-- Generated by graphviz version 2.43.0 (0)
 -->
<!-- Title: SCdebug/10 Pages: 1 -->
<svg width="935pt" height="1088pt"
 viewBox="0.00 0.00 935.42 1088.00" xmlns="http://www.w3.org/2000/svg" xmlns:xlink="http://www.w3.org/1999/xlink">
<g id="graph0" class="graph" transform="scale(1 1) rotate(0) translate(4 1084)">
<title>SCdebug/10</title>
<polygon fill="white" stroke="transparent" points="-4,4 -4,-1084 931.42,-1084 931.42,4 -4,4"/>
<!-- S11 -->
<g id="node1" class="node">
<title>S11</title>
<ellipse fill="none" stroke="black" cx="282.32" cy="-714" rx="28.7" ry="18"/>
<text text-anchor="middle" x="282.32" y="-710.3" font-family="Times,serif" font-size="14.00">S11</text>
</g>
<!-- S28 -->
<g id="node8" class="node">
<title>S28</title>
<ellipse fill="#ffffff" stroke="black" cx="204.32" cy="-627" rx="28.7" ry="18"/>
<text text-anchor="middle" x="204.32" y="-623.3" font-family="Times,serif" font-size="14.00">S28</text>
</g>
<!-- S11&#45;&gt;S28 -->
<g id="edge2" class="edge">
<title>S11&#45;&gt;S28</title>
<path fill="none" stroke="black" d="M261.22,-701.67C251.29,-695.6 239.79,-687.42 231.32,-678 224.9,-670.86 219.46,-661.92 215.18,-653.58"/>
<polygon fill="black" stroke="black" points="218.33,-652.05 210.85,-644.55 212.01,-655.08 218.33,-652.05"/>
<text text-anchor="middle" x="239.32" y="-666.8" font-family="Times,serif" font-size="14.00">t7</text>
</g>
<!-- S4 -->
<g id="node17" class="node">
<title>S4</title>
<ellipse fill="#ffffff" stroke="black" cx="253.32" cy="-279" rx="27" ry="18"/>
<text text-anchor="middle" x="253.32" y="-275.3" font-family="Times,serif" font-size="14.00">S4</text>
</g>
<!-- S11&#45;&gt;S4 -->
<g id="edge1" class="edge">
<title>S11&#45;&gt;S4</title>
<path fill="none" stroke="black" d="M258.51,-703.73C202.49,-680.4 63.52,-613.16 16.32,-504 4.92,-477.64 -19.21,-471.4 29.32,-402 53.44,-367.51 165.24,-316.97 221.21,-293.24"/>
<polygon fill="black" stroke="black" points="222.8,-296.37 230.66,-289.26 220.09,-289.92 222.8,-296.37"/>
<text text-anchor="middle" x="28.82" y="-492.8" font-family="Times,serif" font-size="14.00">t12</text>
</g>
<!-- S17 -->
<g id="node2" class="node">
<title>S17</title>
<ellipse fill="#ffeeee" stroke="black" cx="644.32" cy="-714" rx="28.7" ry="18"/>
<text text-anchor="middle" x="644.32" y="-710.3" font-family="Times,serif" font-size="14.00">S17</text>
</g>
<!-- S2 -->
<g id="node7" class="node">
<title>S2</title>
<ellipse fill="#ffeeee" stroke="black" cx="654.32" cy="-453" rx="27" ry="18"/>
<text text-anchor="middle" x="654.32" y="-449.3" font-family="Times,serif" font-size="14.00">S2</text>
</g>
<!-- S17&#45;&gt;S2 -->
<g id="edge5" class="edge">
<title>S17&#45;&gt;S2</title>
<path fill="none" stroke="black" d="M652.67,-696.66C655.24,-690.9 657.8,-684.3 659.32,-678 677.51,-602.65 668.65,-581.47 671.32,-504 671.55,-497.34 672.81,-495.5 671.32,-489 670.58,-485.77 669.5,-482.5 668.23,-479.32"/>
<polygon fill="black" stroke="black" points="671.39,-477.81 664.06,-470.17 665.03,-480.72 671.39,-477.81"/>
<text text-anchor="middle" x="682.82" y="-579.8" font-family="Times,serif" font-size="14.00">t11</text>
</g>
<!-- S22 -->
<g id="node9" class="node">
<title>S22</title>
<ellipse fill="#ffffff" stroke="black" cx="547.32" cy="-627" rx="28.7" ry="18"/>
<text text-anchor="middle" x="547.32" y="-623.3" font-family="Times,serif" font-size="14.00">S22</text>
</g>
<!-- S17&#45;&gt;S22 -->
<g id="edge6" class="edge">
<title>S17&#45;&gt;S22</title>
<path fill="none" stroke="black" d="M643.65,-695.94C642.39,-685.35 639.2,-672.07 631.32,-663 619.31,-649.17 600.95,-640.69 584.45,-635.55"/>
<polygon fill="black" stroke="black" points="585.07,-632.09 574.5,-632.76 583.18,-638.83 585.07,-632.09"/>
<text text-anchor="middle" x="647.32" y="-666.8" font-family="Times,serif" font-size="14.00">t7</text>
</g>
<!-- S13 -->
<g id="node16" class="node">
<title>S13</title>
<ellipse fill="#ffeeee" stroke="black" cx="684.32" cy="-279" rx="28.7" ry="18"/>
<text text-anchor="middle" x="684.32" y="-275.3" font-family="Times,serif" font-size="14.00">S13</text>
</g>
<!-- S17&#45;&gt;S13 -->
<g id="edge3" class="edge">
<title>S17&#45;&gt;S13</title>
<path fill="none" stroke="black" d="M666.9,-702.86C715.24,-680.62 825.95,-626.7 845.32,-591 875.36,-535.62 751.24,-366.07 702.88,-303.51"/>
<polygon fill="black" stroke="black" points="705.48,-301.16 696.58,-295.42 699.96,-305.46 705.48,-301.16"/>
<text text-anchor="middle" x="843.82" y="-492.8" font-family="Times,serif" font-size="14.00">t12</text>
</g>
<!-- S18 -->
<g id="node18" class="node">
<title>S18</title>
<ellipse fill="#ffffff" stroke="black" cx="279.32" cy="-627" rx="28.7" ry="18"/>
<text text-anchor="middle" x="279.32" y="-623.3" font-family="Times,serif" font-size="14.00">S18</text>
</g>
<!-- S17&#45;&gt;S18 -->
<g id="edge4" class="edge">
<title>S17&#45;&gt;S18</title>
<path fill="none" stroke="black" d="M617.44,-707.6C585.4,-701.07 530.27,-689.5 483.32,-678 458.71,-671.97 452.88,-669.23 428.32,-663 390.07,-653.3 346.06,-643.07 315.85,-636.2"/>
<polygon fill="black" stroke="black" points="316.29,-632.71 305.76,-633.91 314.74,-639.54 316.29,-632.71"/>
<text text-anchor="middle" x="491.32" y="-666.8" font-family="Times,serif" font-size="14.00">t5</text>
</g>
<!-- S25 -->
<g id="node3" class="node">
<title>S25</title>
<ellipse fill="#ffffff" stroke="black" cx="226.32" cy="-888" rx="28.7" ry="18"/>
<text text-anchor="middle" x="226.32" y="-884.3" font-family="Times,serif" font-size="14.00">S25</text>
</g>
<!-- S16 -->
<g id="node5" class="node">
<title>S16</title>
<ellipse fill="#ffffff" stroke="black" cx="448.32" cy="-801" rx="28.7" ry="18"/>
<text text-anchor="middle" x="448.32" y="-797.3" font-family="Times,serif" font-size="14.00">S16</text>
</g>
<!-- S25&#45;&gt;S16 -->
<g id="edge8" class="edge">
<title>S25&#45;&gt;S16</title>
<path fill="none" stroke="black" d="M248.18,-876.21C260.8,-869.69 276.8,-860.94 290.32,-852 299.29,-846.06 299.67,-841.75 309.32,-837 341.53,-821.14 381.59,-812.04 410.41,-807.12"/>
<polygon fill="black" stroke="black" points="411.18,-810.54 420.49,-805.49 410.06,-803.63 411.18,-810.54"/>
<text text-anchor="middle" x="317.32" y="-840.8" font-family="Times,serif" font-size="14.00">t3</text>
</g>
<!-- S25&#45;&gt;S28 -->
<g id="edge9" class="edge">
<title>S25&#45;&gt;S28</title>
<path fill="none" stroke="black" d="M224.88,-870.01C221.15,-826.1 211.16,-708.6 206.62,-655.15"/>
<polygon fill="black" stroke="black" points="210.1,-654.72 205.77,-645.06 203.13,-655.32 210.1,-654.72"/>
<text text-anchor="middle" x="228.82" y="-753.8" font-family="Times,serif" font-size="14.00">t11</text>
</g>
<!-- S21 -->
<g id="node19" class="node">
<title>S21</title>
<ellipse fill="#ffffff" stroke="black" cx="145.32" cy="-453" rx="28.7" ry="18"/>
<text text-anchor="middle" x="145.32" y="-449.3" font-family="Times,serif" font-size="14.00">S21</text>
</g>
<!-- S25&#45;&gt;S21 -->
<g id="edge7" class="edge">
<title>S25&#45;&gt;S21</title>
<path fill="none" stroke="black" d="M215.12,-871.31C206.19,-858.02 194.08,-838.12 187.32,-819 144.76,-698.74 143.06,-543.62 144.36,-481.5"/>
<polygon fill="black" stroke="black" points="147.86,-481.43 144.62,-471.34 140.86,-481.25 147.86,-481.43"/>
<text text-anchor="middle" x="167.82" y="-666.8" font-family="Times,serif" font-size="14.00">t12</text>
</g>
<!-- S0 -->
<g id="node4" class="node">
<title>S0</title>
<ellipse fill="#ffffff" stroke="black" cx="131.32" cy="-1062" rx="27" ry="18"/>
<text text-anchor="middle" x="131.32" y="-1058.3" font-family="Times,serif" font-size="14.00">S0</text>
</g>
<!-- S12 -->
<g id="node6" class="node">
<title>S12</title>
<ellipse fill="#ffffff" stroke="black" cx="273.32" cy="-801" rx="28.7" ry="18"/>
<text text-anchor="middle" x="273.32" y="-797.3" font-family="Times,serif" font-size="14.00">S12</text>
</g>
<!-- S0&#45;&gt;S12 -->
<g id="edge11" class="edge">
<title>S0&#45;&gt;S12</title>
<path fill="none" stroke="black" d="M132.4,-1043.86C135.45,-1008.05 146.85,-924.11 188.32,-870 203.83,-849.76 226.6,-831.97 244.67,-819.66"/>
<polygon fill="black" stroke="black" points="246.7,-822.52 253.11,-814.08 242.84,-816.68 246.7,-822.52"/>
<text text-anchor="middle" x="171.82" y="-927.8" font-family="Times,serif" font-size="14.00">t11</text>
</g>
<!-- S29 -->
<g id="node11" class="node">
<title>S29</title>
<ellipse fill="#ffffff" stroke="black" cx="188.32" cy="-975" rx="28.7" ry="18"/>
<text text-anchor="middle" x="188.32" y="-971.3" font-family="Times,serif" font-size="14.00">S29</text>
</g>
<!-- S0&#45;&gt;S29 -->
<g id="edge12" class="edge">
<title>S0&#45;&gt;S29</title>
<path fill="none" stroke="black" d="M142.04,-1045.01C150.48,-1032.43 162.38,-1014.68 172,-1000.33"/>
<polygon fill="black" stroke="black" points="174.98,-1002.17 177.65,-991.92 169.17,-998.27 174.98,-1002.17"/>
<text text-anchor="middle" x="171.32" y="-1014.8" font-family="Times,serif" font-size="14.00">t7</text>
</g>
<!-- S0&#45;&gt;S18 -->
<g id="edge10" class="edge">
<title>S0&#45;&gt;S18</title>
<path fill="none" stroke="black" d="M130.93,-1043.87C130.81,-1034.21 130.81,-1021.93 131.32,-1011 132.43,-986.92 132.84,-980.85 136.32,-957 144.17,-903.18 142.67,-888.45 160.32,-837 183.99,-768 188.43,-742.87 244.32,-696 259.88,-682.95 275.14,-694.95 286.32,-678 290.86,-671.11 291.12,-662.51 289.62,-654.41"/>
<polygon fill="black" stroke="black" points="292.95,-653.31 286.98,-644.56 286.19,-655.13 292.95,-653.31"/>
<text text-anchor="middle" x="172.82" y="-840.8" font-family="Times,serif" font-size="14.00">t12</text>
</g>
<!-- S16&#45;&gt;S11 -->
<g id="edge16" class="edge">
<title>S16&#45;&gt;S11</title>
<path fill="none" stroke="black" d="M419.86,-798.72C390.57,-796.1 344.9,-788.26 313.32,-765 304.9,-758.8 298.25,-749.55 293.31,-740.7"/>
<polygon fill="black" stroke="black" points="296.42,-739.09 288.77,-731.75 290.17,-742.25 296.42,-739.09"/>
<text text-anchor="middle" x="321.32" y="-753.8" font-family="Times,serif" font-size="14.00">t1</text>
</g>
<!-- S16&#45;&gt;S11 -->
<g id="edge18" class="edge">
<title>S16&#45;&gt;S11</title>
<path fill="none" stroke="black" d="M426.62,-788.89C397.58,-774.02 345.93,-747.57 312.95,-730.68"/>
<polygon fill="black" stroke="black" points="314.26,-727.42 303.76,-725.98 311.07,-733.65 314.26,-727.42"/>
<text text-anchor="middle" x="386.82" y="-753.8" font-family="Times,serif" font-size="14.00">t13</text>
</g>
<!-- S16&#45;&gt;S17 -->
<g id="edge17" class="edge">
<title>S16&#45;&gt;S17</title>
<path fill="none" stroke="black" d="M477.16,-799.27C526.78,-797.34 625.06,-790.34 646.32,-765 651.66,-758.64 652.73,-750.05 651.98,-741.79"/>
<polygon fill="black" stroke="black" points="655.38,-740.95 650.23,-731.69 648.48,-742.14 655.38,-740.95"/>
<text text-anchor="middle" x="659.32" y="-753.8" font-family="Times,serif" font-size="14.00">t2</text>
</g>
<!-- S16&#45;&gt;S17 -->
<g id="edge19" class="edge">
<title>S16&#45;&gt;S17</title>
<path fill="none" stroke="black" d="M476.68,-798.36C508.29,-795.44 559.98,-787.37 598.32,-765 609.51,-758.47 619.56,-748.34 627.4,-738.9"/>
<polygon fill="black" stroke="black" points="630.26,-740.92 633.68,-730.89 624.76,-736.6 630.26,-740.92"/>
<text text-anchor="middle" x="628.82" y="-753.8" font-family="Times,serif" font-size="14.00">t17</text>
</g>
<!-- S1 -->
<g id="node12" class="node">
<title>S1</title>
<ellipse fill="#ffffff" stroke="black" cx="621.32" cy="-540" rx="27" ry="18"/>
<text text-anchor="middle" x="621.32" y="-536.3" font-family="Times,serif" font-size="14.00">S1</text>
</g>
<!-- S16&#45;&gt;S1 -->
<g id="edge14" class="edge">
<title>S16&#45;&gt;S1</title>
<path fill="none" stroke="black" d="M463.47,-785.44C469.93,-779.19 477.53,-771.77 484.32,-765 522.59,-726.82 538.23,-722.23 569.32,-678 578.69,-664.66 579.09,-660.06 585.32,-645 596.05,-619.06 606.33,-588.63 613.13,-567.41"/>
<polygon fill="black" stroke="black" points="616.49,-568.39 616.18,-557.8 609.82,-566.27 616.49,-568.39"/>
<text text-anchor="middle" x="589.82" y="-666.8" font-family="Times,serif" font-size="14.00">t11</text>
</g>
<!-- S24 -->
<g id="node14" class="node">
<title>S24</title>
<ellipse fill="#ffffff" stroke="black" cx="478.32" cy="-714" rx="28.7" ry="18"/>
<text text-anchor="middle" x="478.32" y="-710.3" font-family="Times,serif" font-size="14.00">S24</text>
</g>
<!-- S16&#45;&gt;S24 -->
<g id="edge15" class="edge">
<title>S16&#45;&gt;S24</title>
<path fill="none" stroke="black" d="M454.25,-783.21C458.44,-771.33 464.14,-755.17 468.95,-741.56"/>
<polygon fill="black" stroke="black" points="472.38,-742.35 472.4,-731.76 465.78,-740.02 472.38,-742.35"/>
<text text-anchor="middle" x="472.32" y="-753.8" font-family="Times,serif" font-size="14.00">t7</text>
</g>
<!-- S15 -->
<g id="node20" class="node">
<title>S15</title>
<ellipse fill="#ffffff" stroke="black" cx="421.32" cy="-366" rx="28.7" ry="18"/>
<text text-anchor="middle" x="421.32" y="-362.3" font-family="Times,serif" font-size="14.00">S15</text>
</g>
<!-- S16&#45;&gt;S15 -->
<g id="edge13" class="edge">
<title>S16&#45;&gt;S15</title>
<path fill="none" stroke="black" d="M439.78,-783.56C431.87,-766.78 421.32,-739.77 421.32,-715 421.32,-715 421.32,-715 421.32,-452 421.32,-432.75 421.32,-411.05 421.32,-394.4"/>
<polygon fill="black" stroke="black" points="424.82,-394.26 421.32,-384.26 417.82,-394.26 424.82,-394.26"/>
<text text-anchor="middle" x="433.82" y="-579.8" font-family="Times,serif" font-size="14.00">t12</text>
</g>
<!-- S12&#45;&gt;S11 -->
<g id="edge21" class="edge">
<title>S12&#45;&gt;S11</title>
<path fill="none" stroke="black" d="M272.8,-782.81C272.72,-773.14 272.98,-760.86 274.32,-750 274.65,-747.31 275.1,-744.52 275.62,-741.75"/>
<polygon fill="black" stroke="black" points="279.04,-742.48 277.71,-731.97 272.19,-741.01 279.04,-742.48"/>
<text text-anchor="middle" x="282.32" y="-753.8" font-family="Times,serif" font-size="14.00">t6</text>
</g>
<!-- S3 -->
<g id="node25" class="node">
<title>S3</title>
<ellipse fill="#ffffff" stroke="black" cx="251.32" cy="-366" rx="27" ry="18"/>
<text text-anchor="middle" x="251.32" y="-362.3" font-family="Times,serif" font-size="14.00">S3</text>
</g>
<!-- S12&#45;&gt;S3 -->
<g id="edge20" class="edge">
<title>S12&#45;&gt;S3</title>
<path fill="none" stroke="black" d="M247.94,-792.29C203.4,-777.48 111.08,-740.81 60.32,-678 34.79,-646.41 38.62,-631.13 32.32,-591 21.12,-519.67 91.25,-450.32 107.32,-435 107.39,-434.93 178.47,-401.38 220.72,-381.44"/>
<polygon fill="black" stroke="black" points="222.22,-384.6 229.77,-377.17 219.24,-378.27 222.22,-384.6"/>
<text text-anchor="middle" x="44.82" y="-579.8" font-family="Times,serif" font-size="14.00">t12</text>
</g>
<!-- S7 -->
<g id="node23" class="node">
<title>S7</title>
<ellipse fill="#ffeeee" stroke="black" cx="717.32" cy="-18" rx="27" ry="18"/>
<text text-anchor="middle" x="717.32" y="-14.3" font-family="Times,serif" font-size="14.00">S7</text>
</g>
<!-- S2&#45;&gt;S7 -->
<g id="edge22" class="edge">
<title>S2&#45;&gt;S7</title>
<path fill="none" stroke="black" d="M673.14,-439.72C728.07,-403.19 884.32,-294.23 884.32,-236.5 884.32,-236.5 884.32,-236.5 884.32,-104 884.32,-45.99 803.29,-27.55 754.12,-21.71"/>
<polygon fill="black" stroke="black" points="754.47,-18.22 744.15,-20.64 753.72,-25.18 754.47,-18.22"/>
<text text-anchor="middle" x="896.82" y="-231.8" font-family="Times,serif" font-size="14.00">t12</text>
</g>
<!-- S2&#45;&gt;S3 -->
<g id="edge23" class="edge">
<title>S2&#45;&gt;S3</title>
<path fill="none" stroke="black" d="M634.77,-440.34C614.07,-428.59 580.05,-410.94 548.32,-402 477.32,-381.99 456.57,-392.71 383.32,-384 350.91,-380.15 314.08,-375.37 287.57,-371.86"/>
<polygon fill="black" stroke="black" points="287.97,-368.38 277.6,-370.54 287.05,-375.32 287.97,-368.38"/>
<text text-anchor="middle" x="595.32" y="-405.8" font-family="Times,serif" font-size="14.00">t5</text>
</g>
<!-- S28&#45;&gt;S1 -->
<g id="edge25" class="edge">
<title>S28&#45;&gt;S1</title>
<path fill="none" stroke="black" d="M225.38,-614.82C230.47,-612.54 235.99,-610.41 241.32,-609 331.46,-585.18 358.32,-606.11 450.32,-591 480.79,-585.99 556.21,-568.31 585.32,-558 587.22,-557.32 589.16,-556.58 591.11,-555.8"/>
<polygon fill="black" stroke="black" points="592.91,-558.83 600.68,-551.62 590.11,-552.41 592.91,-558.83"/>
<text text-anchor="middle" x="526.32" y="-579.8" font-family="Times,serif" font-size="14.00">t3</text>
</g>
<!-- S5 -->
<g id="node24" class="node">
<title>S5</title>
<ellipse fill="#ffffff" stroke="black" cx="253.32" cy="-192" rx="27" ry="18"/>
<text text-anchor="middle" x="253.32" y="-188.3" font-family="Times,serif" font-size="14.00">S5</text>
</g>
<!-- S28&#45;&gt;S5 -->
<g id="edge24" class="edge">
<title>S28&#45;&gt;S5</title>
<path fill="none" stroke="black" d="M185.74,-613.01C144.78,-582.67 50.32,-502.7 50.32,-410.5 50.32,-410.5 50.32,-410.5 50.32,-278 50.32,-206.99 157.3,-194.29 215.94,-192.65"/>
<polygon fill="black" stroke="black" points="216.01,-196.15 225.94,-192.47 215.88,-189.15 216.01,-196.15"/>
<text text-anchor="middle" x="63.82" y="-405.8" font-family="Times,serif" font-size="14.00">t12</text>
</g>
<!-- S23 -->
<g id="node13" class="node">
<title>S23</title>
<ellipse fill="#ffeeee" stroke="black" cx="547.32" cy="-540" rx="28.7" ry="18"/>
<text text-anchor="middle" x="547.32" y="-536.3" font-family="Times,serif" font-size="14.00">S23</text>
</g>
<!-- S22&#45;&gt;S23 -->
<g id="edge28" class="edge">
<title>S22&#45;&gt;S23</title>
<path fill="none" stroke="black" d="M547.32,-608.8C547.32,-597.16 547.32,-581.55 547.32,-568.24"/>
<polygon fill="black" stroke="black" points="550.82,-568.18 547.32,-558.18 543.82,-568.18 550.82,-568.18"/>
<text text-anchor="middle" x="555.32" y="-579.8" font-family="Times,serif" font-size="14.00">t3</text>
</g>
<!-- S8 -->
<g id="node22" class="node">
<title>S8</title>
<ellipse fill="#ffffff" stroke="black" cx="739.32" cy="-192" rx="27" ry="18"/>
<text text-anchor="middle" x="739.32" y="-188.3" font-family="Times,serif" font-size="14.00">S8</text>
</g>
<!-- S22&#45;&gt;S8 -->
<g id="edge26" class="edge">
<title>S22&#45;&gt;S8</title>
<path fill="none" stroke="black" d="M571.03,-616.75C638.37,-590.36 826.48,-515.85 834.32,-504 897.29,-408.8 801.54,-269.99 758.5,-215.83"/>
<polygon fill="black" stroke="black" points="761.08,-213.46 752.07,-207.89 755.64,-217.86 761.08,-213.46"/>
<text text-anchor="middle" x="866.82" y="-405.8" font-family="Times,serif" font-size="14.00">t12</text>
</g>
<!-- S19 -->
<g id="node26" class="node">
<title>S19</title>
<ellipse fill="#ffffff" stroke="black" cx="183.32" cy="-540" rx="28.7" ry="18"/>
<text text-anchor="middle" x="183.32" y="-536.3" font-family="Times,serif" font-size="14.00">S19</text>
</g>
<!-- S22&#45;&gt;S19 -->
<g id="edge27" class="edge">
<title>S22&#45;&gt;S19</title>
<path fill="none" stroke="black" d="M520.55,-620.59C488.03,-613.94 431.53,-602.17 383.32,-591 325.58,-577.63 258.86,-560.63 218.93,-550.3"/>
<polygon fill="black" stroke="black" points="219.7,-546.88 209.14,-547.76 217.94,-553.66 219.7,-546.88"/>
<text text-anchor="middle" x="391.32" y="-579.8" font-family="Times,serif" font-size="14.00">t5</text>
</g>
<!-- S26 -->
<g id="node10" class="node">
<title>S26</title>
<ellipse fill="#ffffff" stroke="black" cx="768.32" cy="-801" rx="28.7" ry="18"/>
<text text-anchor="middle" x="768.32" y="-797.3" font-family="Times,serif" font-size="14.00">S26</text>
</g>
<!-- S26&#45;&gt;S17 -->
<g id="edge31" class="edge">
<title>S26&#45;&gt;S17</title>
<path fill="none" stroke="black" d="M749.75,-787.27C729.03,-773.07 695.28,-749.93 671.56,-733.67"/>
<polygon fill="black" stroke="black" points="673.24,-730.58 663.01,-727.81 669.28,-736.35 673.24,-730.58"/>
<text text-anchor="middle" x="721.32" y="-753.8" font-family="Times,serif" font-size="14.00">t6</text>
</g>
<!-- S26&#45;&gt;S2 -->
<g id="edge30" class="edge">
<title>S26&#45;&gt;S2</title>
<path fill="none" stroke="black" d="M766.78,-782.67C761.79,-733.59 742.92,-590.6 685.32,-489 682.73,-484.44 679.48,-479.95 676.06,-475.79"/>
<polygon fill="black" stroke="black" points="678.65,-473.44 669.4,-468.26 673.4,-478.07 678.65,-473.44"/>
<text text-anchor="middle" x="750.32" y="-623.3" font-family="Times,serif" font-size="14.00">t8</text>
</g>
<!-- S14 -->
<g id="node21" class="node">
<title>S14</title>
<ellipse fill="#ffffff" stroke="black" cx="684.32" cy="-366" rx="28.7" ry="18"/>
<text text-anchor="middle" x="684.32" y="-362.3" font-family="Times,serif" font-size="14.00">S14</text>
</g>
<!-- S26&#45;&gt;S14 -->
<g id="edge29" class="edge">
<title>S26&#45;&gt;S14</title>
<path fill="none" stroke="black" d="M773.59,-783.08C775.11,-777.39 776.56,-770.98 777.32,-765 778.16,-758.39 777.67,-756.66 777.32,-750 773.98,-687.07 775.39,-670.65 762.32,-609 745.25,-528.48 711.66,-436.86 694.68,-393.03"/>
<polygon fill="black" stroke="black" points="697.92,-391.73 691.02,-383.69 691.4,-394.28 697.92,-391.73"/>
<text text-anchor="middle" x="769.82" y="-579.8" font-family="Times,serif" font-size="14.00">t12</text>
</g>
<!-- S29&#45;&gt;S25 -->
<g id="edge35" class="edge">
<title>S29&#45;&gt;S25</title>
<path fill="none" stroke="black" d="M195.83,-957.21C201.22,-945.14 208.6,-928.64 214.74,-914.89"/>
<polygon fill="black" stroke="black" points="218.07,-916.03 218.96,-905.47 211.68,-913.17 218.07,-916.03"/>
<text text-anchor="middle" x="218.32" y="-927.8" font-family="Times,serif" font-size="14.00">t6</text>
</g>
<!-- S29&#45;&gt;S28 -->
<g id="edge34" class="edge">
<title>S29&#45;&gt;S28</title>
<path fill="none" stroke="black" d="M187.97,-956.7C187.63,-936.05 187.31,-900.5 188.32,-870 190.9,-791.86 198.15,-699.75 201.94,-655.05"/>
<polygon fill="black" stroke="black" points="205.44,-655.26 202.81,-645 198.47,-654.66 205.44,-655.26"/>
<text text-anchor="middle" x="201.32" y="-797.3" font-family="Times,serif" font-size="14.00">t8</text>
</g>
<!-- S27 -->
<g id="node15" class="node">
<title>S27</title>
<ellipse fill="#ffffff" stroke="black" cx="413.32" cy="-888" rx="28.7" ry="18"/>
<text text-anchor="middle" x="413.32" y="-884.3" font-family="Times,serif" font-size="14.00">S27</text>
</g>
<!-- S29&#45;&gt;S27 -->
<g id="edge33" class="edge">
<title>S29&#45;&gt;S27</title>
<path fill="none" stroke="black" d="M212.4,-964.9C252.74,-949.66 334.08,-918.94 379.92,-901.62"/>
<polygon fill="black" stroke="black" points="381.3,-904.84 389.41,-898.03 378.82,-898.29 381.3,-904.84"/>
<text text-anchor="middle" x="321.32" y="-927.8" font-family="Times,serif" font-size="14.00">t3</text>
</g>
<!-- S29&#45;&gt;S19 -->
<g id="edge32" class="edge">
<title>S29&#45;&gt;S19</title>
<path fill="none" stroke="black" d="M167.69,-962.29C136.66,-943.45 78.68,-903.28 51.32,-852 32.94,-817.56 41.99,-803.94 39.32,-765 36.13,-718.54 40.05,-703.34 63.32,-663 87.67,-620.79 130.08,-582.58 157.41,-560.58"/>
<polygon fill="black" stroke="black" points="159.7,-563.23 165.37,-554.28 155.36,-557.74 159.7,-563.23"/>
<text text-anchor="middle" x="51.82" y="-753.8" font-family="Times,serif" font-size="14.00">t12</text>
</g>
<!-- S1&#45;&gt;S2 -->
<g id="edge36" class="edge">
<title>S1&#45;&gt;S2</title>
<path fill="none" stroke="black" d="M634.77,-524.34C639.48,-518.43 644.33,-511.28 647.32,-504 650.21,-496.94 651.95,-488.91 652.98,-481.38"/>
<polygon fill="black" stroke="black" points="656.48,-481.52 654.01,-471.21 649.52,-480.81 656.48,-481.52"/>
<text text-anchor="middle" x="659.32" y="-492.8" font-family="Times,serif" font-size="14.00">t2</text>
</g>
<!-- S1&#45;&gt;S2 -->
<g id="edge37" class="edge">
<title>S1&#45;&gt;S2</title>
<path fill="none" stroke="black" d="M616.66,-522.15C614.76,-512.14 613.92,-499.41 618.32,-489 620.71,-483.34 624.51,-478.15 628.77,-473.59"/>
<polygon fill="black" stroke="black" points="631.34,-475.97 636.19,-466.55 626.52,-470.89 631.34,-475.97"/>
<text text-anchor="middle" x="630.82" y="-492.8" font-family="Times,serif" font-size="14.00">t17</text>
</g>
<!-- S6 -->
<g id="node29" class="node">
<title>S6</title>
<ellipse fill="#ffffff" stroke="black" cx="470.32" cy="-105" rx="27" ry="18"/>
<text text-anchor="middle" x="470.32" y="-101.3" font-family="Times,serif" font-size="14.00">S6</text>
</g>
<!-- S1&#45;&gt;S6 -->
<g id="edge38" class="edge">
<title>S1&#45;&gt;S6</title>
<path fill="none" stroke="black" d="M600.22,-528.41C595.38,-526.16 590.22,-523.89 585.32,-522 559.75,-512.12 542.63,-526.03 526.32,-504 522.35,-498.64 523.68,-495.12 526.32,-489 544.7,-446.26 581.28,-458.5 602.32,-417 622.93,-376.33 626.79,-358.56 613.32,-315 589.4,-237.69 525.94,-163.5 492.17,-127.91"/>
<polygon fill="black" stroke="black" points="494.51,-125.29 485.05,-120.52 489.47,-130.15 494.51,-125.29"/>
<text text-anchor="middle" x="629.82" y="-318.8" font-family="Times,serif" font-size="14.00">t12</text>
</g>
<!-- S23&#45;&gt;S2 -->
<g id="edge39" class="edge">
<title>S23&#45;&gt;S2</title>
<path fill="none" stroke="black" d="M537.09,-522.75C531.89,-512.22 528.05,-498.72 535.32,-489 554.02,-464 589.71,-456.09 617.14,-453.93"/>
<polygon fill="black" stroke="black" points="617.41,-457.42 627.2,-453.36 617.02,-450.44 617.41,-457.42"/>
<text text-anchor="middle" x="543.32" y="-492.8" font-family="Times,serif" font-size="14.00">t1</text>
</g>
<!-- S23&#45;&gt;S2 -->
<g id="edge40" class="edge">
<title>S23&#45;&gt;S2</title>
<path fill="none" stroke="black" d="M557.03,-522.6C563.92,-512.02 573.93,-498.5 585.32,-489 596.14,-479.97 609.69,-472.46 621.91,-466.75"/>
<polygon fill="black" stroke="black" points="623.63,-469.81 631.34,-462.55 620.78,-463.42 623.63,-469.81"/>
<text text-anchor="middle" x="597.82" y="-492.8" font-family="Times,serif" font-size="14.00">t13</text>
</g>
<!-- S9 -->
<g id="node28" class="node">
<title>S9</title>
<ellipse fill="#ffeeee" stroke="black" cx="743.32" cy="-105" rx="27" ry="18"/>
<text text-anchor="middle" x="743.32" y="-101.3" font-family="Times,serif" font-size="14.00">S9</text>
</g>
<!-- S23&#45;&gt;S9 -->
<g id="edge42" class="edge">
<title>S23&#45;&gt;S9</title>
<path fill="none" stroke="black" d="M569.11,-528.29C574.33,-526 579.96,-523.74 585.32,-522 622.47,-509.96 634.42,-516.8 671.32,-504 753.38,-475.54 800.57,-490.83 846.32,-417 861.31,-392.8 1035.14,-580.33 822.32,-174 811.02,-152.43 789.78,-134.75 772.16,-122.83"/>
<polygon fill="black" stroke="black" points="773.65,-119.62 763.35,-117.13 769.85,-125.5 773.65,-119.62"/>
<text text-anchor="middle" x="909.82" y="-318.8" font-family="Times,serif" font-size="14.00">t12</text>
</g>
<!-- S20 -->
<g id="node30" class="node">
<title>S20</title>
<ellipse fill="#ffffff" stroke="black" cx="357.32" cy="-453" rx="28.7" ry="18"/>
<text text-anchor="middle" x="357.32" y="-449.3" font-family="Times,serif" font-size="14.00">S20</text>
</g>
<!-- S23&#45;&gt;S20 -->
<g id="edge41" class="edge">
<title>S23&#45;&gt;S20</title>
<path fill="none" stroke="black" d="M520.13,-534.36C494.28,-529.26 454.76,-519.65 423.32,-504 407.95,-496.35 392.55,-484.96 380.5,-474.98"/>
<polygon fill="black" stroke="black" points="382.62,-472.18 372.74,-468.35 378.08,-477.51 382.62,-472.18"/>
<text text-anchor="middle" x="431.32" y="-492.8" font-family="Times,serif" font-size="14.00">t5</text>
</g>
<!-- S24&#45;&gt;S28 -->
<g id="edge43" class="edge">
<title>S24&#45;&gt;S28</title>
<path fill="none" stroke="black" d="M450,-710.36C413.41,-706.33 348.12,-697.02 295.32,-678 272.93,-669.94 249.44,-656.9 231.93,-646.16"/>
<polygon fill="black" stroke="black" points="233.69,-643.13 223.36,-640.79 229.98,-649.06 233.69,-643.13"/>
<text text-anchor="middle" x="303.32" y="-666.8" font-family="Times,serif" font-size="14.00">t1</text>
</g>
<!-- S24&#45;&gt;S28 -->
<g id="edge45" class="edge">
<title>S24&#45;&gt;S28</title>
<path fill="none" stroke="black" d="M456.53,-701.92C433.11,-690.47 394.48,-672.9 359.32,-663 308.25,-648.62 292.14,-660.22 241.32,-645 239.39,-644.42 237.43,-643.76 235.47,-643.05"/>
<polygon fill="black" stroke="black" points="236.42,-639.65 225.84,-639.11 233.77,-646.13 236.42,-639.65"/>
<text text-anchor="middle" x="411.82" y="-666.8" font-family="Times,serif" font-size="14.00">t13</text>
</g>
<!-- S24&#45;&gt;S22 -->
<g id="edge44" class="edge">
<title>S24&#45;&gt;S22</title>
<path fill="none" stroke="black" d="M504.25,-706.09C518.58,-700.85 535.27,-692.07 544.32,-678 548.64,-671.29 550.24,-662.96 550.53,-655.04"/>
<polygon fill="black" stroke="black" points="554.03,-654.94 550.26,-645.03 547.03,-655.12 554.03,-654.94"/>
<text text-anchor="middle" x="557.32" y="-666.8" font-family="Times,serif" font-size="14.00">t2</text>
</g>
<!-- S24&#45;&gt;S22 -->
<g id="edge46" class="edge">
<title>S24&#45;&gt;S22</title>
<path fill="none" stroke="black" d="M489.57,-696.92C496.7,-686.95 506.26,-674 515.32,-663 518.76,-658.82 522.55,-654.47 526.28,-650.32"/>
<polygon fill="black" stroke="black" points="529.1,-652.43 533.27,-642.69 523.93,-647.7 529.1,-652.43"/>
<text text-anchor="middle" x="527.82" y="-666.8" font-family="Times,serif" font-size="14.00">t17</text>
</g>
<!-- S10 -->
<g id="node27" class="node">
<title>S10</title>
<ellipse fill="#ffffff" stroke="black" cx="512.32" cy="-279" rx="28.7" ry="18"/>
<text text-anchor="middle" x="512.32" y="-275.3" font-family="Times,serif" font-size="14.00">S10</text>
</g>
<!-- S24&#45;&gt;S10 -->
<g id="edge47" class="edge">
<title>S24&#45;&gt;S10</title>
<path fill="none" stroke="black" d="M468.01,-696.9C464.9,-691.16 461.89,-684.51 460.32,-678 458.75,-671.52 460.28,-669.67 460.32,-663 460.76,-585.66 436.49,-561.9 462.32,-489 475.95,-450.53 505.91,-455.55 519.32,-417 521.51,-410.7 519.51,-408.66 519.32,-402 518.39,-369.49 516.06,-332.16 514.34,-307.45"/>
<polygon fill="black" stroke="black" points="517.83,-307.09 513.63,-297.36 510.85,-307.58 517.83,-307.09"/>
<text text-anchor="middle" x="474.82" y="-492.8" font-family="Times,serif" font-size="14.00">t12</text>
</g>
<!-- S27&#45;&gt;S16 -->
<g id="edge54" class="edge">
<title>S27&#45;&gt;S16</title>
<path fill="none" stroke="black" d="M420.23,-870.21C425.17,-858.22 431.91,-841.85 437.55,-828.16"/>
<polygon fill="black" stroke="black" points="440.85,-829.34 441.42,-818.76 434.37,-826.67 440.85,-829.34"/>
<text text-anchor="middle" x="440.32" y="-840.8" font-family="Times,serif" font-size="14.00">t6</text>
</g>
<!-- S27&#45;&gt;S12 -->
<g id="edge49" class="edge">
<title>S27&#45;&gt;S12</title>
<path fill="none" stroke="black" d="M385.39,-883.94C348.88,-879.31 287.99,-869.19 274.32,-852 269.23,-845.6 267.75,-837.14 267.91,-829"/>
<polygon fill="black" stroke="black" points="271.39,-829.32 268.85,-819.04 264.43,-828.67 271.39,-829.32"/>
<text text-anchor="middle" x="282.32" y="-840.8" font-family="Times,serif" font-size="14.00">t1</text>
</g>
<!-- S27&#45;&gt;S12 -->
<g id="edge51" class="edge">
<title>S27&#45;&gt;S12</title>
<path fill="none" stroke="black" d="M392.54,-875.46C380.66,-868.77 365.54,-860.1 352.32,-852 341.91,-845.63 339.6,-843.57 329.32,-837 320.33,-831.26 310.48,-825.07 301.59,-819.52"/>
<polygon fill="black" stroke="black" points="303.41,-816.53 293.07,-814.22 299.71,-822.48 303.41,-816.53"/>
<text text-anchor="middle" x="364.82" y="-840.8" font-family="Times,serif" font-size="14.00">t13</text>
</g>
<!-- S27&#45;&gt;S26 -->
<g id="edge50" class="edge">
<title>S27&#45;&gt;S26</title>
<path fill="none" stroke="black" d="M441.81,-886.18C521.23,-883.63 740.73,-874.59 763.32,-852 769.22,-846.1 771.41,-837.63 771.84,-829.34"/>
<polygon fill="black" stroke="black" points="775.33,-829.04 771.58,-819.13 768.33,-829.21 775.33,-829.04"/>
<text text-anchor="middle" x="778.32" y="-840.8" font-family="Times,serif" font-size="14.00">t2</text>
</g>
<!-- S27&#45;&gt;S26 -->
<g id="edge52" class="edge">
<title>S27&#45;&gt;S26</title>
<path fill="none" stroke="black" d="M442,-885.97C507.69,-883.24 667.11,-874.45 715.32,-852 719.18,-850.2 733.63,-836.48 746.47,-823.86"/>
<polygon fill="black" stroke="black" points="749.1,-826.18 753.75,-816.66 744.18,-821.2 749.1,-826.18"/>
<text text-anchor="middle" x="744.82" y="-840.8" font-family="Times,serif" font-size="14.00">t17</text>
</g>
<!-- S27&#45;&gt;S1 -->
<g id="edge48" class="edge">
<title>S27&#45;&gt;S1</title>
<path fill="none" stroke="black" d="M440.17,-881.65C492.27,-869.9 607.55,-836.92 671.32,-765 722.14,-707.68 668.43,-610.12 638.53,-565.09"/>
<polygon fill="black" stroke="black" points="641.25,-562.86 632.73,-556.56 635.46,-566.8 641.25,-562.86"/>
<text text-anchor="middle" x="699.32" y="-710.3" font-family="Times,serif" font-size="14.00">t8</text>
</g>
<!-- S27&#45;&gt;S20 -->
<g id="edge53" class="edge">
<title>S27&#45;&gt;S20</title>
<path fill="none" stroke="black" d="M410.66,-869.97C406.13,-843.47 395.57,-791.14 377.32,-750 361.82,-715.07 341.22,-714.63 330.32,-678 309.68,-608.63 332.9,-522.71 347.42,-480.27"/>
<polygon fill="black" stroke="black" points="350.77,-481.28 350.8,-470.69 344.17,-478.95 350.77,-481.28"/>
<text text-anchor="middle" x="342.82" y="-666.8" font-family="Times,serif" font-size="14.00">t12</text>
</g>
<!-- S13&#45;&gt;S8 -->
<g id="edge55" class="edge">
<title>S13&#45;&gt;S8</title>
<path fill="none" stroke="black" d="M694.66,-262.01C702.81,-249.43 714.29,-231.68 723.57,-217.33"/>
<polygon fill="black" stroke="black" points="726.53,-219.21 729.02,-208.92 720.65,-215.41 726.53,-219.21"/>
<text text-anchor="middle" x="722.32" y="-231.8" font-family="Times,serif" font-size="14.00">t7</text>
</g>
<!-- S13&#45;&gt;S7 -->
<g id="edge56" class="edge">
<title>S13&#45;&gt;S7</title>
<path fill="none" stroke="black" d="M685.04,-260.99C686.87,-223.37 692.6,-130.39 707.32,-54 707.84,-51.3 708.47,-48.51 709.16,-45.73"/>
<polygon fill="black" stroke="black" points="712.58,-46.51 711.83,-35.94 705.82,-44.67 712.58,-46.51"/>
<text text-anchor="middle" x="706.82" y="-144.8" font-family="Times,serif" font-size="14.00">t11</text>
</g>
<!-- S4&#45;&gt;S5 -->
<g id="edge57" class="edge">
<title>S4&#45;&gt;S5</title>
<path fill="none" stroke="black" d="M253.32,-260.8C253.32,-249.16 253.32,-233.55 253.32,-220.24"/>
<polygon fill="black" stroke="black" points="256.82,-220.18 253.32,-210.18 249.82,-220.18 256.82,-220.18"/>
<text text-anchor="middle" x="261.32" y="-231.8" font-family="Times,serif" font-size="14.00">t7</text>
</g>
<!-- S18&#45;&gt;S3 -->
<g id="edge58" class="edge">
<title>S18&#45;&gt;S3</title>
<path fill="none" stroke="black" d="M272.71,-609.34C263.8,-586.13 248.16,-542.57 240.32,-504 232.58,-465.95 234.1,-455.79 232.32,-417 232.01,-410.34 230.68,-408.46 232.32,-402 233.2,-398.54 234.49,-395.06 236,-391.7"/>
<polygon fill="black" stroke="black" points="239.18,-393.18 240.65,-382.69 232.95,-389.97 239.18,-393.18"/>
<text text-anchor="middle" x="252.82" y="-492.8" font-family="Times,serif" font-size="14.00">t11</text>
</g>
<!-- S18&#45;&gt;S19 -->
<g id="edge59" class="edge">
<title>S18&#45;&gt;S19</title>
<path fill="none" stroke="black" d="M256.95,-615.48C238.24,-606.54 214.02,-594.61 210.32,-591 203.44,-584.3 197.89,-575.46 193.65,-567.08"/>
<polygon fill="black" stroke="black" points="196.8,-565.56 189.42,-557.96 190.45,-568.5 196.8,-565.56"/>
<text text-anchor="middle" x="218.32" y="-579.8" font-family="Times,serif" font-size="14.00">t7</text>
</g>
<!-- S21&#45;&gt;S15 -->
<g id="edge60" class="edge">
<title>S21&#45;&gt;S15</title>
<path fill="none" stroke="black" d="M172.74,-447.58C204.76,-442.04 259.1,-431.5 304.32,-417 334.14,-407.44 366.8,-393.14 390.02,-382.27"/>
<polygon fill="black" stroke="black" points="391.82,-385.3 399.36,-377.85 388.83,-378.97 391.82,-385.3"/>
<text text-anchor="middle" x="351.32" y="-405.8" font-family="Times,serif" font-size="14.00">t3</text>
</g>
<!-- S21&#45;&gt;S5 -->
<g id="edge61" class="edge">
<title>S21&#45;&gt;S5</title>
<path fill="none" stroke="black" d="M141.01,-435.06C131.62,-393.81 114.17,-287.15 167.32,-228 180.29,-213.57 200.08,-204.97 217.4,-199.91"/>
<polygon fill="black" stroke="black" points="218.47,-203.25 227.25,-197.32 216.69,-196.48 218.47,-203.25"/>
<text text-anchor="middle" x="144.82" y="-318.8" font-family="Times,serif" font-size="14.00">t11</text>
</g>
<!-- S15&#45;&gt;S13 -->
<g id="edge63" class="edge">
<title>S15&#45;&gt;S13</title>
<path fill="none" stroke="black" d="M449.31,-361.62C480.71,-357.14 532.68,-347.67 574.32,-330 585.55,-325.23 586.49,-320.64 597.32,-315 614.18,-306.22 633.76,-298.17 650.07,-292"/>
<polygon fill="black" stroke="black" points="651.58,-295.18 659.75,-288.42 649.16,-288.61 651.58,-295.18"/>
<text text-anchor="middle" x="605.32" y="-318.8" font-family="Times,serif" font-size="14.00">t2</text>
</g>
<!-- S15&#45;&gt;S13 -->
<g id="edge65" class="edge">
<title>S15&#45;&gt;S13</title>
<path fill="none" stroke="black" d="M443.83,-354.84C468.41,-344 509.12,-326.79 545.32,-315 579.56,-303.84 619.51,-294.11 647.77,-287.77"/>
<polygon fill="black" stroke="black" points="648.62,-291.16 657.62,-285.58 647.1,-284.33 648.62,-291.16"/>
<text text-anchor="middle" x="557.82" y="-318.8" font-family="Times,serif" font-size="14.00">t17</text>
</g>
<!-- S15&#45;&gt;S4 -->
<g id="edge62" class="edge">
<title>S15&#45;&gt;S4</title>
<path fill="none" stroke="black" d="M417.56,-347.72C414.29,-336.76 408.43,-323.16 398.32,-315 369.62,-291.84 353.15,-305.74 317.32,-297 307.72,-294.66 297.36,-291.98 287.82,-289.44"/>
<polygon fill="black" stroke="black" points="288.44,-285.98 277.88,-286.78 286.63,-292.75 288.44,-285.98"/>
<text text-anchor="middle" x="417.32" y="-318.8" font-family="Times,serif" font-size="14.00">t1</text>
</g>
<!-- S15&#45;&gt;S4 -->
<g id="edge64" class="edge">
<title>S15&#45;&gt;S4</title>
<path fill="none" stroke="black" d="M399.7,-354.06C370.18,-339.13 317.11,-312.27 283.63,-295.33"/>
<polygon fill="black" stroke="black" points="284.83,-292.02 274.33,-290.63 281.67,-298.27 284.83,-292.02"/>
<text text-anchor="middle" x="359.82" y="-318.8" font-family="Times,serif" font-size="14.00">t13</text>
</g>
<!-- S15&#45;&gt;S10 -->
<g id="edge66" class="edge">
<title>S15&#45;&gt;S10</title>
<path fill="none" stroke="black" d="M437.94,-351.32C445.5,-344.97 454.48,-337.24 462.32,-330 471.94,-321.11 482.23,-310.94 490.96,-302.1"/>
<polygon fill="black" stroke="black" points="493.67,-304.34 498.17,-294.75 488.67,-299.44 493.67,-304.34"/>
<text text-anchor="middle" x="485.32" y="-318.8" font-family="Times,serif" font-size="14.00">t7</text>
</g>
<!-- S15&#45;&gt;S6 -->
<g id="edge67" class="edge">
<title>S15&#45;&gt;S6</title>
<path fill="none" stroke="black" d="M425.37,-347.94C426.69,-342.25 428.11,-335.86 429.32,-330 443.9,-259.11 458.59,-175.06 465.78,-132.92"/>
<polygon fill="black" stroke="black" points="469.26,-133.35 467.48,-122.91 462.36,-132.18 469.26,-133.35"/>
<text text-anchor="middle" x="460.82" y="-231.8" font-family="Times,serif" font-size="14.00">t11</text>
</g>
<!-- S14&#45;&gt;S13 -->
<g id="edge68" class="edge">
<title>S14&#45;&gt;S13</title>
<path fill="none" stroke="black" d="M684.32,-347.8C684.32,-336.16 684.32,-320.55 684.32,-307.24"/>
<polygon fill="black" stroke="black" points="687.82,-307.18 684.32,-297.18 680.82,-307.18 687.82,-307.18"/>
<text text-anchor="middle" x="692.32" y="-318.8" font-family="Times,serif" font-size="14.00">t6</text>
</g>
<!-- S14&#45;&gt;S7 -->
<g id="edge69" class="edge">
<title>S14&#45;&gt;S7</title>
<path fill="none" stroke="black" d="M710.51,-358.65C745.27,-348.48 802.32,-324.94 802.32,-280 802.32,-280 802.32,-280 802.32,-104 802.32,-72.36 772.5,-48.38 748.18,-34.09"/>
<polygon fill="black" stroke="black" points="749.65,-30.89 739.21,-29.09 746.24,-37.01 749.65,-30.89"/>
<text text-anchor="middle" x="810.32" y="-188.3" font-family="Times,serif" font-size="14.00">t8</text>
</g>
<!-- S8&#45;&gt;S9 -->
<g id="edge70" class="edge">
<title>S8&#45;&gt;S9</title>
<path fill="none" stroke="black" d="M740.13,-173.8C740.68,-162.16 741.41,-146.55 742.04,-133.24"/>
<polygon fill="black" stroke="black" points="745.54,-133.33 742.51,-123.18 738.54,-133 745.54,-133.33"/>
<text text-anchor="middle" x="749.32" y="-144.8" font-family="Times,serif" font-size="14.00">t3</text>
</g>
<!-- S5&#45;&gt;S6 -->
<g id="edge71" class="edge">
<title>S5&#45;&gt;S6</title>
<path fill="none" stroke="black" d="M266.06,-176.03C276.54,-164.69 292.37,-149.64 309.32,-141 348.76,-120.9 399.35,-112.31 433.19,-108.66"/>
<polygon fill="black" stroke="black" points="433.95,-112.1 443.56,-107.64 433.27,-105.14 433.95,-112.1"/>
<text text-anchor="middle" x="317.32" y="-144.8" font-family="Times,serif" font-size="14.00">t3</text>
</g>
<!-- S3&#45;&gt;S4 -->
<g id="edge72" class="edge">
<title>S3&#45;&gt;S4</title>
<path fill="none" stroke="black" d="M251.72,-347.8C252,-336.16 252.36,-320.55 252.68,-307.24"/>
<polygon fill="black" stroke="black" points="256.18,-307.26 252.91,-297.18 249.18,-307.09 256.18,-307.26"/>
<text text-anchor="middle" x="261.32" y="-318.8" font-family="Times,serif" font-size="14.00">t6</text>
</g>
<!-- S19&#45;&gt;S21 -->
<g id="edge75" class="edge">
<title>S19&#45;&gt;S21</title>
<path fill="none" stroke="black" d="M175.81,-522.21C170.42,-510.14 163.04,-493.64 156.89,-479.89"/>
<polygon fill="black" stroke="black" points="159.96,-478.17 152.68,-470.47 153.57,-481.03 159.96,-478.17"/>
<text text-anchor="middle" x="175.32" y="-492.8" font-family="Times,serif" font-size="14.00">t6</text>
</g>
<!-- S19&#45;&gt;S5 -->
<g id="edge73" class="edge">
<title>S19&#45;&gt;S5</title>
<path fill="none" stroke="black" d="M185.4,-521.92C186.06,-516.23 186.76,-509.84 187.32,-504 197.67,-395.67 180.47,-363.39 217.32,-261 222.69,-246.08 230.82,-230.37 238,-217.81"/>
<polygon fill="black" stroke="black" points="241.19,-219.29 243.24,-208.89 235.16,-215.74 241.19,-219.29"/>
<text text-anchor="middle" x="203.32" y="-362.3" font-family="Times,serif" font-size="14.00">t8</text>
</g>
<!-- S19&#45;&gt;S20 -->
<g id="edge74" class="edge">
<title>S19&#45;&gt;S20</title>
<path fill="none" stroke="black" d="M207.41,-530.16C224.86,-523.53 248.87,-513.92 269.32,-504 289.6,-494.17 311.64,-481.64 328.6,-471.58"/>
<polygon fill="black" stroke="black" points="330.67,-474.42 337.45,-466.28 327.07,-468.41 330.67,-474.42"/>
<text text-anchor="middle" x="304.32" y="-492.8" font-family="Times,serif" font-size="14.00">t3</text>
</g>
<!-- S10&#45;&gt;S8 -->
<g id="edge76" class="edge">
<title>S10&#45;&gt;S8</title>
<path fill="none" stroke="black" d="M532.21,-265.67C550.81,-254.57 579.64,-238.44 606.32,-228 638.45,-215.42 676.7,-205.89 703.91,-199.97"/>
<polygon fill="black" stroke="black" points="704.71,-203.38 713.76,-197.88 703.25,-196.54 704.71,-203.38"/>
<text text-anchor="middle" x="614.32" y="-231.8" font-family="Times,serif" font-size="14.00">t2</text>
</g>
<!-- S10&#45;&gt;S8 -->
<g id="edge77" class="edge">
<title>S10&#45;&gt;S8</title>
<path fill="none" stroke="black" d="M537.89,-270.62C560.34,-263.96 593.77,-253.62 622.32,-243 651.85,-232.02 684.79,-217.76 708.18,-207.27"/>
<polygon fill="black" stroke="black" points="709.9,-210.34 717.58,-203.03 707.02,-203.96 709.9,-210.34"/>
<text text-anchor="middle" x="669.82" y="-231.8" font-family="Times,serif" font-size="14.00">t17</text>
</g>
<!-- S10&#45;&gt;S5 -->
<g id="edge78" class="edge">
<title>S10&#45;&gt;S5</title>
<path fill="none" stroke="black" d="M506.01,-261.36C500.85,-250.09 492.41,-235.87 480.32,-228 449.71,-208.07 346.67,-198.74 290.53,-195.05"/>
<polygon fill="black" stroke="black" points="290.49,-191.54 280.29,-194.4 290.05,-198.52 290.49,-191.54"/>
<text text-anchor="middle" x="502.32" y="-231.8" font-family="Times,serif" font-size="14.00">t1</text>
</g>
<!-- S10&#45;&gt;S5 -->
<g id="edge79" class="edge">
<title>S10&#45;&gt;S5</title>
<path fill="none" stroke="black" d="M487.42,-269.98C465.53,-262.92 432.79,-252.33 404.32,-243 363.77,-229.71 317.15,-214.25 286.57,-204.08"/>
<polygon fill="black" stroke="black" points="287.44,-200.68 276.84,-200.84 285.23,-207.32 287.44,-200.68"/>
<text text-anchor="middle" x="416.82" y="-231.8" font-family="Times,serif" font-size="14.00">t13</text>
</g>
<!-- S9&#45;&gt;S7 -->
<g id="edge80" class="edge">
<title>S9&#45;&gt;S7</title>
<path fill="none" stroke="black" d="M745.94,-86.91C746.81,-77.05 746.81,-64.55 743.32,-54 741.93,-49.8 739.82,-45.69 737.38,-41.85"/>
<polygon fill="black" stroke="black" points="740.01,-39.51 731.32,-33.46 734.34,-43.61 740.01,-39.51"/>
<text text-anchor="middle" x="753.32" y="-57.8" font-family="Times,serif" font-size="14.00">t1</text>
</g>
<!-- S9&#45;&gt;S7 -->
<g id="edge81" class="edge">
<title>S9&#45;&gt;S7</title>
<path fill="none" stroke="black" d="M728.04,-90.14C722.61,-84.22 717.16,-76.87 714.32,-69 711.75,-61.88 711.28,-53.83 711.77,-46.3"/>
<polygon fill="black" stroke="black" points="715.27,-46.49 712.99,-36.15 708.32,-45.66 715.27,-46.49"/>
<text text-anchor="middle" x="726.82" y="-57.8" font-family="Times,serif" font-size="14.00">t13</text>
</g>
<!-- S6&#45;&gt;S7 -->
<g id="edge82" class="edge">
<title>S6&#45;&gt;S7</title>
<path fill="none" stroke="black" d="M489.95,-92.19C509.29,-81 539.98,-64.38 568.32,-54 605.7,-40.3 650.37,-30.65 680.98,-25"/>
<polygon fill="black" stroke="black" points="681.97,-28.38 691.19,-23.17 680.73,-21.49 681.97,-28.38"/>
<text text-anchor="middle" x="576.32" y="-57.8" font-family="Times,serif" font-size="14.00">t2</text>
</g>
<!-- S6&#45;&gt;S7 -->
<g id="edge83" class="edge">
<title>S6&#45;&gt;S7</title>
<path fill="none" stroke="black" d="M494.92,-96.92C518.1,-90.14 553.75,-79.43 584.32,-69 618.89,-57.21 657.97,-42.33 684.77,-31.88"/>
<polygon fill="black" stroke="black" points="686.37,-35.01 694.41,-28.11 683.82,-28.49 686.37,-35.01"/>
<text text-anchor="middle" x="636.82" y="-57.8" font-family="Times,serif" font-size="14.00">t17</text>
</g>
<!-- S20&#45;&gt;S15 -->
<g id="edge84" class="edge">
<title>S20&#45;&gt;S15</title>
<path fill="none" stroke="black" d="M367.6,-435.92C374.12,-425.96 382.9,-413.01 391.32,-402 394.38,-398 397.75,-393.85 401.09,-389.87"/>
<polygon fill="black" stroke="black" points="403.95,-391.9 407.8,-382.03 398.64,-387.35 403.95,-391.9"/>
<text text-anchor="middle" x="399.32" y="-405.8" font-family="Times,serif" font-size="14.00">t6</text>
</g>
<!-- S20&#45;&gt;S14 -->
<g id="edge85" class="edge">
<title>S20&#45;&gt;S14</title>
<path fill="none" stroke="black" d="M376.78,-439.7C396,-428.13 426.59,-411.26 455.32,-402 520.13,-381.12 599.38,-372.55 645.62,-369.14"/>
<polygon fill="black" stroke="black" points="646.07,-372.62 655.8,-368.43 645.59,-365.63 646.07,-372.62"/>
<text text-anchor="middle" x="463.32" y="-405.8" font-family="Times,serif" font-size="14.00">t2</text>
</g>
<!-- S20&#45;&gt;S14 -->
<g id="edge86" class="edge">
<title>S20&#45;&gt;S14</title>
<path fill="none" stroke="black" d="M382.65,-444.25C425.63,-431.12 509.55,-405.56 523.32,-402 565.55,-391.07 614.6,-380.74 647.35,-374.18"/>
<polygon fill="black" stroke="black" points="648.26,-377.56 657.39,-372.18 646.9,-370.7 648.26,-377.56"/>
<text text-anchor="middle" x="535.82" y="-405.8" font-family="Times,serif" font-size="14.00">t17</text>
</g>
<!-- S20&#45;&gt;S3 -->
<g id="edge87" class="edge">
<title>S20&#45;&gt;S3</title>
<path fill="none" stroke="black" d="M328.59,-452.39C300.96,-451.03 260.52,-444.12 240.32,-417 235.13,-410.03 235.51,-401.09 237.96,-392.71"/>
<polygon fill="black" stroke="black" points="241.26,-393.86 241.57,-383.27 234.73,-391.35 241.26,-393.86"/>
<text text-anchor="middle" x="248.32" y="-405.8" font-family="Times,serif" font-size="14.00">t1</text>
</g>
<!-- S20&#45;&gt;S3 -->
<g id="edge88" class="edge">
<title>S20&#45;&gt;S3</title>
<path fill="none" stroke="black" d="M331.42,-445C314.98,-439.52 294.1,-430.53 279.32,-417 272.07,-410.36 266.24,-401.4 261.82,-392.9"/>
<polygon fill="black" stroke="black" points="264.88,-391.17 257.43,-383.64 258.55,-394.17 264.88,-391.17"/>
<text text-anchor="middle" x="291.82" y="-405.8" font-family="Times,serif" font-size="14.00">t13</text>
</g>
<!-- S20&#45;&gt;S6 -->
<g id="edge89" class="edge">
<title>S20&#45;&gt;S6</title>
<path fill="none" stroke="black" d="M353.77,-434.78C349.02,-408.47 342.39,-356.9 353.32,-315 372.51,-241.43 423.97,-166.34 451.82,-129.43"/>
<polygon fill="black" stroke="black" points="454.73,-131.37 458.03,-121.3 449.17,-127.12 454.73,-131.37"/>
<text text-anchor="middle" x="379.32" y="-275.3" font-family="Times,serif" font-size="14.00">t8</text>
</g>
</g>
</svg>
