<?xml version="1.0" encoding="UTF-8" standalone="no"?>
<!DOCTYPE svg PUBLIC "-//W3C//DTD SVG 1.1//EN"
 "http://www.w3.org/Graphics/SVG/1.1/DTD/svg11.dtd">
<!-- Generated by graphviz version 2.43.0 (0)
 -->
<!-- Title: SCdebug/11 Pages: 1 -->
<svg width="602pt" height="1242pt"
 viewBox="0.00 0.00 602.00 1242.22" xmlns="http://www.w3.org/2000/svg" xmlns:xlink="http://www.w3.org/1999/xlink">
<g id="graph0" class="graph" transform="scale(1 1) rotate(0) translate(4 1238.22)">
<title>SCdebug/11</title>
<polygon fill="white" stroke="transparent" points="-4,4 -4,-1238.22 598,-1238.22 598,4 -4,4"/>
<!-- R101_L132 -->
<g id="node1" class="node">
<title>R101_L132</title>
<ellipse fill="none" stroke="black" cx="395" cy="-1167.18" rx="63.09" ry="63.09"/>
<ellipse fill="none" stroke="black" cx="395" cy="-1167.18" rx="67.09" ry="67.09"/>
<text text-anchor="middle" x="395" y="-1163.48" font-family="Times,serif" font-size="14.00">R101_L132</text>
</g>
<!-- R101_L1e2 -->
<g id="node4" class="node">
<title>R101_L1e2</title>
<ellipse fill="none" stroke="black" cx="394" cy="-431.37" rx="62.3" ry="62.3"/>
<ellipse fill="none" stroke="black" cx="394" cy="-431.37" rx="66.29" ry="66.29"/>
<text text-anchor="middle" x="394" y="-427.67" font-family="Times,serif" font-size="14.00">R101_L1e2</text>
</g>
<!-- R101_L132&#45;&gt;R101_L1e2 -->
<g id="edge3" class="edge">
<title>R101_L132&#45;&gt;R101_L1e2</title>
<path fill="none" stroke="black" d="M453.28,-1132.99C500.42,-1101.34 559,-1048.9 559,-983.74 559,-983.74 559,-983.74 559,-614.16 559,-552.37 506.08,-502.26 460.18,-470.42"/>
<polygon fill="black" stroke="black" points="461.95,-467.4 451.71,-464.69 458.03,-473.19 461.95,-467.4"/>
<text text-anchor="middle" x="576.5" y="-795.25" font-family="Times,serif" font-size="14.00">t8R3</text>
</g>
<!-- R001_L13e -->
<g id="node10" class="node">
<title>R001_L13e</title>
<ellipse fill="none" stroke="black" cx="395" cy="-982.74" rx="62.3" ry="62.3"/>
<ellipse fill="none" stroke="black" cx="395" cy="-982.74" rx="66.29" ry="66.29"/>
<text text-anchor="middle" x="395" y="-979.04" font-family="Times,serif" font-size="14.00">R001_L13e</text>
</g>
<!-- R101_L132&#45;&gt;R001_L13e -->
<g id="edge1" class="edge">
<title>R101_L132&#45;&gt;R001_L13e</title>
<path fill="none" stroke="black" d="M395,-1100.06C395,-1086.89 395,-1072.97 395,-1059.51"/>
<polygon fill="black" stroke="black" points="398.5,-1059.33 395,-1049.33 391.5,-1059.33 398.5,-1059.33"/>
<text text-anchor="middle" x="403" y="-1070.93" font-family="Times,serif" font-size="14.00">t3</text>
</g>
<!-- R100_L1e2 -->
<g id="node14" class="node">
<title>R100_L1e2</title>
<ellipse fill="none" stroke="black" cx="244" cy="-982.74" rx="62.3" ry="62.3"/>
<ellipse fill="none" stroke="black" cx="244" cy="-982.74" rx="66.29" ry="66.29"/>
<text text-anchor="middle" x="244" y="-979.04" font-family="Times,serif" font-size="14.00">R100_L1e2</text>
</g>
<!-- R101_L132&#45;&gt;R100_L1e2 -->
<g id="edge2" class="edge">
<title>R101_L132&#45;&gt;R100_L1e2</title>
<path fill="none" stroke="black" d="M352.54,-1114.87C333.81,-1092.24 311.7,-1065.53 292.34,-1042.14"/>
<polygon fill="black" stroke="black" points="294.96,-1039.82 285.88,-1034.34 289.56,-1044.28 294.96,-1039.82"/>
<text text-anchor="middle" x="333" y="-1070.93" font-family="Times,serif" font-size="14.00">t6</text>
</g>
<!-- R101_L13e -->
<g id="node2" class="node">
<title>R101_L13e</title>
<ellipse fill="none" stroke="black" cx="394" cy="-798.95" rx="62.3" ry="62.3"/>
<ellipse fill="none" stroke="black" cx="394" cy="-798.95" rx="66.29" ry="66.29"/>
<text text-anchor="middle" x="394" y="-795.25" font-family="Times,serif" font-size="14.00">R101_L13e</text>
</g>
<!-- R100_L1ee -->
<g id="node3" class="node">
<title>R100_L1ee</title>
<ellipse fill="none" stroke="black" cx="394" cy="-615.16" rx="61.98" ry="61.98"/>
<ellipse fill="none" stroke="black" cx="394" cy="-615.16" rx="65.99" ry="65.99"/>
<text text-anchor="middle" x="394" y="-611.46" font-family="Times,serif" font-size="14.00">R100_L1ee</text>
</g>
<!-- R101_L13e&#45;&gt;R100_L1ee -->
<g id="edge4" class="edge">
<title>R101_L13e&#45;&gt;R100_L1ee</title>
<path fill="none" stroke="black" d="M394,-732.32C394,-719.03 394,-704.96 394,-691.36"/>
<polygon fill="black" stroke="black" points="397.5,-691.09 394,-681.09 390.5,-691.09 397.5,-691.09"/>
<text text-anchor="middle" x="402" y="-703.36" font-family="Times,serif" font-size="14.00">t6</text>
</g>
<!-- R100_L1ee&#45;&gt;R101_L1e2 -->
<g id="edge5" class="edge">
<title>R100_L1ee&#45;&gt;R101_L1e2</title>
<path fill="none" stroke="black" d="M394,-549.3C394,-535.98 394,-521.83 394,-508.16"/>
<polygon fill="black" stroke="black" points="397.5,-507.82 394,-497.82 390.5,-507.82 397.5,-507.82"/>
<text text-anchor="middle" x="402" y="-519.57" font-family="Times,serif" font-size="14.00">t7</text>
</g>
<!-- R001_L1ee -->
<g id="node5" class="node">
<title>R001_L1ee</title>
<ellipse fill="none" stroke="black" cx="394" cy="-248.23" rx="61.98" ry="61.98"/>
<ellipse fill="none" stroke="black" cx="394" cy="-248.23" rx="65.99" ry="65.99"/>
<text text-anchor="middle" x="394" y="-244.53" font-family="Times,serif" font-size="14.00">R001_L1ee</text>
</g>
<!-- R101_L1e2&#45;&gt;R001_L1ee -->
<g id="edge6" class="edge">
<title>R101_L1e2&#45;&gt;R001_L1ee</title>
<path fill="none" stroke="black" d="M394,-364.98C394,-351.81 394,-337.88 394,-324.41"/>
<polygon fill="black" stroke="black" points="397.5,-324.23 394,-314.23 390.5,-324.23 397.5,-324.23"/>
<text text-anchor="middle" x="402" y="-335.78" font-family="Times,serif" font-size="14.00">t3</text>
</g>
<!-- R101_Leee -->
<g id="node6" class="node">
<title>R101_Leee</title>
<ellipse fill="none" stroke="black" cx="196" cy="-65.74" rx="61.98" ry="61.98"/>
<ellipse fill="none" stroke="black" cx="196" cy="-65.74" rx="65.99" ry="65.99"/>
<text text-anchor="middle" x="196" y="-62.04" font-family="Times,serif" font-size="14.00">R101_Leee</text>
</g>
<!-- R001_L1ee&#45;&gt;R101_Leee -->
<g id="edge7" class="edge">
<title>R001_L1ee&#45;&gt;R101_Leee</title>
<path fill="none" stroke="black" d="M345.82,-203.31C317.55,-177.55 281.7,-144.87 252.16,-117.94"/>
<polygon fill="black" stroke="black" points="254.15,-115.01 244.4,-110.86 249.43,-120.19 254.15,-115.01"/>
<text text-anchor="middle" x="309" y="-153.29" font-family="Times,serif" font-size="14.00">t2</text>
</g>
<!-- R101_Lee2 -->
<g id="node7" class="node">
<title>R101_Lee2</title>
<ellipse fill="none" stroke="black" cx="196" cy="-431.37" rx="61.98" ry="61.98"/>
<ellipse fill="none" stroke="black" cx="196" cy="-431.37" rx="65.99" ry="65.99"/>
<text text-anchor="middle" x="196" y="-427.67" font-family="Times,serif" font-size="14.00">R101_Lee2</text>
</g>
<!-- R001_Leee -->
<g id="node8" class="node">
<title>R001_Leee</title>
<ellipse fill="none" stroke="black" cx="196" cy="-248.23" rx="61.98" ry="61.98"/>
<ellipse fill="none" stroke="black" cx="196" cy="-248.23" rx="65.99" ry="65.99"/>
<text text-anchor="middle" x="196" y="-244.53" font-family="Times,serif" font-size="14.00">R001_Leee</text>
</g>
<!-- R101_Lee2&#45;&gt;R001_Leee -->
<g id="edge8" class="edge">
<title>R101_Lee2&#45;&gt;R001_Leee</title>
<path fill="none" stroke="black" d="M196,-365.49C196,-352.22 196,-338.15 196,-324.56"/>
<polygon fill="black" stroke="black" points="199.5,-324.27 196,-314.27 192.5,-324.27 199.5,-324.27"/>
<text text-anchor="middle" x="204" y="-335.78" font-family="Times,serif" font-size="14.00">t3</text>
</g>
<!-- R001_Leee&#45;&gt;R101_Leee -->
<g id="edge9" class="edge">
<title>R001_Leee&#45;&gt;R101_Leee</title>
<path fill="none" stroke="black" d="M196,-182.33C196,-169.2 196,-155.3 196,-141.85"/>
<polygon fill="black" stroke="black" points="199.5,-141.68 196,-131.68 192.5,-141.68 199.5,-141.68"/>
<text text-anchor="middle" x="213.5" y="-153.29" font-family="Times,serif" font-size="14.00">t1R1</text>
</g>
<!-- R100_Leee -->
<g id="node9" class="node">
<title>R100_Leee</title>
<ellipse fill="none" stroke="black" cx="94" cy="-615.16" rx="61.98" ry="61.98"/>
<ellipse fill="none" stroke="black" cx="94" cy="-615.16" rx="65.99" ry="65.99"/>
<text text-anchor="middle" x="94" y="-611.46" font-family="Times,serif" font-size="14.00">R100_Leee</text>
</g>
<!-- R100_Leee&#45;&gt;R101_Lee2 -->
<g id="edge10" class="edge">
<title>R100_Leee&#45;&gt;R101_Lee2</title>
<path fill="none" stroke="black" d="M125.99,-557.14C136.53,-538.36 148.33,-517.33 159.2,-497.96"/>
<polygon fill="black" stroke="black" points="162.28,-499.62 164.12,-489.19 156.17,-496.2 162.28,-499.62"/>
<text text-anchor="middle" x="157" y="-519.57" font-family="Times,serif" font-size="14.00">t7</text>
</g>
<!-- R001_L13e&#45;&gt;R101_L13e -->
<g id="edge11" class="edge">
<title>R001_L13e&#45;&gt;R101_L13e</title>
<path fill="none" stroke="black" d="M394.64,-916.11C394.57,-902.98 394.49,-889.09 394.42,-875.65"/>
<polygon fill="black" stroke="black" points="397.92,-875.46 394.36,-865.48 390.92,-875.5 397.92,-875.46"/>
<text text-anchor="middle" x="412.5" y="-887.14" font-family="Times,serif" font-size="14.00">t1R1</text>
</g>
<!-- R001_L13e&#45;&gt;R001_L1ee -->
<g id="edge14" class="edge">
<title>R001_L13e&#45;&gt;R001_L1ee</title>
<path fill="none" stroke="black" d="M439.59,-933.23C466.65,-898.71 496,-849.77 496,-799.95 496,-799.95 496,-799.95 496,-430.37 496,-383.93 470.23,-338.41 444.59,-304.62"/>
<polygon fill="black" stroke="black" points="447.35,-302.46 438.44,-296.72 441.83,-306.76 447.35,-302.46"/>
<text text-anchor="middle" x="513.5" y="-611.46" font-family="Times,serif" font-size="14.00">t8R3</text>
</g>
<!-- R101_Le3e -->
<g id="node11" class="node">
<title>R101_Le3e</title>
<ellipse fill="none" stroke="black" cx="94" cy="-798.95" rx="61.99" ry="61.99"/>
<text text-anchor="middle" x="94" y="-795.25" font-family="Times,serif" font-size="14.00">R101_Le3e</text>
</g>
<!-- R001_L13e&#45;&gt;R101_Le3e -->
<g id="edge12" class="edge">
<title>R001_L13e&#45;&gt;R101_Le3e</title>
<path fill="none" stroke="black" d="M346.12,-937.57C337.3,-930.22 328.03,-922.87 319,-916.34 295.89,-899.65 290.64,-893.49 264,-883.34 223.84,-868.05 207.65,-884.12 169,-865.34 160.67,-861.3 152.54,-856.08 144.89,-850.36"/>
<polygon fill="black" stroke="black" points="146.81,-847.42 136.79,-843.98 142.48,-852.91 146.81,-847.42"/>
<text text-anchor="middle" x="302" y="-887.14" font-family="Times,serif" font-size="14.00">t2</text>
</g>
<!-- R000_L1ee -->
<g id="node12" class="node">
<title>R000_L1ee</title>
<ellipse fill="none" stroke="black" cx="244" cy="-798.95" rx="61.98" ry="61.98"/>
<ellipse fill="none" stroke="black" cx="244" cy="-798.95" rx="65.99" ry="65.99"/>
<text text-anchor="middle" x="244" y="-795.25" font-family="Times,serif" font-size="14.00">R000_L1ee</text>
</g>
<!-- R001_L13e&#45;&gt;R000_L1ee -->
<g id="edge13" class="edge">
<title>R001_L13e&#45;&gt;R000_L1ee</title>
<path fill="none" stroke="black" d="M355.94,-928.73C344.61,-913.84 332.04,-897.78 320,-883.34 312.18,-873.97 303.66,-864.21 295.25,-854.82"/>
<polygon fill="black" stroke="black" points="297.84,-852.46 288.54,-847.38 292.64,-857.15 297.84,-852.46"/>
<text text-anchor="middle" x="339" y="-887.14" font-family="Times,serif" font-size="14.00">t6</text>
</g>
<!-- R101_Le3e&#45;&gt;R101_Leee -->
<g id="edge16" class="edge">
<title>R101_Le3e&#45;&gt;R101_Leee</title>
<path fill="none" stroke="black" d="M54.41,-751.55C28.72,-716.67 0,-666.44 0,-616.16 0,-616.16 0,-616.16 0,-247.23 0,-176.47 69.99,-125.82 126.33,-96.53"/>
<polygon fill="black" stroke="black" points="128.26,-99.47 135.59,-91.83 125.09,-93.23 128.26,-99.47"/>
<text text-anchor="middle" x="17.5" y="-427.67" font-family="Times,serif" font-size="14.00">t8R3</text>
</g>
<!-- R101_Le3e&#45;&gt;R100_Leee -->
<g id="edge15" class="edge">
<title>R101_Le3e&#45;&gt;R100_Leee</title>
<path fill="none" stroke="black" d="M94,-737.16C94,-722.49 94,-706.63 94,-691.38"/>
<polygon fill="black" stroke="black" points="97.5,-690.94 94,-680.94 90.5,-690.94 97.5,-690.94"/>
<text text-anchor="middle" x="102" y="-703.36" font-family="Times,serif" font-size="14.00">t6</text>
</g>
<!-- R000_L1ee&#45;&gt;R100_L1ee -->
<g id="edge17" class="edge">
<title>R000_L1ee&#45;&gt;R100_L1ee</title>
<path fill="none" stroke="black" d="M285.39,-747.79C304.16,-725.04 326.48,-697.99 345.99,-674.35"/>
<polygon fill="black" stroke="black" points="348.82,-676.41 352.49,-666.47 343.43,-671.95 348.82,-676.41"/>
<text text-anchor="middle" x="341.5" y="-703.36" font-family="Times,serif" font-size="14.00">t1R1</text>
</g>
<!-- R000_L1ee&#45;&gt;R100_Leee -->
<g id="edge18" class="edge">
<title>R000_L1ee&#45;&gt;R100_Leee</title>
<path fill="none" stroke="black" d="M202.61,-747.79C183.84,-725.04 161.52,-697.99 142.01,-674.35"/>
<polygon fill="black" stroke="black" points="144.57,-671.95 135.51,-666.47 139.18,-676.41 144.57,-671.95"/>
<text text-anchor="middle" x="182" y="-703.36" font-family="Times,serif" font-size="14.00">t2</text>
</g>
<!-- R001_L1e2 -->
<g id="node13" class="node">
<title>R001_L1e2</title>
<ellipse fill="none" stroke="black" cx="244" cy="-615.16" rx="62.3" ry="62.3"/>
<ellipse fill="none" stroke="black" cx="244" cy="-615.16" rx="66.29" ry="66.29"/>
<text text-anchor="middle" x="244" y="-611.46" font-family="Times,serif" font-size="14.00">R001_L1e2</text>
</g>
<!-- R000_L1ee&#45;&gt;R001_L1e2 -->
<g id="edge19" class="edge">
<title>R000_L1ee&#45;&gt;R001_L1e2</title>
<path fill="none" stroke="black" d="M244,-733.09C244,-719.76 244,-705.62 244,-691.95"/>
<polygon fill="black" stroke="black" points="247.5,-691.61 244,-681.61 240.5,-691.61 247.5,-691.61"/>
<text text-anchor="middle" x="252" y="-703.36" font-family="Times,serif" font-size="14.00">t7</text>
</g>
<!-- R001_L1e2&#45;&gt;R101_L1e2 -->
<g id="edge20" class="edge">
<title>R001_L1e2&#45;&gt;R101_L1e2</title>
<path fill="none" stroke="black" d="M285.78,-563.52C304.4,-540.96 326.43,-514.26 345.74,-490.85"/>
<polygon fill="black" stroke="black" points="348.52,-493 352.18,-483.05 343.12,-488.54 348.52,-493"/>
<text text-anchor="middle" x="341.5" y="-519.57" font-family="Times,serif" font-size="14.00">t1R1</text>
</g>
<!-- R001_L1e2&#45;&gt;R101_Lee2 -->
<g id="edge21" class="edge">
<title>R001_L1e2&#45;&gt;R101_Lee2</title>
<path fill="none" stroke="black" d="M227.28,-550.84C223.37,-536.04 219.18,-520.17 215.18,-505.01"/>
<polygon fill="black" stroke="black" points="218.52,-503.94 212.58,-495.16 211.75,-505.73 218.52,-503.94"/>
<text text-anchor="middle" x="230" y="-519.57" font-family="Times,serif" font-size="14.00">t2</text>
</g>
<!-- R100_L1e2&#45;&gt;R000_L1ee -->
<g id="edge22" class="edge">
<title>R100_L1e2&#45;&gt;R000_L1ee</title>
<path fill="none" stroke="black" d="M244,-916.11C244,-902.82 244,-888.74 244,-875.15"/>
<polygon fill="black" stroke="black" points="247.5,-874.87 244,-864.87 240.5,-874.87 247.5,-874.87"/>
<text text-anchor="middle" x="252" y="-887.14" font-family="Times,serif" font-size="14.00">t3</text>
</g>
</g>
</svg>
