<?xml version="1.0" encoding="UTF-8" standalone="no"?>
<!DOCTYPE svg PUBLIC "-//W3C//DTD SVG 1.1//EN"
 "http://www.w3.org/Graphics/SVG/1.1/DTD/svg11.dtd">
<!-- Generated by graphviz version 2.43.0 (0)
 -->
<!-- Title: SCdebug/11 Pages: 1 -->
<svg width="706pt" height="914pt"
 viewBox="0.00 0.00 706.34 914.00" xmlns="http://www.w3.org/2000/svg" xmlns:xlink="http://www.w3.org/1999/xlink">
<g id="graph0" class="graph" transform="scale(1 1) rotate(0) translate(4 910)">
<title>SCdebug/11</title>
<polygon fill="white" stroke="transparent" points="-4,4 -4,-910 702.34,-910 702.34,4 -4,4"/>
<!-- S11 -->
<g id="node1" class="node">
<title>S11</title>
<ellipse fill="none" stroke="black" cx="512.34" cy="-714" rx="28.7" ry="18"/>
<text text-anchor="middle" x="512.34" y="-710.3" font-family="Times,serif" font-size="14.00">S11</text>
</g>
<!-- S24 -->
<g id="node6" class="node">
<title>S24</title>
<ellipse fill="#ffffff" stroke="black" cx="616.34" cy="-627" rx="28.7" ry="18"/>
<text text-anchor="middle" x="616.34" y="-623.3" font-family="Times,serif" font-size="14.00">S24</text>
</g>
<!-- S11&#45;&gt;S24 -->
<g id="edge2" class="edge">
<title>S11&#45;&gt;S24</title>
<path fill="none" stroke="black" d="M536.44,-704.23C550.56,-698.29 568.15,-689.44 581.34,-678 589.42,-670.99 596.56,-661.73 602.26,-653.09"/>
<polygon fill="black" stroke="black" points="605.34,-654.77 607.65,-644.43 599.4,-651.07 605.34,-654.77"/>
<text text-anchor="middle" x="602.34" y="-666.8" font-family="Times,serif" font-size="14.00">t7</text>
</g>
<!-- S4 -->
<g id="node12" class="node">
<title>S4</title>
<ellipse fill="#ffffff" stroke="black" cx="406.34" cy="-279" rx="27" ry="18"/>
<text text-anchor="middle" x="406.34" y="-275.3" font-family="Times,serif" font-size="14.00">S4</text>
</g>
<!-- S11&#45;&gt;S4 -->
<g id="edge1" class="edge">
<title>S11&#45;&gt;S4</title>
<path fill="none" stroke="black" d="M504.09,-696.63C501.52,-690.88 498.95,-684.28 497.34,-678 476.38,-596.31 460.06,-570.87 480.34,-489 490.48,-448.04 533.65,-441.32 518.34,-402 501.22,-358.05 460.06,-320.33 432.69,-298.91"/>
<polygon fill="black" stroke="black" points="434.75,-296.08 424.68,-292.79 430.51,-301.64 434.75,-296.08"/>
<text text-anchor="middle" x="492.84" y="-492.8" font-family="Times,serif" font-size="14.00">t12</text>
</g>
<!-- S16 -->
<g id="node2" class="node">
<title>S16</title>
<ellipse fill="#ffeeee" stroke="black" cx="294.34" cy="-714" rx="28.7" ry="18"/>
<text text-anchor="middle" x="294.34" y="-710.3" font-family="Times,serif" font-size="14.00">S16</text>
</g>
<!-- S2 -->
<g id="node5" class="node">
<title>S2</title>
<ellipse fill="#ffeeee" stroke="black" cx="571.34" cy="-453" rx="27" ry="18"/>
<text text-anchor="middle" x="571.34" y="-449.3" font-family="Times,serif" font-size="14.00">S2</text>
</g>
<!-- S16&#45;&gt;S2 -->
<g id="edge5" class="edge">
<title>S16&#45;&gt;S2</title>
<path fill="none" stroke="black" d="M319.21,-704.76C342.11,-696.94 374.15,-685.32 385.34,-678 476.34,-618.48 502.71,-598.02 557.34,-504 561.43,-496.95 564.38,-488.65 566.48,-480.86"/>
<polygon fill="black" stroke="black" points="569.9,-481.59 568.78,-471.05 563.09,-479.99 569.9,-481.59"/>
<text text-anchor="middle" x="520.84" y="-579.8" font-family="Times,serif" font-size="14.00">t11</text>
</g>
<!-- S21 -->
<g id="node7" class="node">
<title>S21</title>
<ellipse fill="#ffffff" stroke="black" cx="330.34" cy="-627" rx="28.7" ry="18"/>
<text text-anchor="middle" x="330.34" y="-623.3" font-family="Times,serif" font-size="14.00">S21</text>
</g>
<!-- S16&#45;&gt;S21 -->
<g id="edge6" class="edge">
<title>S16&#45;&gt;S21</title>
<path fill="none" stroke="black" d="M290.61,-696.12C289.2,-686.1 288.87,-673.37 293.34,-663 295.76,-657.38 299.57,-652.24 303.85,-647.74"/>
<polygon fill="black" stroke="black" points="306.39,-650.15 311.32,-640.77 301.62,-645.03 306.39,-650.15"/>
<text text-anchor="middle" x="301.34" y="-666.8" font-family="Times,serif" font-size="14.00">t7</text>
</g>
<!-- S12 -->
<g id="node11" class="node">
<title>S12</title>
<ellipse fill="#ffeeee" stroke="black" cx="181.34" cy="-279" rx="28.7" ry="18"/>
<text text-anchor="middle" x="181.34" y="-275.3" font-family="Times,serif" font-size="14.00">S12</text>
</g>
<!-- S16&#45;&gt;S12 -->
<g id="edge3" class="edge">
<title>S16&#45;&gt;S12</title>
<path fill="none" stroke="black" d="M270.85,-703.68C232.84,-687.24 158.64,-649.22 124.34,-591 69.01,-497.1 50.4,-449.01 91.34,-348 101.59,-322.7 127.35,-304.8 148.7,-293.73"/>
<polygon fill="black" stroke="black" points="150.38,-296.8 157.83,-289.26 147.31,-290.52 150.38,-296.8"/>
<text text-anchor="middle" x="92.84" y="-492.8" font-family="Times,serif" font-size="14.00">t12</text>
</g>
<!-- S17 -->
<g id="node13" class="node">
<title>S17</title>
<ellipse fill="#ffffff" stroke="black" cx="247.34" cy="-627" rx="28.7" ry="18"/>
<text text-anchor="middle" x="247.34" y="-623.3" font-family="Times,serif" font-size="14.00">S17</text>
</g>
<!-- S16&#45;&gt;S17 -->
<g id="edge4" class="edge">
<title>S16&#45;&gt;S17</title>
<path fill="none" stroke="black" d="M282.17,-697.43C277.84,-691.52 273.11,-684.62 269.34,-678 265.05,-670.47 261.02,-661.94 257.61,-654.09"/>
<polygon fill="black" stroke="black" points="260.74,-652.5 253.65,-644.63 254.28,-655.2 260.74,-652.5"/>
<text text-anchor="middle" x="277.34" y="-666.8" font-family="Times,serif" font-size="14.00">t5</text>
</g>
<!-- S0 -->
<g id="node3" class="node">
<title>S0</title>
<ellipse fill="#ffffff" stroke="black" cx="633.34" cy="-888" rx="27" ry="18"/>
<text text-anchor="middle" x="633.34" y="-884.3" font-family="Times,serif" font-size="14.00">S0</text>
</g>
<!-- S15 -->
<g id="node4" class="node">
<title>S15</title>
<ellipse fill="#ffffff" stroke="black" cx="428.34" cy="-801" rx="28.7" ry="18"/>
<text text-anchor="middle" x="428.34" y="-797.3" font-family="Times,serif" font-size="14.00">S15</text>
</g>
<!-- S0&#45;&gt;S15 -->
<g id="edge8" class="edge">
<title>S0&#45;&gt;S15</title>
<path fill="none" stroke="black" d="M611.01,-877.74C574.79,-862.72 503.07,-832.98 461.07,-815.57"/>
<polygon fill="black" stroke="black" points="462.16,-812.23 451.58,-811.64 459.48,-818.7 462.16,-812.23"/>
<text text-anchor="middle" x="550.34" y="-840.8" font-family="Times,serif" font-size="14.00">t3</text>
</g>
<!-- S0&#45;&gt;S24 -->
<g id="edge9" class="edge">
<title>S0&#45;&gt;S24</title>
<path fill="none" stroke="black" d="M632.22,-870.01C629.34,-826.1 621.63,-708.6 618.12,-655.15"/>
<polygon fill="black" stroke="black" points="621.6,-654.81 617.46,-645.06 614.62,-655.26 621.6,-654.81"/>
<text text-anchor="middle" x="636.84" y="-753.8" font-family="Times,serif" font-size="14.00">t11</text>
</g>
<!-- S20 -->
<g id="node14" class="node">
<title>S20</title>
<ellipse fill="#ffffff" stroke="black" cx="435.34" cy="-453" rx="28.7" ry="18"/>
<text text-anchor="middle" x="435.34" y="-449.3" font-family="Times,serif" font-size="14.00">S20</text>
</g>
<!-- S0&#45;&gt;S20 -->
<g id="edge7" class="edge">
<title>S0&#45;&gt;S20</title>
<path fill="none" stroke="black" d="M645.56,-871.72C657.32,-855.44 673.34,-828.42 673.34,-802 673.34,-802 673.34,-802 673.34,-669.5 673.34,-641.32 675.88,-627.18 654.34,-609 609.09,-570.81 576.08,-615.86 522.34,-591 469.78,-566.68 448.94,-556.88 425.34,-504 421.99,-496.5 422.38,-487.86 424.25,-479.9"/>
<polygon fill="black" stroke="black" points="427.6,-480.91 427.22,-470.32 420.91,-478.83 427.6,-480.91"/>
<text text-anchor="middle" x="685.84" y="-666.8" font-family="Times,serif" font-size="14.00">t12</text>
</g>
<!-- S15&#45;&gt;S11 -->
<g id="edge13" class="edge">
<title>S15&#45;&gt;S11</title>
<path fill="none" stroke="black" d="M454.75,-793.95C470.89,-788.89 490.61,-780.01 502.34,-765 507.34,-758.6 510.04,-750.36 511.45,-742.42"/>
<polygon fill="black" stroke="black" points="514.94,-742.69 512.64,-732.35 507.99,-741.87 514.94,-742.69"/>
<text text-anchor="middle" x="517.34" y="-753.8" font-family="Times,serif" font-size="14.00">t1</text>
</g>
<!-- S15&#45;&gt;S11 -->
<g id="edge15" class="edge">
<title>S15&#45;&gt;S11</title>
<path fill="none" stroke="black" d="M441.32,-784.74C450.1,-774.63 462.1,-761.22 473.34,-750 478.07,-745.28 483.3,-740.38 488.35,-735.8"/>
<polygon fill="black" stroke="black" points="490.91,-738.2 496.04,-728.93 486.25,-732.98 490.91,-738.2"/>
<text text-anchor="middle" x="485.84" y="-753.8" font-family="Times,serif" font-size="14.00">t13</text>
</g>
<!-- S15&#45;&gt;S16 -->
<g id="edge14" class="edge">
<title>S15&#45;&gt;S16</title>
<path fill="none" stroke="black" d="M408.85,-787.64C386.13,-773.22 348.37,-749.28 322.47,-732.85"/>
<polygon fill="black" stroke="black" points="324.17,-729.78 313.85,-727.37 320.42,-735.69 324.17,-729.78"/>
<text text-anchor="middle" x="377.34" y="-753.8" font-family="Times,serif" font-size="14.00">t2</text>
</g>
<!-- S15&#45;&gt;S16 -->
<g id="edge16" class="edge">
<title>S15&#45;&gt;S16</title>
<path fill="none" stroke="black" d="M400.28,-796.24C377.47,-791.97 345.54,-783.08 323.34,-765 315.57,-758.67 309.45,-749.67 304.87,-741.05"/>
<polygon fill="black" stroke="black" points="308,-739.47 300.5,-731.98 301.69,-742.51 308,-739.47"/>
<text text-anchor="middle" x="335.84" y="-753.8" font-family="Times,serif" font-size="14.00">t17</text>
</g>
<!-- S1 -->
<g id="node8" class="node">
<title>S1</title>
<ellipse fill="#ffffff" stroke="black" cx="616.34" cy="-540" rx="27" ry="18"/>
<text text-anchor="middle" x="616.34" y="-536.3" font-family="Times,serif" font-size="14.00">S1</text>
</g>
<!-- S15&#45;&gt;S1 -->
<g id="edge11" class="edge">
<title>S15&#45;&gt;S1</title>
<path fill="none" stroke="black" d="M428.34,-782.77C428.71,-749.9 431.4,-679.99 447.34,-663 474.65,-633.88 501.42,-666.05 535.34,-645 566.24,-625.82 589.99,-590.38 603.56,-566.26"/>
<polygon fill="black" stroke="black" points="606.72,-567.77 608.41,-557.31 600.57,-564.43 606.72,-567.77"/>
<text text-anchor="middle" x="459.84" y="-666.8" font-family="Times,serif" font-size="14.00">t11</text>
</g>
<!-- S23 -->
<g id="node10" class="node">
<title>S23</title>
<ellipse fill="#ffffff" stroke="black" cx="382.34" cy="-714" rx="28.7" ry="18"/>
<text text-anchor="middle" x="382.34" y="-710.3" font-family="Times,serif" font-size="14.00">S23</text>
</g>
<!-- S15&#45;&gt;S23 -->
<g id="edge12" class="edge">
<title>S15&#45;&gt;S23</title>
<path fill="none" stroke="black" d="M419.47,-783.61C412.85,-771.38 403.68,-754.44 396.11,-740.46"/>
<polygon fill="black" stroke="black" points="399.02,-738.47 391.18,-731.34 392.86,-741.8 399.02,-738.47"/>
<text text-anchor="middle" x="415.34" y="-753.8" font-family="Times,serif" font-size="14.00">t7</text>
</g>
<!-- S14 -->
<g id="node15" class="node">
<title>S14</title>
<ellipse fill="#ffffff" stroke="black" cx="281.34" cy="-366" rx="28.7" ry="18"/>
<text text-anchor="middle" x="281.34" y="-362.3" font-family="Times,serif" font-size="14.00">S14</text>
</g>
<!-- S15&#45;&gt;S14 -->
<g id="edge10" class="edge">
<title>S15&#45;&gt;S14</title>
<path fill="none" stroke="black" d="M401.33,-794.73C376.04,-789.23 337.56,-779.37 306.34,-765 244.04,-736.33 226.15,-711.49 209.34,-645 192.33,-577.72 145.05,-530.36 223.34,-402 229.05,-392.64 238.29,-385.46 247.73,-380.11"/>
<polygon fill="black" stroke="black" points="249.41,-383.18 256.74,-375.52 246.24,-376.94 249.41,-383.18"/>
<text text-anchor="middle" x="203.84" y="-579.8" font-family="Times,serif" font-size="14.00">t12</text>
</g>
<!-- S7 -->
<g id="node18" class="node">
<title>S7</title>
<ellipse fill="#ffeeee" stroke="black" cx="198.34" cy="-18" rx="27" ry="18"/>
<text text-anchor="middle" x="198.34" y="-14.3" font-family="Times,serif" font-size="14.00">S7</text>
</g>
<!-- S2&#45;&gt;S7 -->
<g id="edge17" class="edge">
<title>S2&#45;&gt;S7</title>
<path fill="none" stroke="black" d="M575.37,-434.88C587.77,-377.61 619.29,-190.52 529.34,-87 491.21,-43.12 313.75,-26.43 235.53,-21.12"/>
<polygon fill="black" stroke="black" points="235.39,-17.61 225.18,-20.45 234.93,-24.59 235.39,-17.61"/>
<text text-anchor="middle" x="599.84" y="-231.8" font-family="Times,serif" font-size="14.00">t12</text>
</g>
<!-- S3 -->
<g id="node20" class="node">
<title>S3</title>
<ellipse fill="#ffffff" stroke="black" cx="407.34" cy="-366" rx="27" ry="18"/>
<text text-anchor="middle" x="407.34" y="-362.3" font-family="Times,serif" font-size="14.00">S3</text>
</g>
<!-- S2&#45;&gt;S3 -->
<g id="edge18" class="edge">
<title>S2&#45;&gt;S3</title>
<path fill="none" stroke="black" d="M550.57,-441.23C521.86,-426.35 469.87,-399.41 437.06,-382.4"/>
<polygon fill="black" stroke="black" points="438.43,-379.17 427.94,-377.68 435.21,-385.39 438.43,-379.17"/>
<text text-anchor="middle" x="506.34" y="-405.8" font-family="Times,serif" font-size="14.00">t5</text>
</g>
<!-- S24&#45;&gt;S1 -->
<g id="edge20" class="edge">
<title>S24&#45;&gt;S1</title>
<path fill="none" stroke="black" d="M616.34,-608.8C616.34,-597.16 616.34,-581.55 616.34,-568.24"/>
<polygon fill="black" stroke="black" points="619.84,-568.18 616.34,-558.18 612.84,-568.18 619.84,-568.18"/>
<text text-anchor="middle" x="624.34" y="-579.8" font-family="Times,serif" font-size="14.00">t3</text>
</g>
<!-- S5 -->
<g id="node19" class="node">
<title>S5</title>
<ellipse fill="#ffffff" stroke="black" cx="416.34" cy="-192" rx="27" ry="18"/>
<text text-anchor="middle" x="416.34" y="-188.3" font-family="Times,serif" font-size="14.00">S5</text>
</g>
<!-- S24&#45;&gt;S5 -->
<g id="edge19" class="edge">
<title>S24&#45;&gt;S5</title>
<path fill="none" stroke="black" d="M628.6,-610.32C646.98,-584.79 677.97,-532.71 662.34,-489 617.71,-364.18 494.52,-255.06 441.33,-212.26"/>
<polygon fill="black" stroke="black" points="443.42,-209.45 433.41,-205.97 439.06,-214.93 443.42,-209.45"/>
<text text-anchor="middle" x="638.84" y="-405.8" font-family="Times,serif" font-size="14.00">t12</text>
</g>
<!-- S22 -->
<g id="node9" class="node">
<title>S22</title>
<ellipse fill="#ffeeee" stroke="black" cx="375.34" cy="-540" rx="28.7" ry="18"/>
<text text-anchor="middle" x="375.34" y="-536.3" font-family="Times,serif" font-size="14.00">S22</text>
</g>
<!-- S21&#45;&gt;S22 -->
<g id="edge23" class="edge">
<title>S21&#45;&gt;S22</title>
<path fill="none" stroke="black" d="M339.01,-609.61C345.49,-597.38 354.46,-580.44 361.86,-566.46"/>
<polygon fill="black" stroke="black" points="365.1,-567.81 366.69,-557.34 358.92,-564.54 365.1,-567.81"/>
<text text-anchor="middle" x="363.34" y="-579.8" font-family="Times,serif" font-size="14.00">t3</text>
</g>
<!-- S8 -->
<g id="node17" class="node">
<title>S8</title>
<ellipse fill="#ffffff" stroke="black" cx="143.34" cy="-192" rx="27" ry="18"/>
<text text-anchor="middle" x="143.34" y="-188.3" font-family="Times,serif" font-size="14.00">S8</text>
</g>
<!-- S21&#45;&gt;S8 -->
<g id="edge21" class="edge">
<title>S21&#45;&gt;S8</title>
<path fill="none" stroke="black" d="M318.07,-610.33C308.6,-599.23 294.58,-584.81 279.34,-576 176.65,-516.62 94.01,-598.52 22.34,-504 -49.07,-409.84 70.13,-268.3 121.53,-214.65"/>
<polygon fill="black" stroke="black" points="124.12,-217 128.59,-207.39 119.11,-212.12 124.12,-217"/>
<text text-anchor="middle" x="16.84" y="-405.8" font-family="Times,serif" font-size="14.00">t12</text>
</g>
<!-- S18 -->
<g id="node21" class="node">
<title>S18</title>
<ellipse fill="#ffffff" stroke="black" cx="300.34" cy="-540" rx="28.7" ry="18"/>
<text text-anchor="middle" x="300.34" y="-536.3" font-family="Times,serif" font-size="14.00">S18</text>
</g>
<!-- S21&#45;&gt;S18 -->
<g id="edge22" class="edge">
<title>S21&#45;&gt;S18</title>
<path fill="none" stroke="black" d="M324.41,-609.21C320.22,-597.33 314.51,-581.17 309.71,-567.56"/>
<polygon fill="black" stroke="black" points="312.88,-566.02 306.25,-557.76 306.28,-568.35 312.88,-566.02"/>
<text text-anchor="middle" x="324.34" y="-579.8" font-family="Times,serif" font-size="14.00">t5</text>
</g>
<!-- S1&#45;&gt;S2 -->
<g id="edge24" class="edge">
<title>S1&#45;&gt;S2</title>
<path fill="none" stroke="black" d="M607.66,-522.61C601.19,-510.38 592.22,-493.44 584.81,-479.46"/>
<polygon fill="black" stroke="black" points="587.76,-477.54 579.99,-470.34 581.57,-480.81 587.76,-477.54"/>
<text text-anchor="middle" x="604.34" y="-492.8" font-family="Times,serif" font-size="14.00">t2</text>
</g>
<!-- S1&#45;&gt;S2 -->
<g id="edge25" class="edge">
<title>S1&#45;&gt;S2</title>
<path fill="none" stroke="black" d="M619.94,-521.95C621.22,-511.87 621.3,-499.14 616.34,-489 612.87,-481.91 607.2,-475.84 601.03,-470.84"/>
<polygon fill="black" stroke="black" points="602.63,-467.69 592.47,-464.7 598.55,-473.37 602.63,-467.69"/>
<text text-anchor="middle" x="631.84" y="-492.8" font-family="Times,serif" font-size="14.00">t17</text>
</g>
<!-- S6 -->
<g id="node24" class="node">
<title>S6</title>
<ellipse fill="#ffffff" stroke="black" cx="493.34" cy="-105" rx="27" ry="18"/>
<text text-anchor="middle" x="493.34" y="-101.3" font-family="Times,serif" font-size="14.00">S6</text>
</g>
<!-- S1&#45;&gt;S6 -->
<g id="edge26" class="edge">
<title>S1&#45;&gt;S6</title>
<path fill="none" stroke="black" d="M632.83,-525.74C638.92,-519.81 645.12,-512.29 648.34,-504 650.75,-497.79 649.26,-495.6 648.34,-489 625.7,-326.23 609.12,-281.18 523.34,-141 520.71,-136.7 517.56,-132.4 514.3,-128.36"/>
<polygon fill="black" stroke="black" points="516.76,-125.85 507.61,-120.51 511.44,-130.39 516.76,-125.85"/>
<text text-anchor="middle" x="628.84" y="-318.8" font-family="Times,serif" font-size="14.00">t12</text>
</g>
<!-- S22&#45;&gt;S2 -->
<g id="edge27" class="edge">
<title>S22&#45;&gt;S2</title>
<path fill="none" stroke="black" d="M391.55,-524.9C405.11,-513.75 425.39,-498.53 445.34,-489 474.15,-475.24 509.33,-466.04 535.18,-460.53"/>
<polygon fill="black" stroke="black" points="536.2,-463.9 545.3,-458.47 534.8,-457.04 536.2,-463.9"/>
<text text-anchor="middle" x="453.34" y="-492.8" font-family="Times,serif" font-size="14.00">t1</text>
</g>
<!-- S22&#45;&gt;S2 -->
<g id="edge28" class="edge">
<title>S22&#45;&gt;S2</title>
<path fill="none" stroke="black" d="M402.98,-535.28C430.96,-530.72 474.88,-521.38 509.34,-504 517.54,-499.86 533.94,-486.54 547.81,-474.69"/>
<polygon fill="black" stroke="black" points="550.32,-477.15 555.61,-467.96 545.75,-471.85 550.32,-477.15"/>
<text text-anchor="middle" x="541.84" y="-492.8" font-family="Times,serif" font-size="14.00">t13</text>
</g>
<!-- S9 -->
<g id="node23" class="node">
<title>S9</title>
<ellipse fill="#ffeeee" stroke="black" cx="138.34" cy="-105" rx="27" ry="18"/>
<text text-anchor="middle" x="138.34" y="-101.3" font-family="Times,serif" font-size="14.00">S9</text>
</g>
<!-- S22&#45;&gt;S9 -->
<g id="edge30" class="edge">
<title>S22&#45;&gt;S9</title>
<path fill="none" stroke="black" d="M354.3,-527.74C349.2,-525.47 343.68,-523.36 338.34,-522 309.63,-514.7 93.06,-525.17 72.34,-504 21.01,-451.55 29.95,-240.8 60.34,-174 70.35,-152 91.38,-134.34 109.09,-122.54"/>
<polygon fill="black" stroke="black" points="111.39,-125.22 117.96,-116.91 107.65,-119.31 111.39,-125.22"/>
<text text-anchor="middle" x="48.84" y="-318.8" font-family="Times,serif" font-size="14.00">t12</text>
</g>
<!-- S19 -->
<g id="node25" class="node">
<title>S19</title>
<ellipse fill="#ffffff" stroke="black" cx="352.34" cy="-453" rx="28.7" ry="18"/>
<text text-anchor="middle" x="352.34" y="-449.3" font-family="Times,serif" font-size="14.00">S19</text>
</g>
<!-- S22&#45;&gt;S19 -->
<g id="edge29" class="edge">
<title>S22&#45;&gt;S19</title>
<path fill="none" stroke="black" d="M357.99,-525.51C351.82,-519.64 345.6,-512.23 342.34,-504 339.38,-496.56 339.76,-488.14 341.49,-480.36"/>
<polygon fill="black" stroke="black" points="344.89,-481.22 344.37,-470.64 338.17,-479.24 344.89,-481.22"/>
<text text-anchor="middle" x="350.34" y="-492.8" font-family="Times,serif" font-size="14.00">t5</text>
</g>
<!-- S23&#45;&gt;S24 -->
<g id="edge31" class="edge">
<title>S23&#45;&gt;S24</title>
<path fill="none" stroke="black" d="M406.2,-704.04C433.14,-693.95 478.33,-677.12 517.34,-663 538.94,-655.18 563.27,-646.58 582.4,-639.86"/>
<polygon fill="black" stroke="black" points="583.61,-643.14 591.89,-636.53 581.3,-636.54 583.61,-643.14"/>
<text text-anchor="middle" x="525.34" y="-666.8" font-family="Times,serif" font-size="14.00">t1</text>
</g>
<!-- S23&#45;&gt;S24 -->
<g id="edge33" class="edge">
<title>S23&#45;&gt;S24</title>
<path fill="none" stroke="black" d="M409.52,-708.18C446.82,-701.32 511.69,-688.4 533.34,-678 543.03,-673.34 543.36,-668.94 552.34,-663 562.79,-656.08 574.74,-649.28 585.45,-643.54"/>
<polygon fill="black" stroke="black" points="587.26,-646.55 594.48,-638.79 584,-640.35 587.26,-646.55"/>
<text text-anchor="middle" x="564.84" y="-666.8" font-family="Times,serif" font-size="14.00">t13</text>
</g>
<!-- S23&#45;&gt;S21 -->
<g id="edge32" class="edge">
<title>S23&#45;&gt;S21</title>
<path fill="none" stroke="black" d="M375,-696.35C370.39,-686.41 364.04,-673.69 357.34,-663 354.89,-659.09 352.1,-655.09 349.26,-651.25"/>
<polygon fill="black" stroke="black" points="351.96,-649.02 343.1,-643.21 346.41,-653.28 351.96,-649.02"/>
<text text-anchor="middle" x="373.34" y="-666.8" font-family="Times,serif" font-size="14.00">t2</text>
</g>
<!-- S23&#45;&gt;S21 -->
<g id="edge34" class="edge">
<title>S23&#45;&gt;S21</title>
<path fill="none" stroke="black" d="M358.51,-703.97C347.21,-698.35 334.79,-689.88 328.34,-678 324.63,-671.18 323.75,-663.03 324.19,-655.3"/>
<polygon fill="black" stroke="black" points="327.68,-655.56 325.44,-645.2 320.73,-654.69 327.68,-655.56"/>
<text text-anchor="middle" x="340.84" y="-666.8" font-family="Times,serif" font-size="14.00">t17</text>
</g>
<!-- S10 -->
<g id="node22" class="node">
<title>S10</title>
<ellipse fill="#ffffff" stroke="black" cx="270.34" cy="-279" rx="28.7" ry="18"/>
<text text-anchor="middle" x="270.34" y="-275.3" font-family="Times,serif" font-size="14.00">S10</text>
</g>
<!-- S23&#45;&gt;S10 -->
<g id="edge35" class="edge">
<title>S23&#45;&gt;S10</title>
<path fill="none" stroke="black" d="M357.86,-704.65C338.15,-697.81 309.8,-687.71 285.34,-678 251.11,-664.41 232.09,-673.96 209.34,-645 186.61,-616.08 162.24,-345.13 183.34,-315 186.67,-310.24 213.29,-299.92 236.22,-291.72"/>
<polygon fill="black" stroke="black" points="237.48,-294.98 245.74,-288.35 235.15,-288.38 237.48,-294.98"/>
<text text-anchor="middle" x="194.84" y="-492.8" font-family="Times,serif" font-size="14.00">t12</text>
</g>
<!-- S12&#45;&gt;S8 -->
<g id="edge36" class="edge">
<title>S12&#45;&gt;S8</title>
<path fill="none" stroke="black" d="M167.38,-262.94C162.61,-257.09 157.65,-250.09 154.34,-243 151.03,-235.91 148.7,-227.79 147.06,-220.18"/>
<polygon fill="black" stroke="black" points="150.48,-219.47 145.23,-210.27 143.6,-220.74 150.48,-219.47"/>
<text text-anchor="middle" x="162.34" y="-231.8" font-family="Times,serif" font-size="14.00">t7</text>
</g>
<!-- S12&#45;&gt;S7 -->
<g id="edge37" class="edge">
<title>S12&#45;&gt;S7</title>
<path fill="none" stroke="black" d="M182.45,-261.01C185.34,-217.1 193.05,-99.6 196.56,-46.15"/>
<polygon fill="black" stroke="black" points="200.06,-46.26 197.22,-36.06 193.07,-45.81 200.06,-46.26"/>
<text text-anchor="middle" x="202.84" y="-144.8" font-family="Times,serif" font-size="14.00">t11</text>
</g>
<!-- S4&#45;&gt;S5 -->
<g id="edge38" class="edge">
<title>S4&#45;&gt;S5</title>
<path fill="none" stroke="black" d="M408.36,-260.8C409.73,-249.16 411.57,-233.55 413.13,-220.24"/>
<polygon fill="black" stroke="black" points="416.62,-220.52 414.32,-210.18 409.67,-219.7 416.62,-220.52"/>
<text text-anchor="middle" x="419.34" y="-231.8" font-family="Times,serif" font-size="14.00">t7</text>
</g>
<!-- S17&#45;&gt;S3 -->
<g id="edge39" class="edge">
<title>S17&#45;&gt;S3</title>
<path fill="none" stroke="black" d="M247.75,-608.94C248.72,-587.93 251.91,-551.4 262.34,-522 284.11,-460.65 294.94,-441.96 346.34,-402 355.78,-394.66 366.94,-387.81 377.11,-382.15"/>
<polygon fill="black" stroke="black" points="378.95,-385.13 386.09,-377.31 375.63,-378.97 378.95,-385.13"/>
<text text-anchor="middle" x="286.84" y="-492.8" font-family="Times,serif" font-size="14.00">t11</text>
</g>
<!-- S17&#45;&gt;S18 -->
<g id="edge40" class="edge">
<title>S17&#45;&gt;S18</title>
<path fill="none" stroke="black" d="M257.31,-610.01C265.08,-597.55 276.01,-580.01 284.91,-565.74"/>
<polygon fill="black" stroke="black" points="288.09,-567.25 290.41,-556.92 282.15,-563.55 288.09,-567.25"/>
<text text-anchor="middle" x="284.34" y="-579.8" font-family="Times,serif" font-size="14.00">t7</text>
</g>
<!-- S20&#45;&gt;S14 -->
<g id="edge41" class="edge">
<title>S20&#45;&gt;S14</title>
<path fill="none" stroke="black" d="M431.41,-435.14C427.96,-424.08 421.81,-410.19 411.34,-402 380.23,-377.68 362.17,-395.3 324.34,-384 320.93,-382.98 317.41,-381.81 313.92,-380.56"/>
<polygon fill="black" stroke="black" points="314.88,-377.18 304.29,-376.92 312.41,-383.73 314.88,-377.18"/>
<text text-anchor="middle" x="431.34" y="-405.8" font-family="Times,serif" font-size="14.00">t3</text>
</g>
<!-- S20&#45;&gt;S5 -->
<g id="edge42" class="edge">
<title>S20&#45;&gt;S5</title>
<path fill="none" stroke="black" d="M440.02,-435.04C441.37,-429.35 442.67,-422.95 443.34,-417 444.84,-403.65 442.55,-262.27 442.34,-261 439.89,-246.44 434.26,-231.02 428.87,-218.54"/>
<polygon fill="black" stroke="black" points="431.97,-216.91 424.66,-209.25 425.6,-219.8 431.97,-216.91"/>
<text text-anchor="middle" x="455.84" y="-318.8" font-family="Times,serif" font-size="14.00">t11</text>
</g>
<!-- S14&#45;&gt;S12 -->
<g id="edge44" class="edge">
<title>S14&#45;&gt;S12</title>
<path fill="none" stroke="black" d="M254.03,-360.42C235.02,-355.85 210.47,-346.96 195.34,-330 189.68,-323.66 186.29,-315.22 184.27,-307.08"/>
<polygon fill="black" stroke="black" points="187.68,-306.27 182.37,-297.1 180.8,-307.58 187.68,-306.27"/>
<text text-anchor="middle" x="203.34" y="-318.8" font-family="Times,serif" font-size="14.00">t2</text>
</g>
<!-- S14&#45;&gt;S12 -->
<g id="edge46" class="edge">
<title>S14&#45;&gt;S12</title>
<path fill="none" stroke="black" d="M264.82,-350.96C248.76,-337.31 224.15,-316.39 205.81,-300.8"/>
<polygon fill="black" stroke="black" points="207.76,-297.87 197.88,-294.06 203.23,-303.2 207.76,-297.87"/>
<text text-anchor="middle" x="248.84" y="-318.8" font-family="Times,serif" font-size="14.00">t17</text>
</g>
<!-- S14&#45;&gt;S4 -->
<g id="edge43" class="edge">
<title>S14&#45;&gt;S4</title>
<path fill="none" stroke="black" d="M298.01,-351.23C310.88,-340.83 329.32,-326.44 346.34,-315 356.15,-308.41 367.24,-301.73 377.19,-296"/>
<polygon fill="black" stroke="black" points="378.97,-299.02 385.95,-291.04 375.52,-292.93 378.97,-299.02"/>
<text text-anchor="middle" x="354.34" y="-318.8" font-family="Times,serif" font-size="14.00">t1</text>
</g>
<!-- S14&#45;&gt;S4 -->
<g id="edge45" class="edge">
<title>S14&#45;&gt;S4</title>
<path fill="none" stroke="black" d="M304.88,-355.45C326.98,-346.37 357.38,-333.6 362.34,-330 372.36,-322.71 381.71,-312.76 389.18,-303.66"/>
<polygon fill="black" stroke="black" points="392.06,-305.66 395.49,-295.63 386.56,-301.33 392.06,-305.66"/>
<text text-anchor="middle" x="390.84" y="-318.8" font-family="Times,serif" font-size="14.00">t13</text>
</g>
<!-- S14&#45;&gt;S10 -->
<g id="edge47" class="edge">
<title>S14&#45;&gt;S10</title>
<path fill="none" stroke="black" d="M279.11,-347.8C277.61,-336.16 275.59,-320.55 273.86,-307.24"/>
<polygon fill="black" stroke="black" points="277.32,-306.64 272.56,-297.18 270.37,-307.54 277.32,-306.64"/>
<text text-anchor="middle" x="284.34" y="-318.8" font-family="Times,serif" font-size="14.00">t7</text>
</g>
<!-- S14&#45;&gt;S6 -->
<g id="edge48" class="edge">
<title>S14&#45;&gt;S6</title>
<path fill="none" stroke="black" d="M304.24,-354.92C310.65,-352.38 317.69,-349.86 324.34,-348 370.36,-335.15 393.64,-360.61 430.34,-330 489.2,-280.91 495.42,-181.55 494.69,-133.4"/>
<polygon fill="black" stroke="black" points="498.18,-133.03 494.42,-123.12 491.19,-133.21 498.18,-133.03"/>
<text text-anchor="middle" x="496.84" y="-231.8" font-family="Times,serif" font-size="14.00">t11</text>
</g>
<!-- S13 -->
<g id="node16" class="node">
<title>S13</title>
<ellipse fill="#ffffff" stroke="black" cx="129.34" cy="-366" rx="28.7" ry="18"/>
<text text-anchor="middle" x="129.34" y="-362.3" font-family="Times,serif" font-size="14.00">S13</text>
</g>
<!-- S13&#45;&gt;S12 -->
<g id="edge49" class="edge">
<title>S13&#45;&gt;S12</title>
<path fill="none" stroke="black" d="M126.38,-347.79C125.49,-337.65 125.92,-324.91 131.34,-315 135.65,-307.11 142.59,-300.61 149.95,-295.44"/>
<polygon fill="black" stroke="black" points="152.03,-298.26 158.64,-289.98 148.31,-292.34 152.03,-298.26"/>
<text text-anchor="middle" x="139.34" y="-318.8" font-family="Times,serif" font-size="14.00">t6</text>
</g>
<!-- S13&#45;&gt;S7 -->
<g id="edge50" class="edge">
<title>S13&#45;&gt;S7</title>
<path fill="none" stroke="black" d="M119.37,-349.05C105.57,-325.42 82.34,-279.26 82.34,-236.5 82.34,-236.5 82.34,-236.5 82.34,-104 82.34,-63.21 129.58,-39.87 163.77,-28.31"/>
<polygon fill="black" stroke="black" points="164.99,-31.6 173.45,-25.23 162.86,-24.93 164.99,-31.6"/>
<text text-anchor="middle" x="90.34" y="-188.3" font-family="Times,serif" font-size="14.00">t8</text>
</g>
<!-- S8&#45;&gt;S9 -->
<g id="edge51" class="edge">
<title>S8&#45;&gt;S9</title>
<path fill="none" stroke="black" d="M142.33,-173.8C141.64,-162.16 140.72,-146.55 139.94,-133.24"/>
<polygon fill="black" stroke="black" points="143.43,-132.95 139.35,-123.18 136.44,-133.36 143.43,-132.95"/>
<text text-anchor="middle" x="149.34" y="-144.8" font-family="Times,serif" font-size="14.00">t3</text>
</g>
<!-- S5&#45;&gt;S6 -->
<g id="edge52" class="edge">
<title>S5&#45;&gt;S6</title>
<path fill="none" stroke="black" d="M429.75,-176.19C441.71,-162.99 459.4,-143.47 473.08,-128.36"/>
<polygon fill="black" stroke="black" points="475.7,-130.68 479.82,-120.92 470.51,-125.98 475.7,-130.68"/>
<text text-anchor="middle" x="467.34" y="-144.8" font-family="Times,serif" font-size="14.00">t3</text>
</g>
<!-- S3&#45;&gt;S4 -->
<g id="edge53" class="edge">
<title>S3&#45;&gt;S4</title>
<path fill="none" stroke="black" d="M409.36,-347.88C410.24,-338.22 410.96,-325.94 410.34,-315 410.19,-312.44 409.99,-309.77 409.74,-307.11"/>
<polygon fill="black" stroke="black" points="413.21,-306.63 408.68,-297.06 406.25,-307.37 413.21,-306.63"/>
<text text-anchor="middle" x="418.34" y="-318.8" font-family="Times,serif" font-size="14.00">t6</text>
</g>
<!-- S18&#45;&gt;S20 -->
<g id="edge56" class="edge">
<title>S18&#45;&gt;S20</title>
<path fill="none" stroke="black" d="M320.58,-527.02C331.77,-520.34 345.89,-511.81 358.34,-504 368.68,-497.51 371.11,-495.65 381.34,-489 389.89,-483.44 399.21,-477.4 407.66,-471.92"/>
<polygon fill="black" stroke="black" points="409.6,-474.83 416.09,-466.46 405.79,-468.96 409.6,-474.83"/>
<text text-anchor="middle" x="389.34" y="-492.8" font-family="Times,serif" font-size="14.00">t6</text>
</g>
<!-- S18&#45;&gt;S5 -->
<g id="edge54" class="edge">
<title>S18&#45;&gt;S5</title>
<path fill="none" stroke="black" d="M298.71,-521.65C296.8,-495.17 295.38,-443.38 308.34,-402 311.14,-393.05 315.09,-392.36 319.34,-384 346.18,-331.26 342.28,-313.11 370.34,-261 378.63,-245.6 389.54,-229.35 398.65,-216.59"/>
<polygon fill="black" stroke="black" points="401.58,-218.52 404.62,-208.37 395.91,-214.41 401.58,-218.52"/>
<text text-anchor="middle" x="343.34" y="-362.3" font-family="Times,serif" font-size="14.00">t8</text>
</g>
<!-- S18&#45;&gt;S19 -->
<g id="edge55" class="edge">
<title>S18&#45;&gt;S19</title>
<path fill="none" stroke="black" d="M304.96,-522.02C308.13,-511.96 312.93,-499.23 319.34,-489 322.2,-484.43 325.72,-479.94 329.38,-475.77"/>
<polygon fill="black" stroke="black" points="332.17,-477.92 336.47,-468.24 327.07,-473.13 332.17,-477.92"/>
<text text-anchor="middle" x="327.34" y="-492.8" font-family="Times,serif" font-size="14.00">t3</text>
</g>
<!-- S10&#45;&gt;S8 -->
<g id="edge57" class="edge">
<title>S10&#45;&gt;S8</title>
<path fill="none" stroke="black" d="M251.32,-265.27C229.75,-250.84 194.42,-227.19 170.08,-210.9"/>
<polygon fill="black" stroke="black" points="171.91,-207.91 161.66,-205.26 168.02,-213.73 171.91,-207.91"/>
<text text-anchor="middle" x="222.34" y="-231.8" font-family="Times,serif" font-size="14.00">t2</text>
</g>
<!-- S10&#45;&gt;S8 -->
<g id="edge58" class="edge">
<title>S10&#45;&gt;S8</title>
<path fill="none" stroke="black" d="M261.89,-261.67C255.57,-250.84 246.03,-237.01 234.34,-228 218.02,-215.41 196.63,-206.88 178.69,-201.39"/>
<polygon fill="black" stroke="black" points="179.44,-197.97 168.87,-198.58 177.52,-204.7 179.44,-197.97"/>
<text text-anchor="middle" x="260.84" y="-231.8" font-family="Times,serif" font-size="14.00">t17</text>
</g>
<!-- S10&#45;&gt;S5 -->
<g id="edge59" class="edge">
<title>S10&#45;&gt;S5</title>
<path fill="none" stroke="black" d="M291.04,-266.26C302.67,-259.58 317.41,-250.98 330.34,-243 340.72,-236.59 342.89,-234.3 353.34,-228 364.19,-221.46 376.33,-214.61 387.02,-208.72"/>
<polygon fill="black" stroke="black" points="388.88,-211.7 395.99,-203.83 385.53,-205.55 388.88,-211.7"/>
<text text-anchor="middle" x="361.34" y="-231.8" font-family="Times,serif" font-size="14.00">t1</text>
</g>
<!-- S10&#45;&gt;S5 -->
<g id="edge60" class="edge">
<title>S10&#45;&gt;S5</title>
<path fill="none" stroke="black" d="M276.9,-261.4C282.03,-250.45 290.17,-236.59 301.34,-228 324.06,-210.52 355.51,-201.72 379.78,-197.32"/>
<polygon fill="black" stroke="black" points="380.4,-200.77 389.7,-195.69 379.26,-193.86 380.4,-200.77"/>
<text text-anchor="middle" x="313.84" y="-231.8" font-family="Times,serif" font-size="14.00">t13</text>
</g>
<!-- S9&#45;&gt;S7 -->
<g id="edge61" class="edge">
<title>S9&#45;&gt;S7</title>
<path fill="none" stroke="black" d="M147.14,-87.8C152.79,-77.8 160.52,-64.84 168.34,-54 171.28,-49.91 174.59,-45.72 177.91,-41.72"/>
<polygon fill="black" stroke="black" points="180.78,-43.75 184.62,-33.88 175.46,-39.2 180.78,-43.75"/>
<text text-anchor="middle" x="176.34" y="-57.8" font-family="Times,serif" font-size="14.00">t1</text>
</g>
<!-- S9&#45;&gt;S7 -->
<g id="edge62" class="edge">
<title>S9&#45;&gt;S7</title>
<path fill="none" stroke="black" d="M130.44,-87.61C126.68,-77.28 124.2,-64.06 130.34,-54 137.72,-41.9 150.78,-33.8 163.49,-28.47"/>
<polygon fill="black" stroke="black" points="164.89,-31.69 173.04,-24.92 162.45,-25.13 164.89,-31.69"/>
<text text-anchor="middle" x="142.84" y="-57.8" font-family="Times,serif" font-size="14.00">t13</text>
</g>
<!-- S6&#45;&gt;S7 -->
<g id="edge63" class="edge">
<title>S6&#45;&gt;S7</title>
<path fill="none" stroke="black" d="M473.24,-92.85C452,-81.5 417.22,-64.19 385.34,-54 334.44,-37.73 273.18,-28.05 234.99,-23.12"/>
<polygon fill="black" stroke="black" points="235.22,-19.62 224.86,-21.86 234.35,-26.57 235.22,-19.62"/>
<text text-anchor="middle" x="429.34" y="-57.8" font-family="Times,serif" font-size="14.00">t2</text>
</g>
<!-- S6&#45;&gt;S7 -->
<g id="edge64" class="edge">
<title>S6&#45;&gt;S7</title>
<path fill="none" stroke="black" d="M467.97,-97.97C440.39,-91.31 395.05,-80.06 356.34,-69 313.03,-56.63 263.6,-40.69 231.73,-30.17"/>
<polygon fill="black" stroke="black" points="232.63,-26.78 222.03,-26.96 230.43,-33.43 232.63,-26.78"/>
<text text-anchor="middle" x="368.84" y="-57.8" font-family="Times,serif" font-size="14.00">t17</text>
</g>
<!-- S19&#45;&gt;S14 -->
<g id="edge65" class="edge">
<title>S19&#45;&gt;S14</title>
<path fill="none" stroke="black" d="M339.64,-436.8C328.81,-423.83 313.05,-404.97 300.65,-390.12"/>
<polygon fill="black" stroke="black" points="303.26,-387.78 294.16,-382.35 297.89,-392.27 303.26,-387.78"/>
<text text-anchor="middle" x="328.34" y="-405.8" font-family="Times,serif" font-size="14.00">t6</text>
</g>
<!-- S19&#45;&gt;S13 -->
<g id="edge66" class="edge">
<title>S19&#45;&gt;S13</title>
<path fill="none" stroke="black" d="M328.47,-442.9C288.59,-427.7 208.3,-397.1 162.79,-379.75"/>
<polygon fill="black" stroke="black" points="163.96,-376.45 153.37,-376.16 161.47,-382.99 163.96,-376.45"/>
<text text-anchor="middle" x="261.34" y="-405.8" font-family="Times,serif" font-size="14.00">t2</text>
</g>
<!-- S19&#45;&gt;S13 -->
<g id="edge67" class="edge">
<title>S19&#45;&gt;S13</title>
<path fill="none" stroke="black" d="M324.28,-449.06C292.56,-444.97 239.92,-435.83 198.34,-417 181.87,-409.54 165.39,-397.81 152.68,-387.58"/>
<polygon fill="black" stroke="black" points="154.83,-384.82 144.9,-381.14 150.37,-390.21 154.83,-384.82"/>
<text text-anchor="middle" x="210.84" y="-405.8" font-family="Times,serif" font-size="14.00">t17</text>
</g>
<!-- S19&#45;&gt;S3 -->
<g id="edge68" class="edge">
<title>S19&#45;&gt;S3</title>
<path fill="none" stroke="black" d="M349.73,-434.72C349.04,-424.56 349.73,-411.82 355.34,-402 360.18,-393.53 368,-386.71 376.12,-381.41"/>
<polygon fill="black" stroke="black" points="378.06,-384.33 384.93,-376.25 374.53,-378.29 378.06,-384.33"/>
<text text-anchor="middle" x="363.34" y="-405.8" font-family="Times,serif" font-size="14.00">t1</text>
</g>
<!-- S19&#45;&gt;S3 -->
<g id="edge69" class="edge">
<title>S19&#45;&gt;S3</title>
<path fill="none" stroke="black" d="M362.68,-436.01C370.83,-423.43 382.31,-405.68 391.59,-391.33"/>
<polygon fill="black" stroke="black" points="394.55,-393.21 397.04,-382.92 388.67,-389.41 394.55,-393.21"/>
<text text-anchor="middle" x="394.84" y="-405.8" font-family="Times,serif" font-size="14.00">t13</text>
</g>
<!-- S19&#45;&gt;S6 -->
<g id="edge70" class="edge">
<title>S19&#45;&gt;S6</title>
<path fill="none" stroke="black" d="M373.97,-440.98C385.54,-434.65 399.74,-426.15 411.34,-417 481.71,-361.47 493.76,-330.48 513.34,-243 518.24,-221.08 529.8,-232.18 508.34,-141 507.62,-137.95 506.65,-134.82 505.55,-131.76"/>
<polygon fill="black" stroke="black" points="508.73,-130.28 501.73,-122.33 502.24,-132.92 508.73,-130.28"/>
<text text-anchor="middle" x="516.34" y="-275.3" font-family="Times,serif" font-size="14.00">t8</text>
</g>
</g>
</svg>
