<?xml version="1.0" encoding="UTF-8" standalone="no"?>
<!DOCTYPE svg PUBLIC "-//W3C//DTD SVG 1.1//EN"
 "http://www.w3.org/Graphics/SVG/1.1/DTD/svg11.dtd">
<!-- Generated by graphviz version 2.43.0 (0)
 -->
<!-- Title: SCdebug/12 Pages: 1 -->
<svg width="293pt" height="740pt"
 viewBox="0.00 0.00 293.00 740.00" xmlns="http://www.w3.org/2000/svg" xmlns:xlink="http://www.w3.org/1999/xlink">
<g id="graph0" class="graph" transform="scale(1 1) rotate(0) translate(4 736)">
<title>SCdebug/12</title>
<polygon fill="white" stroke="transparent" points="-4,4 -4,-736 289,-736 289,4 -4,4"/>
<!-- S0 -->
<g id="node1" class="node">
<title>S0</title>
<ellipse fill="none" stroke="black" cx="232" cy="-714" rx="27" ry="18"/>
<text text-anchor="middle" x="232" y="-710.3" font-family="Times,serif" font-size="14.00">S0</text>
</g>
<!-- S8 -->
<g id="node8" class="node">
<title>S8</title>
<ellipse fill="#ffffff" stroke="black" cx="205" cy="-627" rx="27" ry="18"/>
<text text-anchor="middle" x="205" y="-623.3" font-family="Times,serif" font-size="14.00">S8</text>
</g>
<!-- S0&#45;&gt;S8 -->
<g id="edge2" class="edge">
<title>S0&#45;&gt;S8</title>
<path fill="none" stroke="black" d="M226.67,-696.21C222.89,-684.33 217.76,-668.17 213.44,-654.56"/>
<polygon fill="black" stroke="black" points="216.69,-653.23 210.32,-644.76 210.01,-655.35 216.69,-653.23"/>
<text text-anchor="middle" x="228" y="-666.8" font-family="Times,serif" font-size="14.00">t7</text>
</g>
<!-- S4 -->
<g id="node9" class="node">
<title>S4</title>
<ellipse fill="#ffffff" stroke="black" cx="165" cy="-279" rx="27" ry="18"/>
<text text-anchor="middle" x="165" y="-275.3" font-family="Times,serif" font-size="14.00">S4</text>
</g>
<!-- S0&#45;&gt;S4 -->
<g id="edge1" class="edge">
<title>S0&#45;&gt;S4</title>
<path fill="none" stroke="black" d="M240.71,-696.91C248.93,-680.18 260,-653.01 260,-628 260,-628 260,-628 260,-365 260,-330.55 224.88,-306.57 197.35,-293.06"/>
<polygon fill="black" stroke="black" points="198.54,-289.76 188,-288.72 195.59,-296.11 198.54,-289.76"/>
<text text-anchor="middle" x="272.5" y="-492.8" font-family="Times,serif" font-size="14.00">t12</text>
</g>
<!-- S6 -->
<g id="node2" class="node">
<title>S6</title>
<ellipse fill="none" stroke="black" cx="110" cy="-105" rx="27" ry="18"/>
<text text-anchor="middle" x="110" y="-101.3" font-family="Times,serif" font-size="14.00">S6</text>
</g>
<!-- S7 -->
<g id="node4" class="node">
<title>S7</title>
<ellipse fill="#ffeeee" stroke="black" cx="62" cy="-18" rx="27" ry="18"/>
<text text-anchor="middle" x="62" y="-14.3" font-family="Times,serif" font-size="14.00">S7</text>
</g>
<!-- S6&#45;&gt;S7 -->
<g id="edge3" class="edge">
<title>S6&#45;&gt;S7</title>
<path fill="none" stroke="black" d="M103.76,-87.33C99.77,-77.38 94.2,-64.66 88,-54 85.77,-50.17 83.21,-46.27 80.57,-42.52"/>
<polygon fill="black" stroke="black" points="83.17,-40.15 74.43,-34.17 77.54,-44.3 83.17,-40.15"/>
<text text-anchor="middle" x="103" y="-57.8" font-family="Times,serif" font-size="14.00">t2</text>
</g>
<!-- S6&#45;&gt;S7 -->
<g id="edge4" class="edge">
<title>S6&#45;&gt;S7</title>
<path fill="none" stroke="black" d="M87.73,-94.8C76.97,-89.08 65.1,-80.59 59,-69 55.28,-61.94 54.61,-53.51 55.29,-45.61"/>
<polygon fill="black" stroke="black" points="58.76,-46.09 56.81,-35.68 51.84,-45.04 58.76,-46.09"/>
<text text-anchor="middle" x="71.5" y="-57.8" font-family="Times,serif" font-size="14.00">t17</text>
</g>
<!-- S1 -->
<g id="node3" class="node">
<title>S1</title>
<ellipse fill="none" stroke="black" cx="95" cy="-540" rx="27" ry="18"/>
<text text-anchor="middle" x="95" y="-536.3" font-family="Times,serif" font-size="14.00">S1</text>
</g>
<!-- S1&#45;&gt;S6 -->
<g id="edge7" class="edge">
<title>S1&#45;&gt;S6</title>
<path fill="none" stroke="black" d="M99.75,-522.22C104.14,-505.19 110,-477.98 110,-454 110,-454 110,-454 110,-191 110,-171.75 110,-150.05 110,-133.4"/>
<polygon fill="black" stroke="black" points="113.5,-133.26 110,-123.26 106.5,-133.26 113.5,-133.26"/>
<text text-anchor="middle" x="122.5" y="-318.8" font-family="Times,serif" font-size="14.00">t12</text>
</g>
<!-- S2 -->
<g id="node7" class="node">
<title>S2</title>
<ellipse fill="#ffeeee" stroke="black" cx="43" cy="-453" rx="27" ry="18"/>
<text text-anchor="middle" x="43" y="-449.3" font-family="Times,serif" font-size="14.00">S2</text>
</g>
<!-- S1&#45;&gt;S2 -->
<g id="edge5" class="edge">
<title>S1&#45;&gt;S2</title>
<path fill="none" stroke="black" d="M85.22,-523.01C77.59,-510.55 66.87,-493.01 58.13,-478.74"/>
<polygon fill="black" stroke="black" points="60.94,-476.62 52.74,-469.92 54.97,-480.27 60.94,-476.62"/>
<text text-anchor="middle" x="80" y="-492.8" font-family="Times,serif" font-size="14.00">t2</text>
</g>
<!-- S1&#45;&gt;S2 -->
<g id="edge6" class="edge">
<title>S1&#45;&gt;S2</title>
<path fill="none" stroke="black" d="M71.16,-531.44C58.29,-526 43.54,-517.25 36,-504 32.02,-497.01 31.79,-488.6 33.14,-480.7"/>
<polygon fill="black" stroke="black" points="36.6,-481.3 35.63,-470.75 29.81,-479.6 36.6,-481.3"/>
<text text-anchor="middle" x="48.5" y="-492.8" font-family="Times,serif" font-size="14.00">t17</text>
</g>
<!-- S5 -->
<g id="node5" class="node">
<title>S5</title>
<ellipse fill="#ffffff" stroke="black" cx="165" cy="-192" rx="27" ry="18"/>
<text text-anchor="middle" x="165" y="-188.3" font-family="Times,serif" font-size="14.00">S5</text>
</g>
<!-- S5&#45;&gt;S6 -->
<g id="edge8" class="edge">
<title>S5&#45;&gt;S6</title>
<path fill="none" stroke="black" d="M154.65,-175.01C146.51,-162.43 135.03,-144.68 125.74,-130.33"/>
<polygon fill="black" stroke="black" points="128.67,-128.41 120.3,-121.92 122.79,-132.21 128.67,-128.41"/>
<text text-anchor="middle" x="148" y="-144.8" font-family="Times,serif" font-size="14.00">t3</text>
</g>
<!-- S3 -->
<g id="node6" class="node">
<title>S3</title>
<ellipse fill="#ffffff" stroke="black" cx="55" cy="-366" rx="27" ry="18"/>
<text text-anchor="middle" x="55" y="-362.3" font-family="Times,serif" font-size="14.00">S3</text>
</g>
<!-- S3&#45;&gt;S4 -->
<g id="edge9" class="edge">
<title>S3&#45;&gt;S4</title>
<path fill="none" stroke="black" d="M57.08,-347.77C59.2,-337.11 63.45,-323.83 72,-315 87.06,-299.45 109.69,-290.74 128.86,-285.89"/>
<polygon fill="black" stroke="black" points="129.82,-289.26 138.79,-283.64 128.27,-282.44 129.82,-289.26"/>
<text text-anchor="middle" x="80" y="-318.8" font-family="Times,serif" font-size="14.00">t6</text>
</g>
<!-- S2&#45;&gt;S7 -->
<g id="edge10" class="edge">
<title>S2&#45;&gt;S7</title>
<path fill="none" stroke="black" d="M30.1,-437.17C17.43,-421.05 0,-393.96 0,-367 0,-367 0,-367 0,-104 0,-77.71 19.6,-54.11 36.77,-38.48"/>
<polygon fill="black" stroke="black" points="39.12,-41.07 44.4,-31.89 34.54,-35.78 39.12,-41.07"/>
<text text-anchor="middle" x="12.5" y="-231.8" font-family="Times,serif" font-size="14.00">t12</text>
</g>
<!-- S2&#45;&gt;S3 -->
<g id="edge11" class="edge">
<title>S2&#45;&gt;S3</title>
<path fill="none" stroke="black" d="M45.43,-434.8C47.07,-423.16 49.28,-407.55 51.15,-394.24"/>
<polygon fill="black" stroke="black" points="54.64,-394.57 52.58,-384.18 47.71,-393.59 54.64,-394.57"/>
<text text-anchor="middle" x="57" y="-405.8" font-family="Times,serif" font-size="14.00">t5</text>
</g>
<!-- S8&#45;&gt;S1 -->
<g id="edge13" class="edge">
<title>S8&#45;&gt;S1</title>
<path fill="none" stroke="black" d="M187.81,-612.72C169.65,-598.68 140.82,-576.41 120.12,-560.41"/>
<polygon fill="black" stroke="black" points="122.12,-557.53 112.07,-554.19 117.84,-563.07 122.12,-557.53"/>
<text text-anchor="middle" x="164" y="-579.8" font-family="Times,serif" font-size="14.00">t3</text>
</g>
<!-- S8&#45;&gt;S5 -->
<g id="edge12" class="edge">
<title>S8&#45;&gt;S5</title>
<path fill="none" stroke="black" d="M209.75,-609.22C214.14,-592.19 220,-564.98 220,-541 220,-541 220,-541 220,-278 220,-253.08 203.13,-229.69 188.07,-213.78"/>
<polygon fill="black" stroke="black" points="190.45,-211.2 180.91,-206.59 185.49,-216.14 190.45,-211.2"/>
<text text-anchor="middle" x="232.5" y="-405.8" font-family="Times,serif" font-size="14.00">t12</text>
</g>
<!-- S4&#45;&gt;S5 -->
<g id="edge14" class="edge">
<title>S4&#45;&gt;S5</title>
<path fill="none" stroke="black" d="M165,-260.8C165,-249.16 165,-233.55 165,-220.24"/>
<polygon fill="black" stroke="black" points="168.5,-220.18 165,-210.18 161.5,-220.18 168.5,-220.18"/>
<text text-anchor="middle" x="173" y="-231.8" font-family="Times,serif" font-size="14.00">t7</text>
</g>
</g>
</svg>
