<?xml version="1.0" encoding="UTF-8" standalone="no"?>
<!DOCTYPE svg PUBLIC "-//W3C//DTD SVG 1.1//EN"
 "http://www.w3.org/Graphics/SVG/1.1/DTD/svg11.dtd">
<!-- Generated by graphviz version 2.43.0 (0)
 -->
<!-- Title: SCdebug/12 Pages: 1 -->
<svg width="556pt" height="1057pt"
 viewBox="0.00 0.00 556.00 1057.13" xmlns="http://www.w3.org/2000/svg" xmlns:xlink="http://www.w3.org/1999/xlink">
<g id="graph0" class="graph" transform="scale(1 1) rotate(0) translate(4 1053.13)">
<title>SCdebug/12</title>
<polygon fill="white" stroke="transparent" points="-4,4 -4,-1053.13 552,-1053.13 552,4 -4,4"/>
<!-- R001_L13e -->
<g id="node1" class="node">
<title>R001_L13e</title>
<ellipse fill="none" stroke="black" cx="171" cy="-982.74" rx="62.3" ry="62.3"/>
<ellipse fill="none" stroke="black" cx="171" cy="-982.74" rx="66.29" ry="66.29"/>
<text text-anchor="middle" x="171" y="-979.04" font-family="Times,serif" font-size="14.00">R001_L13e</text>
</g>
<!-- R101_L13e -->
<g id="node2" class="node">
<title>R101_L13e</title>
<ellipse fill="none" stroke="black" cx="119" cy="-798.95" rx="62.3" ry="62.3"/>
<ellipse fill="none" stroke="black" cx="119" cy="-798.95" rx="66.29" ry="66.29"/>
<text text-anchor="middle" x="119" y="-795.25" font-family="Times,serif" font-size="14.00">R101_L13e</text>
</g>
<!-- R001_L13e&#45;&gt;R101_L13e -->
<g id="edge1" class="edge">
<title>R001_L13e&#45;&gt;R101_L13e</title>
<path fill="none" stroke="black" d="M152.96,-918.67C148.72,-903.86 144.18,-887.97 139.83,-872.77"/>
<polygon fill="black" stroke="black" points="143.12,-871.56 137.01,-862.91 136.39,-873.49 143.12,-871.56"/>
<text text-anchor="middle" x="163.5" y="-887.14" font-family="Times,serif" font-size="14.00">t1R1</text>
</g>
<!-- R001_L1ee -->
<g id="node5" class="node">
<title>R001_L1ee</title>
<ellipse fill="none" stroke="black" cx="157" cy="-248.23" rx="61.98" ry="61.98"/>
<ellipse fill="none" stroke="black" cx="157" cy="-248.23" rx="65.99" ry="65.99"/>
<text text-anchor="middle" x="157" y="-244.53" font-family="Times,serif" font-size="14.00">R001_L1ee</text>
</g>
<!-- R001_L13e&#45;&gt;R001_L1ee -->
<g id="edge4" class="edge">
<title>R001_L13e&#45;&gt;R001_L1ee</title>
<path fill="none" stroke="black" d="M112.63,-950.84C63.09,-919.92 0,-867.33 0,-799.95 0,-799.95 0,-799.95 0,-430.37 0,-370.75 49.17,-321.13 92.48,-288.99"/>
<polygon fill="black" stroke="black" points="94.71,-291.69 100.76,-283 90.61,-286.02 94.71,-291.69"/>
<text text-anchor="middle" x="17.5" y="-611.46" font-family="Times,serif" font-size="14.00">t8R3</text>
</g>
<!-- R101_Le3e -->
<g id="node10" class="node">
<title>R101_Le3e</title>
<ellipse fill="none" stroke="black" cx="419" cy="-798.95" rx="61.99" ry="61.99"/>
<text text-anchor="middle" x="419" y="-795.25" font-family="Times,serif" font-size="14.00">R101_Le3e</text>
</g>
<!-- R001_L13e&#45;&gt;R101_Le3e -->
<g id="edge2" class="edge">
<title>R001_L13e&#45;&gt;R101_Le3e</title>
<path fill="none" stroke="black" d="M227.16,-946.49C261.62,-924.25 306.24,-894.33 344,-865.34 351.25,-859.78 358.7,-853.73 365.96,-847.62"/>
<polygon fill="black" stroke="black" points="368.4,-850.14 373.75,-841 363.87,-844.81 368.4,-850.14"/>
<text text-anchor="middle" x="324" y="-887.14" font-family="Times,serif" font-size="14.00">t2</text>
</g>
<!-- R000_L1ee -->
<g id="node11" class="node">
<title>R000_L1ee</title>
<ellipse fill="none" stroke="black" cx="269" cy="-798.95" rx="61.98" ry="61.98"/>
<ellipse fill="none" stroke="black" cx="269" cy="-798.95" rx="65.99" ry="65.99"/>
<text text-anchor="middle" x="269" y="-795.25" font-family="Times,serif" font-size="14.00">R000_L1ee</text>
</g>
<!-- R001_L13e&#45;&gt;R000_L1ee -->
<g id="edge3" class="edge">
<title>R001_L13e&#45;&gt;R000_L1ee</title>
<path fill="none" stroke="black" d="M202.14,-923.97C212.06,-905.57 223.11,-885.07 233.32,-866.13"/>
<polygon fill="black" stroke="black" points="236.44,-867.72 238.11,-857.26 230.28,-864.4 236.44,-867.72"/>
<text text-anchor="middle" x="230" y="-887.14" font-family="Times,serif" font-size="14.00">t6</text>
</g>
<!-- R100_L1ee -->
<g id="node3" class="node">
<title>R100_L1ee</title>
<ellipse fill="none" stroke="black" cx="119" cy="-615.16" rx="61.98" ry="61.98"/>
<ellipse fill="none" stroke="black" cx="119" cy="-615.16" rx="65.99" ry="65.99"/>
<text text-anchor="middle" x="119" y="-611.46" font-family="Times,serif" font-size="14.00">R100_L1ee</text>
</g>
<!-- R101_L13e&#45;&gt;R100_L1ee -->
<g id="edge5" class="edge">
<title>R101_L13e&#45;&gt;R100_L1ee</title>
<path fill="none" stroke="black" d="M119,-732.32C119,-719.03 119,-704.96 119,-691.36"/>
<polygon fill="black" stroke="black" points="122.5,-691.09 119,-681.09 115.5,-691.09 122.5,-691.09"/>
<text text-anchor="middle" x="127" y="-703.36" font-family="Times,serif" font-size="14.00">t6</text>
</g>
<!-- R101_L1e2 -->
<g id="node4" class="node">
<title>R101_L1e2</title>
<ellipse fill="none" stroke="black" cx="157" cy="-431.37" rx="62.3" ry="62.3"/>
<ellipse fill="none" stroke="black" cx="157" cy="-431.37" rx="66.29" ry="66.29"/>
<text text-anchor="middle" x="157" y="-427.67" font-family="Times,serif" font-size="14.00">R101_L1e2</text>
</g>
<!-- R100_L1ee&#45;&gt;R101_L1e2 -->
<g id="edge6" class="edge">
<title>R100_L1ee&#45;&gt;R101_L1e2</title>
<path fill="none" stroke="black" d="M132.29,-550.58C135.26,-536.35 138.44,-521.15 141.5,-506.53"/>
<polygon fill="black" stroke="black" points="144.97,-507.04 143.59,-496.53 138.12,-505.6 144.97,-507.04"/>
<text text-anchor="middle" x="147" y="-519.57" font-family="Times,serif" font-size="14.00">t7</text>
</g>
<!-- R101_L1e2&#45;&gt;R001_L1ee -->
<g id="edge7" class="edge">
<title>R101_L1e2&#45;&gt;R001_L1ee</title>
<path fill="none" stroke="black" d="M157,-364.98C157,-351.81 157,-337.88 157,-324.41"/>
<polygon fill="black" stroke="black" points="160.5,-324.23 157,-314.23 153.5,-324.23 160.5,-324.23"/>
<text text-anchor="middle" x="165" y="-335.78" font-family="Times,serif" font-size="14.00">t3</text>
</g>
<!-- R101_Leee -->
<g id="node6" class="node">
<title>R101_Leee</title>
<ellipse fill="none" stroke="black" cx="348" cy="-65.74" rx="61.98" ry="61.98"/>
<ellipse fill="none" stroke="black" cx="348" cy="-65.74" rx="65.99" ry="65.99"/>
<text text-anchor="middle" x="348" y="-62.04" font-family="Times,serif" font-size="14.00">R101_Leee</text>
</g>
<!-- R001_L1ee&#45;&gt;R101_Leee -->
<g id="edge8" class="edge">
<title>R001_L1ee&#45;&gt;R101_Leee</title>
<path fill="none" stroke="black" d="M204.7,-202.15C231.58,-176.75 265.27,-144.92 293.22,-118.51"/>
<polygon fill="black" stroke="black" points="295.71,-120.97 300.57,-111.56 290.9,-115.89 295.71,-120.97"/>
<text text-anchor="middle" x="266" y="-153.29" font-family="Times,serif" font-size="14.00">t2</text>
</g>
<!-- R101_Lee2 -->
<g id="node7" class="node">
<title>R101_Lee2</title>
<ellipse fill="none" stroke="black" cx="348" cy="-431.37" rx="61.98" ry="61.98"/>
<ellipse fill="none" stroke="black" cx="348" cy="-431.37" rx="65.99" ry="65.99"/>
<text text-anchor="middle" x="348" y="-427.67" font-family="Times,serif" font-size="14.00">R101_Lee2</text>
</g>
<!-- R001_Leee -->
<g id="node8" class="node">
<title>R001_Leee</title>
<ellipse fill="none" stroke="black" cx="348" cy="-248.23" rx="61.98" ry="61.98"/>
<ellipse fill="none" stroke="black" cx="348" cy="-248.23" rx="65.99" ry="65.99"/>
<text text-anchor="middle" x="348" y="-244.53" font-family="Times,serif" font-size="14.00">R001_Leee</text>
</g>
<!-- R101_Lee2&#45;&gt;R001_Leee -->
<g id="edge9" class="edge">
<title>R101_Lee2&#45;&gt;R001_Leee</title>
<path fill="none" stroke="black" d="M348,-365.49C348,-352.22 348,-338.15 348,-324.56"/>
<polygon fill="black" stroke="black" points="351.5,-324.27 348,-314.27 344.5,-324.27 351.5,-324.27"/>
<text text-anchor="middle" x="356" y="-335.78" font-family="Times,serif" font-size="14.00">t3</text>
</g>
<!-- R001_Leee&#45;&gt;R101_Leee -->
<g id="edge10" class="edge">
<title>R001_Leee&#45;&gt;R101_Leee</title>
<path fill="none" stroke="black" d="M348,-182.33C348,-169.2 348,-155.3 348,-141.85"/>
<polygon fill="black" stroke="black" points="351.5,-141.68 348,-131.68 344.5,-141.68 351.5,-141.68"/>
<text text-anchor="middle" x="365.5" y="-153.29" font-family="Times,serif" font-size="14.00">t1R1</text>
</g>
<!-- R100_Leee -->
<g id="node9" class="node">
<title>R100_Leee</title>
<ellipse fill="none" stroke="black" cx="419" cy="-615.16" rx="61.98" ry="61.98"/>
<ellipse fill="none" stroke="black" cx="419" cy="-615.16" rx="65.99" ry="65.99"/>
<text text-anchor="middle" x="419" y="-611.46" font-family="Times,serif" font-size="14.00">R100_Leee</text>
</g>
<!-- R100_Leee&#45;&gt;R101_Lee2 -->
<g id="edge11" class="edge">
<title>R100_Leee&#45;&gt;R101_Lee2</title>
<path fill="none" stroke="black" d="M395.36,-553.63C388.98,-537.31 382.04,-519.52 375.47,-502.71"/>
<polygon fill="black" stroke="black" points="378.56,-500.99 371.66,-492.95 372.04,-503.54 378.56,-500.99"/>
<text text-anchor="middle" x="393" y="-519.57" font-family="Times,serif" font-size="14.00">t7</text>
</g>
<!-- R101_Le3e&#45;&gt;R101_Leee -->
<g id="edge13" class="edge">
<title>R101_Le3e&#45;&gt;R101_Leee</title>
<path fill="none" stroke="black" d="M458.59,-751.55C484.28,-716.67 513,-666.44 513,-616.16 513,-616.16 513,-616.16 513,-247.23 513,-185.48 459.74,-135.64 413.74,-104.1"/>
<polygon fill="black" stroke="black" points="415.51,-101.08 405.25,-98.43 411.62,-106.9 415.51,-101.08"/>
<text text-anchor="middle" x="530.5" y="-427.67" font-family="Times,serif" font-size="14.00">t8R3</text>
</g>
<!-- R101_Le3e&#45;&gt;R100_Leee -->
<g id="edge12" class="edge">
<title>R101_Le3e&#45;&gt;R100_Leee</title>
<path fill="none" stroke="black" d="M419,-737.16C419,-722.49 419,-706.63 419,-691.38"/>
<polygon fill="black" stroke="black" points="422.5,-690.94 419,-680.94 415.5,-690.94 422.5,-690.94"/>
<text text-anchor="middle" x="427" y="-703.36" font-family="Times,serif" font-size="14.00">t6</text>
</g>
<!-- R000_L1ee&#45;&gt;R100_L1ee -->
<g id="edge14" class="edge">
<title>R000_L1ee&#45;&gt;R100_L1ee</title>
<path fill="none" stroke="black" d="M227.61,-747.79C208.84,-725.04 186.52,-697.99 167.01,-674.35"/>
<polygon fill="black" stroke="black" points="169.57,-671.95 160.51,-666.47 164.18,-676.41 169.57,-671.95"/>
<text text-anchor="middle" x="215.5" y="-703.36" font-family="Times,serif" font-size="14.00">t1R1</text>
</g>
<!-- R000_L1ee&#45;&gt;R100_Leee -->
<g id="edge15" class="edge">
<title>R000_L1ee&#45;&gt;R100_Leee</title>
<path fill="none" stroke="black" d="M310.39,-747.79C329.16,-725.04 351.48,-697.99 370.99,-674.35"/>
<polygon fill="black" stroke="black" points="373.82,-676.41 377.49,-666.47 368.43,-671.95 373.82,-676.41"/>
<text text-anchor="middle" x="356" y="-703.36" font-family="Times,serif" font-size="14.00">t2</text>
</g>
<!-- R001_L1e2 -->
<g id="node12" class="node">
<title>R001_L1e2</title>
<ellipse fill="none" stroke="black" cx="269" cy="-615.16" rx="62.3" ry="62.3"/>
<ellipse fill="none" stroke="black" cx="269" cy="-615.16" rx="66.29" ry="66.29"/>
<text text-anchor="middle" x="269" y="-611.46" font-family="Times,serif" font-size="14.00">R001_L1e2</text>
</g>
<!-- R000_L1ee&#45;&gt;R001_L1e2 -->
<g id="edge16" class="edge">
<title>R000_L1ee&#45;&gt;R001_L1e2</title>
<path fill="none" stroke="black" d="M269,-733.09C269,-719.76 269,-705.62 269,-691.95"/>
<polygon fill="black" stroke="black" points="272.5,-691.61 269,-681.61 265.5,-691.61 272.5,-691.61"/>
<text text-anchor="middle" x="277" y="-703.36" font-family="Times,serif" font-size="14.00">t7</text>
</g>
<!-- R001_L1e2&#45;&gt;R101_L1e2 -->
<g id="edge17" class="edge">
<title>R001_L1e2&#45;&gt;R101_L1e2</title>
<path fill="none" stroke="black" d="M234.48,-558.14C222.56,-538.78 209.1,-516.94 196.79,-496.95"/>
<polygon fill="black" stroke="black" points="199.63,-494.89 191.4,-488.21 193.67,-498.56 199.63,-494.89"/>
<text text-anchor="middle" x="233.5" y="-519.57" font-family="Times,serif" font-size="14.00">t1R1</text>
</g>
<!-- R001_L1e2&#45;&gt;R101_Lee2 -->
<g id="edge18" class="edge">
<title>R001_L1e2&#45;&gt;R101_Lee2</title>
<path fill="none" stroke="black" d="M295.2,-553.88C302.51,-537.05 310.51,-518.63 318.03,-501.34"/>
<polygon fill="black" stroke="black" points="321.37,-502.44 322.14,-491.87 314.95,-499.65 321.37,-502.44"/>
<text text-anchor="middle" x="318" y="-519.57" font-family="Times,serif" font-size="14.00">t2</text>
</g>
</g>
</svg>
