<?xml version="1.0" encoding="UTF-8" standalone="no"?>
<!DOCTYPE svg PUBLIC "-//W3C//DTD SVG 1.1//EN"
 "http://www.w3.org/Graphics/SVG/1.1/DTD/svg11.dtd">
<!-- Generated by graphviz version 2.43.0 (0)
 -->
<!-- Title: SCdebug/13 Pages: 1 -->
<svg width="439pt" height="872pt"
 viewBox="0.00 0.00 439.49 872.04" xmlns="http://www.w3.org/2000/svg" xmlns:xlink="http://www.w3.org/1999/xlink">
<g id="graph0" class="graph" transform="scale(1 1) rotate(0) translate(4 868.04)">
<title>SCdebug/13</title>
<polygon fill="white" stroke="transparent" points="-4,4 -4,-868.04 435.49,-868.04 435.49,4 -4,4"/>
<!-- R000_L1ee -->
<g id="node1" class="node">
<title>R000_L1ee</title>
<ellipse fill="none" stroke="black" cx="215.74" cy="-798.3" rx="61.98" ry="61.98"/>
<ellipse fill="none" stroke="black" cx="215.74" cy="-798.3" rx="65.99" ry="65.99"/>
<text text-anchor="middle" x="215.74" y="-794.6" font-family="Times,serif" font-size="14.00">R000_L1ee</text>
</g>
<!-- R100_L1ee -->
<g id="node2" class="node">
<title>R100_L1ee</title>
<ellipse fill="none" stroke="black" cx="65.74" cy="-615.16" rx="61.98" ry="61.98"/>
<ellipse fill="none" stroke="black" cx="65.74" cy="-615.16" rx="65.99" ry="65.99"/>
<text text-anchor="middle" x="65.74" y="-611.46" font-family="Times,serif" font-size="14.00">R100_L1ee</text>
</g>
<!-- R000_L1ee&#45;&gt;R100_L1ee -->
<g id="edge1" class="edge">
<title>R000_L1ee&#45;&gt;R100_L1ee</title>
<path fill="none" stroke="black" d="M173.96,-746.84C155.27,-724.27 133.13,-697.53 113.76,-674.14"/>
<polygon fill="black" stroke="black" points="116.38,-671.82 107.3,-666.35 110.99,-676.28 116.38,-671.82"/>
<text text-anchor="middle" x="163.24" y="-703.36" font-family="Times,serif" font-size="14.00">t1R1</text>
</g>
<!-- R100_Leee -->
<g id="node8" class="node">
<title>R100_Leee</title>
<ellipse fill="none" stroke="black" cx="365.74" cy="-615.16" rx="61.98" ry="61.98"/>
<ellipse fill="none" stroke="black" cx="365.74" cy="-615.16" rx="65.99" ry="65.99"/>
<text text-anchor="middle" x="365.74" y="-611.46" font-family="Times,serif" font-size="14.00">R100_Leee</text>
</g>
<!-- R000_L1ee&#45;&gt;R100_Leee -->
<g id="edge2" class="edge">
<title>R000_L1ee&#45;&gt;R100_Leee</title>
<path fill="none" stroke="black" d="M257.53,-746.84C276.22,-724.27 298.36,-697.53 317.73,-674.14"/>
<polygon fill="black" stroke="black" points="320.5,-676.28 324.19,-666.35 315.11,-671.82 320.5,-676.28"/>
<text text-anchor="middle" x="302.74" y="-703.36" font-family="Times,serif" font-size="14.00">t2</text>
</g>
<!-- R001_L1e2 -->
<g id="node9" class="node">
<title>R001_L1e2</title>
<ellipse fill="none" stroke="black" cx="215.74" cy="-615.16" rx="62.3" ry="62.3"/>
<ellipse fill="none" stroke="black" cx="215.74" cy="-615.16" rx="66.29" ry="66.29"/>
<text text-anchor="middle" x="215.74" y="-611.46" font-family="Times,serif" font-size="14.00">R001_L1e2</text>
</g>
<!-- R000_L1ee&#45;&gt;R001_L1e2 -->
<g id="edge3" class="edge">
<title>R000_L1ee&#45;&gt;R001_L1e2</title>
<path fill="none" stroke="black" d="M215.74,-732.42C215.74,-719.31 215.74,-705.42 215.74,-691.98"/>
<polygon fill="black" stroke="black" points="219.24,-691.81 215.74,-681.81 212.24,-691.81 219.24,-691.81"/>
<text text-anchor="middle" x="223.74" y="-703.36" font-family="Times,serif" font-size="14.00">t7</text>
</g>
<!-- R101_L1e2 -->
<g id="node3" class="node">
<title>R101_L1e2</title>
<ellipse fill="none" stroke="black" cx="126.74" cy="-431.37" rx="62.3" ry="62.3"/>
<ellipse fill="none" stroke="black" cx="126.74" cy="-431.37" rx="66.29" ry="66.29"/>
<text text-anchor="middle" x="126.74" y="-427.67" font-family="Times,serif" font-size="14.00">R101_L1e2</text>
</g>
<!-- R100_L1ee&#45;&gt;R101_L1e2 -->
<g id="edge4" class="edge">
<title>R100_L1ee&#45;&gt;R101_L1e2</title>
<path fill="none" stroke="black" d="M86.4,-552.62C91.61,-537.09 97.24,-520.29 102.61,-504.3"/>
<polygon fill="black" stroke="black" points="106.04,-505.07 105.91,-494.47 99.41,-502.84 106.04,-505.07"/>
<text text-anchor="middle" x="106.74" y="-519.57" font-family="Times,serif" font-size="14.00">t7</text>
</g>
<!-- R001_L1ee -->
<g id="node4" class="node">
<title>R001_L1ee</title>
<ellipse fill="none" stroke="black" cx="126.74" cy="-248.23" rx="61.98" ry="61.98"/>
<ellipse fill="none" stroke="black" cx="126.74" cy="-248.23" rx="65.99" ry="65.99"/>
<text text-anchor="middle" x="126.74" y="-244.53" font-family="Times,serif" font-size="14.00">R001_L1ee</text>
</g>
<!-- R101_L1e2&#45;&gt;R001_L1ee -->
<g id="edge5" class="edge">
<title>R101_L1e2&#45;&gt;R001_L1ee</title>
<path fill="none" stroke="black" d="M126.74,-364.98C126.74,-351.81 126.74,-337.88 126.74,-324.41"/>
<polygon fill="black" stroke="black" points="130.24,-324.23 126.74,-314.23 123.24,-324.23 130.24,-324.23"/>
<text text-anchor="middle" x="134.74" y="-335.78" font-family="Times,serif" font-size="14.00">t3</text>
</g>
<!-- R101_Leee -->
<g id="node5" class="node">
<title>R101_Leee</title>
<ellipse fill="none" stroke="black" cx="200.74" cy="-65.74" rx="61.98" ry="61.98"/>
<ellipse fill="none" stroke="black" cx="200.74" cy="-65.74" rx="65.99" ry="65.99"/>
<text text-anchor="middle" x="200.74" y="-62.04" font-family="Times,serif" font-size="14.00">R101_Leee</text>
</g>
<!-- R001_L1ee&#45;&gt;R101_Leee -->
<g id="edge6" class="edge">
<title>R001_L1ee&#45;&gt;R101_Leee</title>
<path fill="none" stroke="black" d="M151.39,-187.13C158.03,-170.93 165.27,-153.27 172.11,-136.58"/>
<polygon fill="black" stroke="black" points="175.53,-137.47 176.09,-126.89 169.05,-134.81 175.53,-137.47"/>
<text text-anchor="middle" x="173.74" y="-153.29" font-family="Times,serif" font-size="14.00">t2</text>
</g>
<!-- R101_Lee2 -->
<g id="node6" class="node">
<title>R101_Lee2</title>
<ellipse fill="none" stroke="black" cx="276.74" cy="-431.37" rx="61.98" ry="61.98"/>
<ellipse fill="none" stroke="black" cx="276.74" cy="-431.37" rx="65.99" ry="65.99"/>
<text text-anchor="middle" x="276.74" y="-427.67" font-family="Times,serif" font-size="14.00">R101_Lee2</text>
</g>
<!-- R001_Leee -->
<g id="node7" class="node">
<title>R001_Leee</title>
<ellipse fill="none" stroke="black" cx="275.74" cy="-248.23" rx="61.98" ry="61.98"/>
<ellipse fill="none" stroke="black" cx="275.74" cy="-248.23" rx="65.99" ry="65.99"/>
<text text-anchor="middle" x="275.74" y="-244.53" font-family="Times,serif" font-size="14.00">R001_Leee</text>
</g>
<!-- R101_Lee2&#45;&gt;R001_Leee -->
<g id="edge7" class="edge">
<title>R101_Lee2&#45;&gt;R001_Leee</title>
<path fill="none" stroke="black" d="M276.39,-365.49C276.31,-352.22 276.24,-338.15 276.16,-324.56"/>
<polygon fill="black" stroke="black" points="279.66,-324.25 276.1,-314.27 272.66,-324.29 279.66,-324.25"/>
<text text-anchor="middle" x="283.74" y="-335.78" font-family="Times,serif" font-size="14.00">t3</text>
</g>
<!-- R001_Leee&#45;&gt;R101_Leee -->
<g id="edge8" class="edge">
<title>R001_Leee&#45;&gt;R101_Leee</title>
<path fill="none" stroke="black" d="M250.77,-187.13C244.04,-170.93 236.7,-153.27 229.76,-136.58"/>
<polygon fill="black" stroke="black" points="232.81,-134.78 225.74,-126.89 226.34,-137.47 232.81,-134.78"/>
<text text-anchor="middle" x="257.24" y="-153.29" font-family="Times,serif" font-size="14.00">t1R1</text>
</g>
<!-- R100_Leee&#45;&gt;R101_Lee2 -->
<g id="edge9" class="edge">
<title>R100_Leee&#45;&gt;R101_Lee2</title>
<path fill="none" stroke="black" d="M337.22,-555.89C328.47,-538.03 318.78,-518.24 309.77,-499.82"/>
<polygon fill="black" stroke="black" points="312.8,-498.07 305.26,-490.62 306.52,-501.14 312.8,-498.07"/>
<text text-anchor="middle" x="331.74" y="-519.57" font-family="Times,serif" font-size="14.00">t7</text>
</g>
<!-- R001_L1e2&#45;&gt;R101_L1e2 -->
<g id="edge10" class="edge">
<title>R001_L1e2&#45;&gt;R101_L1e2</title>
<path fill="none" stroke="black" d="M186.85,-555.14C178.33,-537.75 168.95,-518.57 160.17,-500.65"/>
<polygon fill="black" stroke="black" points="163.19,-498.85 155.65,-491.41 156.9,-501.93 163.19,-498.85"/>
<text text-anchor="middle" x="191.24" y="-519.57" font-family="Times,serif" font-size="14.00">t1R1</text>
</g>
<!-- R001_L1e2&#45;&gt;R101_Lee2 -->
<g id="edge11" class="edge">
<title>R001_L1e2&#45;&gt;R101_Lee2</title>
<path fill="none" stroke="black" d="M236.57,-552.11C241.8,-536.52 247.45,-519.67 252.82,-503.67"/>
<polygon fill="black" stroke="black" points="256.26,-504.43 256.12,-493.84 249.62,-502.2 256.26,-504.43"/>
<text text-anchor="middle" x="255.74" y="-519.57" font-family="Times,serif" font-size="14.00">t2</text>
</g>
</g>
</svg>
