<?xml version="1.0" encoding="UTF-8" standalone="no"?>
<!DOCTYPE svg PUBLIC "-//W3C//DTD SVG 1.1//EN"
 "http://www.w3.org/Graphics/SVG/1.1/DTD/svg11.dtd">
<!-- Generated by graphviz version 2.43.0 (0)
 -->
<!-- Title: SCdebug/14 Pages: 1 -->
<svg width="290pt" height="690pt"
 viewBox="0.00 0.00 290.14 689.56" xmlns="http://www.w3.org/2000/svg" xmlns:xlink="http://www.w3.org/1999/xlink">
<g id="graph0" class="graph" transform="scale(1 1) rotate(0) translate(4 685.56)">
<title>SCdebug/14</title>
<polygon fill="white" stroke="transparent" points="-4,4 -4,-685.56 286.14,-685.56 286.14,4 -4,4"/>
<!-- R001_L1e2 -->
<g id="node1" class="node">
<title>R001_L1e2</title>
<ellipse fill="none" stroke="black" cx="140.74" cy="-615.16" rx="62.3" ry="62.3"/>
<ellipse fill="none" stroke="black" cx="140.74" cy="-615.16" rx="66.29" ry="66.29"/>
<text text-anchor="middle" x="140.74" y="-611.46" font-family="Times,serif" font-size="14.00">R001_L1e2</text>
</g>
<!-- R101_Lee2 -->
<g id="node4" class="node">
<title>R101_Lee2</title>
<ellipse fill="none" stroke="black" cx="65.74" cy="-431.37" rx="61.98" ry="61.98"/>
<ellipse fill="none" stroke="black" cx="65.74" cy="-431.37" rx="65.99" ry="65.99"/>
<text text-anchor="middle" x="65.74" y="-427.67" font-family="Times,serif" font-size="14.00">R101_Lee2</text>
</g>
<!-- R001_L1e2&#45;&gt;R101_Lee2 -->
<g id="edge2" class="edge">
<title>R001_L1e2&#45;&gt;R101_Lee2</title>
<path fill="none" stroke="black" d="M115.77,-553.63C108.9,-536.98 101.4,-518.8 94.35,-501.7"/>
<polygon fill="black" stroke="black" points="97.53,-500.24 90.48,-492.33 91.06,-502.91 97.53,-500.24"/>
<text text-anchor="middle" x="113.74" y="-519.57" font-family="Times,serif" font-size="14.00">t2</text>
</g>
<!-- R101_L1e2 -->
<g id="node6" class="node">
<title>R101_L1e2</title>
<ellipse fill="none" stroke="black" cx="215.74" cy="-431.37" rx="62.3" ry="62.3"/>
<ellipse fill="none" stroke="black" cx="215.74" cy="-431.37" rx="66.29" ry="66.29"/>
<text text-anchor="middle" x="215.74" y="-427.67" font-family="Times,serif" font-size="14.00">R101_L1e2</text>
</g>
<!-- R001_L1e2&#45;&gt;R101_L1e2 -->
<g id="edge1" class="edge">
<title>R001_L1e2&#45;&gt;R101_L1e2</title>
<path fill="none" stroke="black" d="M165.72,-553.63C172.51,-537.16 179.93,-519.18 186.92,-502.24"/>
<polygon fill="black" stroke="black" points="190.17,-503.53 190.75,-492.95 183.7,-500.86 190.17,-503.53"/>
<text text-anchor="middle" x="197.24" y="-519.57" font-family="Times,serif" font-size="14.00">t1R1</text>
</g>
<!-- R001_L1ee -->
<g id="node2" class="node">
<title>R001_L1ee</title>
<ellipse fill="none" stroke="black" cx="214.74" cy="-248.23" rx="61.98" ry="61.98"/>
<ellipse fill="none" stroke="black" cx="214.74" cy="-248.23" rx="65.99" ry="65.99"/>
<text text-anchor="middle" x="214.74" y="-244.53" font-family="Times,serif" font-size="14.00">R001_L1ee</text>
</g>
<!-- R101_Leee -->
<g id="node3" class="node">
<title>R101_Leee</title>
<ellipse fill="none" stroke="black" cx="139.74" cy="-65.74" rx="61.98" ry="61.98"/>
<ellipse fill="none" stroke="black" cx="139.74" cy="-65.74" rx="65.99" ry="65.99"/>
<text text-anchor="middle" x="139.74" y="-62.04" font-family="Times,serif" font-size="14.00">R101_Leee</text>
</g>
<!-- R001_L1ee&#45;&gt;R101_Leee -->
<g id="edge3" class="edge">
<title>R001_L1ee&#45;&gt;R101_Leee</title>
<path fill="none" stroke="black" d="M189.77,-187.13C183.04,-170.93 175.7,-153.27 168.76,-136.58"/>
<polygon fill="black" stroke="black" points="171.81,-134.78 164.74,-126.89 165.34,-137.47 171.81,-134.78"/>
<text text-anchor="middle" x="186.74" y="-153.29" font-family="Times,serif" font-size="14.00">t2</text>
</g>
<!-- R001_Leee -->
<g id="node5" class="node">
<title>R001_Leee</title>
<ellipse fill="none" stroke="black" cx="65.74" cy="-248.23" rx="61.98" ry="61.98"/>
<ellipse fill="none" stroke="black" cx="65.74" cy="-248.23" rx="65.99" ry="65.99"/>
<text text-anchor="middle" x="65.74" y="-244.53" font-family="Times,serif" font-size="14.00">R001_Leee</text>
</g>
<!-- R101_Lee2&#45;&gt;R001_Leee -->
<g id="edge4" class="edge">
<title>R101_Lee2&#45;&gt;R001_Leee</title>
<path fill="none" stroke="black" d="M65.74,-365.49C65.74,-352.22 65.74,-338.15 65.74,-324.56"/>
<polygon fill="black" stroke="black" points="69.24,-324.27 65.74,-314.27 62.24,-324.27 69.24,-324.27"/>
<text text-anchor="middle" x="73.74" y="-335.78" font-family="Times,serif" font-size="14.00">t3</text>
</g>
<!-- R001_Leee&#45;&gt;R101_Leee -->
<g id="edge5" class="edge">
<title>R001_Leee&#45;&gt;R101_Leee</title>
<path fill="none" stroke="black" d="M90.39,-187.13C97.03,-170.93 104.27,-153.27 111.11,-136.58"/>
<polygon fill="black" stroke="black" points="114.53,-137.47 115.09,-126.89 108.05,-134.81 114.53,-137.47"/>
<text text-anchor="middle" x="123.24" y="-153.29" font-family="Times,serif" font-size="14.00">t1R1</text>
</g>
<!-- R101_L1e2&#45;&gt;R001_L1ee -->
<g id="edge6" class="edge">
<title>R101_L1e2&#45;&gt;R001_L1ee</title>
<path fill="none" stroke="black" d="M215.38,-364.98C215.31,-351.81 215.23,-337.88 215.16,-324.41"/>
<polygon fill="black" stroke="black" points="218.66,-324.21 215.1,-314.23 211.66,-324.25 218.66,-324.21"/>
<text text-anchor="middle" x="222.74" y="-335.78" font-family="Times,serif" font-size="14.00">t3</text>
</g>
</g>
</svg>
