<?xml version="1.0" encoding="UTF-8" standalone="no"?>
<!DOCTYPE svg PUBLIC "-//W3C//DTD SVG 1.1//EN"
 "http://www.w3.org/Graphics/SVG/1.1/DTD/svg11.dtd">
<!-- Generated by graphviz version 2.43.0 (0)
 -->
<!-- Title: SCdebug/16 Pages: 1 -->
<svg width="775pt" height="1425pt"
 viewBox="0.00 0.00 774.64 1424.71" xmlns="http://www.w3.org/2000/svg" xmlns:xlink="http://www.w3.org/1999/xlink">
<g id="graph0" class="graph" transform="scale(1 1) rotate(0) translate(4 1420.71)">
<title>SCdebug/16</title>
<polygon fill="white" stroke="transparent" points="-4,4 -4,-1420.71 770.64,-1420.71 770.64,4 -4,4"/>
<!-- R011_L132 -->
<g id="node1" class="node">
<title>R011_L132</title>
<ellipse fill="none" stroke="black" cx="488.64" cy="-1349.67" rx="63.09" ry="63.09"/>
<ellipse fill="none" stroke="black" cx="488.64" cy="-1349.67" rx="67.09" ry="67.09"/>
<text text-anchor="middle" x="488.64" y="-1345.97" font-family="Times,serif" font-size="14.00">R011_L132</text>
</g>
<!-- R011_L1e2 -->
<g id="node13" class="node">
<title>R011_L1e2</title>
<ellipse fill="none" stroke="black" cx="606.64" cy="-613.21" rx="62.29" ry="62.29"/>
<text text-anchor="middle" x="606.64" y="-609.51" font-family="Times,serif" font-size="14.00">R011_L1e2</text>
</g>
<!-- R011_L132&#45;&gt;R011_L1e2 -->
<g id="edge4" class="edge">
<title>R011_L132&#45;&gt;R011_L1e2</title>
<path fill="none" stroke="black" d="M551.35,-1325.48C591.88,-1306.84 641.42,-1276.32 665.64,-1231.62 688.63,-1189.19 703.46,-891.9 664.64,-729.96 660.24,-711.61 652.49,-692.84 644.06,-675.91"/>
<polygon fill="black" stroke="black" points="647.01,-674 639.32,-666.71 640.79,-677.2 647.01,-674"/>
<text text-anchor="middle" x="705.14" y="-976.44" font-family="Times,serif" font-size="14.00">t8R3</text>
</g>
<!-- R111_Le32 -->
<g id="node15" class="node">
<title>R111_Le32</title>
<ellipse fill="none" stroke="black" cx="133.64" cy="-1164.58" rx="62.3" ry="62.3"/>
<ellipse fill="none" stroke="black" cx="133.64" cy="-1164.58" rx="66.29" ry="66.29"/>
<text text-anchor="middle" x="133.64" y="-1160.88" font-family="Times,serif" font-size="14.00">R111_Le32</text>
</g>
<!-- R011_L132&#45;&gt;R111_Le32 -->
<g id="edge2" class="edge">
<title>R011_L132&#45;&gt;R111_Le32</title>
<path fill="none" stroke="black" d="M429.22,-1318.02C366.35,-1285.6 267.31,-1234.52 201.43,-1200.54"/>
<polygon fill="black" stroke="black" points="202.86,-1197.34 192.37,-1195.87 199.65,-1203.56 202.86,-1197.34"/>
<text text-anchor="middle" x="329.64" y="-1253.42" font-family="Times,serif" font-size="14.00">t2</text>
</g>
<!-- R111_L132 -->
<g id="node20" class="node">
<title>R111_L132</title>
<ellipse fill="none" stroke="black" cx="589.64" cy="-1164.58" rx="63.09" ry="63.09"/>
<ellipse fill="none" stroke="black" cx="589.64" cy="-1164.58" rx="67.09" ry="67.09"/>
<text text-anchor="middle" x="589.64" y="-1160.88" font-family="Times,serif" font-size="14.00">R111_L132</text>
</g>
<!-- R011_L132&#45;&gt;R111_L132 -->
<g id="edge1" class="edge">
<title>R011_L132&#45;&gt;R111_L132</title>
<path fill="none" stroke="black" d="M520.74,-1290.49C530.91,-1272.04 542.23,-1251.51 552.72,-1232.51"/>
<polygon fill="black" stroke="black" points="555.86,-1234.06 557.63,-1223.61 549.73,-1230.67 555.86,-1234.06"/>
<text text-anchor="middle" x="559.14" y="-1253.42" font-family="Times,serif" font-size="14.00">t1R1</text>
</g>
<!-- R010_L1e2 -->
<g id="node21" class="node">
<title>R010_L1e2</title>
<ellipse fill="none" stroke="black" cx="442.64" cy="-1164.58" rx="62.29" ry="62.29"/>
<text text-anchor="middle" x="442.64" y="-1160.88" font-family="Times,serif" font-size="14.00">R010_L1e2</text>
</g>
<!-- R011_L132&#45;&gt;R010_L1e2 -->
<g id="edge3" class="edge">
<title>R011_L132&#45;&gt;R010_L1e2</title>
<path fill="none" stroke="black" d="M472.49,-1284.37C468.5,-1268.5 464.21,-1251.43 460.16,-1235.31"/>
<polygon fill="black" stroke="black" points="463.51,-1234.27 457.68,-1225.42 456.72,-1235.97 463.51,-1234.27"/>
<text text-anchor="middle" x="474.64" y="-1253.42" font-family="Times,serif" font-size="14.00">t6</text>
</g>
<!-- R011_L13e -->
<g id="node2" class="node">
<title>R011_L13e</title>
<ellipse fill="none" stroke="black" cx="589.64" cy="-980.14" rx="62.3" ry="62.3"/>
<ellipse fill="none" stroke="black" cx="589.64" cy="-980.14" rx="66.29" ry="66.29"/>
<text text-anchor="middle" x="589.64" y="-976.44" font-family="Times,serif" font-size="14.00">R011_L13e</text>
</g>
<!-- R111_L13e -->
<g id="node3" class="node">
<title>R111_L13e</title>
<ellipse fill="none" stroke="black" cx="589.64" cy="-796.35" rx="62.3" ry="62.3"/>
<ellipse fill="none" stroke="black" cx="589.64" cy="-796.35" rx="66.29" ry="66.29"/>
<text text-anchor="middle" x="589.64" y="-792.65" font-family="Times,serif" font-size="14.00">R111_L13e</text>
</g>
<!-- R011_L13e&#45;&gt;R111_L13e -->
<g id="edge5" class="edge">
<title>R011_L13e&#45;&gt;R111_L13e</title>
<path fill="none" stroke="black" d="M589.64,-913.51C589.64,-900.38 589.64,-886.49 589.64,-873.05"/>
<polygon fill="black" stroke="black" points="593.14,-872.88 589.64,-862.88 586.14,-872.88 593.14,-872.88"/>
<text text-anchor="middle" x="607.14" y="-884.55" font-family="Times,serif" font-size="14.00">t1R1</text>
</g>
<!-- R011_L1ee -->
<g id="node6" class="node">
<title>R011_L1ee</title>
<ellipse fill="none" stroke="black" cx="606.64" cy="-248.23" rx="61.99" ry="61.99"/>
<text text-anchor="middle" x="606.64" y="-244.53" font-family="Times,serif" font-size="14.00">R011_L1ee</text>
</g>
<!-- R011_L13e&#45;&gt;R011_L1ee -->
<g id="edge8" class="edge">
<title>R011_L13e&#45;&gt;R011_L1ee</title>
<path fill="none" stroke="black" d="M630.59,-927.85C643.81,-908.53 657.01,-885.67 664.64,-862.75 693.18,-777.05 679.96,-373.21 677.64,-364.98 671.83,-344.41 661.23,-323.89 649.97,-305.97"/>
<polygon fill="black" stroke="black" points="652.78,-303.87 644.4,-297.39 646.91,-307.68 652.78,-303.87"/>
<text text-anchor="middle" x="700.14" y="-609.51" font-family="Times,serif" font-size="14.00">t8R3</text>
</g>
<!-- R111_Le3e -->
<g id="node8" class="node">
<title>R111_Le3e</title>
<ellipse fill="none" stroke="black" cx="298.64" cy="-796.35" rx="61.98" ry="61.98"/>
<ellipse fill="none" stroke="black" cx="298.64" cy="-796.35" rx="65.99" ry="65.99"/>
<text text-anchor="middle" x="298.64" y="-792.65" font-family="Times,serif" font-size="14.00">R111_Le3e</text>
</g>
<!-- R011_L13e&#45;&gt;R111_Le3e -->
<g id="edge6" class="edge">
<title>R011_L13e&#45;&gt;R111_Le3e</title>
<path fill="none" stroke="black" d="M540.57,-935.23C531.77,-927.84 522.56,-920.42 513.64,-913.75 492.02,-897.57 487.65,-890.91 462.64,-880.75 424.85,-865.39 409.18,-880.88 372.64,-862.75 365.62,-859.26 358.75,-854.94 352.2,-850.19"/>
<polygon fill="black" stroke="black" points="354.15,-847.27 344.08,-843.97 349.89,-852.83 354.15,-847.27"/>
<text text-anchor="middle" x="497.64" y="-884.55" font-family="Times,serif" font-size="14.00">t2</text>
</g>
<!-- R010_L1ee -->
<g id="node12" class="node">
<title>R010_L1ee</title>
<ellipse fill="none" stroke="black" cx="443.64" cy="-796.35" rx="61.99" ry="61.99"/>
<text text-anchor="middle" x="443.64" y="-792.65" font-family="Times,serif" font-size="14.00">R010_L1ee</text>
</g>
<!-- R011_L13e&#45;&gt;R010_L1ee -->
<g id="edge7" class="edge">
<title>R011_L13e&#45;&gt;R010_L1ee</title>
<path fill="none" stroke="black" d="M551.2,-925.69C540.27,-910.94 528.19,-895.07 516.64,-880.75 508.55,-870.72 499.71,-860.23 491.05,-850.22"/>
<polygon fill="black" stroke="black" points="493.68,-847.91 484.48,-842.66 488.4,-852.51 493.68,-847.91"/>
<text text-anchor="middle" x="534.64" y="-884.55" font-family="Times,serif" font-size="14.00">t6</text>
</g>
<!-- R110_L1ee -->
<g id="node4" class="node">
<title>R110_L1ee</title>
<ellipse fill="none" stroke="black" cx="464.64" cy="-613.21" rx="61.99" ry="61.99"/>
<text text-anchor="middle" x="464.64" y="-609.51" font-family="Times,serif" font-size="14.00">R110_L1ee</text>
</g>
<!-- R111_L13e&#45;&gt;R110_L1ee -->
<g id="edge9" class="edge">
<title>R111_L13e&#45;&gt;R110_L1ee</title>
<path fill="none" stroke="black" d="M570.96,-732.61C565.96,-720.28 559.88,-707.81 552.64,-696.96 549.64,-692.45 534.76,-678.14 518.06,-662.65"/>
<polygon fill="black" stroke="black" points="520.02,-659.69 510.3,-655.48 515.27,-664.84 520.02,-659.69"/>
<text text-anchor="middle" x="568.64" y="-700.76" font-family="Times,serif" font-size="14.00">t6</text>
</g>
<!-- R111_L1e2 -->
<g id="node5" class="node">
<title>R111_L1e2</title>
<ellipse fill="none" stroke="black" cx="606.64" cy="-430.72" rx="62.29" ry="62.29"/>
<text text-anchor="middle" x="606.64" y="-427.02" font-family="Times,serif" font-size="14.00">R111_L1e2</text>
</g>
<!-- R110_L1ee&#45;&gt;R111_L1e2 -->
<g id="edge10" class="edge">
<title>R110_L1ee&#45;&gt;R111_L1e2</title>
<path fill="none" stroke="black" d="M502.69,-563.84C521,-540.58 543.06,-512.54 562.13,-488.29"/>
<polygon fill="black" stroke="black" points="565.05,-490.25 568.48,-480.22 559.55,-485.92 565.05,-490.25"/>
<text text-anchor="middle" x="547.64" y="-518.27" font-family="Times,serif" font-size="14.00">t7</text>
</g>
<!-- R111_L1e2&#45;&gt;R011_L1ee -->
<g id="edge11" class="edge">
<title>R111_L1e2&#45;&gt;R011_L1ee</title>
<path fill="none" stroke="black" d="M606.64,-368.11C606.64,-352.78 606.64,-336.22 606.64,-320.47"/>
<polygon fill="black" stroke="black" points="610.14,-320.26 606.64,-310.26 603.14,-320.26 610.14,-320.26"/>
<text text-anchor="middle" x="614.64" y="-335.78" font-family="Times,serif" font-size="14.00">t3</text>
</g>
<!-- R111_Leee -->
<g id="node7" class="node">
<title>R111_Leee</title>
<ellipse fill="none" stroke="black" cx="374.64" cy="-65.74" rx="61.98" ry="61.98"/>
<ellipse fill="none" stroke="black" cx="374.64" cy="-65.74" rx="65.99" ry="65.99"/>
<text text-anchor="middle" x="374.64" y="-62.04" font-family="Times,serif" font-size="14.00">R111_Leee</text>
</g>
<!-- R011_L1ee&#45;&gt;R111_Leee -->
<g id="edge12" class="edge">
<title>R011_L1ee&#45;&gt;R111_Leee</title>
<path fill="none" stroke="black" d="M558.29,-209.62C522.21,-181.55 472.71,-143.04 434.19,-113.08"/>
<polygon fill="black" stroke="black" points="436.19,-110.2 426.15,-106.82 431.89,-115.72 436.19,-110.2"/>
<text text-anchor="middle" x="504.64" y="-153.29" font-family="Times,serif" font-size="14.00">t2</text>
</g>
<!-- R111_Le3e&#45;&gt;R111_Leee -->
<g id="edge14" class="edge">
<title>R111_Le3e&#45;&gt;R111_Leee</title>
<path fill="none" stroke="black" d="M334.64,-741.1C354.28,-706.34 374.64,-659.4 374.64,-614.21 374.64,-614.21 374.64,-614.21 374.64,-247.23 374.64,-212.74 374.64,-174.53 374.64,-142.19"/>
<polygon fill="black" stroke="black" points="378.14,-141.91 374.64,-131.91 371.14,-141.91 378.14,-141.91"/>
<text text-anchor="middle" x="392.14" y="-427.02" font-family="Times,serif" font-size="14.00">t8R3</text>
</g>
<!-- R110_Leee -->
<g id="node9" class="node">
<title>R110_Leee</title>
<ellipse fill="none" stroke="black" cx="280.64" cy="-613.21" rx="61.98" ry="61.98"/>
<ellipse fill="none" stroke="black" cx="280.64" cy="-613.21" rx="65.99" ry="65.99"/>
<text text-anchor="middle" x="280.64" y="-609.51" font-family="Times,serif" font-size="14.00">R110_Leee</text>
</g>
<!-- R111_Le3e&#45;&gt;R110_Leee -->
<g id="edge13" class="edge">
<title>R111_Le3e&#45;&gt;R110_Leee</title>
<path fill="none" stroke="black" d="M292.22,-730.72C290.87,-717.15 289.44,-702.73 288.05,-688.83"/>
<polygon fill="black" stroke="black" points="291.53,-688.42 287.06,-678.81 284.57,-689.11 291.53,-688.42"/>
<text text-anchor="middle" x="297.64" y="-700.76" font-family="Times,serif" font-size="14.00">t6</text>
</g>
<!-- R111_Lee2 -->
<g id="node10" class="node">
<title>R111_Lee2</title>
<ellipse fill="none" stroke="black" cx="202.64" cy="-430.72" rx="61.98" ry="61.98"/>
<ellipse fill="none" stroke="black" cx="202.64" cy="-430.72" rx="65.99" ry="65.99"/>
<text text-anchor="middle" x="202.64" y="-427.02" font-family="Times,serif" font-size="14.00">R111_Lee2</text>
</g>
<!-- R110_Leee&#45;&gt;R111_Lee2 -->
<g id="edge15" class="edge">
<title>R110_Leee&#45;&gt;R111_Lee2</title>
<path fill="none" stroke="black" d="M254.88,-552.61C247.69,-535.98 239.82,-517.77 232.42,-500.64"/>
<polygon fill="black" stroke="black" points="235.55,-499.05 228.37,-491.26 229.12,-501.83 235.55,-499.05"/>
<text text-anchor="middle" x="251.64" y="-518.27" font-family="Times,serif" font-size="14.00">t7</text>
</g>
<!-- R011_Leee -->
<g id="node11" class="node">
<title>R011_Leee</title>
<ellipse fill="none" stroke="black" cx="202.64" cy="-248.23" rx="61.98" ry="61.98"/>
<ellipse fill="none" stroke="black" cx="202.64" cy="-248.23" rx="65.99" ry="65.99"/>
<text text-anchor="middle" x="202.64" y="-244.53" font-family="Times,serif" font-size="14.00">R011_Leee</text>
</g>
<!-- R111_Lee2&#45;&gt;R011_Leee -->
<g id="edge16" class="edge">
<title>R111_Lee2&#45;&gt;R011_Leee</title>
<path fill="none" stroke="black" d="M202.64,-364.82C202.64,-351.69 202.64,-337.78 202.64,-324.34"/>
<polygon fill="black" stroke="black" points="206.14,-324.17 202.64,-314.17 199.14,-324.17 206.14,-324.17"/>
<text text-anchor="middle" x="210.64" y="-335.78" font-family="Times,serif" font-size="14.00">t3</text>
</g>
<!-- R011_Leee&#45;&gt;R111_Leee -->
<g id="edge17" class="edge">
<title>R011_Leee&#45;&gt;R111_Leee</title>
<path fill="none" stroke="black" d="M247.83,-199.81C270.84,-175.67 298.92,-146.2 322.81,-121.13"/>
<polygon fill="black" stroke="black" points="325.39,-123.5 329.75,-113.85 320.32,-118.67 325.39,-123.5"/>
<text text-anchor="middle" x="311.14" y="-153.29" font-family="Times,serif" font-size="14.00">t1R1</text>
</g>
<!-- R010_L1ee&#45;&gt;R110_L1ee -->
<g id="edge18" class="edge">
<title>R010_L1ee&#45;&gt;R110_L1ee</title>
<path fill="none" stroke="black" d="M450.66,-734.78C452.52,-718.77 454.54,-701.35 456.45,-684.85"/>
<polygon fill="black" stroke="black" points="459.95,-685.06 457.62,-674.72 453,-684.25 459.95,-685.06"/>
<text text-anchor="middle" x="472.14" y="-700.76" font-family="Times,serif" font-size="14.00">t1R1</text>
</g>
<!-- R010_L1ee&#45;&gt;R110_Leee -->
<g id="edge19" class="edge">
<title>R010_L1ee&#45;&gt;R110_Leee</title>
<path fill="none" stroke="black" d="M402.51,-749.64C380.88,-725.61 354.19,-695.94 331.3,-670.51"/>
<polygon fill="black" stroke="black" points="333.62,-667.85 324.33,-662.76 328.41,-672.54 333.62,-667.85"/>
<text text-anchor="middle" x="374.64" y="-700.76" font-family="Times,serif" font-size="14.00">t2</text>
</g>
<!-- R010_L1ee&#45;&gt;R011_L1e2 -->
<g id="edge20" class="edge">
<title>R010_L1ee&#45;&gt;R011_L1e2</title>
<path fill="none" stroke="black" d="M484.77,-749.64C507.18,-724.74 535.02,-693.8 558.44,-667.77"/>
<polygon fill="black" stroke="black" points="561.15,-670 565.24,-660.22 555.95,-665.31 561.15,-670"/>
<text text-anchor="middle" x="537.64" y="-700.76" font-family="Times,serif" font-size="14.00">t7</text>
</g>
<!-- R011_L1e2&#45;&gt;R111_L1e2 -->
<g id="edge21" class="edge">
<title>R011_L1e2&#45;&gt;R111_L1e2</title>
<path fill="none" stroke="black" d="M606.64,-550.6C606.64,-535.44 606.64,-519.07 606.64,-503.48"/>
<polygon fill="black" stroke="black" points="610.14,-503.36 606.64,-493.36 603.14,-503.36 610.14,-503.36"/>
<text text-anchor="middle" x="624.14" y="-518.27" font-family="Times,serif" font-size="14.00">t1R1</text>
</g>
<!-- R011_L1e2&#45;&gt;R111_Lee2 -->
<g id="edge22" class="edge">
<title>R011_L1e2&#45;&gt;R111_Lee2</title>
<path fill="none" stroke="black" d="M563.67,-567.3C554.94,-559.89 545.42,-552.88 535.64,-547.47 461.77,-506.58 432.25,-524.6 352.64,-496.47 325.72,-486.96 296.79,-474.92 271.58,-463.81"/>
<polygon fill="black" stroke="black" points="272.67,-460.46 262.11,-459.6 269.83,-466.86 272.67,-460.46"/>
<text text-anchor="middle" x="503.64" y="-518.27" font-family="Times,serif" font-size="14.00">t2</text>
</g>
<!-- R110_L1e2 -->
<g id="node14" class="node">
<title>R110_L1e2</title>
<ellipse fill="none" stroke="black" cx="442.64" cy="-980.14" rx="62.29" ry="62.29"/>
<text text-anchor="middle" x="442.64" y="-976.44" font-family="Times,serif" font-size="14.00">R110_L1e2</text>
</g>
<!-- R110_L1e2&#45;&gt;R010_L1ee -->
<g id="edge23" class="edge">
<title>R110_L1e2&#45;&gt;R010_L1ee</title>
<path fill="none" stroke="black" d="M442.98,-917.59C443.07,-901.73 443.16,-884.53 443.25,-868.23"/>
<polygon fill="black" stroke="black" points="446.75,-868.23 443.3,-858.22 439.75,-868.2 446.75,-868.23"/>
<text text-anchor="middle" x="450.64" y="-884.55" font-family="Times,serif" font-size="14.00">t3</text>
</g>
<!-- R111_Le32&#45;&gt;R111_Lee2 -->
<g id="edge26" class="edge">
<title>R111_Le32&#45;&gt;R111_Lee2</title>
<path fill="none" stroke="black" d="M78.63,-1127.01C53.13,-1106.68 25.46,-1078.93 11.64,-1046.53 -11.51,-992.25 8.03,-972.65 11.64,-913.75 16.65,-831.89 16.51,-618.98 56.64,-547.47 75.08,-514.6 106.97,-487.68 136.26,-468.1"/>
<polygon fill="black" stroke="black" points="138.36,-470.9 144.84,-462.51 134.54,-465.04 138.36,-470.9"/>
<text text-anchor="middle" x="38.14" y="-792.65" font-family="Times,serif" font-size="14.00">t8R3</text>
</g>
<!-- R011_Le3e -->
<g id="node16" class="node">
<title>R011_Le3e</title>
<ellipse fill="none" stroke="black" cx="235.64" cy="-980.14" rx="61.98" ry="61.98"/>
<ellipse fill="none" stroke="black" cx="235.64" cy="-980.14" rx="65.99" ry="65.99"/>
<text text-anchor="middle" x="235.64" y="-976.44" font-family="Times,serif" font-size="14.00">R011_Le3e</text>
</g>
<!-- R111_Le32&#45;&gt;R011_Le3e -->
<g id="edge24" class="edge">
<title>R111_Le32&#45;&gt;R011_Le3e</title>
<path fill="none" stroke="black" d="M165.63,-1106.35C176.22,-1087.41 188.09,-1066.19 199,-1046.68"/>
<polygon fill="black" stroke="black" points="202.11,-1048.28 203.93,-1037.85 196,-1044.87 202.11,-1048.28"/>
<text text-anchor="middle" x="195.64" y="-1068.33" font-family="Times,serif" font-size="14.00">t3</text>
</g>
<!-- R110_Lee2 -->
<g id="node19" class="node">
<title>R110_Lee2</title>
<ellipse fill="none" stroke="black" cx="86.64" cy="-980.14" rx="61.98" ry="61.98"/>
<ellipse fill="none" stroke="black" cx="86.64" cy="-980.14" rx="65.99" ry="65.99"/>
<text text-anchor="middle" x="86.64" y="-976.44" font-family="Times,serif" font-size="14.00">R110_Lee2</text>
</g>
<!-- R111_Le32&#45;&gt;R110_Lee2 -->
<g id="edge25" class="edge">
<title>R111_Le32&#45;&gt;R110_Lee2</title>
<path fill="none" stroke="black" d="M117.27,-1100.03C113.44,-1085.18 109.34,-1069.25 105.42,-1054.04"/>
<polygon fill="black" stroke="black" points="108.76,-1052.97 102.87,-1044.16 101.98,-1054.71 108.76,-1052.97"/>
<text text-anchor="middle" x="119.64" y="-1068.33" font-family="Times,serif" font-size="14.00">t6</text>
</g>
<!-- R011_Le3e&#45;&gt;R111_Le3e -->
<g id="edge27" class="edge">
<title>R011_Le3e&#45;&gt;R111_Le3e</title>
<path fill="none" stroke="black" d="M256.88,-917.85C262.41,-901.91 268.4,-884.6 274.08,-868.21"/>
<polygon fill="black" stroke="black" points="277.42,-869.28 277.38,-858.69 270.8,-866.99 277.42,-869.28"/>
<text text-anchor="middle" x="286.14" y="-884.55" font-family="Times,serif" font-size="14.00">t1R1</text>
</g>
<!-- R011_Le3e&#45;&gt;R011_Leee -->
<g id="edge29" class="edge">
<title>R011_Le3e&#45;&gt;R011_Leee</title>
<path fill="none" stroke="black" d="M187.79,-934.48C179.31,-927.26 170.39,-920.08 161.64,-913.75 125.34,-887.45 102.14,-898.13 74.64,-862.75 61.6,-845.96 24.61,-700 21.64,-678.96 13.46,-621.09 6.44,-603.9 21.64,-547.47 46.03,-456.9 78.57,-444.91 127.64,-364.98 138.25,-347.69 150.06,-329.16 161.1,-312.12"/>
<polygon fill="black" stroke="black" points="164.28,-313.64 166.8,-303.35 158.41,-309.83 164.28,-313.64"/>
<text text-anchor="middle" x="39.14" y="-609.51" font-family="Times,serif" font-size="14.00">t8R3</text>
</g>
<!-- R010_Leee -->
<g id="node17" class="node">
<title>R010_Leee</title>
<ellipse fill="none" stroke="black" cx="149.64" cy="-796.35" rx="61.98" ry="61.98"/>
<ellipse fill="none" stroke="black" cx="149.64" cy="-796.35" rx="65.99" ry="65.99"/>
<text text-anchor="middle" x="149.64" y="-792.65" font-family="Times,serif" font-size="14.00">R010_Leee</text>
</g>
<!-- R011_Le3e&#45;&gt;R010_Leee -->
<g id="edge28" class="edge">
<title>R011_Le3e&#45;&gt;R010_Leee</title>
<path fill="none" stroke="black" d="M207.84,-920.37C199.56,-902.88 190.43,-883.57 181.89,-865.53"/>
<polygon fill="black" stroke="black" points="184.93,-863.77 177.49,-856.23 178.61,-866.77 184.93,-863.77"/>
<text text-anchor="middle" x="202.64" y="-884.55" font-family="Times,serif" font-size="14.00">t6</text>
</g>
<!-- R010_Leee&#45;&gt;R110_Leee -->
<g id="edge30" class="edge">
<title>R010_Leee&#45;&gt;R110_Leee</title>
<path fill="none" stroke="black" d="M187.88,-742.47C203.15,-721.36 220.82,-696.92 236.62,-675.08"/>
<polygon fill="black" stroke="black" points="239.55,-677 242.58,-666.84 233.88,-672.9 239.55,-677"/>
<text text-anchor="middle" x="236.14" y="-700.76" font-family="Times,serif" font-size="14.00">t1R1</text>
</g>
<!-- R011_Lee2 -->
<g id="node18" class="node">
<title>R011_Lee2</title>
<ellipse fill="none" stroke="black" cx="131.64" cy="-613.21" rx="61.98" ry="61.98"/>
<ellipse fill="none" stroke="black" cx="131.64" cy="-613.21" rx="65.99" ry="65.99"/>
<text text-anchor="middle" x="131.64" y="-609.51" font-family="Times,serif" font-size="14.00">R011_Lee2</text>
</g>
<!-- R010_Leee&#45;&gt;R011_Lee2 -->
<g id="edge31" class="edge">
<title>R010_Leee&#45;&gt;R011_Lee2</title>
<path fill="none" stroke="black" d="M143.22,-730.72C141.87,-717.15 140.44,-702.73 139.05,-688.83"/>
<polygon fill="black" stroke="black" points="142.53,-688.42 138.06,-678.81 135.57,-689.11 142.53,-688.42"/>
<text text-anchor="middle" x="148.64" y="-700.76" font-family="Times,serif" font-size="14.00">t7</text>
</g>
<!-- R011_Lee2&#45;&gt;R111_Lee2 -->
<g id="edge32" class="edge">
<title>R011_Lee2&#45;&gt;R111_Lee2</title>
<path fill="none" stroke="black" d="M155.38,-551.86C161.68,-535.84 168.54,-518.4 175.03,-501.91"/>
<polygon fill="black" stroke="black" points="178.4,-502.91 178.8,-492.32 171.88,-500.35 178.4,-502.91"/>
<text text-anchor="middle" x="186.14" y="-518.27" font-family="Times,serif" font-size="14.00">t1R1</text>
</g>
<!-- R110_Lee2&#45;&gt;R010_Leee -->
<g id="edge33" class="edge">
<title>R110_Lee2&#45;&gt;R010_Leee</title>
<path fill="none" stroke="black" d="M107.88,-917.85C113.41,-901.91 119.4,-884.6 125.08,-868.21"/>
<polygon fill="black" stroke="black" points="128.42,-869.28 128.38,-858.69 121.8,-866.99 128.42,-869.28"/>
<text text-anchor="middle" x="128.64" y="-884.55" font-family="Times,serif" font-size="14.00">t3</text>
</g>
<!-- R111_L132&#45;&gt;R011_L13e -->
<g id="edge34" class="edge">
<title>R111_L132&#45;&gt;R011_L13e</title>
<path fill="none" stroke="black" d="M589.64,-1097.46C589.64,-1084.29 589.64,-1070.37 589.64,-1056.91"/>
<polygon fill="black" stroke="black" points="593.14,-1056.73 589.64,-1046.73 586.14,-1056.73 593.14,-1056.73"/>
<text text-anchor="middle" x="597.64" y="-1068.33" font-family="Times,serif" font-size="14.00">t3</text>
</g>
<!-- R111_L132&#45;&gt;R111_L1e2 -->
<g id="edge36" class="edge">
<title>R111_L132&#45;&gt;R111_L1e2</title>
<path fill="none" stroke="black" d="M630.12,-1110.72C643.05,-1091.45 656.18,-1068.88 664.64,-1046.53 704.16,-942.14 764.19,-650.66 721.64,-547.47 709.86,-518.89 687.22,-493.64 665.13,-474.08"/>
<polygon fill="black" stroke="black" points="667.22,-471.26 657.35,-467.4 662.66,-476.57 667.22,-471.26"/>
<text text-anchor="middle" x="749.14" y="-792.65" font-family="Times,serif" font-size="14.00">t8R3</text>
</g>
<!-- R111_L132&#45;&gt;R110_L1e2 -->
<g id="edge35" class="edge">
<title>R111_L132&#45;&gt;R110_L1e2</title>
<path fill="none" stroke="black" d="M547.91,-1111.79C529.15,-1088.5 506.97,-1060.98 487.82,-1037.21"/>
<polygon fill="black" stroke="black" points="490.45,-1034.9 481.45,-1029.3 485,-1039.29 490.45,-1034.9"/>
<text text-anchor="middle" x="527.64" y="-1068.33" font-family="Times,serif" font-size="14.00">t6</text>
</g>
<!-- R010_L1e2&#45;&gt;R110_L1e2 -->
<g id="edge37" class="edge">
<title>R010_L1e2&#45;&gt;R110_L1e2</title>
<path fill="none" stroke="black" d="M442.64,-1102.07C442.64,-1086.22 442.64,-1069.03 442.64,-1052.72"/>
<polygon fill="black" stroke="black" points="446.14,-1052.69 442.64,-1042.69 439.14,-1052.69 446.14,-1052.69"/>
<text text-anchor="middle" x="460.14" y="-1068.33" font-family="Times,serif" font-size="14.00">t1R1</text>
</g>
<!-- R010_L1e2&#45;&gt;R110_Lee2 -->
<g id="edge38" class="edge">
<title>R010_L1e2&#45;&gt;R110_Lee2</title>
<path fill="none" stroke="black" d="M385.4,-1138.83C337.95,-1118.46 268.64,-1089.06 207.64,-1064.53 186.89,-1056.19 179.77,-1058.13 160.64,-1046.53 154.04,-1042.54 147.48,-1037.92 141.14,-1033.03"/>
<polygon fill="black" stroke="black" points="143.24,-1030.23 133.24,-1026.72 138.86,-1035.7 143.24,-1030.23"/>
<text text-anchor="middle" x="247.64" y="-1068.33" font-family="Times,serif" font-size="14.00">t2</text>
</g>
</g>
</svg>
