<?xml version="1.0" encoding="UTF-8" standalone="no"?>
<!DOCTYPE svg PUBLIC "-//W3C//DTD SVG 1.1//EN"
 "http://www.w3.org/Graphics/SVG/1.1/DTD/svg11.dtd">
<!-- Generated by graphviz version 2.43.0 (0)
 -->
<!-- Title: SCdebug/18 Pages: 1 -->
<svg width="1164pt" height="848pt"
 viewBox="0.00 0.00 1164.00 848.00" xmlns="http://www.w3.org/2000/svg" xmlns:xlink="http://www.w3.org/1999/xlink">
<g id="graph0" class="graph" transform="scale(1 1) rotate(0) translate(4 844)">
<title>SCdebug/18</title>
<polygon fill="white" stroke="transparent" points="-4,4 -4,-844 1160,-844 1160,4 -4,4"/>
<!-- S8 -->
<g id="node1" class="node">
<title>S8</title>
<ellipse fill="#ffeeee" stroke="black" cx="400" cy="-735" rx="27" ry="18"/>
<text text-anchor="middle" x="400" y="-731.3" font-family="Times,serif" font-size="14.00">S8</text>
</g>
<!-- S9 -->
<g id="node3" class="node">
<title>S9</title>
<ellipse fill="#ffeeee" stroke="black" cx="577" cy="-648" rx="27" ry="18"/>
<text text-anchor="middle" x="577" y="-644.3" font-family="Times,serif" font-size="14.00">S9</text>
</g>
<!-- S8&#45;&gt;S9 -->
<g id="edge4" class="edge">
<title>S8&#45;&gt;S9</title>
<path fill="none" stroke="black" d="M421.35,-723.75C452.45,-708.81 510.38,-680.99 546.12,-663.83"/>
<polygon fill="black" stroke="black" points="548.07,-666.77 555.57,-659.29 545.04,-660.46 548.07,-666.77"/>
<text text-anchor="middle" x="508" y="-687.8" font-family="Times,serif" font-size="14.00">t9</text>
</g>
<!-- S18 -->
<g id="node4" class="node">
<title>S18</title>
<ellipse fill="#ffeeee" stroke="black" cx="98" cy="-648" rx="28.7" ry="18"/>
<text text-anchor="middle" x="98" y="-644.3" font-family="Times,serif" font-size="14.00">S18</text>
</g>
<!-- S8&#45;&gt;S18 -->
<g id="edge3" class="edge">
<title>S8&#45;&gt;S18</title>
<path fill="none" stroke="black" d="M373.17,-732.93C314.7,-730.2 177.85,-721.52 138,-699 127.48,-693.05 118.68,-683.14 112.04,-673.7"/>
<polygon fill="black" stroke="black" points="114.95,-671.76 106.56,-665.29 109.09,-675.58 114.95,-671.76"/>
<text text-anchor="middle" x="150.5" y="-687.8" font-family="Times,serif" font-size="14.00">t10</text>
</g>
<!-- S7 -->
<g id="node13" class="node">
<title>S7</title>
<ellipse fill="#ffffff" stroke="black" cx="400" cy="-648" rx="27" ry="18"/>
<text text-anchor="middle" x="400" y="-644.3" font-family="Times,serif" font-size="14.00">S7</text>
</g>
<!-- S8&#45;&gt;S7 -->
<g id="edge1" class="edge">
<title>S8&#45;&gt;S7</title>
<path fill="none" stroke="black" d="M400,-716.8C400,-705.16 400,-689.55 400,-676.24"/>
<polygon fill="black" stroke="black" points="403.5,-676.18 400,-666.18 396.5,-676.18 403.5,-676.18"/>
<text text-anchor="middle" x="408" y="-687.8" font-family="Times,serif" font-size="14.00">t5</text>
</g>
<!-- S6 -->
<g id="node16" class="node">
<title>S6</title>
<ellipse fill="#ffeeee" stroke="black" cx="400" cy="-105" rx="27" ry="18"/>
<text text-anchor="middle" x="400" y="-101.3" font-family="Times,serif" font-size="14.00">S6</text>
</g>
<!-- S8&#45;&gt;S6 -->
<g id="edge2" class="edge">
<title>S8&#45;&gt;S6</title>
<path fill="none" stroke="black" d="M373.98,-729.76C315.16,-719.43 177,-690.74 177,-649 177,-649 177,-649 177,-245 177,-193.9 183.56,-169.46 226,-141 267.17,-113.39 325.31,-106.66 362.83,-105.47"/>
<polygon fill="black" stroke="black" points="362.91,-108.97 372.84,-105.27 362.77,-101.97 362.91,-108.97"/>
<text text-anchor="middle" x="189.5" y="-426.8" font-family="Times,serif" font-size="14.00">t12</text>
</g>
<!-- S0 -->
<g id="node2" class="node">
<title>S0</title>
<ellipse fill="#ffffff" stroke="black" cx="444" cy="-822" rx="27" ry="18"/>
<text text-anchor="middle" x="444" y="-818.3" font-family="Times,serif" font-size="14.00">S0</text>
</g>
<!-- S0&#45;&gt;S8 -->
<g id="edge7" class="edge">
<title>S0&#45;&gt;S8</title>
<path fill="none" stroke="black" d="M435.52,-804.61C429.19,-792.38 420.42,-775.44 413.18,-761.46"/>
<polygon fill="black" stroke="black" points="416.16,-759.61 408.46,-752.34 409.95,-762.83 416.16,-759.61"/>
<text text-anchor="middle" x="437.5" y="-774.8" font-family="Times,serif" font-size="14.00">t16</text>
</g>
<!-- S0&#45;&gt;S0 -->
<g id="edge6" class="edge">
<title>S0&#45;&gt;S0</title>
<path fill="none" stroke="black" d="M468.53,-829.75C479.51,-830.49 489,-827.91 489,-822 489,-818.03 484.72,-815.56 478.57,-814.59"/>
<polygon fill="black" stroke="black" points="478.65,-811.09 468.53,-814.25 478.41,-818.09 478.65,-811.09"/>
<text text-anchor="middle" x="501.5" y="-818.3" font-family="Times,serif" font-size="14.00">t14</text>
</g>
<!-- S5 -->
<g id="node19" class="node">
<title>S5</title>
<ellipse fill="#ffffff" stroke="black" cx="344" cy="-192" rx="27" ry="18"/>
<text text-anchor="middle" x="344" y="-188.3" font-family="Times,serif" font-size="14.00">S5</text>
</g>
<!-- S0&#45;&gt;S5 -->
<g id="edge5" class="edge">
<title>S0&#45;&gt;S5</title>
<path fill="none" stroke="black" d="M456.9,-806.17C469.57,-790.05 487,-762.96 487,-736 487,-736 487,-736 487,-560 487,-459.43 494.25,-428.59 455,-336 434.23,-287.02 392.39,-240.28 366.43,-214.24"/>
<polygon fill="black" stroke="black" points="368.82,-211.69 359.24,-207.16 363.9,-216.67 368.82,-211.69"/>
<text text-anchor="middle" x="500.5" y="-513.8" font-family="Times,serif" font-size="14.00">t12</text>
</g>
<!-- S9&#45;&gt;S9 -->
<g id="edge10" class="edge">
<title>S9&#45;&gt;S9</title>
<path fill="none" stroke="black" d="M601.53,-655.75C612.51,-656.49 622,-653.91 622,-648 622,-644.03 617.72,-641.56 611.57,-640.59"/>
<polygon fill="black" stroke="black" points="611.65,-637.09 601.53,-640.25 611.41,-644.09 611.65,-637.09"/>
<text text-anchor="middle" x="634.5" y="-644.3" font-family="Times,serif" font-size="14.00">t14</text>
</g>
<!-- S10 -->
<g id="node20" class="node">
<title>S10</title>
<ellipse fill="#ffffff" stroke="black" cx="577" cy="-561" rx="28.7" ry="18"/>
<text text-anchor="middle" x="577" y="-557.3" font-family="Times,serif" font-size="14.00">S10</text>
</g>
<!-- S9&#45;&gt;S10 -->
<g id="edge8" class="edge">
<title>S9&#45;&gt;S10</title>
<path fill="none" stroke="black" d="M577,-629.8C577,-618.16 577,-602.55 577,-589.24"/>
<polygon fill="black" stroke="black" points="580.5,-589.18 577,-579.18 573.5,-589.18 580.5,-589.18"/>
<text text-anchor="middle" x="585" y="-600.8" font-family="Times,serif" font-size="14.00">t5</text>
</g>
<!-- S14 -->
<g id="node22" class="node">
<title>S14</title>
<ellipse fill="#ffeeee" stroke="black" cx="902" cy="-18" rx="28.7" ry="18"/>
<text text-anchor="middle" x="902" y="-14.3" font-family="Times,serif" font-size="14.00">S14</text>
</g>
<!-- S9&#45;&gt;S14 -->
<g id="edge9" class="edge">
<title>S9&#45;&gt;S14</title>
<path fill="none" stroke="black" d="M604.1,-645.74C715.32,-640.21 1131,-615.94 1131,-562 1131,-562 1131,-562 1131,-104 1131,-72.89 1109.4,-68.75 1082,-54 1037.42,-30 978.75,-22.31 940.71,-19.93"/>
<polygon fill="black" stroke="black" points="940.73,-16.43 930.56,-19.39 940.36,-23.42 940.73,-16.43"/>
<text text-anchor="middle" x="1143.5" y="-339.8" font-family="Times,serif" font-size="14.00">t12</text>
</g>
<!-- S23 -->
<g id="node25" class="node">
<title>S23</title>
<ellipse fill="#ffeeee" stroke="black" cx="157" cy="-18" rx="28.7" ry="18"/>
<text text-anchor="middle" x="157" y="-14.3" font-family="Times,serif" font-size="14.00">S23</text>
</g>
<!-- S18&#45;&gt;S23 -->
<g id="edge11" class="edge">
<title>S18&#45;&gt;S23</title>
<path fill="none" stroke="black" d="M73.78,-638.28C44.75,-626.08 0,-600.96 0,-562 0,-562 0,-562 0,-104 0,-50.11 72.41,-30.22 118.88,-22.99"/>
<polygon fill="black" stroke="black" points="119.52,-26.44 128.93,-21.56 118.54,-19.51 119.52,-26.44"/>
<text text-anchor="middle" x="12.5" y="-339.8" font-family="Times,serif" font-size="14.00">t12</text>
</g>
<!-- S19 -->
<g id="node27" class="node">
<title>S19</title>
<ellipse fill="#ffffff" stroke="black" cx="98" cy="-561" rx="28.7" ry="18"/>
<text text-anchor="middle" x="98" y="-557.3" font-family="Times,serif" font-size="14.00">S19</text>
</g>
<!-- S18&#45;&gt;S19 -->
<g id="edge12" class="edge">
<title>S18&#45;&gt;S19</title>
<path fill="none" stroke="black" d="M98,-629.8C98,-618.16 98,-602.55 98,-589.24"/>
<polygon fill="black" stroke="black" points="101.5,-589.18 98,-579.18 94.5,-589.18 101.5,-589.18"/>
<text text-anchor="middle" x="106" y="-600.8" font-family="Times,serif" font-size="14.00">t5</text>
</g>
<!-- S30 -->
<g id="node5" class="node">
<title>S30</title>
<ellipse fill="#ffeeee" stroke="black" cx="826" cy="-387" rx="28.7" ry="18"/>
<text text-anchor="middle" x="826" y="-383.3" font-family="Times,serif" font-size="14.00">S30</text>
</g>
<!-- S28 -->
<g id="node7" class="node">
<title>S28</title>
<ellipse fill="#ffeeee" stroke="black" cx="987" cy="-300" rx="28.7" ry="18"/>
<text text-anchor="middle" x="987" y="-296.3" font-family="Times,serif" font-size="14.00">S28</text>
</g>
<!-- S30&#45;&gt;S28 -->
<g id="edge16" class="edge">
<title>S30&#45;&gt;S28</title>
<path fill="none" stroke="black" d="M847.38,-374.71C875.48,-359.87 925.02,-333.72 956.9,-316.89"/>
<polygon fill="black" stroke="black" points="958.58,-319.96 965.79,-312.2 955.31,-313.77 958.58,-319.96"/>
<text text-anchor="middle" x="925" y="-339.8" font-family="Times,serif" font-size="14.00">t9</text>
</g>
<!-- S31 -->
<g id="node9" class="node">
<title>S31</title>
<ellipse fill="#ffeeee" stroke="black" cx="708" cy="-300" rx="28.7" ry="18"/>
<text text-anchor="middle" x="708" y="-296.3" font-family="Times,serif" font-size="14.00">S31</text>
</g>
<!-- S30&#45;&gt;S31 -->
<g id="edge15" class="edge">
<title>S30&#45;&gt;S31</title>
<path fill="none" stroke="black" d="M803.93,-375.19C799.07,-373 793.91,-370.82 789,-369 761.69,-358.89 747.27,-370.89 726,-351 719.48,-344.91 715.32,-336.29 712.67,-327.91"/>
<polygon fill="black" stroke="black" points="716,-326.82 710.12,-318.01 709.22,-328.57 716,-326.82"/>
<text text-anchor="middle" x="738.5" y="-339.8" font-family="Times,serif" font-size="14.00">t10</text>
</g>
<!-- S17 -->
<g id="node12" class="node">
<title>S17</title>
<ellipse fill="#ffffff" stroke="black" cx="813" cy="-300" rx="28.7" ry="18"/>
<text text-anchor="middle" x="813" y="-296.3" font-family="Times,serif" font-size="14.00">S17</text>
</g>
<!-- S30&#45;&gt;S17 -->
<g id="edge13" class="edge">
<title>S30&#45;&gt;S17</title>
<path fill="none" stroke="black" d="M823.37,-368.8C821.59,-357.16 819.2,-341.55 817.17,-328.24"/>
<polygon fill="black" stroke="black" points="820.6,-327.53 815.63,-318.18 813.68,-328.59 820.6,-327.53"/>
<text text-anchor="middle" x="829" y="-339.8" font-family="Times,serif" font-size="14.00">t7</text>
</g>
<!-- S30&#45;&gt;S6 -->
<g id="edge14" class="edge">
<title>S30&#45;&gt;S6</title>
<path fill="none" stroke="black" d="M837.24,-369.96C857.62,-338.77 895.39,-269.36 860,-228 843.18,-208.35 769.95,-216.82 745,-210 682.26,-192.87 667.98,-183.4 609,-156 596.2,-150.05 594.3,-145.73 581,-141 532.83,-123.88 474.3,-114.5 437.1,-109.86"/>
<polygon fill="black" stroke="black" points="437.08,-106.34 426.74,-108.63 436.25,-113.29 437.08,-106.34"/>
<text text-anchor="middle" x="887.5" y="-242.3" font-family="Times,serif" font-size="14.00">t11</text>
</g>
<!-- S1 -->
<g id="node6" class="node">
<title>S1</title>
<ellipse fill="#ffffff" stroke="black" cx="360" cy="-561" rx="27" ry="18"/>
<text text-anchor="middle" x="360" y="-557.3" font-family="Times,serif" font-size="14.00">S1</text>
</g>
<!-- S11 -->
<g id="node8" class="node">
<title>S11</title>
<ellipse fill="#ffffff" stroke="black" cx="584" cy="-474" rx="28.7" ry="18"/>
<text text-anchor="middle" x="584" y="-470.3" font-family="Times,serif" font-size="14.00">S11</text>
</g>
<!-- S1&#45;&gt;S11 -->
<g id="edge20" class="edge">
<title>S1&#45;&gt;S11</title>
<path fill="none" stroke="black" d="M378.39,-547.8C395.91,-536.63 423.35,-520.33 449,-510 481.06,-497.09 519.35,-487.69 546.95,-481.91"/>
<polygon fill="black" stroke="black" points="547.86,-485.29 556.96,-479.87 546.47,-478.43 547.86,-485.29"/>
<text text-anchor="middle" x="457" y="-513.8" font-family="Times,serif" font-size="14.00">t9</text>
</g>
<!-- S20 -->
<g id="node10" class="node">
<title>S20</title>
<ellipse fill="#ffffff" stroke="black" cx="98" cy="-474" rx="28.7" ry="18"/>
<text text-anchor="middle" x="98" y="-470.3" font-family="Times,serif" font-size="14.00">S20</text>
</g>
<!-- S1&#45;&gt;S20 -->
<g id="edge19" class="edge">
<title>S1&#45;&gt;S20</title>
<path fill="none" stroke="black" d="M336.29,-552.31C289.9,-537.26 186.96,-503.86 132.83,-486.3"/>
<polygon fill="black" stroke="black" points="133.59,-482.87 123,-483.11 131.43,-489.52 133.59,-482.87"/>
<text text-anchor="middle" x="257.5" y="-513.8" font-family="Times,serif" font-size="14.00">t10</text>
</g>
<!-- S2 -->
<g id="node14" class="node">
<title>S2</title>
<ellipse fill="#ffffff" stroke="black" cx="287" cy="-474" rx="27" ry="18"/>
<text text-anchor="middle" x="287" y="-470.3" font-family="Times,serif" font-size="14.00">S2</text>
</g>
<!-- S1&#45;&gt;S2 -->
<g id="edge17" class="edge">
<title>S1&#45;&gt;S2</title>
<path fill="none" stroke="black" d="M346.95,-544.8C335.74,-531.75 319.41,-512.74 306.62,-497.85"/>
<polygon fill="black" stroke="black" points="309.11,-495.37 299.94,-490.06 303.8,-499.93 309.11,-495.37"/>
<text text-anchor="middle" x="336" y="-513.8" font-family="Times,serif" font-size="14.00">t7</text>
</g>
<!-- S4 -->
<g id="node15" class="node">
<title>S4</title>
<ellipse fill="#ffffff" stroke="black" cx="346" cy="-300" rx="27" ry="18"/>
<text text-anchor="middle" x="346" y="-296.3" font-family="Times,serif" font-size="14.00">S4</text>
</g>
<!-- S1&#45;&gt;S4 -->
<g id="edge18" class="edge">
<title>S1&#45;&gt;S4</title>
<path fill="none" stroke="black" d="M364.26,-542.95C373.01,-504.85 390.35,-410.34 368,-336 366.85,-332.17 365.15,-328.34 363.21,-324.7"/>
<polygon fill="black" stroke="black" points="366.2,-322.88 358.02,-316.15 360.21,-326.51 366.2,-322.88"/>
<text text-anchor="middle" x="391.5" y="-426.8" font-family="Times,serif" font-size="14.00">t11</text>
</g>
<!-- S28&#45;&gt;S28 -->
<g id="edge23" class="edge">
<title>S28&#45;&gt;S28</title>
<path fill="none" stroke="black" d="M1012.88,-307.78C1024.04,-308.42 1033.6,-305.82 1033.6,-300 1033.6,-296.09 1029.28,-293.63 1023.07,-292.64"/>
<polygon fill="black" stroke="black" points="1023.01,-289.13 1012.88,-292.22 1022.72,-296.12 1023.01,-289.13"/>
<text text-anchor="middle" x="1046.1" y="-296.3" font-family="Times,serif" font-size="14.00">t14</text>
</g>
<!-- S24 -->
<g id="node17" class="node">
<title>S24</title>
<ellipse fill="#ffffff" stroke="black" cx="854" cy="-192" rx="28.7" ry="18"/>
<text text-anchor="middle" x="854" y="-188.3" font-family="Times,serif" font-size="14.00">S24</text>
</g>
<!-- S28&#45;&gt;S24 -->
<g id="edge21" class="edge">
<title>S28&#45;&gt;S24</title>
<path fill="none" stroke="black" d="M979.2,-282.6C970.93,-266.75 956.51,-242.99 938,-228 923.97,-216.64 905.73,-208.44 889.83,-202.86"/>
<polygon fill="black" stroke="black" points="890.88,-199.52 880.29,-199.71 888.69,-206.17 890.88,-199.52"/>
<text text-anchor="middle" x="977" y="-242.3" font-family="Times,serif" font-size="14.00">t7</text>
</g>
<!-- S28&#45;&gt;S14 -->
<g id="edge22" class="edge">
<title>S28&#45;&gt;S14</title>
<path fill="none" stroke="black" d="M991.15,-282.14C1000.63,-239.33 1019.31,-124.82 968,-54 960.39,-43.5 948.66,-35.86 937.18,-30.45"/>
<polygon fill="black" stroke="black" points="938.27,-27.11 927.7,-26.42 935.53,-33.55 938.27,-27.11"/>
<text text-anchor="middle" x="1014.5" y="-144.8" font-family="Times,serif" font-size="14.00">t11</text>
</g>
<!-- S11&#45;&gt;S30 -->
<g id="edge27" class="edge">
<title>S11&#45;&gt;S30</title>
<path fill="none" stroke="black" d="M609.95,-466.13C634.39,-459.49 671.94,-448.88 704,-438 742.38,-424.98 751.68,-420.8 789,-405 790.81,-404.24 792.66,-403.44 794.52,-402.62"/>
<polygon fill="black" stroke="black" points="796.1,-405.75 803.79,-398.47 793.23,-399.36 796.1,-405.75"/>
<text text-anchor="middle" x="758.5" y="-426.8" font-family="Times,serif" font-size="14.00">t16</text>
</g>
<!-- S11&#45;&gt;S11 -->
<g id="edge26" class="edge">
<title>S11&#45;&gt;S11</title>
<path fill="none" stroke="black" d="M609.88,-481.78C621.04,-482.42 630.6,-479.82 630.6,-474 630.6,-470.09 626.28,-467.63 620.07,-466.64"/>
<polygon fill="black" stroke="black" points="620.01,-463.13 609.88,-466.22 619.72,-470.12 620.01,-463.13"/>
<text text-anchor="middle" x="643.1" y="-470.3" font-family="Times,serif" font-size="14.00">t14</text>
</g>
<!-- S11&#45;&gt;S5 -->
<g id="edge24" class="edge">
<title>S11&#45;&gt;S5</title>
<path fill="none" stroke="black" d="M579.12,-456.01C572.84,-435.06 561.06,-398.6 547,-369 539.64,-353.51 539.24,-348.01 527,-336 515.63,-324.84 507.57,-328.96 496,-318 461.28,-285.11 474.33,-257.9 437,-228 420.3,-214.63 397.95,-205.99 379.35,-200.65"/>
<polygon fill="black" stroke="black" points="380.02,-197.21 369.46,-198.01 378.22,-203.97 380.02,-197.21"/>
<text text-anchor="middle" x="551.5" y="-339.8" font-family="Times,serif" font-size="14.00">t11</text>
</g>
<!-- S12 -->
<g id="node21" class="node">
<title>S12</title>
<ellipse fill="#ffffff" stroke="black" cx="708" cy="-387" rx="28.7" ry="18"/>
<text text-anchor="middle" x="708" y="-383.3" font-family="Times,serif" font-size="14.00">S12</text>
</g>
<!-- S11&#45;&gt;S12 -->
<g id="edge25" class="edge">
<title>S11&#45;&gt;S12</title>
<path fill="none" stroke="black" d="M609.96,-466.16C627.79,-460.58 651.33,-451.42 669,-438 678.17,-431.04 686.35,-421.42 692.83,-412.48"/>
<polygon fill="black" stroke="black" points="695.72,-414.45 698.49,-404.22 689.95,-410.49 695.72,-414.45"/>
<text text-anchor="middle" x="692" y="-426.8" font-family="Times,serif" font-size="14.00">t7</text>
</g>
<!-- S26 -->
<g id="node24" class="node">
<title>S26</title>
<ellipse fill="#ffffff" stroke="black" cx="461" cy="-192" rx="28.7" ry="18"/>
<text text-anchor="middle" x="461" y="-188.3" font-family="Times,serif" font-size="14.00">S26</text>
</g>
<!-- S31&#45;&gt;S26 -->
<g id="edge28" class="edge">
<title>S31&#45;&gt;S26</title>
<path fill="none" stroke="black" d="M689.08,-286.05C665,-270.14 621.64,-243.37 581,-228 545.7,-214.64 533.8,-221.95 498,-210 496.09,-209.36 494.14,-208.66 492.2,-207.9"/>
<polygon fill="black" stroke="black" points="493.17,-204.52 482.59,-203.87 490.46,-210.97 493.17,-204.52"/>
<text text-anchor="middle" x="660" y="-242.3" font-family="Times,serif" font-size="14.00">t7</text>
</g>
<!-- S31&#45;&gt;S23 -->
<g id="edge29" class="edge">
<title>S31&#45;&gt;S23</title>
<path fill="none" stroke="black" d="M730.63,-288.82C740.93,-283.02 752.29,-274.75 759,-264 788.2,-217.24 799.95,-190.16 775,-141 745.34,-82.58 717.53,-76.51 656,-54 571.71,-23.17 298.26,-19.31 196.03,-18.96"/>
<polygon fill="black" stroke="black" points="195.85,-15.46 185.84,-18.94 195.83,-22.46 195.85,-15.46"/>
<text text-anchor="middle" x="794.5" y="-144.8" font-family="Times,serif" font-size="14.00">t11</text>
</g>
<!-- S21 -->
<g id="node26" class="node">
<title>S21</title>
<ellipse fill="#ffffff" stroke="black" cx="90" cy="-387" rx="28.7" ry="18"/>
<text text-anchor="middle" x="90" y="-383.3" font-family="Times,serif" font-size="14.00">S21</text>
</g>
<!-- S20&#45;&gt;S21 -->
<g id="edge30" class="edge">
<title>S20&#45;&gt;S21</title>
<path fill="none" stroke="black" d="M93.97,-456C92.79,-450.31 91.65,-443.91 91,-438 90.2,-430.69 89.82,-422.75 89.67,-415.39"/>
<polygon fill="black" stroke="black" points="93.17,-415.15 89.59,-405.17 86.17,-415.2 93.17,-415.15"/>
<text text-anchor="middle" x="99" y="-426.8" font-family="Times,serif" font-size="14.00">t7</text>
</g>
<!-- S29 -->
<g id="node11" class="node">
<title>S29</title>
<ellipse fill="#ffffff" stroke="black" cx="826" cy="-474" rx="28.7" ry="18"/>
<text text-anchor="middle" x="826" y="-470.3" font-family="Times,serif" font-size="14.00">S29</text>
</g>
<!-- S29&#45;&gt;S30 -->
<g id="edge33" class="edge">
<title>S29&#45;&gt;S30</title>
<path fill="none" stroke="black" d="M826,-455.8C826,-444.16 826,-428.55 826,-415.24"/>
<polygon fill="black" stroke="black" points="829.5,-415.18 826,-405.18 822.5,-415.18 829.5,-415.18"/>
<text text-anchor="middle" x="834" y="-426.8" font-family="Times,serif" font-size="14.00">t6</text>
</g>
<!-- S29&#45;&gt;S6 -->
<g id="edge34" class="edge">
<title>S29&#45;&gt;S6</title>
<path fill="none" stroke="black" d="M839.39,-457.98C874.52,-416.71 962.71,-299.93 904,-228 878.76,-197.07 854.52,-220.5 816,-210 768.4,-197.03 757.87,-189.4 711,-174 709.55,-173.52 607.49,-141.36 606,-141 547.28,-126.85 477.8,-116.3 436.39,-110.65"/>
<polygon fill="black" stroke="black" points="436.62,-107.15 426.25,-109.29 435.69,-114.09 436.62,-107.15"/>
<text text-anchor="middle" x="932" y="-296.3" font-family="Times,serif" font-size="14.00">t8</text>
</g>
<!-- S16 -->
<g id="node18" class="node">
<title>S16</title>
<ellipse fill="#ffffff" stroke="black" cx="996" cy="-387" rx="28.7" ry="18"/>
<text text-anchor="middle" x="996" y="-383.3" font-family="Times,serif" font-size="14.00">S16</text>
</g>
<!-- S29&#45;&gt;S16 -->
<g id="edge32" class="edge">
<title>S29&#45;&gt;S16</title>
<path fill="none" stroke="black" d="M853.03,-467.81C876.52,-462.56 910.93,-453.04 938,-438 951.34,-430.59 964.37,-419.78 974.69,-410.1"/>
<polygon fill="black" stroke="black" points="977.28,-412.47 982.02,-403 972.4,-407.45 977.28,-412.47"/>
<text text-anchor="middle" x="967" y="-426.8" font-family="Times,serif" font-size="14.00">t9</text>
</g>
<!-- S32 -->
<g id="node23" class="node">
<title>S32</title>
<ellipse fill="#ffffff" stroke="black" cx="633" cy="-387" rx="28.7" ry="18"/>
<text text-anchor="middle" x="633" y="-383.3" font-family="Times,serif" font-size="14.00">S32</text>
</g>
<!-- S29&#45;&gt;S32 -->
<g id="edge31" class="edge">
<title>S29&#45;&gt;S32</title>
<path fill="none" stroke="black" d="M797.37,-471.59C750.68,-468.66 661.21,-460.23 640,-438 634.21,-431.94 631.77,-423.43 630.99,-415.14"/>
<polygon fill="black" stroke="black" points="634.48,-414.89 630.75,-404.97 627.48,-415.05 634.48,-414.89"/>
<text text-anchor="middle" x="652.5" y="-426.8" font-family="Times,serif" font-size="14.00">t10</text>
</g>
<!-- S17&#45;&gt;S24 -->
<g id="edge36" class="edge">
<title>S17&#45;&gt;S24</title>
<path fill="none" stroke="black" d="M819.41,-282.44C825.96,-265.5 836.23,-238.94 843.88,-219.16"/>
<polygon fill="black" stroke="black" points="847.16,-220.39 847.5,-209.8 840.63,-217.86 847.16,-220.39"/>
<text text-anchor="middle" x="848" y="-242.3" font-family="Times,serif" font-size="14.00">t9</text>
</g>
<!-- S17&#45;&gt;S14 -->
<g id="edge37" class="edge">
<title>S17&#45;&gt;S14</title>
<path fill="none" stroke="black" d="M840.84,-295.58C862.93,-291.53 893.27,-282.76 913,-264 931.78,-246.14 930.02,-235.43 935,-210 945.51,-156.35 947.24,-140.28 935,-87 931.53,-71.92 924.26,-56.3 917.42,-43.84"/>
<polygon fill="black" stroke="black" points="920.35,-41.92 912.34,-34.99 914.28,-45.41 920.35,-41.92"/>
<text text-anchor="middle" x="956.5" y="-144.8" font-family="Times,serif" font-size="14.00">t18</text>
</g>
<!-- S17&#45;&gt;S26 -->
<g id="edge35" class="edge">
<title>S17&#45;&gt;S26</title>
<path fill="none" stroke="black" d="M789.55,-289.62C773.42,-282.95 751.63,-273.53 733,-264 704.97,-249.66 701.9,-237.85 672,-228 598.15,-203.68 572.99,-230.5 498,-210 496.06,-209.47 494.09,-208.84 492.12,-208.16"/>
<polygon fill="black" stroke="black" points="493.05,-204.76 482.47,-204.29 490.45,-211.26 493.05,-204.76"/>
<text text-anchor="middle" x="745.5" y="-242.3" font-family="Times,serif" font-size="14.00">t10</text>
</g>
<!-- S15 -->
<g id="node28" class="node">
<title>S15</title>
<ellipse fill="#ffeeee" stroke="black" cx="536" cy="-192" rx="28.7" ry="18"/>
<text text-anchor="middle" x="536" y="-188.3" font-family="Times,serif" font-size="14.00">S15</text>
</g>
<!-- S17&#45;&gt;S15 -->
<g id="edge38" class="edge">
<title>S17&#45;&gt;S15</title>
<path fill="none" stroke="black" d="M806.04,-282.28C798.07,-265.45 783.3,-240.28 762,-228 726.6,-207.59 618.72,-219.6 579,-210 575.35,-209.12 571.6,-207.99 567.91,-206.74"/>
<polygon fill="black" stroke="black" points="568.97,-203.4 558.38,-203.21 566.54,-209.96 568.97,-203.4"/>
<text text-anchor="middle" x="804" y="-242.3" font-family="Times,serif" font-size="14.00">t3</text>
</g>
<!-- S7&#45;&gt;S1 -->
<g id="edge41" class="edge">
<title>S7&#45;&gt;S1</title>
<path fill="none" stroke="black" d="M392.29,-630.61C386.53,-618.38 378.56,-601.44 371.98,-587.46"/>
<polygon fill="black" stroke="black" points="375.11,-585.9 367.69,-578.34 368.78,-588.88 375.11,-585.9"/>
<text text-anchor="middle" x="391" y="-600.8" font-family="Times,serif" font-size="14.00">t6</text>
</g>
<!-- S7&#45;&gt;S4 -->
<g id="edge42" class="edge">
<title>S7&#45;&gt;S4</title>
<path fill="none" stroke="black" d="M403.46,-630.07C415.83,-568.7 456.2,-360.16 439,-336 424.81,-316.08 409.86,-326.69 387,-318 383.9,-316.82 380.69,-315.56 377.49,-314.28"/>
<polygon fill="black" stroke="black" points="378.61,-310.96 368.03,-310.42 375.97,-317.44 378.61,-310.96"/>
<text text-anchor="middle" x="442" y="-470.3" font-family="Times,serif" font-size="14.00">t8</text>
</g>
<!-- S7&#45;&gt;S10 -->
<g id="edge40" class="edge">
<title>S7&#45;&gt;S10</title>
<path fill="none" stroke="black" d="M421.35,-636.75C452.41,-621.83 510.24,-594.06 546,-576.89"/>
<polygon fill="black" stroke="black" points="547.52,-580.04 555.02,-572.56 544.49,-573.73 547.52,-580.04"/>
<text text-anchor="middle" x="508" y="-600.8" font-family="Times,serif" font-size="14.00">t9</text>
</g>
<!-- S7&#45;&gt;S19 -->
<g id="edge39" class="edge">
<title>S7&#45;&gt;S19</title>
<path fill="none" stroke="black" d="M375.54,-640.12C322.2,-625.1 195.24,-589.37 133.26,-571.92"/>
<polygon fill="black" stroke="black" points="134.11,-568.53 123.54,-569.19 132.22,-575.27 134.11,-568.53"/>
<text text-anchor="middle" x="280.5" y="-600.8" font-family="Times,serif" font-size="14.00">t10</text>
</g>
<!-- S2&#45;&gt;S5 -->
<g id="edge44" class="edge">
<title>S2&#45;&gt;S5</title>
<path fill="none" stroke="black" d="M284.63,-455.91C281.59,-435.17 275.76,-399.22 268,-369 264.29,-354.56 258.16,-350.4 262,-336 274.3,-289.84 305.42,-243.07 325.59,-216.12"/>
<polygon fill="black" stroke="black" points="328.44,-218.16 331.72,-208.09 322.87,-213.92 328.44,-218.16"/>
<text text-anchor="middle" x="274.5" y="-339.8" font-family="Times,serif" font-size="14.00">t18</text>
</g>
<!-- S2&#45;&gt;S12 -->
<g id="edge45" class="edge">
<title>S2&#45;&gt;S12</title>
<path fill="none" stroke="black" d="M301.17,-458.45C313.79,-446.54 333.4,-430.49 354,-423 420.31,-398.88 602.53,-422.03 671,-405 673.17,-404.46 675.38,-403.79 677.57,-403.04"/>
<polygon fill="black" stroke="black" points="678.97,-406.25 686.97,-399.3 676.39,-399.74 678.97,-406.25"/>
<text text-anchor="middle" x="362" y="-426.8" font-family="Times,serif" font-size="14.00">t9</text>
</g>
<!-- S2&#45;&gt;S21 -->
<g id="edge43" class="edge">
<title>S2&#45;&gt;S21</title>
<path fill="none" stroke="black" d="M259.97,-472.35C226.96,-470.4 170.52,-463.27 130,-438 119.99,-431.76 111.41,-422.1 104.79,-412.93"/>
<polygon fill="black" stroke="black" points="107.55,-410.76 99.06,-404.42 101.74,-414.67 107.55,-410.76"/>
<text text-anchor="middle" x="142.5" y="-426.8" font-family="Times,serif" font-size="14.00">t10</text>
</g>
<!-- S3 -->
<g id="node29" class="node">
<title>S3</title>
<ellipse fill="#ffffff" stroke="black" cx="232" cy="-387" rx="27" ry="18"/>
<text text-anchor="middle" x="232" y="-383.3" font-family="Times,serif" font-size="14.00">S3</text>
</g>
<!-- S2&#45;&gt;S3 -->
<g id="edge46" class="edge">
<title>S2&#45;&gt;S3</title>
<path fill="none" stroke="black" d="M273,-458.31C267.64,-452.28 261.69,-445.07 257,-438 252.04,-430.53 247.4,-421.93 243.5,-414"/>
<polygon fill="black" stroke="black" points="246.58,-412.32 239.14,-404.78 240.25,-415.31 246.58,-412.32"/>
<text text-anchor="middle" x="265" y="-426.8" font-family="Times,serif" font-size="14.00">t3</text>
</g>
<!-- S4&#45;&gt;S5 -->
<g id="edge47" class="edge">
<title>S4&#45;&gt;S5</title>
<path fill="none" stroke="black" d="M345.68,-281.97C345.37,-265.38 344.88,-239.88 344.52,-220.43"/>
<polygon fill="black" stroke="black" points="348.02,-220.27 344.33,-210.34 341.02,-220.4 348.02,-220.27"/>
<text text-anchor="middle" x="354" y="-242.3" font-family="Times,serif" font-size="14.00">t9</text>
</g>
<!-- S6&#45;&gt;S14 -->
<g id="edge49" class="edge">
<title>S6&#45;&gt;S14</title>
<path fill="none" stroke="black" d="M425.52,-98.83C472.7,-89.36 576.81,-68.83 665,-54 735.16,-42.2 817.38,-30.55 864.22,-24.11"/>
<polygon fill="black" stroke="black" points="864.78,-27.56 874.21,-22.74 863.83,-20.63 864.78,-27.56"/>
<text text-anchor="middle" x="673" y="-57.8" font-family="Times,serif" font-size="14.00">t9</text>
</g>
<!-- S6&#45;&gt;S23 -->
<g id="edge48" class="edge">
<title>S6&#45;&gt;S23</title>
<path fill="none" stroke="black" d="M376.7,-95.85C333.58,-80.77 241.17,-48.44 191.04,-30.91"/>
<polygon fill="black" stroke="black" points="191.9,-27.5 181.31,-27.5 189.59,-34.11 191.9,-27.5"/>
<text text-anchor="middle" x="306.5" y="-57.8" font-family="Times,serif" font-size="14.00">t10</text>
</g>
<!-- S24&#45;&gt;S24 -->
<g id="edge51" class="edge">
<title>S24&#45;&gt;S24</title>
<path fill="none" stroke="black" d="M879.88,-199.78C891.04,-200.42 900.6,-197.82 900.6,-192 900.6,-188.09 896.28,-185.63 890.07,-184.64"/>
<polygon fill="black" stroke="black" points="890.01,-181.13 879.88,-184.22 889.72,-188.12 890.01,-181.13"/>
<text text-anchor="middle" x="913.1" y="-188.3" font-family="Times,serif" font-size="14.00">t14</text>
</g>
<!-- S25 -->
<g id="node30" class="node">
<title>S25</title>
<ellipse fill="#ffeeee" stroke="black" cx="854" cy="-105" rx="28.7" ry="18"/>
<text text-anchor="middle" x="854" y="-101.3" font-family="Times,serif" font-size="14.00">S25</text>
</g>
<!-- S24&#45;&gt;S25 -->
<g id="edge50" class="edge">
<title>S24&#45;&gt;S25</title>
<path fill="none" stroke="black" d="M854,-173.8C854,-162.16 854,-146.55 854,-133.24"/>
<polygon fill="black" stroke="black" points="857.5,-133.18 854,-123.18 850.5,-133.18 857.5,-133.18"/>
<text text-anchor="middle" x="862" y="-144.8" font-family="Times,serif" font-size="14.00">t3</text>
</g>
<!-- S16&#45;&gt;S28 -->
<g id="edge52" class="edge">
<title>S16&#45;&gt;S28</title>
<path fill="none" stroke="black" d="M994.18,-368.8C992.95,-357.16 991.29,-341.55 989.88,-328.24"/>
<polygon fill="black" stroke="black" points="993.35,-327.75 988.82,-318.18 986.39,-328.49 993.35,-327.75"/>
<text text-anchor="middle" x="1001" y="-339.8" font-family="Times,serif" font-size="14.00">t6</text>
</g>
<!-- S16&#45;&gt;S16 -->
<g id="edge54" class="edge">
<title>S16&#45;&gt;S16</title>
<path fill="none" stroke="black" d="M1021.88,-394.78C1033.04,-395.42 1042.6,-392.82 1042.6,-387 1042.6,-383.09 1038.28,-380.63 1032.07,-379.64"/>
<polygon fill="black" stroke="black" points="1032.01,-376.13 1021.88,-379.22 1031.72,-383.12 1032.01,-376.13"/>
<text text-anchor="middle" x="1055.1" y="-383.3" font-family="Times,serif" font-size="14.00">t14</text>
</g>
<!-- S16&#45;&gt;S14 -->
<g id="edge53" class="edge">
<title>S16&#45;&gt;S14</title>
<path fill="none" stroke="black" d="M1019.43,-376.34C1046.4,-363.47 1087,-337.97 1087,-301 1087,-301 1087,-301 1087,-104 1087,-40.21 995.06,-24.12 940.81,-20.17"/>
<polygon fill="black" stroke="black" points="940.7,-16.66 930.5,-19.54 940.27,-23.65 940.7,-16.66"/>
<text text-anchor="middle" x="1095" y="-188.3" font-family="Times,serif" font-size="14.00">t8</text>
</g>
<!-- S5&#45;&gt;S6 -->
<g id="edge56" class="edge">
<title>S5&#45;&gt;S6</title>
<path fill="none" stroke="black" d="M354.53,-175.01C362.82,-162.43 374.52,-144.68 383.97,-130.33"/>
<polygon fill="black" stroke="black" points="386.94,-132.19 389.51,-121.92 381.09,-128.34 386.94,-132.19"/>
<text text-anchor="middle" x="388.5" y="-144.8" font-family="Times,serif" font-size="14.00">t16</text>
</g>
<!-- S5&#45;&gt;S5 -->
<g id="edge55" class="edge">
<title>S5&#45;&gt;S5</title>
<path fill="none" stroke="black" d="M368.53,-199.75C379.51,-200.49 389,-197.91 389,-192 389,-188.03 384.72,-185.56 378.57,-184.59"/>
<polygon fill="black" stroke="black" points="378.65,-181.09 368.53,-184.25 378.41,-188.09 378.65,-181.09"/>
<text text-anchor="middle" x="401.5" y="-188.3" font-family="Times,serif" font-size="14.00">t14</text>
</g>
<!-- S10&#45;&gt;S11 -->
<g id="edge58" class="edge">
<title>S10&#45;&gt;S11</title>
<path fill="none" stroke="black" d="M578.42,-542.8C579.37,-531.16 580.66,-515.55 581.76,-502.24"/>
<polygon fill="black" stroke="black" points="585.25,-502.43 582.59,-492.18 578.28,-501.85 585.25,-502.43"/>
<text text-anchor="middle" x="589" y="-513.8" font-family="Times,serif" font-size="14.00">t6</text>
</g>
<!-- S10&#45;&gt;S29 -->
<g id="edge60" class="edge">
<title>S10&#45;&gt;S29</title>
<path fill="none" stroke="black" d="M601.79,-551.54C646.53,-536.26 740.87,-504.06 791.75,-486.69"/>
<polygon fill="black" stroke="black" points="792.98,-489.97 801.31,-483.43 790.72,-483.35 792.98,-489.97"/>
<text text-anchor="middle" x="729.5" y="-513.8" font-family="Times,serif" font-size="14.00">t16</text>
</g>
<!-- S10&#45;&gt;S5 -->
<g id="edge57" class="edge">
<title>S10&#45;&gt;S5</title>
<path fill="none" stroke="black" d="M569.14,-543.46C550.91,-505.62 503.61,-410.3 455,-336 425.84,-291.43 386.64,-243.2 363.48,-215.69"/>
<polygon fill="black" stroke="black" points="365.97,-213.22 356.83,-207.85 360.62,-217.74 365.97,-213.22"/>
<text text-anchor="middle" x="505" y="-383.3" font-family="Times,serif" font-size="14.00">t8</text>
</g>
<!-- S10&#45;&gt;S10 -->
<g id="edge59" class="edge">
<title>S10&#45;&gt;S10</title>
<path fill="none" stroke="black" d="M602.88,-568.78C614.04,-569.42 623.6,-566.82 623.6,-561 623.6,-557.09 619.28,-554.63 613.07,-553.64"/>
<polygon fill="black" stroke="black" points="613.01,-550.13 602.88,-553.22 612.72,-557.12 613.01,-550.13"/>
<text text-anchor="middle" x="636.1" y="-557.3" font-family="Times,serif" font-size="14.00">t14</text>
</g>
<!-- S12&#45;&gt;S17 -->
<g id="edge63" class="edge">
<title>S12&#45;&gt;S17</title>
<path fill="none" stroke="black" d="M724.87,-372.34C742.01,-358.46 768.76,-336.81 788.29,-321"/>
<polygon fill="black" stroke="black" points="790.6,-323.64 796.17,-314.62 786.2,-318.19 790.6,-323.64"/>
<text text-anchor="middle" x="779.5" y="-339.8" font-family="Times,serif" font-size="14.00">t16</text>
</g>
<!-- S12&#45;&gt;S12 -->
<g id="edge62" class="edge">
<title>S12&#45;&gt;S12</title>
<path fill="none" stroke="black" d="M733.88,-394.78C745.04,-395.42 754.6,-392.82 754.6,-387 754.6,-383.09 750.28,-380.63 744.07,-379.64"/>
<polygon fill="black" stroke="black" points="744.01,-376.13 733.88,-379.22 743.72,-383.12 744.01,-376.13"/>
<text text-anchor="middle" x="767.1" y="-383.3" font-family="Times,serif" font-size="14.00">t14</text>
</g>
<!-- S13 -->
<g id="node31" class="node">
<title>S13</title>
<ellipse fill="#ffffff" stroke="black" cx="534" cy="-300" rx="28.7" ry="18"/>
<text text-anchor="middle" x="534" y="-296.3" font-family="Times,serif" font-size="14.00">S13</text>
</g>
<!-- S12&#45;&gt;S13 -->
<g id="edge61" class="edge">
<title>S12&#45;&gt;S13</title>
<path fill="none" stroke="black" d="M685.96,-375.23C655.37,-360.29 599.88,-333.18 565.08,-316.18"/>
<polygon fill="black" stroke="black" points="566.38,-312.92 555.86,-311.68 563.31,-319.21 566.38,-312.92"/>
<text text-anchor="middle" x="640" y="-339.8" font-family="Times,serif" font-size="14.00">t3</text>
</g>
<!-- S14&#45;&gt;S14 -->
<g id="edge64" class="edge">
<title>S14&#45;&gt;S14</title>
<path fill="none" stroke="black" d="M927.88,-25.78C939.04,-26.42 948.6,-23.82 948.6,-18 948.6,-14.09 944.28,-11.63 938.07,-10.64"/>
<polygon fill="black" stroke="black" points="938.01,-7.13 927.88,-10.22 937.72,-14.12 938.01,-7.13"/>
<text text-anchor="middle" x="961.1" y="-14.3" font-family="Times,serif" font-size="14.00">t14</text>
</g>
<!-- S32&#45;&gt;S31 -->
<g id="edge65" class="edge">
<title>S32&#45;&gt;S31</title>
<path fill="none" stroke="black" d="M646.41,-370.8C657.93,-357.75 674.7,-338.74 687.84,-323.85"/>
<polygon fill="black" stroke="black" points="690.72,-325.88 694.71,-316.06 685.47,-321.25 690.72,-325.88"/>
<text text-anchor="middle" x="683" y="-339.8" font-family="Times,serif" font-size="14.00">t6</text>
</g>
<!-- S32&#45;&gt;S23 -->
<g id="edge66" class="edge">
<title>S32&#45;&gt;S23</title>
<path fill="none" stroke="black" d="M631.5,-368.64C629.55,-345 626.22,-301.34 625,-264 624.48,-248.01 624.34,-243.99 625,-228 628.22,-150.69 683.66,-110.69 631,-54 601.65,-22.41 304.18,-19.07 196.04,-18.91"/>
<polygon fill="black" stroke="black" points="195.88,-15.41 185.88,-18.91 195.88,-22.41 195.88,-15.41"/>
<text text-anchor="middle" x="644" y="-188.3" font-family="Times,serif" font-size="14.00">t8</text>
</g>
<!-- S27 -->
<g id="node32" class="node">
<title>S27</title>
<ellipse fill="#ffeeee" stroke="black" cx="154" cy="-105" rx="28.7" ry="18"/>
<text text-anchor="middle" x="154" y="-101.3" font-family="Times,serif" font-size="14.00">S27</text>
</g>
<!-- S26&#45;&gt;S27 -->
<g id="edge67" class="edge">
<title>S26&#45;&gt;S27</title>
<path fill="none" stroke="black" d="M439.78,-179.9C434.43,-177.55 428.62,-175.38 423,-174 390.89,-166.12 148.66,-180.07 126,-156 118.22,-147.74 122.93,-136.91 130.55,-127.45"/>
<polygon fill="black" stroke="black" points="133.27,-129.65 137.42,-119.9 128.1,-124.94 133.27,-129.65"/>
<text text-anchor="middle" x="134" y="-144.8" font-family="Times,serif" font-size="14.00">t3</text>
</g>
<!-- S22 -->
<g id="node33" class="node">
<title>S22</title>
<ellipse fill="#ffffff" stroke="black" cx="87" cy="-246" rx="28.7" ry="18"/>
<text text-anchor="middle" x="87" y="-242.3" font-family="Times,serif" font-size="14.00">S22</text>
</g>
<!-- S21&#45;&gt;S22 -->
<g id="edge68" class="edge">
<title>S21&#45;&gt;S22</title>
<path fill="none" stroke="black" d="M89.63,-368.96C89.12,-345.4 88.2,-302.64 87.59,-274.53"/>
<polygon fill="black" stroke="black" points="91.09,-274.11 87.37,-264.18 84.09,-274.26 91.09,-274.11"/>
<text text-anchor="middle" x="98" y="-339.8" font-family="Times,serif" font-size="14.00">t3</text>
</g>
<!-- S19&#45;&gt;S20 -->
<g id="edge69" class="edge">
<title>S19&#45;&gt;S20</title>
<path fill="none" stroke="black" d="M98,-542.8C98,-531.16 98,-515.55 98,-502.24"/>
<polygon fill="black" stroke="black" points="101.5,-502.18 98,-492.18 94.5,-502.18 101.5,-502.18"/>
<text text-anchor="middle" x="106" y="-513.8" font-family="Times,serif" font-size="14.00">t6</text>
</g>
<!-- S15&#45;&gt;S6 -->
<g id="edge70" class="edge">
<title>S15&#45;&gt;S6</title>
<path fill="none" stroke="black" d="M513.74,-180.66C508.89,-178.44 503.78,-176.12 499,-174 480.44,-165.76 474.18,-166.83 457,-156 444.22,-147.94 431.45,-137.06 421.24,-127.51"/>
<polygon fill="black" stroke="black" points="423.61,-124.94 413.98,-120.53 418.76,-129.98 423.61,-124.94"/>
<text text-anchor="middle" x="465" y="-144.8" font-family="Times,serif" font-size="14.00">t1</text>
</g>
<!-- S15&#45;&gt;S6 -->
<g id="edge71" class="edge">
<title>S15&#45;&gt;S6</title>
<path fill="none" stroke="black" d="M520.16,-176.79C507.85,-166.15 490.05,-151.66 473,-141 459.96,-132.84 444.73,-125.26 431.56,-119.26"/>
<polygon fill="black" stroke="black" points="432.96,-116.05 422.4,-115.18 430.11,-122.45 432.96,-116.05"/>
<text text-anchor="middle" x="505.5" y="-144.8" font-family="Times,serif" font-size="14.00">t13</text>
</g>
<!-- S15&#45;&gt;S25 -->
<g id="edge73" class="edge">
<title>S15&#45;&gt;S25</title>
<path fill="none" stroke="black" d="M556.43,-179.27C577.28,-167.8 610.92,-150.69 642,-141 701.06,-122.59 772.56,-113.34 815.6,-109.12"/>
<polygon fill="black" stroke="black" points="816.02,-112.59 825.65,-108.17 815.36,-105.62 816.02,-112.59"/>
<text text-anchor="middle" x="650" y="-144.8" font-family="Times,serif" font-size="14.00">t9</text>
</g>
<!-- S15&#45;&gt;S27 -->
<g id="edge72" class="edge">
<title>S15&#45;&gt;S27</title>
<path fill="none" stroke="black" d="M514.52,-179.74C509.54,-177.53 504.18,-175.44 499,-174 430.49,-154.91 409.87,-169.27 340,-156 286.55,-145.85 225.91,-128.4 188.81,-117.04"/>
<polygon fill="black" stroke="black" points="189.58,-113.61 178.99,-114 187.51,-120.3 189.58,-113.61"/>
<text text-anchor="middle" x="352.5" y="-144.8" font-family="Times,serif" font-size="14.00">t10</text>
</g>
<!-- S3&#45;&gt;S4 -->
<g id="edge74" class="edge">
<title>S3&#45;&gt;S4</title>
<path fill="none" stroke="black" d="M252.58,-375.14C264.22,-368.68 278.84,-359.99 291,-351 302.63,-342.4 314.61,-331.75 324.41,-322.5"/>
<polygon fill="black" stroke="black" points="326.98,-324.89 331.76,-315.43 322.13,-319.84 326.98,-324.89"/>
<text text-anchor="middle" x="317" y="-339.8" font-family="Times,serif" font-size="14.00">t1</text>
</g>
<!-- S3&#45;&gt;S4 -->
<g id="edge75" class="edge">
<title>S3&#45;&gt;S4</title>
<path fill="none" stroke="black" d="M258.44,-382.82C280.12,-378.89 310.19,-370.16 329,-351 335.12,-344.77 339.04,-336.25 341.55,-328.01"/>
<polygon fill="black" stroke="black" points="344.95,-328.82 343.96,-318.27 338.16,-327.13 344.95,-328.82"/>
<text text-anchor="middle" x="351.5" y="-339.8" font-family="Times,serif" font-size="14.00">t13</text>
</g>
<!-- S3&#45;&gt;S6 -->
<g id="edge76" class="edge">
<title>S3&#45;&gt;S6</title>
<path fill="none" stroke="black" d="M226.04,-369.4C211.16,-324.65 178.03,-200.87 243,-141 260.29,-125.07 322.73,-114.96 363.47,-109.9"/>
<polygon fill="black" stroke="black" points="364.05,-113.35 373.57,-108.69 363.22,-106.4 364.05,-113.35"/>
<text text-anchor="middle" x="214" y="-242.3" font-family="Times,serif" font-size="14.00">t2</text>
</g>
<!-- S3&#45;&gt;S6 -->
<g id="edge77" class="edge">
<title>S3&#45;&gt;S6</title>
<path fill="none" stroke="black" d="M233.01,-368.57C235.3,-338.54 242.6,-275.68 265,-228 287.59,-179.91 338.77,-142.35 371.22,-122.24"/>
<polygon fill="black" stroke="black" points="373.08,-125.2 379.84,-117.04 369.47,-119.21 373.08,-125.2"/>
<text text-anchor="middle" x="277.5" y="-242.3" font-family="Times,serif" font-size="14.00">t17</text>
</g>
<!-- S3&#45;&gt;S13 -->
<g id="edge79" class="edge">
<title>S3&#45;&gt;S13</title>
<path fill="none" stroke="black" d="M257.15,-379.85C284.51,-373.09 329.49,-361.75 368,-351 413.58,-338.28 465.79,-322.32 499.29,-311.9"/>
<polygon fill="black" stroke="black" points="500.56,-315.17 509.06,-308.86 498.47,-308.49 500.56,-315.17"/>
<text text-anchor="middle" x="427" y="-339.8" font-family="Times,serif" font-size="14.00">t9</text>
</g>
<!-- S3&#45;&gt;S22 -->
<g id="edge78" class="edge">
<title>S3&#45;&gt;S22</title>
<path fill="none" stroke="black" d="M209.86,-376.66C196.85,-370.52 180.54,-361.67 168,-351 140.88,-327.93 116.81,-294.5 102.1,-271.81"/>
<polygon fill="black" stroke="black" points="104.88,-269.67 96.56,-263.1 98.97,-273.42 104.88,-269.67"/>
<text text-anchor="middle" x="180.5" y="-339.8" font-family="Times,serif" font-size="14.00">t10</text>
</g>
<!-- S25&#45;&gt;S14 -->
<g id="edge80" class="edge">
<title>S25&#45;&gt;S14</title>
<path fill="none" stroke="black" d="M866.69,-88.49C871.2,-82.59 876.12,-75.67 880,-69 884.36,-61.51 888.41,-52.99 891.82,-45.14"/>
<polygon fill="black" stroke="black" points="895.14,-46.25 895.76,-35.67 888.68,-43.55 895.14,-46.25"/>
<text text-anchor="middle" x="896" y="-57.8" font-family="Times,serif" font-size="14.00">t1</text>
</g>
<!-- S25&#45;&gt;S14 -->
<g id="edge81" class="edge">
<title>S25&#45;&gt;S14</title>
<path fill="none" stroke="black" d="M848.71,-86.86C846.59,-76.74 845.73,-64 851,-54 855.24,-45.94 862.27,-39.38 869.78,-34.21"/>
<polygon fill="black" stroke="black" points="871.96,-36.98 878.66,-28.77 868.31,-31.01 871.96,-36.98"/>
<text text-anchor="middle" x="863.5" y="-57.8" font-family="Times,serif" font-size="14.00">t13</text>
</g>
<!-- S25&#45;&gt;S25 -->
<g id="edge82" class="edge">
<title>S25&#45;&gt;S25</title>
<path fill="none" stroke="black" d="M879.88,-112.78C891.04,-113.42 900.6,-110.82 900.6,-105 900.6,-101.09 896.28,-98.63 890.07,-97.64"/>
<polygon fill="black" stroke="black" points="890.01,-94.13 879.88,-97.22 889.72,-101.12 890.01,-94.13"/>
<text text-anchor="middle" x="913.1" y="-101.3" font-family="Times,serif" font-size="14.00">t14</text>
</g>
<!-- S13&#45;&gt;S5 -->
<g id="edge83" class="edge">
<title>S13&#45;&gt;S5</title>
<path fill="none" stroke="black" d="M513.56,-286.94C504.19,-280.8 493.35,-272.79 485,-264 471.93,-250.23 477.17,-239.42 462,-228 448.91,-218.14 409.13,-207.53 379.35,-200.61"/>
<polygon fill="black" stroke="black" points="379.82,-197.13 369.3,-198.32 378.27,-203.95 379.82,-197.13"/>
<text text-anchor="middle" x="493" y="-242.3" font-family="Times,serif" font-size="14.00">t1</text>
</g>
<!-- S13&#45;&gt;S5 -->
<g id="edge84" class="edge">
<title>S13&#45;&gt;S5</title>
<path fill="none" stroke="black" d="M527.14,-282.27C518.89,-262.46 505.55,-231.66 501,-228 499.8,-227.03 425.12,-210.65 379.2,-200.65"/>
<polygon fill="black" stroke="black" points="379.84,-197.2 369.32,-198.5 378.35,-204.04 379.84,-197.2"/>
<text text-anchor="middle" x="532.5" y="-242.3" font-family="Times,serif" font-size="14.00">t13</text>
</g>
<!-- S13&#45;&gt;S14 -->
<g id="edge85" class="edge">
<title>S13&#45;&gt;S14</title>
<path fill="none" stroke="black" d="M553.32,-286.54C562.23,-280.33 572.67,-272.36 581,-264 602.09,-242.85 603.67,-234.32 621,-210 637.88,-186.31 643.24,-181.07 658,-156 683.72,-112.33 668.45,-84.4 709,-54 732.86,-36.11 814.41,-26.32 863.55,-21.92"/>
<polygon fill="black" stroke="black" points="864.14,-25.38 873.8,-21.03 863.54,-18.4 864.14,-25.38"/>
<text text-anchor="middle" x="674" y="-144.8" font-family="Times,serif" font-size="14.00">t2</text>
</g>
<!-- S13&#45;&gt;S14 -->
<g id="edge86" class="edge">
<title>S13&#45;&gt;S14</title>
<path fill="none" stroke="black" d="M557.91,-289.95C573.13,-283.69 592.93,-274.6 609,-264 725.94,-186.89 731.33,-137.21 844,-54 852.8,-47.5 862.86,-41.11 872.1,-35.6"/>
<polygon fill="black" stroke="black" points="874.12,-38.47 881,-30.41 870.6,-32.42 874.12,-38.47"/>
<text text-anchor="middle" x="759.5" y="-144.8" font-family="Times,serif" font-size="14.00">t17</text>
</g>
<!-- S13&#45;&gt;S15 -->
<g id="edge88" class="edge">
<title>S13&#45;&gt;S15</title>
<path fill="none" stroke="black" d="M542.6,-282.71C545.19,-276.96 547.7,-270.35 549,-264 552.22,-248.33 551.83,-243.75 549,-228 548.47,-225.07 547.72,-222.06 546.83,-219.1"/>
<polygon fill="black" stroke="black" points="550.05,-217.69 543.46,-209.39 543.43,-219.99 550.05,-217.69"/>
<text text-anchor="middle" x="564.5" y="-242.3" font-family="Times,serif" font-size="14.00">t16</text>
</g>
<!-- S13&#45;&gt;S13 -->
<g id="edge87" class="edge">
<title>S13&#45;&gt;S13</title>
<path fill="none" stroke="black" d="M559.88,-307.78C571.04,-308.42 580.6,-305.82 580.6,-300 580.6,-296.09 576.28,-293.63 570.07,-292.64"/>
<polygon fill="black" stroke="black" points="570.01,-289.13 559.88,-292.22 569.72,-296.12 570.01,-289.13"/>
<text text-anchor="middle" x="593.1" y="-296.3" font-family="Times,serif" font-size="14.00">t14</text>
</g>
<!-- S27&#45;&gt;S23 -->
<g id="edge89" class="edge">
<title>S27&#45;&gt;S23</title>
<path fill="none" stroke="black" d="M144.07,-87.93C139.26,-78.2 135.08,-65.48 138,-54 138.83,-50.72 140.04,-47.41 141.46,-44.2"/>
<polygon fill="black" stroke="black" points="144.71,-45.53 146.13,-35.03 138.47,-42.36 144.71,-45.53"/>
<text text-anchor="middle" x="146" y="-57.8" font-family="Times,serif" font-size="14.00">t1</text>
</g>
<!-- S27&#45;&gt;S23 -->
<g id="edge90" class="edge">
<title>S27&#45;&gt;S23</title>
<path fill="none" stroke="black" d="M154.61,-86.8C155.02,-75.16 155.57,-59.55 156.04,-46.24"/>
<polygon fill="black" stroke="black" points="159.54,-46.29 156.39,-36.18 152.54,-46.05 159.54,-46.29"/>
<text text-anchor="middle" x="168.5" y="-57.8" font-family="Times,serif" font-size="14.00">t13</text>
</g>
<!-- S22&#45;&gt;S23 -->
<g id="edge91" class="edge">
<title>S22&#45;&gt;S23</title>
<path fill="none" stroke="black" d="M88.06,-227.83C90.34,-198.2 97.15,-135.92 116,-87 121.94,-71.58 131.31,-55.68 139.6,-43.15"/>
<polygon fill="black" stroke="black" points="142.64,-44.9 145.37,-34.66 136.85,-40.96 142.64,-44.9"/>
<text text-anchor="middle" x="109" y="-144.8" font-family="Times,serif" font-size="14.00">t2</text>
</g>
<!-- S22&#45;&gt;S23 -->
<g id="edge92" class="edge">
<title>S22&#45;&gt;S23</title>
<path fill="none" stroke="black" d="M79.75,-228.57C71.62,-207.88 60.61,-171.38 69,-141 80.99,-97.58 93.06,-89.33 121,-54 124.74,-49.27 129.09,-44.54 133.44,-40.16"/>
<polygon fill="black" stroke="black" points="135.92,-42.63 140.67,-33.16 131.05,-37.6 135.92,-42.63"/>
<text text-anchor="middle" x="81.5" y="-144.8" font-family="Times,serif" font-size="14.00">t17</text>
</g>
</g>
</svg>
