<?xml version="1.0" encoding="UTF-8" standalone="no"?>
<!DOCTYPE svg PUBLIC "-//W3C//DTD SVG 1.1//EN"
 "http://www.w3.org/Graphics/SVG/1.1/DTD/svg11.dtd">
<!-- Generated by graphviz version 2.43.0 (0)
 -->
<!-- Title: SCdebug/21 Pages: 1 -->
<svg width="841pt" height="1001pt"
 viewBox="0.00 0.00 841.00 1001.00" xmlns="http://www.w3.org/2000/svg" xmlns:xlink="http://www.w3.org/1999/xlink">
<g id="graph0" class="graph" transform="scale(1 1) rotate(0) translate(4 997)">
<title>SCdebug/21</title>
<polygon fill="white" stroke="transparent" points="-4,4 -4,-997 837,-997 837,4 -4,4"/>
<!-- S11 -->
<g id="node1" class="node">
<title>S11</title>
<ellipse fill="none" stroke="black" cx="654" cy="-714" rx="28.7" ry="18"/>
<text text-anchor="middle" x="654" y="-710.3" font-family="Times,serif" font-size="14.00">S11</text>
</g>
<!-- S28 -->
<g id="node7" class="node">
<title>S28</title>
<ellipse fill="#ffffff" stroke="black" cx="689" cy="-627" rx="28.7" ry="18"/>
<text text-anchor="middle" x="689" y="-623.3" font-family="Times,serif" font-size="14.00">S28</text>
</g>
<!-- S11&#45;&gt;S28 -->
<g id="edge2" class="edge">
<title>S11&#45;&gt;S28</title>
<path fill="none" stroke="black" d="M660.91,-696.21C665.85,-684.22 672.59,-667.85 678.23,-654.16"/>
<polygon fill="black" stroke="black" points="681.53,-655.34 682.1,-644.76 675.06,-652.67 681.53,-655.34"/>
<text text-anchor="middle" x="681" y="-666.8" font-family="Times,serif" font-size="14.00">t7</text>
</g>
<!-- S4 -->
<g id="node16" class="node">
<title>S4</title>
<ellipse fill="#ffffff" stroke="black" cx="548" cy="-279" rx="27" ry="18"/>
<text text-anchor="middle" x="548" y="-275.3" font-family="Times,serif" font-size="14.00">S4</text>
</g>
<!-- S11&#45;&gt;S4 -->
<g id="edge1" class="edge">
<title>S11&#45;&gt;S4</title>
<path fill="none" stroke="black" d="M673.28,-700.69C690.37,-688.67 714.5,-668.76 727,-645 770.75,-561.87 783.72,-523.06 751,-435 722.7,-358.82 630.87,-312.27 580.98,-291.97"/>
<polygon fill="black" stroke="black" points="582.18,-288.68 571.6,-288.26 579.61,-295.19 582.18,-288.68"/>
<text text-anchor="middle" x="780.5" y="-492.8" font-family="Times,serif" font-size="14.00">t12</text>
</g>
<!-- S17 -->
<g id="node2" class="node">
<title>S17</title>
<ellipse fill="#ffeeee" stroke="black" cx="241" cy="-714" rx="28.7" ry="18"/>
<text text-anchor="middle" x="241" y="-710.3" font-family="Times,serif" font-size="14.00">S17</text>
</g>
<!-- S2 -->
<g id="node6" class="node">
<title>S2</title>
<ellipse fill="#ffeeee" stroke="black" cx="250" cy="-453" rx="27" ry="18"/>
<text text-anchor="middle" x="250" y="-449.3" font-family="Times,serif" font-size="14.00">S2</text>
</g>
<!-- S17&#45;&gt;S2 -->
<g id="edge5" class="edge">
<title>S17&#45;&gt;S2</title>
<path fill="none" stroke="black" d="M233.36,-696.44C216.87,-658.18 181.85,-561.35 213,-489 215.46,-483.28 219.38,-478.05 223.75,-473.49"/>
<polygon fill="black" stroke="black" points="226.4,-475.8 231.38,-466.45 221.65,-470.66 226.4,-475.8"/>
<text text-anchor="middle" x="215.5" y="-579.8" font-family="Times,serif" font-size="14.00">t11</text>
</g>
<!-- S22 -->
<g id="node8" class="node">
<title>S22</title>
<ellipse fill="#ffffff" stroke="black" cx="446" cy="-627" rx="28.7" ry="18"/>
<text text-anchor="middle" x="446" y="-623.3" font-family="Times,serif" font-size="14.00">S22</text>
</g>
<!-- S17&#45;&gt;S22 -->
<g id="edge6" class="edge">
<title>S17&#45;&gt;S22</title>
<path fill="none" stroke="black" d="M261.82,-701.34C281.56,-690.56 312.26,-674.51 340,-663 363.07,-653.43 389.79,-644.62 410.62,-638.23"/>
<polygon fill="black" stroke="black" points="411.78,-641.54 420.34,-635.3 409.76,-634.84 411.78,-641.54"/>
<text text-anchor="middle" x="348" y="-666.8" font-family="Times,serif" font-size="14.00">t7</text>
</g>
<!-- S13 -->
<g id="node15" class="node">
<title>S13</title>
<ellipse fill="#ffeeee" stroke="black" cx="151" cy="-279" rx="28.7" ry="18"/>
<text text-anchor="middle" x="151" y="-275.3" font-family="Times,serif" font-size="14.00">S13</text>
</g>
<!-- S17&#45;&gt;S13 -->
<g id="edge3" class="edge">
<title>S17&#45;&gt;S13</title>
<path fill="none" stroke="black" d="M223.83,-699.35C187.17,-668.96 102.09,-591.48 71,-504 44.92,-430.62 100.68,-343.79 131.85,-303.15"/>
<polygon fill="black" stroke="black" points="134.67,-305.23 138.09,-295.2 129.17,-300.91 134.67,-305.23"/>
<text text-anchor="middle" x="83.5" y="-492.8" font-family="Times,serif" font-size="14.00">t12</text>
</g>
<!-- S18 -->
<g id="node17" class="node">
<title>S18</title>
<ellipse fill="#ffffff" stroke="black" cx="610" cy="-627" rx="28.7" ry="18"/>
<text text-anchor="middle" x="610" y="-623.3" font-family="Times,serif" font-size="14.00">S18</text>
</g>
<!-- S17&#45;&gt;S18 -->
<g id="edge4" class="edge">
<title>S17&#45;&gt;S18</title>
<path fill="none" stroke="black" d="M269.71,-711.6C317.32,-708.71 415.28,-700.37 495,-678 511.31,-673.42 550.3,-655.93 578.36,-642.92"/>
<polygon fill="black" stroke="black" points="580.19,-645.93 587.77,-638.53 577.23,-639.58 580.19,-645.93"/>
<text text-anchor="middle" x="539" y="-666.8" font-family="Times,serif" font-size="14.00">t5</text>
</g>
<!-- S25 -->
<g id="node3" class="node">
<title>S25</title>
<ellipse fill="#ffffff" stroke="black" cx="762" cy="-888" rx="28.7" ry="18"/>
<text text-anchor="middle" x="762" y="-884.3" font-family="Times,serif" font-size="14.00">S25</text>
</g>
<!-- S16 -->
<g id="node4" class="node">
<title>S16</title>
<ellipse fill="#ffffff" stroke="black" cx="378" cy="-801" rx="28.7" ry="18"/>
<text text-anchor="middle" x="378" y="-797.3" font-family="Times,serif" font-size="14.00">S16</text>
</g>
<!-- S25&#45;&gt;S16 -->
<g id="edge8" class="edge">
<title>S25&#45;&gt;S16</title>
<path fill="none" stroke="black" d="M733.06,-887.1C679.73,-886.52 562.91,-881.62 470,-852 446.99,-844.67 423.09,-831.48 405.41,-820.49"/>
<polygon fill="black" stroke="black" points="407.09,-817.41 396.78,-814.99 403.33,-823.31 407.09,-817.41"/>
<text text-anchor="middle" x="478" y="-840.8" font-family="Times,serif" font-size="14.00">t3</text>
</g>
<!-- S25&#45;&gt;S28 -->
<g id="edge9" class="edge">
<title>S25&#45;&gt;S28</title>
<path fill="none" stroke="black" d="M760.63,-869.99C756.56,-820.82 744.2,-680.93 734,-663 730.17,-656.26 724.46,-650.36 718.39,-645.43"/>
<polygon fill="black" stroke="black" points="720.16,-642.39 710.03,-639.31 716.03,-648.04 720.16,-642.39"/>
<text text-anchor="middle" x="762.5" y="-753.8" font-family="Times,serif" font-size="14.00">t11</text>
</g>
<!-- S21 -->
<g id="node18" class="node">
<title>S21</title>
<ellipse fill="#ffffff" stroke="black" cx="713" cy="-453" rx="28.7" ry="18"/>
<text text-anchor="middle" x="713" y="-449.3" font-family="Times,serif" font-size="14.00">S21</text>
</g>
<!-- S25&#45;&gt;S21 -->
<g id="edge7" class="edge">
<title>S25&#45;&gt;S21</title>
<path fill="none" stroke="black" d="M767.69,-870.09C769.37,-864.41 771.02,-857.99 772,-852 791.8,-730.94 803.39,-694.31 771,-576 761.32,-540.65 741.85,-503 728.15,-479.03"/>
<polygon fill="black" stroke="black" points="731.09,-477.13 723.03,-470.25 725.04,-480.65 731.09,-477.13"/>
<text text-anchor="middle" x="802.5" y="-666.8" font-family="Times,serif" font-size="14.00">t12</text>
</g>
<!-- S16&#45;&gt;S11 -->
<g id="edge13" class="edge">
<title>S16&#45;&gt;S11</title>
<path fill="none" stroke="black" d="M403.47,-792.16C452.97,-776.91 562.23,-743.26 618.69,-725.87"/>
<polygon fill="black" stroke="black" points="620.06,-729.11 628.59,-722.83 618,-722.42 620.06,-729.11"/>
<text text-anchor="middle" x="540" y="-753.8" font-family="Times,serif" font-size="14.00">t1</text>
</g>
<!-- S16&#45;&gt;S11 -->
<g id="edge15" class="edge">
<title>S16&#45;&gt;S11</title>
<path fill="none" stroke="black" d="M397.15,-787.45C415.41,-776.04 444.05,-759.57 471,-750 519.34,-732.84 578.02,-723.51 615.67,-718.89"/>
<polygon fill="black" stroke="black" points="616.19,-722.36 625.71,-717.71 615.37,-715.4 616.19,-722.36"/>
<text text-anchor="middle" x="483.5" y="-753.8" font-family="Times,serif" font-size="14.00">t13</text>
</g>
<!-- S16&#45;&gt;S17 -->
<g id="edge14" class="edge">
<title>S16&#45;&gt;S17</title>
<path fill="none" stroke="black" d="M350.05,-796.77C314.27,-792 255.28,-781.78 242,-765 236.98,-758.66 235.48,-750.31 235.61,-742.25"/>
<polygon fill="black" stroke="black" points="239.12,-742.31 236.55,-732.03 232.15,-741.67 239.12,-742.31"/>
<text text-anchor="middle" x="250" y="-753.8" font-family="Times,serif" font-size="14.00">t2</text>
</g>
<!-- S16&#45;&gt;S17 -->
<g id="edge16" class="edge">
<title>S16&#45;&gt;S17</title>
<path fill="none" stroke="black" d="M351.01,-794.49C330.43,-789.33 302.11,-780.11 281,-765 271.55,-758.23 263.14,-748.65 256.51,-739.68"/>
<polygon fill="black" stroke="black" points="259.31,-737.58 250.71,-731.39 253.57,-741.59 259.31,-737.58"/>
<text text-anchor="middle" x="293.5" y="-753.8" font-family="Times,serif" font-size="14.00">t17</text>
</g>
<!-- S1 -->
<g id="node11" class="node">
<title>S1</title>
<ellipse fill="#ffffff" stroke="black" cx="268" cy="-540" rx="27" ry="18"/>
<text text-anchor="middle" x="268" y="-536.3" font-family="Times,serif" font-size="14.00">S1</text>
</g>
<!-- S16&#45;&gt;S1 -->
<g id="edge11" class="edge">
<title>S16&#45;&gt;S1</title>
<path fill="none" stroke="black" d="M359.2,-787.34C350.89,-781.2 341.36,-773.34 334,-765 304.04,-731.05 295.28,-720.97 281,-678 268.89,-641.57 266.86,-596.9 267.03,-568.69"/>
<polygon fill="black" stroke="black" points="270.53,-568.43 267.19,-558.38 263.53,-568.32 270.53,-568.43"/>
<text text-anchor="middle" x="293.5" y="-666.8" font-family="Times,serif" font-size="14.00">t11</text>
</g>
<!-- S24 -->
<g id="node13" class="node">
<title>S24</title>
<ellipse fill="#ffffff" stroke="black" cx="485" cy="-714" rx="28.7" ry="18"/>
<text text-anchor="middle" x="485" y="-710.3" font-family="Times,serif" font-size="14.00">S24</text>
</g>
<!-- S16&#45;&gt;S24 -->
<g id="edge12" class="edge">
<title>S16&#45;&gt;S24</title>
<path fill="none" stroke="black" d="M373.76,-783.13C372.14,-772.62 372.09,-759.36 379,-750 394.44,-729.08 422.81,-720.48 446.31,-717.02"/>
<polygon fill="black" stroke="black" points="446.86,-720.48 456.37,-715.81 446.02,-713.53 446.86,-720.48"/>
<text text-anchor="middle" x="387" y="-753.8" font-family="Times,serif" font-size="14.00">t7</text>
</g>
<!-- S15 -->
<g id="node19" class="node">
<title>S15</title>
<ellipse fill="#ffffff" stroke="black" cx="345" cy="-366" rx="28.7" ry="18"/>
<text text-anchor="middle" x="345" y="-362.3" font-family="Times,serif" font-size="14.00">S15</text>
</g>
<!-- S16&#45;&gt;S15 -->
<g id="edge10" class="edge">
<title>S16&#45;&gt;S15</title>
<path fill="none" stroke="black" d="M373.38,-783.04C372.03,-777.35 370.72,-770.94 370,-765 360.67,-688.22 367.67,-668.34 367,-591 366.94,-584.33 363.18,-581.47 367,-576 380.28,-556.98 401.69,-576.26 416,-558 434.99,-533.77 439.05,-514.63 422,-489 410.52,-471.75 397.13,-481.03 379,-471 354.73,-457.56 352.16,-448.65 328,-435 310.67,-425.21 297.88,-433.66 287,-417 277.28,-402.12 293.53,-389.14 311.28,-380.14"/>
<polygon fill="black" stroke="black" points="312.98,-383.21 320.57,-375.81 310.02,-376.87 312.98,-383.21"/>
<text text-anchor="middle" x="379.5" y="-579.8" font-family="Times,serif" font-size="14.00">t12</text>
</g>
<!-- S12 -->
<g id="node5" class="node">
<title>S12</title>
<ellipse fill="#ffffff" stroke="black" cx="580" cy="-801" rx="28.7" ry="18"/>
<text text-anchor="middle" x="580" y="-797.3" font-family="Times,serif" font-size="14.00">S12</text>
</g>
<!-- S12&#45;&gt;S11 -->
<g id="edge18" class="edge">
<title>S12&#45;&gt;S11</title>
<path fill="none" stroke="black" d="M605.9,-792.92C620.31,-787.61 637.24,-778.83 647,-765 651.64,-758.43 653.85,-750.14 654.78,-742.21"/>
<polygon fill="black" stroke="black" points="658.28,-742.36 655.36,-732.17 651.29,-741.95 658.28,-742.36"/>
<text text-anchor="middle" x="661" y="-753.8" font-family="Times,serif" font-size="14.00">t6</text>
</g>
<!-- S3 -->
<g id="node24" class="node">
<title>S3</title>
<ellipse fill="#ffffff" stroke="black" cx="541" cy="-366" rx="27" ry="18"/>
<text text-anchor="middle" x="541" y="-362.3" font-family="Times,serif" font-size="14.00">S3</text>
</g>
<!-- S12&#45;&gt;S3 -->
<g id="edge17" class="edge">
<title>S12&#45;&gt;S3</title>
<path fill="none" stroke="black" d="M582.53,-782.98C586.49,-761.01 595.9,-722.48 616,-696 624.5,-684.8 635.48,-690.45 642,-678 645.09,-672.09 646.09,-668.27 642,-663 622.32,-637.61 592.96,-669.34 572,-645 501.16,-562.72 561.74,-509.57 547,-402 546.65,-399.43 546.25,-396.77 545.83,-394.1"/>
<polygon fill="black" stroke="black" points="549.25,-393.34 544.16,-384.05 542.35,-394.49 549.25,-393.34"/>
<text text-anchor="middle" x="552.5" y="-579.8" font-family="Times,serif" font-size="14.00">t12</text>
</g>
<!-- S7 -->
<g id="node22" class="node">
<title>S7</title>
<ellipse fill="#ffeeee" stroke="black" cx="191" cy="-18" rx="27" ry="18"/>
<text text-anchor="middle" x="191" y="-14.3" font-family="Times,serif" font-size="14.00">S7</text>
</g>
<!-- S2&#45;&gt;S7 -->
<g id="edge19" class="edge">
<title>S2&#45;&gt;S7</title>
<path fill="none" stroke="black" d="M222.81,-450.78C170.24,-447.94 57.08,-439.34 26,-417 5.66,-402.38 0,-392.05 0,-367 0,-367 0,-367 0,-104 0,-37.34 98.31,-22.58 153.87,-19.56"/>
<polygon fill="black" stroke="black" points="154.2,-23.05 164.04,-19.11 153.9,-16.05 154.2,-23.05"/>
<text text-anchor="middle" x="12.5" y="-231.8" font-family="Times,serif" font-size="14.00">t12</text>
</g>
<!-- S2&#45;&gt;S3 -->
<g id="edge20" class="edge">
<title>S2&#45;&gt;S3</title>
<path fill="none" stroke="black" d="M274.15,-444.56C306.42,-434.67 365.42,-416.7 416,-402 446.62,-393.1 481.58,-383.35 506.73,-376.4"/>
<polygon fill="black" stroke="black" points="507.82,-379.73 516.53,-373.7 505.96,-372.98 507.82,-379.73"/>
<text text-anchor="middle" x="424" y="-405.8" font-family="Times,serif" font-size="14.00">t5</text>
</g>
<!-- S28&#45;&gt;S1 -->
<g id="edge22" class="edge">
<title>S28&#45;&gt;S1</title>
<path fill="none" stroke="black" d="M666.87,-615.34C660.87,-612.86 654.29,-610.51 648,-609 548.3,-585.07 514.72,-625.03 418,-591 406.84,-587.07 406.74,-580.96 396,-576 379.53,-568.39 334.9,-556.9 302.98,-549.18"/>
<polygon fill="black" stroke="black" points="303.65,-545.75 293.11,-546.82 302.02,-552.55 303.65,-545.75"/>
<text text-anchor="middle" x="426" y="-579.8" font-family="Times,serif" font-size="14.00">t3</text>
</g>
<!-- S5 -->
<g id="node23" class="node">
<title>S5</title>
<ellipse fill="#ffffff" stroke="black" cx="548" cy="-192" rx="27" ry="18"/>
<text text-anchor="middle" x="548" y="-188.3" font-family="Times,serif" font-size="14.00">S5</text>
</g>
<!-- S28&#45;&gt;S5 -->
<g id="edge21" class="edge">
<title>S28&#45;&gt;S5</title>
<path fill="none" stroke="black" d="M700.41,-610.2C730.19,-568.33 808,-454.73 808,-410.5 808,-410.5 808,-410.5 808,-278 808,-231.49 655.8,-206.39 584.3,-197.17"/>
<polygon fill="black" stroke="black" points="584.72,-193.69 574.36,-195.92 583.85,-200.64 584.72,-193.69"/>
<text text-anchor="middle" x="820.5" y="-405.8" font-family="Times,serif" font-size="14.00">t12</text>
</g>
<!-- S23 -->
<g id="node12" class="node">
<title>S23</title>
<ellipse fill="#ffeeee" stroke="black" cx="378" cy="-540" rx="28.7" ry="18"/>
<text text-anchor="middle" x="378" y="-536.3" font-family="Times,serif" font-size="14.00">S23</text>
</g>
<!-- S22&#45;&gt;S23 -->
<g id="edge25" class="edge">
<title>S22&#45;&gt;S23</title>
<path fill="none" stroke="black" d="M446.8,-608.91C446.48,-598.57 444.56,-585.57 438,-576 431.53,-566.56 421.61,-559.3 411.68,-553.91"/>
<polygon fill="black" stroke="black" points="413.18,-550.75 402.66,-549.48 410.09,-557.03 413.18,-550.75"/>
<text text-anchor="middle" x="453" y="-579.8" font-family="Times,serif" font-size="14.00">t3</text>
</g>
<!-- S8 -->
<g id="node21" class="node">
<title>S8</title>
<ellipse fill="#ffffff" stroke="black" cx="159" cy="-192" rx="27" ry="18"/>
<text text-anchor="middle" x="159" y="-188.3" font-family="Times,serif" font-size="14.00">S8</text>
</g>
<!-- S22&#45;&gt;S8 -->
<g id="edge23" class="edge">
<title>S22&#45;&gt;S8</title>
<path fill="none" stroke="black" d="M428.23,-612.77C410.08,-599.52 382.94,-580.47 371,-576 312.66,-554.15 283.29,-593.35 232,-558 192.04,-530.46 152.15,-485.21 113,-297 109.74,-281.34 108.31,-276.3 113,-261 118.12,-244.28 128.9,-227.97 138.74,-215.51"/>
<polygon fill="black" stroke="black" points="141.65,-217.49 145.32,-207.55 136.25,-213.03 141.65,-217.49"/>
<text text-anchor="middle" x="156.5" y="-405.8" font-family="Times,serif" font-size="14.00">t12</text>
</g>
<!-- S19 -->
<g id="node25" class="node">
<title>S19</title>
<ellipse fill="#ffffff" stroke="black" cx="669" cy="-540" rx="28.7" ry="18"/>
<text text-anchor="middle" x="669" y="-536.3" font-family="Times,serif" font-size="14.00">S19</text>
</g>
<!-- S22&#45;&gt;S19 -->
<g id="edge24" class="edge">
<title>S22&#45;&gt;S19</title>
<path fill="none" stroke="black" d="M473.27,-621.23C501.23,-615.83 545.65,-605.81 582,-591 602.83,-582.52 624.77,-569.88 641.41,-559.43"/>
<polygon fill="black" stroke="black" points="643.53,-562.22 650.07,-553.89 639.76,-556.33 643.53,-562.22"/>
<text text-anchor="middle" x="619" y="-579.8" font-family="Times,serif" font-size="14.00">t5</text>
</g>
<!-- S26 -->
<g id="node9" class="node">
<title>S26</title>
<ellipse fill="#ffffff" stroke="black" cx="99" cy="-801" rx="28.7" ry="18"/>
<text text-anchor="middle" x="99" y="-797.3" font-family="Times,serif" font-size="14.00">S26</text>
</g>
<!-- S26&#45;&gt;S17 -->
<g id="edge28" class="edge">
<title>S26&#45;&gt;S17</title>
<path fill="none" stroke="black" d="M119.04,-788C143.36,-773.45 184.52,-748.81 212.22,-732.22"/>
<polygon fill="black" stroke="black" points="214.28,-735.08 221.06,-726.94 210.68,-729.07 214.28,-735.08"/>
<text text-anchor="middle" x="187" y="-753.8" font-family="Times,serif" font-size="14.00">t6</text>
</g>
<!-- S26&#45;&gt;S2 -->
<g id="edge27" class="edge">
<title>S26&#45;&gt;S2</title>
<path fill="none" stroke="black" d="M99,-782.74C99,-765.57 99,-738.46 99,-715 99,-715 99,-715 99,-582.5 99,-521.22 172.03,-483.02 216.51,-465.44"/>
<polygon fill="black" stroke="black" points="217.97,-468.63 226.07,-461.81 215.48,-462.09 217.97,-468.63"/>
<text text-anchor="middle" x="107" y="-623.3" font-family="Times,serif" font-size="14.00">t8</text>
</g>
<!-- S14 -->
<g id="node20" class="node">
<title>S14</title>
<ellipse fill="#ffffff" stroke="black" cx="197" cy="-366" rx="28.7" ry="18"/>
<text text-anchor="middle" x="197" y="-362.3" font-family="Times,serif" font-size="14.00">S14</text>
</g>
<!-- S26&#45;&gt;S14 -->
<g id="edge26" class="edge">
<title>S26&#45;&gt;S14</title>
<path fill="none" stroke="black" d="M92.62,-783.22C79.25,-746.07 50.3,-653.95 60,-576 62.46,-556.21 90.71,-416.87 104,-402 118.13,-386.19 140.13,-377.49 159.18,-372.72"/>
<polygon fill="black" stroke="black" points="160.11,-376.1 169.11,-370.51 158.59,-369.27 160.11,-376.1"/>
<text text-anchor="middle" x="72.5" y="-579.8" font-family="Times,serif" font-size="14.00">t12</text>
</g>
<!-- S0 -->
<g id="node10" class="node">
<title>S0</title>
<ellipse fill="#ffffff" stroke="black" cx="733" cy="-975" rx="27" ry="18"/>
<text text-anchor="middle" x="733" y="-971.3" font-family="Times,serif" font-size="14.00">S0</text>
</g>
<!-- S0&#45;&gt;S25 -->
<g id="edge32" class="edge">
<title>S0&#45;&gt;S25</title>
<path fill="none" stroke="black" d="M738.73,-957.21C742.78,-945.33 748.3,-929.17 752.94,-915.56"/>
<polygon fill="black" stroke="black" points="756.37,-916.35 756.28,-905.76 749.74,-914.09 756.37,-916.35"/>
<text text-anchor="middle" x="757" y="-927.8" font-family="Times,serif" font-size="14.00">t6</text>
</g>
<!-- S0&#45;&gt;S28 -->
<g id="edge31" class="edge">
<title>S0&#45;&gt;S28</title>
<path fill="none" stroke="black" d="M730.71,-956.96C728.88,-943.21 726.24,-923.36 724,-906 712.13,-814.08 698.54,-705.01 692.37,-655.22"/>
<polygon fill="black" stroke="black" points="695.84,-654.74 691.13,-645.25 688.89,-655.6 695.84,-654.74"/>
<text text-anchor="middle" x="720" y="-797.3" font-family="Times,serif" font-size="14.00">t8</text>
</g>
<!-- S27 -->
<g id="node14" class="node">
<title>S27</title>
<ellipse fill="#ffffff" stroke="black" cx="418" cy="-888" rx="28.7" ry="18"/>
<text text-anchor="middle" x="418" y="-884.3" font-family="Times,serif" font-size="14.00">S27</text>
</g>
<!-- S0&#45;&gt;S27 -->
<g id="edge30" class="edge">
<title>S0&#45;&gt;S27</title>
<path fill="none" stroke="black" d="M708.28,-967.33C652.8,-952.36 518.18,-916.03 453.65,-898.62"/>
<polygon fill="black" stroke="black" points="454.49,-895.22 443.92,-895.99 452.66,-901.98 454.49,-895.22"/>
<text text-anchor="middle" x="602" y="-927.8" font-family="Times,serif" font-size="14.00">t3</text>
</g>
<!-- S0&#45;&gt;S19 -->
<g id="edge29" class="edge">
<title>S0&#45;&gt;S19</title>
<path fill="none" stroke="black" d="M751.64,-961.75C767.97,-949.77 790.54,-929.88 800,-906 805.89,-891.12 801.38,-885.94 800,-870 789.58,-750 790.41,-711.41 727,-609 716.72,-592.39 702.52,-575.68 690.75,-562.98"/>
<polygon fill="black" stroke="black" points="693.21,-560.48 683.79,-555.62 688.12,-565.29 693.21,-560.48"/>
<text text-anchor="middle" x="801.5" y="-753.8" font-family="Times,serif" font-size="14.00">t12</text>
</g>
<!-- S1&#45;&gt;S2 -->
<g id="edge33" class="edge">
<title>S1&#45;&gt;S2</title>
<path fill="none" stroke="black" d="M246.07,-529.31C235.87,-523.54 224.74,-515.15 219,-504 213.87,-494.03 218.84,-483.41 226.2,-474.53"/>
<polygon fill="black" stroke="black" points="228.76,-476.92 233.08,-467.24 223.67,-472.11 228.76,-476.92"/>
<text text-anchor="middle" x="227" y="-492.8" font-family="Times,serif" font-size="14.00">t2</text>
</g>
<!-- S1&#45;&gt;S2 -->
<g id="edge34" class="edge">
<title>S1&#45;&gt;S2</title>
<path fill="none" stroke="black" d="M262.7,-522.01C261.05,-516.33 259.31,-509.92 258,-504 256.37,-496.65 254.93,-488.62 253.75,-481.19"/>
<polygon fill="black" stroke="black" points="257.19,-480.58 252.24,-471.22 250.27,-481.63 257.19,-480.58"/>
<text text-anchor="middle" x="270.5" y="-492.8" font-family="Times,serif" font-size="14.00">t17</text>
</g>
<!-- S6 -->
<g id="node28" class="node">
<title>S6</title>
<ellipse fill="#ffffff" stroke="black" cx="329" cy="-105" rx="27" ry="18"/>
<text text-anchor="middle" x="329" y="-101.3" font-family="Times,serif" font-size="14.00">S6</text>
</g>
<!-- S1&#45;&gt;S6 -->
<g id="edge35" class="edge">
<title>S1&#45;&gt;S6</title>
<path fill="none" stroke="black" d="M244.88,-530.63C233.08,-525.04 219.81,-516.4 213,-504 207.99,-494.87 197.42,-481.91 214,-435 217.38,-425.44 223.67,-426.16 228,-417 247.85,-374.98 237.16,-359.36 251,-315 261.27,-282.07 267.74,-275.25 280,-243 294.48,-204.89 310.18,-160.39 319.8,-132.69"/>
<polygon fill="black" stroke="black" points="323.21,-133.55 323.18,-122.95 316.6,-131.25 323.21,-133.55"/>
<text text-anchor="middle" x="263.5" y="-318.8" font-family="Times,serif" font-size="14.00">t12</text>
</g>
<!-- S23&#45;&gt;S2 -->
<g id="edge36" class="edge">
<title>S23&#45;&gt;S2</title>
<path fill="none" stroke="black" d="M366.2,-523.41C357.43,-512.64 344.65,-498.58 331,-489 316.6,-478.89 298.82,-470.81 283.59,-464.97"/>
<polygon fill="black" stroke="black" points="284.6,-461.61 274.01,-461.46 282.19,-468.18 284.6,-461.61"/>
<text text-anchor="middle" x="357" y="-492.8" font-family="Times,serif" font-size="14.00">t1</text>
</g>
<!-- S23&#45;&gt;S2 -->
<g id="edge37" class="edge">
<title>S23&#45;&gt;S2</title>
<path fill="none" stroke="black" d="M353.63,-530.2C338.15,-524.05 318.08,-514.97 302,-504 290.52,-496.17 279.23,-485.74 270.11,-476.43"/>
<polygon fill="black" stroke="black" points="272.44,-473.79 263.01,-468.95 267.36,-478.61 272.44,-473.79"/>
<text text-anchor="middle" x="314.5" y="-492.8" font-family="Times,serif" font-size="14.00">t13</text>
</g>
<!-- S9 -->
<g id="node27" class="node">
<title>S9</title>
<ellipse fill="#ffeeee" stroke="black" cx="159" cy="-105" rx="27" ry="18"/>
<text text-anchor="middle" x="159" y="-101.3" font-family="Times,serif" font-size="14.00">S9</text>
</g>
<!-- S23&#45;&gt;S9 -->
<g id="edge39" class="edge">
<title>S23&#45;&gt;S9</title>
<path fill="none" stroke="black" d="M378.78,-521.61C378.38,-511.15 376.21,-498.14 369,-489 356.68,-473.37 344.85,-481.59 328,-471 307.18,-457.92 308.62,-444.64 286,-435 181.65,-390.53 40,-480.43 40,-367 40,-367 40,-367 40,-191 40,-149.41 88.74,-126.24 123.83,-114.95"/>
<polygon fill="black" stroke="black" points="125.2,-118.19 133.76,-111.94 123.18,-111.49 125.2,-118.19"/>
<text text-anchor="middle" x="52.5" y="-318.8" font-family="Times,serif" font-size="14.00">t12</text>
</g>
<!-- S20 -->
<g id="node29" class="node">
<title>S20</title>
<ellipse fill="#ffffff" stroke="black" cx="417" cy="-453" rx="28.7" ry="18"/>
<text text-anchor="middle" x="417" y="-449.3" font-family="Times,serif" font-size="14.00">S20</text>
</g>
<!-- S23&#45;&gt;S20 -->
<g id="edge38" class="edge">
<title>S23&#45;&gt;S20</title>
<path fill="none" stroke="black" d="M386.08,-522.68C388.95,-516.81 392.16,-510.13 395,-504 398.58,-496.25 402.37,-487.77 405.77,-480.03"/>
<polygon fill="black" stroke="black" points="409.03,-481.3 409.82,-470.74 402.62,-478.5 409.03,-481.3"/>
<text text-anchor="middle" x="410" y="-492.8" font-family="Times,serif" font-size="14.00">t5</text>
</g>
<!-- S24&#45;&gt;S28 -->
<g id="edge40" class="edge">
<title>S24&#45;&gt;S28</title>
<path fill="none" stroke="black" d="M511.41,-707.08C535.75,-701.19 572.59,-691.13 603,-678 623.47,-669.16 645.16,-656.53 661.64,-646.17"/>
<polygon fill="black" stroke="black" points="663.68,-649.02 670.22,-640.68 659.91,-643.12 663.68,-649.02"/>
<text text-anchor="middle" x="640" y="-666.8" font-family="Times,serif" font-size="14.00">t1</text>
</g>
<!-- S24&#45;&gt;S28 -->
<g id="edge42" class="edge">
<title>S24&#45;&gt;S28</title>
<path fill="none" stroke="black" d="M508.02,-702.94C522,-696.49 539.98,-687.54 555,-678 564.08,-672.23 564.33,-667.71 574,-663 604.43,-648.17 615.83,-655.51 648,-645 650.91,-644.05 653.9,-642.98 656.88,-641.86"/>
<polygon fill="black" stroke="black" points="658.23,-645.09 666.25,-638.16 655.66,-638.58 658.23,-645.09"/>
<text text-anchor="middle" x="586.5" y="-666.8" font-family="Times,serif" font-size="14.00">t13</text>
</g>
<!-- S24&#45;&gt;S22 -->
<g id="edge41" class="edge">
<title>S24&#45;&gt;S22</title>
<path fill="none" stroke="black" d="M460.36,-704.81C448,-699.31 434.17,-690.7 427,-678 422.44,-669.92 424.33,-660.54 428.33,-652.1"/>
<polygon fill="black" stroke="black" points="431.37,-653.83 433.3,-643.41 425.3,-650.35 431.37,-653.83"/>
<text text-anchor="middle" x="435" y="-666.8" font-family="Times,serif" font-size="14.00">t2</text>
</g>
<!-- S24&#45;&gt;S22 -->
<g id="edge43" class="edge">
<title>S24&#45;&gt;S22</title>
<path fill="none" stroke="black" d="M475.71,-696.82C472.48,-690.97 468.94,-684.26 466,-678 462.42,-670.38 458.89,-661.94 455.81,-654.2"/>
<polygon fill="black" stroke="black" points="459.07,-652.93 452.19,-644.88 452.55,-655.46 459.07,-652.93"/>
<text text-anchor="middle" x="478.5" y="-666.8" font-family="Times,serif" font-size="14.00">t17</text>
</g>
<!-- S10 -->
<g id="node26" class="node">
<title>S10</title>
<ellipse fill="#ffffff" stroke="black" cx="389" cy="-279" rx="28.7" ry="18"/>
<text text-anchor="middle" x="389" y="-275.3" font-family="Times,serif" font-size="14.00">S10</text>
</g>
<!-- S24&#45;&gt;S10 -->
<g id="edge44" class="edge">
<title>S24&#45;&gt;S10</title>
<path fill="none" stroke="black" d="M488.73,-696.03C496.19,-662.54 513.8,-585.7 532,-522 549.72,-459.97 566.87,-447.71 577,-384 579.51,-368.2 585.93,-361.28 577,-348 555.31,-315.74 532.5,-328.38 496,-315 495.55,-314.83 454.71,-301.48 423.62,-291.32"/>
<polygon fill="black" stroke="black" points="424.53,-287.93 413.94,-288.15 422.35,-294.59 424.53,-287.93"/>
<text text-anchor="middle" x="554.5" y="-492.8" font-family="Times,serif" font-size="14.00">t12</text>
</g>
<!-- S27&#45;&gt;S16 -->
<g id="edge51" class="edge">
<title>S27&#45;&gt;S16</title>
<path fill="none" stroke="black" d="M401.82,-873.13C395.93,-867.21 389.79,-859.86 386,-852 382.64,-845.03 380.64,-836.95 379.47,-829.34"/>
<polygon fill="black" stroke="black" points="382.95,-828.94 378.33,-819.4 375.99,-829.73 382.95,-828.94"/>
<text text-anchor="middle" x="394" y="-840.8" font-family="Times,serif" font-size="14.00">t6</text>
</g>
<!-- S27&#45;&gt;S12 -->
<g id="edge46" class="edge">
<title>S27&#45;&gt;S12</title>
<path fill="none" stroke="black" d="M439.18,-875.89C467.44,-861.06 517.64,-834.72 549.84,-817.82"/>
<polygon fill="black" stroke="black" points="551.59,-820.86 558.82,-813.11 548.33,-814.66 551.59,-820.86"/>
<text text-anchor="middle" x="516" y="-840.8" font-family="Times,serif" font-size="14.00">t1</text>
</g>
<!-- S27&#45;&gt;S12 -->
<g id="edge48" class="edge">
<title>S27&#45;&gt;S12</title>
<path fill="none" stroke="black" d="M445.21,-881.98C468.4,-876.87 502,-867.48 528,-852 539.94,-844.89 551.3,-834.56 560.33,-825.12"/>
<polygon fill="black" stroke="black" points="563.15,-827.23 567.34,-817.5 557.99,-822.5 563.15,-827.23"/>
<text text-anchor="middle" x="559.5" y="-840.8" font-family="Times,serif" font-size="14.00">t13</text>
</g>
<!-- S27&#45;&gt;S26 -->
<g id="edge47" class="edge">
<title>S27&#45;&gt;S26</title>
<path fill="none" stroke="black" d="M389.44,-886.11C327.19,-883.76 181.49,-875.79 139,-852 128.45,-846.1 119.65,-836.19 113.01,-826.74"/>
<polygon fill="black" stroke="black" points="115.93,-824.8 107.54,-818.33 110.06,-828.62 115.93,-824.8"/>
<text text-anchor="middle" x="147" y="-840.8" font-family="Times,serif" font-size="14.00">t2</text>
</g>
<!-- S27&#45;&gt;S26 -->
<g id="edge49" class="edge">
<title>S27&#45;&gt;S26</title>
<path fill="none" stroke="black" d="M389.54,-886.07C313.97,-883.29 112.67,-873.9 93,-852 87.21,-845.55 86.8,-836.59 88.48,-828.04"/>
<polygon fill="black" stroke="black" points="91.87,-828.93 91.21,-818.35 85.13,-827.03 91.87,-828.93"/>
<text text-anchor="middle" x="105.5" y="-840.8" font-family="Times,serif" font-size="14.00">t17</text>
</g>
<!-- S27&#45;&gt;S1 -->
<g id="edge45" class="edge">
<title>S27&#45;&gt;S1</title>
<path fill="none" stroke="black" d="M390.68,-882.25C339.24,-871.66 229.07,-840.82 183,-765 166.59,-737.99 181,-600.89 198,-576 206.33,-563.81 220.19,-555.67 233.39,-550.32"/>
<polygon fill="black" stroke="black" points="234.59,-553.61 242.8,-546.91 232.21,-547.03 234.59,-553.61"/>
<text text-anchor="middle" x="185" y="-710.3" font-family="Times,serif" font-size="14.00">t8</text>
</g>
<!-- S27&#45;&gt;S20 -->
<g id="edge50" class="edge">
<title>S27&#45;&gt;S20</title>
<path fill="none" stroke="black" d="M431.73,-872.12C436.23,-866.28 440.68,-859.25 443,-852 456.83,-808.83 455.93,-793.45 443,-750 432.1,-713.37 406.9,-714.63 396,-678 394.1,-671.61 395.27,-669.63 396,-663 398.68,-638.56 394.1,-629.28 408,-609 416.15,-597.1 425.8,-602.1 435,-591 445.17,-578.73 444.41,-573.26 449,-558 456.03,-534.63 456.77,-528.31 459,-504 459.61,-497.36 461.83,-495.04 459,-489 455.97,-482.53 451.09,-476.84 445.72,-472.03"/>
<polygon fill="black" stroke="black" points="447.65,-469.1 437.64,-465.63 443.3,-474.58 447.65,-469.1"/>
<text text-anchor="middle" x="408.5" y="-666.8" font-family="Times,serif" font-size="14.00">t12</text>
</g>
<!-- S13&#45;&gt;S8 -->
<g id="edge52" class="edge">
<title>S13&#45;&gt;S8</title>
<path fill="none" stroke="black" d="M150.59,-260.83C150.55,-251.16 150.81,-238.88 152,-228 152.28,-225.41 152.66,-222.73 153.1,-220.06"/>
<polygon fill="black" stroke="black" points="156.58,-220.47 154.97,-210 149.7,-219.18 156.58,-220.47"/>
<text text-anchor="middle" x="160" y="-231.8" font-family="Times,serif" font-size="14.00">t7</text>
</g>
<!-- S13&#45;&gt;S7 -->
<g id="edge53" class="edge">
<title>S13&#45;&gt;S7</title>
<path fill="none" stroke="black" d="M142.21,-261.8C135.45,-248.37 126.67,-228.54 123,-210 112.39,-156.37 110.76,-140.28 123,-87 126.65,-71.11 128.31,-66.31 139,-54 145.34,-46.7 153.54,-40.25 161.55,-34.94"/>
<polygon fill="black" stroke="black" points="163.43,-37.89 170.07,-29.64 159.73,-31.95 163.43,-37.89"/>
<text text-anchor="middle" x="127.5" y="-144.8" font-family="Times,serif" font-size="14.00">t11</text>
</g>
<!-- S4&#45;&gt;S5 -->
<g id="edge54" class="edge">
<title>S4&#45;&gt;S5</title>
<path fill="none" stroke="black" d="M548,-260.8C548,-249.16 548,-233.55 548,-220.24"/>
<polygon fill="black" stroke="black" points="551.5,-220.18 548,-210.18 544.5,-220.18 551.5,-220.18"/>
<text text-anchor="middle" x="556" y="-231.8" font-family="Times,serif" font-size="14.00">t7</text>
</g>
<!-- S18&#45;&gt;S3 -->
<g id="edge55" class="edge">
<title>S18&#45;&gt;S3</title>
<path fill="none" stroke="black" d="M606.56,-609.09C601.87,-585.59 593.43,-541.71 588,-504 581.51,-458.87 596.97,-442.99 577,-402 574.31,-396.48 570.37,-391.34 566.08,-386.8"/>
<polygon fill="black" stroke="black" points="568.33,-384.11 558.67,-379.76 563.5,-389.19 568.33,-384.11"/>
<text text-anchor="middle" x="600.5" y="-492.8" font-family="Times,serif" font-size="14.00">t11</text>
</g>
<!-- S18&#45;&gt;S19 -->
<g id="edge56" class="edge">
<title>S18&#45;&gt;S19</title>
<path fill="none" stroke="black" d="M626.19,-612.02C632.57,-605.98 639.63,-598.57 645,-591 650.15,-583.74 654.7,-575.2 658.43,-567.26"/>
<polygon fill="black" stroke="black" points="661.68,-568.55 662.54,-557.99 655.29,-565.71 661.68,-568.55"/>
<text text-anchor="middle" x="661" y="-579.8" font-family="Times,serif" font-size="14.00">t7</text>
</g>
<!-- S21&#45;&gt;S15 -->
<g id="edge57" class="edge">
<title>S21&#45;&gt;S15</title>
<path fill="none" stroke="black" d="M684.22,-452.24C639.52,-451.62 551.5,-446.34 484,-417 474.13,-412.71 474.56,-406.93 465,-402 438.84,-388.51 406.72,-379.49 382.29,-373.99"/>
<polygon fill="black" stroke="black" points="382.85,-370.53 372.34,-371.85 381.38,-377.37 382.85,-370.53"/>
<text text-anchor="middle" x="492" y="-405.8" font-family="Times,serif" font-size="14.00">t3</text>
</g>
<!-- S21&#45;&gt;S5 -->
<g id="edge58" class="edge">
<title>S21&#45;&gt;S5</title>
<path fill="none" stroke="black" d="M722.42,-436C736.45,-410.03 759.57,-357.34 744,-315 726.48,-267.36 712.66,-255.51 670,-228 644.12,-211.31 610.14,-202.42 584.62,-197.77"/>
<polygon fill="black" stroke="black" points="585.03,-194.3 574.59,-196.09 583.87,-201.2 585.03,-194.3"/>
<text text-anchor="middle" x="759.5" y="-318.8" font-family="Times,serif" font-size="14.00">t11</text>
</g>
<!-- S15&#45;&gt;S13 -->
<g id="edge60" class="edge">
<title>S15&#45;&gt;S13</title>
<path fill="none" stroke="black" d="M317.46,-360.75C290.55,-355.86 248.95,-346.34 216,-330 200.77,-322.45 185.6,-311.06 173.75,-301.06"/>
<polygon fill="black" stroke="black" points="175.96,-298.34 166.12,-294.42 171.37,-303.62 175.96,-298.34"/>
<text text-anchor="middle" x="224" y="-318.8" font-family="Times,serif" font-size="14.00">t2</text>
</g>
<!-- S15&#45;&gt;S13 -->
<g id="edge62" class="edge">
<title>S15&#45;&gt;S13</title>
<path fill="none" stroke="black" d="M328.44,-351.07C312.76,-338.1 290.14,-320.03 280,-315 250.91,-300.58 215.08,-291.46 188.57,-286.17"/>
<polygon fill="black" stroke="black" points="189.02,-282.69 178.54,-284.25 187.71,-289.56 189.02,-282.69"/>
<text text-anchor="middle" x="314.5" y="-318.8" font-family="Times,serif" font-size="14.00">t17</text>
</g>
<!-- S15&#45;&gt;S4 -->
<g id="edge59" class="edge">
<title>S15&#45;&gt;S4</title>
<path fill="none" stroke="black" d="M369.83,-356.91C389.8,-350.22 418.47,-340.19 443,-330 468.71,-319.32 497.18,-305.64 517.99,-295.29"/>
<polygon fill="black" stroke="black" points="519.59,-298.4 526.97,-290.79 516.46,-292.14 519.59,-298.4"/>
<text text-anchor="middle" x="484" y="-318.8" font-family="Times,serif" font-size="14.00">t1</text>
</g>
<!-- S15&#45;&gt;S4 -->
<g id="edge61" class="edge">
<title>S15&#45;&gt;S4</title>
<path fill="none" stroke="black" d="M362.32,-351.31C379.02,-338.32 403.3,-320.05 414,-315 423.02,-310.74 476.62,-297.3 513.24,-288.37"/>
<polygon fill="black" stroke="black" points="514.18,-291.75 523.07,-285.98 512.52,-284.94 514.18,-291.75"/>
<text text-anchor="middle" x="426.5" y="-318.8" font-family="Times,serif" font-size="14.00">t13</text>
</g>
<!-- S15&#45;&gt;S10 -->
<g id="edge63" class="edge">
<title>S15&#45;&gt;S10</title>
<path fill="none" stroke="black" d="M353.48,-348.61C359.81,-336.38 368.58,-319.44 375.82,-305.46"/>
<polygon fill="black" stroke="black" points="379.05,-306.83 380.54,-296.34 372.84,-303.61 379.05,-306.83"/>
<text text-anchor="middle" x="378" y="-318.8" font-family="Times,serif" font-size="14.00">t7</text>
</g>
<!-- S15&#45;&gt;S6 -->
<g id="edge64" class="edge">
<title>S15&#45;&gt;S6</title>
<path fill="none" stroke="black" d="M343.95,-348.01C341.24,-304.1 333.98,-186.6 330.68,-133.15"/>
<polygon fill="black" stroke="black" points="334.16,-132.82 330.05,-123.06 327.18,-133.25 334.16,-132.82"/>
<text text-anchor="middle" x="350.5" y="-231.8" font-family="Times,serif" font-size="14.00">t11</text>
</g>
<!-- S14&#45;&gt;S13 -->
<g id="edge65" class="edge">
<title>S14&#45;&gt;S13</title>
<path fill="none" stroke="black" d="M175.49,-353.95C166.54,-348.13 157.06,-340.09 152,-330 148.52,-323.06 147.35,-314.88 147.3,-307.16"/>
<polygon fill="black" stroke="black" points="150.8,-307.25 147.81,-297.08 143.81,-306.89 150.8,-307.25"/>
<text text-anchor="middle" x="160" y="-318.8" font-family="Times,serif" font-size="14.00">t6</text>
</g>
<!-- S14&#45;&gt;S7 -->
<g id="edge66" class="edge">
<title>S14&#45;&gt;S7</title>
<path fill="none" stroke="black" d="M202.85,-348.11C204.54,-342.43 206.16,-336.01 207,-330 221.59,-225.81 204.76,-100.32 195.84,-46.11"/>
<polygon fill="black" stroke="black" points="199.24,-45.23 194.12,-35.95 192.34,-46.4 199.24,-45.23"/>
<text text-anchor="middle" x="221" y="-188.3" font-family="Times,serif" font-size="14.00">t8</text>
</g>
<!-- S8&#45;&gt;S9 -->
<g id="edge67" class="edge">
<title>S8&#45;&gt;S9</title>
<path fill="none" stroke="black" d="M159,-173.8C159,-162.16 159,-146.55 159,-133.24"/>
<polygon fill="black" stroke="black" points="162.5,-133.18 159,-123.18 155.5,-133.18 162.5,-133.18"/>
<text text-anchor="middle" x="167" y="-144.8" font-family="Times,serif" font-size="14.00">t3</text>
</g>
<!-- S5&#45;&gt;S6 -->
<g id="edge68" class="edge">
<title>S5&#45;&gt;S6</title>
<path fill="none" stroke="black" d="M530.77,-178C515.13,-166.76 491.06,-150.82 468,-141 434.46,-126.71 393.78,-117.32 365.12,-111.89"/>
<polygon fill="black" stroke="black" points="365.61,-108.42 355.14,-110.07 364.35,-115.31 365.61,-108.42"/>
<text text-anchor="middle" x="504" y="-144.8" font-family="Times,serif" font-size="14.00">t3</text>
</g>
<!-- S3&#45;&gt;S4 -->
<g id="edge69" class="edge">
<title>S3&#45;&gt;S4</title>
<path fill="none" stroke="black" d="M542.42,-347.8C543.37,-336.16 544.66,-320.55 545.76,-307.24"/>
<polygon fill="black" stroke="black" points="549.25,-307.43 546.59,-297.18 542.28,-306.85 549.25,-307.43"/>
<text text-anchor="middle" x="552" y="-318.8" font-family="Times,serif" font-size="14.00">t6</text>
</g>
<!-- S19&#45;&gt;S21 -->
<g id="edge72" class="edge">
<title>S19&#45;&gt;S21</title>
<path fill="none" stroke="black" d="M677.48,-522.61C683.81,-510.38 692.58,-493.44 699.82,-479.46"/>
<polygon fill="black" stroke="black" points="703.05,-480.83 704.54,-470.34 696.84,-477.61 703.05,-480.83"/>
<text text-anchor="middle" x="701" y="-492.8" font-family="Times,serif" font-size="14.00">t6</text>
</g>
<!-- S19&#45;&gt;S5 -->
<g id="edge70" class="edge">
<title>S19&#45;&gt;S5</title>
<path fill="none" stroke="black" d="M666.18,-522.01C662.36,-497.47 656,-450.64 656,-410.5 656,-410.5 656,-410.5 656,-278 656,-239.62 613.36,-215.91 581.66,-203.59"/>
<polygon fill="black" stroke="black" points="582.83,-200.29 572.24,-200.13 580.42,-206.86 582.83,-200.29"/>
<text text-anchor="middle" x="664" y="-362.3" font-family="Times,serif" font-size="14.00">t8</text>
</g>
<!-- S19&#45;&gt;S20 -->
<g id="edge71" class="edge">
<title>S19&#45;&gt;S20</title>
<path fill="none" stroke="black" d="M657.08,-523.35C647.53,-511.96 633.08,-497.16 617,-489 565.42,-462.83 497.79,-455.83 455.88,-454.17"/>
<polygon fill="black" stroke="black" points="455.91,-450.67 445.8,-453.86 455.69,-457.67 455.91,-450.67"/>
<text text-anchor="middle" x="645" y="-492.8" font-family="Times,serif" font-size="14.00">t3</text>
</g>
<!-- S10&#45;&gt;S8 -->
<g id="edge73" class="edge">
<title>S10&#45;&gt;S8</title>
<path fill="none" stroke="black" d="M360.6,-276.72C325.09,-274.15 263.23,-266.39 216,-243 202.28,-236.2 189.25,-225.26 179.13,-215.34"/>
<polygon fill="black" stroke="black" points="181.48,-212.74 171.99,-208.04 176.48,-217.63 181.48,-212.74"/>
<text text-anchor="middle" x="224" y="-231.8" font-family="Times,serif" font-size="14.00">t2</text>
</g>
<!-- S10&#45;&gt;S8 -->
<g id="edge74" class="edge">
<title>S10&#45;&gt;S8</title>
<path fill="none" stroke="black" d="M364.09,-269.97C342.96,-263.07 311.87,-252.73 285,-243 246.9,-229.2 237.61,-225.1 200,-210 197.09,-208.83 194.07,-207.61 191.05,-206.37"/>
<polygon fill="black" stroke="black" points="192.1,-203.02 181.52,-202.45 189.43,-209.49 192.1,-203.02"/>
<text text-anchor="middle" x="297.5" y="-231.8" font-family="Times,serif" font-size="14.00">t17</text>
</g>
<!-- S10&#45;&gt;S5 -->
<g id="edge75" class="edge">
<title>S10&#45;&gt;S5</title>
<path fill="none" stroke="black" d="M404.33,-263.79C416.73,-252.87 435.01,-238.02 453,-228 472.05,-217.39 494.94,-208.85 513.48,-202.86"/>
<polygon fill="black" stroke="black" points="514.77,-206.12 523.28,-199.8 512.69,-199.44 514.77,-206.12"/>
<text text-anchor="middle" x="461" y="-231.8" font-family="Times,serif" font-size="14.00">t1</text>
</g>
<!-- S10&#45;&gt;S5 -->
<g id="edge76" class="edge">
<title>S10&#45;&gt;S5</title>
<path fill="none" stroke="black" d="M412.9,-268.66C429.04,-262.08 450.66,-252.74 469,-243 487.09,-233.39 506.55,-221.1 521.63,-211.11"/>
<polygon fill="black" stroke="black" points="523.6,-214 529.96,-205.53 519.7,-208.19 523.6,-214"/>
<text text-anchor="middle" x="506.5" y="-231.8" font-family="Times,serif" font-size="14.00">t13</text>
</g>
<!-- S9&#45;&gt;S7 -->
<g id="edge77" class="edge">
<title>S9&#45;&gt;S7</title>
<path fill="none" stroke="black" d="M165.32,-87.21C169.84,-75.22 176,-58.85 181.15,-45.16"/>
<polygon fill="black" stroke="black" points="184.44,-46.35 184.69,-35.76 177.89,-43.88 184.44,-46.35"/>
<text text-anchor="middle" x="185" y="-57.8" font-family="Times,serif" font-size="14.00">t1</text>
</g>
<!-- S9&#45;&gt;S7 -->
<g id="edge78" class="edge">
<title>S9&#45;&gt;S7</title>
<path fill="none" stroke="black" d="M148.84,-88.13C143.72,-78.01 139.64,-64.82 145,-54 148.7,-46.54 154.83,-40.24 161.43,-35.13"/>
<polygon fill="black" stroke="black" points="163.65,-37.85 169.89,-29.3 159.67,-32.09 163.65,-37.85"/>
<text text-anchor="middle" x="157.5" y="-57.8" font-family="Times,serif" font-size="14.00">t13</text>
</g>
<!-- S6&#45;&gt;S7 -->
<g id="edge79" class="edge">
<title>S6&#45;&gt;S7</title>
<path fill="none" stroke="black" d="M319.28,-88.09C311.89,-77.17 300.84,-63.07 288,-54 269.57,-40.98 245.78,-32.3 226.37,-26.84"/>
<polygon fill="black" stroke="black" points="227.23,-23.44 216.67,-24.27 225.44,-30.21 227.23,-23.44"/>
<text text-anchor="middle" x="312" y="-57.8" font-family="Times,serif" font-size="14.00">t2</text>
</g>
<!-- S6&#45;&gt;S7 -->
<g id="edge80" class="edge">
<title>S6&#45;&gt;S7</title>
<path fill="none" stroke="black" d="M307.04,-94.2C292.98,-87.64 274.53,-78.5 259,-69 244.07,-59.87 228.27,-48.38 215.66,-38.71"/>
<polygon fill="black" stroke="black" points="217.53,-35.73 207.49,-32.36 213.24,-41.26 217.53,-35.73"/>
<text text-anchor="middle" x="271.5" y="-57.8" font-family="Times,serif" font-size="14.00">t17</text>
</g>
<!-- S20&#45;&gt;S15 -->
<g id="edge81" class="edge">
<title>S20&#45;&gt;S15</title>
<path fill="none" stroke="black" d="M392.67,-443.15C374.33,-435.94 351.46,-425.58 346,-417 341.72,-410.28 340.39,-401.95 340.43,-394.03"/>
<polygon fill="black" stroke="black" points="343.92,-394.25 341.15,-384.02 336.94,-393.74 343.92,-394.25"/>
<text text-anchor="middle" x="354" y="-405.8" font-family="Times,serif" font-size="14.00">t6</text>
</g>
<!-- S20&#45;&gt;S14 -->
<g id="edge82" class="edge">
<title>S20&#45;&gt;S14</title>
<path fill="none" stroke="black" d="M392.72,-443.26C373.49,-436.29 345.96,-426.2 322,-417 290.6,-404.94 255.01,-390.64 229.85,-380.43"/>
<polygon fill="black" stroke="black" points="231.01,-377.12 220.42,-376.59 228.37,-383.6 231.01,-377.12"/>
<text text-anchor="middle" x="330" y="-405.8" font-family="Times,serif" font-size="14.00">t2</text>
</g>
<!-- S20&#45;&gt;S14 -->
<g id="edge83" class="edge">
<title>S20&#45;&gt;S14</title>
<path fill="none" stroke="black" d="M389.8,-446.83C347.09,-438.61 267.89,-422.87 256,-417 241.99,-410.09 228.53,-399.13 218.01,-389.23"/>
<polygon fill="black" stroke="black" points="220.18,-386.45 210.58,-381.96 215.28,-391.45 220.18,-386.45"/>
<text text-anchor="middle" x="268.5" y="-405.8" font-family="Times,serif" font-size="14.00">t17</text>
</g>
<!-- S20&#45;&gt;S3 -->
<g id="edge84" class="edge">
<title>S20&#45;&gt;S3</title>
<path fill="none" stroke="black" d="M424.33,-435.17C429.77,-424.4 438.12,-410.84 449,-402 465.34,-388.72 487.25,-380.12 505.6,-374.77"/>
<polygon fill="black" stroke="black" points="506.63,-378.11 515.36,-372.12 504.8,-371.36 506.63,-378.11"/>
<text text-anchor="middle" x="457" y="-405.8" font-family="Times,serif" font-size="14.00">t1</text>
</g>
<!-- S20&#45;&gt;S3 -->
<g id="edge85" class="edge">
<title>S20&#45;&gt;S3</title>
<path fill="none" stroke="black" d="M443.29,-445.54C461.64,-440.1 485.97,-430.94 504,-417 512.84,-410.16 520.58,-400.68 526.67,-391.81"/>
<polygon fill="black" stroke="black" points="529.7,-393.57 532.18,-383.27 523.82,-389.77 529.7,-393.57"/>
<text text-anchor="middle" x="530.5" y="-405.8" font-family="Times,serif" font-size="14.00">t13</text>
</g>
<!-- S20&#45;&gt;S6 -->
<g id="edge86" class="edge">
<title>S20&#45;&gt;S6</title>
<path fill="none" stroke="black" d="M421.21,-435.17C426.81,-411.76 436.45,-367.98 440,-330 444.22,-284.86 456.36,-270.28 440,-228 423.05,-184.19 382.25,-146.44 355.12,-124.96"/>
<polygon fill="black" stroke="black" points="357.24,-122.17 347.18,-118.83 352.96,-127.71 357.24,-122.17"/>
<text text-anchor="middle" x="457" y="-275.3" font-family="Times,serif" font-size="14.00">t8</text>
</g>
</g>
</svg>
