<?xml version="1.0" encoding="UTF-8" standalone="no"?>
<!DOCTYPE svg PUBLIC "-//W3C//DTD SVG 1.1//EN"
 "http://www.w3.org/Graphics/SVG/1.1/DTD/svg11.dtd">
<!-- Generated by graphviz version 2.43.0 (0)
 -->
<!-- Title: SCdebug/22 Pages: 1 -->
<svg width="194pt" height="653pt"
 viewBox="0.00 0.00 194.00 653.00" xmlns="http://www.w3.org/2000/svg" xmlns:xlink="http://www.w3.org/1999/xlink">
<g id="graph0" class="graph" transform="scale(1 1) rotate(0) translate(4 649)">
<title>SCdebug/22</title>
<polygon fill="white" stroke="transparent" points="-4,4 -4,-649 190,-649 190,4 -4,4"/>
<!-- S6 -->
<g id="node1" class="node">
<title>S6</title>
<ellipse fill="none" stroke="black" cx="88" cy="-105" rx="27" ry="18"/>
<text text-anchor="middle" x="88" y="-101.3" font-family="Times,serif" font-size="14.00">S6</text>
</g>
<!-- S7 -->
<g id="node3" class="node">
<title>S7</title>
<ellipse fill="#ffeeee" stroke="black" cx="130" cy="-18" rx="27" ry="18"/>
<text text-anchor="middle" x="130" y="-14.3" font-family="Times,serif" font-size="14.00">S7</text>
</g>
<!-- S6&#45;&gt;S7 -->
<g id="edge1" class="edge">
<title>S6&#45;&gt;S7</title>
<path fill="none" stroke="black" d="M97.72,-87.81C101.11,-81.96 104.85,-75.25 108,-69 111.84,-61.38 115.7,-52.94 119.09,-45.19"/>
<polygon fill="black" stroke="black" points="122.36,-46.44 123.1,-35.87 115.93,-43.68 122.36,-46.44"/>
<text text-anchor="middle" x="123" y="-57.8" font-family="Times,serif" font-size="14.00">t2</text>
</g>
<!-- S6&#45;&gt;S7 -->
<g id="edge2" class="edge">
<title>S6&#45;&gt;S7</title>
<path fill="none" stroke="black" d="M79.89,-87.42C76.14,-77.27 73.58,-64.3 79,-54 83.48,-45.49 91.07,-38.65 99.05,-33.35"/>
<polygon fill="black" stroke="black" points="100.91,-36.31 107.73,-28.2 97.34,-30.29 100.91,-36.31"/>
<text text-anchor="middle" x="91.5" y="-57.8" font-family="Times,serif" font-size="14.00">t17</text>
</g>
<!-- S1 -->
<g id="node2" class="node">
<title>S1</title>
<ellipse fill="none" stroke="black" cx="75" cy="-540" rx="27" ry="18"/>
<text text-anchor="middle" x="75" y="-536.3" font-family="Times,serif" font-size="14.00">S1</text>
</g>
<!-- S1&#45;&gt;S6 -->
<g id="edge5" class="edge">
<title>S1&#45;&gt;S6</title>
<path fill="none" stroke="black" d="M67.41,-522.46C60.38,-505.6 51,-478.53 51,-454 51,-454 51,-454 51,-191 51,-169.2 61.35,-146.68 71.11,-130.3"/>
<polygon fill="black" stroke="black" points="74.33,-131.75 76.7,-121.42 68.41,-128.02 74.33,-131.75"/>
<text text-anchor="middle" x="63.5" y="-318.8" font-family="Times,serif" font-size="14.00">t12</text>
</g>
<!-- S2 -->
<g id="node6" class="node">
<title>S2</title>
<ellipse fill="#ffeeee" stroke="black" cx="125" cy="-453" rx="27" ry="18"/>
<text text-anchor="middle" x="125" y="-449.3" font-family="Times,serif" font-size="14.00">S2</text>
</g>
<!-- S1&#45;&gt;S2 -->
<g id="edge3" class="edge">
<title>S1&#45;&gt;S2</title>
<path fill="none" stroke="black" d="M91.8,-525.42C98.27,-519.44 105.24,-511.97 110,-504 114.2,-496.97 117.31,-488.67 119.56,-480.87"/>
<polygon fill="black" stroke="black" points="122.99,-481.62 122.07,-471.06 116.2,-479.89 122.99,-481.62"/>
<text text-anchor="middle" x="124" y="-492.8" font-family="Times,serif" font-size="14.00">t2</text>
</g>
<!-- S1&#45;&gt;S2 -->
<g id="edge4" class="edge">
<title>S1&#45;&gt;S2</title>
<path fill="none" stroke="black" d="M73.9,-521.8C74,-511.66 75.46,-498.92 81,-489 84.79,-482.2 90.49,-476.24 96.55,-471.26"/>
<polygon fill="black" stroke="black" points="98.92,-473.85 104.87,-465.08 94.75,-468.23 98.92,-473.85"/>
<text text-anchor="middle" x="93.5" y="-492.8" font-family="Times,serif" font-size="14.00">t17</text>
</g>
<!-- S5 -->
<g id="node4" class="node">
<title>S5</title>
<ellipse fill="#ffffff" stroke="black" cx="106" cy="-192" rx="27" ry="18"/>
<text text-anchor="middle" x="106" y="-188.3" font-family="Times,serif" font-size="14.00">S5</text>
</g>
<!-- S5&#45;&gt;S6 -->
<g id="edge6" class="edge">
<title>S5&#45;&gt;S6</title>
<path fill="none" stroke="black" d="M102.36,-173.8C99.88,-162.09 96.54,-146.34 93.71,-132.97"/>
<polygon fill="black" stroke="black" points="97.07,-131.94 91.58,-122.89 90.22,-133.39 97.07,-131.94"/>
<text text-anchor="middle" x="106" y="-144.8" font-family="Times,serif" font-size="14.00">t3</text>
</g>
<!-- S3 -->
<g id="node5" class="node">
<title>S3</title>
<ellipse fill="#ffffff" stroke="black" cx="106" cy="-366" rx="27" ry="18"/>
<text text-anchor="middle" x="106" y="-362.3" font-family="Times,serif" font-size="14.00">S3</text>
</g>
<!-- S4 -->
<g id="node8" class="node">
<title>S4</title>
<ellipse fill="#ffffff" stroke="black" cx="106" cy="-279" rx="27" ry="18"/>
<text text-anchor="middle" x="106" y="-275.3" font-family="Times,serif" font-size="14.00">S4</text>
</g>
<!-- S3&#45;&gt;S4 -->
<g id="edge7" class="edge">
<title>S3&#45;&gt;S4</title>
<path fill="none" stroke="black" d="M106,-347.8C106,-336.16 106,-320.55 106,-307.24"/>
<polygon fill="black" stroke="black" points="109.5,-307.18 106,-297.18 102.5,-307.18 109.5,-307.18"/>
<text text-anchor="middle" x="114" y="-318.8" font-family="Times,serif" font-size="14.00">t6</text>
</g>
<!-- S2&#45;&gt;S7 -->
<g id="edge8" class="edge">
<title>S2&#45;&gt;S7</title>
<path fill="none" stroke="black" d="M136,-436.54C146.58,-420.1 161,-392.96 161,-367 161,-367 161,-367 161,-104 161,-82.86 152.43,-60.45 144.3,-43.96"/>
<polygon fill="black" stroke="black" points="147.36,-42.24 139.64,-34.98 141.15,-45.47 147.36,-42.24"/>
<text text-anchor="middle" x="173.5" y="-231.8" font-family="Times,serif" font-size="14.00">t12</text>
</g>
<!-- S2&#45;&gt;S3 -->
<g id="edge9" class="edge">
<title>S2&#45;&gt;S3</title>
<path fill="none" stroke="black" d="M121.16,-434.8C118.54,-423.09 115.02,-407.34 112.03,-393.97"/>
<polygon fill="black" stroke="black" points="115.37,-392.88 109.77,-383.89 108.54,-394.41 115.37,-392.88"/>
<text text-anchor="middle" x="124" y="-405.8" font-family="Times,serif" font-size="14.00">t5</text>
</g>
<!-- S0 -->
<g id="node7" class="node">
<title>S0</title>
<ellipse fill="#ffffff" stroke="black" cx="27" cy="-627" rx="27" ry="18"/>
<text text-anchor="middle" x="27" y="-623.3" font-family="Times,serif" font-size="14.00">S0</text>
</g>
<!-- S0&#45;&gt;S1 -->
<g id="edge11" class="edge">
<title>S0&#45;&gt;S1</title>
<path fill="none" stroke="black" d="M36.03,-610.01C43.02,-597.63 52.84,-580.23 60.88,-566.01"/>
<polygon fill="black" stroke="black" points="63.98,-567.63 65.85,-557.21 57.88,-564.19 63.98,-567.63"/>
<text text-anchor="middle" x="61" y="-579.8" font-family="Times,serif" font-size="14.00">t3</text>
</g>
<!-- S0&#45;&gt;S5 -->
<g id="edge10" class="edge">
<title>S0&#45;&gt;S5</title>
<path fill="none" stroke="black" d="M21.94,-609.24C17.25,-592.22 11,-565.03 11,-541 11,-541 11,-541 11,-278 11,-243.55 46.12,-219.57 73.65,-206.06"/>
<polygon fill="black" stroke="black" points="75.41,-209.11 83,-201.72 72.46,-202.76 75.41,-209.11"/>
<text text-anchor="middle" x="23.5" y="-405.8" font-family="Times,serif" font-size="14.00">t12</text>
</g>
<!-- S4&#45;&gt;S5 -->
<g id="edge12" class="edge">
<title>S4&#45;&gt;S5</title>
<path fill="none" stroke="black" d="M106,-260.8C106,-249.16 106,-233.55 106,-220.24"/>
<polygon fill="black" stroke="black" points="109.5,-220.18 106,-210.18 102.5,-220.18 109.5,-220.18"/>
<text text-anchor="middle" x="114" y="-231.8" font-family="Times,serif" font-size="14.00">t7</text>
</g>
</g>
</svg>
