<?xml version="1.0" encoding="UTF-8" standalone="no"?>
<!DOCTYPE svg PUBLIC "-//W3C//DTD SVG 1.1//EN"
 "http://www.w3.org/Graphics/SVG/1.1/DTD/svg11.dtd">
<!-- Generated by graphviz version 2.43.0 (0)
 -->
<!-- Title: SCdebug/23 Pages: 1 -->
<svg width="249pt" height="827pt"
 viewBox="0.00 0.00 249.00 827.00" xmlns="http://www.w3.org/2000/svg" xmlns:xlink="http://www.w3.org/1999/xlink">
<g id="graph0" class="graph" transform="scale(1 1) rotate(0) translate(4 823)">
<title>SCdebug/23</title>
<polygon fill="white" stroke="transparent" points="-4,4 -4,-823 245,-823 245,4 -4,4"/>
<!-- S8 -->
<g id="node1" class="node">
<title>S8</title>
<ellipse fill="none" stroke="black" cx="66" cy="-714" rx="27" ry="18"/>
<text text-anchor="middle" x="66" y="-710.3" font-family="Times,serif" font-size="14.00">S8</text>
</g>
<!-- S9 -->
<g id="node9" class="node">
<title>S9</title>
<ellipse fill="#ffffff" stroke="black" cx="136" cy="-627" rx="27" ry="18"/>
<text text-anchor="middle" x="136" y="-623.3" font-family="Times,serif" font-size="14.00">S9</text>
</g>
<!-- S8&#45;&gt;S9 -->
<g id="edge2" class="edge">
<title>S8&#45;&gt;S9</title>
<path fill="none" stroke="black" d="M78.51,-697.8C89.27,-684.75 104.92,-665.74 117.18,-650.85"/>
<polygon fill="black" stroke="black" points="119.94,-653.01 123.59,-643.06 114.53,-648.56 119.94,-653.01"/>
<text text-anchor="middle" x="113" y="-666.8" font-family="Times,serif" font-size="14.00">t7</text>
</g>
<!-- S4 -->
<g id="node10" class="node">
<title>S4</title>
<ellipse fill="#ffffff" stroke="black" cx="66" cy="-279" rx="27" ry="18"/>
<text text-anchor="middle" x="66" y="-275.3" font-family="Times,serif" font-size="14.00">S4</text>
</g>
<!-- S8&#45;&gt;S4 -->
<g id="edge1" class="edge">
<title>S8&#45;&gt;S4</title>
<path fill="none" stroke="black" d="M63.47,-695.93C56.4,-647.31 36.54,-503.91 30,-384 29.13,-368.02 26.14,-363.53 30,-348 33.86,-332.46 42,-316.56 49.57,-304.04"/>
<polygon fill="black" stroke="black" points="52.53,-305.91 54.9,-295.58 46.61,-302.17 52.53,-305.91"/>
<text text-anchor="middle" x="51.5" y="-492.8" font-family="Times,serif" font-size="14.00">t12</text>
</g>
<!-- S6 -->
<g id="node2" class="node">
<title>S6</title>
<ellipse fill="none" stroke="black" cx="189" cy="-105" rx="27" ry="18"/>
<text text-anchor="middle" x="189" y="-101.3" font-family="Times,serif" font-size="14.00">S6</text>
</g>
<!-- S7 -->
<g id="node4" class="node">
<title>S7</title>
<ellipse fill="#ffeeee" stroke="black" cx="154" cy="-18" rx="27" ry="18"/>
<text text-anchor="middle" x="154" y="-14.3" font-family="Times,serif" font-size="14.00">S7</text>
</g>
<!-- S6&#45;&gt;S7 -->
<g id="edge3" class="edge">
<title>S6&#45;&gt;S7</title>
<path fill="none" stroke="black" d="M187.86,-86.77C186.73,-76.86 184.48,-64.36 180,-54 178.24,-49.94 175.93,-45.9 173.41,-42.1"/>
<polygon fill="black" stroke="black" points="176.02,-39.74 167.31,-33.72 170.37,-43.87 176.02,-39.74"/>
<text text-anchor="middle" x="192" y="-57.8" font-family="Times,serif" font-size="14.00">t2</text>
</g>
<!-- S6&#45;&gt;S7 -->
<g id="edge4" class="edge">
<title>S6&#45;&gt;S7</title>
<path fill="none" stroke="black" d="M170.29,-91.97C162.81,-86.05 155.03,-78.2 151,-69 147.88,-61.88 147.3,-53.64 147.87,-45.93"/>
<polygon fill="black" stroke="black" points="151.36,-46.27 149.24,-35.89 144.42,-45.33 151.36,-46.27"/>
<text text-anchor="middle" x="163.5" y="-57.8" font-family="Times,serif" font-size="14.00">t17</text>
</g>
<!-- S1 -->
<g id="node3" class="node">
<title>S1</title>
<ellipse fill="none" stroke="black" cx="136" cy="-540" rx="27" ry="18"/>
<text text-anchor="middle" x="136" y="-536.3" font-family="Times,serif" font-size="14.00">S1</text>
</g>
<!-- S1&#45;&gt;S6 -->
<g id="edge7" class="edge">
<title>S1&#45;&gt;S6</title>
<path fill="none" stroke="black" d="M145.4,-523.04C148.52,-517.21 151.75,-510.45 154,-504 197.77,-378.21 199.05,-342.55 212,-210 215.01,-179.22 212.83,-170.32 203,-141 202.01,-138.05 200.91,-135 199.77,-131.97"/>
<polygon fill="black" stroke="black" points="203,-130.62 196.09,-122.59 196.48,-133.18 203,-130.62"/>
<text text-anchor="middle" x="213.5" y="-318.8" font-family="Times,serif" font-size="14.00">t12</text>
</g>
<!-- S2 -->
<g id="node8" class="node">
<title>S2</title>
<ellipse fill="#ffeeee" stroke="black" cx="112" cy="-453" rx="27" ry="18"/>
<text text-anchor="middle" x="112" y="-449.3" font-family="Times,serif" font-size="14.00">S2</text>
</g>
<!-- S1&#45;&gt;S2 -->
<g id="edge5" class="edge">
<title>S1&#45;&gt;S2</title>
<path fill="none" stroke="black" d="M117.29,-526.97C109.81,-521.05 102.03,-513.2 98,-504 94.6,-496.25 95.58,-487.47 98.18,-479.44"/>
<polygon fill="black" stroke="black" points="101.43,-480.74 101.96,-470.16 94.95,-478.09 101.43,-480.74"/>
<text text-anchor="middle" x="106" y="-492.8" font-family="Times,serif" font-size="14.00">t2</text>
</g>
<!-- S1&#45;&gt;S2 -->
<g id="edge6" class="edge">
<title>S1&#45;&gt;S2</title>
<path fill="none" stroke="black" d="M131.26,-522.21C127.91,-510.33 123.34,-494.17 119.5,-480.56"/>
<polygon fill="black" stroke="black" points="122.82,-479.43 116.73,-470.76 116.08,-481.33 122.82,-479.43"/>
<text text-anchor="middle" x="137.5" y="-492.8" font-family="Times,serif" font-size="14.00">t17</text>
</g>
<!-- S5 -->
<g id="node5" class="node">
<title>S5</title>
<ellipse fill="#ffffff" stroke="black" cx="176" cy="-192" rx="27" ry="18"/>
<text text-anchor="middle" x="176" y="-188.3" font-family="Times,serif" font-size="14.00">S5</text>
</g>
<!-- S5&#45;&gt;S6 -->
<g id="edge8" class="edge">
<title>S5&#45;&gt;S6</title>
<path fill="none" stroke="black" d="M178.63,-173.8C180.41,-162.16 182.8,-146.55 184.83,-133.24"/>
<polygon fill="black" stroke="black" points="188.32,-133.59 186.37,-123.18 181.4,-132.53 188.32,-133.59"/>
<text text-anchor="middle" x="191" y="-144.8" font-family="Times,serif" font-size="14.00">t3</text>
</g>
<!-- S3 -->
<g id="node6" class="node">
<title>S3</title>
<ellipse fill="#ffffff" stroke="black" cx="66" cy="-366" rx="27" ry="18"/>
<text text-anchor="middle" x="66" y="-362.3" font-family="Times,serif" font-size="14.00">S3</text>
</g>
<!-- S3&#45;&gt;S4 -->
<g id="edge9" class="edge">
<title>S3&#45;&gt;S4</title>
<path fill="none" stroke="black" d="M66,-347.8C66,-336.16 66,-320.55 66,-307.24"/>
<polygon fill="black" stroke="black" points="69.5,-307.18 66,-297.18 62.5,-307.18 69.5,-307.18"/>
<text text-anchor="middle" x="74" y="-318.8" font-family="Times,serif" font-size="14.00">t6</text>
</g>
<!-- S0 -->
<g id="node7" class="node">
<title>S0</title>
<ellipse fill="#ffffff" stroke="black" cx="27" cy="-801" rx="27" ry="18"/>
<text text-anchor="middle" x="27" y="-797.3" font-family="Times,serif" font-size="14.00">S0</text>
</g>
<!-- S0&#45;&gt;S8 -->
<g id="edge11" class="edge">
<title>S0&#45;&gt;S8</title>
<path fill="none" stroke="black" d="M34.52,-783.61C40.13,-771.38 47.9,-754.44 54.32,-740.46"/>
<polygon fill="black" stroke="black" points="57.51,-741.89 58.5,-731.34 51.15,-738.97 57.51,-741.89"/>
<text text-anchor="middle" x="56" y="-753.8" font-family="Times,serif" font-size="14.00">t6</text>
</g>
<!-- S0&#45;&gt;S3 -->
<g id="edge10" class="edge">
<title>S0&#45;&gt;S3</title>
<path fill="none" stroke="black" d="M21.94,-783.24C17.25,-766.22 11,-739.03 11,-715 11,-715 11,-715 11,-495.5 11,-456.6 32.57,-416.03 48.69,-391.13"/>
<polygon fill="black" stroke="black" points="51.68,-392.96 54.34,-382.7 45.86,-389.06 51.68,-392.96"/>
<text text-anchor="middle" x="23.5" y="-579.8" font-family="Times,serif" font-size="14.00">t12</text>
</g>
<!-- S2&#45;&gt;S7 -->
<g id="edge12" class="edge">
<title>S2&#45;&gt;S7</title>
<path fill="none" stroke="black" d="M114.9,-434.8C117.53,-417.67 121,-390.59 121,-367 121,-367 121,-367 121,-104 121,-82.69 130.12,-60.3 138.77,-43.85"/>
<polygon fill="black" stroke="black" points="141.95,-45.34 143.74,-34.9 135.83,-41.94 141.95,-45.34"/>
<text text-anchor="middle" x="133.5" y="-231.8" font-family="Times,serif" font-size="14.00">t12</text>
</g>
<!-- S2&#45;&gt;S3 -->
<g id="edge13" class="edge">
<title>S2&#45;&gt;S3</title>
<path fill="none" stroke="black" d="M102.12,-436.12C98.52,-430.18 94.48,-423.34 91,-417 86.68,-409.14 82.23,-400.43 78.29,-392.52"/>
<polygon fill="black" stroke="black" points="81.35,-390.81 73.79,-383.38 75.06,-393.89 81.35,-390.81"/>
<text text-anchor="middle" x="99" y="-405.8" font-family="Times,serif" font-size="14.00">t5</text>
</g>
<!-- S9&#45;&gt;S1 -->
<g id="edge15" class="edge">
<title>S9&#45;&gt;S1</title>
<path fill="none" stroke="black" d="M136,-608.8C136,-597.16 136,-581.55 136,-568.24"/>
<polygon fill="black" stroke="black" points="139.5,-568.18 136,-558.18 132.5,-568.18 139.5,-568.18"/>
<text text-anchor="middle" x="144" y="-579.8" font-family="Times,serif" font-size="14.00">t3</text>
</g>
<!-- S9&#45;&gt;S5 -->
<g id="edge14" class="edge">
<title>S9&#45;&gt;S5</title>
<path fill="none" stroke="black" d="M157.02,-615.33C180.72,-601.63 216,-575.45 216,-541 216,-541 216,-541 216,-365 216,-312.21 197.9,-252.62 186.05,-219.26"/>
<polygon fill="black" stroke="black" points="189.32,-217.99 182.61,-209.79 182.74,-220.38 189.32,-217.99"/>
<text text-anchor="middle" x="228.5" y="-405.8" font-family="Times,serif" font-size="14.00">t12</text>
</g>
<!-- S4&#45;&gt;S5 -->
<g id="edge16" class="edge">
<title>S4&#45;&gt;S5</title>
<path fill="none" stroke="black" d="M91.31,-272.39C109.44,-267.29 133.48,-258.18 150,-243 157.12,-236.46 162.62,-227.52 166.68,-219.01"/>
<polygon fill="black" stroke="black" points="169.94,-220.29 170.68,-209.73 163.51,-217.53 169.94,-220.29"/>
<text text-anchor="middle" x="169" y="-231.8" font-family="Times,serif" font-size="14.00">t7</text>
</g>
</g>
</svg>
