<?xml version="1.0" encoding="UTF-8" standalone="no"?>
<!DOCTYPE svg PUBLIC "-//W3C//DTD SVG 1.1//EN"
 "http://www.w3.org/Graphics/SVG/1.1/DTD/svg11.dtd">
<!-- Generated by graphviz version 2.43.0 (0)
 -->
<!-- Title: SCdebug/2 Pages: 1 -->
<svg width="287pt" height="305pt"
 viewBox="0.00 0.00 286.74 305.00" xmlns="http://www.w3.org/2000/svg" xmlns:xlink="http://www.w3.org/1999/xlink">
<g id="graph0" class="graph" transform="scale(1 1) rotate(0) translate(4 301)">
<title>SCdebug/2</title>
<polygon fill="white" stroke="transparent" points="-4,4 -4,-301 282.74,-301 282.74,4 -4,4"/>
<!-- R11_Le3 -->
<g id="node1" class="node">
<title>R11_Le3</title>
<ellipse fill="none" stroke="black" cx="108.7" cy="-279" rx="50.89" ry="18"/>
<text text-anchor="middle" x="108.7" y="-275.3" font-family="Times,serif" font-size="14.00">R11_Le3</text>
</g>
<!-- R10_Lee -->
<g id="node3" class="node">
<title>R10_Lee</title>
<ellipse fill="#ffeeee" stroke="black" cx="50.7" cy="-192" rx="50.09" ry="18"/>
<text text-anchor="middle" x="50.7" y="-188.3" font-family="Times,serif" font-size="14.00">R10_Lee</text>
</g>
<!-- R11_Le3&#45;&gt;R10_Lee -->
<g id="edge1" class="edge">
<title>R11_Le3&#45;&gt;R10_Lee</title>
<path fill="none" stroke="black" d="M97.24,-261.21C88.9,-248.98 77.45,-232.21 68,-218.36"/>
<polygon fill="black" stroke="black" points="70.66,-216.05 62.13,-209.76 64.88,-219.99 70.66,-216.05"/>
<text text-anchor="middle" x="91.7" y="-231.8" font-family="Times,serif" font-size="14.00">t4</text>
</g>
<!-- R11_Lee -->
<g id="node5" class="node">
<title>R11_Lee</title>
<ellipse fill="#ffeeee" stroke="black" cx="168.7" cy="-192" rx="50.09" ry="18"/>
<text text-anchor="middle" x="168.7" y="-188.3" font-family="Times,serif" font-size="14.00">R11_Lee</text>
</g>
<!-- R11_Le3&#45;&gt;R11_Lee -->
<g id="edge2" class="edge">
<title>R11_Le3&#45;&gt;R11_Lee</title>
<path fill="none" stroke="black" d="M120.55,-261.21C129.26,-248.87 141.24,-231.89 151.07,-217.97"/>
<polygon fill="black" stroke="black" points="153.96,-219.95 156.87,-209.76 148.24,-215.91 153.96,-219.95"/>
<text text-anchor="middle" x="159.2" y="-231.8" font-family="Times,serif" font-size="14.00">t5R2</text>
</g>
<!-- R00_Lee -->
<g id="node2" class="node">
<title>R00_Lee</title>
<ellipse fill="none" stroke="black" cx="110.7" cy="-18" rx="50.09" ry="18"/>
<text text-anchor="middle" x="110.7" y="-14.3" font-family="Times,serif" font-size="14.00">R00_Lee</text>
</g>
<!-- R00_Le3 -->
<g id="node4" class="node">
<title>R00_Le3</title>
<ellipse fill="#ffffff" stroke="black" cx="50.7" cy="-105" rx="50.89" ry="18"/>
<text text-anchor="middle" x="50.7" y="-101.3" font-family="Times,serif" font-size="14.00">R00_Le3</text>
</g>
<!-- R10_Lee&#45;&gt;R00_Le3 -->
<g id="edge3" class="edge">
<title>R10_Lee&#45;&gt;R00_Le3</title>
<path fill="none" stroke="black" d="M50.7,-173.8C50.7,-162.16 50.7,-146.55 50.7,-133.24"/>
<polygon fill="black" stroke="black" points="54.2,-133.18 50.7,-123.18 47.2,-133.18 54.2,-133.18"/>
<text text-anchor="middle" x="68.2" y="-144.8" font-family="Times,serif" font-size="14.00">t2R1</text>
</g>
<!-- R01_Le3 -->
<g id="node6" class="node">
<title>R01_Le3</title>
<ellipse fill="#ffffff" stroke="black" cx="169.7" cy="-105" rx="50.89" ry="18"/>
<text text-anchor="middle" x="169.7" y="-101.3" font-family="Times,serif" font-size="14.00">R01_Le3</text>
</g>
<!-- R11_Lee&#45;&gt;R01_Le3 -->
<g id="edge4" class="edge">
<title>R11_Lee&#45;&gt;R01_Le3</title>
<path fill="none" stroke="black" d="M168.9,-173.8C169.03,-162.16 169.22,-146.55 169.38,-133.24"/>
<polygon fill="black" stroke="black" points="172.88,-133.22 169.49,-123.18 165.88,-133.13 172.88,-133.22"/>
<text text-anchor="middle" x="186.2" y="-144.8" font-family="Times,serif" font-size="14.00">t2R1</text>
</g>
<!-- R01_Le3&#45;&gt;R00_Lee -->
<g id="edge5" class="edge">
<title>R01_Le3&#45;&gt;R00_Lee</title>
<path fill="none" stroke="black" d="M158.04,-87.21C149.55,-74.98 137.91,-58.21 128.3,-44.36"/>
<polygon fill="black" stroke="black" points="130.91,-41.98 122.33,-35.76 125.15,-45.97 130.91,-41.98"/>
<text text-anchor="middle" x="151.7" y="-57.8" font-family="Times,serif" font-size="14.00">t4</text>
</g>
<!-- R01_Lee -->
<g id="node7" class="node">
<title>R01_Lee</title>
<ellipse fill="#ffeeee" stroke="black" cx="228.7" cy="-18" rx="50.09" ry="18"/>
<text text-anchor="middle" x="228.7" y="-14.3" font-family="Times,serif" font-size="14.00">R01_Lee</text>
</g>
<!-- R01_Le3&#45;&gt;R01_Lee -->
<g id="edge6" class="edge">
<title>R01_Le3&#45;&gt;R01_Lee</title>
<path fill="none" stroke="black" d="M181.35,-87.21C189.84,-74.98 201.48,-58.21 211.09,-44.36"/>
<polygon fill="black" stroke="black" points="214.24,-45.97 217.06,-35.76 208.49,-41.98 214.24,-45.97"/>
<text text-anchor="middle" x="220.2" y="-57.8" font-family="Times,serif" font-size="14.00">t5R2</text>
</g>
</g>
</svg>
