<?xml version="1.0" encoding="UTF-8" standalone="no"?>
<!DOCTYPE svg PUBLIC "-//W3C//DTD SVG 1.1//EN"
 "http://www.w3.org/Graphics/SVG/1.1/DTD/svg11.dtd">
<!-- Generated by graphviz version 2.43.0 (0)
 -->
<!-- Title: SCdebug/2 Pages: 1 -->
<svg width="586pt" height="1240pt"
 viewBox="0.00 0.00 586.00 1239.62" xmlns="http://www.w3.org/2000/svg" xmlns:xlink="http://www.w3.org/1999/xlink">
<g id="graph0" class="graph" transform="scale(1 1) rotate(0) translate(4 1235.62)">
<title>SCdebug/2</title>
<polygon fill="white" stroke="transparent" points="-4,4 -4,-1235.62 582,-1235.62 582,4 -4,4"/>
<!-- R111_L132 -->
<g id="node1" class="node">
<title>R111_L132</title>
<ellipse fill="none" stroke="black" cx="387" cy="-1164.58" rx="63.09" ry="63.09"/>
<ellipse fill="none" stroke="black" cx="387" cy="-1164.58" rx="67.09" ry="67.09"/>
<text text-anchor="middle" x="387" y="-1160.88" font-family="Times,serif" font-size="14.00">R111_L132</text>
</g>
<!-- R011_L13e -->
<g id="node2" class="node">
<title>R011_L13e</title>
<ellipse fill="none" stroke="black" cx="387" cy="-980.14" rx="62.3" ry="62.3"/>
<ellipse fill="none" stroke="black" cx="387" cy="-980.14" rx="66.29" ry="66.29"/>
<text text-anchor="middle" x="387" y="-976.44" font-family="Times,serif" font-size="14.00">R011_L13e</text>
</g>
<!-- R111_L132&#45;&gt;R011_L13e -->
<g id="edge1" class="edge">
<title>R111_L132&#45;&gt;R011_L13e</title>
<path fill="none" stroke="black" d="M387,-1097.46C387,-1084.29 387,-1070.37 387,-1056.91"/>
<polygon fill="black" stroke="black" points="390.5,-1056.73 387,-1046.73 383.5,-1056.73 390.5,-1056.73"/>
<text text-anchor="middle" x="395" y="-1068.33" font-family="Times,serif" font-size="14.00">t3</text>
</g>
<!-- R111_L1e2 -->
<g id="node5" class="node">
<title>R111_L1e2</title>
<ellipse fill="none" stroke="black" cx="382" cy="-430.72" rx="62.29" ry="62.29"/>
<text text-anchor="middle" x="382" y="-427.02" font-family="Times,serif" font-size="14.00">R111_L1e2</text>
</g>
<!-- R111_L132&#45;&gt;R111_L1e2 -->
<g id="edge3" class="edge">
<title>R111_L132&#45;&gt;R111_L1e2</title>
<path fill="none" stroke="black" d="M443.76,-1128.76C488.37,-1096.58 543,-1044.28 543,-981.14 543,-981.14 543,-981.14 543,-612.21 543,-550.35 489.68,-499.91 444.4,-468.24"/>
<polygon fill="black" stroke="black" points="446.29,-465.29 436.06,-462.54 442.35,-471.07 446.29,-465.29"/>
<text text-anchor="middle" x="560.5" y="-792.65" font-family="Times,serif" font-size="14.00">t8R3</text>
</g>
<!-- R110_L1e2 -->
<g id="node14" class="node">
<title>R110_L1e2</title>
<ellipse fill="none" stroke="black" cx="240" cy="-980.14" rx="62.29" ry="62.29"/>
<text text-anchor="middle" x="240" y="-976.44" font-family="Times,serif" font-size="14.00">R110_L1e2</text>
</g>
<!-- R111_L132&#45;&gt;R110_L1e2 -->
<g id="edge2" class="edge">
<title>R111_L132&#45;&gt;R110_L1e2</title>
<path fill="none" stroke="black" d="M345.27,-1111.79C326.51,-1088.5 304.33,-1060.98 285.18,-1037.21"/>
<polygon fill="black" stroke="black" points="287.81,-1034.9 278.81,-1029.3 282.36,-1039.29 287.81,-1034.9"/>
<text text-anchor="middle" x="326" y="-1068.33" font-family="Times,serif" font-size="14.00">t6</text>
</g>
<!-- R111_L13e -->
<g id="node3" class="node">
<title>R111_L13e</title>
<ellipse fill="none" stroke="black" cx="386" cy="-796.35" rx="62.3" ry="62.3"/>
<ellipse fill="none" stroke="black" cx="386" cy="-796.35" rx="66.29" ry="66.29"/>
<text text-anchor="middle" x="386" y="-792.65" font-family="Times,serif" font-size="14.00">R111_L13e</text>
</g>
<!-- R011_L13e&#45;&gt;R111_L13e -->
<g id="edge4" class="edge">
<title>R011_L13e&#45;&gt;R111_L13e</title>
<path fill="none" stroke="black" d="M386.64,-913.51C386.57,-900.38 386.49,-886.49 386.42,-873.05"/>
<polygon fill="black" stroke="black" points="389.92,-872.86 386.36,-862.88 382.92,-872.9 389.92,-872.86"/>
<text text-anchor="middle" x="404.5" y="-884.55" font-family="Times,serif" font-size="14.00">t1R1</text>
</g>
<!-- R011_L1ee -->
<g id="node6" class="node">
<title>R011_L1ee</title>
<ellipse fill="none" stroke="black" cx="382" cy="-248.23" rx="61.99" ry="61.99"/>
<text text-anchor="middle" x="382" y="-244.53" font-family="Times,serif" font-size="14.00">R011_L1ee</text>
</g>
<!-- R011_L13e&#45;&gt;R011_L1ee -->
<g id="edge7" class="edge">
<title>R011_L13e&#45;&gt;R011_L1ee</title>
<path fill="none" stroke="black" d="M429.15,-928.54C453.75,-893.86 480,-845.56 480,-797.35 480,-797.35 480,-797.35 480,-429.72 480,-383.05 454.37,-336.91 429.33,-302.97"/>
<polygon fill="black" stroke="black" points="431.82,-300.46 422.99,-294.61 426.25,-304.69 431.82,-300.46"/>
<text text-anchor="middle" x="497.5" y="-609.51" font-family="Times,serif" font-size="14.00">t8R3</text>
</g>
<!-- R111_Le3e -->
<g id="node8" class="node">
<title>R111_Le3e</title>
<ellipse fill="none" stroke="black" cx="94" cy="-796.35" rx="61.98" ry="61.98"/>
<ellipse fill="none" stroke="black" cx="94" cy="-796.35" rx="65.99" ry="65.99"/>
<text text-anchor="middle" x="94" y="-792.65" font-family="Times,serif" font-size="14.00">R111_Le3e</text>
</g>
<!-- R011_L13e&#45;&gt;R111_Le3e -->
<g id="edge5" class="edge">
<title>R011_L13e&#45;&gt;R111_Le3e</title>
<path fill="none" stroke="black" d="M337.93,-935.23C329.13,-927.84 319.92,-920.42 311,-913.75 289.38,-897.57 285.02,-890.88 260,-880.75 221.79,-865.27 206.01,-880.91 169,-862.75 161.8,-859.21 154.75,-854.81 148.03,-849.98"/>
<polygon fill="black" stroke="black" points="149.78,-846.91 139.7,-843.65 145.54,-852.48 149.78,-846.91"/>
<text text-anchor="middle" x="296" y="-884.55" font-family="Times,serif" font-size="14.00">t2</text>
</g>
<!-- R010_L1ee -->
<g id="node12" class="node">
<title>R010_L1ee</title>
<ellipse fill="none" stroke="black" cx="240" cy="-796.35" rx="61.99" ry="61.99"/>
<text text-anchor="middle" x="240" y="-792.65" font-family="Times,serif" font-size="14.00">R010_L1ee</text>
</g>
<!-- R011_L13e&#45;&gt;R010_L1ee -->
<g id="edge6" class="edge">
<title>R011_L13e&#45;&gt;R010_L1ee</title>
<path fill="none" stroke="black" d="M348.15,-925.99C337.02,-911.17 324.72,-895.18 313,-880.75 305.06,-870.96 296.4,-860.73 287.92,-850.91"/>
<polygon fill="black" stroke="black" points="290.37,-848.39 281.16,-843.14 285.08,-852.99 290.37,-848.39"/>
<text text-anchor="middle" x="332" y="-884.55" font-family="Times,serif" font-size="14.00">t6</text>
</g>
<!-- R110_L1ee -->
<g id="node4" class="node">
<title>R110_L1ee</title>
<ellipse fill="none" stroke="black" cx="382" cy="-613.21" rx="61.99" ry="61.99"/>
<text text-anchor="middle" x="382" y="-609.51" font-family="Times,serif" font-size="14.00">R110_L1ee</text>
</g>
<!-- R111_L13e&#45;&gt;R110_L1ee -->
<g id="edge8" class="edge">
<title>R111_L13e&#45;&gt;R110_L1ee</title>
<path fill="none" stroke="black" d="M384.56,-729.96C384.23,-715.38 383.89,-699.86 383.56,-685.08"/>
<polygon fill="black" stroke="black" points="387.06,-684.91 383.34,-674.98 380.06,-685.06 387.06,-684.91"/>
<text text-anchor="middle" x="393" y="-700.76" font-family="Times,serif" font-size="14.00">t6</text>
</g>
<!-- R110_L1ee&#45;&gt;R111_L1e2 -->
<g id="edge9" class="edge">
<title>R110_L1ee&#45;&gt;R111_L1e2</title>
<path fill="none" stroke="black" d="M382,-551.36C382,-535.99 382,-519.36 382,-503.51"/>
<polygon fill="black" stroke="black" points="385.5,-503.23 382,-493.23 378.5,-503.23 385.5,-503.23"/>
<text text-anchor="middle" x="390" y="-518.27" font-family="Times,serif" font-size="14.00">t7</text>
</g>
<!-- R111_L1e2&#45;&gt;R011_L1ee -->
<g id="edge10" class="edge">
<title>R111_L1e2&#45;&gt;R011_L1ee</title>
<path fill="none" stroke="black" d="M382,-368.11C382,-352.78 382,-336.22 382,-320.47"/>
<polygon fill="black" stroke="black" points="385.5,-320.26 382,-310.26 378.5,-320.26 385.5,-320.26"/>
<text text-anchor="middle" x="390" y="-335.78" font-family="Times,serif" font-size="14.00">t3</text>
</g>
<!-- R111_Leee -->
<g id="node7" class="node">
<title>R111_Leee</title>
<ellipse fill="none" stroke="black" cx="181" cy="-65.74" rx="61.98" ry="61.98"/>
<ellipse fill="none" stroke="black" cx="181" cy="-65.74" rx="65.99" ry="65.99"/>
<text text-anchor="middle" x="181" y="-62.04" font-family="Times,serif" font-size="14.00">R111_Leee</text>
</g>
<!-- R011_L1ee&#45;&gt;R111_Leee -->
<g id="edge11" class="edge">
<title>R011_L1ee&#45;&gt;R111_Leee</title>
<path fill="none" stroke="black" d="M336.39,-206.28C307.03,-179.91 268.64,-145.44 237.37,-117.37"/>
<polygon fill="black" stroke="black" points="239.37,-114.45 229.59,-110.37 234.69,-119.66 239.37,-114.45"/>
<text text-anchor="middle" x="296" y="-153.29" font-family="Times,serif" font-size="14.00">t2</text>
</g>
<!-- R111_Le3e&#45;&gt;R111_Leee -->
<g id="edge13" class="edge">
<title>R111_Le3e&#45;&gt;R111_Leee</title>
<path fill="none" stroke="black" d="M51.95,-745.78C26.92,-711.21 0,-662.75 0,-614.21 0,-614.21 0,-614.21 0,-247.23 0,-180.95 61.61,-130.57 112.94,-100.11"/>
<polygon fill="black" stroke="black" points="114.83,-103.06 121.73,-95.02 111.33,-97 114.83,-103.06"/>
<text text-anchor="middle" x="17.5" y="-427.02" font-family="Times,serif" font-size="14.00">t8R3</text>
</g>
<!-- R110_Leee -->
<g id="node9" class="node">
<title>R110_Leee</title>
<ellipse fill="none" stroke="black" cx="94" cy="-613.21" rx="61.98" ry="61.98"/>
<ellipse fill="none" stroke="black" cx="94" cy="-613.21" rx="65.99" ry="65.99"/>
<text text-anchor="middle" x="94" y="-609.51" font-family="Times,serif" font-size="14.00">R110_Leee</text>
</g>
<!-- R111_Le3e&#45;&gt;R110_Leee -->
<g id="edge12" class="edge">
<title>R111_Le3e&#45;&gt;R110_Leee</title>
<path fill="none" stroke="black" d="M94,-730.47C94,-717.2 94,-703.13 94,-689.54"/>
<polygon fill="black" stroke="black" points="97.5,-689.25 94,-679.25 90.5,-689.25 97.5,-689.25"/>
<text text-anchor="middle" x="102" y="-700.76" font-family="Times,serif" font-size="14.00">t6</text>
</g>
<!-- R111_Lee2 -->
<g id="node10" class="node">
<title>R111_Lee2</title>
<ellipse fill="none" stroke="black" cx="181" cy="-430.72" rx="61.98" ry="61.98"/>
<ellipse fill="none" stroke="black" cx="181" cy="-430.72" rx="65.99" ry="65.99"/>
<text text-anchor="middle" x="181" y="-427.02" font-family="Times,serif" font-size="14.00">R111_Lee2</text>
</g>
<!-- R110_Leee&#45;&gt;R111_Lee2 -->
<g id="edge14" class="edge">
<title>R110_Leee&#45;&gt;R111_Lee2</title>
<path fill="none" stroke="black" d="M122.25,-553.61C130.57,-536.34 139.75,-517.31 148.32,-499.51"/>
<polygon fill="black" stroke="black" points="151.56,-500.86 152.75,-490.34 145.25,-497.83 151.56,-500.86"/>
<text text-anchor="middle" x="149" y="-518.27" font-family="Times,serif" font-size="14.00">t7</text>
</g>
<!-- R011_Leee -->
<g id="node11" class="node">
<title>R011_Leee</title>
<ellipse fill="none" stroke="black" cx="181" cy="-248.23" rx="61.98" ry="61.98"/>
<ellipse fill="none" stroke="black" cx="181" cy="-248.23" rx="65.99" ry="65.99"/>
<text text-anchor="middle" x="181" y="-244.53" font-family="Times,serif" font-size="14.00">R011_Leee</text>
</g>
<!-- R111_Lee2&#45;&gt;R011_Leee -->
<g id="edge15" class="edge">
<title>R111_Lee2&#45;&gt;R011_Leee</title>
<path fill="none" stroke="black" d="M181,-364.82C181,-351.69 181,-337.78 181,-324.34"/>
<polygon fill="black" stroke="black" points="184.5,-324.17 181,-314.17 177.5,-324.17 184.5,-324.17"/>
<text text-anchor="middle" x="189" y="-335.78" font-family="Times,serif" font-size="14.00">t3</text>
</g>
<!-- R011_Leee&#45;&gt;R111_Leee -->
<g id="edge16" class="edge">
<title>R011_Leee&#45;&gt;R111_Leee</title>
<path fill="none" stroke="black" d="M181,-182.33C181,-169.2 181,-155.3 181,-141.85"/>
<polygon fill="black" stroke="black" points="184.5,-141.68 181,-131.68 177.5,-141.68 184.5,-141.68"/>
<text text-anchor="middle" x="198.5" y="-153.29" font-family="Times,serif" font-size="14.00">t1R1</text>
</g>
<!-- R010_L1ee&#45;&gt;R110_L1ee -->
<g id="edge17" class="edge">
<title>R010_L1ee&#45;&gt;R110_L1ee</title>
<path fill="none" stroke="black" d="M277.68,-747.28C296.21,-723.65 318.65,-695.02 337.97,-670.38"/>
<polygon fill="black" stroke="black" points="340.97,-672.22 344.39,-662.19 335.47,-667.9 340.97,-672.22"/>
<text text-anchor="middle" x="333.5" y="-700.76" font-family="Times,serif" font-size="14.00">t1R1</text>
</g>
<!-- R010_L1ee&#45;&gt;R110_Leee -->
<g id="edge18" class="edge">
<title>R010_L1ee&#45;&gt;R110_Leee</title>
<path fill="none" stroke="black" d="M201.64,-747.76C183.2,-724.87 160.91,-697.22 141.41,-673.03"/>
<polygon fill="black" stroke="black" points="143.92,-670.56 134.91,-664.97 138.47,-674.96 143.92,-670.56"/>
<text text-anchor="middle" x="180" y="-700.76" font-family="Times,serif" font-size="14.00">t2</text>
</g>
<!-- R011_L1e2 -->
<g id="node13" class="node">
<title>R011_L1e2</title>
<ellipse fill="none" stroke="black" cx="240" cy="-613.21" rx="62.29" ry="62.29"/>
<text text-anchor="middle" x="240" y="-609.51" font-family="Times,serif" font-size="14.00">R011_L1e2</text>
</g>
<!-- R010_L1ee&#45;&gt;R011_L1e2 -->
<g id="edge19" class="edge">
<title>R010_L1ee&#45;&gt;R011_L1e2</title>
<path fill="none" stroke="black" d="M240,-734.53C240,-719.02 240,-702.19 240,-686.18"/>
<polygon fill="black" stroke="black" points="243.5,-685.8 240,-675.8 236.5,-685.8 243.5,-685.8"/>
<text text-anchor="middle" x="248" y="-700.76" font-family="Times,serif" font-size="14.00">t7</text>
</g>
<!-- R011_L1e2&#45;&gt;R111_L1e2 -->
<g id="edge20" class="edge">
<title>R011_L1e2&#45;&gt;R111_L1e2</title>
<path fill="none" stroke="black" d="M278.43,-563.37C296.65,-540.2 318.54,-512.39 337.49,-488.3"/>
<polygon fill="black" stroke="black" points="340.36,-490.31 343.79,-480.29 334.85,-485.99 340.36,-490.31"/>
<text text-anchor="middle" x="333.5" y="-518.27" font-family="Times,serif" font-size="14.00">t1R1</text>
</g>
<!-- R011_L1e2&#45;&gt;R111_Lee2 -->
<g id="edge21" class="edge">
<title>R011_L1e2&#45;&gt;R111_Lee2</title>
<path fill="none" stroke="black" d="M220.84,-553.61C215.58,-537.52 209.82,-519.89 204.35,-503.17"/>
<polygon fill="black" stroke="black" points="207.61,-501.86 201.18,-493.44 200.96,-504.04 207.61,-501.86"/>
<text text-anchor="middle" x="221" y="-518.27" font-family="Times,serif" font-size="14.00">t2</text>
</g>
<!-- R110_L1e2&#45;&gt;R010_L1ee -->
<g id="edge22" class="edge">
<title>R110_L1e2&#45;&gt;R010_L1ee</title>
<path fill="none" stroke="black" d="M240,-917.59C240,-901.73 240,-884.53 240,-868.23"/>
<polygon fill="black" stroke="black" points="243.5,-868.22 240,-858.22 236.5,-868.22 243.5,-868.22"/>
<text text-anchor="middle" x="248" y="-884.55" font-family="Times,serif" font-size="14.00">t3</text>
</g>
</g>
</svg>
