<?xml version="1.0" encoding="UTF-8" standalone="no"?>
<!DOCTYPE svg PUBLIC "-//W3C//DTD SVG 1.1//EN"
 "http://www.w3.org/Graphics/SVG/1.1/DTD/svg11.dtd">
<!-- Generated by graphviz version 2.43.0 (0)
 -->
<!-- Title: SCdebug/35 Pages: 1 -->
<svg width="771pt" height="827pt"
 viewBox="0.00 0.00 771.00 827.00" xmlns="http://www.w3.org/2000/svg" xmlns:xlink="http://www.w3.org/1999/xlink">
<g id="graph0" class="graph" transform="scale(1 1) rotate(0) translate(4 823)">
<title>SCdebug/35</title>
<polygon fill="white" stroke="transparent" points="-4,4 -4,-823 767,-823 767,4 -4,4"/>
<!-- S11 -->
<g id="node1" class="node">
<title>S11</title>
<ellipse fill="none" stroke="black" cx="388" cy="-714" rx="28.7" ry="18"/>
<text text-anchor="middle" x="388" y="-710.3" font-family="Times,serif" font-size="14.00">S11</text>
</g>
<!-- S15 -->
<g id="node5" class="node">
<title>S15</title>
<ellipse fill="#ffffff" stroke="black" cx="431" cy="-627" rx="28.7" ry="18"/>
<text text-anchor="middle" x="431" y="-623.3" font-family="Times,serif" font-size="14.00">S15</text>
</g>
<!-- S11&#45;&gt;S15 -->
<g id="edge2" class="edge">
<title>S11&#45;&gt;S15</title>
<path fill="none" stroke="black" d="M386.76,-695.96C386.72,-685.88 387.93,-673.15 393,-663 395.77,-657.45 399.82,-652.34 404.25,-647.84"/>
<polygon fill="black" stroke="black" points="406.87,-650.19 411.92,-640.88 402.17,-645.01 406.87,-650.19"/>
<text text-anchor="middle" x="401" y="-666.8" font-family="Times,serif" font-size="14.00">t7</text>
</g>
<!-- S4 -->
<g id="node11" class="node">
<title>S4</title>
<ellipse fill="#ffffff" stroke="black" cx="233" cy="-279" rx="27" ry="18"/>
<text text-anchor="middle" x="233" y="-275.3" font-family="Times,serif" font-size="14.00">S4</text>
</g>
<!-- S11&#45;&gt;S4 -->
<g id="edge1" class="edge">
<title>S11&#45;&gt;S4</title>
<path fill="none" stroke="black" d="M359.15,-712.83C269.23,-711.54 0,-701.53 0,-628 0,-628 0,-628 0,-365 0,-323.62 131.36,-296.46 196.82,-285.49"/>
<polygon fill="black" stroke="black" points="197.42,-288.94 206.72,-283.87 196.29,-282.03 197.42,-288.94"/>
<text text-anchor="middle" x="12.5" y="-492.8" font-family="Times,serif" font-size="14.00">t12</text>
</g>
<!-- S16 -->
<g id="node2" class="node">
<title>S16</title>
<ellipse fill="#ffeeee" stroke="black" cx="469" cy="-714" rx="28.7" ry="18"/>
<text text-anchor="middle" x="469" y="-710.3" font-family="Times,serif" font-size="14.00">S16</text>
</g>
<!-- S2 -->
<g id="node4" class="node">
<title>S2</title>
<ellipse fill="#ffeeee" stroke="black" cx="440" cy="-453" rx="27" ry="18"/>
<text text-anchor="middle" x="440" y="-449.3" font-family="Times,serif" font-size="14.00">S2</text>
</g>
<!-- S16&#45;&gt;S2 -->
<g id="edge5" class="edge">
<title>S16&#45;&gt;S2</title>
<path fill="none" stroke="black" d="M445.09,-703.62C421.03,-694.09 387.17,-680.41 385,-678 357.99,-648.01 364.84,-630.93 359,-591 352.23,-544.72 389.84,-499.74 416.09,-474.58"/>
<polygon fill="black" stroke="black" points="418.52,-477.09 423.48,-467.72 413.76,-471.96 418.52,-477.09"/>
<text text-anchor="middle" x="371.5" y="-579.8" font-family="Times,serif" font-size="14.00">t11</text>
</g>
<!-- S21 -->
<g id="node6" class="node">
<title>S21</title>
<ellipse fill="#ffffff" stroke="black" cx="532" cy="-627" rx="28.7" ry="18"/>
<text text-anchor="middle" x="532" y="-623.3" font-family="Times,serif" font-size="14.00">S21</text>
</g>
<!-- S16&#45;&gt;S21 -->
<g id="edge6" class="edge">
<title>S16&#45;&gt;S21</title>
<path fill="none" stroke="black" d="M469.6,-696C470.68,-685.69 473.4,-672.7 480,-663 485.29,-655.22 492.94,-648.7 500.75,-643.48"/>
<polygon fill="black" stroke="black" points="502.8,-646.33 509.52,-638.14 499.16,-640.36 502.8,-646.33"/>
<text text-anchor="middle" x="488" y="-666.8" font-family="Times,serif" font-size="14.00">t7</text>
</g>
<!-- S12 -->
<g id="node10" class="node">
<title>S12</title>
<ellipse fill="#ffeeee" stroke="black" cx="415" cy="-279" rx="28.7" ry="18"/>
<text text-anchor="middle" x="415" y="-275.3" font-family="Times,serif" font-size="14.00">S12</text>
</g>
<!-- S16&#45;&gt;S12 -->
<g id="edge3" class="edge">
<title>S16&#45;&gt;S12</title>
<path fill="none" stroke="black" d="M446.15,-702.73C439.73,-700.19 432.69,-697.71 426,-696 343.32,-674.81 48,-713.35 48,-628 48,-628 48,-628 48,-408.5 48,-352.04 83.43,-340.11 134,-315 171.99,-296.14 282,-302.9 324,-297 341.92,-294.48 361.69,-290.89 378.21,-287.65"/>
<polygon fill="black" stroke="black" points="378.9,-291.08 388.03,-285.7 377.54,-284.22 378.9,-291.08"/>
<text text-anchor="middle" x="60.5" y="-492.8" font-family="Times,serif" font-size="14.00">t12</text>
</g>
<!-- S17 -->
<g id="node12" class="node">
<title>S17</title>
<ellipse fill="#ffffff" stroke="black" cx="204" cy="-627" rx="28.7" ry="18"/>
<text text-anchor="middle" x="204" y="-623.3" font-family="Times,serif" font-size="14.00">S17</text>
</g>
<!-- S16&#45;&gt;S17 -->
<g id="edge4" class="edge">
<title>S16&#45;&gt;S17</title>
<path fill="none" stroke="black" d="M446.08,-702.99C439.66,-700.45 432.63,-697.91 426,-696 383.86,-683.88 371.12,-690.2 329,-678 296.5,-668.58 260.78,-653.83 235.87,-642.78"/>
<polygon fill="black" stroke="black" points="237.12,-639.5 226.56,-638.6 234.25,-645.89 237.12,-639.5"/>
<text text-anchor="middle" x="337" y="-666.8" font-family="Times,serif" font-size="14.00">t5</text>
</g>
<!-- S0 -->
<g id="node3" class="node">
<title>S0</title>
<ellipse fill="#ffffff" stroke="black" cx="518" cy="-801" rx="27" ry="18"/>
<text text-anchor="middle" x="518" y="-797.3" font-family="Times,serif" font-size="14.00">S0</text>
</g>
<!-- S0&#45;&gt;S11 -->
<g id="edge10" class="edge">
<title>S0&#45;&gt;S11</title>
<path fill="none" stroke="black" d="M491.61,-796.91C456.42,-792.18 397.04,-781.89 384,-765 378.98,-758.51 378.2,-750.02 379.22,-741.89"/>
<polygon fill="black" stroke="black" points="382.67,-742.45 381.28,-731.95 375.82,-741.03 382.67,-742.45"/>
<text text-anchor="middle" x="392" y="-753.8" font-family="Times,serif" font-size="14.00">t1</text>
</g>
<!-- S0&#45;&gt;S11 -->
<g id="edge12" class="edge">
<title>S0&#45;&gt;S11</title>
<path fill="none" stroke="black" d="M493.76,-792.78C476.44,-786.93 453.1,-777.59 435,-765 424.41,-757.63 414.37,-747.55 406.31,-738.37"/>
<polygon fill="black" stroke="black" points="408.9,-736.01 399.77,-730.63 403.55,-740.53 408.9,-736.01"/>
<text text-anchor="middle" x="447.5" y="-753.8" font-family="Times,serif" font-size="14.00">t13</text>
</g>
<!-- S0&#45;&gt;S16 -->
<g id="edge11" class="edge">
<title>S0&#45;&gt;S16</title>
<path fill="none" stroke="black" d="M511.83,-783.29C507.87,-773.33 502.29,-760.6 496,-750 493.64,-746.03 490.91,-742 488.09,-738.15"/>
<polygon fill="black" stroke="black" points="490.8,-735.92 481.94,-730.11 485.24,-740.17 490.8,-735.92"/>
<text text-anchor="middle" x="511" y="-753.8" font-family="Times,serif" font-size="14.00">t2</text>
</g>
<!-- S0&#45;&gt;S16 -->
<g id="edge13" class="edge">
<title>S0&#45;&gt;S16</title>
<path fill="none" stroke="black" d="M495.73,-790.8C484.97,-785.08 473.1,-776.59 467,-765 463.38,-758.13 462.53,-749.96 462.96,-742.24"/>
<polygon fill="black" stroke="black" points="466.46,-742.5 464.2,-732.15 459.51,-741.65 466.46,-742.5"/>
<text text-anchor="middle" x="479.5" y="-753.8" font-family="Times,serif" font-size="14.00">t17</text>
</g>
<!-- S1 -->
<g id="node7" class="node">
<title>S1</title>
<ellipse fill="#ffffff" stroke="black" cx="552" cy="-540" rx="27" ry="18"/>
<text text-anchor="middle" x="552" y="-536.3" font-family="Times,serif" font-size="14.00">S1</text>
</g>
<!-- S0&#45;&gt;S1 -->
<g id="edge8" class="edge">
<title>S0&#45;&gt;S1</title>
<path fill="none" stroke="black" d="M538.28,-789.1C557.08,-777.69 583.78,-757.85 595,-732 619.57,-675.37 587.64,-602.97 567.01,-565.67"/>
<polygon fill="black" stroke="black" points="570.04,-563.92 562.05,-556.97 563.96,-567.39 570.04,-563.92"/>
<text text-anchor="middle" x="615.5" y="-666.8" font-family="Times,serif" font-size="14.00">t11</text>
</g>
<!-- S23 -->
<g id="node9" class="node">
<title>S23</title>
<ellipse fill="#ffffff" stroke="black" cx="557" cy="-714" rx="28.7" ry="18"/>
<text text-anchor="middle" x="557" y="-710.3" font-family="Times,serif" font-size="14.00">S23</text>
</g>
<!-- S0&#45;&gt;S23 -->
<g id="edge9" class="edge">
<title>S0&#45;&gt;S23</title>
<path fill="none" stroke="black" d="M526.08,-783.68C528.95,-777.81 532.16,-771.13 535,-765 538.58,-757.25 542.37,-748.77 545.77,-741.03"/>
<polygon fill="black" stroke="black" points="549.03,-742.3 549.82,-731.74 542.62,-739.5 549.03,-742.3"/>
<text text-anchor="middle" x="549" y="-753.8" font-family="Times,serif" font-size="14.00">t7</text>
</g>
<!-- S14 -->
<g id="node14" class="node">
<title>S14</title>
<ellipse fill="#ffffff" stroke="black" cx="387" cy="-366" rx="28.7" ry="18"/>
<text text-anchor="middle" x="387" y="-362.3" font-family="Times,serif" font-size="14.00">S14</text>
</g>
<!-- S0&#45;&gt;S14 -->
<g id="edge7" class="edge">
<title>S0&#45;&gt;S14</title>
<path fill="none" stroke="black" d="M541.84,-792.19C557.06,-786.38 576.57,-777.33 591,-765 630.99,-730.83 661.97,-714.44 651,-663 623.14,-532.37 610.54,-479.85 502,-402 498.62,-399.57 454.81,-386.59 422.26,-377.14"/>
<polygon fill="black" stroke="black" points="423.16,-373.75 412.58,-374.33 421.21,-380.48 423.16,-373.75"/>
<text text-anchor="middle" x="646.5" y="-579.8" font-family="Times,serif" font-size="14.00">t12</text>
</g>
<!-- S7 -->
<g id="node17" class="node">
<title>S7</title>
<ellipse fill="#ffeeee" stroke="black" cx="598" cy="-18" rx="27" ry="18"/>
<text text-anchor="middle" x="598" y="-14.3" font-family="Times,serif" font-size="14.00">S7</text>
</g>
<!-- S2&#45;&gt;S7 -->
<g id="edge14" class="edge">
<title>S2&#45;&gt;S7</title>
<path fill="none" stroke="black" d="M461.43,-442.02C529.76,-409.51 738,-304.82 738,-236.5 738,-236.5 738,-236.5 738,-104 738,-55.51 675.87,-33.9 634.38,-24.88"/>
<polygon fill="black" stroke="black" points="634.83,-21.4 624.33,-22.85 633.44,-28.26 634.83,-21.4"/>
<text text-anchor="middle" x="750.5" y="-231.8" font-family="Times,serif" font-size="14.00">t12</text>
</g>
<!-- S3 -->
<g id="node19" class="node">
<title>S3</title>
<ellipse fill="#ffffff" stroke="black" cx="233" cy="-366" rx="27" ry="18"/>
<text text-anchor="middle" x="233" y="-362.3" font-family="Times,serif" font-size="14.00">S3</text>
</g>
<!-- S2&#45;&gt;S3 -->
<g id="edge15" class="edge">
<title>S2&#45;&gt;S3</title>
<path fill="none" stroke="black" d="M418.3,-441.79C395.87,-431.37 359.76,-414.92 328,-402 307.67,-393.73 284.57,-385.2 266.24,-378.63"/>
<polygon fill="black" stroke="black" points="267.19,-375.25 256.59,-375.2 264.84,-381.85 267.19,-375.25"/>
<text text-anchor="middle" x="371" y="-405.8" font-family="Times,serif" font-size="14.00">t5</text>
</g>
<!-- S15&#45;&gt;S1 -->
<g id="edge17" class="edge">
<title>S15&#45;&gt;S1</title>
<path fill="none" stroke="black" d="M456.42,-618.34C473.01,-612.55 494.56,-603.45 511,-591 520.36,-583.91 528.91,-574.27 535.76,-565.35"/>
<polygon fill="black" stroke="black" points="538.7,-567.25 541.77,-557.11 533.05,-563.13 538.7,-567.25"/>
<text text-anchor="middle" x="534" y="-579.8" font-family="Times,serif" font-size="14.00">t3</text>
</g>
<!-- S5 -->
<g id="node18" class="node">
<title>S5</title>
<ellipse fill="#ffffff" stroke="black" cx="233" cy="-192" rx="27" ry="18"/>
<text text-anchor="middle" x="233" y="-188.3" font-family="Times,serif" font-size="14.00">S5</text>
</g>
<!-- S15&#45;&gt;S5 -->
<g id="edge16" class="edge">
<title>S15&#45;&gt;S5</title>
<path fill="none" stroke="black" d="M405.95,-618.11C390.21,-612.31 370.09,-603.29 355,-591 288.22,-536.6 308.35,-487.42 240,-435 222.58,-421.64 206.38,-435.13 194,-417 188.01,-408.23 142.76,-469.85 197,-261 200.99,-245.65 209.02,-229.91 216.49,-217.44"/>
<polygon fill="black" stroke="black" points="219.68,-218.95 222.01,-208.61 213.74,-215.23 219.68,-218.95"/>
<text text-anchor="middle" x="206.5" y="-405.8" font-family="Times,serif" font-size="14.00">t12</text>
</g>
<!-- S22 -->
<g id="node8" class="node">
<title>S22</title>
<ellipse fill="#ffeeee" stroke="black" cx="440" cy="-540" rx="28.7" ry="18"/>
<text text-anchor="middle" x="440" y="-536.3" font-family="Times,serif" font-size="14.00">S22</text>
</g>
<!-- S21&#45;&gt;S22 -->
<g id="edge20" class="edge">
<title>S21&#45;&gt;S22</title>
<path fill="none" stroke="black" d="M516.39,-611.58C501.77,-598.07 479.72,-577.7 463.06,-562.31"/>
<polygon fill="black" stroke="black" points="465.1,-559.42 455.38,-555.21 460.35,-564.56 465.1,-559.42"/>
<text text-anchor="middle" x="499" y="-579.8" font-family="Times,serif" font-size="14.00">t3</text>
</g>
<!-- S8 -->
<g id="node16" class="node">
<title>S8</title>
<ellipse fill="#ffffff" stroke="black" cx="555" cy="-192" rx="27" ry="18"/>
<text text-anchor="middle" x="555" y="-188.3" font-family="Times,serif" font-size="14.00">S8</text>
</g>
<!-- S21&#45;&gt;S8 -->
<g id="edge18" class="edge">
<title>S21&#45;&gt;S8</title>
<path fill="none" stroke="black" d="M547.66,-611.65C560.6,-598.87 578.35,-578.98 588,-558 631.01,-464.54 619.08,-432.49 628,-330 631.9,-285.18 599.67,-240.56 576.78,-214.93"/>
<polygon fill="black" stroke="black" points="579.09,-212.28 569.73,-207.31 573.94,-217.03 579.09,-212.28"/>
<text text-anchor="middle" x="635.5" y="-405.8" font-family="Times,serif" font-size="14.00">t12</text>
</g>
<!-- S18 -->
<g id="node20" class="node">
<title>S18</title>
<ellipse fill="#ffffff" stroke="black" cx="204" cy="-540" rx="28.7" ry="18"/>
<text text-anchor="middle" x="204" y="-536.3" font-family="Times,serif" font-size="14.00">S18</text>
</g>
<!-- S21&#45;&gt;S18 -->
<g id="edge19" class="edge">
<title>S21&#45;&gt;S18</title>
<path fill="none" stroke="black" d="M508.38,-616.6C480.12,-605.64 431.21,-587.54 388,-576 338.04,-562.65 279.13,-552.38 241.68,-546.51"/>
<polygon fill="black" stroke="black" points="242.13,-543.04 231.72,-544.98 241.07,-549.96 242.13,-543.04"/>
<text text-anchor="middle" x="445" y="-579.8" font-family="Times,serif" font-size="14.00">t5</text>
</g>
<!-- S1&#45;&gt;S2 -->
<g id="edge21" class="edge">
<title>S1&#45;&gt;S2</title>
<path fill="none" stroke="black" d="M540.59,-523.18C532.39,-512.57 520.58,-498.81 508,-489 497.09,-480.5 483.81,-473.12 471.88,-467.36"/>
<polygon fill="black" stroke="black" points="473.22,-464.12 462.68,-463.09 470.28,-470.47 473.22,-464.12"/>
<text text-anchor="middle" x="532" y="-492.8" font-family="Times,serif" font-size="14.00">t2</text>
</g>
<!-- S1&#45;&gt;S2 -->
<g id="edge22" class="edge">
<title>S1&#45;&gt;S2</title>
<path fill="none" stroke="black" d="M528.4,-530.91C513.27,-524.98 493.78,-515.9 479,-504 470.12,-496.86 462.05,-487.32 455.58,-478.48"/>
<polygon fill="black" stroke="black" points="458.26,-476.21 449.68,-470 452.52,-480.21 458.26,-476.21"/>
<text text-anchor="middle" x="491.5" y="-492.8" font-family="Times,serif" font-size="14.00">t17</text>
</g>
<!-- S6 -->
<g id="node23" class="node">
<title>S6</title>
<ellipse fill="#ffffff" stroke="black" cx="323" cy="-105" rx="27" ry="18"/>
<text text-anchor="middle" x="323" y="-101.3" font-family="Times,serif" font-size="14.00">S6</text>
</g>
<!-- S1&#45;&gt;S6 -->
<g id="edge23" class="edge">
<title>S1&#45;&gt;S6</title>
<path fill="none" stroke="black" d="M569.56,-526.07C608.76,-495.55 700,-414.73 700,-323.5 700,-323.5 700,-323.5 700,-191 700,-121.8 455.25,-108.93 360.16,-106.54"/>
<polygon fill="black" stroke="black" points="360.19,-103.04 350.11,-106.32 360.03,-110.04 360.19,-103.04"/>
<text text-anchor="middle" x="712.5" y="-318.8" font-family="Times,serif" font-size="14.00">t12</text>
</g>
<!-- S22&#45;&gt;S2 -->
<g id="edge24" class="edge">
<title>S22&#45;&gt;S2</title>
<path fill="none" stroke="black" d="M440,-521.8C440,-510.16 440,-494.55 440,-481.24"/>
<polygon fill="black" stroke="black" points="443.5,-481.18 440,-471.18 436.5,-481.18 443.5,-481.18"/>
<text text-anchor="middle" x="448" y="-492.8" font-family="Times,serif" font-size="14.00">t1</text>
</g>
<!-- S22&#45;&gt;S2 -->
<g id="edge25" class="edge">
<title>S22&#45;&gt;S2</title>
<path fill="none" stroke="black" d="M423.81,-524.8C414.85,-515.15 406.37,-501.84 411,-489 412.68,-484.33 415.29,-479.84 418.27,-475.72"/>
<polygon fill="black" stroke="black" points="421.08,-477.81 424.72,-467.86 415.67,-473.37 421.08,-477.81"/>
<text text-anchor="middle" x="423.5" y="-492.8" font-family="Times,serif" font-size="14.00">t13</text>
</g>
<!-- S9 -->
<g id="node22" class="node">
<title>S9</title>
<ellipse fill="#ffeeee" stroke="black" cx="657" cy="-105" rx="27" ry="18"/>
<text text-anchor="middle" x="657" y="-101.3" font-family="Times,serif" font-size="14.00">S9</text>
</g>
<!-- S22&#45;&gt;S9 -->
<g id="edge27" class="edge">
<title>S22&#45;&gt;S9</title>
<path fill="none" stroke="black" d="M464.7,-530.61C478.18,-524.94 494.26,-516.23 505,-504 605.09,-390.07 642.36,-203.34 653.23,-133.5"/>
<polygon fill="black" stroke="black" points="656.73,-133.73 654.75,-123.32 649.81,-132.69 656.73,-133.73"/>
<text text-anchor="middle" x="619.5" y="-318.8" font-family="Times,serif" font-size="14.00">t12</text>
</g>
<!-- S19 -->
<g id="node24" class="node">
<title>S19</title>
<ellipse fill="#ffffff" stroke="black" cx="335" cy="-453" rx="28.7" ry="18"/>
<text text-anchor="middle" x="335" y="-449.3" font-family="Times,serif" font-size="14.00">S19</text>
</g>
<!-- S22&#45;&gt;S19 -->
<g id="edge26" class="edge">
<title>S22&#45;&gt;S19</title>
<path fill="none" stroke="black" d="M420.59,-526.26C411.15,-519.85 399.77,-511.81 390,-504 378.86,-495.1 367.1,-484.57 357.32,-475.48"/>
<polygon fill="black" stroke="black" points="359.63,-472.85 349.95,-468.55 354.84,-477.95 359.63,-472.85"/>
<text text-anchor="middle" x="398" y="-492.8" font-family="Times,serif" font-size="14.00">t5</text>
</g>
<!-- S23&#45;&gt;S15 -->
<g id="edge28" class="edge">
<title>S23&#45;&gt;S15</title>
<path fill="none" stroke="black" d="M541.35,-698.75C529.4,-688.22 512.27,-673.9 496,-663 485.46,-655.94 473.35,-649.1 462.46,-643.38"/>
<polygon fill="black" stroke="black" points="463.77,-640.11 453.28,-638.65 460.57,-646.34 463.77,-640.11"/>
<text text-anchor="middle" x="523" y="-666.8" font-family="Times,serif" font-size="14.00">t1</text>
</g>
<!-- S23&#45;&gt;S15 -->
<g id="edge30" class="edge">
<title>S23&#45;&gt;S15</title>
<path fill="none" stroke="black" d="M532.66,-704.48C524.53,-701.7 515.4,-698.64 507,-696 479.63,-687.38 465.19,-698.39 445,-678 439.02,-671.97 435.55,-663.6 433.55,-655.44"/>
<polygon fill="black" stroke="black" points="436.95,-654.61 431.72,-645.4 430.07,-655.86 436.95,-654.61"/>
<text text-anchor="middle" x="457.5" y="-666.8" font-family="Times,serif" font-size="14.00">t13</text>
</g>
<!-- S23&#45;&gt;S21 -->
<g id="edge29" class="edge">
<title>S23&#45;&gt;S21</title>
<path fill="none" stroke="black" d="M552.06,-696.21C548.57,-684.33 543.81,-668.17 539.81,-654.56"/>
<polygon fill="black" stroke="black" points="543.11,-653.36 536.93,-644.76 536.39,-655.34 543.11,-653.36"/>
<text text-anchor="middle" x="553" y="-666.8" font-family="Times,serif" font-size="14.00">t2</text>
</g>
<!-- S23&#45;&gt;S21 -->
<g id="edge31" class="edge">
<title>S23&#45;&gt;S21</title>
<path fill="none" stroke="black" d="M563.97,-696.31C567.09,-686.35 569.22,-673.62 565,-663 563.01,-657.99 559.92,-653.27 556.42,-649.03"/>
<polygon fill="black" stroke="black" points="558.74,-646.39 549.35,-641.49 553.64,-651.18 558.74,-646.39"/>
<text text-anchor="middle" x="579.5" y="-666.8" font-family="Times,serif" font-size="14.00">t17</text>
</g>
<!-- S10 -->
<g id="node21" class="node">
<title>S10</title>
<ellipse fill="#ffffff" stroke="black" cx="517" cy="-279" rx="28.7" ry="18"/>
<text text-anchor="middle" x="517" y="-275.3" font-family="Times,serif" font-size="14.00">S10</text>
</g>
<!-- S23&#45;&gt;S10 -->
<g id="edge32" class="edge">
<title>S23&#45;&gt;S10</title>
<path fill="none" stroke="black" d="M583.47,-706.81C599.7,-701.69 619.67,-692.79 632,-678 702.82,-593 729.1,-536.89 686,-435 678.52,-417.31 586.27,-338.2 541.32,-300.33"/>
<polygon fill="black" stroke="black" points="543.41,-297.52 533.5,-293.77 538.91,-302.88 543.41,-297.52"/>
<text text-anchor="middle" x="717.5" y="-492.8" font-family="Times,serif" font-size="14.00">t12</text>
</g>
<!-- S12&#45;&gt;S8 -->
<g id="edge33" class="edge">
<title>S12&#45;&gt;S8</title>
<path fill="none" stroke="black" d="M434.04,-265.37C449.72,-255.07 472.61,-240.28 493,-228 503.65,-221.59 515.49,-214.82 525.96,-208.95"/>
<polygon fill="black" stroke="black" points="527.7,-211.99 534.73,-204.07 524.29,-205.87 527.7,-211.99"/>
<text text-anchor="middle" x="501" y="-231.8" font-family="Times,serif" font-size="14.00">t7</text>
</g>
<!-- S12&#45;&gt;S7 -->
<g id="edge34" class="edge">
<title>S12&#45;&gt;S7</title>
<path fill="none" stroke="black" d="M411.56,-260.8C410.33,-250.9 410.08,-238.4 414,-228 445.94,-143.37 529.49,-70.8 572.14,-37.87"/>
<polygon fill="black" stroke="black" points="574.49,-40.48 580.34,-31.64 570.26,-34.91 574.49,-40.48"/>
<text text-anchor="middle" x="476.5" y="-144.8" font-family="Times,serif" font-size="14.00">t11</text>
</g>
<!-- S4&#45;&gt;S5 -->
<g id="edge35" class="edge">
<title>S4&#45;&gt;S5</title>
<path fill="none" stroke="black" d="M233,-260.8C233,-249.16 233,-233.55 233,-220.24"/>
<polygon fill="black" stroke="black" points="236.5,-220.18 233,-210.18 229.5,-220.18 236.5,-220.18"/>
<text text-anchor="middle" x="241" y="-231.8" font-family="Times,serif" font-size="14.00">t7</text>
</g>
<!-- S17&#45;&gt;S3 -->
<g id="edge36" class="edge">
<title>S17&#45;&gt;S3</title>
<path fill="none" stroke="black" d="M192.55,-610.44C183.52,-597.23 171.56,-577.37 166,-558 146.85,-491.29 121.87,-460.64 159,-402 167.59,-388.44 183,-380.03 197.54,-374.87"/>
<polygon fill="black" stroke="black" points="198.88,-378.12 207.38,-371.79 196.79,-371.44 198.88,-378.12"/>
<text text-anchor="middle" x="161.5" y="-492.8" font-family="Times,serif" font-size="14.00">t11</text>
</g>
<!-- S17&#45;&gt;S18 -->
<g id="edge37" class="edge">
<title>S17&#45;&gt;S18</title>
<path fill="none" stroke="black" d="M204,-608.8C204,-597.16 204,-581.55 204,-568.24"/>
<polygon fill="black" stroke="black" points="207.5,-568.18 204,-558.18 200.5,-568.18 207.5,-568.18"/>
<text text-anchor="middle" x="212" y="-579.8" font-family="Times,serif" font-size="14.00">t7</text>
</g>
<!-- S20 -->
<g id="node13" class="node">
<title>S20</title>
<ellipse fill="#ffffff" stroke="black" cx="202" cy="-453" rx="28.7" ry="18"/>
<text text-anchor="middle" x="202" y="-449.3" font-family="Times,serif" font-size="14.00">S20</text>
</g>
<!-- S20&#45;&gt;S14 -->
<g id="edge38" class="edge">
<title>S20&#45;&gt;S14</title>
<path fill="none" stroke="black" d="M218.42,-438.03C235.31,-423.7 259.52,-403.3 262,-402 289.53,-387.53 323.7,-378.49 349.35,-373.23"/>
<polygon fill="black" stroke="black" points="350.28,-376.62 359.43,-371.27 348.94,-369.75 350.28,-376.62"/>
<text text-anchor="middle" x="270" y="-405.8" font-family="Times,serif" font-size="14.00">t3</text>
</g>
<!-- S20&#45;&gt;S5 -->
<g id="edge39" class="edge">
<title>S20&#45;&gt;S5</title>
<path fill="none" stroke="black" d="M180.82,-440.61C171.83,-434.72 162.04,-426.71 156,-417 131.72,-377.98 132.59,-360.51 139,-315 144.61,-275.16 138.37,-259.01 164,-228 173.07,-217.03 186.45,-209.14 199.03,-203.67"/>
<polygon fill="black" stroke="black" points="200.4,-206.89 208.4,-199.94 197.82,-200.38 200.4,-206.89"/>
<text text-anchor="middle" x="151.5" y="-318.8" font-family="Times,serif" font-size="14.00">t11</text>
</g>
<!-- S14&#45;&gt;S12 -->
<g id="edge41" class="edge">
<title>S14&#45;&gt;S12</title>
<path fill="none" stroke="black" d="M384.73,-347.86C384.06,-337.98 384.31,-325.48 388,-315 389.46,-310.85 391.63,-306.8 394.1,-303.01"/>
<polygon fill="black" stroke="black" points="397.1,-304.85 400.27,-294.74 391.48,-300.67 397.1,-304.85"/>
<text text-anchor="middle" x="396" y="-318.8" font-family="Times,serif" font-size="14.00">t2</text>
</g>
<!-- S14&#45;&gt;S12 -->
<g id="edge43" class="edge">
<title>S14&#45;&gt;S12</title>
<path fill="none" stroke="black" d="M395.95,-348.61C398.83,-342.85 401.83,-336.25 404,-330 406.57,-322.61 408.67,-314.39 410.32,-306.79"/>
<polygon fill="black" stroke="black" points="413.76,-307.43 412.3,-296.94 406.9,-306.06 413.76,-307.43"/>
<text text-anchor="middle" x="421.5" y="-318.8" font-family="Times,serif" font-size="14.00">t17</text>
</g>
<!-- S14&#45;&gt;S4 -->
<g id="edge40" class="edge">
<title>S14&#45;&gt;S4</title>
<path fill="none" stroke="black" d="M358.39,-365.12C328.06,-363.71 280.57,-356.92 251,-330 244.4,-323.99 240.22,-315.39 237.57,-307.01"/>
<polygon fill="black" stroke="black" points="240.91,-305.92 235.04,-297.09 234.12,-307.65 240.91,-305.92"/>
<text text-anchor="middle" x="259" y="-318.8" font-family="Times,serif" font-size="14.00">t1</text>
</g>
<!-- S14&#45;&gt;S4 -->
<g id="edge42" class="edge">
<title>S14&#45;&gt;S4</title>
<path fill="none" stroke="black" d="M364.34,-354.66C350.02,-347.96 331.22,-338.86 315,-330 296.53,-319.91 276.34,-307.61 260.61,-297.74"/>
<polygon fill="black" stroke="black" points="262.24,-294.63 251.92,-292.24 258.5,-300.54 262.24,-294.63"/>
<text text-anchor="middle" x="327.5" y="-318.8" font-family="Times,serif" font-size="14.00">t13</text>
</g>
<!-- S14&#45;&gt;S10 -->
<g id="edge44" class="edge">
<title>S14&#45;&gt;S10</title>
<path fill="none" stroke="black" d="M412.99,-358.13C431.19,-352.49 455.47,-343.27 474,-330 483.83,-322.96 492.88,-313.21 500.1,-304.19"/>
<polygon fill="black" stroke="black" points="502.91,-306.28 506.2,-296.21 497.35,-302.03 502.91,-306.28"/>
<text text-anchor="middle" x="498" y="-318.8" font-family="Times,serif" font-size="14.00">t7</text>
</g>
<!-- S14&#45;&gt;S6 -->
<g id="edge45" class="edge">
<title>S14&#45;&gt;S6</title>
<path fill="none" stroke="black" d="M374.76,-349.59C358.08,-327.51 329.02,-284.89 318,-243 308.22,-205.86 312.76,-161.1 317.45,-133.09"/>
<polygon fill="black" stroke="black" points="320.9,-133.69 319.22,-123.22 314.01,-132.45 320.9,-133.69"/>
<text text-anchor="middle" x="330.5" y="-231.8" font-family="Times,serif" font-size="14.00">t11</text>
</g>
<!-- S13 -->
<g id="node15" class="node">
<title>S13</title>
<ellipse fill="#ffffff" stroke="black" cx="484" cy="-366" rx="28.7" ry="18"/>
<text text-anchor="middle" x="484" y="-362.3" font-family="Times,serif" font-size="14.00">S13</text>
</g>
<!-- S13&#45;&gt;S12 -->
<g id="edge46" class="edge">
<title>S13&#45;&gt;S12</title>
<path fill="none" stroke="black" d="M471.34,-349.41C460.94,-336.59 446.02,-318.22 434.16,-303.6"/>
<polygon fill="black" stroke="black" points="436.6,-301.05 427.58,-295.49 431.16,-305.46 436.6,-301.05"/>
<text text-anchor="middle" x="462" y="-318.8" font-family="Times,serif" font-size="14.00">t6</text>
</g>
<!-- S13&#45;&gt;S7 -->
<g id="edge47" class="edge">
<title>S13&#45;&gt;S7</title>
<path fill="none" stroke="black" d="M501.77,-351.55C517.49,-338.9 540.17,-318.7 555,-297 608.51,-218.73 605.59,-99.31 601.06,-46.15"/>
<polygon fill="black" stroke="black" points="604.54,-45.77 600.11,-36.15 597.57,-46.43 604.54,-45.77"/>
<text text-anchor="middle" x="605" y="-188.3" font-family="Times,serif" font-size="14.00">t8</text>
</g>
<!-- S8&#45;&gt;S9 -->
<g id="edge48" class="edge">
<title>S8&#45;&gt;S9</title>
<path fill="none" stroke="black" d="M571.39,-177.34C587.97,-163.53 613.79,-142.01 632.74,-126.21"/>
<polygon fill="black" stroke="black" points="635.21,-128.71 640.65,-119.62 630.73,-123.34 635.21,-128.71"/>
<text text-anchor="middle" x="620" y="-144.8" font-family="Times,serif" font-size="14.00">t3</text>
</g>
<!-- S5&#45;&gt;S6 -->
<g id="edge49" class="edge">
<title>S5&#45;&gt;S6</title>
<path fill="none" stroke="black" d="M238.45,-174.12C242.52,-163.6 248.94,-150.33 258,-141 267.06,-131.66 279.17,-124.22 290.47,-118.64"/>
<polygon fill="black" stroke="black" points="292.07,-121.76 299.69,-114.4 289.15,-115.4 292.07,-121.76"/>
<text text-anchor="middle" x="266" y="-144.8" font-family="Times,serif" font-size="14.00">t3</text>
</g>
<!-- S3&#45;&gt;S4 -->
<g id="edge50" class="edge">
<title>S3&#45;&gt;S4</title>
<path fill="none" stroke="black" d="M221.22,-349.46C217.51,-343.66 213.89,-336.83 212,-330 209.62,-321.39 211.88,-312.3 215.68,-304.26"/>
<polygon fill="black" stroke="black" points="218.81,-305.83 220.66,-295.4 212.71,-302.4 218.81,-305.83"/>
<text text-anchor="middle" x="220" y="-318.8" font-family="Times,serif" font-size="14.00">t6</text>
</g>
<!-- S18&#45;&gt;S20 -->
<g id="edge53" class="edge">
<title>S18&#45;&gt;S20</title>
<path fill="none" stroke="black" d="M198.15,-522.11C196.46,-516.43 194.84,-510.01 194,-504 192.96,-496.54 193.51,-488.48 194.7,-481.05"/>
<polygon fill="black" stroke="black" points="198.16,-481.6 196.72,-471.1 191.3,-480.2 198.16,-481.6"/>
<text text-anchor="middle" x="202" y="-492.8" font-family="Times,serif" font-size="14.00">t6</text>
</g>
<!-- S18&#45;&gt;S5 -->
<g id="edge51" class="edge">
<title>S18&#45;&gt;S5</title>
<path fill="none" stroke="black" d="M178.99,-530.91C165.75,-525.37 150.35,-516.7 141,-504 99.37,-447.45 107.33,-417.68 116,-348 122.85,-292.99 111.8,-268.17 150,-228 162.67,-214.67 181.22,-206.21 197.56,-200.94"/>
<polygon fill="black" stroke="black" points="198.77,-204.24 207.39,-198.07 196.8,-197.52 198.77,-204.24"/>
<text text-anchor="middle" x="124" y="-362.3" font-family="Times,serif" font-size="14.00">t8</text>
</g>
<!-- S18&#45;&gt;S19 -->
<g id="edge52" class="edge">
<title>S18&#45;&gt;S19</title>
<path fill="none" stroke="black" d="M223.33,-526.46C245.48,-512.08 281.98,-488.4 307.19,-472.05"/>
<polygon fill="black" stroke="black" points="309.11,-474.97 315.59,-466.59 305.3,-469.1 309.11,-474.97"/>
<text text-anchor="middle" x="286" y="-492.8" font-family="Times,serif" font-size="14.00">t3</text>
</g>
<!-- S10&#45;&gt;S8 -->
<g id="edge54" class="edge">
<title>S10&#45;&gt;S8</title>
<path fill="none" stroke="black" d="M531.87,-263.51C537.11,-257.61 542.54,-250.44 546,-243 549.27,-235.96 551.36,-227.85 552.69,-220.24"/>
<polygon fill="black" stroke="black" points="556.15,-220.71 554.07,-210.32 549.22,-219.74 556.15,-220.71"/>
<text text-anchor="middle" x="558" y="-231.8" font-family="Times,serif" font-size="14.00">t2</text>
</g>
<!-- S10&#45;&gt;S8 -->
<g id="edge55" class="edge">
<title>S10&#45;&gt;S8</title>
<path fill="none" stroke="black" d="M513.71,-261.1C512.54,-251.07 512.47,-238.33 517,-228 519.65,-221.96 523.91,-216.51 528.63,-211.8"/>
<polygon fill="black" stroke="black" points="531.11,-214.28 536.29,-205.03 526.48,-209.03 531.11,-214.28"/>
<text text-anchor="middle" x="529.5" y="-231.8" font-family="Times,serif" font-size="14.00">t17</text>
</g>
<!-- S10&#45;&gt;S5 -->
<g id="edge56" class="edge">
<title>S10&#45;&gt;S5</title>
<path fill="none" stroke="black" d="M491.24,-270.8C466.52,-263.84 428.14,-252.93 395,-243 373.59,-236.58 368.35,-234.61 347,-228 320.07,-219.66 289.54,-210.29 266.86,-203.35"/>
<polygon fill="black" stroke="black" points="267.62,-199.92 257.03,-200.34 265.57,-206.61 267.62,-199.92"/>
<text text-anchor="middle" x="403" y="-231.8" font-family="Times,serif" font-size="14.00">t1</text>
</g>
<!-- S10&#45;&gt;S5 -->
<g id="edge57" class="edge">
<title>S10&#45;&gt;S5</title>
<path fill="none" stroke="black" d="M494.3,-267.77C479.15,-260.89 458.81,-251.55 441,-243 427.56,-236.55 425.11,-232.82 411,-228 363.53,-211.8 306.22,-202.21 269.7,-197.27"/>
<polygon fill="black" stroke="black" points="269.89,-193.77 259.52,-195.95 268.98,-200.71 269.89,-193.77"/>
<text text-anchor="middle" x="453.5" y="-231.8" font-family="Times,serif" font-size="14.00">t13</text>
</g>
<!-- S9&#45;&gt;S7 -->
<g id="edge58" class="edge">
<title>S9&#45;&gt;S7</title>
<path fill="none" stroke="black" d="M645.72,-88.37C641.4,-82.34 636.44,-75.37 632,-69 626.18,-60.65 619.89,-51.46 614.33,-43.25"/>
<polygon fill="black" stroke="black" points="617.13,-41.15 608.63,-34.83 611.33,-45.07 617.13,-41.15"/>
<text text-anchor="middle" x="640" y="-57.8" font-family="Times,serif" font-size="14.00">t1</text>
</g>
<!-- S9&#45;&gt;S7 -->
<g id="edge59" class="edge">
<title>S9&#45;&gt;S7</title>
<path fill="none" stroke="black" d="M657.1,-86.61C656.4,-76.4 654.18,-63.66 648,-54 643.08,-46.3 635.79,-39.82 628.3,-34.6"/>
<polygon fill="black" stroke="black" points="629.86,-31.45 619.54,-29.07 626.13,-37.37 629.86,-31.45"/>
<text text-anchor="middle" x="666.5" y="-57.8" font-family="Times,serif" font-size="14.00">t13</text>
</g>
<!-- S6&#45;&gt;S7 -->
<g id="edge60" class="edge">
<title>S6&#45;&gt;S7</title>
<path fill="none" stroke="black" d="M317.4,-87.18C314.96,-76.42 314.19,-62.86 322,-54 337.53,-36.38 488.8,-25.33 560.57,-21.04"/>
<polygon fill="black" stroke="black" points="561.19,-24.51 570.97,-20.43 560.78,-17.52 561.19,-24.51"/>
<text text-anchor="middle" x="330" y="-57.8" font-family="Times,serif" font-size="14.00">t2</text>
</g>
<!-- S6&#45;&gt;S7 -->
<g id="edge61" class="edge">
<title>S6&#45;&gt;S7</title>
<path fill="none" stroke="black" d="M330.97,-87.77C337.44,-76.4 347.67,-61.88 361,-54 394.12,-34.43 503.12,-24.87 561.05,-21.07"/>
<polygon fill="black" stroke="black" points="561.48,-24.55 571.24,-20.42 561.04,-17.56 561.48,-24.55"/>
<text text-anchor="middle" x="373.5" y="-57.8" font-family="Times,serif" font-size="14.00">t17</text>
</g>
<!-- S19&#45;&gt;S14 -->
<g id="edge62" class="edge">
<title>S19&#45;&gt;S14</title>
<path fill="none" stroke="black" d="M360.05,-443.92C372.62,-438.45 386.69,-429.83 394,-417 397.98,-410.01 398.21,-401.6 396.86,-393.7"/>
<polygon fill="black" stroke="black" points="400.19,-392.6 394.37,-383.75 393.4,-394.3 400.19,-392.6"/>
<text text-anchor="middle" x="406" y="-405.8" font-family="Times,serif" font-size="14.00">t6</text>
</g>
<!-- S19&#45;&gt;S13 -->
<g id="edge63" class="edge">
<title>S19&#45;&gt;S13</title>
<path fill="none" stroke="black" d="M359.37,-443.56C376.32,-437.25 399.18,-427.87 418,-417 432.77,-408.47 448.02,-397.11 460.14,-387.37"/>
<polygon fill="black" stroke="black" points="462.47,-389.99 467.98,-380.95 458.03,-384.58 462.47,-389.99"/>
<text text-anchor="middle" x="449" y="-405.8" font-family="Times,serif" font-size="14.00">t2</text>
</g>
<!-- S19&#45;&gt;S13 -->
<g id="edge64" class="edge">
<title>S19&#45;&gt;S13</title>
<path fill="none" stroke="black" d="M360.99,-445.38C396.73,-436.18 457.12,-420.3 461,-417 468.11,-410.95 473.15,-402.22 476.65,-393.76"/>
<polygon fill="black" stroke="black" points="480.03,-394.7 480.1,-384.11 473.44,-392.35 480.03,-394.7"/>
<text text-anchor="middle" x="485.5" y="-405.8" font-family="Times,serif" font-size="14.00">t17</text>
</g>
<!-- S19&#45;&gt;S3 -->
<g id="edge65" class="edge">
<title>S19&#45;&gt;S3</title>
<path fill="none" stroke="black" d="M309.63,-444.59C278.51,-435.39 229.52,-420.47 227,-417 222.16,-410.34 221.69,-401.81 223.04,-393.68"/>
<polygon fill="black" stroke="black" points="226.48,-394.34 225.52,-383.79 219.69,-392.64 226.48,-394.34"/>
<text text-anchor="middle" x="235" y="-405.8" font-family="Times,serif" font-size="14.00">t1</text>
</g>
<!-- S19&#45;&gt;S3 -->
<g id="edge66" class="edge">
<title>S19&#45;&gt;S3</title>
<path fill="none" stroke="black" d="M320.19,-436.99C309.83,-426.75 295.48,-413.09 282,-402 275.04,-396.27 267.2,-390.43 259.88,-385.2"/>
<polygon fill="black" stroke="black" points="261.79,-382.27 251.59,-379.39 257.77,-388 261.79,-382.27"/>
<text text-anchor="middle" x="311.5" y="-405.8" font-family="Times,serif" font-size="14.00">t13</text>
</g>
<!-- S19&#45;&gt;S6 -->
<g id="edge67" class="edge">
<title>S19&#45;&gt;S6</title>
<path fill="none" stroke="black" d="M332.64,-434.87C331.3,-425.21 329.58,-412.93 328,-402 322.4,-363.31 328.35,-351.75 315,-315 311.8,-306.19 306.54,-306.03 304,-297 299.67,-281.6 303.54,-276.99 304,-261 305.11,-222.29 306.72,-212.66 309,-174 309.87,-159.33 308.15,-155.41 311,-141 311.57,-138.11 312.33,-135.12 313.18,-132.18"/>
<polygon fill="black" stroke="black" points="316.57,-133.07 316.33,-122.48 309.91,-130.91 316.57,-133.07"/>
<text text-anchor="middle" x="312" y="-275.3" font-family="Times,serif" font-size="14.00">t8</text>
</g>
</g>
</svg>
