<?xml version="1.0" encoding="UTF-8" standalone="no"?>
<!DOCTYPE svg PUBLIC "-//W3C//DTD SVG 1.1//EN"
 "http://www.w3.org/Graphics/SVG/1.1/DTD/svg11.dtd">
<!-- Generated by graphviz version 2.43.0 (0)
 -->
<!-- Title: SCdebug/3 Pages: 1 -->
<svg width="540pt" height="1055pt"
 viewBox="0.00 0.00 540.00 1054.53" xmlns="http://www.w3.org/2000/svg" xmlns:xlink="http://www.w3.org/1999/xlink">
<g id="graph0" class="graph" transform="scale(1 1) rotate(0) translate(4 1050.53)">
<title>SCdebug/3</title>
<polygon fill="white" stroke="transparent" points="-4,4 -4,-1050.53 536,-1050.53 536,4 -4,4"/>
<!-- R011_L13e -->
<g id="node1" class="node">
<title>R011_L13e</title>
<ellipse fill="none" stroke="black" cx="162" cy="-980.14" rx="62.3" ry="62.3"/>
<ellipse fill="none" stroke="black" cx="162" cy="-980.14" rx="66.29" ry="66.29"/>
<text text-anchor="middle" x="162" y="-976.44" font-family="Times,serif" font-size="14.00">R011_L13e</text>
</g>
<!-- R111_L13e -->
<g id="node2" class="node">
<title>R111_L13e</title>
<ellipse fill="none" stroke="black" cx="111" cy="-796.35" rx="62.3" ry="62.3"/>
<ellipse fill="none" stroke="black" cx="111" cy="-796.35" rx="66.29" ry="66.29"/>
<text text-anchor="middle" x="111" y="-792.65" font-family="Times,serif" font-size="14.00">R111_L13e</text>
</g>
<!-- R011_L13e&#45;&gt;R111_L13e -->
<g id="edge1" class="edge">
<title>R011_L13e&#45;&gt;R111_L13e</title>
<path fill="none" stroke="black" d="M144.31,-916.07C140.18,-901.35 135.74,-885.55 131.5,-870.43"/>
<polygon fill="black" stroke="black" points="134.82,-869.3 128.75,-860.62 128.08,-871.19 134.82,-869.3"/>
<text text-anchor="middle" x="155.5" y="-884.55" font-family="Times,serif" font-size="14.00">t1R1</text>
</g>
<!-- R011_L1ee -->
<g id="node5" class="node">
<title>R011_L1ee</title>
<ellipse fill="none" stroke="black" cx="151" cy="-248.23" rx="61.99" ry="61.99"/>
<text text-anchor="middle" x="151" y="-244.53" font-family="Times,serif" font-size="14.00">R011_L1ee</text>
</g>
<!-- R011_L13e&#45;&gt;R011_L1ee -->
<g id="edge4" class="edge">
<title>R011_L13e&#45;&gt;R011_L1ee</title>
<path fill="none" stroke="black" d="M104.88,-946.26C58.24,-914.67 0,-862.24 0,-797.35 0,-797.35 0,-797.35 0,-429.72 0,-370.23 48.86,-320.02 90.99,-287.78"/>
<polygon fill="black" stroke="black" points="93.11,-290.56 99.03,-281.78 88.93,-284.95 93.11,-290.56"/>
<text text-anchor="middle" x="17.5" y="-609.51" font-family="Times,serif" font-size="14.00">t8R3</text>
</g>
<!-- R111_Le3e -->
<g id="node7" class="node">
<title>R111_Le3e</title>
<ellipse fill="none" stroke="black" cx="403" cy="-796.35" rx="61.98" ry="61.98"/>
<ellipse fill="none" stroke="black" cx="403" cy="-796.35" rx="65.99" ry="65.99"/>
<text text-anchor="middle" x="403" y="-792.65" font-family="Times,serif" font-size="14.00">R111_Le3e</text>
</g>
<!-- R011_L13e&#45;&gt;R111_Le3e -->
<g id="edge2" class="edge">
<title>R011_L13e&#45;&gt;R111_Le3e</title>
<path fill="none" stroke="black" d="M217.25,-942.55C250.05,-920.3 292.11,-890.85 328,-862.75 334.12,-857.95 340.41,-852.82 346.61,-847.63"/>
<polygon fill="black" stroke="black" points="349.04,-850.16 354.41,-841.02 344.52,-844.82 349.04,-850.16"/>
<text text-anchor="middle" x="309" y="-884.55" font-family="Times,serif" font-size="14.00">t2</text>
</g>
<!-- R010_L1ee -->
<g id="node11" class="node">
<title>R010_L1ee</title>
<ellipse fill="none" stroke="black" cx="257" cy="-796.35" rx="61.99" ry="61.99"/>
<text text-anchor="middle" x="257" y="-792.65" font-family="Times,serif" font-size="14.00">R010_L1ee</text>
</g>
<!-- R011_L13e&#45;&gt;R010_L1ee -->
<g id="edge3" class="edge">
<title>R011_L13e&#45;&gt;R010_L1ee</title>
<path fill="none" stroke="black" d="M192.45,-920.87C202.52,-901.6 213.77,-880.07 224.02,-860.45"/>
<polygon fill="black" stroke="black" points="227.13,-862.07 228.66,-851.59 220.92,-858.83 227.13,-862.07"/>
<text text-anchor="middle" x="220" y="-884.55" font-family="Times,serif" font-size="14.00">t6</text>
</g>
<!-- R110_L1ee -->
<g id="node3" class="node">
<title>R110_L1ee</title>
<ellipse fill="none" stroke="black" cx="115" cy="-613.21" rx="61.99" ry="61.99"/>
<text text-anchor="middle" x="115" y="-609.51" font-family="Times,serif" font-size="14.00">R110_L1ee</text>
</g>
<!-- R111_L13e&#45;&gt;R110_L1ee -->
<g id="edge5" class="edge">
<title>R111_L13e&#45;&gt;R110_L1ee</title>
<path fill="none" stroke="black" d="M112.44,-729.96C112.77,-715.38 113.11,-699.86 113.44,-685.08"/>
<polygon fill="black" stroke="black" points="116.94,-685.06 113.66,-674.98 109.94,-684.91 116.94,-685.06"/>
<text text-anchor="middle" x="122" y="-700.76" font-family="Times,serif" font-size="14.00">t6</text>
</g>
<!-- R111_L1e2 -->
<g id="node4" class="node">
<title>R111_L1e2</title>
<ellipse fill="none" stroke="black" cx="151" cy="-430.72" rx="62.29" ry="62.29"/>
<text text-anchor="middle" x="151" y="-427.02" font-family="Times,serif" font-size="14.00">R111_L1e2</text>
</g>
<!-- R110_L1ee&#45;&gt;R111_L1e2 -->
<g id="edge6" class="edge">
<title>R110_L1ee&#45;&gt;R111_L1e2</title>
<path fill="none" stroke="black" d="M126.89,-552.61C130.09,-536.54 133.59,-519 136.91,-502.39"/>
<polygon fill="black" stroke="black" points="140.42,-502.68 138.94,-492.18 133.55,-501.31 140.42,-502.68"/>
<text text-anchor="middle" x="142" y="-518.27" font-family="Times,serif" font-size="14.00">t7</text>
</g>
<!-- R111_L1e2&#45;&gt;R011_L1ee -->
<g id="edge7" class="edge">
<title>R111_L1e2&#45;&gt;R011_L1ee</title>
<path fill="none" stroke="black" d="M151,-368.11C151,-352.78 151,-336.22 151,-320.47"/>
<polygon fill="black" stroke="black" points="154.5,-320.26 151,-310.26 147.5,-320.26 154.5,-320.26"/>
<text text-anchor="middle" x="159" y="-335.78" font-family="Times,serif" font-size="14.00">t3</text>
</g>
<!-- R111_Leee -->
<g id="node6" class="node">
<title>R111_Leee</title>
<ellipse fill="none" stroke="black" cx="335" cy="-65.74" rx="61.98" ry="61.98"/>
<ellipse fill="none" stroke="black" cx="335" cy="-65.74" rx="65.99" ry="65.99"/>
<text text-anchor="middle" x="335" y="-62.04" font-family="Times,serif" font-size="14.00">R111_Leee</text>
</g>
<!-- R011_L1ee&#45;&gt;R111_Leee -->
<g id="edge8" class="edge">
<title>R011_L1ee&#45;&gt;R111_Leee</title>
<path fill="none" stroke="black" d="M194.61,-204.46C220.55,-179.01 253.69,-146.51 281.25,-119.47"/>
<polygon fill="black" stroke="black" points="283.8,-121.87 288.49,-112.37 278.9,-116.87 283.8,-121.87"/>
<text text-anchor="middle" x="256" y="-153.29" font-family="Times,serif" font-size="14.00">t2</text>
</g>
<!-- R111_Le3e&#45;&gt;R111_Leee -->
<g id="edge10" class="edge">
<title>R111_Le3e&#45;&gt;R111_Leee</title>
<path fill="none" stroke="black" d="M445.05,-745.78C470.08,-711.21 497,-662.75 497,-614.21 497,-614.21 497,-614.21 497,-247.23 497,-186.39 445.38,-136.72 400.42,-105.01"/>
<polygon fill="black" stroke="black" points="402.34,-102.08 392.12,-99.29 398.37,-107.85 402.34,-102.08"/>
<text text-anchor="middle" x="514.5" y="-427.02" font-family="Times,serif" font-size="14.00">t8R3</text>
</g>
<!-- R110_Leee -->
<g id="node8" class="node">
<title>R110_Leee</title>
<ellipse fill="none" stroke="black" cx="403" cy="-613.21" rx="61.98" ry="61.98"/>
<ellipse fill="none" stroke="black" cx="403" cy="-613.21" rx="65.99" ry="65.99"/>
<text text-anchor="middle" x="403" y="-609.51" font-family="Times,serif" font-size="14.00">R110_Leee</text>
</g>
<!-- R111_Le3e&#45;&gt;R110_Leee -->
<g id="edge9" class="edge">
<title>R111_Le3e&#45;&gt;R110_Leee</title>
<path fill="none" stroke="black" d="M403,-730.47C403,-717.2 403,-703.13 403,-689.54"/>
<polygon fill="black" stroke="black" points="406.5,-689.25 403,-679.25 399.5,-689.25 406.5,-689.25"/>
<text text-anchor="middle" x="411" y="-700.76" font-family="Times,serif" font-size="14.00">t6</text>
</g>
<!-- R111_Lee2 -->
<g id="node9" class="node">
<title>R111_Lee2</title>
<ellipse fill="none" stroke="black" cx="335" cy="-430.72" rx="61.98" ry="61.98"/>
<ellipse fill="none" stroke="black" cx="335" cy="-430.72" rx="65.99" ry="65.99"/>
<text text-anchor="middle" x="335" y="-427.02" font-family="Times,serif" font-size="14.00">R111_Lee2</text>
</g>
<!-- R110_Leee&#45;&gt;R111_Lee2 -->
<g id="edge11" class="edge">
<title>R110_Leee&#45;&gt;R111_Lee2</title>
<path fill="none" stroke="black" d="M380.07,-551.36C374.11,-535.53 367.64,-518.35 361.51,-502.08"/>
<polygon fill="black" stroke="black" points="364.74,-500.74 357.94,-492.62 358.19,-503.21 364.74,-500.74"/>
<text text-anchor="middle" x="379" y="-518.27" font-family="Times,serif" font-size="14.00">t7</text>
</g>
<!-- R011_Leee -->
<g id="node10" class="node">
<title>R011_Leee</title>
<ellipse fill="none" stroke="black" cx="335" cy="-248.23" rx="61.98" ry="61.98"/>
<ellipse fill="none" stroke="black" cx="335" cy="-248.23" rx="65.99" ry="65.99"/>
<text text-anchor="middle" x="335" y="-244.53" font-family="Times,serif" font-size="14.00">R011_Leee</text>
</g>
<!-- R111_Lee2&#45;&gt;R011_Leee -->
<g id="edge12" class="edge">
<title>R111_Lee2&#45;&gt;R011_Leee</title>
<path fill="none" stroke="black" d="M335,-364.82C335,-351.69 335,-337.78 335,-324.34"/>
<polygon fill="black" stroke="black" points="338.5,-324.17 335,-314.17 331.5,-324.17 338.5,-324.17"/>
<text text-anchor="middle" x="343" y="-335.78" font-family="Times,serif" font-size="14.00">t3</text>
</g>
<!-- R011_Leee&#45;&gt;R111_Leee -->
<g id="edge13" class="edge">
<title>R011_Leee&#45;&gt;R111_Leee</title>
<path fill="none" stroke="black" d="M335,-182.33C335,-169.2 335,-155.3 335,-141.85"/>
<polygon fill="black" stroke="black" points="338.5,-141.68 335,-131.68 331.5,-141.68 338.5,-141.68"/>
<text text-anchor="middle" x="352.5" y="-153.29" font-family="Times,serif" font-size="14.00">t1R1</text>
</g>
<!-- R010_L1ee&#45;&gt;R110_L1ee -->
<g id="edge14" class="edge">
<title>R010_L1ee&#45;&gt;R110_L1ee</title>
<path fill="none" stroke="black" d="M219.32,-747.28C200.79,-723.65 178.35,-695.02 159.03,-670.38"/>
<polygon fill="black" stroke="black" points="161.53,-667.9 152.61,-662.19 156.03,-672.22 161.53,-667.9"/>
<text text-anchor="middle" x="207.5" y="-700.76" font-family="Times,serif" font-size="14.00">t1R1</text>
</g>
<!-- R010_L1ee&#45;&gt;R110_Leee -->
<g id="edge15" class="edge">
<title>R010_L1ee&#45;&gt;R110_Leee</title>
<path fill="none" stroke="black" d="M295.36,-747.76C313.8,-724.87 336.09,-697.22 355.59,-673.03"/>
<polygon fill="black" stroke="black" points="358.53,-674.96 362.09,-664.97 353.08,-670.56 358.53,-674.96"/>
<text text-anchor="middle" x="342" y="-700.76" font-family="Times,serif" font-size="14.00">t2</text>
</g>
<!-- R011_L1e2 -->
<g id="node12" class="node">
<title>R011_L1e2</title>
<ellipse fill="none" stroke="black" cx="257" cy="-613.21" rx="62.29" ry="62.29"/>
<text text-anchor="middle" x="257" y="-609.51" font-family="Times,serif" font-size="14.00">R011_L1e2</text>
</g>
<!-- R010_L1ee&#45;&gt;R011_L1e2 -->
<g id="edge16" class="edge">
<title>R010_L1ee&#45;&gt;R011_L1e2</title>
<path fill="none" stroke="black" d="M257,-734.53C257,-719.02 257,-702.19 257,-686.18"/>
<polygon fill="black" stroke="black" points="260.5,-685.8 257,-675.8 253.5,-685.8 260.5,-685.8"/>
<text text-anchor="middle" x="265" y="-700.76" font-family="Times,serif" font-size="14.00">t7</text>
</g>
<!-- R011_L1e2&#45;&gt;R111_L1e2 -->
<g id="edge17" class="edge">
<title>R011_L1e2&#45;&gt;R111_L1e2</title>
<path fill="none" stroke="black" d="M225.77,-559.04C213.69,-538.47 199.79,-514.8 187.28,-493.49"/>
<polygon fill="black" stroke="black" points="190.27,-491.68 182.19,-484.83 184.24,-495.23 190.27,-491.68"/>
<text text-anchor="middle" x="224.5" y="-518.27" font-family="Times,serif" font-size="14.00">t1R1</text>
</g>
<!-- R011_L1e2&#45;&gt;R111_Lee2 -->
<g id="edge18" class="edge">
<title>R011_L1e2&#45;&gt;R111_Lee2</title>
<path fill="none" stroke="black" d="M281.47,-555.6C289,-538.17 297.38,-518.78 305.22,-500.62"/>
<polygon fill="black" stroke="black" points="308.52,-501.82 309.27,-491.25 302.09,-499.04 308.52,-501.82"/>
<text text-anchor="middle" x="306" y="-518.27" font-family="Times,serif" font-size="14.00">t2</text>
</g>
</g>
</svg>
