<?xml version="1.0" encoding="UTF-8" standalone="no"?>
<!DOCTYPE svg PUBLIC "-//W3C//DTD SVG 1.1//EN"
 "http://www.w3.org/Graphics/SVG/1.1/DTD/svg11.dtd">
<!-- Generated by graphviz version 2.43.0 (0)
 -->
<!-- Title: SCdebug/45 Pages: 1 -->
<svg width="870pt" height="914pt"
 viewBox="0.00 0.00 870.00 914.00" xmlns="http://www.w3.org/2000/svg" xmlns:xlink="http://www.w3.org/1999/xlink">
<g id="graph0" class="graph" transform="scale(1 1) rotate(0) translate(4 910)">
<title>SCdebug/45</title>
<polygon fill="white" stroke="transparent" points="-4,4 -4,-910 866,-910 866,4 -4,4"/>
<!-- S11 -->
<g id="node1" class="node">
<title>S11</title>
<ellipse fill="none" stroke="black" cx="686" cy="-714" rx="28.7" ry="18"/>
<text text-anchor="middle" x="686" y="-710.3" font-family="Times,serif" font-size="14.00">S11</text>
</g>
<!-- S26 -->
<g id="node6" class="node">
<title>S26</title>
<ellipse fill="#ffffff" stroke="black" cx="699" cy="-627" rx="28.7" ry="18"/>
<text text-anchor="middle" x="699" y="-623.3" font-family="Times,serif" font-size="14.00">S26</text>
</g>
<!-- S11&#45;&gt;S26 -->
<g id="edge2" class="edge">
<title>S11&#45;&gt;S26</title>
<path fill="none" stroke="black" d="M690.99,-696.04C692.49,-690.35 694.01,-683.94 695,-678 696.22,-670.73 697.07,-662.8 697.66,-655.44"/>
<polygon fill="black" stroke="black" points="701.17,-655.43 698.35,-645.21 694.18,-654.95 701.17,-655.43"/>
<text text-anchor="middle" x="704" y="-666.8" font-family="Times,serif" font-size="14.00">t7</text>
</g>
<!-- S4 -->
<g id="node14" class="node">
<title>S4</title>
<ellipse fill="#ffffff" stroke="black" cx="457" cy="-279" rx="27" ry="18"/>
<text text-anchor="middle" x="457" y="-275.3" font-family="Times,serif" font-size="14.00">S4</text>
</g>
<!-- S11&#45;&gt;S4 -->
<g id="edge1" class="edge">
<title>S11&#45;&gt;S4</title>
<path fill="none" stroke="black" d="M667.65,-700.06C660.83,-694.18 653.82,-686.6 650,-678 639.03,-653.31 647.07,-461.33 641,-435 627.91,-378.19 632.29,-352.92 588,-315 561.8,-292.57 522.68,-284.35 494.01,-281.42"/>
<polygon fill="black" stroke="black" points="494.23,-277.93 483.97,-280.57 493.63,-284.9 494.23,-277.93"/>
<text text-anchor="middle" x="655.5" y="-492.8" font-family="Times,serif" font-size="14.00">t12</text>
</g>
<!-- S17 -->
<g id="node2" class="node">
<title>S17</title>
<ellipse fill="#ffeeee" stroke="black" cx="457" cy="-714" rx="28.7" ry="18"/>
<text text-anchor="middle" x="457" y="-710.3" font-family="Times,serif" font-size="14.00">S17</text>
</g>
<!-- S2 -->
<g id="node5" class="node">
<title>S2</title>
<ellipse fill="#ffeeee" stroke="black" cx="605" cy="-453" rx="27" ry="18"/>
<text text-anchor="middle" x="605" y="-449.3" font-family="Times,serif" font-size="14.00">S2</text>
</g>
<!-- S17&#45;&gt;S2 -->
<g id="edge5" class="edge">
<title>S17&#45;&gt;S2</title>
<path fill="none" stroke="black" d="M461.09,-695.97C467.65,-672.53 482.86,-630.74 512,-609 544.7,-584.61 574.55,-621.17 602,-591 628.93,-561.41 621.77,-511.57 613.69,-480.86"/>
<polygon fill="black" stroke="black" points="616.95,-479.52 610.85,-470.86 610.22,-481.44 616.95,-479.52"/>
<text text-anchor="middle" x="624.5" y="-579.8" font-family="Times,serif" font-size="14.00">t11</text>
</g>
<!-- S22 -->
<g id="node7" class="node">
<title>S22</title>
<ellipse fill="#ffffff" stroke="black" cx="353" cy="-627" rx="28.7" ry="18"/>
<text text-anchor="middle" x="353" y="-623.3" font-family="Times,serif" font-size="14.00">S22</text>
</g>
<!-- S17&#45;&gt;S22 -->
<g id="edge6" class="edge">
<title>S17&#45;&gt;S22</title>
<path fill="none" stroke="black" d="M429.24,-709.16C396.11,-703.93 343.71,-693.44 332,-678 326.03,-670.12 328.49,-660.3 333.46,-651.44"/>
<polygon fill="black" stroke="black" points="336.44,-653.29 339.07,-643.03 330.61,-649.41 336.44,-653.29"/>
<text text-anchor="middle" x="340" y="-666.8" font-family="Times,serif" font-size="14.00">t7</text>
</g>
<!-- S13 -->
<g id="node13" class="node">
<title>S13</title>
<ellipse fill="#ffeeee" stroke="black" cx="167" cy="-279" rx="28.7" ry="18"/>
<text text-anchor="middle" x="167" y="-275.3" font-family="Times,serif" font-size="14.00">S13</text>
</g>
<!-- S17&#45;&gt;S13 -->
<g id="edge3" class="edge">
<title>S17&#45;&gt;S13</title>
<path fill="none" stroke="black" d="M428.54,-711.66C375.98,-708.68 266.27,-699.95 236,-678 131.89,-602.48 136.07,-543.15 111,-417 109.7,-410.46 108.73,-408.27 111,-402 114.55,-392.21 120.69,-392.96 126,-384 140.63,-359.32 152.03,-328.47 159.06,-306.8"/>
<polygon fill="black" stroke="black" points="162.49,-307.56 162.15,-296.97 155.81,-305.46 162.49,-307.56"/>
<text text-anchor="middle" x="140.5" y="-492.8" font-family="Times,serif" font-size="14.00">t12</text>
</g>
<!-- S18 -->
<g id="node15" class="node">
<title>S18</title>
<ellipse fill="#ffffff" stroke="black" cx="428" cy="-627" rx="28.7" ry="18"/>
<text text-anchor="middle" x="428" y="-623.3" font-family="Times,serif" font-size="14.00">S18</text>
</g>
<!-- S17&#45;&gt;S18 -->
<g id="edge4" class="edge">
<title>S17&#45;&gt;S18</title>
<path fill="none" stroke="black" d="M451.27,-696.21C447.22,-684.33 441.7,-668.17 437.06,-654.56"/>
<polygon fill="black" stroke="black" points="440.26,-653.09 433.72,-644.76 433.63,-655.35 440.26,-653.09"/>
<text text-anchor="middle" x="452" y="-666.8" font-family="Times,serif" font-size="14.00">t5</text>
</g>
<!-- S16 -->
<g id="node3" class="node">
<title>S16</title>
<ellipse fill="#ffffff" stroke="black" cx="608" cy="-801" rx="28.7" ry="18"/>
<text text-anchor="middle" x="608" y="-797.3" font-family="Times,serif" font-size="14.00">S16</text>
</g>
<!-- S16&#45;&gt;S11 -->
<g id="edge10" class="edge">
<title>S16&#45;&gt;S11</title>
<path fill="none" stroke="black" d="M619.67,-784.18C627.36,-774.08 637.84,-760.89 648,-750 652.42,-745.27 657.36,-740.42 662.19,-735.9"/>
<polygon fill="black" stroke="black" points="664.57,-738.46 669.59,-729.13 659.85,-733.3 664.57,-738.46"/>
<text text-anchor="middle" x="656" y="-753.8" font-family="Times,serif" font-size="14.00">t1</text>
</g>
<!-- S16&#45;&gt;S11 -->
<g id="edge12" class="edge">
<title>S16&#45;&gt;S11</title>
<path fill="none" stroke="black" d="M630.72,-789.82C641.92,-783.88 654.92,-775.49 664,-765 669.82,-758.27 674.33,-749.76 677.71,-741.67"/>
<polygon fill="black" stroke="black" points="681.04,-742.76 681.28,-732.17 674.49,-740.3 681.04,-742.76"/>
<text text-anchor="middle" x="685.5" y="-753.8" font-family="Times,serif" font-size="14.00">t13</text>
</g>
<!-- S16&#45;&gt;S17 -->
<g id="edge11" class="edge">
<title>S16&#45;&gt;S17</title>
<path fill="none" stroke="black" d="M591.61,-786.11C575.23,-772.32 551.82,-752.81 547,-750 529.82,-739.96 509.22,-731.71 492.07,-725.74"/>
<polygon fill="black" stroke="black" points="493.01,-722.37 482.42,-722.5 490.78,-729 493.01,-722.37"/>
<text text-anchor="middle" x="573" y="-753.8" font-family="Times,serif" font-size="14.00">t2</text>
</g>
<!-- S16&#45;&gt;S17 -->
<g id="edge13" class="edge">
<title>S16&#45;&gt;S17</title>
<path fill="none" stroke="black" d="M582.58,-792.5C564,-786.46 538.56,-777.01 518,-765 504.3,-757 490.5,-745.99 479.51,-736.35"/>
<polygon fill="black" stroke="black" points="481.81,-733.71 472.03,-729.63 477.13,-738.92 481.81,-733.71"/>
<text text-anchor="middle" x="530.5" y="-753.8" font-family="Times,serif" font-size="14.00">t17</text>
</g>
<!-- S1 -->
<g id="node9" class="node">
<title>S1</title>
<ellipse fill="#ffffff" stroke="black" cx="756" cy="-540" rx="27" ry="18"/>
<text text-anchor="middle" x="756" y="-536.3" font-family="Times,serif" font-size="14.00">S1</text>
</g>
<!-- S16&#45;&gt;S1 -->
<g id="edge8" class="edge">
<title>S16&#45;&gt;S1</title>
<path fill="none" stroke="black" d="M634.94,-794.7C655.05,-789.69 682.34,-780.56 702,-765 715.82,-754.06 717.51,-748.39 724,-732 745.91,-676.66 752.82,-606.52 755,-568.52"/>
<polygon fill="black" stroke="black" points="758.51,-568.41 755.52,-558.25 751.52,-568.06 758.51,-568.41"/>
<text text-anchor="middle" x="755.5" y="-666.8" font-family="Times,serif" font-size="14.00">t11</text>
</g>
<!-- S24 -->
<g id="node11" class="node">
<title>S24</title>
<ellipse fill="#ffffff" stroke="black" cx="571" cy="-714" rx="28.7" ry="18"/>
<text text-anchor="middle" x="571" y="-710.3" font-family="Times,serif" font-size="14.00">S24</text>
</g>
<!-- S16&#45;&gt;S24 -->
<g id="edge9" class="edge">
<title>S16&#45;&gt;S24</title>
<path fill="none" stroke="black" d="M600.69,-783.21C595.44,-771.14 588.25,-754.64 582.27,-740.89"/>
<polygon fill="black" stroke="black" points="585.37,-739.24 578.17,-731.47 578.95,-742.04 585.37,-739.24"/>
<text text-anchor="middle" x="599" y="-753.8" font-family="Times,serif" font-size="14.00">t7</text>
</g>
<!-- S15 -->
<g id="node17" class="node">
<title>S15</title>
<ellipse fill="#ffffff" stroke="black" cx="290" cy="-366" rx="28.7" ry="18"/>
<text text-anchor="middle" x="290" y="-362.3" font-family="Times,serif" font-size="14.00">S15</text>
</g>
<!-- S16&#45;&gt;S15 -->
<g id="edge7" class="edge">
<title>S16&#45;&gt;S15</title>
<path fill="none" stroke="black" d="M581.23,-794.52C542.9,-786.6 474.33,-772.13 450,-765 342.32,-733.46 277.23,-770 213,-678 202.86,-663.48 125.31,-1004.88 254,-435 257.35,-420.17 256.23,-415.61 263,-402 264.96,-398.06 267.4,-394.12 270,-390.39"/>
<polygon fill="black" stroke="black" points="273,-392.24 276.23,-382.15 267.41,-388.02 273,-392.24"/>
<text text-anchor="middle" x="234.5" y="-579.8" font-family="Times,serif" font-size="14.00">t12</text>
</g>
<!-- S12 -->
<g id="node4" class="node">
<title>S12</title>
<ellipse fill="#ffffff" stroke="black" cx="737" cy="-801" rx="28.7" ry="18"/>
<text text-anchor="middle" x="737" y="-797.3" font-family="Times,serif" font-size="14.00">S12</text>
</g>
<!-- S12&#45;&gt;S11 -->
<g id="edge15" class="edge">
<title>S12&#45;&gt;S11</title>
<path fill="none" stroke="black" d="M752.26,-785.55C761.16,-775.32 769.33,-761.44 762,-750 753.34,-736.48 738,-728.11 723.36,-722.97"/>
<polygon fill="black" stroke="black" points="724.01,-719.5 713.42,-719.89 721.94,-726.19 724.01,-719.5"/>
<text text-anchor="middle" x="772" y="-753.8" font-family="Times,serif" font-size="14.00">t6</text>
</g>
<!-- S3 -->
<g id="node22" class="node">
<title>S3</title>
<ellipse fill="#ffffff" stroke="black" cx="510" cy="-366" rx="27" ry="18"/>
<text text-anchor="middle" x="510" y="-362.3" font-family="Times,serif" font-size="14.00">S3</text>
</g>
<!-- S12&#45;&gt;S3 -->
<g id="edge14" class="edge">
<title>S12&#45;&gt;S3</title>
<path fill="none" stroke="black" d="M729.02,-783.5C722.98,-772.59 713.72,-758.74 702,-750 681.72,-734.87 667.32,-748.33 648,-732 605.04,-695.68 554.2,-557.87 538,-504 526.77,-466.65 518.61,-422.21 514.08,-394.3"/>
<polygon fill="black" stroke="black" points="517.49,-393.45 512.48,-384.12 510.58,-394.54 517.49,-393.45"/>
<text text-anchor="middle" x="580.5" y="-579.8" font-family="Times,serif" font-size="14.00">t12</text>
</g>
<!-- S7 -->
<g id="node20" class="node">
<title>S7</title>
<ellipse fill="#ffeeee" stroke="black" cx="226" cy="-18" rx="27" ry="18"/>
<text text-anchor="middle" x="226" y="-14.3" font-family="Times,serif" font-size="14.00">S7</text>
</g>
<!-- S2&#45;&gt;S7 -->
<g id="edge16" class="edge">
<title>S2&#45;&gt;S7</title>
<path fill="none" stroke="black" d="M621.65,-438.57C658.35,-407.31 743,-325.58 743,-236.5 743,-236.5 743,-236.5 743,-104 743,-55.33 381.59,-28.62 263.11,-21.18"/>
<polygon fill="black" stroke="black" points="263.27,-17.68 253.07,-20.56 262.83,-24.67 263.27,-17.68"/>
<text text-anchor="middle" x="755.5" y="-231.8" font-family="Times,serif" font-size="14.00">t12</text>
</g>
<!-- S2&#45;&gt;S3 -->
<g id="edge17" class="edge">
<title>S2&#45;&gt;S3</title>
<path fill="none" stroke="black" d="M589.31,-437.96C574.05,-424.31 550.67,-403.39 533.25,-387.8"/>
<polygon fill="black" stroke="black" points="535.5,-385.12 525.71,-381.06 530.83,-390.33 535.5,-385.12"/>
<text text-anchor="middle" x="571" y="-405.8" font-family="Times,serif" font-size="14.00">t5</text>
</g>
<!-- S26&#45;&gt;S1 -->
<g id="edge19" class="edge">
<title>S26&#45;&gt;S1</title>
<path fill="none" stroke="black" d="M706.91,-609.27C711.89,-599.3 718.74,-586.57 726,-576 728.85,-571.85 732.11,-567.62 735.41,-563.61"/>
<polygon fill="black" stroke="black" points="738.28,-565.64 742.12,-555.77 732.96,-561.09 738.28,-565.64"/>
<text text-anchor="middle" x="734" y="-579.8" font-family="Times,serif" font-size="14.00">t3</text>
</g>
<!-- S5 -->
<g id="node21" class="node">
<title>S5</title>
<ellipse fill="#ffffff" stroke="black" cx="481" cy="-192" rx="27" ry="18"/>
<text text-anchor="middle" x="481" y="-188.3" font-family="Times,serif" font-size="14.00">S5</text>
</g>
<!-- S26&#45;&gt;S5 -->
<g id="edge18" class="edge">
<title>S26&#45;&gt;S5</title>
<path fill="none" stroke="black" d="M725.47,-620.1C761.35,-610.35 821,-587.21 821,-541 821,-541 821,-541 821,-408.5 821,-336.07 598.07,-239.64 513.24,-205.57"/>
<polygon fill="black" stroke="black" points="514.42,-202.27 503.84,-201.82 511.83,-208.77 514.42,-202.27"/>
<text text-anchor="middle" x="833.5" y="-405.8" font-family="Times,serif" font-size="14.00">t12</text>
</g>
<!-- S23 -->
<g id="node10" class="node">
<title>S23</title>
<ellipse fill="#ffeeee" stroke="black" cx="477" cy="-540" rx="28.7" ry="18"/>
<text text-anchor="middle" x="477" y="-536.3" font-family="Times,serif" font-size="14.00">S23</text>
</g>
<!-- S22&#45;&gt;S23 -->
<g id="edge22" class="edge">
<title>S22&#45;&gt;S23</title>
<path fill="none" stroke="black" d="M371.56,-613.27C392.29,-599.07 426.04,-575.93 449.76,-559.67"/>
<polygon fill="black" stroke="black" points="452.04,-562.35 458.31,-553.81 448.08,-556.58 452.04,-562.35"/>
<text text-anchor="middle" x="431" y="-579.8" font-family="Times,serif" font-size="14.00">t3</text>
</g>
<!-- S8 -->
<g id="node19" class="node">
<title>S8</title>
<ellipse fill="#ffffff" stroke="black" cx="156" cy="-192" rx="27" ry="18"/>
<text text-anchor="middle" x="156" y="-188.3" font-family="Times,serif" font-size="14.00">S8</text>
</g>
<!-- S22&#45;&gt;S8 -->
<g id="edge20" class="edge">
<title>S22&#45;&gt;S8</title>
<path fill="none" stroke="black" d="M336.13,-612.43C301.05,-584.9 216.74,-522.27 136,-489 101.9,-474.95 78.89,-499.09 55,-471 -11.95,-392.28 88.77,-265.54 134.92,-214.92"/>
<polygon fill="black" stroke="black" points="137.6,-217.18 141.82,-207.46 132.46,-212.42 137.6,-217.18"/>
<text text-anchor="middle" x="45.5" y="-405.8" font-family="Times,serif" font-size="14.00">t12</text>
</g>
<!-- S19 -->
<g id="node23" class="node">
<title>S19</title>
<ellipse fill="#ffffff" stroke="black" cx="331" cy="-540" rx="28.7" ry="18"/>
<text text-anchor="middle" x="331" y="-536.3" font-family="Times,serif" font-size="14.00">S19</text>
</g>
<!-- S22&#45;&gt;S19 -->
<g id="edge21" class="edge">
<title>S22&#45;&gt;S19</title>
<path fill="none" stroke="black" d="M334.49,-613.13C327.64,-607.26 320.66,-599.67 317,-591 313.71,-583.21 314.71,-574.41 317.3,-566.39"/>
<polygon fill="black" stroke="black" points="320.55,-567.7 321.07,-557.11 314.06,-565.06 320.55,-567.7"/>
<text text-anchor="middle" x="325" y="-579.8" font-family="Times,serif" font-size="14.00">t5</text>
</g>
<!-- S25 -->
<g id="node8" class="node">
<title>S25</title>
<ellipse fill="#ffffff" stroke="black" cx="488" cy="-801" rx="28.7" ry="18"/>
<text text-anchor="middle" x="488" y="-797.3" font-family="Times,serif" font-size="14.00">S25</text>
</g>
<!-- S25&#45;&gt;S17 -->
<g id="edge25" class="edge">
<title>S25&#45;&gt;S17</title>
<path fill="none" stroke="black" d="M471.97,-785.86C466.47,-780.01 460.97,-772.78 458,-765 455.31,-757.94 454.33,-749.91 454.21,-742.37"/>
<polygon fill="black" stroke="black" points="457.72,-742.32 454.53,-732.21 450.72,-742.1 457.72,-742.32"/>
<text text-anchor="middle" x="466" y="-753.8" font-family="Times,serif" font-size="14.00">t6</text>
</g>
<!-- S25&#45;&gt;S2 -->
<g id="edge24" class="edge">
<title>S25&#45;&gt;S2</title>
<path fill="none" stroke="black" d="M489.81,-782.71C496.55,-719.07 520.18,-500.97 529,-489 538.73,-475.79 554.67,-467.43 569.44,-462.2"/>
<polygon fill="black" stroke="black" points="570.91,-465.41 579.39,-459.06 568.8,-458.73 570.91,-465.41"/>
<text text-anchor="middle" x="517" y="-623.3" font-family="Times,serif" font-size="14.00">t8</text>
</g>
<!-- S14 -->
<g id="node18" class="node">
<title>S14</title>
<ellipse fill="#ffffff" stroke="black" cx="88" cy="-366" rx="28.7" ry="18"/>
<text text-anchor="middle" x="88" y="-362.3" font-family="Times,serif" font-size="14.00">S14</text>
</g>
<!-- S25&#45;&gt;S14 -->
<g id="edge23" class="edge">
<title>S25&#45;&gt;S14</title>
<path fill="none" stroke="black" d="M459.35,-798.86C404.12,-796.21 279.31,-787.99 177,-765 110.08,-749.96 31,-783.59 31,-715 31,-715 31,-715 31,-495.5 31,-456.38 53.35,-415.86 70.06,-391.04"/>
<polygon fill="black" stroke="black" points="73.07,-392.84 75.91,-382.64 67.33,-388.84 73.07,-392.84"/>
<text text-anchor="middle" x="43.5" y="-579.8" font-family="Times,serif" font-size="14.00">t12</text>
</g>
<!-- S1&#45;&gt;S2 -->
<g id="edge26" class="edge">
<title>S1&#45;&gt;S2</title>
<path fill="none" stroke="black" d="M741.45,-524.82C729.68,-513.93 712.26,-499.09 695,-489 677.45,-478.75 656.35,-470.36 638.98,-464.37"/>
<polygon fill="black" stroke="black" points="639.84,-460.96 629.25,-461.12 637.63,-467.6 639.84,-460.96"/>
<text text-anchor="middle" x="724" y="-492.8" font-family="Times,serif" font-size="14.00">t2</text>
</g>
<!-- S1&#45;&gt;S2 -->
<g id="edge27" class="edge">
<title>S1&#45;&gt;S2</title>
<path fill="none" stroke="black" d="M752.47,-521.89C749.37,-511 743.78,-497.41 734,-489 708.5,-467.05 670.51,-458.74 642.35,-455.66"/>
<polygon fill="black" stroke="black" points="642.37,-452.14 632.09,-454.71 641.73,-459.11 642.37,-452.14"/>
<text text-anchor="middle" x="756.5" y="-492.8" font-family="Times,serif" font-size="14.00">t17</text>
</g>
<!-- S6 -->
<g id="node26" class="node">
<title>S6</title>
<ellipse fill="#ffffff" stroke="black" cx="341" cy="-105" rx="27" ry="18"/>
<text text-anchor="middle" x="341" y="-101.3" font-family="Times,serif" font-size="14.00">S6</text>
</g>
<!-- S1&#45;&gt;S6 -->
<g id="edge28" class="edge">
<title>S1&#45;&gt;S6</title>
<path fill="none" stroke="black" d="M765.35,-522.73C768.26,-516.98 771.17,-510.36 773,-504 784.52,-463.83 783,-452.29 783,-410.5 783,-410.5 783,-410.5 783,-278 783,-254.92 785.28,-244.36 769,-228 660.13,-118.62 460.59,-105.65 378.15,-105.24"/>
<polygon fill="black" stroke="black" points="378,-101.74 368,-105.25 378,-108.74 378,-101.74"/>
<text text-anchor="middle" x="795.5" y="-318.8" font-family="Times,serif" font-size="14.00">t12</text>
</g>
<!-- S23&#45;&gt;S2 -->
<g id="edge29" class="edge">
<title>S23&#45;&gt;S2</title>
<path fill="none" stroke="black" d="M495.89,-526.46C517.56,-512.06 553.29,-488.34 577.92,-471.98"/>
<polygon fill="black" stroke="black" points="580.06,-474.76 586.45,-466.32 576.19,-468.93 580.06,-474.76"/>
<text text-anchor="middle" x="556" y="-492.8" font-family="Times,serif" font-size="14.00">t1</text>
</g>
<!-- S23&#45;&gt;S2 -->
<g id="edge30" class="edge">
<title>S23&#45;&gt;S2</title>
<path fill="none" stroke="black" d="M503.69,-533.02C522.97,-527.73 548.87,-518.55 568,-504 576.89,-497.23 584.64,-487.76 590.72,-478.88"/>
<polygon fill="black" stroke="black" points="593.76,-480.63 596.22,-470.32 587.87,-476.85 593.76,-480.63"/>
<text text-anchor="middle" x="594.5" y="-492.8" font-family="Times,serif" font-size="14.00">t13</text>
</g>
<!-- S9 -->
<g id="node25" class="node">
<title>S9</title>
<ellipse fill="#ffeeee" stroke="black" cx="27" cy="-105" rx="27" ry="18"/>
<text text-anchor="middle" x="27" y="-101.3" font-family="Times,serif" font-size="14.00">S9</text>
</g>
<!-- S23&#45;&gt;S9 -->
<g id="edge32" class="edge">
<title>S23&#45;&gt;S9</title>
<path fill="none" stroke="black" d="M454.13,-528.68C428.67,-517.54 386.09,-499.93 348,-489 213.02,-450.26 126.4,-501.82 50,-384 -1.15,-305.12 12.05,-186.01 21.42,-133.05"/>
<polygon fill="black" stroke="black" points="24.88,-133.55 23.28,-123.07 18,-132.26 24.88,-133.55"/>
<text text-anchor="middle" x="38.5" y="-318.8" font-family="Times,serif" font-size="14.00">t12</text>
</g>
<!-- S20 -->
<g id="node27" class="node">
<title>S20</title>
<ellipse fill="#ffffff" stroke="black" cx="292" cy="-453" rx="28.7" ry="18"/>
<text text-anchor="middle" x="292" y="-449.3" font-family="Times,serif" font-size="14.00">S20</text>
</g>
<!-- S23&#45;&gt;S20 -->
<g id="edge31" class="edge">
<title>S23&#45;&gt;S20</title>
<path fill="none" stroke="black" d="M471.02,-522.36C466.08,-511.1 457.93,-496.89 446,-489 402.11,-459.98 379.39,-486.13 329,-471 327.07,-470.42 325.11,-469.76 323.15,-469.04"/>
<polygon fill="black" stroke="black" points="324.1,-465.65 313.52,-465.1 321.45,-472.13 324.1,-465.65"/>
<text text-anchor="middle" x="468" y="-492.8" font-family="Times,serif" font-size="14.00">t5</text>
</g>
<!-- S24&#45;&gt;S26 -->
<g id="edge33" class="edge">
<title>S24&#45;&gt;S26</title>
<path fill="none" stroke="black" d="M586.55,-698.41C598.24,-687.85 614.95,-673.63 631,-663 642.35,-655.48 655.53,-648.37 667.24,-642.54"/>
<polygon fill="black" stroke="black" points="668.79,-645.68 676.25,-638.16 665.73,-639.38 668.79,-645.68"/>
<text text-anchor="middle" x="639" y="-666.8" font-family="Times,serif" font-size="14.00">t1</text>
</g>
<!-- S24&#45;&gt;S26 -->
<g id="edge35" class="edge">
<title>S24&#45;&gt;S26</title>
<path fill="none" stroke="black" d="M595.37,-704.2C610.85,-698.05 630.92,-688.97 647,-678 658.32,-670.28 669.45,-660.03 678.5,-650.82"/>
<polygon fill="black" stroke="black" points="681.2,-653.06 685.57,-643.41 676.13,-648.23 681.2,-653.06"/>
<text text-anchor="middle" x="677.5" y="-666.8" font-family="Times,serif" font-size="14.00">t13</text>
</g>
<!-- S24&#45;&gt;S22 -->
<g id="edge34" class="edge">
<title>S24&#45;&gt;S22</title>
<path fill="none" stroke="black" d="M544.63,-707.03C502.11,-697.39 422.85,-679.32 420,-678 411.11,-673.88 392.97,-660.2 377.8,-648.19"/>
<polygon fill="black" stroke="black" points="379.75,-645.27 369.76,-641.76 375.38,-650.74 379.75,-645.27"/>
<text text-anchor="middle" x="428" y="-666.8" font-family="Times,serif" font-size="14.00">t2</text>
</g>
<!-- S24&#45;&gt;S22 -->
<g id="edge36" class="edge">
<title>S24&#45;&gt;S22</title>
<path fill="none" stroke="black" d="M544.72,-706.6C530.13,-703.18 511.62,-699.05 495,-696 467.4,-690.93 391.59,-695.93 370,-678 363.18,-672.34 359.09,-663.82 356.63,-655.41"/>
<polygon fill="black" stroke="black" points="359.99,-654.39 354.38,-645.41 353.16,-655.93 359.99,-654.39"/>
<text text-anchor="middle" x="382.5" y="-666.8" font-family="Times,serif" font-size="14.00">t17</text>
</g>
<!-- S10 -->
<g id="node24" class="node">
<title>S10</title>
<ellipse fill="#ffffff" stroke="black" cx="261" cy="-279" rx="28.7" ry="18"/>
<text text-anchor="middle" x="261" y="-275.3" font-family="Times,serif" font-size="14.00">S10</text>
</g>
<!-- S24&#45;&gt;S10 -->
<g id="edge37" class="edge">
<title>S24&#45;&gt;S10</title>
<path fill="none" stroke="black" d="M544.74,-706.51C530.15,-703.05 511.64,-698.93 495,-696 413.11,-681.57 364.54,-711.78 315,-645 249.89,-557.24 243.83,-524.27 223,-417 214.36,-372.5 204.8,-356.52 223,-315 225.49,-309.32 229.41,-304.15 233.81,-299.63"/>
<polygon fill="black" stroke="black" points="236.43,-301.98 241.48,-292.67 231.72,-296.8 236.43,-301.98"/>
<text text-anchor="middle" x="254.5" y="-492.8" font-family="Times,serif" font-size="14.00">t12</text>
</g>
<!-- S0 -->
<g id="node12" class="node">
<title>S0</title>
<ellipse fill="#ffffff" stroke="black" cx="608" cy="-888" rx="27" ry="18"/>
<text text-anchor="middle" x="608" y="-884.3" font-family="Times,serif" font-size="14.00">S0</text>
</g>
<!-- S0&#45;&gt;S16 -->
<g id="edge44" class="edge">
<title>S0&#45;&gt;S16</title>
<path fill="none" stroke="black" d="M608,-869.8C608,-858.16 608,-842.55 608,-829.24"/>
<polygon fill="black" stroke="black" points="611.5,-829.18 608,-819.18 604.5,-829.18 611.5,-829.18"/>
<text text-anchor="middle" x="616" y="-840.8" font-family="Times,serif" font-size="14.00">t6</text>
</g>
<!-- S0&#45;&gt;S12 -->
<g id="edge39" class="edge">
<title>S0&#45;&gt;S12</title>
<path fill="none" stroke="black" d="M630.96,-878.46C646.33,-872.23 666.66,-862.98 683,-852 694.88,-844.01 706.71,-833.44 716.25,-824.07"/>
<polygon fill="black" stroke="black" points="718.81,-826.46 723.37,-816.89 713.84,-821.53 718.81,-826.46"/>
<text text-anchor="middle" x="710" y="-840.8" font-family="Times,serif" font-size="14.00">t1</text>
</g>
<!-- S0&#45;&gt;S12 -->
<g id="edge41" class="edge">
<title>S0&#45;&gt;S12</title>
<path fill="none" stroke="black" d="M619.46,-871.36C628,-860.56 640.49,-846.5 654,-837 668.48,-826.81 686.38,-818.79 701.85,-813.01"/>
<polygon fill="black" stroke="black" points="703.36,-816.19 711.6,-809.54 701.01,-809.6 703.36,-816.19"/>
<text text-anchor="middle" x="666.5" y="-840.8" font-family="Times,serif" font-size="14.00">t13</text>
</g>
<!-- S0&#45;&gt;S25 -->
<g id="edge40" class="edge">
<title>S0&#45;&gt;S25</title>
<path fill="none" stroke="black" d="M590.03,-874.27C570.09,-860.15 537.7,-837.2 514.76,-820.96"/>
<polygon fill="black" stroke="black" points="516.67,-818.02 506.48,-815.09 512.62,-823.73 516.67,-818.02"/>
<text text-anchor="middle" x="563" y="-840.8" font-family="Times,serif" font-size="14.00">t2</text>
</g>
<!-- S0&#45;&gt;S25 -->
<g id="edge42" class="edge">
<title>S0&#45;&gt;S25</title>
<path fill="none" stroke="black" d="M581.62,-883.23C560.28,-878.94 530.65,-870.05 511,-852 504.12,-845.68 499.14,-836.9 495.62,-828.45"/>
<polygon fill="black" stroke="black" points="498.83,-827.06 492.11,-818.86 492.26,-829.46 498.83,-827.06"/>
<text text-anchor="middle" x="523.5" y="-840.8" font-family="Times,serif" font-size="14.00">t17</text>
</g>
<!-- S0&#45;&gt;S1 -->
<g id="edge38" class="edge">
<title>S0&#45;&gt;S1</title>
<path fill="none" stroke="black" d="M634.38,-883.31C696.35,-873.89 846,-846.53 846,-802 846,-802 846,-802 846,-626 846,-592.89 813.4,-568.84 787.44,-554.94"/>
<polygon fill="black" stroke="black" points="788.75,-551.69 778.25,-550.29 785.58,-557.93 788.75,-551.69"/>
<text text-anchor="middle" x="854" y="-710.3" font-family="Times,serif" font-size="14.00">t8</text>
</g>
<!-- S0&#45;&gt;S20 -->
<g id="edge43" class="edge">
<title>S0&#45;&gt;S20</title>
<path fill="none" stroke="black" d="M581.12,-886.23C499.16,-883.15 258,-868.44 258,-802 258,-802 258,-802 258,-626 258,-573.81 273.25,-514.38 283.32,-480.82"/>
<polygon fill="black" stroke="black" points="286.79,-481.46 286.39,-470.87 280.1,-479.4 286.79,-481.46"/>
<text text-anchor="middle" x="270.5" y="-666.8" font-family="Times,serif" font-size="14.00">t12</text>
</g>
<!-- S13&#45;&gt;S8 -->
<g id="edge45" class="edge">
<title>S13&#45;&gt;S8</title>
<path fill="none" stroke="black" d="M161.22,-261.1C159.53,-255.42 157.9,-249 157,-243 155.91,-235.73 155.43,-227.8 155.28,-220.44"/>
<polygon fill="black" stroke="black" points="158.78,-220.21 155.25,-210.22 151.78,-220.22 158.78,-220.21"/>
<text text-anchor="middle" x="165" y="-231.8" font-family="Times,serif" font-size="14.00">t7</text>
</g>
<!-- S13&#45;&gt;S7 -->
<g id="edge46" class="edge">
<title>S13&#45;&gt;S7</title>
<path fill="none" stroke="black" d="M188.31,-266.85C197.23,-261.01 206.73,-252.98 212,-243 245.8,-179.03 237.93,-90.01 231.06,-45.93"/>
<polygon fill="black" stroke="black" points="234.5,-45.28 229.41,-35.99 227.6,-46.43 234.5,-45.28"/>
<text text-anchor="middle" x="249.5" y="-144.8" font-family="Times,serif" font-size="14.00">t11</text>
</g>
<!-- S4&#45;&gt;S5 -->
<g id="edge47" class="edge">
<title>S4&#45;&gt;S5</title>
<path fill="none" stroke="black" d="M461.74,-261.21C465.09,-249.33 469.66,-233.17 473.5,-219.56"/>
<polygon fill="black" stroke="black" points="476.92,-220.33 476.27,-209.76 470.18,-218.43 476.92,-220.33"/>
<text text-anchor="middle" x="478" y="-231.8" font-family="Times,serif" font-size="14.00">t7</text>
</g>
<!-- S18&#45;&gt;S3 -->
<g id="edge48" class="edge">
<title>S18&#45;&gt;S3</title>
<path fill="none" stroke="black" d="M421.12,-609.21C411.19,-582.13 396.17,-527.92 417,-489 423.81,-476.28 433.92,-481.31 444,-471 466.89,-447.59 486.01,-414.97 497.68,-392.54"/>
<polygon fill="black" stroke="black" points="500.81,-394.11 502.22,-383.61 494.57,-390.94 500.81,-394.11"/>
<text text-anchor="middle" x="429.5" y="-492.8" font-family="Times,serif" font-size="14.00">t11</text>
</g>
<!-- S18&#45;&gt;S19 -->
<g id="edge49" class="edge">
<title>S18&#45;&gt;S19</title>
<path fill="none" stroke="black" d="M405.67,-615.57C385.26,-605.97 357.96,-592.94 356,-591 349.35,-584.43 344.17,-575.72 340.29,-567.42"/>
<polygon fill="black" stroke="black" points="343.43,-565.87 336.32,-558.01 336.98,-568.59 343.43,-565.87"/>
<text text-anchor="middle" x="364" y="-579.8" font-family="Times,serif" font-size="14.00">t7</text>
</g>
<!-- S21 -->
<g id="node16" class="node">
<title>S21</title>
<ellipse fill="#ffffff" stroke="black" cx="367" cy="-453" rx="28.7" ry="18"/>
<text text-anchor="middle" x="367" y="-449.3" font-family="Times,serif" font-size="14.00">S21</text>
</g>
<!-- S21&#45;&gt;S15 -->
<g id="edge50" class="edge">
<title>S21&#45;&gt;S15</title>
<path fill="none" stroke="black" d="M352.07,-437.63C345.75,-431.41 338.39,-423.97 332,-417 324.22,-408.51 316,-398.89 308.92,-390.37"/>
<polygon fill="black" stroke="black" points="311.59,-388.11 302.53,-382.61 306.19,-392.56 311.59,-388.11"/>
<text text-anchor="middle" x="340" y="-405.8" font-family="Times,serif" font-size="14.00">t3</text>
</g>
<!-- S21&#45;&gt;S5 -->
<g id="edge51" class="edge">
<title>S21&#45;&gt;S5</title>
<path fill="none" stroke="black" d="M395.63,-450.63C436.92,-446.94 511.93,-433.39 546,-384 566.65,-354.06 566.5,-295.96 526,-228 521.96,-221.22 516.07,-215.27 509.87,-210.28"/>
<polygon fill="black" stroke="black" points="511.53,-207.16 501.38,-204.11 507.41,-212.82 511.53,-207.16"/>
<text text-anchor="middle" x="571.5" y="-318.8" font-family="Times,serif" font-size="14.00">t11</text>
</g>
<!-- S15&#45;&gt;S13 -->
<g id="edge53" class="edge">
<title>S15&#45;&gt;S13</title>
<path fill="none" stroke="black" d="M264.01,-358.48C245.88,-353.01 221.83,-343.84 204,-330 195.17,-323.15 187.43,-313.66 181.35,-304.79"/>
<polygon fill="black" stroke="black" points="184.2,-302.75 175.83,-296.25 178.32,-306.55 184.2,-302.75"/>
<text text-anchor="middle" x="212" y="-318.8" font-family="Times,serif" font-size="14.00">t2</text>
</g>
<!-- S15&#45;&gt;S13 -->
<g id="edge55" class="edge">
<title>S15&#45;&gt;S13</title>
<path fill="none" stroke="black" d="M272,-351.87C257.94,-341.67 237.85,-327.26 220,-315 211.86,-309.41 202.92,-303.44 194.75,-298.05"/>
<polygon fill="black" stroke="black" points="196.53,-295.03 186.25,-292.47 192.69,-300.88 196.53,-295.03"/>
<text text-anchor="middle" x="254.5" y="-318.8" font-family="Times,serif" font-size="14.00">t17</text>
</g>
<!-- S15&#45;&gt;S4 -->
<g id="edge52" class="edge">
<title>S15&#45;&gt;S4</title>
<path fill="none" stroke="black" d="M315.04,-356.82C333.44,-350.44 358.81,-340.85 380,-330 397.74,-320.91 416.52,-308.77 431.09,-298.73"/>
<polygon fill="black" stroke="black" points="433.39,-301.4 439.58,-292.8 429.38,-295.66 433.39,-301.4"/>
<text text-anchor="middle" x="415" y="-318.8" font-family="Times,serif" font-size="14.00">t1</text>
</g>
<!-- S15&#45;&gt;S4 -->
<g id="edge54" class="edge">
<title>S15&#45;&gt;S4</title>
<path fill="none" stroke="black" d="M306.71,-351.05C323.9,-336.74 348.53,-316.36 351,-315 357.55,-311.4 394.72,-299.42 423.21,-290.48"/>
<polygon fill="black" stroke="black" points="424.36,-293.78 432.86,-287.46 422.27,-287.1 424.36,-293.78"/>
<text text-anchor="middle" x="363.5" y="-318.8" font-family="Times,serif" font-size="14.00">t13</text>
</g>
<!-- S15&#45;&gt;S10 -->
<g id="edge56" class="edge">
<title>S15&#45;&gt;S10</title>
<path fill="none" stroke="black" d="M284.27,-348.21C280.22,-336.33 274.7,-320.17 270.06,-306.56"/>
<polygon fill="black" stroke="black" points="273.26,-305.09 266.72,-296.76 266.63,-307.35 273.26,-305.09"/>
<text text-anchor="middle" x="286" y="-318.8" font-family="Times,serif" font-size="14.00">t7</text>
</g>
<!-- S15&#45;&gt;S6 -->
<g id="edge57" class="edge">
<title>S15&#45;&gt;S6</title>
<path fill="none" stroke="black" d="M294.03,-347.94C295.34,-342.24 296.77,-335.86 298,-330 312.91,-259.06 328.49,-175.03 336.15,-132.91"/>
<polygon fill="black" stroke="black" points="339.62,-133.36 337.96,-122.9 332.74,-132.12 339.62,-133.36"/>
<text text-anchor="middle" x="331.5" y="-231.8" font-family="Times,serif" font-size="14.00">t11</text>
</g>
<!-- S14&#45;&gt;S13 -->
<g id="edge58" class="edge">
<title>S14&#45;&gt;S13</title>
<path fill="none" stroke="black" d="M94.5,-348.43C99.14,-338.03 106.12,-324.79 115,-315 121.32,-308.03 129.3,-301.78 137.11,-296.55"/>
<polygon fill="black" stroke="black" points="139.15,-299.4 145.74,-291.1 135.41,-293.48 139.15,-299.4"/>
<text text-anchor="middle" x="123" y="-318.8" font-family="Times,serif" font-size="14.00">t6</text>
</g>
<!-- S14&#45;&gt;S7 -->
<g id="edge59" class="edge">
<title>S14&#45;&gt;S7</title>
<path fill="none" stroke="black" d="M89.3,-347.97C91.07,-323.37 94,-276.48 94,-236.5 94,-236.5 94,-236.5 94,-104 94,-57.99 151.39,-35.7 190.49,-25.85"/>
<polygon fill="black" stroke="black" points="191.3,-29.26 200.24,-23.56 189.7,-22.44 191.3,-29.26"/>
<text text-anchor="middle" x="102" y="-188.3" font-family="Times,serif" font-size="14.00">t8</text>
</g>
<!-- S8&#45;&gt;S9 -->
<g id="edge60" class="edge">
<title>S8&#45;&gt;S9</title>
<path fill="none" stroke="black" d="M137.52,-178.82C115.68,-164.43 79.15,-140.36 54.11,-123.86"/>
<polygon fill="black" stroke="black" points="55.72,-120.74 45.45,-118.16 51.87,-126.58 55.72,-120.74"/>
<text text-anchor="middle" x="108" y="-144.8" font-family="Times,serif" font-size="14.00">t3</text>
</g>
<!-- S5&#45;&gt;S6 -->
<g id="edge61" class="edge">
<title>S5&#45;&gt;S6</title>
<path fill="none" stroke="black" d="M461.53,-179.18C437.5,-164.59 396.46,-139.67 369.03,-123.02"/>
<polygon fill="black" stroke="black" points="370.67,-119.92 360.3,-117.72 367.03,-125.9 370.67,-119.92"/>
<text text-anchor="middle" x="428" y="-144.8" font-family="Times,serif" font-size="14.00">t3</text>
</g>
<!-- S3&#45;&gt;S4 -->
<g id="edge62" class="edge">
<title>S3&#45;&gt;S4</title>
<path fill="none" stroke="black" d="M500.03,-349.01C492.26,-336.55 481.33,-319.01 472.43,-304.74"/>
<polygon fill="black" stroke="black" points="475.19,-302.55 466.92,-295.92 469.25,-306.25 475.19,-302.55"/>
<text text-anchor="middle" x="494" y="-318.8" font-family="Times,serif" font-size="14.00">t6</text>
</g>
<!-- S19&#45;&gt;S21 -->
<g id="edge65" class="edge">
<title>S19&#45;&gt;S21</title>
<path fill="none" stroke="black" d="M338.11,-522.21C343.22,-510.14 350.21,-493.64 356.03,-479.89"/>
<polygon fill="black" stroke="black" points="359.35,-481.04 360.02,-470.47 352.9,-478.31 359.35,-481.04"/>
<text text-anchor="middle" x="360" y="-492.8" font-family="Times,serif" font-size="14.00">t6</text>
</g>
<!-- S19&#45;&gt;S5 -->
<g id="edge63" class="edge">
<title>S19&#45;&gt;S5</title>
<path fill="none" stroke="black" d="M347.62,-525.32C355.18,-518.97 364.16,-511.24 372,-504 387.23,-489.92 392.51,-487.56 405,-471 421.53,-449.08 423.94,-442.13 435,-417 448.02,-387.41 436.82,-372.42 458,-348 469.72,-334.49 484.6,-345.22 494,-330 514.9,-296.19 503.14,-248.45 492.35,-219.18"/>
<polygon fill="black" stroke="black" points="495.52,-217.69 488.62,-209.65 489,-220.24 495.52,-217.69"/>
<text text-anchor="middle" x="466" y="-362.3" font-family="Times,serif" font-size="14.00">t8</text>
</g>
<!-- S19&#45;&gt;S20 -->
<g id="edge64" class="edge">
<title>S19&#45;&gt;S20</title>
<path fill="none" stroke="black" d="M323.48,-522.61C317.91,-510.46 310.2,-493.66 303.8,-479.73"/>
<polygon fill="black" stroke="black" points="306.98,-478.26 299.63,-470.63 300.62,-481.18 306.98,-478.26"/>
<text text-anchor="middle" x="322" y="-492.8" font-family="Times,serif" font-size="14.00">t3</text>
</g>
<!-- S10&#45;&gt;S8 -->
<g id="edge66" class="edge">
<title>S10&#45;&gt;S8</title>
<path fill="none" stroke="black" d="M244.13,-264.34C226.88,-250.38 199.92,-228.56 180.36,-212.72"/>
<polygon fill="black" stroke="black" points="182.46,-209.91 172.48,-206.34 178.05,-215.35 182.46,-209.91"/>
<text text-anchor="middle" x="223" y="-231.8" font-family="Times,serif" font-size="14.00">t2</text>
</g>
<!-- S10&#45;&gt;S8 -->
<g id="edge67" class="edge">
<title>S10&#45;&gt;S8</title>
<path fill="none" stroke="black" d="M255.42,-260.87C251.23,-250.26 244.56,-236.98 235,-228 222.53,-216.29 205.5,-208.07 190.44,-202.55"/>
<polygon fill="black" stroke="black" points="191.49,-199.21 180.9,-199.3 189.24,-205.84 191.49,-199.21"/>
<text text-anchor="middle" x="259.5" y="-231.8" font-family="Times,serif" font-size="14.00">t17</text>
</g>
<!-- S10&#45;&gt;S5 -->
<g id="edge68" class="edge">
<title>S10&#45;&gt;S5</title>
<path fill="none" stroke="black" d="M288.34,-273.57C327.42,-266.97 397.05,-254.13 420,-243 434.47,-235.98 448.51,-224.87 459.46,-214.91"/>
<polygon fill="black" stroke="black" points="461.99,-217.34 466.85,-207.93 457.18,-212.25 461.99,-217.34"/>
<text text-anchor="middle" x="451" y="-231.8" font-family="Times,serif" font-size="14.00">t1</text>
</g>
<!-- S10&#45;&gt;S5 -->
<g id="edge69" class="edge">
<title>S10&#45;&gt;S5</title>
<path fill="none" stroke="black" d="M284.96,-268.74C324.62,-253.42 403.93,-222.78 448.56,-205.53"/>
<polygon fill="black" stroke="black" points="449.99,-208.73 458.06,-201.86 447.47,-202.2 449.99,-208.73"/>
<text text-anchor="middle" x="397.5" y="-231.8" font-family="Times,serif" font-size="14.00">t13</text>
</g>
<!-- S9&#45;&gt;S7 -->
<g id="edge70" class="edge">
<title>S9&#45;&gt;S7</title>
<path fill="none" stroke="black" d="M17.09,-87.89C11.89,-77.16 8.07,-63.36 16,-54 37.67,-28.42 134.08,-21.52 188.42,-19.67"/>
<polygon fill="black" stroke="black" points="188.8,-23.16 198.69,-19.36 188.59,-16.16 188.8,-23.16"/>
<text text-anchor="middle" x="24" y="-57.8" font-family="Times,serif" font-size="14.00">t1</text>
</g>
<!-- S9&#45;&gt;S7 -->
<g id="edge71" class="edge">
<title>S9&#45;&gt;S7</title>
<path fill="none" stroke="black" d="M32.3,-87.09C36.64,-76 43.91,-62.1 55,-54 76.01,-38.65 145.78,-28.14 189.44,-22.89"/>
<polygon fill="black" stroke="black" points="189.87,-26.36 199.4,-21.73 189.06,-19.41 189.87,-26.36"/>
<text text-anchor="middle" x="67.5" y="-57.8" font-family="Times,serif" font-size="14.00">t13</text>
</g>
<!-- S6&#45;&gt;S7 -->
<g id="edge72" class="edge">
<title>S6&#45;&gt;S7</title>
<path fill="none" stroke="black" d="M322.76,-91.16C313.5,-84.59 302.1,-76.43 292,-69 278.36,-58.96 263.29,-47.58 251.01,-38.21"/>
<polygon fill="black" stroke="black" points="253.07,-35.37 242.99,-32.08 248.81,-40.94 253.07,-35.37"/>
<text text-anchor="middle" x="300" y="-57.8" font-family="Times,serif" font-size="14.00">t2</text>
</g>
<!-- S6&#45;&gt;S7 -->
<g id="edge73" class="edge">
<title>S6&#45;&gt;S7</title>
<path fill="none" stroke="black" d="M333.2,-87.31C327.5,-76.61 318.86,-63.06 308,-54 294.25,-42.53 276.19,-34.28 260.52,-28.68"/>
<polygon fill="black" stroke="black" points="261.22,-25.23 250.63,-25.38 259.01,-31.87 261.22,-25.23"/>
<text text-anchor="middle" x="334.5" y="-57.8" font-family="Times,serif" font-size="14.00">t17</text>
</g>
<!-- S20&#45;&gt;S15 -->
<g id="edge74" class="edge">
<title>S20&#45;&gt;S15</title>
<path fill="none" stroke="black" d="M278.56,-436.69C274.32,-430.92 270.18,-424.04 268,-417 265.31,-408.31 267.72,-399.12 271.79,-391.01"/>
<polygon fill="black" stroke="black" points="274.8,-392.8 276.91,-382.41 268.79,-389.22 274.8,-392.8"/>
<text text-anchor="middle" x="276" y="-405.8" font-family="Times,serif" font-size="14.00">t6</text>
</g>
<!-- S20&#45;&gt;S14 -->
<g id="edge75" class="edge">
<title>S20&#45;&gt;S14</title>
<path fill="none" stroke="black" d="M263.24,-451.19C229.39,-449.07 172.53,-441.74 131,-417 120.31,-410.63 110.94,-400.65 103.7,-391.28"/>
<polygon fill="black" stroke="black" points="106.38,-389.01 97.68,-382.96 100.71,-393.12 106.38,-389.01"/>
<text text-anchor="middle" x="139" y="-405.8" font-family="Times,serif" font-size="14.00">t2</text>
</g>
<!-- S20&#45;&gt;S14 -->
<g id="edge76" class="edge">
<title>S20&#45;&gt;S14</title>
<path fill="none" stroke="black" d="M268.6,-442.25C232.17,-427.07 161.8,-397.75 120.47,-380.53"/>
<polygon fill="black" stroke="black" points="121.71,-377.25 111.13,-376.64 119.01,-383.71 121.71,-377.25"/>
<text text-anchor="middle" x="215.5" y="-405.8" font-family="Times,serif" font-size="14.00">t17</text>
</g>
<!-- S20&#45;&gt;S3 -->
<g id="edge77" class="edge">
<title>S20&#45;&gt;S3</title>
<path fill="none" stroke="black" d="M314.05,-441.13C318.91,-438.95 324.08,-436.78 329,-435 358,-424.53 366.91,-427.22 396,-417 425.08,-406.78 457.14,-392.43 479.84,-381.72"/>
<polygon fill="black" stroke="black" points="481.43,-384.84 488.95,-377.38 478.42,-378.52 481.43,-384.84"/>
<text text-anchor="middle" x="442" y="-405.8" font-family="Times,serif" font-size="14.00">t1</text>
</g>
<!-- S20&#45;&gt;S3 -->
<g id="edge78" class="edge">
<title>S20&#45;&gt;S3</title>
<path fill="none" stroke="black" d="M312.3,-440.05C323.09,-433.52 336.47,-425.12 348,-417 356.8,-410.81 357.18,-406.4 367,-402 409.01,-383.17 424.81,-396.89 469,-384 472.18,-383.07 475.45,-381.98 478.69,-380.79"/>
<polygon fill="black" stroke="black" points="480.15,-383.98 488.19,-377.08 477.6,-377.46 480.15,-383.98"/>
<text text-anchor="middle" x="379.5" y="-405.8" font-family="Times,serif" font-size="14.00">t13</text>
</g>
<!-- S20&#45;&gt;S6 -->
<g id="edge79" class="edge">
<title>S20&#45;&gt;S6</title>
<path fill="none" stroke="black" d="M308.19,-437.75C341.07,-408.63 413.1,-343.85 419,-330 421.61,-323.87 421.16,-321.31 419,-315 415.71,-305.41 410.59,-305.45 405,-297 389.86,-274.1 385.06,-268.55 375,-243 360.51,-206.2 350.78,-161.35 345.56,-133.23"/>
<polygon fill="black" stroke="black" points="348.99,-132.55 343.78,-123.32 342.1,-133.78 348.99,-132.55"/>
<text text-anchor="middle" x="413" y="-275.3" font-family="Times,serif" font-size="14.00">t8</text>
</g>
</g>
</svg>
