<?xml version="1.0" encoding="UTF-8" standalone="no"?>
<!DOCTYPE svg PUBLIC "-//W3C//DTD SVG 1.1//EN"
 "http://www.w3.org/Graphics/SVG/1.1/DTD/svg11.dtd">
<!-- Generated by graphviz version 2.43.0 (0)
 -->
<!-- Title: SCdebug/46 Pages: 1 -->
<svg width="699pt" height="740pt"
 viewBox="0.00 0.00 699.00 740.00" xmlns="http://www.w3.org/2000/svg" xmlns:xlink="http://www.w3.org/1999/xlink">
<g id="graph0" class="graph" transform="scale(1 1) rotate(0) translate(4 736)">
<title>SCdebug/46</title>
<polygon fill="white" stroke="transparent" points="-4,4 -4,-736 695,-736 695,4 -4,4"/>
<!-- S10 -->
<g id="node1" class="node">
<title>S10</title>
<ellipse fill="none" stroke="black" cx="230" cy="-279" rx="28.7" ry="18"/>
<text text-anchor="middle" x="230" y="-275.3" font-family="Times,serif" font-size="14.00">S10</text>
</g>
<!-- S8 -->
<g id="node10" class="node">
<title>S8</title>
<ellipse fill="#ffffff" stroke="black" cx="150" cy="-192" rx="27" ry="18"/>
<text text-anchor="middle" x="150" y="-188.3" font-family="Times,serif" font-size="14.00">S8</text>
</g>
<!-- S10&#45;&gt;S8 -->
<g id="edge1" class="edge">
<title>S10&#45;&gt;S8</title>
<path fill="none" stroke="black" d="M211.98,-264.97C203.93,-258.74 194.58,-250.94 187,-243 179.58,-235.23 172.34,-225.95 166.27,-217.51"/>
<polygon fill="black" stroke="black" points="168.99,-215.3 160.39,-209.11 163.26,-219.31 168.99,-215.3"/>
<text text-anchor="middle" x="195" y="-231.8" font-family="Times,serif" font-size="14.00">t2</text>
</g>
<!-- S10&#45;&gt;S8 -->
<g id="edge2" class="edge">
<title>S10&#45;&gt;S8</title>
<path fill="none" stroke="black" d="M223.53,-261.4C218.9,-250.99 211.92,-237.75 203,-228 196.33,-220.71 187.84,-214.24 179.61,-208.9"/>
<polygon fill="black" stroke="black" points="181.25,-205.8 170.9,-203.57 177.6,-211.77 181.25,-205.8"/>
<text text-anchor="middle" x="226.5" y="-231.8" font-family="Times,serif" font-size="14.00">t17</text>
</g>
<!-- S5 -->
<g id="node12" class="node">
<title>S5</title>
<ellipse fill="#ffffff" stroke="black" cx="465" cy="-192" rx="27" ry="18"/>
<text text-anchor="middle" x="465" y="-188.3" font-family="Times,serif" font-size="14.00">S5</text>
</g>
<!-- S10&#45;&gt;S5 -->
<g id="edge3" class="edge">
<title>S10&#45;&gt;S5</title>
<path fill="none" stroke="black" d="M249.5,-265.8C268.06,-254.63 297.07,-238.32 324,-228 358.71,-214.69 400.2,-205.11 429.15,-199.37"/>
<polygon fill="black" stroke="black" points="430.05,-202.76 439.21,-197.43 428.73,-195.88 430.05,-202.76"/>
<text text-anchor="middle" x="332" y="-231.8" font-family="Times,serif" font-size="14.00">t1</text>
</g>
<!-- S10&#45;&gt;S5 -->
<g id="edge4" class="edge">
<title>S10&#45;&gt;S5</title>
<path fill="none" stroke="black" d="M253.48,-268.16C259.77,-265.68 266.6,-263.12 273,-261 302.27,-251.32 311.85,-255.58 340,-243 351.14,-238.02 352.03,-233.35 363,-228 384.73,-217.39 410.5,-208.57 430.7,-202.45"/>
<polygon fill="black" stroke="black" points="431.82,-205.77 440.42,-199.57 429.84,-199.05 431.82,-205.77"/>
<text text-anchor="middle" x="375.5" y="-231.8" font-family="Times,serif" font-size="14.00">t13</text>
</g>
<!-- S9 -->
<g id="node2" class="node">
<title>S9</title>
<ellipse fill="#ffeeee" stroke="black" cx="27" cy="-105" rx="27" ry="18"/>
<text text-anchor="middle" x="27" y="-101.3" font-family="Times,serif" font-size="14.00">S9</text>
</g>
<!-- S7 -->
<g id="node11" class="node">
<title>S7</title>
<ellipse fill="#ffeeee" stroke="black" cx="265" cy="-18" rx="27" ry="18"/>
<text text-anchor="middle" x="265" y="-14.3" font-family="Times,serif" font-size="14.00">S7</text>
</g>
<!-- S9&#45;&gt;S7 -->
<g id="edge5" class="edge">
<title>S9&#45;&gt;S7</title>
<path fill="none" stroke="black" d="M14.96,-88.43C8.19,-77.67 2.62,-63.62 11,-54 38.64,-22.29 163.89,-18.33 227.57,-18.42"/>
<polygon fill="black" stroke="black" points="227.59,-21.92 237.61,-18.47 227.63,-14.92 227.59,-21.92"/>
<text text-anchor="middle" x="19" y="-57.8" font-family="Times,serif" font-size="14.00">t1</text>
</g>
<!-- S9&#45;&gt;S7 -->
<g id="edge6" class="edge">
<title>S9&#45;&gt;S7</title>
<path fill="none" stroke="black" d="M30.47,-87.01C33.64,-75.89 39.51,-61.99 50,-54 77.3,-33.23 173.87,-24.32 227.83,-20.89"/>
<polygon fill="black" stroke="black" points="228.25,-24.37 238.02,-20.28 227.83,-17.39 228.25,-24.37"/>
<text text-anchor="middle" x="62.5" y="-57.8" font-family="Times,serif" font-size="14.00">t13</text>
</g>
<!-- S6 -->
<g id="node3" class="node">
<title>S6</title>
<ellipse fill="#ffffff" stroke="black" cx="402" cy="-105" rx="27" ry="18"/>
<text text-anchor="middle" x="402" y="-101.3" font-family="Times,serif" font-size="14.00">S6</text>
</g>
<!-- S6&#45;&gt;S7 -->
<g id="edge7" class="edge">
<title>S6&#45;&gt;S7</title>
<path fill="none" stroke="black" d="M391.62,-88.15C383.78,-77.26 372.15,-63.16 359,-54 341.28,-41.65 318.66,-33.06 300.06,-27.47"/>
<polygon fill="black" stroke="black" points="300.76,-24.03 290.19,-24.67 298.86,-30.77 300.76,-24.03"/>
<text text-anchor="middle" x="384" y="-57.8" font-family="Times,serif" font-size="14.00">t2</text>
</g>
<!-- S6&#45;&gt;S7 -->
<g id="edge8" class="edge">
<title>S6&#45;&gt;S7</title>
<path fill="none" stroke="black" d="M379.64,-94.55C365.11,-88.07 345.96,-78.87 330,-69 315.64,-60.11 300.63,-48.73 288.66,-39.06"/>
<polygon fill="black" stroke="black" points="290.85,-36.34 280.9,-32.7 286.41,-41.75 290.85,-36.34"/>
<text text-anchor="middle" x="342.5" y="-57.8" font-family="Times,serif" font-size="14.00">t17</text>
</g>
<!-- S15 -->
<g id="node4" class="node">
<title>S15</title>
<ellipse fill="#ffffff" stroke="black" cx="283" cy="-453" rx="28.7" ry="18"/>
<text text-anchor="middle" x="283" y="-449.3" font-family="Times,serif" font-size="14.00">S15</text>
</g>
<!-- S15&#45;&gt;S6 -->
<g id="edge14" class="edge">
<title>S15&#45;&gt;S6</title>
<path fill="none" stroke="black" d="M280.5,-434.81C275.65,-395.63 268.33,-297.72 304,-228 324.01,-188.89 357.85,-150.51 380.06,-127.54"/>
<polygon fill="black" stroke="black" points="382.6,-129.95 387.11,-120.36 377.6,-125.04 382.6,-129.95"/>
<text text-anchor="middle" x="299" y="-275.3" font-family="Times,serif" font-size="14.00">t8</text>
</g>
<!-- S13 -->
<g id="node8" class="node">
<title>S13</title>
<ellipse fill="#ffffff" stroke="black" cx="326" cy="-366" rx="28.7" ry="18"/>
<text text-anchor="middle" x="326" y="-362.3" font-family="Times,serif" font-size="14.00">S13</text>
</g>
<!-- S15&#45;&gt;S13 -->
<g id="edge9" class="edge">
<title>S15&#45;&gt;S13</title>
<path fill="none" stroke="black" d="M287.41,-434.79C290.3,-424.89 294.55,-412.39 300,-402 302.02,-398.15 304.44,-394.27 306.98,-390.57"/>
<polygon fill="black" stroke="black" points="309.92,-392.48 312.99,-382.34 304.26,-388.35 309.92,-392.48"/>
<text text-anchor="middle" x="308" y="-405.8" font-family="Times,serif" font-size="14.00">t6</text>
</g>
<!-- S12 -->
<g id="node9" class="node">
<title>S12</title>
<ellipse fill="#ffffff" stroke="black" cx="187" cy="-366" rx="28.7" ry="18"/>
<text text-anchor="middle" x="187" y="-362.3" font-family="Times,serif" font-size="14.00">S12</text>
</g>
<!-- S15&#45;&gt;S12 -->
<g id="edge10" class="edge">
<title>S15&#45;&gt;S12</title>
<path fill="none" stroke="black" d="M254.6,-449.88C232.49,-446.58 203.09,-438.19 188,-417 183.38,-410.51 181.94,-402.25 182,-394.32"/>
<polygon fill="black" stroke="black" points="185.5,-394.5 182.8,-384.26 178.52,-393.95 185.5,-394.5"/>
<text text-anchor="middle" x="196" y="-405.8" font-family="Times,serif" font-size="14.00">t2</text>
</g>
<!-- S15&#45;&gt;S12 -->
<g id="edge11" class="edge">
<title>S15&#45;&gt;S12</title>
<path fill="none" stroke="black" d="M261.62,-440.91C250.66,-434.68 237.45,-426.3 227,-417 218.53,-409.46 210.46,-399.99 203.82,-391.33"/>
<polygon fill="black" stroke="black" points="206.44,-388.99 197.68,-383.03 200.81,-393.16 206.44,-388.99"/>
<text text-anchor="middle" x="239.5" y="-405.8" font-family="Times,serif" font-size="14.00">t17</text>
</g>
<!-- S3 -->
<g id="node13" class="node">
<title>S3</title>
<ellipse fill="#ffffff" stroke="black" cx="414" cy="-366" rx="27" ry="18"/>
<text text-anchor="middle" x="414" y="-362.3" font-family="Times,serif" font-size="14.00">S3</text>
</g>
<!-- S15&#45;&gt;S3 -->
<g id="edge12" class="edge">
<title>S15&#45;&gt;S3</title>
<path fill="none" stroke="black" d="M307.98,-443.99C324.66,-437.99 346.64,-428.79 364,-417 375.27,-409.35 386.16,-398.94 394.88,-389.6"/>
<polygon fill="black" stroke="black" points="397.56,-391.86 401.66,-382.09 392.36,-387.16 397.56,-391.86"/>
<text text-anchor="middle" x="390" y="-405.8" font-family="Times,serif" font-size="14.00">t1</text>
</g>
<!-- S15&#45;&gt;S3 -->
<g id="edge13" class="edge">
<title>S15&#45;&gt;S3</title>
<path fill="none" stroke="black" d="M296.39,-436.53C306.26,-425.81 320.44,-411.78 335,-402 349.06,-392.55 366.09,-384.63 380.74,-378.73"/>
<polygon fill="black" stroke="black" points="382.37,-381.85 390.43,-374.96 379.84,-375.32 382.37,-381.85"/>
<text text-anchor="middle" x="347.5" y="-405.8" font-family="Times,serif" font-size="14.00">t13</text>
</g>
<!-- S1 -->
<g id="node5" class="node">
<title>S1</title>
<ellipse fill="#ffffff" stroke="black" cx="596" cy="-540" rx="27" ry="18"/>
<text text-anchor="middle" x="596" y="-536.3" font-family="Times,serif" font-size="14.00">S1</text>
</g>
<!-- S1&#45;&gt;S6 -->
<g id="edge17" class="edge">
<title>S1&#45;&gt;S6</title>
<path fill="none" stroke="black" d="M600.47,-521.88C615.11,-464.27 659.02,-278.21 629,-228 587.25,-158.16 490.24,-125.98 437.57,-113.2"/>
<polygon fill="black" stroke="black" points="438.19,-109.75 427.66,-110.89 436.61,-116.56 438.19,-109.75"/>
<text text-anchor="middle" x="650.5" y="-318.8" font-family="Times,serif" font-size="14.00">t12</text>
</g>
<!-- S2 -->
<g id="node15" class="node">
<title>S2</title>
<ellipse fill="#ffeeee" stroke="black" cx="548" cy="-453" rx="27" ry="18"/>
<text text-anchor="middle" x="548" y="-449.3" font-family="Times,serif" font-size="14.00">S2</text>
</g>
<!-- S1&#45;&gt;S2 -->
<g id="edge15" class="edge">
<title>S1&#45;&gt;S2</title>
<path fill="none" stroke="black" d="M590.22,-522.27C586.48,-512.31 581.16,-499.58 575,-489 572.68,-485.01 569.96,-480.97 567.15,-477.11"/>
<polygon fill="black" stroke="black" points="569.86,-474.89 561,-469.07 564.3,-479.14 569.86,-474.89"/>
<text text-anchor="middle" x="590" y="-492.8" font-family="Times,serif" font-size="14.00">t2</text>
</g>
<!-- S1&#45;&gt;S2 -->
<g id="edge16" class="edge">
<title>S1&#45;&gt;S2</title>
<path fill="none" stroke="black" d="M573.89,-529.55C563.41,-523.81 551.92,-515.37 546,-504 542.41,-497.11 541.58,-488.94 542,-481.22"/>
<polygon fill="black" stroke="black" points="545.5,-481.48 543.23,-471.13 538.55,-480.64 545.5,-481.48"/>
<text text-anchor="middle" x="558.5" y="-492.8" font-family="Times,serif" font-size="14.00">t17</text>
</g>
<!-- S18 -->
<g id="node6" class="node">
<title>S18</title>
<ellipse fill="#ffeeee" stroke="black" cx="462" cy="-540" rx="28.7" ry="18"/>
<text text-anchor="middle" x="462" y="-536.3" font-family="Times,serif" font-size="14.00">S18</text>
</g>
<!-- S18&#45;&gt;S9 -->
<g id="edge21" class="edge">
<title>S18&#45;&gt;S9</title>
<path fill="none" stroke="black" d="M440.41,-528.13C435.43,-525.89 430.1,-523.7 425,-522 389.2,-510.05 378.37,-514.1 342,-504 298.12,-491.82 284.81,-493.1 245,-471 211.86,-452.6 206.49,-443.09 179,-417 167.85,-406.42 104.16,-337.16 100,-330 61.96,-264.48 40.75,-176.5 31.93,-132.87"/>
<polygon fill="black" stroke="black" points="35.36,-132.16 30,-123.02 28.49,-133.51 35.36,-132.16"/>
<text text-anchor="middle" x="112.5" y="-318.8" font-family="Times,serif" font-size="14.00">t12</text>
</g>
<!-- S18&#45;&gt;S15 -->
<g id="edge20" class="edge">
<title>S18&#45;&gt;S15</title>
<path fill="none" stroke="black" d="M439.85,-528.4C434.99,-526.19 429.85,-523.95 425,-522 402.31,-512.88 395.33,-513.98 373,-504 351.93,-494.59 329.23,-481.95 311.89,-471.74"/>
<polygon fill="black" stroke="black" points="313.24,-468.47 302.86,-466.35 309.65,-474.48 313.24,-468.47"/>
<text text-anchor="middle" x="381" y="-492.8" font-family="Times,serif" font-size="14.00">t5</text>
</g>
<!-- S18&#45;&gt;S2 -->
<g id="edge18" class="edge">
<title>S18&#45;&gt;S2</title>
<path fill="none" stroke="black" d="M457.92,-521.83C456.46,-511.46 456.53,-498.46 463,-489 463.83,-487.78 491.98,-476.33 515.66,-466.85"/>
<polygon fill="black" stroke="black" points="517.12,-470.03 525.11,-463.07 514.52,-463.53 517.12,-470.03"/>
<text text-anchor="middle" x="471" y="-492.8" font-family="Times,serif" font-size="14.00">t1</text>
</g>
<!-- S18&#45;&gt;S2 -->
<g id="edge19" class="edge">
<title>S18&#45;&gt;S2</title>
<path fill="none" stroke="black" d="M476.98,-524.19C490.63,-510.71 510.95,-490.62 526.36,-475.39"/>
<polygon fill="black" stroke="black" points="528.83,-477.87 533.48,-468.35 523.91,-472.89 528.83,-477.87"/>
<text text-anchor="middle" x="522.5" y="-492.8" font-family="Times,serif" font-size="14.00">t13</text>
</g>
<!-- S0 -->
<g id="node7" class="node">
<title>S0</title>
<ellipse fill="#ffffff" stroke="black" cx="442" cy="-714" rx="27" ry="18"/>
<text text-anchor="middle" x="442" y="-710.3" font-family="Times,serif" font-size="14.00">S0</text>
</g>
<!-- S0&#45;&gt;S10 -->
<g id="edge26" class="edge">
<title>S0&#45;&gt;S10</title>
<path fill="none" stroke="black" d="M415.02,-712.86C327.03,-711.68 54,-702.04 54,-628 54,-628 54,-628 54,-408.5 54,-351.13 94.94,-346.34 143,-315 162.78,-302.1 171.14,-305.94 193,-297 194.82,-296.26 196.67,-295.48 198.54,-294.67"/>
<polygon fill="black" stroke="black" points="200.1,-297.81 207.83,-290.56 197.27,-291.41 200.1,-297.81"/>
<text text-anchor="middle" x="66.5" y="-492.8" font-family="Times,serif" font-size="14.00">t12</text>
</g>
<!-- S19 -->
<g id="node16" class="node">
<title>S19</title>
<ellipse fill="#ffffff" stroke="black" cx="586" cy="-627" rx="28.7" ry="18"/>
<text text-anchor="middle" x="586" y="-623.3" font-family="Times,serif" font-size="14.00">S19</text>
</g>
<!-- S0&#45;&gt;S19 -->
<g id="edge22" class="edge">
<title>S0&#45;&gt;S19</title>
<path fill="none" stroke="black" d="M468.1,-708.71C490.6,-704.03 523.15,-694.85 547,-678 556.4,-671.36 564.63,-661.8 571.08,-652.81"/>
<polygon fill="black" stroke="black" points="574,-654.74 576.69,-644.49 568.2,-650.82 574,-654.74"/>
<text text-anchor="middle" x="570" y="-666.8" font-family="Times,serif" font-size="14.00">t1</text>
</g>
<!-- S0&#45;&gt;S19 -->
<g id="edge24" class="edge">
<title>S0&#45;&gt;S19</title>
<path fill="none" stroke="black" d="M460.08,-700.32C475.27,-689.86 497.68,-674.87 518,-663 529.85,-656.08 543.22,-649.04 554.95,-643.11"/>
<polygon fill="black" stroke="black" points="556.56,-646.21 563.94,-638.61 553.43,-639.95 556.56,-646.21"/>
<text text-anchor="middle" x="530.5" y="-666.8" font-family="Times,serif" font-size="14.00">t13</text>
</g>
<!-- S17 -->
<g id="node17" class="node">
<title>S17</title>
<ellipse fill="#ffffff" stroke="black" cx="394" cy="-627" rx="28.7" ry="18"/>
<text text-anchor="middle" x="394" y="-623.3" font-family="Times,serif" font-size="14.00">S17</text>
</g>
<!-- S0&#45;&gt;S17 -->
<g id="edge23" class="edge">
<title>S0&#45;&gt;S17</title>
<path fill="none" stroke="black" d="M435.76,-696.33C431.77,-686.38 426.2,-673.66 420,-663 417.82,-659.25 415.31,-655.42 412.72,-651.73"/>
<polygon fill="black" stroke="black" points="415.43,-649.5 406.69,-643.51 409.79,-653.65 415.43,-649.5"/>
<text text-anchor="middle" x="435" y="-666.8" font-family="Times,serif" font-size="14.00">t2</text>
</g>
<!-- S0&#45;&gt;S17 -->
<g id="edge25" class="edge">
<title>S0&#45;&gt;S17</title>
<path fill="none" stroke="black" d="M419.73,-703.8C408.97,-698.08 397.1,-689.59 391,-678 387.38,-671.12 386.65,-662.95 387.24,-655.23"/>
<polygon fill="black" stroke="black" points="390.73,-655.54 388.71,-645.14 383.8,-654.54 390.73,-655.54"/>
<text text-anchor="middle" x="403.5" y="-666.8" font-family="Times,serif" font-size="14.00">t17</text>
</g>
<!-- S13&#45;&gt;S10 -->
<g id="edge31" class="edge">
<title>S13&#45;&gt;S10</title>
<path fill="none" stroke="black" d="M310.15,-350.96C294.72,-337.31 271.1,-316.39 253.49,-300.8"/>
<polygon fill="black" stroke="black" points="255.68,-298.07 245.88,-294.06 251.04,-303.31 255.68,-298.07"/>
<text text-anchor="middle" x="292" y="-318.8" font-family="Times,serif" font-size="14.00">t7</text>
</g>
<!-- S13&#45;&gt;S6 -->
<g id="edge32" class="edge">
<title>S13&#45;&gt;S6</title>
<path fill="none" stroke="black" d="M331.17,-347.99C334.39,-338.15 338.89,-325.65 344,-315 360.21,-281.18 376.02,-278.54 388,-243 400.27,-206.6 402.66,-161.92 402.73,-133.7"/>
<polygon fill="black" stroke="black" points="406.23,-133.36 402.65,-123.39 399.23,-133.41 406.23,-133.36"/>
<text text-anchor="middle" x="404.5" y="-231.8" font-family="Times,serif" font-size="14.00">t11</text>
</g>
<!-- S11 -->
<g id="node18" class="node">
<title>S11</title>
<ellipse fill="#ffeeee" stroke="black" cx="155" cy="-279" rx="28.7" ry="18"/>
<text text-anchor="middle" x="155" y="-275.3" font-family="Times,serif" font-size="14.00">S11</text>
</g>
<!-- S13&#45;&gt;S11 -->
<g id="edge28" class="edge">
<title>S13&#45;&gt;S11</title>
<path fill="none" stroke="black" d="M298.59,-360.47C263.64,-354.28 205.63,-342.53 188,-330 179.32,-323.83 172.3,-314.59 167.01,-305.73"/>
<polygon fill="black" stroke="black" points="169.98,-303.87 162.11,-296.78 163.84,-307.23 169.98,-303.87"/>
<text text-anchor="middle" x="196" y="-318.8" font-family="Times,serif" font-size="14.00">t2</text>
</g>
<!-- S13&#45;&gt;S11 -->
<g id="edge30" class="edge">
<title>S13&#45;&gt;S11</title>
<path fill="none" stroke="black" d="M302.37,-355.71C285.82,-349.01 263.3,-339.51 244,-330 223.61,-319.96 201.31,-307.43 184.14,-297.42"/>
<polygon fill="black" stroke="black" points="185.56,-294.2 175.17,-292.16 182.02,-300.24 185.56,-294.2"/>
<text text-anchor="middle" x="256.5" y="-318.8" font-family="Times,serif" font-size="14.00">t17</text>
</g>
<!-- S4 -->
<g id="node19" class="node">
<title>S4</title>
<ellipse fill="#ffffff" stroke="black" cx="424" cy="-279" rx="27" ry="18"/>
<text text-anchor="middle" x="424" y="-275.3" font-family="Times,serif" font-size="14.00">S4</text>
</g>
<!-- S13&#45;&gt;S4 -->
<g id="edge27" class="edge">
<title>S13&#45;&gt;S4</title>
<path fill="none" stroke="black" d="M349.18,-355.26C361.85,-349.2 377.29,-340.56 389,-330 396.94,-322.84 404.07,-313.55 409.78,-304.93"/>
<polygon fill="black" stroke="black" points="412.84,-306.63 415.19,-296.3 406.91,-302.91 412.84,-306.63"/>
<text text-anchor="middle" x="410" y="-318.8" font-family="Times,serif" font-size="14.00">t1</text>
</g>
<!-- S13&#45;&gt;S4 -->
<g id="edge29" class="edge">
<title>S13&#45;&gt;S4</title>
<path fill="none" stroke="black" d="M334.44,-348.67C340.49,-338.11 349.43,-324.6 360,-315 369.36,-306.51 381.14,-299.32 392.04,-293.71"/>
<polygon fill="black" stroke="black" points="393.85,-296.72 401.31,-289.19 390.78,-290.43 393.85,-296.72"/>
<text text-anchor="middle" x="372.5" y="-318.8" font-family="Times,serif" font-size="14.00">t13</text>
</g>
<!-- S12&#45;&gt;S7 -->
<g id="edge34" class="edge">
<title>S12&#45;&gt;S7</title>
<path fill="none" stroke="black" d="M167.82,-352.45C151.21,-340.41 128.14,-320.59 117,-297 93.38,-246.98 75.88,-224.7 98,-174 126.17,-109.42 195.99,-59.67 235.86,-35.37"/>
<polygon fill="black" stroke="black" points="237.8,-38.29 244.6,-30.17 234.22,-32.28 237.8,-38.29"/>
<text text-anchor="middle" x="106" y="-188.3" font-family="Times,serif" font-size="14.00">t8</text>
</g>
<!-- S12&#45;&gt;S11 -->
<g id="edge33" class="edge">
<title>S12&#45;&gt;S11</title>
<path fill="none" stroke="black" d="M167.48,-352.33C160.26,-346.49 152.89,-338.87 149,-330 145.86,-322.84 145.65,-314.59 146.7,-306.88"/>
<polygon fill="black" stroke="black" points="150.17,-307.35 148.75,-296.85 143.31,-305.94 150.17,-307.35"/>
<text text-anchor="middle" x="157" y="-318.8" font-family="Times,serif" font-size="14.00">t6</text>
</g>
<!-- S8&#45;&gt;S9 -->
<g id="edge35" class="edge">
<title>S8&#45;&gt;S9</title>
<path fill="none" stroke="black" d="M131.85,-178.46C111.23,-164.21 77.38,-140.82 53.74,-124.48"/>
<polygon fill="black" stroke="black" points="55.44,-121.4 45.22,-118.59 51.46,-127.16 55.44,-121.4"/>
<text text-anchor="middle" x="104" y="-144.8" font-family="Times,serif" font-size="14.00">t3</text>
</g>
<!-- S5&#45;&gt;S6 -->
<g id="edge36" class="edge">
<title>S5&#45;&gt;S6</title>
<path fill="none" stroke="black" d="M453.44,-175.41C443.94,-162.59 430.33,-144.22 419.49,-129.6"/>
<polygon fill="black" stroke="black" points="422.25,-127.44 413.48,-121.49 416.62,-131.61 422.25,-127.44"/>
<text text-anchor="middle" x="445" y="-144.8" font-family="Times,serif" font-size="14.00">t3</text>
</g>
<!-- S3&#45;&gt;S4 -->
<g id="edge37" class="edge">
<title>S3&#45;&gt;S4</title>
<path fill="none" stroke="black" d="M422.03,-348.66C424.45,-342.9 426.79,-336.3 428,-330 429.41,-322.68 429.43,-314.66 428.83,-307.23"/>
<polygon fill="black" stroke="black" points="432.3,-306.77 427.65,-297.25 425.35,-307.59 432.3,-306.77"/>
<text text-anchor="middle" x="437" y="-318.8" font-family="Times,serif" font-size="14.00">t6</text>
</g>
<!-- S14 -->
<g id="node14" class="node">
<title>S14</title>
<ellipse fill="#ffffff" stroke="black" cx="387" cy="-540" rx="28.7" ry="18"/>
<text text-anchor="middle" x="387" y="-536.3" font-family="Times,serif" font-size="14.00">S14</text>
</g>
<!-- S14&#45;&gt;S15 -->
<g id="edge39" class="edge">
<title>S14&#45;&gt;S15</title>
<path fill="none" stroke="black" d="M358.64,-536.31C336.79,-532.67 307.6,-524.11 291,-504 285.79,-497.68 283.31,-489.34 282.27,-481.28"/>
<polygon fill="black" stroke="black" points="285.74,-480.81 281.61,-471.05 278.76,-481.26 285.74,-480.81"/>
<text text-anchor="middle" x="299" y="-492.8" font-family="Times,serif" font-size="14.00">t3</text>
</g>
<!-- S14&#45;&gt;S5 -->
<g id="edge38" class="edge">
<title>S14&#45;&gt;S5</title>
<path fill="none" stroke="black" d="M406.8,-526.73C424.41,-514.74 449.4,-494.84 463,-471 497.91,-409.82 495.43,-385.3 491,-315 488.55,-276.1 490.22,-265.61 480,-228 479.18,-224.97 478.14,-221.86 477.01,-218.81"/>
<polygon fill="black" stroke="black" points="480.18,-217.32 473.15,-209.4 473.7,-219.98 480.18,-217.32"/>
<text text-anchor="middle" x="501" y="-362.3" font-family="Times,serif" font-size="14.00">t8</text>
</g>
<!-- S16 -->
<g id="node20" class="node">
<title>S16</title>
<ellipse fill="#ffffff" stroke="black" cx="425" cy="-453" rx="28.7" ry="18"/>
<text text-anchor="middle" x="425" y="-449.3" font-family="Times,serif" font-size="14.00">S16</text>
</g>
<!-- S14&#45;&gt;S16 -->
<g id="edge40" class="edge">
<title>S14&#45;&gt;S16</title>
<path fill="none" stroke="black" d="M389.37,-521.76C391.16,-511.85 394.16,-499.35 399,-489 400.84,-485.07 403.16,-481.14 405.65,-477.41"/>
<polygon fill="black" stroke="black" points="408.6,-479.31 411.64,-469.17 402.93,-475.2 408.6,-479.31"/>
<text text-anchor="middle" x="407" y="-492.8" font-family="Times,serif" font-size="14.00">t6</text>
</g>
<!-- S2&#45;&gt;S7 -->
<g id="edge41" class="edge">
<title>S2&#45;&gt;S7</title>
<path fill="none" stroke="black" d="M555.19,-435.6C570.1,-400.06 603,-312.95 603,-236.5 603,-236.5 603,-236.5 603,-104 603,-42.51 389.97,-25.08 302.15,-20.51"/>
<polygon fill="black" stroke="black" points="302.25,-17.01 292.09,-20.01 301.9,-24 302.25,-17.01"/>
<text text-anchor="middle" x="615.5" y="-231.8" font-family="Times,serif" font-size="14.00">t12</text>
</g>
<!-- S2&#45;&gt;S3 -->
<g id="edge42" class="edge">
<title>S2&#45;&gt;S3</title>
<path fill="none" stroke="black" d="M529.09,-440C506.24,-425.51 467.63,-401.02 441.5,-384.44"/>
<polygon fill="black" stroke="black" points="443.14,-381.34 432.82,-378.94 439.39,-387.25 443.14,-381.34"/>
<text text-anchor="middle" x="497" y="-405.8" font-family="Times,serif" font-size="14.00">t5</text>
</g>
<!-- S19&#45;&gt;S1 -->
<g id="edge44" class="edge">
<title>S19&#45;&gt;S1</title>
<path fill="none" stroke="black" d="M588.02,-608.8C589.39,-597.16 591.23,-581.55 592.8,-568.24"/>
<polygon fill="black" stroke="black" points="596.29,-568.52 593.98,-558.18 589.33,-567.7 596.29,-568.52"/>
<text text-anchor="middle" x="599" y="-579.8" font-family="Times,serif" font-size="14.00">t3</text>
</g>
<!-- S19&#45;&gt;S5 -->
<g id="edge43" class="edge">
<title>S19&#45;&gt;S5</title>
<path fill="none" stroke="black" d="M607.86,-614.84C631.55,-601.01 666,-575.05 666,-541 666,-541 666,-541 666,-408.5 666,-357.51 544.13,-255.27 490.18,-212.51"/>
<polygon fill="black" stroke="black" points="492.16,-209.61 482.14,-206.17 487.83,-215.11 492.16,-209.61"/>
<text text-anchor="middle" x="678.5" y="-405.8" font-family="Times,serif" font-size="14.00">t12</text>
</g>
<!-- S17&#45;&gt;S18 -->
<g id="edge47" class="edge">
<title>S17&#45;&gt;S18</title>
<path fill="none" stroke="black" d="M406.47,-610.41C416.73,-597.59 431.43,-579.22 443.12,-564.6"/>
<polygon fill="black" stroke="black" points="446.09,-566.49 449.61,-556.49 440.63,-562.11 446.09,-566.49"/>
<text text-anchor="middle" x="440" y="-579.8" font-family="Times,serif" font-size="14.00">t3</text>
</g>
<!-- S17&#45;&gt;S8 -->
<g id="edge45" class="edge">
<title>S17&#45;&gt;S8</title>
<path fill="none" stroke="black" d="M368.18,-618.86C314.77,-602.59 192.5,-557.35 137,-471 86.31,-392.13 96,-352.37 117,-261 120.49,-245.82 127.84,-230.09 134.72,-217.59"/>
<polygon fill="black" stroke="black" points="137.87,-219.13 139.82,-208.72 131.8,-215.65 137.87,-219.13"/>
<text text-anchor="middle" x="122.5" y="-405.8" font-family="Times,serif" font-size="14.00">t12</text>
</g>
<!-- S17&#45;&gt;S14 -->
<g id="edge46" class="edge">
<title>S17&#45;&gt;S14</title>
<path fill="none" stroke="black" d="M392.58,-608.8C391.63,-597.16 390.34,-581.55 389.24,-568.24"/>
<polygon fill="black" stroke="black" points="392.72,-567.85 388.41,-558.18 385.75,-568.43 392.72,-567.85"/>
<text text-anchor="middle" x="398" y="-579.8" font-family="Times,serif" font-size="14.00">t5</text>
</g>
<!-- S11&#45;&gt;S8 -->
<g id="edge48" class="edge">
<title>S11&#45;&gt;S8</title>
<path fill="none" stroke="black" d="M150.9,-261.01C149.72,-255.32 148.59,-248.92 148,-243 147.28,-235.68 147.25,-227.74 147.54,-220.38"/>
<polygon fill="black" stroke="black" points="151.05,-220.35 148.14,-210.16 144.06,-219.93 151.05,-220.35"/>
<text text-anchor="middle" x="156" y="-231.8" font-family="Times,serif" font-size="14.00">t7</text>
</g>
<!-- S11&#45;&gt;S7 -->
<g id="edge49" class="edge">
<title>S11&#45;&gt;S7</title>
<path fill="none" stroke="black" d="M177.16,-267.42C182.01,-265.21 187.15,-262.96 192,-261 214.28,-251.97 228.17,-261.92 243,-243 266.45,-213.07 266.96,-99.22 265.86,-46.32"/>
<polygon fill="black" stroke="black" points="269.36,-46.21 265.61,-36.3 262.36,-46.38 269.36,-46.21"/>
<text text-anchor="middle" x="277.5" y="-144.8" font-family="Times,serif" font-size="14.00">t11</text>
</g>
<!-- S4&#45;&gt;S5 -->
<g id="edge50" class="edge">
<title>S4&#45;&gt;S5</title>
<path fill="none" stroke="black" d="M431.91,-261.61C437.8,-249.38 445.97,-232.44 452.72,-218.46"/>
<polygon fill="black" stroke="black" points="455.93,-219.87 457.12,-209.34 449.62,-216.82 455.93,-219.87"/>
<text text-anchor="middle" x="454" y="-231.8" font-family="Times,serif" font-size="14.00">t7</text>
</g>
<!-- S16&#45;&gt;S13 -->
<g id="edge51" class="edge">
<title>S16&#45;&gt;S13</title>
<path fill="none" stroke="black" d="M420.86,-434.92C417.54,-424.32 411.93,-411.04 403,-402 391.68,-390.54 375.92,-382.48 361.61,-377"/>
<polygon fill="black" stroke="black" points="362.6,-373.64 352.01,-373.61 360.27,-380.24 362.6,-373.64"/>
<text text-anchor="middle" x="421" y="-405.8" font-family="Times,serif" font-size="14.00">t3</text>
</g>
<!-- S16&#45;&gt;S5 -->
<g id="edge52" class="edge">
<title>S16&#45;&gt;S5</title>
<path fill="none" stroke="black" d="M432.3,-435.57C438.01,-422.01 445.69,-402.11 450,-384 464.59,-322.64 462.51,-305.97 466,-243 466.41,-235.66 466.43,-227.71 466.29,-220.35"/>
<polygon fill="black" stroke="black" points="469.78,-220.02 465.98,-210.14 462.79,-220.24 469.78,-220.02"/>
<text text-anchor="middle" x="474.5" y="-318.8" font-family="Times,serif" font-size="14.00">t11</text>
</g>
</g>
</svg>
