<?xml version="1.0" encoding="UTF-8" standalone="no"?>
<!DOCTYPE svg PUBLIC "-//W3C//DTD SVG 1.1//EN"
 "http://www.w3.org/Graphics/SVG/1.1/DTD/svg11.dtd">
<!-- Generated by graphviz version 2.43.0 (0)
 -->
<!-- Title: SCdebug/47 Pages: 1 -->
<svg width="143pt" height="566pt"
 viewBox="0.00 0.00 143.00 566.00" xmlns="http://www.w3.org/2000/svg" xmlns:xlink="http://www.w3.org/1999/xlink">
<g id="graph0" class="graph" transform="scale(1 1) rotate(0) translate(4 562)">
<title>SCdebug/47</title>
<polygon fill="white" stroke="transparent" points="-4,4 -4,-562 139,-562 139,4 -4,4"/>
<!-- S5 -->
<g id="node1" class="node">
<title>S5</title>
<ellipse fill="none" stroke="black" cx="37" cy="-105" rx="27" ry="18"/>
<text text-anchor="middle" x="37" y="-101.3" font-family="Times,serif" font-size="14.00">S5</text>
</g>
<!-- S6 -->
<g id="node3" class="node">
<title>S6</title>
<ellipse fill="#ffeeee" stroke="black" cx="79" cy="-18" rx="27" ry="18"/>
<text text-anchor="middle" x="79" y="-14.3" font-family="Times,serif" font-size="14.00">S6</text>
</g>
<!-- S5&#45;&gt;S6 -->
<g id="edge1" class="edge">
<title>S5&#45;&gt;S6</title>
<path fill="none" stroke="black" d="M46.72,-87.81C50.11,-81.96 53.85,-75.25 57,-69 60.84,-61.38 64.7,-52.94 68.09,-45.19"/>
<polygon fill="black" stroke="black" points="71.36,-46.44 72.1,-35.87 64.93,-43.68 71.36,-46.44"/>
<text text-anchor="middle" x="72" y="-57.8" font-family="Times,serif" font-size="14.00">t2</text>
</g>
<!-- S5&#45;&gt;S6 -->
<g id="edge2" class="edge">
<title>S5&#45;&gt;S6</title>
<path fill="none" stroke="black" d="M28.89,-87.42C25.14,-77.27 22.58,-64.3 28,-54 32.48,-45.49 40.07,-38.65 48.05,-33.35"/>
<polygon fill="black" stroke="black" points="49.91,-36.31 56.73,-28.2 46.34,-30.29 49.91,-36.31"/>
<text text-anchor="middle" x="40.5" y="-57.8" font-family="Times,serif" font-size="14.00">t17</text>
</g>
<!-- S0 -->
<g id="node2" class="node">
<title>S0</title>
<ellipse fill="none" stroke="black" cx="33" cy="-540" rx="27" ry="18"/>
<text text-anchor="middle" x="33" y="-536.3" font-family="Times,serif" font-size="14.00">S0</text>
</g>
<!-- S0&#45;&gt;S5 -->
<g id="edge5" class="edge">
<title>S0&#45;&gt;S5</title>
<path fill="none" stroke="black" d="M22.74,-523.1C13.05,-506.54 0,-479.49 0,-454 0,-454 0,-454 0,-191 0,-169.2 10.35,-146.68 20.11,-130.3"/>
<polygon fill="black" stroke="black" points="23.33,-131.75 25.7,-121.42 17.41,-128.02 23.33,-131.75"/>
<text text-anchor="middle" x="12.5" y="-318.8" font-family="Times,serif" font-size="14.00">t12</text>
</g>
<!-- S1 -->
<g id="node6" class="node">
<title>S1</title>
<ellipse fill="#ffeeee" stroke="black" cx="68" cy="-453" rx="27" ry="18"/>
<text text-anchor="middle" x="68" y="-449.3" font-family="Times,serif" font-size="14.00">S1</text>
</g>
<!-- S0&#45;&gt;S1 -->
<g id="edge3" class="edge">
<title>S0&#45;&gt;S1</title>
<path fill="none" stroke="black" d="M30.29,-521.69C29.47,-511.76 29.72,-499.26 34,-489 36.2,-483.72 39.61,-478.8 43.43,-474.4"/>
<polygon fill="black" stroke="black" points="46.08,-476.69 50.58,-467.1 41.08,-471.79 46.08,-476.69"/>
<text text-anchor="middle" x="42" y="-492.8" font-family="Times,serif" font-size="14.00">t2</text>
</g>
<!-- S0&#45;&gt;S1 -->
<g id="edge4" class="edge">
<title>S0&#45;&gt;S1</title>
<path fill="none" stroke="black" d="M41.32,-522.78C44.21,-516.93 47.38,-510.22 50,-504 53.19,-496.43 56.34,-488.08 59.09,-480.41"/>
<polygon fill="black" stroke="black" points="62.44,-481.43 62.44,-470.84 55.83,-479.12 62.44,-481.43"/>
<text text-anchor="middle" x="67.5" y="-492.8" font-family="Times,serif" font-size="14.00">t17</text>
</g>
<!-- S4 -->
<g id="node4" class="node">
<title>S4</title>
<ellipse fill="#ffffff" stroke="black" cx="55" cy="-192" rx="27" ry="18"/>
<text text-anchor="middle" x="55" y="-188.3" font-family="Times,serif" font-size="14.00">S4</text>
</g>
<!-- S4&#45;&gt;S5 -->
<g id="edge6" class="edge">
<title>S4&#45;&gt;S5</title>
<path fill="none" stroke="black" d="M51.36,-173.8C48.88,-162.09 45.54,-146.34 42.71,-132.97"/>
<polygon fill="black" stroke="black" points="46.07,-131.94 40.58,-122.89 39.22,-133.39 46.07,-131.94"/>
<text text-anchor="middle" x="55" y="-144.8" font-family="Times,serif" font-size="14.00">t3</text>
</g>
<!-- S2 -->
<g id="node5" class="node">
<title>S2</title>
<ellipse fill="#ffffff" stroke="black" cx="55" cy="-366" rx="27" ry="18"/>
<text text-anchor="middle" x="55" y="-362.3" font-family="Times,serif" font-size="14.00">S2</text>
</g>
<!-- S3 -->
<g id="node7" class="node">
<title>S3</title>
<ellipse fill="#ffffff" stroke="black" cx="55" cy="-279" rx="27" ry="18"/>
<text text-anchor="middle" x="55" y="-275.3" font-family="Times,serif" font-size="14.00">S3</text>
</g>
<!-- S2&#45;&gt;S3 -->
<g id="edge7" class="edge">
<title>S2&#45;&gt;S3</title>
<path fill="none" stroke="black" d="M55,-347.8C55,-336.16 55,-320.55 55,-307.24"/>
<polygon fill="black" stroke="black" points="58.5,-307.18 55,-297.18 51.5,-307.18 58.5,-307.18"/>
<text text-anchor="middle" x="63" y="-318.8" font-family="Times,serif" font-size="14.00">t6</text>
</g>
<!-- S1&#45;&gt;S6 -->
<g id="edge8" class="edge">
<title>S1&#45;&gt;S6</title>
<path fill="none" stroke="black" d="M80.83,-436.82C93.18,-420.62 110,-393.67 110,-367 110,-367 110,-367 110,-104 110,-82.86 101.43,-60.45 93.3,-43.96"/>
<polygon fill="black" stroke="black" points="96.36,-42.24 88.64,-34.98 90.15,-45.47 96.36,-42.24"/>
<text text-anchor="middle" x="122.5" y="-231.8" font-family="Times,serif" font-size="14.00">t12</text>
</g>
<!-- S1&#45;&gt;S2 -->
<g id="edge9" class="edge">
<title>S1&#45;&gt;S2</title>
<path fill="none" stroke="black" d="M65.37,-434.8C63.59,-423.16 61.2,-407.55 59.17,-394.24"/>
<polygon fill="black" stroke="black" points="62.6,-393.53 57.63,-384.18 55.68,-394.59 62.6,-393.53"/>
<text text-anchor="middle" x="70" y="-405.8" font-family="Times,serif" font-size="14.00">t5</text>
</g>
<!-- S3&#45;&gt;S4 -->
<g id="edge10" class="edge">
<title>S3&#45;&gt;S4</title>
<path fill="none" stroke="black" d="M55,-260.8C55,-249.16 55,-233.55 55,-220.24"/>
<polygon fill="black" stroke="black" points="58.5,-220.18 55,-210.18 51.5,-220.18 58.5,-220.18"/>
<text text-anchor="middle" x="63" y="-231.8" font-family="Times,serif" font-size="14.00">t7</text>
</g>
</g>
</svg>
