<?xml version="1.0" encoding="UTF-8" standalone="no"?>
<!DOCTYPE svg PUBLIC "-//W3C//DTD SVG 1.1//EN"
 "http://www.w3.org/Graphics/SVG/1.1/DTD/svg11.dtd">
<!-- Generated by graphviz version 2.49.0 (20210828.1703)
 -->
<!-- Title: SCdebug/4 Pages: 1 -->
<svg width="170pt" height="305pt"
 viewBox="0.00 0.00 170.00 305.00" xmlns="http://www.w3.org/2000/svg" xmlns:xlink="http://www.w3.org/1999/xlink">
<g id="graph0" class="graph" transform="scale(1 1) rotate(0) translate(4 301)">
<title>SCdebug/4</title>
<polygon fill="white" stroke="transparent" points="-4,4 -4,-301 166,-301 166,4 -4,4"/>
<!-- S0 -->
<g id="node1" class="node">
<title>S0</title>
<ellipse fill="none" stroke="black" cx="98" cy="-279" rx="27" ry="18"/>
<text text-anchor="middle" x="98" y="-275.3" font-family="Times New Roman,serif" font-size="14.00">S0</text>
</g>
<!-- S4 -->
<g id="node5" class="node">
<title>S4</title>
<ellipse fill="#ffeeee" stroke="black" cx="63" cy="-192" rx="27" ry="18"/>
<text text-anchor="middle" x="63" y="-188.3" font-family="Times New Roman,serif" font-size="14.00">S4</text>
</g>
<!-- S0&#45;&gt;S4 -->
<g id="edge2" class="edge">
<title>S0&#45;&gt;S4</title>
<path fill="none" stroke="black" d="M91.09,-261.21C86.12,-249.14 79.32,-232.64 73.66,-218.89"/>
<polygon fill="black" stroke="black" points="76.83,-217.38 69.78,-209.47 70.35,-220.05 76.83,-217.38"/>
<text text-anchor="middle" x="91" y="-231.8" font-family="Times New Roman,serif" font-size="14.00">t5f</text>
</g>
<!-- S2 -->
<g id="node7" class="node">
<title>S2</title>
<ellipse fill="#ffeeee" stroke="black" cx="135" cy="-192" rx="27" ry="18"/>
<text text-anchor="middle" x="135" y="-188.3" font-family="Times New Roman,serif" font-size="14.00">S2</text>
</g>
<!-- S0&#45;&gt;S2 -->
<g id="edge1" class="edge">
<title>S0&#45;&gt;S2</title>
<path fill="none" stroke="black" d="M105.13,-261.61C110.37,-249.58 117.6,-232.98 123.63,-219.13"/>
<polygon fill="black" stroke="black" points="126.98,-220.19 127.76,-209.63 120.56,-217.4 126.98,-220.19"/>
<text text-anchor="middle" x="123.5" y="-231.8" font-family="Times New Roman,serif" font-size="14.00">t4</text>
</g>
<!-- S6 -->
<g id="node2" class="node">
<title>S6</title>
<ellipse fill="#ffeeee" stroke="black" cx="27" cy="-18" rx="27" ry="18"/>
<text text-anchor="middle" x="27" y="-14.3" font-family="Times New Roman,serif" font-size="14.00">S6</text>
</g>
<!-- S1 -->
<g id="node3" class="node">
<title>S1</title>
<ellipse fill="#ffeeee" stroke="black" cx="99" cy="-18" rx="27" ry="18"/>
<text text-anchor="middle" x="99" y="-14.3" font-family="Times New Roman,serif" font-size="14.00">S1</text>
</g>
<!-- S5 -->
<g id="node4" class="node">
<title>S5</title>
<ellipse fill="#ffffff" stroke="black" cx="63" cy="-105" rx="27" ry="18"/>
<text text-anchor="middle" x="63" y="-101.3" font-family="Times New Roman,serif" font-size="14.00">S5</text>
</g>
<!-- S5&#45;&gt;S6 -->
<g id="edge3" class="edge">
<title>S5&#45;&gt;S6</title>
<path fill="none" stroke="black" d="M55.89,-87.21C50.78,-75.14 43.79,-58.64 37.97,-44.89"/>
<polygon fill="black" stroke="black" points="41.1,-43.31 33.98,-35.47 34.65,-46.04 41.1,-43.31"/>
<text text-anchor="middle" x="56" y="-57.8" font-family="Times New Roman,serif" font-size="14.00">t5f</text>
</g>
<!-- S5&#45;&gt;S1 -->
<g id="edge4" class="edge">
<title>S5&#45;&gt;S1</title>
<path fill="none" stroke="black" d="M70.11,-87.21C75.22,-75.14 82.21,-58.64 88.03,-44.89"/>
<polygon fill="black" stroke="black" points="91.35,-46.04 92.02,-35.47 84.9,-43.31 91.35,-46.04"/>
<text text-anchor="middle" x="89.5" y="-57.8" font-family="Times New Roman,serif" font-size="14.00">t4</text>
</g>
<!-- S4&#45;&gt;S5 -->
<g id="edge5" class="edge">
<title>S4&#45;&gt;S5</title>
<path fill="none" stroke="black" d="M63,-173.8C63,-162.16 63,-146.55 63,-133.24"/>
<polygon fill="black" stroke="black" points="66.5,-133.18 63,-123.18 59.5,-133.18 66.5,-133.18"/>
<text text-anchor="middle" x="71" y="-144.8" font-family="Times New Roman,serif" font-size="14.00">t2r</text>
</g>
<!-- S3 -->
<g id="node6" class="node">
<title>S3</title>
<ellipse fill="#ffffff" stroke="black" cx="135" cy="-105" rx="27" ry="18"/>
<text text-anchor="middle" x="135" y="-101.3" font-family="Times New Roman,serif" font-size="14.00">S3</text>
</g>
<!-- S2&#45;&gt;S3 -->
<g id="edge6" class="edge">
<title>S2&#45;&gt;S3</title>
<path fill="none" stroke="black" d="M135,-173.8C135,-162.16 135,-146.55 135,-133.24"/>
<polygon fill="black" stroke="black" points="138.5,-133.18 135,-123.18 131.5,-133.18 138.5,-133.18"/>
<text text-anchor="middle" x="143" y="-144.8" font-family="Times New Roman,serif" font-size="14.00">t2r</text>
</g>
</g>
</svg>
