<?xml version="1.0" encoding="UTF-8" standalone="no"?>
<!DOCTYPE svg PUBLIC "-//W3C//DTD SVG 1.1//EN"
 "http://www.w3.org/Graphics/SVG/1.1/DTD/svg11.dtd">
<!-- Generated by graphviz version 2.43.0 (0)
 -->
<!-- Title: SCdebug/4 Pages: 1 -->
<svg width="141pt" height="848pt"
 viewBox="0.00 0.00 140.79 848.04" xmlns="http://www.w3.org/2000/svg" xmlns:xlink="http://www.w3.org/1999/xlink">
<g id="graph0" class="graph" transform="scale(1 1) rotate(0) translate(4 844.04)">
<title>SCdebug/4</title>
<polygon fill="white" stroke="transparent" points="-4,4 -4,-844.04 136.79,-844.04 136.79,4 -4,4"/>
<!-- R111_L13e -->
<g id="node1" class="node">
<title>R111_L13e</title>
<ellipse fill="none" stroke="black" cx="66.39" cy="-773.65" rx="62.3" ry="62.3"/>
<ellipse fill="none" stroke="black" cx="66.39" cy="-773.65" rx="66.29" ry="66.29"/>
<text text-anchor="middle" x="66.39" y="-769.95" font-family="Times,serif" font-size="14.00">R111_L13e</text>
</g>
<!-- R110_L1ee -->
<g id="node2" class="node">
<title>R110_L1ee</title>
<ellipse fill="none" stroke="black" cx="66.39" cy="-594.51" rx="61.99" ry="61.99"/>
<text text-anchor="middle" x="66.39" y="-590.81" font-family="Times,serif" font-size="14.00">R110_L1ee</text>
</g>
<!-- R111_L13e&#45;&gt;R110_L1ee -->
<g id="edge1" class="edge">
<title>R111_L13e&#45;&gt;R110_L1ee</title>
<path fill="none" stroke="black" d="M66.39,-707.19C66.39,-693.92 66.39,-679.9 66.39,-666.45"/>
<polygon fill="black" stroke="black" points="69.89,-666.3 66.39,-656.3 62.89,-666.3 69.89,-666.3"/>
<text text-anchor="middle" x="74.39" y="-678.06" font-family="Times,serif" font-size="14.00">t6</text>
</g>
<!-- R111_L1e2 -->
<g id="node3" class="node">
<title>R111_L1e2</title>
<ellipse fill="none" stroke="black" cx="66.39" cy="-419.37" rx="62.29" ry="62.29"/>
<text text-anchor="middle" x="66.39" y="-415.67" font-family="Times,serif" font-size="14.00">R111_L1e2</text>
</g>
<!-- R110_L1ee&#45;&gt;R111_L1e2 -->
<g id="edge2" class="edge">
<title>R110_L1ee&#45;&gt;R111_L1e2</title>
<path fill="none" stroke="black" d="M66.39,-532.47C66.39,-519.44 66.39,-505.55 66.39,-492.16"/>
<polygon fill="black" stroke="black" points="69.89,-492.03 66.39,-482.03 62.89,-492.03 69.89,-492.03"/>
<text text-anchor="middle" x="74.39" y="-503.57" font-family="Times,serif" font-size="14.00">t7</text>
</g>
<!-- R011_L1ee -->
<g id="node4" class="node">
<title>R011_L1ee</title>
<ellipse fill="none" stroke="black" cx="66.39" cy="-244.23" rx="61.99" ry="61.99"/>
<text text-anchor="middle" x="66.39" y="-240.53" font-family="Times,serif" font-size="14.00">R011_L1ee</text>
</g>
<!-- R111_L1e2&#45;&gt;R011_L1ee -->
<g id="edge3" class="edge">
<title>R111_L1e2&#45;&gt;R011_L1ee</title>
<path fill="none" stroke="black" d="M66.39,-356.84C66.39,-343.68 66.39,-329.66 66.39,-316.17"/>
<polygon fill="black" stroke="black" points="69.89,-315.98 66.39,-305.98 62.89,-315.98 69.89,-315.98"/>
<text text-anchor="middle" x="74.39" y="-327.78" font-family="Times,serif" font-size="14.00">t3</text>
</g>
<!-- R111_Leee -->
<g id="node5" class="node">
<title>R111_Leee</title>
<ellipse fill="none" stroke="black" cx="66.39" cy="-65.74" rx="61.98" ry="61.98"/>
<ellipse fill="none" stroke="black" cx="66.39" cy="-65.74" rx="65.99" ry="65.99"/>
<text text-anchor="middle" x="66.39" y="-62.04" font-family="Times,serif" font-size="14.00">R111_Leee</text>
</g>
<!-- R011_L1ee&#45;&gt;R111_Leee -->
<g id="edge4" class="edge">
<title>R011_L1ee&#45;&gt;R111_Leee</title>
<path fill="none" stroke="black" d="M66.39,-182C66.39,-169.07 66.39,-155.28 66.39,-141.9"/>
<polygon fill="black" stroke="black" points="69.89,-141.77 66.39,-131.77 62.89,-141.77 69.89,-141.77"/>
<text text-anchor="middle" x="74.39" y="-153.29" font-family="Times,serif" font-size="14.00">t2</text>
</g>
</g>
</svg>
