<?xml version="1.0" encoding="UTF-8" standalone="no"?>
<!DOCTYPE svg PUBLIC "-//W3C//DTD SVG 1.1//EN"
 "http://www.w3.org/Graphics/SVG/1.1/DTD/svg11.dtd">
<!-- Generated by graphviz version 2.43.0 (0)
 -->
<!-- Title: SCdebug/5 Pages: 1 -->
<svg width="228pt" height="305pt"
 viewBox="0.00 0.00 228.39 305.00" xmlns="http://www.w3.org/2000/svg" xmlns:xlink="http://www.w3.org/1999/xlink">
<g id="graph0" class="graph" transform="scale(1 1) rotate(0) translate(4 301)">
<title>SCdebug/5</title>
<polygon fill="white" stroke="transparent" points="-4,4 -4,-301 224.39,-301 224.39,4 -4,4"/>
<!-- R11_L23 -->
<g id="node1" class="node">
<title>R11_L23</title>
<ellipse fill="none" stroke="black" cx="109.7" cy="-279" rx="51.19" ry="18"/>
<text text-anchor="middle" x="109.7" y="-275.3" font-family="Times,serif" font-size="14.00">R11_L23</text>
</g>
<!-- R11_L2e -->
<g id="node5" class="node">
<title>R11_L2e</title>
<ellipse fill="none" stroke="black" cx="109.7" cy="-192" rx="50.89" ry="18"/>
<text text-anchor="middle" x="109.7" y="-188.3" font-family="Times,serif" font-size="14.00">R11_L2e</text>
</g>
<!-- R11_L23&#45;&gt;R11_L2e -->
<g id="edge1" class="edge">
<title>R11_L23&#45;&gt;R11_L2e</title>
<path fill="none" stroke="black" d="M109.7,-260.8C109.7,-249.16 109.7,-233.55 109.7,-220.24"/>
<polygon fill="black" stroke="black" points="113.2,-220.18 109.7,-210.18 106.2,-220.18 113.2,-220.18"/>
<text text-anchor="middle" x="127.2" y="-231.8" font-family="Times,serif" font-size="14.00">t5R2</text>
</g>
<!-- R01_L23 -->
<g id="node2" class="node">
<title>R01_L23</title>
<ellipse fill="none" stroke="black" cx="109.7" cy="-105" rx="51.19" ry="18"/>
<text text-anchor="middle" x="109.7" y="-101.3" font-family="Times,serif" font-size="14.00">R01_L23</text>
</g>
<!-- R00_L2e -->
<g id="node3" class="node">
<title>R00_L2e</title>
<ellipse fill="none" stroke="black" cx="50.7" cy="-18" rx="50.89" ry="18"/>
<text text-anchor="middle" x="50.7" y="-14.3" font-family="Times,serif" font-size="14.00">R00_L2e</text>
</g>
<!-- R01_L23&#45;&gt;R00_L2e -->
<g id="edge2" class="edge">
<title>R01_L23&#45;&gt;R00_L2e</title>
<path fill="none" stroke="black" d="M98.04,-87.21C89.55,-74.98 77.91,-58.21 68.3,-44.36"/>
<polygon fill="black" stroke="black" points="70.91,-41.98 62.33,-35.76 65.15,-45.97 70.91,-41.98"/>
<text text-anchor="middle" x="92.7" y="-57.8" font-family="Times,serif" font-size="14.00">t4</text>
</g>
<!-- R01_L2e -->
<g id="node4" class="node">
<title>R01_L2e</title>
<ellipse fill="none" stroke="black" cx="169.7" cy="-18" rx="50.89" ry="18"/>
<text text-anchor="middle" x="169.7" y="-14.3" font-family="Times,serif" font-size="14.00">R01_L2e</text>
</g>
<!-- R01_L23&#45;&gt;R01_L2e -->
<g id="edge3" class="edge">
<title>R01_L23&#45;&gt;R01_L2e</title>
<path fill="none" stroke="black" d="M121.55,-87.21C130.26,-74.87 142.24,-57.89 152.07,-43.97"/>
<polygon fill="black" stroke="black" points="154.96,-45.95 157.87,-35.76 149.24,-41.91 154.96,-45.95"/>
<text text-anchor="middle" x="160.2" y="-57.8" font-family="Times,serif" font-size="14.00">t5R2</text>
</g>
<!-- R11_L2e&#45;&gt;R01_L23 -->
<g id="edge4" class="edge">
<title>R11_L2e&#45;&gt;R01_L23</title>
<path fill="none" stroke="black" d="M109.7,-173.8C109.7,-162.16 109.7,-146.55 109.7,-133.24"/>
<polygon fill="black" stroke="black" points="113.2,-133.18 109.7,-123.18 106.2,-133.18 113.2,-133.18"/>
<text text-anchor="middle" x="127.2" y="-144.8" font-family="Times,serif" font-size="14.00">t2R1</text>
</g>
</g>
</svg>
