<?xml version="1.0" encoding="UTF-8" standalone="no"?>
<!DOCTYPE svg PUBLIC "-//W3C//DTD SVG 1.1//EN"
 "http://www.w3.org/Graphics/SVG/1.1/DTD/svg11.dtd">
<!-- Generated by graphviz version 2.43.0 (0)
 -->
<!-- Title: SCdebug/5 Pages: 1 -->
<svg width="141pt" height="872pt"
 viewBox="0.00 0.00 140.79 872.04" xmlns="http://www.w3.org/2000/svg" xmlns:xlink="http://www.w3.org/1999/xlink">
<g id="graph0" class="graph" transform="scale(1 1) rotate(0) translate(4 868.04)">
<title>SCdebug/5</title>
<polygon fill="white" stroke="transparent" points="-4,4 -4,-868.04 136.79,-868.04 136.79,4 -4,4"/>
<!-- R101_L13e -->
<g id="node1" class="node">
<title>R101_L13e</title>
<ellipse fill="none" stroke="black" cx="66.39" cy="-797.65" rx="62.3" ry="62.3"/>
<ellipse fill="none" stroke="black" cx="66.39" cy="-797.65" rx="66.29" ry="66.29"/>
<text text-anchor="middle" x="66.39" y="-793.95" font-family="Times,serif" font-size="14.00">R101_L13e</text>
</g>
<!-- R100_L1ee -->
<g id="node2" class="node">
<title>R100_L1ee</title>
<ellipse fill="none" stroke="black" cx="66.39" cy="-614.51" rx="61.98" ry="61.98"/>
<ellipse fill="none" stroke="black" cx="66.39" cy="-614.51" rx="65.99" ry="65.99"/>
<text text-anchor="middle" x="66.39" y="-610.81" font-family="Times,serif" font-size="14.00">R100_L1ee</text>
</g>
<!-- R101_L13e&#45;&gt;R100_L1ee -->
<g id="edge1" class="edge">
<title>R101_L13e&#45;&gt;R100_L1ee</title>
<path fill="none" stroke="black" d="M66.39,-731.26C66.39,-718.09 66.39,-704.16 66.39,-690.69"/>
<polygon fill="black" stroke="black" points="69.89,-690.51 66.39,-680.51 62.89,-690.51 69.89,-690.51"/>
<text text-anchor="middle" x="74.39" y="-702.06" font-family="Times,serif" font-size="14.00">t6</text>
</g>
<!-- R101_L1e2 -->
<g id="node3" class="node">
<title>R101_L1e2</title>
<ellipse fill="none" stroke="black" cx="66.39" cy="-431.37" rx="62.3" ry="62.3"/>
<ellipse fill="none" stroke="black" cx="66.39" cy="-431.37" rx="66.29" ry="66.29"/>
<text text-anchor="middle" x="66.39" y="-427.67" font-family="Times,serif" font-size="14.00">R101_L1e2</text>
</g>
<!-- R100_L1ee&#45;&gt;R101_L1e2 -->
<g id="edge2" class="edge">
<title>R100_L1ee&#45;&gt;R101_L1e2</title>
<path fill="none" stroke="black" d="M66.39,-548.63C66.39,-535.52 66.39,-521.64 66.39,-508.19"/>
<polygon fill="black" stroke="black" points="69.89,-508.02 66.39,-498.02 62.89,-508.02 69.89,-508.02"/>
<text text-anchor="middle" x="74.39" y="-519.57" font-family="Times,serif" font-size="14.00">t7</text>
</g>
<!-- R001_L1ee -->
<g id="node4" class="node">
<title>R001_L1ee</title>
<ellipse fill="none" stroke="black" cx="66.39" cy="-248.23" rx="61.98" ry="61.98"/>
<ellipse fill="none" stroke="black" cx="66.39" cy="-248.23" rx="65.99" ry="65.99"/>
<text text-anchor="middle" x="66.39" y="-244.53" font-family="Times,serif" font-size="14.00">R001_L1ee</text>
</g>
<!-- R101_L1e2&#45;&gt;R001_L1ee -->
<g id="edge3" class="edge">
<title>R101_L1e2&#45;&gt;R001_L1ee</title>
<path fill="none" stroke="black" d="M66.39,-364.98C66.39,-351.81 66.39,-337.88 66.39,-324.41"/>
<polygon fill="black" stroke="black" points="69.89,-324.23 66.39,-314.23 62.89,-324.23 69.89,-324.23"/>
<text text-anchor="middle" x="74.39" y="-335.78" font-family="Times,serif" font-size="14.00">t3</text>
</g>
<!-- R101_Leee -->
<g id="node5" class="node">
<title>R101_Leee</title>
<ellipse fill="none" stroke="black" cx="66.39" cy="-65.74" rx="61.98" ry="61.98"/>
<ellipse fill="none" stroke="black" cx="66.39" cy="-65.74" rx="65.99" ry="65.99"/>
<text text-anchor="middle" x="66.39" y="-62.04" font-family="Times,serif" font-size="14.00">R101_Leee</text>
</g>
<!-- R001_L1ee&#45;&gt;R101_Leee -->
<g id="edge4" class="edge">
<title>R001_L1ee&#45;&gt;R101_Leee</title>
<path fill="none" stroke="black" d="M66.39,-182.33C66.39,-169.2 66.39,-155.3 66.39,-141.85"/>
<polygon fill="black" stroke="black" points="69.89,-141.68 66.39,-131.68 62.89,-141.68 69.89,-141.68"/>
<text text-anchor="middle" x="74.39" y="-153.29" font-family="Times,serif" font-size="14.00">t2</text>
</g>
</g>
</svg>
