<?xml version="1.0" encoding="UTF-8" standalone="no"?>
<!DOCTYPE svg PUBLIC "-//W3C//DTD SVG 1.1//EN"
 "http://www.w3.org/Graphics/SVG/1.1/DTD/svg11.dtd">
<!-- Generated by graphviz version 2.43.0 (0)
 -->
<!-- Title: SCdebug/7 Pages: 1 -->
<svg width="141pt" height="506pt"
 viewBox="0.00 0.00 140.79 505.77" xmlns="http://www.w3.org/2000/svg" xmlns:xlink="http://www.w3.org/1999/xlink">
<g id="graph0" class="graph" transform="scale(1 1) rotate(0) translate(4 501.77)">
<title>SCdebug/7</title>
<polygon fill="white" stroke="transparent" points="-4,4 -4,-501.77 136.79,-501.77 136.79,4 -4,4"/>
<!-- R101_L1e2 -->
<g id="node1" class="node">
<title>R101_L1e2</title>
<ellipse fill="none" stroke="black" cx="66.39" cy="-431.37" rx="62.3" ry="62.3"/>
<ellipse fill="none" stroke="black" cx="66.39" cy="-431.37" rx="66.29" ry="66.29"/>
<text text-anchor="middle" x="66.39" y="-427.67" font-family="Times,serif" font-size="14.00">R101_L1e2</text>
</g>
<!-- R001_L1ee -->
<g id="node2" class="node">
<title>R001_L1ee</title>
<ellipse fill="none" stroke="black" cx="66.39" cy="-248.23" rx="61.98" ry="61.98"/>
<ellipse fill="none" stroke="black" cx="66.39" cy="-248.23" rx="65.99" ry="65.99"/>
<text text-anchor="middle" x="66.39" y="-244.53" font-family="Times,serif" font-size="14.00">R001_L1ee</text>
</g>
<!-- R101_L1e2&#45;&gt;R001_L1ee -->
<g id="edge1" class="edge">
<title>R101_L1e2&#45;&gt;R001_L1ee</title>
<path fill="none" stroke="black" d="M66.39,-364.98C66.39,-351.81 66.39,-337.88 66.39,-324.41"/>
<polygon fill="black" stroke="black" points="69.89,-324.23 66.39,-314.23 62.89,-324.23 69.89,-324.23"/>
<text text-anchor="middle" x="74.39" y="-335.78" font-family="Times,serif" font-size="14.00">t3</text>
</g>
<!-- R101_Leee -->
<g id="node3" class="node">
<title>R101_Leee</title>
<ellipse fill="none" stroke="black" cx="66.39" cy="-65.74" rx="61.98" ry="61.98"/>
<ellipse fill="none" stroke="black" cx="66.39" cy="-65.74" rx="65.99" ry="65.99"/>
<text text-anchor="middle" x="66.39" y="-62.04" font-family="Times,serif" font-size="14.00">R101_Leee</text>
</g>
<!-- R001_L1ee&#45;&gt;R101_Leee -->
<g id="edge2" class="edge">
<title>R001_L1ee&#45;&gt;R101_Leee</title>
<path fill="none" stroke="black" d="M66.39,-182.33C66.39,-169.2 66.39,-155.3 66.39,-141.85"/>
<polygon fill="black" stroke="black" points="69.89,-141.68 66.39,-131.68 62.89,-141.68 69.89,-141.68"/>
<text text-anchor="middle" x="74.39" y="-153.29" font-family="Times,serif" font-size="14.00">t2</text>
</g>
</g>
</svg>
