<?xml version="1.0" encoding="UTF-8" standalone="no"?>
<!DOCTYPE svg PUBLIC "-//W3C//DTD SVG 1.1//EN"
 "http://www.w3.org/Graphics/SVG/1.1/DTD/svg11.dtd">
<!-- Generated by graphviz version 2.43.0 (0)
 -->
<!-- Title: SCdebug/9 Pages: 1 -->
<svg width="878pt" height="1609pt"
 viewBox="0.00 0.00 878.00 1608.50" xmlns="http://www.w3.org/2000/svg" xmlns:xlink="http://www.w3.org/1999/xlink">
<g id="graph0" class="graph" transform="scale(1 1) rotate(0) translate(4 1604.5)">
<title>SCdebug/9</title>
<polygon fill="white" stroke="transparent" points="-4,4 -4,-1604.5 874,-1604.5 874,4 -4,4"/>
<!-- R010_L13e -->
<g id="node1" class="node">
<title>R010_L13e</title>
<ellipse fill="none" stroke="black" cx="338" cy="-1534.11" rx="62.3" ry="62.3"/>
<ellipse fill="none" stroke="black" cx="338" cy="-1534.11" rx="66.29" ry="66.29"/>
<text text-anchor="middle" x="338" y="-1530.41" font-family="Times,serif" font-size="14.00">R010_L13e</text>
</g>
<!-- R110_L13e -->
<g id="node16" class="node">
<title>R110_L13e</title>
<ellipse fill="none" stroke="black" cx="186" cy="-1349.67" rx="62.3" ry="62.3"/>
<ellipse fill="none" stroke="black" cx="186" cy="-1349.67" rx="66.29" ry="66.29"/>
<text text-anchor="middle" x="186" y="-1345.97" font-family="Times,serif" font-size="14.00">R110_L13e</text>
</g>
<!-- R010_L13e&#45;&gt;R110_L13e -->
<g id="edge1" class="edge">
<title>R010_L13e&#45;&gt;R110_L13e</title>
<path fill="none" stroke="black" d="M295.66,-1482.29C276.72,-1459.55 254.28,-1432.62 234.65,-1409.06"/>
<polygon fill="black" stroke="black" points="237.2,-1406.66 228.11,-1401.21 231.83,-1411.14 237.2,-1406.66"/>
<text text-anchor="middle" x="283.5" y="-1438.51" font-family="Times,serif" font-size="14.00">t1R1</text>
</g>
<!-- R110_Le3e -->
<g id="node17" class="node">
<title>R110_Le3e</title>
<ellipse fill="none" stroke="black" cx="489" cy="-1349.67" rx="61.98" ry="61.98"/>
<ellipse fill="none" stroke="black" cx="489" cy="-1349.67" rx="65.99" ry="65.99"/>
<text text-anchor="middle" x="489" y="-1345.97" font-family="Times,serif" font-size="14.00">R110_Le3e</text>
</g>
<!-- R010_L13e&#45;&gt;R110_Le3e -->
<g id="edge2" class="edge">
<title>R010_L13e&#45;&gt;R110_Le3e</title>
<path fill="none" stroke="black" d="M380.06,-1482.29C398.96,-1459.46 421.35,-1432.4 440.91,-1408.77"/>
<polygon fill="black" stroke="black" points="443.74,-1410.83 447.42,-1400.9 438.35,-1406.37 443.74,-1410.83"/>
<text text-anchor="middle" x="426" y="-1438.51" font-family="Times,serif" font-size="14.00">t2</text>
</g>
<!-- R011_L132 -->
<g id="node23" class="node">
<title>R011_L132</title>
<ellipse fill="none" stroke="black" cx="338" cy="-1349.67" rx="63.09" ry="63.09"/>
<ellipse fill="none" stroke="black" cx="338" cy="-1349.67" rx="67.09" ry="67.09"/>
<text text-anchor="middle" x="338" y="-1345.97" font-family="Times,serif" font-size="14.00">R011_L132</text>
</g>
<!-- R010_L13e&#45;&gt;R011_L132 -->
<g id="edge3" class="edge">
<title>R010_L13e&#45;&gt;R011_L132</title>
<path fill="none" stroke="black" d="M338,-1467.5C338,-1454.39 338,-1440.52 338,-1427.09"/>
<polygon fill="black" stroke="black" points="341.5,-1426.92 338,-1416.92 334.5,-1426.92 341.5,-1426.92"/>
<text text-anchor="middle" x="346" y="-1438.51" font-family="Times,serif" font-size="14.00">t7</text>
</g>
<!-- R111_L132 -->
<g id="node2" class="node">
<title>R111_L132</title>
<ellipse fill="none" stroke="black" cx="181" cy="-1164.58" rx="63.09" ry="63.09"/>
<ellipse fill="none" stroke="black" cx="181" cy="-1164.58" rx="67.09" ry="67.09"/>
<text text-anchor="middle" x="181" y="-1160.88" font-family="Times,serif" font-size="14.00">R111_L132</text>
</g>
<!-- R011_L13e -->
<g id="node3" class="node">
<title>R011_L13e</title>
<ellipse fill="none" stroke="black" cx="173" cy="-980.14" rx="62.3" ry="62.3"/>
<ellipse fill="none" stroke="black" cx="173" cy="-980.14" rx="66.29" ry="66.29"/>
<text text-anchor="middle" x="173" y="-976.44" font-family="Times,serif" font-size="14.00">R011_L13e</text>
</g>
<!-- R111_L132&#45;&gt;R011_L13e -->
<g id="edge4" class="edge">
<title>R111_L132&#45;&gt;R011_L13e</title>
<path fill="none" stroke="black" d="M178.1,-1097.46C177.52,-1084.29 176.91,-1070.37 176.32,-1056.91"/>
<polygon fill="black" stroke="black" points="179.81,-1056.57 175.88,-1046.73 172.82,-1056.88 179.81,-1056.57"/>
<text text-anchor="middle" x="185" y="-1068.33" font-family="Times,serif" font-size="14.00">t3</text>
</g>
<!-- R111_L1e2 -->
<g id="node6" class="node">
<title>R111_L1e2</title>
<ellipse fill="none" stroke="black" cx="195" cy="-430.72" rx="62.29" ry="62.29"/>
<text text-anchor="middle" x="195" y="-427.02" font-family="Times,serif" font-size="14.00">R111_L1e2</text>
</g>
<!-- R111_L132&#45;&gt;R111_L1e2 -->
<g id="edge6" class="edge">
<title>R111_L132&#45;&gt;R111_L1e2</title>
<path fill="none" stroke="black" d="M131.64,-1119.13C99.31,-1084.98 63,-1034.7 63,-981.14 63,-981.14 63,-981.14 63,-612.21 63,-558.03 102.24,-509.28 137.93,-476.14"/>
<polygon fill="black" stroke="black" points="140.41,-478.62 145.47,-469.31 135.71,-473.43 140.41,-478.62"/>
<text text-anchor="middle" x="80.5" y="-792.65" font-family="Times,serif" font-size="14.00">t8R3</text>
</g>
<!-- R110_L1e2 -->
<g id="node15" class="node">
<title>R110_L1e2</title>
<ellipse fill="none" stroke="black" cx="320" cy="-980.14" rx="62.29" ry="62.29"/>
<text text-anchor="middle" x="320" y="-976.44" font-family="Times,serif" font-size="14.00">R110_L1e2</text>
</g>
<!-- R111_L132&#45;&gt;R110_L1e2 -->
<g id="edge5" class="edge">
<title>R111_L132&#45;&gt;R110_L1e2</title>
<path fill="none" stroke="black" d="M221.2,-1110.81C238.49,-1088.12 258.73,-1061.55 276.38,-1038.39"/>
<polygon fill="black" stroke="black" points="279.23,-1040.43 282.51,-1030.35 273.66,-1036.18 279.23,-1040.43"/>
<text text-anchor="middle" x="262" y="-1068.33" font-family="Times,serif" font-size="14.00">t6</text>
</g>
<!-- R111_L13e -->
<g id="node4" class="node">
<title>R111_L13e</title>
<ellipse fill="none" stroke="black" cx="182" cy="-796.35" rx="62.3" ry="62.3"/>
<ellipse fill="none" stroke="black" cx="182" cy="-796.35" rx="66.29" ry="66.29"/>
<text text-anchor="middle" x="182" y="-792.65" font-family="Times,serif" font-size="14.00">R111_L13e</text>
</g>
<!-- R011_L13e&#45;&gt;R111_L13e -->
<g id="edge7" class="edge">
<title>R011_L13e&#45;&gt;R111_L13e</title>
<path fill="none" stroke="black" d="M176.24,-913.77C176.89,-900.54 177.58,-886.54 178.25,-873"/>
<polygon fill="black" stroke="black" points="181.76,-872.92 178.76,-862.75 174.77,-872.57 181.76,-872.92"/>
<text text-anchor="middle" x="194.5" y="-884.55" font-family="Times,serif" font-size="14.00">t1R1</text>
</g>
<!-- R011_L1ee -->
<g id="node7" class="node">
<title>R011_L1ee</title>
<ellipse fill="none" stroke="black" cx="195" cy="-248.23" rx="61.99" ry="61.99"/>
<text text-anchor="middle" x="195" y="-244.53" font-family="Times,serif" font-size="14.00">R011_L1ee</text>
</g>
<!-- R011_L13e&#45;&gt;R011_L1ee -->
<g id="edge10" class="edge">
<title>R011_L13e&#45;&gt;R011_L1ee</title>
<path fill="none" stroke="black" d="M114.43,-948.71C64.24,-917.95 0,-865.32 0,-797.35 0,-797.35 0,-797.35 0,-429.72 0,-357.84 72.25,-306.59 128.79,-277.49"/>
<polygon fill="black" stroke="black" points="130.7,-280.45 138.07,-272.84 127.57,-274.19 130.7,-280.45"/>
<text text-anchor="middle" x="17.5" y="-609.51" font-family="Times,serif" font-size="14.00">t8R3</text>
</g>
<!-- R111_Le3e -->
<g id="node9" class="node">
<title>R111_Le3e</title>
<ellipse fill="none" stroke="black" cx="514" cy="-796.35" rx="61.98" ry="61.98"/>
<ellipse fill="none" stroke="black" cx="514" cy="-796.35" rx="65.99" ry="65.99"/>
<text text-anchor="middle" x="514" y="-792.65" font-family="Times,serif" font-size="14.00">R111_Le3e</text>
</g>
<!-- R011_L13e&#45;&gt;R111_Le3e -->
<g id="edge8" class="edge">
<title>R011_L13e&#45;&gt;R111_Le3e</title>
<path fill="none" stroke="black" d="M219.77,-932.45C228.89,-925.29 238.81,-918.66 249,-913.75 287.72,-895.1 303.72,-910.72 344,-895.75 381.69,-881.73 420.73,-859.75 451.87,-840.12"/>
<polygon fill="black" stroke="black" points="453.89,-842.98 460.44,-834.65 450.13,-837.08 453.89,-842.98"/>
<text text-anchor="middle" x="386" y="-884.55" font-family="Times,serif" font-size="14.00">t2</text>
</g>
<!-- R010_L1ee -->
<g id="node13" class="node">
<title>R010_L1ee</title>
<ellipse fill="none" stroke="black" cx="328" cy="-796.35" rx="61.99" ry="61.99"/>
<text text-anchor="middle" x="328" y="-792.65" font-family="Times,serif" font-size="14.00">R010_L1ee</text>
</g>
<!-- R011_L13e&#45;&gt;R010_L1ee -->
<g id="edge9" class="edge">
<title>R011_L13e&#45;&gt;R010_L1ee</title>
<path fill="none" stroke="black" d="M215.76,-928.98C236.22,-904.99 260.75,-876.22 281.65,-851.71"/>
<polygon fill="black" stroke="black" points="284.48,-853.79 288.3,-843.91 279.15,-849.25 284.48,-853.79"/>
<text text-anchor="middle" x="263" y="-884.55" font-family="Times,serif" font-size="14.00">t6</text>
</g>
<!-- R110_L1ee -->
<g id="node5" class="node">
<title>R110_L1ee</title>
<ellipse fill="none" stroke="black" cx="195" cy="-613.21" rx="61.99" ry="61.99"/>
<text text-anchor="middle" x="195" y="-609.51" font-family="Times,serif" font-size="14.00">R110_L1ee</text>
</g>
<!-- R111_L13e&#45;&gt;R110_L1ee -->
<g id="edge11" class="edge">
<title>R111_L13e&#45;&gt;R110_L1ee</title>
<path fill="none" stroke="black" d="M186.69,-729.96C187.74,-715.38 188.85,-699.86 189.91,-685.08"/>
<polygon fill="black" stroke="black" points="193.41,-685.21 190.64,-674.98 186.43,-684.71 193.41,-685.21"/>
<text text-anchor="middle" x="196" y="-700.76" font-family="Times,serif" font-size="14.00">t6</text>
</g>
<!-- R110_L1ee&#45;&gt;R111_L1e2 -->
<g id="edge12" class="edge">
<title>R110_L1ee&#45;&gt;R111_L1e2</title>
<path fill="none" stroke="black" d="M195,-551.36C195,-535.99 195,-519.36 195,-503.51"/>
<polygon fill="black" stroke="black" points="198.5,-503.23 195,-493.23 191.5,-503.23 198.5,-503.23"/>
<text text-anchor="middle" x="203" y="-518.27" font-family="Times,serif" font-size="14.00">t7</text>
</g>
<!-- R111_L1e2&#45;&gt;R011_L1ee -->
<g id="edge13" class="edge">
<title>R111_L1e2&#45;&gt;R011_L1ee</title>
<path fill="none" stroke="black" d="M195,-368.11C195,-352.78 195,-336.22 195,-320.47"/>
<polygon fill="black" stroke="black" points="198.5,-320.26 195,-310.26 191.5,-320.26 198.5,-320.26"/>
<text text-anchor="middle" x="203" y="-335.78" font-family="Times,serif" font-size="14.00">t3</text>
</g>
<!-- R111_Leee -->
<g id="node8" class="node">
<title>R111_Leee</title>
<ellipse fill="none" stroke="black" cx="451" cy="-65.74" rx="61.98" ry="61.98"/>
<ellipse fill="none" stroke="black" cx="451" cy="-65.74" rx="65.99" ry="65.99"/>
<text text-anchor="middle" x="451" y="-62.04" font-family="Times,serif" font-size="14.00">R111_Leee</text>
</g>
<!-- R011_L1ee&#45;&gt;R111_Leee -->
<g id="edge14" class="edge">
<title>R011_L1ee&#45;&gt;R111_Leee</title>
<path fill="none" stroke="black" d="M245.27,-211.79C286.45,-182.76 344.89,-141.55 388.97,-110.47"/>
<polygon fill="black" stroke="black" points="391.15,-113.22 397.31,-104.6 387.12,-107.5 391.15,-113.22"/>
<text text-anchor="middle" x="338" y="-153.29" font-family="Times,serif" font-size="14.00">t2</text>
</g>
<!-- R111_Le3e&#45;&gt;R111_Leee -->
<g id="edge16" class="edge">
<title>R111_Le3e&#45;&gt;R111_Leee</title>
<path fill="none" stroke="black" d="M478.16,-741.19C473.09,-731.74 468.44,-721.78 465,-711.96 450.5,-670.54 451,-658.1 451,-614.21 451,-614.21 451,-614.21 451,-247.23 451,-212.74 451,-174.53 451,-142.19"/>
<polygon fill="black" stroke="black" points="454.5,-141.91 451,-131.91 447.5,-141.91 454.5,-141.91"/>
<text text-anchor="middle" x="468.5" y="-427.02" font-family="Times,serif" font-size="14.00">t8R3</text>
</g>
<!-- R110_Leee -->
<g id="node10" class="node">
<title>R110_Leee</title>
<ellipse fill="none" stroke="black" cx="545" cy="-613.21" rx="61.98" ry="61.98"/>
<ellipse fill="none" stroke="black" cx="545" cy="-613.21" rx="65.99" ry="65.99"/>
<text text-anchor="middle" x="545" y="-609.51" font-family="Times,serif" font-size="14.00">R110_Leee</text>
</g>
<!-- R111_Le3e&#45;&gt;R110_Leee -->
<g id="edge15" class="edge">
<title>R111_Le3e&#45;&gt;R110_Leee</title>
<path fill="none" stroke="black" d="M524.93,-731.49C527.34,-717.42 529.91,-702.41 532.38,-687.98"/>
<polygon fill="black" stroke="black" points="535.83,-688.56 534.06,-678.11 528.93,-687.37 535.83,-688.56"/>
<text text-anchor="middle" x="538" y="-700.76" font-family="Times,serif" font-size="14.00">t6</text>
</g>
<!-- R111_Lee2 -->
<g id="node11" class="node">
<title>R111_Lee2</title>
<ellipse fill="none" stroke="black" cx="605" cy="-430.72" rx="61.98" ry="61.98"/>
<ellipse fill="none" stroke="black" cx="605" cy="-430.72" rx="65.99" ry="65.99"/>
<text text-anchor="middle" x="605" y="-427.02" font-family="Times,serif" font-size="14.00">R111_Lee2</text>
</g>
<!-- R110_Leee&#45;&gt;R111_Lee2 -->
<g id="edge17" class="edge">
<title>R110_Leee&#45;&gt;R111_Lee2</title>
<path fill="none" stroke="black" d="M565.48,-550.6C570.57,-535.3 576.07,-518.76 581.29,-503.03"/>
<polygon fill="black" stroke="black" points="584.68,-503.95 584.51,-493.36 578.03,-501.75 584.68,-503.95"/>
<text text-anchor="middle" x="584" y="-518.27" font-family="Times,serif" font-size="14.00">t7</text>
</g>
<!-- R011_Leee -->
<g id="node12" class="node">
<title>R011_Leee</title>
<ellipse fill="none" stroke="black" cx="605" cy="-248.23" rx="61.98" ry="61.98"/>
<ellipse fill="none" stroke="black" cx="605" cy="-248.23" rx="65.99" ry="65.99"/>
<text text-anchor="middle" x="605" y="-244.53" font-family="Times,serif" font-size="14.00">R011_Leee</text>
</g>
<!-- R111_Lee2&#45;&gt;R011_Leee -->
<g id="edge18" class="edge">
<title>R111_Lee2&#45;&gt;R011_Leee</title>
<path fill="none" stroke="black" d="M605,-364.82C605,-351.69 605,-337.78 605,-324.34"/>
<polygon fill="black" stroke="black" points="608.5,-324.17 605,-314.17 601.5,-324.17 608.5,-324.17"/>
<text text-anchor="middle" x="613" y="-335.78" font-family="Times,serif" font-size="14.00">t3</text>
</g>
<!-- R011_Leee&#45;&gt;R111_Leee -->
<g id="edge19" class="edge">
<title>R011_Leee&#45;&gt;R111_Leee</title>
<path fill="none" stroke="black" d="M562.51,-197.44C543.15,-174.75 520.13,-147.76 500.04,-124.22"/>
<polygon fill="black" stroke="black" points="502.5,-121.71 493.35,-116.38 497.18,-126.26 502.5,-121.71"/>
<text text-anchor="middle" x="549.5" y="-153.29" font-family="Times,serif" font-size="14.00">t1R1</text>
</g>
<!-- R010_L1ee&#45;&gt;R110_L1ee -->
<g id="edge20" class="edge">
<title>R010_L1ee&#45;&gt;R110_L1ee</title>
<path fill="none" stroke="black" d="M291.66,-745.85C274.8,-722.9 254.67,-695.47 237.15,-671.61"/>
<polygon fill="black" stroke="black" points="239.81,-669.32 231.07,-663.33 234.17,-673.47 239.81,-669.32"/>
<text text-anchor="middle" x="282.5" y="-700.76" font-family="Times,serif" font-size="14.00">t1R1</text>
</g>
<!-- R010_L1ee&#45;&gt;R110_Leee -->
<g id="edge21" class="edge">
<title>R010_L1ee&#45;&gt;R110_Leee</title>
<path fill="none" stroke="black" d="M375.09,-756.05C408,-728.57 452.15,-691.72 487.2,-662.46"/>
<polygon fill="black" stroke="black" points="489.55,-665.06 494.99,-655.96 485.07,-659.68 489.55,-665.06"/>
<text text-anchor="middle" x="451" y="-700.76" font-family="Times,serif" font-size="14.00">t2</text>
</g>
<!-- R011_L1e2 -->
<g id="node14" class="node">
<title>R011_L1e2</title>
<ellipse fill="none" stroke="black" cx="349" cy="-613.21" rx="62.29" ry="62.29"/>
<text text-anchor="middle" x="349" y="-609.51" font-family="Times,serif" font-size="14.00">R011_L1e2</text>
</g>
<!-- R010_L1ee&#45;&gt;R011_L1e2 -->
<g id="edge22" class="edge">
<title>R010_L1ee&#45;&gt;R011_L1e2</title>
<path fill="none" stroke="black" d="M335.02,-734.78C336.86,-718.94 338.86,-701.72 340.75,-685.38"/>
<polygon fill="black" stroke="black" points="344.24,-685.68 341.91,-675.34 337.28,-684.87 344.24,-685.68"/>
<text text-anchor="middle" x="347" y="-700.76" font-family="Times,serif" font-size="14.00">t7</text>
</g>
<!-- R011_L1e2&#45;&gt;R111_L1e2 -->
<g id="edge23" class="edge">
<title>R011_L1e2&#45;&gt;R111_L1e2</title>
<path fill="none" stroke="black" d="M308.94,-565.26C288.35,-541.12 263.13,-511.57 241.66,-486.41"/>
<polygon fill="black" stroke="black" points="244.28,-484.09 235.13,-478.75 238.95,-488.63 244.28,-484.09"/>
<text text-anchor="middle" x="293.5" y="-518.27" font-family="Times,serif" font-size="14.00">t1R1</text>
</g>
<!-- R011_L1e2&#45;&gt;R111_Lee2 -->
<g id="edge24" class="edge">
<title>R011_L1e2&#45;&gt;R111_Lee2</title>
<path fill="none" stroke="black" d="M399.58,-576.55C440.78,-547.5 499.13,-506.36 543.12,-475.35"/>
<polygon fill="black" stroke="black" points="545.28,-478.11 551.44,-469.49 541.25,-472.39 545.28,-478.11"/>
<text text-anchor="middle" x="492" y="-518.27" font-family="Times,serif" font-size="14.00">t2</text>
</g>
<!-- R110_L1e2&#45;&gt;R010_L1ee -->
<g id="edge25" class="edge">
<title>R110_L1e2&#45;&gt;R010_L1ee</title>
<path fill="none" stroke="black" d="M322.71,-917.59C323.41,-901.73 324.16,-884.53 324.88,-868.23"/>
<polygon fill="black" stroke="black" points="328.38,-868.36 325.32,-858.22 321.39,-868.05 328.38,-868.36"/>
<text text-anchor="middle" x="332" y="-884.55" font-family="Times,serif" font-size="14.00">t3</text>
</g>
<!-- R110_L13e&#45;&gt;R111_L132 -->
<g id="edge26" class="edge">
<title>R110_L13e&#45;&gt;R111_L132</title>
<path fill="none" stroke="black" d="M184.21,-1283.09C183.85,-1269.76 183.46,-1255.63 183.09,-1241.96"/>
<polygon fill="black" stroke="black" points="186.58,-1241.53 182.8,-1231.63 179.58,-1241.72 186.58,-1241.53"/>
<text text-anchor="middle" x="191" y="-1253.42" font-family="Times,serif" font-size="14.00">t7</text>
</g>
<!-- R111_Le32 -->
<g id="node18" class="node">
<title>R111_Le32</title>
<ellipse fill="none" stroke="black" cx="537" cy="-1164.58" rx="62.3" ry="62.3"/>
<ellipse fill="none" stroke="black" cx="537" cy="-1164.58" rx="66.29" ry="66.29"/>
<text text-anchor="middle" x="537" y="-1160.88" font-family="Times,serif" font-size="14.00">R111_Le32</text>
</g>
<!-- R110_Le3e&#45;&gt;R111_Le32 -->
<g id="edge27" class="edge">
<title>R110_Le3e&#45;&gt;R111_Le32</title>
<path fill="none" stroke="black" d="M505.45,-1285.91C509.41,-1270.8 513.68,-1254.52 517.76,-1238.97"/>
<polygon fill="black" stroke="black" points="521.26,-1239.43 520.41,-1228.87 514.49,-1237.66 521.26,-1239.43"/>
<text text-anchor="middle" x="522" y="-1253.42" font-family="Times,serif" font-size="14.00">t7</text>
</g>
<!-- R111_Le32&#45;&gt;R111_Lee2 -->
<g id="edge30" class="edge">
<title>R111_Le32&#45;&gt;R111_Lee2</title>
<path fill="none" stroke="black" d="M601.81,-1149.26C654.91,-1133.74 726.67,-1103.2 761,-1046.53 784.79,-1007.25 743.71,-732.17 742,-729.96 728.08,-711.92 713.42,-723.87 694,-711.96 675.5,-700.6 668.79,-697.79 658,-678.96 641.37,-649.91 625.74,-567.72 615.83,-506.03"/>
<polygon fill="black" stroke="black" points="619.25,-505.25 614.22,-495.92 612.33,-506.35 619.25,-505.25"/>
<text text-anchor="middle" x="776.5" y="-792.65" font-family="Times,serif" font-size="14.00">t8R3</text>
</g>
<!-- R011_Le3e -->
<g id="node19" class="node">
<title>R011_Le3e</title>
<ellipse fill="none" stroke="black" cx="537" cy="-980.14" rx="61.98" ry="61.98"/>
<ellipse fill="none" stroke="black" cx="537" cy="-980.14" rx="65.99" ry="65.99"/>
<text text-anchor="middle" x="537" y="-976.44" font-family="Times,serif" font-size="14.00">R011_Le3e</text>
</g>
<!-- R111_Le32&#45;&gt;R011_Le3e -->
<g id="edge28" class="edge">
<title>R111_Le32&#45;&gt;R011_Le3e</title>
<path fill="none" stroke="black" d="M537,-1097.97C537,-1084.54 537,-1070.3 537,-1056.56"/>
<polygon fill="black" stroke="black" points="540.5,-1056.16 537,-1046.16 533.5,-1056.16 540.5,-1056.16"/>
<text text-anchor="middle" x="545" y="-1068.33" font-family="Times,serif" font-size="14.00">t3</text>
</g>
<!-- R110_Lee2 -->
<g id="node22" class="node">
<title>R110_Lee2</title>
<ellipse fill="none" stroke="black" cx="686" cy="-980.14" rx="61.98" ry="61.98"/>
<ellipse fill="none" stroke="black" cx="686" cy="-980.14" rx="65.99" ry="65.99"/>
<text text-anchor="middle" x="686" y="-976.44" font-family="Times,serif" font-size="14.00">R110_Lee2</text>
</g>
<!-- R111_Le32&#45;&gt;R110_Lee2 -->
<g id="edge29" class="edge">
<title>R111_Le32&#45;&gt;R110_Lee2</title>
<path fill="none" stroke="black" d="M582.31,-1115.94C592.96,-1104.26 604.09,-1091.62 614,-1079.53 623.58,-1067.85 633.41,-1055.04 642.61,-1042.63"/>
<polygon fill="black" stroke="black" points="645.45,-1044.67 648.56,-1034.55 639.81,-1040.53 645.45,-1044.67"/>
<text text-anchor="middle" x="632" y="-1068.33" font-family="Times,serif" font-size="14.00">t6</text>
</g>
<!-- R011_Le3e&#45;&gt;R111_Le3e -->
<g id="edge31" class="edge">
<title>R011_Le3e&#45;&gt;R111_Le3e</title>
<path fill="none" stroke="black" d="M528.86,-914.79C527.1,-900.9 525.23,-886.11 523.43,-871.86"/>
<polygon fill="black" stroke="black" points="526.86,-871.09 522.13,-861.61 519.91,-871.97 526.86,-871.09"/>
<text text-anchor="middle" x="543.5" y="-884.55" font-family="Times,serif" font-size="14.00">t1R1</text>
</g>
<!-- R011_Le3e&#45;&gt;R011_Leee -->
<g id="edge33" class="edge">
<title>R011_Le3e&#45;&gt;R011_Leee</title>
<path fill="none" stroke="black" d="M582.48,-932.6C591.37,-925.42 601.04,-918.74 611,-913.75 645.9,-896.23 659.27,-905.82 697,-895.75 742.62,-883.56 761.45,-892.65 798,-862.75 823.84,-841.6 835,-830.74 835,-797.35 835,-797.35 835,-797.35 835,-429.72 835,-348.45 745.02,-298.23 677.62,-272.02"/>
<polygon fill="black" stroke="black" points="678.44,-268.59 667.85,-268.32 675.96,-275.14 678.44,-268.59"/>
<text text-anchor="middle" x="852.5" y="-609.51" font-family="Times,serif" font-size="14.00">t8R3</text>
</g>
<!-- R010_Leee -->
<g id="node20" class="node">
<title>R010_Leee</title>
<ellipse fill="none" stroke="black" cx="667" cy="-796.35" rx="61.98" ry="61.98"/>
<ellipse fill="none" stroke="black" cx="667" cy="-796.35" rx="65.99" ry="65.99"/>
<text text-anchor="middle" x="667" y="-792.65" font-family="Times,serif" font-size="14.00">R010_Leee</text>
</g>
<!-- R011_Le3e&#45;&gt;R010_Leee -->
<g id="edge32" class="edge">
<title>R011_Le3e&#45;&gt;R010_Leee</title>
<path fill="none" stroke="black" d="M574.95,-926.07C590.1,-904.88 607.64,-880.36 623.32,-858.43"/>
<polygon fill="black" stroke="black" points="626.26,-860.34 629.23,-850.17 620.56,-856.27 626.26,-860.34"/>
<text text-anchor="middle" x="613" y="-884.55" font-family="Times,serif" font-size="14.00">t6</text>
</g>
<!-- R010_Leee&#45;&gt;R110_Leee -->
<g id="edge34" class="edge">
<title>R010_Leee&#45;&gt;R110_Leee</title>
<path fill="none" stroke="black" d="M630.73,-741.49C617.02,-721.15 601.31,-697.82 587.12,-676.74"/>
<polygon fill="black" stroke="black" points="589.83,-674.51 581.34,-668.17 584.03,-678.42 589.83,-674.51"/>
<text text-anchor="middle" x="626.5" y="-700.76" font-family="Times,serif" font-size="14.00">t1R1</text>
</g>
<!-- R011_Lee2 -->
<g id="node21" class="node">
<title>R011_Lee2</title>
<ellipse fill="none" stroke="black" cx="733" cy="-613.21" rx="61.98" ry="61.98"/>
<ellipse fill="none" stroke="black" cx="733" cy="-613.21" rx="65.99" ry="65.99"/>
<text text-anchor="middle" x="733" y="-609.51" font-family="Times,serif" font-size="14.00">R011_Lee2</text>
</g>
<!-- R010_Leee&#45;&gt;R011_Lee2 -->
<g id="edge35" class="edge">
<title>R010_Leee&#45;&gt;R011_Lee2</title>
<path fill="none" stroke="black" d="M689.25,-734.28C695.04,-718.39 701.32,-701.15 707.27,-684.82"/>
<polygon fill="black" stroke="black" points="710.6,-685.92 710.73,-675.33 704.02,-683.52 710.6,-685.92"/>
<text text-anchor="middle" x="709" y="-700.76" font-family="Times,serif" font-size="14.00">t7</text>
</g>
<!-- R011_Lee2&#45;&gt;R111_Lee2 -->
<g id="edge36" class="edge">
<title>R011_Lee2&#45;&gt;R111_Lee2</title>
<path fill="none" stroke="black" d="M695.29,-559.04C680.64,-538.38 663.77,-514.59 648.6,-493.21"/>
<polygon fill="black" stroke="black" points="651.3,-490.96 642.66,-484.83 645.59,-495.01 651.3,-490.96"/>
<text text-anchor="middle" x="689.5" y="-518.27" font-family="Times,serif" font-size="14.00">t1R1</text>
</g>
<!-- R110_Lee2&#45;&gt;R010_Leee -->
<g id="edge37" class="edge">
<title>R110_Lee2&#45;&gt;R010_Leee</title>
<path fill="none" stroke="black" d="M679.25,-914.54C677.81,-900.82 676.29,-886.23 674.82,-872.18"/>
<polygon fill="black" stroke="black" points="678.28,-871.63 673.76,-862.05 671.32,-872.36 678.28,-871.63"/>
<text text-anchor="middle" x="685" y="-884.55" font-family="Times,serif" font-size="14.00">t3</text>
</g>
<!-- R011_L132&#45;&gt;R111_L132 -->
<g id="edge38" class="edge">
<title>R011_L132&#45;&gt;R111_L132</title>
<path fill="none" stroke="black" d="M294.68,-1298.15C274.86,-1275.04 251.27,-1247.53 230.73,-1223.57"/>
<polygon fill="black" stroke="black" points="233.34,-1221.24 224.18,-1215.93 228.03,-1225.8 233.34,-1221.24"/>
<text text-anchor="middle" x="281.5" y="-1253.42" font-family="Times,serif" font-size="14.00">t1R1</text>
</g>
<!-- R011_L132&#45;&gt;R011_L1e2 -->
<g id="edge41" class="edge">
<title>R011_L132&#45;&gt;R011_L1e2</title>
<path fill="none" stroke="black" d="M375.89,-1294.04C396.57,-1258.97 418,-1211.54 418,-1165.58 418,-1165.58 418,-1165.58 418,-795.35 418,-753.98 402.09,-710.57 385.54,-676.62"/>
<polygon fill="black" stroke="black" points="388.48,-674.67 380.87,-667.3 382.23,-677.81 388.48,-674.67"/>
<text text-anchor="middle" x="435.5" y="-976.44" font-family="Times,serif" font-size="14.00">t8R3</text>
</g>
<!-- R011_L132&#45;&gt;R111_Le32 -->
<g id="edge39" class="edge">
<title>R011_L132&#45;&gt;R111_Le32</title>
<path fill="none" stroke="black" d="M387.98,-1304.42C402.27,-1291.66 417.81,-1277.65 432,-1264.62 448.26,-1249.69 465.76,-1233.31 481.72,-1218.24"/>
<polygon fill="black" stroke="black" points="484.56,-1220.38 489.42,-1210.96 479.75,-1215.29 484.56,-1220.38"/>
<text text-anchor="middle" x="454" y="-1253.42" font-family="Times,serif" font-size="14.00">t2</text>
</g>
<!-- R010_L1e2 -->
<g id="node24" class="node">
<title>R010_L1e2</title>
<ellipse fill="none" stroke="black" cx="328" cy="-1164.58" rx="62.29" ry="62.29"/>
<text text-anchor="middle" x="328" y="-1160.88" font-family="Times,serif" font-size="14.00">R010_L1e2</text>
</g>
<!-- R011_L132&#45;&gt;R010_L1e2 -->
<g id="edge40" class="edge">
<title>R011_L132&#45;&gt;R010_L1e2</title>
<path fill="none" stroke="black" d="M334.39,-1282.57C333.59,-1267.84 332.73,-1252.15 331.91,-1237.21"/>
<polygon fill="black" stroke="black" points="335.4,-1236.8 331.36,-1227.01 328.41,-1237.18 335.4,-1236.8"/>
<text text-anchor="middle" x="341" y="-1253.42" font-family="Times,serif" font-size="14.00">t6</text>
</g>
<!-- R010_L1e2&#45;&gt;R110_L1e2 -->
<g id="edge42" class="edge">
<title>R010_L1e2&#45;&gt;R110_L1e2</title>
<path fill="none" stroke="black" d="M325.3,-1102.07C324.61,-1086.22 323.85,-1069.03 323.14,-1052.72"/>
<polygon fill="black" stroke="black" points="326.63,-1052.53 322.7,-1042.69 319.64,-1052.84 326.63,-1052.53"/>
<text text-anchor="middle" x="341.5" y="-1068.33" font-family="Times,serif" font-size="14.00">t1R1</text>
</g>
<!-- R010_L1e2&#45;&gt;R110_Lee2 -->
<g id="edge43" class="edge">
<title>R010_L1e2&#45;&gt;R110_Lee2</title>
<path fill="none" stroke="black" d="M381.99,-1132.8C405.88,-1120.29 434.7,-1106.66 462,-1097.53 502.76,-1083.91 516.84,-1094.83 557,-1079.53 583.64,-1069.39 589,-1063.38 612,-1046.53 617.99,-1042.15 624.07,-1037.37 630.04,-1032.47"/>
<polygon fill="black" stroke="black" points="632.68,-1034.82 638.1,-1025.72 628.18,-1029.46 632.68,-1034.82"/>
<text text-anchor="middle" x="594" y="-1068.33" font-family="Times,serif" font-size="14.00">t2</text>
</g>
</g>
</svg>
