<?xml version="1.0" encoding="UTF-8" standalone="no"?>
<!DOCTYPE svg PUBLIC "-//W3C//DTD SVG 1.1//EN"
 "http://www.w3.org/Graphics/SVG/1.1/DTD/svg11.dtd">
<!-- Generated by graphviz version 2.43.0 (0)
 -->
<!-- Title: input/e Pages: 1 -->
<svg width="265pt" height="310pt"
 viewBox="0.00 0.00 265.00 310.00" xmlns="http://www.w3.org/2000/svg" xmlns:xlink="http://www.w3.org/1999/xlink">
<g id="graph0" class="graph" transform="scale(1 1) rotate(0) translate(4 306)">
<title>input/e</title>
<polygon fill="white" stroke="transparent" points="-4,4 -4,-306 261,-306 261,4 -4,4"/>
<g id="clust1" class="cluster">
<title>cluster0</title>
<path fill="#ffeeee" stroke="#ffeeee" d="M20,-99C20,-99 111,-99 111,-99 117,-99 123,-105 123,-111 123,-111 123,-282 123,-282 123,-288 117,-294 111,-294 111,-294 20,-294 20,-294 14,-294 8,-288 8,-282 8,-282 8,-111 8,-111 8,-105 14,-99 20,-99"/>
<text text-anchor="middle" x="65.5" y="-278.8" font-family="Times,serif" font-size="14.00">C2</text>
</g>
<g id="clust2" class="cluster">
<title>cluster1</title>
<path fill="#ffeeee" stroke="#ffeeee" d="M152,-8C152,-8 237,-8 237,-8 243,-8 249,-14 249,-20 249,-20 249,-166 249,-166 249,-172 243,-178 237,-178 237,-178 152,-178 152,-178 146,-178 140,-172 140,-166 140,-166 140,-20 140,-20 140,-14 146,-8 152,-8"/>
<text text-anchor="middle" x="194.5" y="-162.8" font-family="Times,serif" font-size="14.00">C3</text>
</g>
<!-- C0s0 -->
<g id="node1" class="node">
<title>C0s0</title>
<ellipse fill="white" stroke="black" cx="93" cy="-241" rx="18" ry="18"/>
<ellipse fill="none" stroke="black" cx="93" cy="-241" rx="22" ry="22"/>
<text text-anchor="middle" x="93" y="-237.3" font-family="Times,serif" font-size="14.00">0</text>
</g>
<!-- C0s1 -->
<g id="node2" class="node">
<title>C0s1</title>
<ellipse fill="white" stroke="black" cx="63" cy="-125" rx="18" ry="18"/>
<text text-anchor="middle" x="63" y="-121.3" font-family="Times,serif" font-size="14.00">1</text>
</g>
<!-- C0s0&#45;&gt;C0s1 -->
<g id="edge1" class="edge">
<title>C0s0&#45;&gt;C0s1</title>
<path fill="none" stroke="black" d="M72.7,-232.34C59.35,-226.1 42.93,-215.89 35,-201 25.82,-183.77 35.14,-162.88 45.42,-147.52"/>
<polygon fill="black" stroke="black" points="48.43,-149.34 51.46,-139.19 42.76,-145.24 48.43,-149.34"/>
<text text-anchor="middle" x="53" y="-189.8" font-family="Times,serif" font-size="14.00">t1O2</text>
</g>
<!-- C1s0 -->
<g id="node3" class="node">
<title>C1s0</title>
<ellipse fill="white" stroke="black" cx="175" cy="-125" rx="18" ry="18"/>
<ellipse fill="none" stroke="black" cx="175" cy="-125" rx="22" ry="22"/>
<text text-anchor="middle" x="175" y="-121.3" font-family="Times,serif" font-size="14.00">0</text>
</g>
<!-- C0s0&#45;&gt;C1s0 -->
<g id="edge7" class="edge">
<title>C0s0&#45;&gt;C1s0</title>
<path fill="none" stroke="black" d="M123,-198.29C126.56,-193.35 130.23,-188.24 133.91,-183.13"/>
<polygon fill="black" stroke="black" points="137,-184.82 140,-174.66 131.32,-180.73 137,-184.82"/>
<text text-anchor="middle" x="141.5" y="-189.8" font-family="Times,serif" font-size="14.00">L3</text>
</g>
<!-- C0s1&#45;&gt;C0s0 -->
<g id="edge2" class="edge">
<title>C0s1&#45;&gt;C0s0</title>
<path fill="none" stroke="black" d="M67.34,-142.51C71.98,-160.11 79.41,-188.37 85.09,-209.94"/>
<polygon fill="black" stroke="black" points="81.71,-210.84 87.64,-219.62 88.48,-209.06 81.71,-210.84"/>
<text text-anchor="middle" x="94" y="-189.8" font-family="Times,serif" font-size="14.00">t2r</text>
</g>
<!-- C1s0&#45;&gt;C0s0 -->
<g id="edge6" class="edge">
<title>C1s0&#45;&gt;C0s0</title>
<path fill="none" stroke="black" d="M168.99,-178C166.47,-186.19 162.93,-194.19 158,-201 151.32,-210.23 141.72,-217.68 131.95,-223.49"/>
<polygon fill="black" stroke="black" points="130.1,-220.51 123,-228.38 133.45,-226.66 130.1,-220.51"/>
<text text-anchor="middle" x="175.5" y="-189.8" font-family="Times,serif" font-size="14.00">L2</text>
</g>
<!-- C1s1 -->
<g id="node4" class="node">
<title>C1s1</title>
<ellipse fill="white" stroke="black" cx="175" cy="-34" rx="18" ry="18"/>
<text text-anchor="middle" x="175" y="-30.3" font-family="Times,serif" font-size="14.00">1</text>
</g>
<!-- C1s0&#45;&gt;C1s1 -->
<g id="edge3" class="edge">
<title>C1s0&#45;&gt;C1s1</title>
<path fill="none" stroke="black" d="M169.44,-103.53C167.35,-93.45 165.75,-81.11 167,-70 167.31,-67.25 167.75,-64.4 168.27,-61.57"/>
<polygon fill="black" stroke="black" points="171.74,-62.11 170.4,-51.6 164.89,-60.65 171.74,-62.11"/>
<text text-anchor="middle" x="185" y="-73.8" font-family="Times,serif" font-size="14.00">t3O3</text>
</g>
<!-- C1s1&#45;&gt;C1s0 -->
<g id="edge4" class="edge">
<title>C1s1&#45;&gt;C1s0</title>
<path fill="none" stroke="black" d="M187.99,-46.99C193.77,-53.22 199.96,-61.34 203,-70 205.21,-76.29 205.04,-78.65 203,-85 201.35,-90.13 198.75,-95.15 195.79,-99.79"/>
<polygon fill="black" stroke="black" points="192.75,-98.01 189.79,-108.18 198.45,-102.08 192.75,-98.01"/>
<text text-anchor="middle" x="212" y="-73.8" font-family="Times,serif" font-size="14.00">t4</text>
</g>
<!-- C1s1&#45;&gt;C1s1 -->
<g id="edge5" class="edge">
<title>C1s1&#45;&gt;C1s1</title>
<path fill="none" stroke="black" d="M191.66,-41.38C201.62,-43.02 211,-40.56 211,-34 211,-29.8 207.15,-27.28 201.77,-26.44"/>
<polygon fill="black" stroke="black" points="201.6,-22.94 191.66,-26.62 201.72,-29.94 201.6,-22.94"/>
<text text-anchor="middle" x="221.5" y="-30.3" font-family="Times,serif" font-size="14.00">t5f</text>
</g>
</g>
</svg>
