<?xml version="1.0" encoding="UTF-8" standalone="no"?>
<!DOCTYPE svg PUBLIC "-//W3C//DTD SVG 1.1//EN"
 "http://www.w3.org/Graphics/SVG/1.1/DTD/svg11.dtd">
<!-- Generated by graphviz version 2.43.0 (0)
 -->
<!-- Title: input/e Pages: 1 -->
<svg width="280pt" height="361pt"
 viewBox="0.00 0.00 280.00 360.78" xmlns="http://www.w3.org/2000/svg" xmlns:xlink="http://www.w3.org/1999/xlink">
<g id="graph0" class="graph" transform="scale(1 1) rotate(0) translate(4 356.78)">
<title>input/e</title>
<polygon fill="white" stroke="transparent" points="-4,4 -4,-356.78 276,-356.78 276,4 -4,4"/>
<g id="clust1" class="cluster">
<title>cluster2</title>
<path fill="#ffeeee" stroke="#ffeeee" d="M20,-130.59C20,-130.59 111,-130.59 111,-130.59 117,-130.59 123,-136.59 123,-142.59 123,-142.59 123,-332.78 123,-332.78 123,-338.78 117,-344.78 111,-344.78 111,-344.78 20,-344.78 20,-344.78 14,-344.78 8,-338.78 8,-332.78 8,-332.78 8,-142.59 8,-142.59 8,-136.59 14,-130.59 20,-130.59"/>
</g>
<g id="clust2" class="cluster">
<title>cluster3</title>
<path fill="#ffeeee" stroke="#ffeeee" d="M153,-8C153,-8 252,-8 252,-8 258,-8 264,-14 264,-20 264,-20 264,-206.19 264,-206.19 264,-212.19 258,-218.19 252,-218.19 252,-218.19 153,-218.19 153,-218.19 147,-218.19 141,-212.19 141,-206.19 141,-206.19 141,-20 141,-20 141,-14 147,-8 153,-8"/>
</g>
<!-- C2_0 -->
<g id="node1" class="node">
<title>C2_0</title>
<ellipse fill="white" stroke="black" cx="77" cy="-298.99" rx="33.62" ry="33.62"/>
<ellipse fill="none" stroke="black" cx="77" cy="-298.99" rx="37.6" ry="37.6"/>
<text text-anchor="middle" x="77" y="-295.29" font-family="Times,serif" font-size="14.00">C2_0</text>
</g>
<!-- C2_1 -->
<g id="node2" class="node">
<title>C2_1</title>
<ellipse fill="white" stroke="black" cx="65" cy="-172.39" rx="33.6" ry="33.6"/>
<text text-anchor="middle" x="65" y="-168.69" font-family="Times,serif" font-size="14.00">C2_1</text>
</g>
<!-- C2_0&#45;&gt;C2_1 -->
<g id="edge1" class="edge">
<title>C2_0&#45;&gt;C2_1</title>
<path fill="none" stroke="black" d="M51.07,-271.35C44.55,-262.99 38.43,-253.29 35,-243.19 31.06,-231.58 33.94,-219.19 39.2,-208.13"/>
<polygon fill="black" stroke="black" points="42.36,-209.65 44.09,-199.19 36.22,-206.29 42.36,-209.65"/>
<text text-anchor="middle" x="53" y="-231.99" font-family="Times,serif" font-size="14.00">t1O2</text>
</g>
<!-- C3_0 -->
<g id="node3" class="node">
<title>C3_0</title>
<ellipse fill="white" stroke="black" cx="192" cy="-172.39" rx="33.62" ry="33.62"/>
<ellipse fill="none" stroke="black" cx="192" cy="-172.39" rx="37.6" ry="37.6"/>
<text text-anchor="middle" x="192" y="-168.69" font-family="Times,serif" font-size="14.00">C3_0</text>
</g>
<!-- C2_0&#45;&gt;C3_0 -->
<g id="edge7" class="edge">
<title>C2_0&#45;&gt;C3_0</title>
<path fill="none" stroke="black" d="M123,-241.52C126.99,-236.95 131.03,-232.46 135,-228.19 135.86,-227.26 136.74,-226.33 137.62,-225.39"/>
<polygon fill="black" stroke="black" points="140.15,-227.81 144.57,-218.19 135.11,-222.95 140.15,-227.81"/>
<text text-anchor="middle" x="153.5" y="-231.99" font-family="Times,serif" font-size="14.00">L3{}</text>
</g>
<!-- C2_1&#45;&gt;C2_0 -->
<g id="edge2" class="edge">
<title>C2_1&#45;&gt;C2_0</title>
<path fill="none" stroke="black" d="M68.71,-206.12C69.5,-213.38 70.3,-221.04 71,-228.19 71.72,-235.51 72.43,-243.27 73.1,-250.85"/>
<polygon fill="black" stroke="black" points="69.63,-251.36 73.98,-261.02 76.6,-250.76 69.63,-251.36"/>
<text text-anchor="middle" x="84" y="-231.99" font-family="Times,serif" font-size="14.00">t2r</text>
</g>
<!-- C3_0&#45;&gt;C2_0 -->
<g id="edge6" class="edge">
<title>C3_0&#45;&gt;C2_0</title>
<path fill="none" stroke="black" d="M187.56,-218.19C185.13,-227.08 181.48,-235.91 176,-243.19 164.8,-258.06 148.32,-269.44 132.01,-277.86"/>
<polygon fill="black" stroke="black" points="130.46,-274.72 123,-282.24 133.52,-281.02 130.46,-274.72"/>
<text text-anchor="middle" x="202.5" y="-231.99" font-family="Times,serif" font-size="14.00">L2{}</text>
</g>
<!-- C3_1 -->
<g id="node4" class="node">
<title>C3_1</title>
<ellipse fill="white" stroke="black" cx="183" cy="-49.8" rx="33.6" ry="33.6"/>
<text text-anchor="middle" x="183" y="-46.1" font-family="Times,serif" font-size="14.00">C3_1</text>
</g>
<!-- C3_0&#45;&gt;C3_1 -->
<g id="edge3" class="edge">
<title>C3_0&#45;&gt;C3_1</title>
<path fill="none" stroke="black" d="M179.52,-136.68C177.64,-130.09 176,-123.19 175,-116.59 173.85,-109 173.84,-100.89 174.46,-93.06"/>
<polygon fill="black" stroke="black" points="177.96,-93.3 175.59,-82.98 171,-92.52 177.96,-93.3"/>
<text text-anchor="middle" x="193" y="-105.39" font-family="Times,serif" font-size="14.00">t3O3</text>
</g>
<!-- C3_1&#45;&gt;C3_0 -->
<g id="edge4" class="edge">
<title>C3_1&#45;&gt;C3_0</title>
<path fill="none" stroke="black" d="M201.37,-78.21C205.33,-85.51 208.94,-93.6 211,-101.59 213.23,-110.25 212.75,-119.5 210.89,-128.33"/>
<polygon fill="black" stroke="black" points="207.49,-127.5 208.28,-138.07 214.25,-129.31 207.49,-127.5"/>
<text text-anchor="middle" x="220" y="-105.39" font-family="Times,serif" font-size="14.00">t4</text>
</g>
<!-- C3_1&#45;&gt;C3_1 -->
<g id="edge5" class="edge">
<title>C3_1&#45;&gt;C3_1</title>
<path fill="none" stroke="black" d="M215.12,-60.67C226.03,-60.73 234.8,-57.1 234.8,-49.8 234.8,-45 231.02,-41.79 225.34,-40.17"/>
<polygon fill="black" stroke="black" points="225.47,-36.66 215.12,-38.92 224.62,-43.61 225.47,-36.66"/>
<text text-anchor="middle" x="245.3" y="-46.1" font-family="Times,serif" font-size="14.00">t5f</text>
</g>
</g>
</svg>
