<?xml version="1.0" encoding="UTF-8" standalone="no"?>
<!DOCTYPE svg PUBLIC "-//W3C//DTD SVG 1.1//EN"
 "http://www.w3.org/Graphics/SVG/1.1/DTD/svg11.dtd">
<!-- Generated by graphviz version 2.43.0 (0)
 -->
<!-- Title: input/e Pages: 1 -->
<svg width="307pt" height="361pt"
 viewBox="0.00 0.00 307.00 360.78" xmlns="http://www.w3.org/2000/svg" xmlns:xlink="http://www.w3.org/1999/xlink">
<g id="graph0" class="graph" transform="scale(1 1) rotate(0) translate(4 356.78)">
<title>input/e</title>
<polygon fill="white" stroke="transparent" points="-4,4 -4,-356.78 303,-356.78 303,4 -4,4"/>
<g id="clust1" class="cluster">
<title>cluster2</title>
<path fill="#ffeeee" stroke="#ffeeee" d="M20,-130.59C20,-130.59 124,-130.59 124,-130.59 130,-130.59 136,-136.59 136,-142.59 136,-142.59 136,-332.78 136,-332.78 136,-338.78 130,-344.78 124,-344.78 124,-344.78 20,-344.78 20,-344.78 14,-344.78 8,-338.78 8,-332.78 8,-332.78 8,-142.59 8,-142.59 8,-136.59 14,-130.59 20,-130.59"/>
</g>
<g id="clust2" class="cluster">
<title>cluster3</title>
<path fill="#ffeeee" stroke="#ffeeee" d="M166,-8C166,-8 279,-8 279,-8 285,-8 291,-14 291,-20 291,-20 291,-206.19 291,-206.19 291,-212.19 285,-218.19 279,-218.19 279,-218.19 166,-218.19 166,-218.19 160,-218.19 154,-212.19 154,-206.19 154,-206.19 154,-20 154,-20 154,-14 160,-8 166,-8"/>
</g>
<!-- C2_0 -->
<g id="node1" class="node">
<title>C2_0</title>
<ellipse fill="white" stroke="black" cx="90" cy="-298.99" rx="33.62" ry="33.62"/>
<ellipse fill="none" stroke="black" cx="90" cy="-298.99" rx="37.6" ry="37.6"/>
<text text-anchor="middle" x="90" y="-295.29" font-family="Times,serif" font-size="14.00">C2_0</text>
</g>
<!-- C2_1 -->
<g id="node2" class="node">
<title>C2_1</title>
<ellipse fill="white" stroke="black" cx="71" cy="-172.39" rx="33.6" ry="33.6"/>
<text text-anchor="middle" x="71" y="-168.69" font-family="Times,serif" font-size="14.00">C2_1</text>
</g>
<!-- C2_0&#45;&gt;C2_1 -->
<g id="edge1" class="edge">
<title>C2_0&#45;&gt;C2_1</title>
<path fill="none" stroke="black" d="M59.67,-275.87C49.88,-266.94 40.22,-255.76 35,-243.19 29.7,-230.42 34.24,-216.82 41.67,-205.05"/>
<polygon fill="black" stroke="black" points="44.56,-207.02 47.48,-196.83 38.85,-202.97 44.56,-207.02"/>
<text text-anchor="middle" x="53" y="-231.99" font-family="Times,serif" font-size="14.00">t1O2</text>
</g>
<!-- C3_0 -->
<g id="node3" class="node">
<title>C3_0</title>
<ellipse fill="white" stroke="black" cx="205" cy="-172.39" rx="33.62" ry="33.62"/>
<ellipse fill="none" stroke="black" cx="205" cy="-172.39" rx="37.6" ry="37.6"/>
<text text-anchor="middle" x="205" y="-168.69" font-family="Times,serif" font-size="14.00">C3_0</text>
</g>
<!-- C2_0&#45;&gt;C3_0 -->
<g id="edge7" class="edge">
<title>C2_0&#45;&gt;C3_0</title>
<path fill="none" stroke="black" d="M136,-241.52C139.99,-236.95 144.03,-232.46 148,-228.19 148.86,-227.26 149.74,-226.33 150.62,-225.39"/>
<polygon fill="black" stroke="black" points="153.15,-227.81 157.57,-218.19 148.11,-222.95 153.15,-227.81"/>
<text text-anchor="middle" x="166.5" y="-231.99" font-family="Times,serif" font-size="14.00">L3{}</text>
</g>
<!-- C2_1&#45;&gt;C2_0 -->
<g id="edge2" class="edge">
<title>C2_1&#45;&gt;C2_0</title>
<path fill="none" stroke="black" d="M75.98,-206.02C78.08,-219.8 80.56,-236.1 82.85,-251.13"/>
<polygon fill="black" stroke="black" points="79.43,-251.92 84.4,-261.28 86.35,-250.86 79.43,-251.92"/>
<text text-anchor="middle" x="99.5" y="-231.99" font-family="Times,serif" font-size="14.00">t2R1</text>
</g>
<!-- C3_0&#45;&gt;C2_0 -->
<g id="edge6" class="edge">
<title>C3_0&#45;&gt;C2_0</title>
<path fill="none" stroke="black" d="M200.56,-218.19C198.13,-227.08 194.48,-235.91 189,-243.19 177.8,-258.06 161.32,-269.44 145.01,-277.86"/>
<polygon fill="black" stroke="black" points="143.46,-274.72 136,-282.24 146.52,-281.02 143.46,-274.72"/>
<text text-anchor="middle" x="215.5" y="-231.99" font-family="Times,serif" font-size="14.00">L2{}</text>
</g>
<!-- C3_1 -->
<g id="node4" class="node">
<title>C3_1</title>
<ellipse fill="white" stroke="black" cx="196" cy="-49.8" rx="33.6" ry="33.6"/>
<text text-anchor="middle" x="196" y="-46.1" font-family="Times,serif" font-size="14.00">C3_1</text>
</g>
<!-- C3_0&#45;&gt;C3_1 -->
<g id="edge3" class="edge">
<title>C3_0&#45;&gt;C3_1</title>
<path fill="none" stroke="black" d="M193.17,-136.34C191.44,-129.85 189.93,-123.07 189,-116.59 187.91,-109 187.87,-100.9 188.4,-93.06"/>
<polygon fill="black" stroke="black" points="191.9,-93.28 189.39,-82.98 184.93,-92.59 191.9,-93.28"/>
<text text-anchor="middle" x="207" y="-105.39" font-family="Times,serif" font-size="14.00">t3O3</text>
</g>
<!-- C3_1&#45;&gt;C3_0 -->
<g id="edge4" class="edge">
<title>C3_1&#45;&gt;C3_0</title>
<path fill="none" stroke="black" d="M214.87,-77.88C219.03,-85.24 222.84,-93.45 225,-101.59 227.33,-110.36 226.77,-119.71 224.76,-128.62"/>
<polygon fill="black" stroke="black" points="221.33,-127.87 221.95,-138.45 228.06,-129.79 221.33,-127.87"/>
<text text-anchor="middle" x="234" y="-105.39" font-family="Times,serif" font-size="14.00">t4</text>
</g>
<!-- C3_1&#45;&gt;C3_1 -->
<g id="edge5" class="edge">
<title>C3_1&#45;&gt;C3_1</title>
<path fill="none" stroke="black" d="M228.12,-60.67C239.03,-60.73 247.8,-57.1 247.8,-49.8 247.8,-45 244.02,-41.79 238.34,-40.17"/>
<polygon fill="black" stroke="black" points="238.47,-36.66 228.12,-38.92 237.62,-43.61 238.47,-36.66"/>
<text text-anchor="middle" x="265.3" y="-46.1" font-family="Times,serif" font-size="14.00">t5R2</text>
</g>
</g>
</svg>
