<?xml version="1.0" encoding="UTF-8" standalone="no"?>
<!DOCTYPE svg PUBLIC "-//W3C//DTD SVG 1.1//EN"
 "http://www.w3.org/Graphics/SVG/1.1/DTD/svg11.dtd">
<!-- Generated by graphviz version 2.43.0 (0)
 -->
<!-- Title: EXPinput/e Pages: 1 -->
<svg width="699pt" height="816pt"
 viewBox="0.00 0.00 699.00 816.00" xmlns="http://www.w3.org/2000/svg" xmlns:xlink="http://www.w3.org/1999/xlink">
<g id="graph0" class="graph" transform="scale(1 1) rotate(0) translate(4 812)">
<title>EXPinput/e</title>
<polygon fill="white" stroke="transparent" points="-4,4 -4,-812 695,-812 695,4 -4,4"/>
<g id="clust1" class="cluster">
<title>cluster0</title>
<path fill="#eaffee" stroke="#eaffee" d="M20,-501C20,-501 74,-501 74,-501 80,-501 86,-507 86,-513 86,-513 86,-572 86,-572 86,-578 80,-584 74,-584 74,-584 20,-584 20,-584 14,-584 8,-578 8,-572 8,-572 8,-513 8,-513 8,-507 14,-501 20,-501"/>
<text text-anchor="middle" x="47" y="-568.8" font-family="Times,serif" font-size="14.00" fill="#b2ccbb">C0</text>
</g>
<g id="clust2" class="cluster">
<title>cluster1</title>
<path fill="#eaffee" stroke="#eaffee" d="M24,-393C24,-393 70,-393 70,-393 76,-393 82,-399 82,-405 82,-405 82,-456 82,-456 82,-462 76,-468 70,-468 70,-468 24,-468 24,-468 18,-468 12,-462 12,-456 12,-456 12,-405 12,-405 12,-399 18,-393 24,-393"/>
<text text-anchor="middle" x="47" y="-452.8" font-family="Times,serif" font-size="14.00" fill="#b2ccbb">C1</text>
</g>
<g id="clust3" class="cluster">
<title>cluster2</title>
<path fill="#eaffee" stroke="#eaffee" d="M147,-8C147,-8 281,-8 281,-8 287,-8 293,-14 293,-20 293,-20 293,-348 293,-348 293,-354 287,-360 281,-360 281,-360 147,-360 147,-360 141,-360 135,-354 135,-348 135,-348 135,-20 135,-20 135,-14 141,-8 147,-8"/>
<text text-anchor="middle" x="214" y="-344.8" font-family="Times,serif" font-size="14.00" fill="#b2ccbb">C2</text>
</g>
<g id="clust4" class="cluster">
<title>cluster3</title>
<path fill="#eaffee" stroke="#eaffee" d="M147,-393C147,-393 265,-393 265,-393 271,-393 277,-399 277,-405 277,-405 277,-568 277,-568 277,-574 271,-580 265,-580 265,-580 147,-580 147,-580 141,-580 135,-574 135,-568 135,-568 135,-405 135,-405 135,-399 141,-393 147,-393"/>
<text text-anchor="middle" x="206" y="-564.8" font-family="Times,serif" font-size="14.00" fill="#b2ccbb">C3</text>
</g>
<g id="clust5" class="cluster">
<title>cluster4</title>
<path fill="#eaffee" stroke="#eaffee" d="M397,-285C397,-285 443,-285 443,-285 449,-285 455,-291 455,-297 455,-297 455,-348 455,-348 455,-354 449,-360 443,-360 443,-360 397,-360 397,-360 391,-360 385,-354 385,-348 385,-348 385,-297 385,-297 385,-291 391,-285 397,-285"/>
<text text-anchor="middle" x="420" y="-344.8" font-family="Times,serif" font-size="14.00" fill="#b2ccbb">C4</text>
</g>
<g id="clust6" class="cluster">
<title>cluster5</title>
<path fill="#eaffee" stroke="#eaffee" d="M297,-393C297,-393 415,-393 415,-393 421,-393 427,-399 427,-405 427,-405 427,-788 427,-788 427,-794 421,-800 415,-800 415,-800 297,-800 297,-800 291,-800 285,-794 285,-788 285,-788 285,-405 285,-405 285,-399 291,-393 297,-393"/>
<text text-anchor="middle" x="356" y="-784.8" font-family="Times,serif" font-size="14.00" fill="#b2ccbb">C5</text>
</g>
<g id="clust7" class="cluster">
<title>cluster6</title>
<path fill="#eaffee" stroke="#eaffee" d="M500,-393C500,-393 618,-393 618,-393 624,-393 630,-399 630,-405 630,-405 630,-680 630,-680 630,-686 624,-692 618,-692 618,-692 500,-692 500,-692 494,-692 488,-686 488,-680 488,-680 488,-405 488,-405 488,-399 494,-393 500,-393"/>
<text text-anchor="middle" x="559" y="-676.8" font-family="Times,serif" font-size="14.00" fill="#b2ccbb">C6</text>
</g>
<!-- C0S0 -->
<g id="node1" class="node">
<title>C0S0</title>
<polygon fill="white" stroke="black" points="74,-523.54 74,-538.46 58.18,-549 35.82,-549 20,-538.46 20,-523.54 35.82,-513 58.18,-513 74,-523.54"/>
<polygon fill="none" stroke="black" points="78,-521.4 78,-540.6 59.39,-553 34.61,-553 16,-540.6 16,-521.4 34.61,-509 59.39,-509 78,-521.4"/>
<text text-anchor="middle" x="47" y="-527.3" font-family="Times,serif" font-size="14.00">0</text>
</g>
<!-- C1S1 -->
<g id="node2" class="node">
<title>C1S1</title>
<polygon fill="white" stroke="black" points="74,-411.54 74,-426.46 58.18,-437 35.82,-437 20,-426.46 20,-411.54 35.82,-401 58.18,-401 74,-411.54"/>
<text text-anchor="middle" x="47" y="-415.3" font-family="Times,serif" font-size="14.00">1</text>
</g>
<!-- C0S0&#45;&gt;C1S1 -->
<g id="edge16" class="edge">
<title>C0S0&#45;&gt;C1S1</title>
<path fill="none" stroke="black" stroke-dasharray="5,2" d="M47,-508.79C47,-491.28 47,-466.3 47,-447.3"/>
<polygon fill="black" stroke="black" points="47,-437.17 51.5,-447.17 47,-442.17 47,-447.17 47,-447.17 47,-447.17 47,-442.17 42.5,-447.17 47,-437.17 47,-437.17"/>
<text text-anchor="middle" x="63.5" y="-479.8" font-family="Times,serif" font-size="14.00">O3 ε</text>
</g>
<!-- C2S2 -->
<g id="node3" class="node">
<title>C2S2</title>
<ellipse fill="white" stroke="black" cx="200" cy="-311" rx="27" ry="18"/>
<text text-anchor="middle" x="200" y="-307.3" font-family="Times,serif" font-size="14.00">2</text>
</g>
<!-- C1S1&#45;&gt;C2S2 -->
<g id="edge17" class="edge">
<title>C1S1&#45;&gt;C2S2</title>
<path fill="none" stroke="black" stroke-dasharray="5,2" d="M68.73,-408C90.5,-397.51 124.51,-379.8 151,-360 161.18,-352.39 171.39,-342.78 179.83,-334.16"/>
<polygon fill="black" stroke="black" points="186.76,-326.92 183.1,-337.26 183.3,-330.54 179.85,-334.15 179.85,-334.15 179.85,-334.15 183.3,-330.54 176.59,-331.04 186.76,-326.92 186.76,-326.92"/>
<text text-anchor="middle" x="154.5" y="-371.8" font-family="Times,serif" font-size="14.00">O2 ε</text>
</g>
<!-- C2S3 -->
<g id="node5" class="node">
<title>C2S3</title>
<polygon fill="white" stroke="black" points="201,-212.54 201,-227.46 185.18,-238 162.82,-238 147,-227.46 147,-212.54 162.82,-202 185.18,-202 201,-212.54"/>
<polygon fill="none" stroke="black" points="205,-210.4 205,-229.6 186.39,-242 161.61,-242 143,-229.6 143,-210.4 161.61,-198 186.39,-198 205,-210.4"/>
<text text-anchor="middle" x="174" y="-216.3" font-family="Times,serif" font-size="14.00">3</text>
</g>
<!-- C2S2&#45;&gt;C2S3 -->
<g id="edge1" class="edge">
<title>C2S2&#45;&gt;C2S3</title>
<path fill="none" stroke="darkgray" d="M195.11,-293.26C191.7,-281.59 187.05,-265.68 182.99,-251.76"/>
<polygon fill="darkgray" stroke="darkgray" points="186.32,-250.68 180.15,-242.06 179.6,-252.64 186.32,-250.68"/>
<text text-anchor="middle" x="197" y="-263.8" font-family="Times,serif" font-size="14.00" fill="darkgray">t4</text>
</g>
<!-- C2S10 -->
<g id="node7" class="node">
<title>C2S10</title>
<polygon fill="white" stroke="black" points="281,-212.54 281,-227.46 265.18,-238 242.82,-238 227,-227.46 227,-212.54 242.82,-202 265.18,-202 281,-212.54"/>
<polygon fill="none" stroke="black" points="285,-210.4 285,-229.6 266.39,-242 241.61,-242 223,-229.6 223,-210.4 241.61,-198 266.39,-198 285,-210.4"/>
<text text-anchor="middle" x="254" y="-216.3" font-family="Times,serif" font-size="14.00">10</text>
</g>
<!-- C2S2&#45;&gt;C2S10 -->
<g id="edge2" class="edge">
<title>C2S2&#45;&gt;C2S10</title>
<path fill="none" stroke="darkgray" d="M209.65,-294.09C216.94,-282.08 227.15,-265.26 235.93,-250.78"/>
<polygon fill="darkgray" stroke="darkgray" points="238.99,-252.49 241.18,-242.13 233,-248.86 238.99,-252.49"/>
<text text-anchor="middle" x="240.5" y="-263.8" font-family="Times,serif" font-size="14.00" fill="darkgray">t5f</text>
</g>
<!-- C2S0 -->
<g id="node4" class="node">
<title>C2S0</title>
<polygon fill="white" stroke="black" points="201,-30.54 201,-45.46 185.18,-56 162.82,-56 147,-45.46 147,-30.54 162.82,-20 185.18,-20 201,-30.54"/>
<polygon fill="none" stroke="black" points="205,-28.4 205,-47.6 186.39,-60 161.61,-60 143,-47.6 143,-28.4 161.61,-16 186.39,-16 205,-28.4"/>
<text text-anchor="middle" x="174" y="-34.3" font-family="Times,serif" font-size="14.00">0</text>
</g>
<!-- C2S0&#45;&gt;C1S1 -->
<g id="edge18" class="edge">
<title>C2S0&#45;&gt;C1S1</title>
<path fill="none" stroke="black" stroke-dasharray="5,2" d="M142.93,-44.47C101.68,-53.73 34,-76.73 34,-128 34,-312 34,-312 34,-312 34,-338.96 38.2,-369.5 41.82,-390.85"/>
<polygon fill="black" stroke="black" points="43.58,-400.82 37.41,-391.76 42.71,-395.9 41.84,-390.97 41.84,-390.97 41.84,-390.97 42.71,-395.9 46.27,-390.19 43.58,-400.82 43.58,-400.82"/>
<text text-anchor="middle" x="52.5" y="-216.3" font-family="Times,serif" font-size="14.00">O3 fr</text>
</g>
<!-- C2S4 -->
<g id="node6" class="node">
<title>C2S4</title>
<polygon fill="white" stroke="black" points="199,-121.54 199,-136.46 183.18,-147 160.82,-147 145,-136.46 145,-121.54 160.82,-111 183.18,-111 199,-121.54"/>
<text text-anchor="middle" x="172" y="-125.3" font-family="Times,serif" font-size="14.00">4</text>
</g>
<!-- C2S3&#45;&gt;C2S4 -->
<g id="edge3" class="edge">
<title>C2S3&#45;&gt;C2S4</title>
<path fill="none" stroke="darkgray" d="M173.53,-197.91C173.25,-185.78 172.91,-170.41 172.61,-157.36"/>
<polygon fill="darkgray" stroke="darkgray" points="176.11,-156.99 172.38,-147.07 169.11,-157.14 176.11,-156.99"/>
<text text-anchor="middle" x="184" y="-168.8" font-family="Times,serif" font-size="14.00" fill="darkgray">t2r</text>
</g>
<!-- C6S9 -->
<g id="node19" class="node">
<title>C6S9</title>
<ellipse fill="white" stroke="black" cx="595" cy="-643" rx="27" ry="18"/>
<text text-anchor="middle" x="595" y="-639.3" font-family="Times,serif" font-size="14.00">9</text>
</g>
<!-- C2S3&#45;&gt;C6S9 -->
<g id="edge19" class="edge">
<title>C2S3&#45;&gt;C6S9</title>
<path fill="none" stroke="black" stroke-dasharray="5,2" d="M197.55,-235C202.82,-237.67 208.49,-240.19 214,-242 308.82,-273.18 658,-210.18 658,-310 658,-532 658,-532 658,-532 658,-566.19 634.79,-599.4 616.55,-620.22"/>
<polygon fill="black" stroke="black" points="609.61,-627.83 613.02,-617.41 612.98,-624.14 616.35,-620.44 616.35,-620.44 616.35,-620.44 612.98,-624.14 619.67,-623.48 609.61,-627.83 609.61,-627.83"/>
<text text-anchor="middle" x="674.5" y="-415.3" font-family="Times,serif" font-size="14.00">O3 ε</text>
</g>
<!-- C3S5 -->
<g id="node10" class="node">
<title>C3S5</title>
<ellipse fill="white" stroke="black" cx="170" cy="-531" rx="27" ry="18"/>
<text text-anchor="middle" x="170" y="-527.3" font-family="Times,serif" font-size="14.00">5</text>
</g>
<!-- C2S4&#45;&gt;C3S5 -->
<g id="edge20" class="edge">
<title>C2S4&#45;&gt;C3S5</title>
<path fill="none" stroke="black" stroke-dasharray="5,2" d="M155.82,-143.97C138.97,-160.16 115,-188.54 115,-219 115,-420 115,-420 115,-420 115,-452.84 134.85,-485.93 150.7,-507.11"/>
<polygon fill="black" stroke="black" points="156.97,-515.15 147.27,-510.03 153.89,-511.21 150.82,-507.26 150.82,-507.26 150.82,-507.26 153.89,-511.21 154.38,-504.5 156.97,-515.15 156.97,-515.15"/>
<text text-anchor="middle" x="131" y="-307.3" font-family="Times,serif" font-size="14.00">O3 r</text>
</g>
<!-- C2S11 -->
<g id="node8" class="node">
<title>C2S11</title>
<ellipse fill="white" stroke="black" cx="254" cy="-129" rx="27" ry="18"/>
<text text-anchor="middle" x="254" y="-125.3" font-family="Times,serif" font-size="14.00">11</text>
</g>
<!-- C2S10&#45;&gt;C2S11 -->
<g id="edge4" class="edge">
<title>C2S10&#45;&gt;C2S11</title>
<path fill="none" stroke="darkgray" d="M254,-197.91C254,-185.78 254,-170.41 254,-157.36"/>
<polygon fill="darkgray" stroke="darkgray" points="257.5,-157.07 254,-147.07 250.5,-157.07 257.5,-157.07"/>
<text text-anchor="middle" x="265" y="-168.8" font-family="Times,serif" font-size="14.00" fill="darkgray">t2r</text>
</g>
<!-- C2S11&#45;&gt;C2S0 -->
<g id="edge5" class="edge">
<title>C2S11&#45;&gt;C2S0</title>
<path fill="none" stroke="darkgray" d="M240.43,-112.9C228.74,-99.89 211.59,-80.82 197.65,-65.31"/>
<polygon fill="darkgray" stroke="darkgray" points="199.98,-62.67 190.69,-57.57 194.78,-67.35 199.98,-62.67"/>
<text text-anchor="middle" x="229" y="-81.8" font-family="Times,serif" font-size="14.00" fill="darkgray">t4</text>
</g>
<!-- C2S12 -->
<g id="node9" class="node">
<title>C2S12</title>
<polygon fill="white" stroke="black" points="281,-30.54 281,-45.46 265.18,-56 242.82,-56 227,-45.46 227,-30.54 242.82,-20 265.18,-20 281,-30.54"/>
<polygon fill="none" stroke="black" points="285,-28.4 285,-47.6 266.39,-60 241.61,-60 223,-47.6 223,-28.4 241.61,-16 266.39,-16 285,-28.4"/>
<text text-anchor="middle" x="254" y="-34.3" font-family="Times,serif" font-size="14.00">12</text>
</g>
<!-- C2S11&#45;&gt;C2S12 -->
<g id="edge6" class="edge">
<title>C2S11&#45;&gt;C2S12</title>
<path fill="none" stroke="darkgray" d="M254,-110.84C254,-99.44 254,-84.13 254,-70.58"/>
<polygon fill="darkgray" stroke="darkgray" points="257.5,-70.19 254,-60.19 250.5,-70.19 257.5,-70.19"/>
<text text-anchor="middle" x="264.5" y="-81.8" font-family="Times,serif" font-size="14.00" fill="darkgray">t5f</text>
</g>
<!-- C3S1 -->
<g id="node11" class="node">
<title>C3S1</title>
<polygon fill="white" stroke="black" points="197,-411.54 197,-426.46 181.18,-437 158.82,-437 143,-426.46 143,-411.54 158.82,-401 181.18,-401 197,-411.54"/>
<text text-anchor="middle" x="170" y="-415.3" font-family="Times,serif" font-size="14.00">1</text>
</g>
<!-- C3S5&#45;&gt;C3S1 -->
<g id="edge8" class="edge">
<title>C3S5&#45;&gt;C3S1</title>
<path fill="none" stroke="darkgray" d="M170,-512.81C170,-495.21 170,-467.61 170,-447.07"/>
<polygon fill="darkgray" stroke="darkgray" points="173.5,-447.07 170,-437.07 166.5,-447.07 173.5,-447.07"/>
<text text-anchor="middle" x="180.5" y="-479.8" font-family="Times,serif" font-size="14.00" fill="darkgray">t5f</text>
</g>
<!-- C3S6 -->
<g id="node12" class="node">
<title>C3S6</title>
<polygon fill="white" stroke="black" points="269,-411.54 269,-426.46 253.18,-437 230.82,-437 215,-426.46 215,-411.54 230.82,-401 253.18,-401 269,-411.54"/>
<text text-anchor="middle" x="242" y="-415.3" font-family="Times,serif" font-size="14.00">6</text>
</g>
<!-- C3S5&#45;&gt;C3S6 -->
<g id="edge7" class="edge">
<title>C3S5&#45;&gt;C3S6</title>
<path fill="none" stroke="darkgray" d="M180.32,-514.24C192.02,-496.36 211.28,-466.93 225.17,-445.71"/>
<polygon fill="darkgray" stroke="darkgray" points="228.21,-447.46 230.75,-437.18 222.35,-443.63 228.21,-447.46"/>
<text text-anchor="middle" x="211" y="-479.8" font-family="Times,serif" font-size="14.00" fill="darkgray">t4</text>
</g>
<!-- C3S1&#45;&gt;C2S2 -->
<g id="edge21" class="edge">
<title>C3S1&#45;&gt;C2S2</title>
<path fill="none" stroke="black" stroke-dasharray="5,2" d="M174.28,-400.83C176.74,-391.16 179.94,-378.88 183,-368 185.68,-358.48 188.78,-348.1 191.6,-338.89"/>
<polygon fill="black" stroke="black" points="194.61,-329.1 195.97,-339.99 193.14,-333.88 191.67,-338.66 191.67,-338.66 191.67,-338.66 193.14,-333.88 187.37,-337.34 194.61,-329.1 194.61,-329.1"/>
<text text-anchor="middle" x="198.5" y="-371.8" font-family="Times,serif" font-size="14.00">O2 f</text>
</g>
<!-- C4S7 -->
<g id="node13" class="node">
<title>C4S7</title>
<polygon fill="white" stroke="black" points="447,-303.54 447,-318.46 431.18,-329 408.82,-329 393,-318.46 393,-303.54 408.82,-293 431.18,-293 447,-303.54"/>
<text text-anchor="middle" x="420" y="-307.3" font-family="Times,serif" font-size="14.00">7</text>
</g>
<!-- C3S6&#45;&gt;C4S7 -->
<g id="edge22" class="edge">
<title>C3S6&#45;&gt;C4S7</title>
<path fill="none" stroke="black" stroke-dasharray="5,2" d="M260.28,-405.43C266.7,-401.24 274.05,-396.71 281,-393 290.83,-387.75 294.11,-388.14 304,-383 335.44,-366.65 369.88,-345.07 393,-330.01"/>
<polygon fill="black" stroke="black" points="401.58,-324.38 395.68,-333.63 397.4,-327.12 393.22,-329.87 393.22,-329.87 393.22,-329.87 397.4,-327.12 390.75,-326.1 401.58,-324.38 401.58,-324.38"/>
<text text-anchor="middle" x="346.5" y="-371.8" font-family="Times,serif" font-size="14.00">O2 ε</text>
</g>
<!-- C5S8 -->
<g id="node14" class="node">
<title>C5S8</title>
<ellipse fill="white" stroke="black" cx="391" cy="-751" rx="27" ry="18"/>
<text text-anchor="middle" x="391" y="-747.3" font-family="Times,serif" font-size="14.00">8</text>
</g>
<!-- C4S7&#45;&gt;C5S8 -->
<g id="edge23" class="edge">
<title>C4S7&#45;&gt;C5S8</title>
<path fill="none" stroke="black" stroke-dasharray="5,2" d="M427.24,-329.29C435.23,-349.99 447,-385.91 447,-418 447,-644 447,-644 447,-644 447,-675.65 427.24,-707.09 411.2,-727.42"/>
<polygon fill="black" stroke="black" points="404.84,-735.15 407.72,-724.57 408.02,-731.29 411.19,-727.43 411.19,-727.43 411.19,-727.43 408.02,-731.29 414.67,-730.28 404.84,-735.15 404.84,-735.15"/>
<text text-anchor="middle" x="463.5" y="-527.3" font-family="Times,serif" font-size="14.00">O3 ε</text>
</g>
<!-- C5S9 -->
<g id="node18" class="node">
<title>C5S9</title>
<ellipse fill="white" stroke="black" cx="387" cy="-643" rx="27" ry="18"/>
<text text-anchor="middle" x="387" y="-639.3" font-family="Times,serif" font-size="14.00">9</text>
</g>
<!-- C5S8&#45;&gt;C5S9 -->
<g id="edge9" class="edge">
<title>C5S8&#45;&gt;C5S9</title>
<path fill="none" stroke="darkgray" d="M390.36,-732.97C389.73,-716.38 388.77,-690.88 388.04,-671.43"/>
<polygon fill="darkgray" stroke="darkgray" points="391.53,-671.2 387.65,-661.34 384.53,-671.47 391.53,-671.2"/>
<text text-anchor="middle" x="399.5" y="-703.8" font-family="Times,serif" font-size="14.00" fill="darkgray">t5f</text>
</g>
<!-- C5S5 -->
<g id="node15" class="node">
<title>C5S5</title>
<ellipse fill="white" stroke="black" cx="384" cy="-531" rx="27" ry="18"/>
<text text-anchor="middle" x="384" y="-527.3" font-family="Times,serif" font-size="14.00">5</text>
</g>
<!-- C5S6 -->
<g id="node16" class="node">
<title>C5S6</title>
<polygon fill="white" stroke="black" points="419,-411.54 419,-426.46 403.18,-437 380.82,-437 365,-426.46 365,-411.54 380.82,-401 403.18,-401 419,-411.54"/>
<text text-anchor="middle" x="392" y="-415.3" font-family="Times,serif" font-size="14.00">6</text>
</g>
<!-- C5S5&#45;&gt;C5S6 -->
<g id="edge10" class="edge">
<title>C5S5&#45;&gt;C5S6</title>
<path fill="none" stroke="darkgray" d="M385.25,-512.81C386.53,-495.21 388.54,-467.61 390.03,-447.07"/>
<polygon fill="darkgray" stroke="darkgray" points="393.52,-447.29 390.76,-437.07 386.54,-446.79 393.52,-447.29"/>
<text text-anchor="middle" x="395" y="-479.8" font-family="Times,serif" font-size="14.00" fill="darkgray">t4</text>
</g>
<!-- C5S1 -->
<g id="node17" class="node">
<title>C5S1</title>
<polygon fill="white" stroke="black" points="347,-411.54 347,-426.46 331.18,-437 308.82,-437 293,-426.46 293,-411.54 308.82,-401 331.18,-401 347,-411.54"/>
<text text-anchor="middle" x="320" y="-415.3" font-family="Times,serif" font-size="14.00">1</text>
</g>
<!-- C5S5&#45;&gt;C5S1 -->
<g id="edge11" class="edge">
<title>C5S5&#45;&gt;C5S1</title>
<path fill="none" stroke="darkgray" d="M374.56,-513.77C364.14,-495.86 347.23,-466.8 334.99,-445.77"/>
<polygon fill="darkgray" stroke="darkgray" points="337.96,-443.9 329.9,-437.02 331.91,-447.43 337.96,-443.9"/>
<text text-anchor="middle" x="369.5" y="-479.8" font-family="Times,serif" font-size="14.00" fill="darkgray">t5f</text>
</g>
<!-- C5S6&#45;&gt;C4S7 -->
<g id="edge25" class="edge">
<title>C5S6&#45;&gt;C4S7</title>
<path fill="none" stroke="black" stroke-dasharray="5,2" d="M392.01,-400.65C392.36,-390.93 393.37,-378.65 396,-368 398.46,-358.05 402.5,-347.6 406.57,-338.46"/>
<polygon fill="black" stroke="black" points="410.92,-329.15 410.76,-340.11 408.8,-333.68 406.69,-338.21 406.69,-338.21 406.69,-338.21 408.8,-333.68 402.61,-336.3 410.92,-329.15 410.92,-329.15"/>
<text text-anchor="middle" x="414.5" y="-371.8" font-family="Times,serif" font-size="14.00">O2 fr</text>
</g>
<!-- C5S1&#45;&gt;C2S2 -->
<g id="edge24" class="edge">
<title>C5S1&#45;&gt;C2S2</title>
<path fill="none" stroke="black" stroke-dasharray="5,2" d="M301.6,-405.64C295.17,-401.47 287.85,-396.89 281,-393 272.36,-388.09 268.84,-389.11 261,-383 243.86,-369.63 227.98,-350.85 216.72,-335.97"/>
<polygon fill="black" stroke="black" points="210.65,-327.72 220.2,-333.11 213.61,-331.75 216.58,-335.77 216.58,-335.77 216.58,-335.77 213.61,-331.75 212.95,-338.44 210.65,-327.72 210.65,-327.72"/>
<text text-anchor="middle" x="282.5" y="-371.8" font-family="Times,serif" font-size="14.00">O2 frf</text>
</g>
<!-- C5S9&#45;&gt;C5S5 -->
<g id="edge12" class="edge">
<title>C5S9&#45;&gt;C5S5</title>
<path fill="none" stroke="darkgray" d="M386.53,-624.81C386.05,-607.21 385.3,-579.61 384.74,-559.07"/>
<polygon fill="darkgray" stroke="darkgray" points="388.24,-558.97 384.47,-549.07 381.24,-559.16 388.24,-558.97"/>
<text text-anchor="middle" x="397" y="-595.8" font-family="Times,serif" font-size="14.00" fill="darkgray">t2r</text>
</g>
<!-- C6S5 -->
<g id="node20" class="node">
<title>C6S5</title>
<ellipse fill="white" stroke="black" cx="595" cy="-531" rx="27" ry="18"/>
<text text-anchor="middle" x="595" y="-527.3" font-family="Times,serif" font-size="14.00">5</text>
</g>
<!-- C6S9&#45;&gt;C6S5 -->
<g id="edge13" class="edge">
<title>C6S9&#45;&gt;C6S5</title>
<path fill="none" stroke="darkgray" d="M595,-624.81C595,-607.21 595,-579.61 595,-559.07"/>
<polygon fill="darkgray" stroke="darkgray" points="598.5,-559.07 595,-549.07 591.5,-559.07 598.5,-559.07"/>
<text text-anchor="middle" x="606" y="-595.8" font-family="Times,serif" font-size="14.00" fill="darkgray">t2r</text>
</g>
<!-- C6S6 -->
<g id="node21" class="node">
<title>C6S6</title>
<polygon fill="white" stroke="black" points="622,-411.54 622,-426.46 606.18,-437 583.82,-437 568,-426.46 568,-411.54 583.82,-401 606.18,-401 622,-411.54"/>
<text text-anchor="middle" x="595" y="-415.3" font-family="Times,serif" font-size="14.00">6</text>
</g>
<!-- C6S5&#45;&gt;C6S6 -->
<g id="edge14" class="edge">
<title>C6S5&#45;&gt;C6S6</title>
<path fill="none" stroke="darkgray" d="M595,-512.81C595,-495.21 595,-467.61 595,-447.07"/>
<polygon fill="darkgray" stroke="darkgray" points="598.5,-447.07 595,-437.07 591.5,-447.07 598.5,-447.07"/>
<text text-anchor="middle" x="603" y="-479.8" font-family="Times,serif" font-size="14.00" fill="darkgray">t4</text>
</g>
<!-- C6S1 -->
<g id="node22" class="node">
<title>C6S1</title>
<polygon fill="white" stroke="black" points="550,-411.54 550,-426.46 534.18,-437 511.82,-437 496,-426.46 496,-411.54 511.82,-401 534.18,-401 550,-411.54"/>
<text text-anchor="middle" x="523" y="-415.3" font-family="Times,serif" font-size="14.00">1</text>
</g>
<!-- C6S5&#45;&gt;C6S1 -->
<g id="edge15" class="edge">
<title>C6S5&#45;&gt;C6S1</title>
<path fill="none" stroke="darkgray" d="M584.68,-514.24C572.98,-496.36 553.72,-466.93 539.83,-445.71"/>
<polygon fill="darkgray" stroke="darkgray" points="542.65,-443.63 534.25,-437.18 536.79,-447.46 542.65,-443.63"/>
<text text-anchor="middle" x="577.5" y="-479.8" font-family="Times,serif" font-size="14.00" fill="darkgray">t5f</text>
</g>
<!-- C6S6&#45;&gt;C4S7 -->
<g id="edge27" class="edge">
<title>C6S6&#45;&gt;C4S7</title>
<path fill="none" stroke="black" stroke-dasharray="5,2" d="M581.15,-402.11C571.29,-391.48 557.3,-377.71 543,-368 515.07,-349.03 479.67,-333.7 454.03,-323.9"/>
<polygon fill="black" stroke="black" points="444.38,-320.3 455.32,-319.58 449.06,-322.04 453.75,-323.79 453.75,-323.79 453.75,-323.79 449.06,-322.04 452.17,-328.01 444.38,-320.3 444.38,-320.3"/>
<text text-anchor="middle" x="577" y="-371.8" font-family="Times,serif" font-size="14.00">O2 r</text>
</g>
<!-- C6S1&#45;&gt;C2S2 -->
<g id="edge26" class="edge">
<title>C6S1&#45;&gt;C2S2</title>
<path fill="none" stroke="black" stroke-dasharray="5,2" d="M505.53,-405.12C488.82,-393.47 462.45,-376.84 437,-368 413.25,-359.75 405.64,-365.01 381,-360 329.24,-349.48 270.28,-332.98 234.1,-322.33"/>
<polygon fill="black" stroke="black" points="224.09,-319.36 234.95,-317.89 228.88,-320.78 233.67,-322.2 233.67,-322.2 233.67,-322.2 228.88,-320.78 232.39,-326.51 224.09,-319.36 224.09,-319.36"/>
<text text-anchor="middle" x="487.5" y="-371.8" font-family="Times,serif" font-size="14.00">O2 rf</text>
</g>
</g>
</svg>
