<?xml version="1.0" encoding="UTF-8" standalone="no"?>
<!DOCTYPE svg PUBLIC "-//W3C//DTD SVG 1.1//EN"
 "http://www.w3.org/Graphics/SVG/1.1/DTD/svg11.dtd">
<!-- Generated by graphviz version 2.43.0 (0)
 -->
<!-- Title: EXPinput/e Pages: 1 -->
<svg width="649pt" height="816pt"
 viewBox="0.00 0.00 649.00 816.00" xmlns="http://www.w3.org/2000/svg" xmlns:xlink="http://www.w3.org/1999/xlink">
<g id="graph0" class="graph" transform="scale(1 1) rotate(0) translate(4 812)">
<title>EXPinput/e</title>
<polygon fill="white" stroke="transparent" points="-4,4 -4,-812 645,-812 645,4 -4,4"/>
<g id="clust1" class="cluster">
<title>cluster0</title>
<path fill="#eaffee" stroke="#eaffee" d="M537,-501C537,-501 591,-501 591,-501 597,-501 603,-507 603,-513 603,-513 603,-572 603,-572 603,-578 597,-584 591,-584 591,-584 537,-584 537,-584 531,-584 525,-578 525,-572 525,-572 525,-513 525,-513 525,-507 531,-501 537,-501"/>
<text text-anchor="middle" x="564" y="-568.8" font-family="Times,serif" font-size="14.00" fill="#b2ccbb">C0</text>
</g>
<g id="clust2" class="cluster">
<title>cluster1</title>
<path fill="#eaffee" stroke="#eaffee" d="M541,-393C541,-393 587,-393 587,-393 593,-393 599,-399 599,-405 599,-405 599,-456 599,-456 599,-462 593,-468 587,-468 587,-468 541,-468 541,-468 535,-468 529,-462 529,-456 529,-456 529,-405 529,-405 529,-399 535,-393 541,-393"/>
<text text-anchor="middle" x="564" y="-452.8" font-family="Times,serif" font-size="14.00" fill="#b2ccbb">C1</text>
</g>
<g id="clust3" class="cluster">
<title>cluster2</title>
<path fill="#eaffee" stroke="#eaffee" d="M302,-8C302,-8 436,-8 436,-8 442,-8 448,-14 448,-20 448,-20 448,-348 448,-348 448,-354 442,-360 436,-360 436,-360 302,-360 302,-360 296,-360 290,-354 290,-348 290,-348 290,-20 290,-20 290,-14 296,-8 302,-8"/>
<text text-anchor="middle" x="369" y="-344.8" font-family="Times,serif" font-size="14.00" fill="#b2ccbb">C2</text>
</g>
<g id="clust4" class="cluster">
<title>cluster3</title>
<path fill="#eaffee" stroke="#eaffee" d="M70,-393C70,-393 188,-393 188,-393 194,-393 200,-399 200,-405 200,-405 200,-568 200,-568 200,-574 194,-580 188,-580 188,-580 70,-580 70,-580 64,-580 58,-574 58,-568 58,-568 58,-405 58,-405 58,-399 64,-393 70,-393"/>
<text text-anchor="middle" x="129" y="-564.8" font-family="Times,serif" font-size="14.00" fill="#b2ccbb">C3</text>
</g>
<g id="clust5" class="cluster">
<title>cluster4</title>
<path fill="#eaffee" stroke="#eaffee" d="M111,-285C111,-285 157,-285 157,-285 163,-285 169,-291 169,-297 169,-297 169,-348 169,-348 169,-354 163,-360 157,-360 157,-360 111,-360 111,-360 105,-360 99,-354 99,-348 99,-348 99,-297 99,-297 99,-291 105,-285 111,-285"/>
<text text-anchor="middle" x="134" y="-344.8" font-family="Times,serif" font-size="14.00" fill="#b2ccbb">C4</text>
</g>
<g id="clust6" class="cluster">
<title>cluster5</title>
<path fill="#eaffee" stroke="#eaffee" d="M220,-393C220,-393 338,-393 338,-393 344,-393 350,-399 350,-405 350,-405 350,-788 350,-788 350,-794 344,-800 338,-800 338,-800 220,-800 220,-800 214,-800 208,-794 208,-788 208,-788 208,-405 208,-405 208,-399 214,-393 220,-393"/>
<text text-anchor="middle" x="279" y="-784.8" font-family="Times,serif" font-size="14.00" fill="#b2ccbb">C5</text>
</g>
<g id="clust7" class="cluster">
<title>cluster6</title>
<path fill="#eaffee" stroke="#eaffee" d="M370,-393C370,-393 488,-393 488,-393 494,-393 500,-399 500,-405 500,-405 500,-680 500,-680 500,-686 494,-692 488,-692 488,-692 370,-692 370,-692 364,-692 358,-686 358,-680 358,-680 358,-405 358,-405 358,-399 364,-393 370,-393"/>
<text text-anchor="middle" x="429" y="-676.8" font-family="Times,serif" font-size="14.00" fill="#b2ccbb">C6</text>
</g>
<!-- C0S0 -->
<g id="node1" class="node">
<title>C0S0</title>
<polygon fill="white" stroke="black" points="591,-523.54 591,-538.46 575.18,-549 552.82,-549 537,-538.46 537,-523.54 552.82,-513 575.18,-513 591,-523.54"/>
<polygon fill="none" stroke="black" points="595,-521.4 595,-540.6 576.39,-553 551.61,-553 533,-540.6 533,-521.4 551.61,-509 576.39,-509 595,-521.4"/>
<text text-anchor="middle" x="564" y="-527.3" font-family="Times,serif" font-size="14.00">0</text>
</g>
<!-- C1S1 -->
<g id="node2" class="node">
<title>C1S1</title>
<polygon fill="white" stroke="black" points="591,-411.54 591,-426.46 575.18,-437 552.82,-437 537,-426.46 537,-411.54 552.82,-401 575.18,-401 591,-411.54"/>
<text text-anchor="middle" x="564" y="-415.3" font-family="Times,serif" font-size="14.00">1</text>
</g>
<!-- C0S0&#45;&gt;C1S1 -->
<g id="edge16" class="edge">
<title>C0S0&#45;&gt;C1S1</title>
<path fill="none" stroke="black" stroke-dasharray="5,2" d="M564,-508.79C564,-491.28 564,-466.3 564,-447.3"/>
<polygon fill="black" stroke="black" points="564,-437.17 568.5,-447.17 564,-442.17 564,-447.17 564,-447.17 564,-447.17 564,-442.17 559.5,-447.17 564,-437.17 564,-437.17"/>
<text text-anchor="middle" x="580.5" y="-479.8" font-family="Times,serif" font-size="14.00">O3 ε</text>
</g>
<!-- C2S2 -->
<g id="node3" class="node">
<title>C2S2</title>
<ellipse fill="white" stroke="black" cx="376" cy="-311" rx="27" ry="18"/>
<text text-anchor="middle" x="376" y="-307.3" font-family="Times,serif" font-size="14.00">2</text>
</g>
<!-- C1S1&#45;&gt;C2S2 -->
<g id="edge17" class="edge">
<title>C1S1&#45;&gt;C2S2</title>
<path fill="none" stroke="black" stroke-dasharray="5,2" d="M548.95,-403.07C537.57,-392.35 521.19,-378.07 505,-368 474.48,-349.02 436.41,-333.36 409.56,-323.46"/>
<polygon fill="black" stroke="black" points="399.86,-319.96 410.79,-319.13 404.56,-321.66 409.27,-323.36 409.27,-323.36 409.27,-323.36 404.56,-321.66 407.74,-327.59 399.86,-319.96 399.86,-319.96"/>
<text text-anchor="middle" x="541.5" y="-371.8" font-family="Times,serif" font-size="14.00">O2 ε</text>
</g>
<!-- C2S3 -->
<g id="node5" class="node">
<title>C2S3</title>
<polygon fill="white" stroke="black" points="356,-212.54 356,-227.46 340.18,-238 317.82,-238 302,-227.46 302,-212.54 317.82,-202 340.18,-202 356,-212.54"/>
<polygon fill="none" stroke="black" points="360,-210.4 360,-229.6 341.39,-242 316.61,-242 298,-229.6 298,-210.4 316.61,-198 341.39,-198 360,-210.4"/>
<text text-anchor="middle" x="329" y="-216.3" font-family="Times,serif" font-size="14.00">3</text>
</g>
<!-- C2S2&#45;&gt;C2S3 -->
<g id="edge1" class="edge">
<title>C2S2&#45;&gt;C2S3</title>
<path fill="none" stroke="darkgray" d="M367.38,-293.68C361.12,-281.82 352.46,-265.43 344.96,-251.22"/>
<polygon fill="darkgray" stroke="darkgray" points="347.99,-249.47 340.23,-242.26 341.8,-252.74 347.99,-249.47"/>
<text text-anchor="middle" x="364" y="-263.8" font-family="Times,serif" font-size="14.00" fill="darkgray">t4</text>
</g>
<!-- C2S10 -->
<g id="node7" class="node">
<title>C2S10</title>
<polygon fill="white" stroke="black" points="436,-212.54 436,-227.46 420.18,-238 397.82,-238 382,-227.46 382,-212.54 397.82,-202 420.18,-202 436,-212.54"/>
<polygon fill="none" stroke="black" points="440,-210.4 440,-229.6 421.39,-242 396.61,-242 378,-229.6 378,-210.4 396.61,-198 421.39,-198 440,-210.4"/>
<text text-anchor="middle" x="409" y="-216.3" font-family="Times,serif" font-size="14.00">10</text>
</g>
<!-- C2S2&#45;&gt;C2S10 -->
<g id="edge2" class="edge">
<title>C2S2&#45;&gt;C2S10</title>
<path fill="none" stroke="darkgray" d="M382.21,-293.26C386.53,-281.59 392.43,-265.68 397.59,-251.76"/>
<polygon fill="darkgray" stroke="darkgray" points="400.99,-252.66 401.19,-242.06 394.43,-250.22 400.99,-252.66"/>
<text text-anchor="middle" x="411.5" y="-263.8" font-family="Times,serif" font-size="14.00" fill="darkgray">t5R2</text>
</g>
<!-- C2S0 -->
<g id="node4" class="node">
<title>C2S0</title>
<polygon fill="white" stroke="black" points="436,-30.54 436,-45.46 420.18,-56 397.82,-56 382,-45.46 382,-30.54 397.82,-20 420.18,-20 436,-30.54"/>
<polygon fill="none" stroke="black" points="440,-28.4 440,-47.6 421.39,-60 396.61,-60 378,-47.6 378,-28.4 396.61,-16 421.39,-16 440,-28.4"/>
<text text-anchor="middle" x="409" y="-34.3" font-family="Times,serif" font-size="14.00">0</text>
</g>
<!-- C2S0&#45;&gt;C1S1 -->
<g id="edge18" class="edge">
<title>C2S0&#45;&gt;C1S1</title>
<path fill="none" stroke="black" stroke-dasharray="5,2" d="M440.29,-41.02C490.62,-46.15 584,-64.26 584,-128 584,-312 584,-312 584,-312 584,-339.24 577.55,-369.74 571.97,-391"/>
<polygon fill="black" stroke="black" points="569.25,-400.93 567.55,-390.1 570.57,-396.11 571.89,-391.28 571.89,-391.28 571.89,-391.28 570.57,-396.11 576.23,-392.47 569.25,-400.93 569.25,-400.93"/>
<text text-anchor="middle" x="612.5" y="-216.3" font-family="Times,serif" font-size="14.00">O3 r2r1</text>
</g>
<!-- C2S4 -->
<g id="node6" class="node">
<title>C2S4</title>
<polygon fill="white" stroke="black" points="353,-121.54 353,-136.46 337.18,-147 314.82,-147 299,-136.46 299,-121.54 314.82,-111 337.18,-111 353,-121.54"/>
<text text-anchor="middle" x="326" y="-125.3" font-family="Times,serif" font-size="14.00">4</text>
</g>
<!-- C2S3&#45;&gt;C2S4 -->
<g id="edge3" class="edge">
<title>C2S3&#45;&gt;C2S4</title>
<path fill="none" stroke="darkgray" d="M328.29,-197.91C327.88,-185.78 327.36,-170.41 326.92,-157.36"/>
<polygon fill="darkgray" stroke="darkgray" points="330.41,-156.94 326.58,-147.07 323.41,-157.18 330.41,-156.94"/>
<text text-anchor="middle" x="344.5" y="-168.8" font-family="Times,serif" font-size="14.00" fill="darkgray">t2R1</text>
</g>
<!-- C3S5 -->
<g id="node10" class="node">
<title>C3S5</title>
<ellipse fill="white" stroke="black" cx="93" cy="-531" rx="27" ry="18"/>
<text text-anchor="middle" x="93" y="-527.3" font-family="Times,serif" font-size="14.00">5</text>
</g>
<!-- C2S4&#45;&gt;C3S5 -->
<g id="edge19" class="edge">
<title>C2S4&#45;&gt;C3S5</title>
<path fill="none" stroke="black" stroke-dasharray="5,2" d="M298.91,-132.53C227.21,-139.96 38,-164.7 38,-219 38,-420 38,-420 38,-420 38,-452.84 57.85,-485.93 73.7,-507.11"/>
<polygon fill="black" stroke="black" points="79.97,-515.15 70.27,-510.03 76.89,-511.21 73.82,-507.26 73.82,-507.26 73.82,-507.26 76.89,-511.21 77.38,-504.5 79.97,-515.15 79.97,-515.15"/>
<text text-anchor="middle" x="54.5" y="-307.3" font-family="Times,serif" font-size="14.00">O3 ε</text>
</g>
<!-- C2S11 -->
<g id="node8" class="node">
<title>C2S11</title>
<ellipse fill="white" stroke="black" cx="405" cy="-129" rx="27" ry="18"/>
<text text-anchor="middle" x="405" y="-125.3" font-family="Times,serif" font-size="14.00">11</text>
</g>
<!-- C2S10&#45;&gt;C2S11 -->
<g id="edge4" class="edge">
<title>C2S10&#45;&gt;C2S11</title>
<path fill="none" stroke="darkgray" d="M408.05,-197.91C407.51,-185.78 406.82,-170.41 406.23,-157.36"/>
<polygon fill="darkgray" stroke="darkgray" points="409.71,-156.9 405.77,-147.07 402.72,-157.21 409.71,-156.9"/>
<text text-anchor="middle" x="424.5" y="-168.8" font-family="Times,serif" font-size="14.00" fill="darkgray">t2R1</text>
</g>
<!-- C2S11&#45;&gt;C2S0 -->
<g id="edge5" class="edge">
<title>C2S11&#45;&gt;C2S0</title>
<path fill="none" stroke="darkgray" d="M405.77,-110.84C406.28,-99.44 406.97,-84.13 407.58,-70.58"/>
<polygon fill="darkgray" stroke="darkgray" points="411.1,-70.34 408.05,-60.19 404.1,-70.02 411.1,-70.34"/>
<text text-anchor="middle" x="415" y="-81.8" font-family="Times,serif" font-size="14.00" fill="darkgray">t4</text>
</g>
<!-- C2S12 -->
<g id="node9" class="node">
<title>C2S12</title>
<polygon fill="white" stroke="black" points="356,-30.54 356,-45.46 340.18,-56 317.82,-56 302,-45.46 302,-30.54 317.82,-20 340.18,-20 356,-30.54"/>
<polygon fill="none" stroke="black" points="360,-28.4 360,-47.6 341.39,-60 316.61,-60 298,-47.6 298,-28.4 316.61,-16 341.39,-16 360,-28.4"/>
<text text-anchor="middle" x="329" y="-34.3" font-family="Times,serif" font-size="14.00">12</text>
</g>
<!-- C2S11&#45;&gt;C2S12 -->
<g id="edge6" class="edge">
<title>C2S11&#45;&gt;C2S12</title>
<path fill="none" stroke="darkgray" d="M388.74,-114.41C381.72,-108.2 373.62,-100.55 367,-93 360.27,-85.32 353.62,-76.45 347.82,-68.15"/>
<polygon fill="darkgray" stroke="darkgray" points="350.63,-66.06 342.1,-59.77 344.85,-70 350.63,-66.06"/>
<text text-anchor="middle" x="384.5" y="-81.8" font-family="Times,serif" font-size="14.00" fill="darkgray">t5R2</text>
</g>
<!-- C3S1 -->
<g id="node11" class="node">
<title>C3S1</title>
<polygon fill="white" stroke="black" points="192,-411.54 192,-426.46 176.18,-437 153.82,-437 138,-426.46 138,-411.54 153.82,-401 176.18,-401 192,-411.54"/>
<text text-anchor="middle" x="165" y="-415.3" font-family="Times,serif" font-size="14.00">1</text>
</g>
<!-- C3S5&#45;&gt;C3S1 -->
<g id="edge8" class="edge">
<title>C3S5&#45;&gt;C3S1</title>
<path fill="none" stroke="darkgray" d="M103.32,-514.24C115.02,-496.36 134.28,-466.93 148.17,-445.71"/>
<polygon fill="darkgray" stroke="darkgray" points="151.21,-447.46 153.75,-437.18 145.35,-443.63 151.21,-447.46"/>
<text text-anchor="middle" x="143.5" y="-479.8" font-family="Times,serif" font-size="14.00" fill="darkgray">t5R2</text>
</g>
<!-- C3S6 -->
<g id="node12" class="node">
<title>C3S6</title>
<polygon fill="white" stroke="black" points="120,-411.54 120,-426.46 104.18,-437 81.82,-437 66,-426.46 66,-411.54 81.82,-401 104.18,-401 120,-411.54"/>
<text text-anchor="middle" x="93" y="-415.3" font-family="Times,serif" font-size="14.00">6</text>
</g>
<!-- C3S5&#45;&gt;C3S6 -->
<g id="edge7" class="edge">
<title>C3S5&#45;&gt;C3S6</title>
<path fill="none" stroke="darkgray" d="M93,-512.81C93,-495.21 93,-467.61 93,-447.07"/>
<polygon fill="darkgray" stroke="darkgray" points="96.5,-447.07 93,-437.07 89.5,-447.07 96.5,-447.07"/>
<text text-anchor="middle" x="101" y="-479.8" font-family="Times,serif" font-size="14.00" fill="darkgray">t4</text>
</g>
<!-- C3S1&#45;&gt;C2S2 -->
<g id="edge20" class="edge">
<title>C3S1&#45;&gt;C2S2</title>
<path fill="none" stroke="black" stroke-dasharray="5,2" d="M183.5,-405.81C189.93,-401.65 197.23,-397.04 204,-393 223.64,-381.27 228.51,-378.18 249,-368 280.76,-352.22 317.99,-336.07 343.89,-325.19"/>
<polygon fill="black" stroke="black" points="353.23,-321.3 345.73,-329.3 348.61,-323.22 344,-325.15 344,-325.15 344,-325.15 348.61,-323.22 342.27,-321 353.23,-321.3 353.23,-321.3"/>
<text text-anchor="middle" x="269.5" y="-371.8" font-family="Times,serif" font-size="14.00">O2 r2</text>
</g>
<!-- C4S7 -->
<g id="node13" class="node">
<title>C4S7</title>
<polygon fill="white" stroke="black" points="161,-303.54 161,-318.46 145.18,-329 122.82,-329 107,-318.46 107,-303.54 122.82,-293 145.18,-293 161,-303.54"/>
<text text-anchor="middle" x="134" y="-307.3" font-family="Times,serif" font-size="14.00">7</text>
</g>
<!-- C3S6&#45;&gt;C4S7 -->
<g id="edge21" class="edge">
<title>C3S6&#45;&gt;C4S7</title>
<path fill="none" stroke="black" stroke-dasharray="5,2" d="M91.81,-400.9C91.66,-391.04 92.41,-378.54 96,-368 99.94,-356.42 106.96,-344.99 113.91,-335.51"/>
<polygon fill="black" stroke="black" points="120.17,-327.41 117.62,-338.07 117.12,-331.36 114.06,-335.32 114.06,-335.32 114.06,-335.32 117.12,-331.36 110.5,-332.57 120.17,-327.41 120.17,-327.41"/>
<text text-anchor="middle" x="112.5" y="-371.8" font-family="Times,serif" font-size="14.00">O2 ε</text>
</g>
<!-- C5S8 -->
<g id="node14" class="node">
<title>C5S8</title>
<ellipse fill="white" stroke="black" cx="243" cy="-751" rx="27" ry="18"/>
<text text-anchor="middle" x="243" y="-747.3" font-family="Times,serif" font-size="14.00">8</text>
</g>
<!-- C4S7&#45;&gt;C5S8 -->
<g id="edge22" class="edge">
<title>C4S7&#45;&gt;C5S8</title>
<path fill="none" stroke="black" stroke-dasharray="5,2" d="M117.56,-325.56C105.77,-335.23 89.48,-348.51 75,-360 41.99,-386.19 0,-375.86 0,-418 0,-644 0,-644 0,-644 0,-732.47 137,-747.85 205.26,-750.01"/>
<polygon fill="black" stroke="black" points="215.6,-750.26 205.49,-754.52 210.6,-750.14 205.6,-750.02 205.6,-750.02 205.6,-750.02 210.6,-750.14 205.71,-745.52 215.6,-750.26 215.6,-750.26"/>
<text text-anchor="middle" x="16.5" y="-527.3" font-family="Times,serif" font-size="14.00">O3 ε</text>
</g>
<!-- C5S9 -->
<g id="node18" class="node">
<title>C5S9</title>
<ellipse fill="white" stroke="black" cx="243" cy="-643" rx="27" ry="18"/>
<text text-anchor="middle" x="243" y="-639.3" font-family="Times,serif" font-size="14.00">9</text>
</g>
<!-- C5S8&#45;&gt;C5S9 -->
<g id="edge9" class="edge">
<title>C5S8&#45;&gt;C5S9</title>
<path fill="none" stroke="darkgray" d="M243,-732.97C243,-716.38 243,-690.88 243,-671.43"/>
<polygon fill="darkgray" stroke="darkgray" points="246.5,-671.34 243,-661.34 239.5,-671.34 246.5,-671.34"/>
<text text-anchor="middle" x="260.5" y="-703.8" font-family="Times,serif" font-size="14.00" fill="darkgray">t5R2</text>
</g>
<!-- C5S5 -->
<g id="node15" class="node">
<title>C5S5</title>
<ellipse fill="white" stroke="black" cx="243" cy="-531" rx="27" ry="18"/>
<text text-anchor="middle" x="243" y="-527.3" font-family="Times,serif" font-size="14.00">5</text>
</g>
<!-- C5S6 -->
<g id="node16" class="node">
<title>C5S6</title>
<polygon fill="white" stroke="black" points="270,-411.54 270,-426.46 254.18,-437 231.82,-437 216,-426.46 216,-411.54 231.82,-401 254.18,-401 270,-411.54"/>
<text text-anchor="middle" x="243" y="-415.3" font-family="Times,serif" font-size="14.00">6</text>
</g>
<!-- C5S5&#45;&gt;C5S6 -->
<g id="edge10" class="edge">
<title>C5S5&#45;&gt;C5S6</title>
<path fill="none" stroke="darkgray" d="M243,-512.81C243,-495.21 243,-467.61 243,-447.07"/>
<polygon fill="darkgray" stroke="darkgray" points="246.5,-447.07 243,-437.07 239.5,-447.07 246.5,-447.07"/>
<text text-anchor="middle" x="251" y="-479.8" font-family="Times,serif" font-size="14.00" fill="darkgray">t4</text>
</g>
<!-- C5S1 -->
<g id="node17" class="node">
<title>C5S1</title>
<polygon fill="white" stroke="black" points="342,-411.54 342,-426.46 326.18,-437 303.82,-437 288,-426.46 288,-411.54 303.82,-401 326.18,-401 342,-411.54"/>
<text text-anchor="middle" x="315" y="-415.3" font-family="Times,serif" font-size="14.00">1</text>
</g>
<!-- C5S5&#45;&gt;C5S1 -->
<g id="edge11" class="edge">
<title>C5S5&#45;&gt;C5S1</title>
<path fill="none" stroke="darkgray" d="M253.32,-514.24C265.02,-496.36 284.28,-466.93 298.17,-445.71"/>
<polygon fill="darkgray" stroke="darkgray" points="301.21,-447.46 303.75,-437.18 295.35,-443.63 301.21,-447.46"/>
<text text-anchor="middle" x="293.5" y="-479.8" font-family="Times,serif" font-size="14.00" fill="darkgray">t5R2</text>
</g>
<!-- C5S6&#45;&gt;C4S7 -->
<g id="edge24" class="edge">
<title>C5S6&#45;&gt;C4S7</title>
<path fill="none" stroke="black" stroke-dasharray="5,2" d="M225.52,-404.8C219.05,-400.47 211.46,-396 204,-393 182.57,-384.39 169.88,-398.77 153,-383 141.15,-371.92 136.38,-354.34 134.59,-339.44"/>
<polygon fill="black" stroke="black" points="133.74,-329.2 139.05,-338.8 134.15,-334.18 134.56,-339.16 134.56,-339.16 134.56,-339.16 134.15,-334.18 130.08,-339.53 133.74,-329.2 133.74,-329.2"/>
<text text-anchor="middle" x="181.5" y="-371.8" font-family="Times,serif" font-size="14.00">O2 r2r1</text>
</g>
<!-- C5S1&#45;&gt;C2S2 -->
<g id="edge23" class="edge">
<title>C5S1&#45;&gt;C2S2</title>
<path fill="none" stroke="black" stroke-dasharray="5,2" d="M302.49,-401.79C296.37,-391.77 291.41,-378.82 297,-368 306.9,-348.85 326.71,-334.83 344.01,-325.61"/>
<polygon fill="black" stroke="black" points="353.29,-320.98 346.35,-329.47 348.82,-323.21 344.34,-325.44 344.34,-325.44 344.34,-325.44 348.82,-323.21 342.33,-321.42 353.29,-320.98 353.29,-320.98"/>
<text text-anchor="middle" x="333.5" y="-371.8" font-family="Times,serif" font-size="14.00">O2 r2r1r2</text>
</g>
<!-- C5S9&#45;&gt;C5S5 -->
<g id="edge12" class="edge">
<title>C5S9&#45;&gt;C5S5</title>
<path fill="none" stroke="darkgray" d="M243,-624.81C243,-607.21 243,-579.61 243,-559.07"/>
<polygon fill="darkgray" stroke="darkgray" points="246.5,-559.07 243,-549.07 239.5,-559.07 246.5,-559.07"/>
<text text-anchor="middle" x="260.5" y="-595.8" font-family="Times,serif" font-size="14.00" fill="darkgray">t2R1</text>
</g>
<!-- C6S9 -->
<g id="node19" class="node">
<title>C6S9</title>
<ellipse fill="white" stroke="black" cx="412" cy="-643" rx="27" ry="18"/>
<text text-anchor="middle" x="412" y="-639.3" font-family="Times,serif" font-size="14.00">9</text>
</g>
<!-- C6S5 -->
<g id="node20" class="node">
<title>C6S5</title>
<ellipse fill="white" stroke="black" cx="412" cy="-531" rx="27" ry="18"/>
<text text-anchor="middle" x="412" y="-527.3" font-family="Times,serif" font-size="14.00">5</text>
</g>
<!-- C6S9&#45;&gt;C6S5 -->
<g id="edge13" class="edge">
<title>C6S9&#45;&gt;C6S5</title>
<path fill="none" stroke="darkgray" d="M412,-624.81C412,-607.21 412,-579.61 412,-559.07"/>
<polygon fill="darkgray" stroke="darkgray" points="415.5,-559.07 412,-549.07 408.5,-559.07 415.5,-559.07"/>
<text text-anchor="middle" x="429.5" y="-595.8" font-family="Times,serif" font-size="14.00" fill="darkgray">t2R1</text>
</g>
<!-- C6S6 -->
<g id="node21" class="node">
<title>C6S6</title>
<polygon fill="white" stroke="black" points="420,-411.54 420,-426.46 404.18,-437 381.82,-437 366,-426.46 366,-411.54 381.82,-401 404.18,-401 420,-411.54"/>
<text text-anchor="middle" x="393" y="-415.3" font-family="Times,serif" font-size="14.00">6</text>
</g>
<!-- C6S5&#45;&gt;C6S6 -->
<g id="edge14" class="edge">
<title>C6S5&#45;&gt;C6S6</title>
<path fill="none" stroke="darkgray" d="M409.03,-512.81C405.99,-495.21 401.22,-467.61 397.68,-447.07"/>
<polygon fill="darkgray" stroke="darkgray" points="401.1,-446.33 395.95,-437.07 394.2,-447.52 401.1,-446.33"/>
<text text-anchor="middle" x="412" y="-479.8" font-family="Times,serif" font-size="14.00" fill="darkgray">t4</text>
</g>
<!-- C6S1 -->
<g id="node22" class="node">
<title>C6S1</title>
<polygon fill="white" stroke="black" points="492,-411.54 492,-426.46 476.18,-437 453.82,-437 438,-426.46 438,-411.54 453.82,-401 476.18,-401 492,-411.54"/>
<text text-anchor="middle" x="465" y="-415.3" font-family="Times,serif" font-size="14.00">1</text>
</g>
<!-- C6S5&#45;&gt;C6S1 -->
<g id="edge15" class="edge">
<title>C6S5&#45;&gt;C6S1</title>
<path fill="none" stroke="darkgray" d="M419.82,-513.77C428.41,-495.94 442.33,-467.06 452.45,-446.05"/>
<polygon fill="darkgray" stroke="darkgray" points="455.61,-447.55 456.8,-437.02 449.3,-444.51 455.61,-447.55"/>
<text text-anchor="middle" x="453.5" y="-479.8" font-family="Times,serif" font-size="14.00" fill="darkgray">t5R2</text>
</g>
<!-- C6S6&#45;&gt;C4S7 -->
<g id="edge26" class="edge">
<title>C6S6&#45;&gt;C4S7</title>
<path fill="none" stroke="black" stroke-dasharray="5,2" d="M389.7,-400.79C386.6,-389.57 380.75,-375.63 370,-368 354.71,-357.15 304.38,-363.73 286,-360 244.09,-351.49 197.39,-335.76 166.96,-324.63"/>
<polygon fill="black" stroke="black" points="157.29,-321.05 168.23,-320.31 161.98,-322.79 166.67,-324.53 166.67,-324.53 166.67,-324.53 161.98,-322.79 165.1,-328.74 157.29,-321.05 157.29,-321.05"/>
<text text-anchor="middle" x="402.5" y="-371.8" font-family="Times,serif" font-size="14.00">O2 r1</text>
</g>
<!-- C6S1&#45;&gt;C2S2 -->
<g id="edge25" class="edge">
<title>C6S1&#45;&gt;C2S2</title>
<path fill="none" stroke="black" stroke-dasharray="5,2" d="M455.66,-400.63C449.96,-390.67 442.21,-378.17 434,-368 423.74,-355.29 410.79,-342.53 399.72,-332.41"/>
<polygon fill="black" stroke="black" points="392.07,-325.55 402.52,-328.87 395.79,-328.88 399.51,-332.22 399.51,-332.22 399.51,-332.22 395.79,-328.88 396.51,-335.57 392.07,-325.55 392.07,-325.55"/>
<text text-anchor="middle" x="472.5" y="-371.8" font-family="Times,serif" font-size="14.00">O2 r1r2</text>
</g>
</g>
</svg>
