<?xml version="1.0" encoding="UTF-8" standalone="no"?>
<!DOCTYPE svg PUBLIC "-//W3C//DTD SVG 1.1//EN"
 "http://www.w3.org/Graphics/SVG/1.1/DTD/svg11.dtd">
<!-- Generated by graphviz version 2.43.0 (0)
 -->
<!-- Title: EXPinput/e Pages: 1 -->
<svg width="727pt" height="685pt"
 viewBox="0.00 0.00 727.00 685.00" xmlns="http://www.w3.org/2000/svg" xmlns:xlink="http://www.w3.org/1999/xlink">
<g id="graph0" class="graph" transform="scale(1 1) rotate(0) translate(4 681)">
<title>EXPinput/e</title>
<polygon fill="white" stroke="transparent" points="-4,4 -4,-681 723,-681 723,4 -4,4"/>
<g id="clust1" class="cluster">
<title>cluster1</title>
<path fill="#eaffee" stroke="#eaffee" d="M628,-443C628,-443 692,-443 692,-443 698,-443 704,-449 704,-455 704,-455 704,-483 704,-483 704,-489 698,-495 692,-495 692,-495 628,-495 628,-495 622,-495 616,-489 616,-483 616,-483 616,-455 616,-455 616,-449 622,-443 628,-443"/>
</g>
<g id="clust2" class="cluster">
<title>cluster2</title>
<path fill="#eaffee" stroke="#eaffee" d="M628,-356C628,-356 692,-356 692,-356 698,-356 704,-362 704,-368 704,-368 704,-396 704,-396 704,-402 698,-408 692,-408 692,-408 628,-408 628,-408 622,-408 616,-402 616,-396 616,-396 616,-368 616,-368 616,-362 622,-356 628,-356"/>
</g>
<g id="clust3" class="cluster">
<title>cluster3</title>
<path fill="#eaffee" stroke="#eaffee" d="M383,-8C383,-8 548,-8 548,-8 554,-8 560,-14 560,-20 560,-20 560,-309 560,-309 560,-315 554,-321 548,-321 548,-321 383,-321 383,-321 377,-321 371,-315 371,-309 371,-309 371,-20 371,-20 371,-14 377,-8 383,-8"/>
</g>
<g id="clust4" class="cluster">
<title>cluster4</title>
<path fill="#eaffee" stroke="#eaffee" d="M70,-356C70,-356 223,-356 223,-356 229,-356 235,-362 235,-368 235,-368 235,-483 235,-483 235,-489 229,-495 223,-495 223,-495 70,-495 70,-495 64,-495 58,-489 58,-483 58,-483 58,-368 58,-368 58,-362 64,-356 70,-356"/>
</g>
<g id="clust5" class="cluster">
<title>cluster5</title>
<path fill="#eaffee" stroke="#eaffee" d="M122,-269C122,-269 186,-269 186,-269 192,-269 198,-275 198,-281 198,-281 198,-309 198,-309 198,-315 192,-321 186,-321 186,-321 122,-321 122,-321 116,-321 110,-315 110,-309 110,-309 110,-281 110,-281 110,-275 116,-269 122,-269"/>
</g>
<g id="clust6" class="cluster">
<title>cluster6</title>
<path fill="#eaffee" stroke="#eaffee" d="M255,-356C255,-356 408,-356 408,-356 414,-356 420,-362 420,-368 420,-368 420,-657 420,-657 420,-663 414,-669 408,-669 408,-669 255,-669 255,-669 249,-669 243,-663 243,-657 243,-657 243,-368 243,-368 243,-362 249,-356 255,-356"/>
</g>
<g id="clust7" class="cluster">
<title>cluster7</title>
<path fill="#eaffee" stroke="#eaffee" d="M440,-356C440,-356 593,-356 593,-356 599,-356 605,-362 605,-368 605,-368 605,-570 605,-570 605,-576 599,-582 593,-582 593,-582 440,-582 440,-582 434,-582 428,-576 428,-570 428,-570 428,-368 428,-368 428,-362 434,-356 440,-356"/>
</g>
<!-- C1S0 -->
<g id="node1" class="node">
<title>C1S0</title>
<ellipse fill="white" stroke="black" cx="660" cy="-469" rx="36" ry="18"/>
<text text-anchor="middle" x="660" y="-465.3" font-family="Times,serif" font-size="14.00">C1S0</text>
</g>
<!-- C2S1 -->
<g id="node2" class="node">
<title>C2S1</title>
<ellipse fill="white" stroke="black" cx="660" cy="-382" rx="36" ry="18"/>
<text text-anchor="middle" x="660" y="-378.3" font-family="Times,serif" font-size="14.00">C2S1</text>
</g>
<!-- C1S0&#45;&gt;C2S1 -->
<g id="edge16" class="edge">
<title>C1S0&#45;&gt;C2S1</title>
<path fill="none" stroke="black" stroke-dasharray="5,2" d="M660,-450.8C660,-439.16 660,-423.55 660,-410.24"/>
<polygon fill="black" stroke="black" points="660,-400.18 664.5,-410.18 660,-405.18 660,-410.18 660,-410.18 660,-410.18 660,-405.18 655.5,-410.18 660,-400.18 660,-400.18"/>
<text text-anchor="middle" x="676.5" y="-421.8" font-family="Times,serif" font-size="14.00">O3 ε</text>
</g>
<!-- C3S2 -->
<g id="node3" class="node">
<title>C3S2</title>
<ellipse fill="white" stroke="black" cx="448" cy="-295" rx="36" ry="18"/>
<text text-anchor="middle" x="448" y="-291.3" font-family="Times,serif" font-size="14.00">C3S2</text>
</g>
<!-- C2S1&#45;&gt;C3S2 -->
<g id="edge17" class="edge">
<title>C2S1&#45;&gt;C3S2</title>
<path fill="none" stroke="black" stroke-dasharray="5,2" d="M641.19,-366.56C624.03,-353.61 599.77,-335.92 589,-331 558.04,-316.86 520.55,-307.9 492.01,-302.59"/>
<polygon fill="black" stroke="black" points="481.93,-300.8 492.56,-298.12 486.85,-301.68 491.77,-302.55 491.77,-302.55 491.77,-302.55 486.85,-301.68 490.98,-306.98 481.93,-300.8 481.93,-300.8"/>
<text text-anchor="middle" x="628.5" y="-334.8" font-family="Times,serif" font-size="14.00">O2 ε</text>
</g>
<!-- C3S3 -->
<g id="node5" class="node">
<title>C3S3</title>
<ellipse fill="white" stroke="black" cx="415" cy="-208" rx="36" ry="18"/>
<text text-anchor="middle" x="415" y="-204.3" font-family="Times,serif" font-size="14.00">C3S3</text>
</g>
<!-- C3S2&#45;&gt;C3S3 -->
<g id="edge1" class="edge">
<title>C3S2&#45;&gt;C3S3</title>
<path fill="none" stroke="darkgray" d="M441.48,-277.21C436.82,-265.22 430.47,-248.85 425.16,-235.16"/>
<polygon fill="darkgray" stroke="darkgray" points="428.39,-233.81 421.51,-225.76 421.86,-236.35 428.39,-233.81"/>
<text text-anchor="middle" x="441" y="-247.8" font-family="Times,serif" font-size="14.00" fill="darkgray">t4</text>
</g>
<!-- C3S10 -->
<g id="node7" class="node">
<title>C3S10</title>
<ellipse fill="white" stroke="black" cx="510" cy="-208" rx="41.69" ry="18"/>
<text text-anchor="middle" x="510" y="-204.3" font-family="Times,serif" font-size="14.00">C3S10</text>
</g>
<!-- C3S2&#45;&gt;C3S10 -->
<g id="edge2" class="edge">
<title>C3S2&#45;&gt;C3S10</title>
<path fill="none" stroke="darkgray" d="M459.95,-277.61C469.05,-265.15 481.71,-247.79 492.02,-233.65"/>
<polygon fill="darkgray" stroke="darkgray" points="495.02,-235.48 498.08,-225.34 489.36,-231.36 495.02,-235.48"/>
<text text-anchor="middle" x="499.5" y="-247.8" font-family="Times,serif" font-size="14.00" fill="darkgray">t5R2</text>
</g>
<!-- C3S0 -->
<g id="node4" class="node">
<title>C3S0</title>
<ellipse fill="white" stroke="black" cx="516" cy="-34" rx="36" ry="18"/>
<text text-anchor="middle" x="516" y="-30.3" font-family="Times,serif" font-size="14.00">C3S0</text>
</g>
<!-- C3S0&#45;&gt;C2S1 -->
<g id="edge18" class="edge">
<title>C3S0&#45;&gt;C2S1</title>
<path fill="none" stroke="black" stroke-dasharray="5,2" d="M550.23,-39.66C593.38,-47.68 662,-68.53 662,-120 662,-296 662,-296 662,-296 662,-315.25 661.48,-336.95 660.97,-353.61"/>
<polygon fill="black" stroke="black" points="660.64,-363.75 656.47,-353.61 660.81,-358.75 660.97,-353.75 660.97,-353.75 660.97,-353.75 660.81,-358.75 665.46,-353.9 660.64,-363.75 660.64,-363.75"/>
<text text-anchor="middle" x="690.5" y="-204.3" font-family="Times,serif" font-size="14.00">O3 r2r1</text>
</g>
<!-- C3S4 -->
<g id="node6" class="node">
<title>C3S4</title>
<ellipse fill="white" stroke="black" cx="415" cy="-121" rx="36" ry="18"/>
<text text-anchor="middle" x="415" y="-117.3" font-family="Times,serif" font-size="14.00">C3S4</text>
</g>
<!-- C3S3&#45;&gt;C3S4 -->
<g id="edge3" class="edge">
<title>C3S3&#45;&gt;C3S4</title>
<path fill="none" stroke="darkgray" d="M415,-189.8C415,-178.16 415,-162.55 415,-149.24"/>
<polygon fill="darkgray" stroke="darkgray" points="418.5,-149.18 415,-139.18 411.5,-149.18 418.5,-149.18"/>
<text text-anchor="middle" x="432.5" y="-160.8" font-family="Times,serif" font-size="14.00" fill="darkgray">t2R1</text>
</g>
<!-- C4S5 -->
<g id="node10" class="node">
<title>C4S5</title>
<ellipse fill="white" stroke="black" cx="102" cy="-469" rx="36" ry="18"/>
<text text-anchor="middle" x="102" y="-465.3" font-family="Times,serif" font-size="14.00">C4S5</text>
</g>
<!-- C3S4&#45;&gt;C4S5 -->
<g id="edge19" class="edge">
<title>C3S4&#45;&gt;C4S5</title>
<path fill="none" stroke="black" stroke-dasharray="5,2" d="M379.19,-122.51C285.09,-124.81 38,-137.47 38,-207 38,-383 38,-383 38,-383 38,-408.79 57.04,-431.73 74.34,-447.26"/>
<polygon fill="black" stroke="black" points="82.1,-453.86 71.57,-450.81 78.29,-450.62 74.48,-447.38 74.48,-447.38 74.48,-447.38 78.29,-450.62 77.4,-443.95 82.1,-453.86 82.1,-453.86"/>
<text text-anchor="middle" x="54.5" y="-291.3" font-family="Times,serif" font-size="14.00">O3 ε</text>
</g>
<!-- C3S11 -->
<g id="node8" class="node">
<title>C3S11</title>
<ellipse fill="white" stroke="black" cx="510" cy="-121" rx="41.69" ry="18"/>
<text text-anchor="middle" x="510" y="-117.3" font-family="Times,serif" font-size="14.00">C3S11</text>
</g>
<!-- C3S10&#45;&gt;C3S11 -->
<g id="edge4" class="edge">
<title>C3S10&#45;&gt;C3S11</title>
<path fill="none" stroke="darkgray" d="M510,-189.8C510,-178.16 510,-162.55 510,-149.24"/>
<polygon fill="darkgray" stroke="darkgray" points="513.5,-149.18 510,-139.18 506.5,-149.18 513.5,-149.18"/>
<text text-anchor="middle" x="527.5" y="-160.8" font-family="Times,serif" font-size="14.00" fill="darkgray">t2R1</text>
</g>
<!-- C3S11&#45;&gt;C3S0 -->
<g id="edge5" class="edge">
<title>C3S11&#45;&gt;C3S0</title>
<path fill="none" stroke="darkgray" d="M511.21,-102.8C512.04,-91.16 513.14,-75.55 514.08,-62.24"/>
<polygon fill="darkgray" stroke="darkgray" points="517.57,-62.4 514.79,-52.18 510.59,-61.9 517.57,-62.4"/>
<text text-anchor="middle" x="521" y="-73.8" font-family="Times,serif" font-size="14.00" fill="darkgray">t4</text>
</g>
<!-- C3S12 -->
<g id="node9" class="node">
<title>C3S12</title>
<ellipse fill="white" stroke="black" cx="421" cy="-34" rx="41.69" ry="18"/>
<text text-anchor="middle" x="421" y="-30.3" font-family="Times,serif" font-size="14.00">C3S12</text>
</g>
<!-- C3S11&#45;&gt;C3S12 -->
<g id="edge6" class="edge">
<title>C3S11&#45;&gt;C3S12</title>
<path fill="none" stroke="darkgray" d="M493.4,-104.35C487.01,-98.31 479.65,-91.35 473,-85 463.75,-76.18 453.6,-66.44 444.75,-57.92"/>
<polygon fill="darkgray" stroke="darkgray" points="446.99,-55.21 437.36,-50.8 442.14,-60.26 446.99,-55.21"/>
<text text-anchor="middle" x="490.5" y="-73.8" font-family="Times,serif" font-size="14.00" fill="darkgray">t5R2</text>
</g>
<!-- C4S1 -->
<g id="node11" class="node">
<title>C4S1</title>
<ellipse fill="white" stroke="black" cx="191" cy="-382" rx="36" ry="18"/>
<text text-anchor="middle" x="191" y="-378.3" font-family="Times,serif" font-size="14.00">C4S1</text>
</g>
<!-- C4S5&#45;&gt;C4S1 -->
<g id="edge8" class="edge">
<title>C4S5&#45;&gt;C4S1</title>
<path fill="none" stroke="darkgray" d="M117.91,-452.8C131.75,-439.59 151.98,-420.27 167.65,-405.3"/>
<polygon fill="darkgray" stroke="darkgray" points="170.11,-407.79 174.93,-398.35 165.28,-402.73 170.11,-407.79"/>
<text text-anchor="middle" x="168.5" y="-421.8" font-family="Times,serif" font-size="14.00" fill="darkgray">t5R2</text>
</g>
<!-- C4S6 -->
<g id="node12" class="node">
<title>C4S6</title>
<ellipse fill="white" stroke="black" cx="102" cy="-382" rx="36" ry="18"/>
<text text-anchor="middle" x="102" y="-378.3" font-family="Times,serif" font-size="14.00">C4S6</text>
</g>
<!-- C4S5&#45;&gt;C4S6 -->
<g id="edge7" class="edge">
<title>C4S5&#45;&gt;C4S6</title>
<path fill="none" stroke="darkgray" d="M102,-450.8C102,-439.16 102,-423.55 102,-410.24"/>
<polygon fill="darkgray" stroke="darkgray" points="105.5,-410.18 102,-400.18 98.5,-410.18 105.5,-410.18"/>
<text text-anchor="middle" x="110" y="-421.8" font-family="Times,serif" font-size="14.00" fill="darkgray">t4</text>
</g>
<!-- C4S1&#45;&gt;C3S2 -->
<g id="edge20" class="edge">
<title>C4S1&#45;&gt;C3S2</title>
<path fill="none" stroke="black" stroke-dasharray="5,2" d="M214,-367.85C221.79,-363.71 230.63,-359.36 239,-356 246.97,-352.8 349.21,-323.83 407.68,-307.35"/>
<polygon fill="black" stroke="black" points="417.36,-304.62 408.95,-311.66 412.55,-305.98 407.73,-307.33 407.73,-307.33 407.73,-307.33 412.55,-305.98 406.51,-303 417.36,-304.62 417.36,-304.62"/>
<text text-anchor="middle" x="343.5" y="-334.8" font-family="Times,serif" font-size="14.00">O2 r2</text>
</g>
<!-- C5S7 -->
<g id="node13" class="node">
<title>C5S7</title>
<ellipse fill="white" stroke="black" cx="154" cy="-295" rx="36" ry="18"/>
<text text-anchor="middle" x="154" y="-291.3" font-family="Times,serif" font-size="14.00">C5S7</text>
</g>
<!-- C4S6&#45;&gt;C5S7 -->
<g id="edge21" class="edge">
<title>C4S6&#45;&gt;C5S7</title>
<path fill="none" stroke="black" stroke-dasharray="5,2" d="M108.42,-364.23C112.56,-354.24 118.39,-341.51 125,-331 127.43,-327.14 130.24,-323.24 133.14,-319.51"/>
<polygon fill="black" stroke="black" points="139.5,-311.71 136.66,-322.3 136.34,-315.58 133.18,-319.46 133.18,-319.46 133.18,-319.46 136.34,-315.58 129.69,-316.61 139.5,-311.71 139.5,-311.71"/>
<text text-anchor="middle" x="141.5" y="-334.8" font-family="Times,serif" font-size="14.00">O2 ε</text>
</g>
<!-- C6S8 -->
<g id="node14" class="node">
<title>C6S8</title>
<ellipse fill="white" stroke="black" cx="287" cy="-643" rx="36" ry="18"/>
<text text-anchor="middle" x="287" y="-639.3" font-family="Times,serif" font-size="14.00">C6S8</text>
</g>
<!-- C5S7&#45;&gt;C6S8 -->
<g id="edge22" class="edge">
<title>C5S7&#45;&gt;C6S8</title>
<path fill="none" stroke="black" stroke-dasharray="5,2" d="M124.67,-305.6C79.99,-321.11 0,-352.83 0,-381 0,-557 0,-557 0,-557 0,-606.79 160.84,-629.67 241.71,-638.03"/>
<polygon fill="black" stroke="black" points="252.1,-639.07 241.7,-642.55 247.12,-638.57 242.14,-638.07 242.14,-638.07 242.14,-638.07 247.12,-638.57 242.59,-633.59 252.1,-639.07 252.1,-639.07"/>
<text text-anchor="middle" x="16.5" y="-465.3" font-family="Times,serif" font-size="14.00">O3 ε</text>
</g>
<!-- C6S9 -->
<g id="node18" class="node">
<title>C6S9</title>
<ellipse fill="white" stroke="black" cx="287" cy="-556" rx="36" ry="18"/>
<text text-anchor="middle" x="287" y="-552.3" font-family="Times,serif" font-size="14.00">C6S9</text>
</g>
<!-- C6S8&#45;&gt;C6S9 -->
<g id="edge9" class="edge">
<title>C6S8&#45;&gt;C6S9</title>
<path fill="none" stroke="darkgray" d="M287,-624.8C287,-613.16 287,-597.55 287,-584.24"/>
<polygon fill="darkgray" stroke="darkgray" points="290.5,-584.18 287,-574.18 283.5,-584.18 290.5,-584.18"/>
<text text-anchor="middle" x="304.5" y="-595.8" font-family="Times,serif" font-size="14.00" fill="darkgray">t5R2</text>
</g>
<!-- C6S5 -->
<g id="node15" class="node">
<title>C6S5</title>
<ellipse fill="white" stroke="black" cx="287" cy="-469" rx="36" ry="18"/>
<text text-anchor="middle" x="287" y="-465.3" font-family="Times,serif" font-size="14.00">C6S5</text>
</g>
<!-- C6S6 -->
<g id="node16" class="node">
<title>C6S6</title>
<ellipse fill="white" stroke="black" cx="287" cy="-382" rx="36" ry="18"/>
<text text-anchor="middle" x="287" y="-378.3" font-family="Times,serif" font-size="14.00">C6S6</text>
</g>
<!-- C6S5&#45;&gt;C6S6 -->
<g id="edge10" class="edge">
<title>C6S5&#45;&gt;C6S6</title>
<path fill="none" stroke="darkgray" d="M287,-450.8C287,-439.16 287,-423.55 287,-410.24"/>
<polygon fill="darkgray" stroke="darkgray" points="290.5,-410.18 287,-400.18 283.5,-410.18 290.5,-410.18"/>
<text text-anchor="middle" x="295" y="-421.8" font-family="Times,serif" font-size="14.00" fill="darkgray">t4</text>
</g>
<!-- C6S1 -->
<g id="node17" class="node">
<title>C6S1</title>
<ellipse fill="white" stroke="black" cx="376" cy="-382" rx="36" ry="18"/>
<text text-anchor="middle" x="376" y="-378.3" font-family="Times,serif" font-size="14.00">C6S1</text>
</g>
<!-- C6S5&#45;&gt;C6S1 -->
<g id="edge11" class="edge">
<title>C6S5&#45;&gt;C6S1</title>
<path fill="none" stroke="darkgray" d="M302.91,-452.8C316.75,-439.59 336.98,-420.27 352.65,-405.3"/>
<polygon fill="darkgray" stroke="darkgray" points="355.11,-407.79 359.93,-398.35 350.28,-402.73 355.11,-407.79"/>
<text text-anchor="middle" x="353.5" y="-421.8" font-family="Times,serif" font-size="14.00" fill="darkgray">t5R2</text>
</g>
<!-- C6S6&#45;&gt;C5S7 -->
<g id="edge24" class="edge">
<title>C6S6&#45;&gt;C5S7</title>
<path fill="none" stroke="black" stroke-dasharray="5,2" d="M263.31,-368.06C255.63,-364.03 247.03,-359.68 239,-356 228.12,-351.01 224.28,-352.13 214,-346 201.01,-338.25 187.94,-327.76 177.34,-318.39"/>
<polygon fill="black" stroke="black" points="169.75,-311.51 180.18,-314.89 173.45,-314.87 177.16,-318.23 177.16,-318.23 177.16,-318.23 173.45,-314.87 174.13,-321.56 169.75,-311.51 169.75,-311.51"/>
<text text-anchor="middle" x="242.5" y="-334.8" font-family="Times,serif" font-size="14.00">O2 r2r1</text>
</g>
<!-- C6S1&#45;&gt;C3S2 -->
<g id="edge23" class="edge">
<title>C6S1&#45;&gt;C3S2</title>
<path fill="none" stroke="black" stroke-dasharray="5,2" d="M371.23,-364C369.35,-353.69 368.89,-340.7 375,-331 382.09,-319.74 393.92,-312.02 406.02,-306.76"/>
<polygon fill="black" stroke="black" points="415.69,-303.05 407.96,-310.84 411.02,-304.84 406.35,-306.63 406.35,-306.63 406.35,-306.63 411.02,-304.84 404.74,-302.43 415.69,-303.05 415.69,-303.05"/>
<text text-anchor="middle" x="411.5" y="-334.8" font-family="Times,serif" font-size="14.00">O2 r2r1r2</text>
</g>
<!-- C6S9&#45;&gt;C6S5 -->
<g id="edge12" class="edge">
<title>C6S9&#45;&gt;C6S5</title>
<path fill="none" stroke="darkgray" d="M287,-537.8C287,-526.16 287,-510.55 287,-497.24"/>
<polygon fill="darkgray" stroke="darkgray" points="290.5,-497.18 287,-487.18 283.5,-497.18 290.5,-497.18"/>
<text text-anchor="middle" x="304.5" y="-508.8" font-family="Times,serif" font-size="14.00" fill="darkgray">t2R1</text>
</g>
<!-- C7S9 -->
<g id="node19" class="node">
<title>C7S9</title>
<ellipse fill="white" stroke="black" cx="491" cy="-556" rx="36" ry="18"/>
<text text-anchor="middle" x="491" y="-552.3" font-family="Times,serif" font-size="14.00">C7S9</text>
</g>
<!-- C7S5 -->
<g id="node20" class="node">
<title>C7S5</title>
<ellipse fill="white" stroke="black" cx="491" cy="-469" rx="36" ry="18"/>
<text text-anchor="middle" x="491" y="-465.3" font-family="Times,serif" font-size="14.00">C7S5</text>
</g>
<!-- C7S9&#45;&gt;C7S5 -->
<g id="edge13" class="edge">
<title>C7S9&#45;&gt;C7S5</title>
<path fill="none" stroke="darkgray" d="M491,-537.8C491,-526.16 491,-510.55 491,-497.24"/>
<polygon fill="darkgray" stroke="darkgray" points="494.5,-497.18 491,-487.18 487.5,-497.18 494.5,-497.18"/>
<text text-anchor="middle" x="508.5" y="-508.8" font-family="Times,serif" font-size="14.00" fill="darkgray">t2R1</text>
</g>
<!-- C7S6 -->
<g id="node21" class="node">
<title>C7S6</title>
<ellipse fill="white" stroke="black" cx="472" cy="-382" rx="36" ry="18"/>
<text text-anchor="middle" x="472" y="-378.3" font-family="Times,serif" font-size="14.00">C7S6</text>
</g>
<!-- C7S5&#45;&gt;C7S6 -->
<g id="edge14" class="edge">
<title>C7S5&#45;&gt;C7S6</title>
<path fill="none" stroke="darkgray" d="M487.16,-450.8C484.55,-439.16 481.06,-423.55 478.09,-410.24"/>
<polygon fill="darkgray" stroke="darkgray" points="481.44,-409.17 475.84,-400.18 474.61,-410.7 481.44,-409.17"/>
<text text-anchor="middle" x="490" y="-421.8" font-family="Times,serif" font-size="14.00" fill="darkgray">t4</text>
</g>
<!-- C7S1 -->
<g id="node22" class="node">
<title>C7S1</title>
<ellipse fill="white" stroke="black" cx="561" cy="-382" rx="36" ry="18"/>
<text text-anchor="middle" x="561" y="-378.3" font-family="Times,serif" font-size="14.00">C7S1</text>
</g>
<!-- C7S5&#45;&gt;C7S1 -->
<g id="edge15" class="edge">
<title>C7S5&#45;&gt;C7S1</title>
<path fill="none" stroke="darkgray" d="M504.17,-452.01C514.63,-439.31 529.42,-421.34 541.3,-406.93"/>
<polygon fill="darkgray" stroke="darkgray" points="544.24,-408.86 547.89,-398.92 538.83,-404.41 544.24,-408.86"/>
<text text-anchor="middle" x="547.5" y="-421.8" font-family="Times,serif" font-size="14.00" fill="darkgray">t5R2</text>
</g>
<!-- C7S6&#45;&gt;C5S7 -->
<g id="edge26" class="edge">
<title>C7S6&#45;&gt;C5S7</title>
<path fill="none" stroke="black" stroke-dasharray="5,2" d="M468.29,-363.85C464.94,-352.66 458.81,-338.73 448,-331 447.37,-330.55 280.6,-310.89 198.54,-301.23"/>
<polygon fill="black" stroke="black" points="188.5,-300.05 198.96,-296.75 193.47,-300.64 198.43,-301.22 198.43,-301.22 198.43,-301.22 193.47,-300.64 197.91,-305.69 188.5,-300.05 188.5,-300.05"/>
<text text-anchor="middle" x="480.5" y="-334.8" font-family="Times,serif" font-size="14.00">O2 r1</text>
</g>
<!-- C7S1&#45;&gt;C3S2 -->
<g id="edge25" class="edge">
<title>C7S1&#45;&gt;C3S2</title>
<path fill="none" stroke="black" stroke-dasharray="5,2" d="M547.48,-364.92C538.18,-354.46 525.18,-340.98 512,-331 503.05,-324.22 492.62,-317.94 482.81,-312.63"/>
<polygon fill="black" stroke="black" points="473.67,-307.84 484.61,-308.49 478.1,-310.16 482.53,-312.48 482.53,-312.48 482.53,-312.48 478.1,-310.16 480.44,-316.46 473.67,-307.84 473.67,-307.84"/>
<text text-anchor="middle" x="556.5" y="-334.8" font-family="Times,serif" font-size="14.00">O2 r1r2</text>
</g>
</g>
</svg>
