<?xml version="1.0" encoding="UTF-8" standalone="no"?>
<!DOCTYPE svg PUBLIC "-//W3C//DTD SVG 1.1//EN"
 "http://www.w3.org/Graphics/SVG/1.1/DTD/svg11.dtd">
<!-- Generated by graphviz version 2.43.0 (0)
 -->
<!-- Title: EXPinput/e Pages: 1 -->
<svg width="701pt" height="816pt"
 viewBox="0.00 0.00 701.00 816.00" xmlns="http://www.w3.org/2000/svg" xmlns:xlink="http://www.w3.org/1999/xlink">
<g id="graph0" class="graph" transform="scale(1 1) rotate(0) translate(4 812)">
<title>EXPinput/e</title>
<polygon fill="white" stroke="transparent" points="-4,4 -4,-812 697,-812 697,4 -4,4"/>
<g id="clust1" class="cluster">
<title>cluster0</title>
<path fill="#eaffee" stroke="#eaffee" d="M20,-501C20,-501 74,-501 74,-501 80,-501 86,-507 86,-513 86,-513 86,-572 86,-572 86,-578 80,-584 74,-584 74,-584 20,-584 20,-584 14,-584 8,-578 8,-572 8,-572 8,-513 8,-513 8,-507 14,-501 20,-501"/>
<text text-anchor="middle" x="47" y="-568.8" font-family="Times,serif" font-size="14.00" fill="#b2ccbb">C0</text>
</g>
<g id="clust2" class="cluster">
<title>cluster1</title>
<path fill="#eaffee" stroke="#eaffee" d="M24,-393C24,-393 70,-393 70,-393 76,-393 82,-399 82,-405 82,-405 82,-456 82,-456 82,-462 76,-468 70,-468 70,-468 24,-468 24,-468 18,-468 12,-462 12,-456 12,-456 12,-405 12,-405 12,-399 18,-393 24,-393"/>
<text text-anchor="middle" x="47" y="-452.8" font-family="Times,serif" font-size="14.00" fill="#b2ccbb">C1</text>
</g>
<g id="clust3" class="cluster">
<title>cluster2</title>
<path fill="#eaffee" stroke="#eaffee" d="M149,-8C149,-8 283,-8 283,-8 289,-8 295,-14 295,-20 295,-20 295,-348 295,-348 295,-354 289,-360 283,-360 283,-360 149,-360 149,-360 143,-360 137,-354 137,-348 137,-348 137,-20 137,-20 137,-14 143,-8 149,-8"/>
<text text-anchor="middle" x="216" y="-344.8" font-family="Times,serif" font-size="14.00" fill="#b2ccbb">C2</text>
</g>
<g id="clust4" class="cluster">
<title>cluster3</title>
<path fill="#eaffee" stroke="#eaffee" d="M149,-393C149,-393 267,-393 267,-393 273,-393 279,-399 279,-405 279,-405 279,-568 279,-568 279,-574 273,-580 267,-580 267,-580 149,-580 149,-580 143,-580 137,-574 137,-568 137,-568 137,-405 137,-405 137,-399 143,-393 149,-393"/>
<text text-anchor="middle" x="208" y="-564.8" font-family="Times,serif" font-size="14.00" fill="#b2ccbb">C3</text>
</g>
<g id="clust5" class="cluster">
<title>cluster4</title>
<path fill="#eaffee" stroke="#eaffee" d="M390,-285C390,-285 436,-285 436,-285 442,-285 448,-291 448,-297 448,-297 448,-348 448,-348 448,-354 442,-360 436,-360 436,-360 390,-360 390,-360 384,-360 378,-354 378,-348 378,-348 378,-297 378,-297 378,-291 384,-285 390,-285"/>
<text text-anchor="middle" x="413" y="-344.8" font-family="Times,serif" font-size="14.00" fill="#b2ccbb">C4</text>
</g>
<g id="clust6" class="cluster">
<title>cluster5</title>
<path fill="#eaffee" stroke="#eaffee" d="M299,-393C299,-393 417,-393 417,-393 423,-393 429,-399 429,-405 429,-405 429,-788 429,-788 429,-794 423,-800 417,-800 417,-800 299,-800 299,-800 293,-800 287,-794 287,-788 287,-788 287,-405 287,-405 287,-399 293,-393 299,-393"/>
<text text-anchor="middle" x="358" y="-784.8" font-family="Times,serif" font-size="14.00" fill="#b2ccbb">C5</text>
</g>
<g id="clust7" class="cluster">
<title>cluster6</title>
<path fill="#eaffee" stroke="#eaffee" d="M502,-393C502,-393 620,-393 620,-393 626,-393 632,-399 632,-405 632,-405 632,-680 632,-680 632,-686 626,-692 620,-692 620,-692 502,-692 502,-692 496,-692 490,-686 490,-680 490,-680 490,-405 490,-405 490,-399 496,-393 502,-393"/>
<text text-anchor="middle" x="561" y="-676.8" font-family="Times,serif" font-size="14.00" fill="#b2ccbb">C6</text>
</g>
<!-- C0S0 -->
<g id="node1" class="node">
<title>C0S0</title>
<polygon fill="white" stroke="black" points="74,-523.54 74,-538.46 58.18,-549 35.82,-549 20,-538.46 20,-523.54 35.82,-513 58.18,-513 74,-523.54"/>
<polygon fill="none" stroke="black" points="78,-521.4 78,-540.6 59.39,-553 34.61,-553 16,-540.6 16,-521.4 34.61,-509 59.39,-509 78,-521.4"/>
<text text-anchor="middle" x="47" y="-527.3" font-family="Times,serif" font-size="14.00">0</text>
</g>
<!-- C1S1 -->
<g id="node2" class="node">
<title>C1S1</title>
<polygon fill="white" stroke="black" points="74,-411.54 74,-426.46 58.18,-437 35.82,-437 20,-426.46 20,-411.54 35.82,-401 58.18,-401 74,-411.54"/>
<text text-anchor="middle" x="47" y="-415.3" font-family="Times,serif" font-size="14.00">1</text>
</g>
<!-- C0S0&#45;&gt;C1S1 -->
<g id="edge16" class="edge">
<title>C0S0&#45;&gt;C1S1</title>
<path fill="none" stroke="black" stroke-dasharray="5,2" d="M47,-508.79C47,-491.28 47,-466.3 47,-447.3"/>
<polygon fill="black" stroke="black" points="47,-437.17 51.5,-447.17 47,-442.17 47,-447.17 47,-447.17 47,-447.17 47,-442.17 42.5,-447.17 47,-437.17 47,-437.17"/>
<text text-anchor="middle" x="63.5" y="-479.8" font-family="Times,serif" font-size="14.00">O3 ε</text>
</g>
<!-- C2S2 -->
<g id="node3" class="node">
<title>C2S2</title>
<ellipse fill="white" stroke="black" cx="215" cy="-311" rx="27" ry="18"/>
<text text-anchor="middle" x="215" y="-307.3" font-family="Times,serif" font-size="14.00">2</text>
</g>
<!-- C1S1&#45;&gt;C2S2 -->
<g id="edge17" class="edge">
<title>C1S1&#45;&gt;C2S2</title>
<path fill="none" stroke="black" stroke-dasharray="5,2" d="M63.45,-404.49C78.18,-393.08 100.82,-377.17 123,-368 139.35,-361.24 146.22,-368 162,-360 174.28,-353.77 185.87,-343.93 195.07,-334.77"/>
<polygon fill="black" stroke="black" points="202.18,-327.34 198.52,-337.67 198.73,-330.95 195.27,-334.56 195.27,-334.56 195.27,-334.56 198.73,-330.95 192.02,-331.45 202.18,-327.34 202.18,-327.34"/>
<text text-anchor="middle" x="139.5" y="-371.8" font-family="Times,serif" font-size="14.00">O2 ε</text>
</g>
<!-- C2S3 -->
<g id="node5" class="node">
<title>C2S3</title>
<polygon fill="white" stroke="black" points="203,-212.54 203,-227.46 187.18,-238 164.82,-238 149,-227.46 149,-212.54 164.82,-202 187.18,-202 203,-212.54"/>
<polygon fill="none" stroke="black" points="207,-210.4 207,-229.6 188.39,-242 163.61,-242 145,-229.6 145,-210.4 163.61,-198 188.39,-198 207,-210.4"/>
<text text-anchor="middle" x="176" y="-216.3" font-family="Times,serif" font-size="14.00">3</text>
</g>
<!-- C2S2&#45;&gt;C2S3 -->
<g id="edge1" class="edge">
<title>C2S2&#45;&gt;C2S3</title>
<path fill="none" stroke="darkgray" d="M207.66,-293.26C202.5,-281.48 195.44,-265.37 189.3,-251.35"/>
<polygon fill="darkgray" stroke="darkgray" points="192.45,-249.82 185.23,-242.06 186.04,-252.63 192.45,-249.82"/>
<text text-anchor="middle" x="206" y="-263.8" font-family="Times,serif" font-size="14.00" fill="darkgray">t4</text>
</g>
<!-- C2S10 -->
<g id="node7" class="node">
<title>C2S10</title>
<polygon fill="white" stroke="black" points="283,-212.54 283,-227.46 267.18,-238 244.82,-238 229,-227.46 229,-212.54 244.82,-202 267.18,-202 283,-212.54"/>
<polygon fill="none" stroke="black" points="287,-210.4 287,-229.6 268.39,-242 243.61,-242 225,-229.6 225,-210.4 243.61,-198 268.39,-198 287,-210.4"/>
<text text-anchor="middle" x="256" y="-216.3" font-family="Times,serif" font-size="14.00">10</text>
</g>
<!-- C2S2&#45;&gt;C2S10 -->
<g id="edge2" class="edge">
<title>C2S2&#45;&gt;C2S10</title>
<path fill="none" stroke="darkgray" d="M222.52,-293.68C227.93,-281.93 235.39,-265.74 241.89,-251.62"/>
<polygon fill="darkgray" stroke="darkgray" points="245.2,-252.81 246.21,-242.26 238.84,-249.88 245.2,-252.81"/>
<text text-anchor="middle" x="254.5" y="-263.8" font-family="Times,serif" font-size="14.00" fill="darkgray">t5R2</text>
</g>
<!-- C2S0 -->
<g id="node4" class="node">
<title>C2S0</title>
<polygon fill="white" stroke="black" points="203,-30.54 203,-45.46 187.18,-56 164.82,-56 149,-45.46 149,-30.54 164.82,-20 187.18,-20 203,-30.54"/>
<polygon fill="none" stroke="black" points="207,-28.4 207,-47.6 188.39,-60 163.61,-60 145,-47.6 145,-28.4 163.61,-16 188.39,-16 207,-28.4"/>
<text text-anchor="middle" x="176" y="-34.3" font-family="Times,serif" font-size="14.00">0</text>
</g>
<!-- C2S0&#45;&gt;C1S1 -->
<g id="edge18" class="edge">
<title>C2S0&#45;&gt;C1S1</title>
<path fill="none" stroke="black" stroke-dasharray="5,2" d="M144.75,-44.03C102.4,-52.84 32,-75.39 32,-128 32,-312 32,-312 32,-312 32,-339.03 36.84,-369.56 41.02,-390.89"/>
<polygon fill="black" stroke="black" points="43.06,-400.85 36.65,-391.95 42.06,-395.95 41.06,-391.05 41.06,-391.05 41.06,-391.05 42.06,-395.95 45.46,-390.15 43.06,-400.85 43.06,-400.85"/>
<text text-anchor="middle" x="60.5" y="-216.3" font-family="Times,serif" font-size="14.00">O3 r2r1</text>
</g>
<!-- C2S4 -->
<g id="node6" class="node">
<title>C2S4</title>
<polygon fill="white" stroke="black" points="200,-121.54 200,-136.46 184.18,-147 161.82,-147 146,-136.46 146,-121.54 161.82,-111 184.18,-111 200,-121.54"/>
<text text-anchor="middle" x="173" y="-125.3" font-family="Times,serif" font-size="14.00">4</text>
</g>
<!-- C2S3&#45;&gt;C2S4 -->
<g id="edge3" class="edge">
<title>C2S3&#45;&gt;C2S4</title>
<path fill="none" stroke="darkgray" d="M175.29,-197.91C174.88,-185.78 174.36,-170.41 173.92,-157.36"/>
<polygon fill="darkgray" stroke="darkgray" points="177.41,-156.94 173.58,-147.07 170.41,-157.18 177.41,-156.94"/>
<text text-anchor="middle" x="192.5" y="-168.8" font-family="Times,serif" font-size="14.00" fill="darkgray">t2R1</text>
</g>
<!-- C6S9 -->
<g id="node19" class="node">
<title>C6S9</title>
<ellipse fill="white" stroke="black" cx="593" cy="-643" rx="27" ry="18"/>
<text text-anchor="middle" x="593" y="-639.3" font-family="Times,serif" font-size="14.00">9</text>
</g>
<!-- C2S3&#45;&gt;C6S9 -->
<g id="edge19" class="edge">
<title>C2S3&#45;&gt;C6S9</title>
<path fill="none" stroke="black" stroke-dasharray="5,2" d="M199.55,-235C204.82,-237.67 210.49,-240.19 216,-242 310.82,-273.18 660,-210.18 660,-310 660,-532 660,-532 660,-532 660,-567.9 650.18,-577.31 630,-607 626.5,-612.15 622.12,-617.12 617.61,-621.62"/>
<polygon fill="black" stroke="black" points="610.04,-628.68 614.28,-618.57 613.7,-625.27 617.35,-621.86 617.35,-621.86 617.35,-621.86 613.7,-625.27 620.42,-625.15 610.04,-628.68 610.04,-628.68"/>
<text text-anchor="middle" x="676.5" y="-415.3" font-family="Times,serif" font-size="14.00">O3 ε</text>
</g>
<!-- C3S5 -->
<g id="node10" class="node">
<title>C3S5</title>
<ellipse fill="white" stroke="black" cx="172" cy="-531" rx="27" ry="18"/>
<text text-anchor="middle" x="172" y="-527.3" font-family="Times,serif" font-size="14.00">5</text>
</g>
<!-- C2S4&#45;&gt;C3S5 -->
<g id="edge20" class="edge">
<title>C2S4&#45;&gt;C3S5</title>
<path fill="none" stroke="black" stroke-dasharray="5,2" d="M157.1,-144.03C140.55,-160.27 117,-188.7 117,-219 117,-420 117,-420 117,-420 117,-452.84 136.85,-485.93 152.7,-507.11"/>
<polygon fill="black" stroke="black" points="158.97,-515.15 149.27,-510.03 155.89,-511.21 152.82,-507.26 152.82,-507.26 152.82,-507.26 155.89,-511.21 156.38,-504.5 158.97,-515.15 158.97,-515.15"/>
<text text-anchor="middle" x="137.5" y="-307.3" font-family="Times,serif" font-size="14.00">O3 r1</text>
</g>
<!-- C2S11 -->
<g id="node8" class="node">
<title>C2S11</title>
<ellipse fill="white" stroke="black" cx="252" cy="-129" rx="27" ry="18"/>
<text text-anchor="middle" x="252" y="-125.3" font-family="Times,serif" font-size="14.00">11</text>
</g>
<!-- C2S10&#45;&gt;C2S11 -->
<g id="edge4" class="edge">
<title>C2S10&#45;&gt;C2S11</title>
<path fill="none" stroke="darkgray" d="M255.05,-197.91C254.51,-185.78 253.82,-170.41 253.23,-157.36"/>
<polygon fill="darkgray" stroke="darkgray" points="256.71,-156.9 252.77,-147.07 249.72,-157.21 256.71,-156.9"/>
<text text-anchor="middle" x="271.5" y="-168.8" font-family="Times,serif" font-size="14.00" fill="darkgray">t2R1</text>
</g>
<!-- C2S11&#45;&gt;C2S0 -->
<g id="edge5" class="edge">
<title>C2S11&#45;&gt;C2S0</title>
<path fill="none" stroke="darkgray" d="M239.11,-112.9C228.07,-99.98 211.92,-81.07 198.72,-65.61"/>
<polygon fill="darkgray" stroke="darkgray" points="201.29,-63.23 192.13,-57.89 195.97,-67.77 201.29,-63.23"/>
<text text-anchor="middle" x="228" y="-81.8" font-family="Times,serif" font-size="14.00" fill="darkgray">t4</text>
</g>
<!-- C2S12 -->
<g id="node9" class="node">
<title>C2S12</title>
<polygon fill="white" stroke="black" points="283,-30.54 283,-45.46 267.18,-56 244.82,-56 229,-45.46 229,-30.54 244.82,-20 267.18,-20 283,-30.54"/>
<polygon fill="none" stroke="black" points="287,-28.4 287,-47.6 268.39,-60 243.61,-60 225,-47.6 225,-28.4 243.61,-16 268.39,-16 287,-28.4"/>
<text text-anchor="middle" x="256" y="-34.3" font-family="Times,serif" font-size="14.00">12</text>
</g>
<!-- C2S11&#45;&gt;C2S12 -->
<g id="edge6" class="edge">
<title>C2S11&#45;&gt;C2S12</title>
<path fill="none" stroke="darkgray" d="M252.77,-110.84C253.28,-99.44 253.97,-84.13 254.58,-70.58"/>
<polygon fill="darkgray" stroke="darkgray" points="258.1,-70.34 255.05,-60.19 251.1,-70.02 258.1,-70.34"/>
<text text-anchor="middle" x="271.5" y="-81.8" font-family="Times,serif" font-size="14.00" fill="darkgray">t5R2</text>
</g>
<!-- C3S1 -->
<g id="node11" class="node">
<title>C3S1</title>
<polygon fill="white" stroke="black" points="199,-411.54 199,-426.46 183.18,-437 160.82,-437 145,-426.46 145,-411.54 160.82,-401 183.18,-401 199,-411.54"/>
<text text-anchor="middle" x="172" y="-415.3" font-family="Times,serif" font-size="14.00">1</text>
</g>
<!-- C3S5&#45;&gt;C3S1 -->
<g id="edge8" class="edge">
<title>C3S5&#45;&gt;C3S1</title>
<path fill="none" stroke="darkgray" d="M172,-512.81C172,-495.21 172,-467.61 172,-447.07"/>
<polygon fill="darkgray" stroke="darkgray" points="175.5,-447.07 172,-437.07 168.5,-447.07 175.5,-447.07"/>
<text text-anchor="middle" x="189.5" y="-479.8" font-family="Times,serif" font-size="14.00" fill="darkgray">t5R2</text>
</g>
<!-- C3S6 -->
<g id="node12" class="node">
<title>C3S6</title>
<polygon fill="white" stroke="black" points="271,-411.54 271,-426.46 255.18,-437 232.82,-437 217,-426.46 217,-411.54 232.82,-401 255.18,-401 271,-411.54"/>
<text text-anchor="middle" x="244" y="-415.3" font-family="Times,serif" font-size="14.00">6</text>
</g>
<!-- C3S5&#45;&gt;C3S6 -->
<g id="edge7" class="edge">
<title>C3S5&#45;&gt;C3S6</title>
<path fill="none" stroke="darkgray" d="M188.14,-516.29C195.73,-509.27 204.52,-500.26 211,-491 220.53,-477.38 228.48,-460.56 234.2,-446.72"/>
<polygon fill="darkgray" stroke="darkgray" points="237.52,-447.84 237.95,-437.25 231.01,-445.26 237.52,-447.84"/>
<text text-anchor="middle" x="228" y="-479.8" font-family="Times,serif" font-size="14.00" fill="darkgray">t4</text>
</g>
<!-- C3S1&#45;&gt;C2S2 -->
<g id="edge21" class="edge">
<title>C3S1&#45;&gt;C2S2</title>
<path fill="none" stroke="black" stroke-dasharray="5,2" d="M163.86,-400.9C160.31,-391.03 157.81,-378.53 162,-368 167.7,-353.69 178.98,-340.93 189.68,-331.22"/>
<polygon fill="black" stroke="black" points="197.28,-324.71 192.61,-334.63 193.48,-327.96 189.68,-331.21 189.68,-331.21 189.68,-331.21 193.48,-327.96 186.75,-327.8 197.28,-324.71 197.28,-324.71"/>
<text text-anchor="middle" x="182.5" y="-371.8" font-family="Times,serif" font-size="14.00">O2 r2</text>
</g>
<!-- C4S7 -->
<g id="node13" class="node">
<title>C4S7</title>
<polygon fill="white" stroke="black" points="440,-303.54 440,-318.46 424.18,-329 401.82,-329 386,-318.46 386,-303.54 401.82,-293 424.18,-293 440,-303.54"/>
<text text-anchor="middle" x="413" y="-307.3" font-family="Times,serif" font-size="14.00">7</text>
</g>
<!-- C3S6&#45;&gt;C4S7 -->
<g id="edge22" class="edge">
<title>C3S6&#45;&gt;C4S7</title>
<path fill="none" stroke="black" stroke-dasharray="5,2" d="M263.01,-405.74C269.36,-401.67 276.47,-397.12 283,-393 292.83,-386.79 349.89,-351.27 385.07,-329.38"/>
<polygon fill="black" stroke="black" points="393.93,-323.87 387.81,-332.97 389.68,-326.51 385.44,-329.15 385.44,-329.15 385.44,-329.15 389.68,-326.51 383.06,-325.33 393.93,-323.87 393.93,-323.87"/>
<text text-anchor="middle" x="336.5" y="-371.8" font-family="Times,serif" font-size="14.00">O2 ε</text>
</g>
<!-- C5S8 -->
<g id="node14" class="node">
<title>C5S8</title>
<ellipse fill="white" stroke="black" cx="390" cy="-751" rx="27" ry="18"/>
<text text-anchor="middle" x="390" y="-747.3" font-family="Times,serif" font-size="14.00">8</text>
</g>
<!-- C4S7&#45;&gt;C5S8 -->
<g id="edge23" class="edge">
<title>C4S7&#45;&gt;C5S8</title>
<path fill="none" stroke="black" stroke-dasharray="5,2" d="M422.65,-329.03C433.31,-349.48 449,-385.15 449,-418 449,-644 449,-644 449,-644 449,-677.04 444.46,-686.95 427,-715 423.71,-720.29 419.42,-725.32 414.94,-729.83"/>
<polygon fill="black" stroke="black" points="407.36,-736.89 411.61,-726.78 411.02,-733.48 414.68,-730.08 414.68,-730.08 414.68,-730.08 411.02,-733.48 417.75,-733.37 407.36,-736.89 407.36,-736.89"/>
<text text-anchor="middle" x="465.5" y="-527.3" font-family="Times,serif" font-size="14.00">O3 ε</text>
</g>
<!-- C5S9 -->
<g id="node18" class="node">
<title>C5S9</title>
<ellipse fill="white" stroke="black" cx="386" cy="-643" rx="27" ry="18"/>
<text text-anchor="middle" x="386" y="-639.3" font-family="Times,serif" font-size="14.00">9</text>
</g>
<!-- C5S8&#45;&gt;C5S9 -->
<g id="edge9" class="edge">
<title>C5S8&#45;&gt;C5S9</title>
<path fill="none" stroke="darkgray" d="M389.36,-732.97C388.73,-716.38 387.77,-690.88 387.04,-671.43"/>
<polygon fill="darkgray" stroke="darkgray" points="390.53,-671.2 386.65,-661.34 383.53,-671.47 390.53,-671.2"/>
<text text-anchor="middle" x="405.5" y="-703.8" font-family="Times,serif" font-size="14.00" fill="darkgray">t5R2</text>
</g>
<!-- C5S5 -->
<g id="node15" class="node">
<title>C5S5</title>
<ellipse fill="white" stroke="black" cx="386" cy="-531" rx="27" ry="18"/>
<text text-anchor="middle" x="386" y="-527.3" font-family="Times,serif" font-size="14.00">5</text>
</g>
<!-- C5S6 -->
<g id="node16" class="node">
<title>C5S6</title>
<polygon fill="white" stroke="black" points="421,-411.54 421,-426.46 405.18,-437 382.82,-437 367,-426.46 367,-411.54 382.82,-401 405.18,-401 421,-411.54"/>
<text text-anchor="middle" x="394" y="-415.3" font-family="Times,serif" font-size="14.00">6</text>
</g>
<!-- C5S5&#45;&gt;C5S6 -->
<g id="edge10" class="edge">
<title>C5S5&#45;&gt;C5S6</title>
<path fill="none" stroke="darkgray" d="M387.25,-512.81C388.53,-495.21 390.54,-467.61 392.03,-447.07"/>
<polygon fill="darkgray" stroke="darkgray" points="395.52,-447.29 392.76,-437.07 388.54,-446.79 395.52,-447.29"/>
<text text-anchor="middle" x="397" y="-479.8" font-family="Times,serif" font-size="14.00" fill="darkgray">t4</text>
</g>
<!-- C5S1 -->
<g id="node17" class="node">
<title>C5S1</title>
<polygon fill="white" stroke="black" points="349,-411.54 349,-426.46 333.18,-437 310.82,-437 295,-426.46 295,-411.54 310.82,-401 333.18,-401 349,-411.54"/>
<text text-anchor="middle" x="322" y="-415.3" font-family="Times,serif" font-size="14.00">1</text>
</g>
<!-- C5S5&#45;&gt;C5S1 -->
<g id="edge11" class="edge">
<title>C5S5&#45;&gt;C5S1</title>
<path fill="none" stroke="darkgray" d="M370.57,-515.89C363.61,-508.91 355.68,-500.05 350,-491 341.47,-477.41 334.74,-460.78 330.02,-447.04"/>
<polygon fill="darkgray" stroke="darkgray" points="333.24,-445.61 326.81,-437.19 326.58,-447.78 333.24,-445.61"/>
<text text-anchor="middle" x="367.5" y="-479.8" font-family="Times,serif" font-size="14.00" fill="darkgray">t5R2</text>
</g>
<!-- C5S6&#45;&gt;C4S7 -->
<g id="edge25" class="edge">
<title>C5S6&#45;&gt;C4S7</title>
<path fill="none" stroke="black" stroke-dasharray="5,2" d="M383.36,-400.95C378.66,-391.32 374.83,-379.04 378,-368 381.21,-356.81 387.38,-345.68 393.66,-336.34"/>
<polygon fill="black" stroke="black" points="399.62,-327.97 397.48,-338.73 396.71,-332.04 393.81,-336.12 393.81,-336.12 393.81,-336.12 396.71,-332.04 390.15,-333.51 399.62,-327.97 399.62,-327.97"/>
<text text-anchor="middle" x="406.5" y="-371.8" font-family="Times,serif" font-size="14.00">O2 r2r1</text>
</g>
<!-- C5S1&#45;&gt;C2S2 -->
<g id="edge24" class="edge">
<title>C5S1&#45;&gt;C2S2</title>
<path fill="none" stroke="black" stroke-dasharray="5,2" d="M304.55,-404.72C298.08,-400.38 290.49,-395.92 283,-393 259.04,-383.65 244,-401.37 226,-383 214.9,-371.67 212.11,-354.09 212.12,-339.25"/>
<polygon fill="black" stroke="black" points="212.54,-329.06 216.62,-339.24 212.33,-334.06 212.13,-339.05 212.13,-339.05 212.13,-339.05 212.33,-334.06 207.63,-338.87 212.54,-329.06 212.54,-329.06"/>
<text text-anchor="middle" x="262.5" y="-371.8" font-family="Times,serif" font-size="14.00">O2 r2r1r2</text>
</g>
<!-- C5S9&#45;&gt;C5S5 -->
<g id="edge12" class="edge">
<title>C5S9&#45;&gt;C5S5</title>
<path fill="none" stroke="darkgray" d="M386,-624.81C386,-607.21 386,-579.61 386,-559.07"/>
<polygon fill="darkgray" stroke="darkgray" points="389.5,-559.07 386,-549.07 382.5,-559.07 389.5,-559.07"/>
<text text-anchor="middle" x="403.5" y="-595.8" font-family="Times,serif" font-size="14.00" fill="darkgray">t2R1</text>
</g>
<!-- C6S5 -->
<g id="node20" class="node">
<title>C6S5</title>
<ellipse fill="white" stroke="black" cx="589" cy="-531" rx="27" ry="18"/>
<text text-anchor="middle" x="589" y="-527.3" font-family="Times,serif" font-size="14.00">5</text>
</g>
<!-- C6S9&#45;&gt;C6S5 -->
<g id="edge13" class="edge">
<title>C6S9&#45;&gt;C6S5</title>
<path fill="none" stroke="darkgray" d="M592.38,-624.81C591.74,-607.21 590.73,-579.61 589.98,-559.07"/>
<polygon fill="darkgray" stroke="darkgray" points="593.48,-558.93 589.62,-549.07 586.49,-559.19 593.48,-558.93"/>
<text text-anchor="middle" x="608.5" y="-595.8" font-family="Times,serif" font-size="14.00" fill="darkgray">t2R1</text>
</g>
<!-- C6S6 -->
<g id="node21" class="node">
<title>C6S6</title>
<polygon fill="white" stroke="black" points="624,-411.54 624,-426.46 608.18,-437 585.82,-437 570,-426.46 570,-411.54 585.82,-401 608.18,-401 624,-411.54"/>
<text text-anchor="middle" x="597" y="-415.3" font-family="Times,serif" font-size="14.00">6</text>
</g>
<!-- C6S5&#45;&gt;C6S6 -->
<g id="edge14" class="edge">
<title>C6S5&#45;&gt;C6S6</title>
<path fill="none" stroke="darkgray" d="M590.25,-512.81C591.53,-495.21 593.54,-467.61 595.03,-447.07"/>
<polygon fill="darkgray" stroke="darkgray" points="598.52,-447.29 595.76,-437.07 591.54,-446.79 598.52,-447.29"/>
<text text-anchor="middle" x="600" y="-479.8" font-family="Times,serif" font-size="14.00" fill="darkgray">t4</text>
</g>
<!-- C6S1 -->
<g id="node22" class="node">
<title>C6S1</title>
<polygon fill="white" stroke="black" points="552,-411.54 552,-426.46 536.18,-437 513.82,-437 498,-426.46 498,-411.54 513.82,-401 536.18,-401 552,-411.54"/>
<text text-anchor="middle" x="525" y="-415.3" font-family="Times,serif" font-size="14.00">1</text>
</g>
<!-- C6S5&#45;&gt;C6S1 -->
<g id="edge15" class="edge">
<title>C6S5&#45;&gt;C6S1</title>
<path fill="none" stroke="darkgray" d="M573.57,-515.89C566.61,-508.91 558.68,-500.05 553,-491 544.47,-477.41 537.74,-460.78 533.02,-447.04"/>
<polygon fill="darkgray" stroke="darkgray" points="536.24,-445.61 529.81,-437.19 529.58,-447.78 536.24,-445.61"/>
<text text-anchor="middle" x="570.5" y="-479.8" font-family="Times,serif" font-size="14.00" fill="darkgray">t5R2</text>
</g>
<!-- C6S6&#45;&gt;C4S7 -->
<g id="edge27" class="edge">
<title>C6S6&#45;&gt;C4S7</title>
<path fill="none" stroke="black" stroke-dasharray="5,2" d="M585.19,-401.34C576.9,-390.65 565.01,-377.1 552,-368 520.44,-345.92 478.9,-330.65 449.47,-321.7"/>
<polygon fill="black" stroke="black" points="439.6,-318.79 450.47,-317.3 444.4,-320.2 449.2,-321.62 449.2,-321.62 449.2,-321.62 444.4,-320.2 447.93,-325.93 439.6,-318.79 439.6,-318.79"/>
<text text-anchor="middle" x="588.5" y="-371.8" font-family="Times,serif" font-size="14.00">O2 r1</text>
</g>
<!-- C6S1&#45;&gt;C2S2 -->
<g id="edge26" class="edge">
<title>C6S1&#45;&gt;C2S2</title>
<path fill="none" stroke="black" stroke-dasharray="5,2" d="M507.57,-405.01C490.88,-393.28 464.54,-376.59 439,-368 411.41,-358.72 402.48,-366.01 374,-360 329.57,-350.63 279.65,-334.63 247.79,-323.7"/>
<polygon fill="black" stroke="black" points="238.11,-320.34 249.04,-319.37 242.84,-321.98 247.56,-323.62 247.56,-323.62 247.56,-323.62 242.84,-321.98 246.09,-327.87 238.11,-320.34 238.11,-320.34"/>
<text text-anchor="middle" x="499.5" y="-371.8" font-family="Times,serif" font-size="14.00">O2 r1r2</text>
</g>
</g>
</svg>
