<?xml version="1.0" encoding="UTF-8" standalone="no"?>
<!DOCTYPE svg PUBLIC "-//W3C//DTD SVG 1.1//EN"
 "http://www.w3.org/Graphics/SVG/1.1/DTD/svg11.dtd">
<!-- Generated by graphviz version 2.43.0 (0)
 -->
<!-- Title: EXPinput/e Pages: 1 -->
<svg width="664pt" height="816pt"
 viewBox="0.00 0.00 664.00 816.00" xmlns="http://www.w3.org/2000/svg" xmlns:xlink="http://www.w3.org/1999/xlink">
<g id="graph0" class="graph" transform="scale(1 1) rotate(0) translate(4 812)">
<title>EXPinput/e</title>
<polygon fill="white" stroke="transparent" points="-4,4 -4,-812 660,-812 660,4 -4,4"/>
<g id="clust1" class="cluster">
<title>cluster0</title>
<path fill="#eaffee" stroke="#eaffee" d="M47,-501C47,-501 101,-501 101,-501 107,-501 113,-507 113,-513 113,-513 113,-572 113,-572 113,-578 107,-584 101,-584 101,-584 47,-584 47,-584 41,-584 35,-578 35,-572 35,-572 35,-513 35,-513 35,-507 41,-501 47,-501"/>
<text text-anchor="middle" x="74" y="-568.8" font-family="Times,serif" font-size="14.00" fill="#b2ccbb">C0</text>
</g>
<g id="clust2" class="cluster">
<title>cluster1</title>
<path fill="#eaffee" stroke="#eaffee" d="M460,-285C460,-285 506,-285 506,-285 512,-285 518,-291 518,-297 518,-297 518,-348 518,-348 518,-354 512,-360 506,-360 506,-360 460,-360 460,-360 454,-360 448,-354 448,-348 448,-348 448,-297 448,-297 448,-291 454,-285 460,-285"/>
<text text-anchor="middle" x="483" y="-344.8" font-family="Times,serif" font-size="14.00" fill="#b2ccbb">C1</text>
</g>
<g id="clust3" class="cluster">
<title>cluster2</title>
<path fill="#eaffee" stroke="#eaffee" d="M133,-393C133,-393 251,-393 251,-393 257,-393 263,-399 263,-405 263,-405 263,-680 263,-680 263,-686 257,-692 251,-692 251,-692 133,-692 133,-692 127,-692 121,-686 121,-680 121,-680 121,-405 121,-405 121,-399 127,-393 133,-393"/>
<text text-anchor="middle" x="192" y="-676.8" font-family="Times,serif" font-size="14.00" fill="#b2ccbb">C2</text>
</g>
<g id="clust4" class="cluster">
<title>cluster3</title>
<path fill="#eaffee" stroke="#eaffee" d="M465,-393C465,-393 583,-393 583,-393 589,-393 595,-399 595,-405 595,-405 595,-788 595,-788 595,-794 589,-800 583,-800 583,-800 465,-800 465,-800 459,-800 453,-794 453,-788 453,-788 453,-405 453,-405 453,-399 459,-393 465,-393"/>
<text text-anchor="middle" x="524" y="-784.8" font-family="Times,serif" font-size="14.00" fill="#b2ccbb">C3</text>
</g>
<g id="clust5" class="cluster">
<title>cluster4</title>
<path fill="#eaffee" stroke="#eaffee" d="M117,-8C117,-8 251,-8 251,-8 257,-8 263,-14 263,-20 263,-20 263,-348 263,-348 263,-354 257,-360 251,-360 251,-360 117,-360 117,-360 111,-360 105,-354 105,-348 105,-348 105,-20 105,-20 105,-14 111,-8 117,-8"/>
<text text-anchor="middle" x="184" y="-344.8" font-family="Times,serif" font-size="14.00" fill="#b2ccbb">C4</text>
</g>
<g id="clust6" class="cluster">
<title>cluster5</title>
<path fill="#eaffee" stroke="#eaffee" d="M315,-393C315,-393 433,-393 433,-393 439,-393 445,-399 445,-405 445,-405 445,-568 445,-568 445,-574 439,-580 433,-580 433,-580 315,-580 315,-580 309,-580 303,-574 303,-568 303,-568 303,-405 303,-405 303,-399 309,-393 315,-393"/>
<text text-anchor="middle" x="374" y="-564.8" font-family="Times,serif" font-size="14.00" fill="#b2ccbb">C5</text>
</g>
<g id="clust7" class="cluster">
<title>cluster6</title>
<path fill="#eaffee" stroke="#eaffee" d="M55,-393C55,-393 101,-393 101,-393 107,-393 113,-399 113,-405 113,-405 113,-456 113,-456 113,-462 107,-468 101,-468 101,-468 55,-468 55,-468 49,-468 43,-462 43,-456 43,-456 43,-405 43,-405 43,-399 49,-393 55,-393"/>
<text text-anchor="middle" x="78" y="-452.8" font-family="Times,serif" font-size="14.00" fill="#b2ccbb">C6</text>
</g>
<!-- C0S0 -->
<g id="node1" class="node">
<title>C0S0</title>
<polygon fill="white" stroke="black" points="101,-523.54 101,-538.46 85.18,-549 62.82,-549 47,-538.46 47,-523.54 62.82,-513 85.18,-513 101,-523.54"/>
<polygon fill="none" stroke="black" points="105,-521.4 105,-540.6 86.39,-553 61.61,-553 43,-540.6 43,-521.4 61.61,-509 86.39,-509 105,-521.4"/>
<text text-anchor="middle" x="74" y="-527.3" font-family="Times,serif" font-size="14.00">0</text>
</g>
<!-- C6S1 -->
<g id="node24" class="node">
<title>C6S1</title>
<polygon fill="white" stroke="black" points="105,-411.54 105,-426.46 89.18,-437 66.82,-437 51,-426.46 51,-411.54 66.82,-401 89.18,-401 105,-411.54"/>
<text text-anchor="middle" x="78" y="-415.3" font-family="Times,serif" font-size="14.00">1</text>
</g>
<!-- C0S0&#45;&gt;C6S1 -->
<g id="edge18" class="edge">
<title>C0S0&#45;&gt;C6S1</title>
<path fill="none" stroke="black" stroke-dasharray="5,2" d="M74.77,-508.79C75.41,-491.28 76.32,-466.3 77.01,-447.3"/>
<polygon fill="black" stroke="black" points="77.38,-437.17 81.51,-447.33 77.19,-442.17 77.01,-447.17 77.01,-447.17 77.01,-447.17 77.19,-442.17 72.52,-447 77.38,-437.17 77.38,-437.17"/>
<text text-anchor="middle" x="91.5" y="-479.8" font-family="Times,serif" font-size="14.00">O3 ε</text>
</g>
<!-- C1S7 -->
<g id="node2" class="node">
<title>C1S7</title>
<polygon fill="white" stroke="black" points="510,-303.54 510,-318.46 494.18,-329 471.82,-329 456,-318.46 456,-303.54 471.82,-293 494.18,-293 510,-303.54"/>
<text text-anchor="middle" x="483" y="-307.3" font-family="Times,serif" font-size="14.00">7</text>
</g>
<!-- C3S8 -->
<g id="node8" class="node">
<title>C3S8</title>
<ellipse fill="white" stroke="black" cx="560" cy="-751" rx="27" ry="18"/>
<text text-anchor="middle" x="560" y="-747.3" font-family="Times,serif" font-size="14.00">8</text>
</g>
<!-- C1S7&#45;&gt;C3S8 -->
<g id="edge19" class="edge">
<title>C1S7&#45;&gt;C3S8</title>
<path fill="none" stroke="black" stroke-dasharray="5,2" d="M509.33,-318.92C549.89,-331.36 623,-361.6 623,-418 623,-644 623,-644 623,-644 623,-676.88 600.32,-708.47 582.17,-728.48"/>
<polygon fill="black" stroke="black" points="575.25,-735.81 578.84,-725.45 578.68,-732.17 582.12,-728.53 582.12,-728.53 582.12,-728.53 578.68,-732.17 585.39,-731.62 575.25,-735.81 575.25,-735.81"/>
<text text-anchor="middle" x="639.5" y="-527.3" font-family="Times,serif" font-size="14.00">O3 ε</text>
</g>
<!-- C2S1 -->
<g id="node3" class="node">
<title>C2S1</title>
<polygon fill="white" stroke="black" points="183,-411.54 183,-426.46 167.18,-437 144.82,-437 129,-426.46 129,-411.54 144.82,-401 167.18,-401 183,-411.54"/>
<text text-anchor="middle" x="156" y="-415.3" font-family="Times,serif" font-size="14.00">1</text>
</g>
<!-- C4S2 -->
<g id="node15" class="node">
<title>C4S2</title>
<ellipse fill="white" stroke="black" cx="191" cy="-311" rx="27" ry="18"/>
<text text-anchor="middle" x="191" y="-307.3" font-family="Times,serif" font-size="14.00">2</text>
</g>
<!-- C2S1&#45;&gt;C4S2 -->
<g id="edge20" class="edge">
<title>C2S1&#45;&gt;C4S2</title>
<path fill="none" stroke="black" stroke-dasharray="5,2" d="M159.46,-400.69C161.58,-390.98 164.54,-378.7 168,-368 171.26,-357.91 175.53,-347.07 179.5,-337.64"/>
<polygon fill="black" stroke="black" points="183.47,-328.41 183.65,-339.38 181.5,-333 179.52,-337.6 179.52,-337.6 179.52,-337.6 181.5,-333 175.38,-335.81 183.47,-328.41 183.47,-328.41"/>
<text text-anchor="middle" x="186.5" y="-371.8" font-family="Times,serif" font-size="14.00">O2 rf</text>
</g>
<!-- C2S5 -->
<g id="node4" class="node">
<title>C2S5</title>
<ellipse fill="white" stroke="black" cx="156" cy="-531" rx="27" ry="18"/>
<text text-anchor="middle" x="156" y="-527.3" font-family="Times,serif" font-size="14.00">5</text>
</g>
<!-- C2S5&#45;&gt;C2S1 -->
<g id="edge1" class="edge">
<title>C2S5&#45;&gt;C2S1</title>
<path fill="none" stroke="darkgray" d="M156,-512.81C156,-495.21 156,-467.61 156,-447.07"/>
<polygon fill="darkgray" stroke="darkgray" points="159.5,-447.07 156,-437.07 152.5,-447.07 159.5,-447.07"/>
<text text-anchor="middle" x="166.5" y="-479.8" font-family="Times,serif" font-size="14.00" fill="darkgray">t5f</text>
</g>
<!-- C2S6 -->
<g id="node5" class="node">
<title>C2S6</title>
<polygon fill="white" stroke="black" points="255,-411.54 255,-426.46 239.18,-437 216.82,-437 201,-426.46 201,-411.54 216.82,-401 239.18,-401 255,-411.54"/>
<text text-anchor="middle" x="228" y="-415.3" font-family="Times,serif" font-size="14.00">6</text>
</g>
<!-- C2S5&#45;&gt;C2S6 -->
<g id="edge2" class="edge">
<title>C2S5&#45;&gt;C2S6</title>
<path fill="none" stroke="darkgray" d="M166.32,-514.24C178.02,-496.36 197.28,-466.93 211.17,-445.71"/>
<polygon fill="darkgray" stroke="darkgray" points="214.21,-447.46 216.75,-437.18 208.35,-443.63 214.21,-447.46"/>
<text text-anchor="middle" x="197" y="-479.8" font-family="Times,serif" font-size="14.00" fill="darkgray">t4</text>
</g>
<!-- C2S6&#45;&gt;C1S7 -->
<g id="edge21" class="edge">
<title>C2S6&#45;&gt;C1S7</title>
<path fill="none" stroke="black" stroke-dasharray="5,2" d="M251.67,-409.2C270.1,-402.28 296.28,-392.28 319,-383 365.33,-364.07 418.39,-340.81 451.3,-326.19"/>
<polygon fill="black" stroke="black" points="460.84,-321.94 453.54,-330.12 456.27,-323.97 451.71,-326.01 451.71,-326.01 451.71,-326.01 456.27,-323.97 449.88,-321.9 460.84,-321.94 460.84,-321.94"/>
<text text-anchor="middle" x="366" y="-371.8" font-family="Times,serif" font-size="14.00">O2 r</text>
</g>
<!-- C2S11 -->
<g id="node6" class="node">
<title>C2S11</title>
<ellipse fill="white" stroke="black" cx="156" cy="-643" rx="27" ry="18"/>
<text text-anchor="middle" x="156" y="-639.3" font-family="Times,serif" font-size="14.00">11</text>
</g>
<!-- C2S11&#45;&gt;C2S5 -->
<g id="edge3" class="edge">
<title>C2S11&#45;&gt;C2S5</title>
<path fill="none" stroke="darkgray" d="M156,-624.81C156,-607.21 156,-579.61 156,-559.07"/>
<polygon fill="darkgray" stroke="darkgray" points="159.5,-559.07 156,-549.07 152.5,-559.07 159.5,-559.07"/>
<text text-anchor="middle" x="167" y="-595.8" font-family="Times,serif" font-size="14.00" fill="darkgray">t2r</text>
</g>
<!-- C3S9 -->
<g id="node7" class="node">
<title>C3S9</title>
<ellipse fill="white" stroke="black" cx="488" cy="-643" rx="27" ry="18"/>
<text text-anchor="middle" x="488" y="-639.3" font-family="Times,serif" font-size="14.00">9</text>
</g>
<!-- C3S10 -->
<g id="node11" class="node">
<title>C3S10</title>
<ellipse fill="white" stroke="black" cx="488" cy="-531" rx="27" ry="18"/>
<text text-anchor="middle" x="488" y="-527.3" font-family="Times,serif" font-size="14.00">10</text>
</g>
<!-- C3S9&#45;&gt;C3S10 -->
<g id="edge4" class="edge">
<title>C3S9&#45;&gt;C3S10</title>
<path fill="none" stroke="darkgray" d="M488,-624.81C488,-607.21 488,-579.61 488,-559.07"/>
<polygon fill="darkgray" stroke="darkgray" points="491.5,-559.07 488,-549.07 484.5,-559.07 491.5,-559.07"/>
<text text-anchor="middle" x="499" y="-595.8" font-family="Times,serif" font-size="14.00" fill="darkgray">t2r</text>
</g>
<!-- C3S8&#45;&gt;C3S9 -->
<g id="edge5" class="edge">
<title>C3S8&#45;&gt;C3S9</title>
<path fill="none" stroke="darkgray" d="M549.38,-734.36C537.52,-716.9 518.19,-688.44 504.39,-668.13"/>
<polygon fill="darkgray" stroke="darkgray" points="507.18,-666.01 498.67,-659.7 501.39,-669.94 507.18,-666.01"/>
<text text-anchor="middle" x="542" y="-703.8" font-family="Times,serif" font-size="14.00" fill="darkgray">t4</text>
</g>
<!-- C3S11 -->
<g id="node9" class="node">
<title>C3S11</title>
<ellipse fill="white" stroke="black" cx="560" cy="-643" rx="27" ry="18"/>
<text text-anchor="middle" x="560" y="-639.3" font-family="Times,serif" font-size="14.00">11</text>
</g>
<!-- C3S8&#45;&gt;C3S11 -->
<g id="edge6" class="edge">
<title>C3S8&#45;&gt;C3S11</title>
<path fill="none" stroke="darkgray" d="M560,-732.97C560,-716.38 560,-690.88 560,-671.43"/>
<polygon fill="darkgray" stroke="darkgray" points="563.5,-671.34 560,-661.34 556.5,-671.34 563.5,-671.34"/>
<text text-anchor="middle" x="570.5" y="-703.8" font-family="Times,serif" font-size="14.00" fill="darkgray">t5f</text>
</g>
<!-- C3S5 -->
<g id="node13" class="node">
<title>C3S5</title>
<ellipse fill="white" stroke="black" cx="560" cy="-531" rx="27" ry="18"/>
<text text-anchor="middle" x="560" y="-527.3" font-family="Times,serif" font-size="14.00">5</text>
</g>
<!-- C3S11&#45;&gt;C3S5 -->
<g id="edge7" class="edge">
<title>C3S11&#45;&gt;C3S5</title>
<path fill="none" stroke="darkgray" d="M560,-624.81C560,-607.21 560,-579.61 560,-559.07"/>
<polygon fill="darkgray" stroke="darkgray" points="563.5,-559.07 560,-549.07 556.5,-559.07 563.5,-559.07"/>
<text text-anchor="middle" x="571" y="-595.8" font-family="Times,serif" font-size="14.00" fill="darkgray">t2r</text>
</g>
<!-- C3S6 -->
<g id="node10" class="node">
<title>C3S6</title>
<polygon fill="white" stroke="black" points="587,-411.54 587,-426.46 571.18,-437 548.82,-437 533,-426.46 533,-411.54 548.82,-401 571.18,-401 587,-411.54"/>
<text text-anchor="middle" x="560" y="-415.3" font-family="Times,serif" font-size="14.00">6</text>
</g>
<!-- C3S6&#45;&gt;C1S7 -->
<g id="edge23" class="edge">
<title>C3S6&#45;&gt;C1S7</title>
<path fill="none" stroke="black" stroke-dasharray="5,2" d="M548.03,-401.31C541.04,-391.58 532.04,-379.08 524,-368 516.55,-357.74 508.3,-346.46 501.17,-336.73"/>
<polygon fill="black" stroke="black" points="495.23,-328.64 504.78,-334.04 498.19,-332.67 501.15,-336.7 501.15,-336.7 501.15,-336.7 498.19,-332.67 497.52,-339.36 495.23,-328.64 495.23,-328.64"/>
<text text-anchor="middle" x="551.5" y="-371.8" font-family="Times,serif" font-size="14.00">O2 fr</text>
</g>
<!-- C3S1 -->
<g id="node12" class="node">
<title>C3S1</title>
<polygon fill="white" stroke="black" points="515,-411.54 515,-426.46 499.18,-437 476.82,-437 461,-426.46 461,-411.54 476.82,-401 499.18,-401 515,-411.54"/>
<text text-anchor="middle" x="488" y="-415.3" font-family="Times,serif" font-size="14.00">1</text>
</g>
<!-- C3S1&#45;&gt;C4S2 -->
<g id="edge22" class="edge">
<title>C3S1&#45;&gt;C4S2</title>
<path fill="none" stroke="black" stroke-dasharray="5,2" d="M481.62,-400.92C476.36,-389.45 467.68,-375.16 455,-368 436.22,-357.39 281.47,-366.81 261,-360 243.68,-354.24 226.73,-342.81 213.85,-332.56"/>
<polygon fill="black" stroke="black" points="206.01,-326.06 216.58,-328.98 209.86,-329.25 213.71,-332.44 213.71,-332.44 213.71,-332.44 209.86,-329.25 210.84,-335.9 206.01,-326.06 206.01,-326.06"/>
<text text-anchor="middle" x="491.5" y="-371.8" font-family="Times,serif" font-size="14.00">O2 frf</text>
</g>
<!-- C3S5&#45;&gt;C3S6 -->
<g id="edge9" class="edge">
<title>C3S5&#45;&gt;C3S6</title>
<path fill="none" stroke="darkgray" d="M560,-512.81C560,-495.21 560,-467.61 560,-447.07"/>
<polygon fill="darkgray" stroke="darkgray" points="563.5,-447.07 560,-437.07 556.5,-447.07 563.5,-447.07"/>
<text text-anchor="middle" x="568" y="-479.8" font-family="Times,serif" font-size="14.00" fill="darkgray">t4</text>
</g>
<!-- C3S5&#45;&gt;C3S1 -->
<g id="edge8" class="edge">
<title>C3S5&#45;&gt;C3S1</title>
<path fill="none" stroke="darkgray" d="M549.68,-514.24C537.98,-496.36 518.72,-466.93 504.83,-445.71"/>
<polygon fill="darkgray" stroke="darkgray" points="507.65,-443.63 499.25,-437.18 501.79,-447.46 507.65,-443.63"/>
<text text-anchor="middle" x="542.5" y="-479.8" font-family="Times,serif" font-size="14.00" fill="darkgray">t5f</text>
</g>
<!-- C4S3 -->
<g id="node14" class="node">
<title>C4S3</title>
<polygon fill="white" stroke="black" points="251,-212.54 251,-227.46 235.18,-238 212.82,-238 197,-227.46 197,-212.54 212.82,-202 235.18,-202 251,-212.54"/>
<polygon fill="none" stroke="black" points="255,-210.4 255,-229.6 236.39,-242 211.61,-242 193,-229.6 193,-210.4 211.61,-198 236.39,-198 255,-210.4"/>
<text text-anchor="middle" x="224" y="-216.3" font-family="Times,serif" font-size="14.00">3</text>
</g>
<!-- C4S3&#45;&gt;C2S11 -->
<g id="edge25" class="edge">
<title>C4S3&#45;&gt;C2S11</title>
<path fill="none" stroke="black" stroke-dasharray="5,2" d="M199.71,-234.39C194.58,-237.04 189.16,-239.7 184,-242 104.35,-277.45 0,-222.82 0,-310 0,-532 0,-532 0,-532 0,-590.69 74.66,-620.82 120.68,-633.82"/>
<polygon fill="black" stroke="black" points="130.59,-636.48 119.76,-638.23 125.76,-635.18 120.93,-633.89 120.93,-633.89 120.93,-633.89 125.76,-635.18 122.1,-629.54 130.59,-636.48 130.59,-636.48"/>
<text text-anchor="middle" x="16.5" y="-415.3" font-family="Times,serif" font-size="14.00">O3 ε</text>
</g>
<!-- C4S4 -->
<g id="node17" class="node">
<title>C4S4</title>
<polygon fill="white" stroke="black" points="253,-121.54 253,-136.46 237.18,-147 214.82,-147 199,-136.46 199,-121.54 214.82,-111 237.18,-111 253,-121.54"/>
<text text-anchor="middle" x="226" y="-125.3" font-family="Times,serif" font-size="14.00">4</text>
</g>
<!-- C4S3&#45;&gt;C4S4 -->
<g id="edge10" class="edge">
<title>C4S3&#45;&gt;C4S4</title>
<path fill="none" stroke="darkgray" d="M224.47,-197.91C224.75,-185.78 225.09,-170.41 225.39,-157.36"/>
<polygon fill="darkgray" stroke="darkgray" points="228.89,-157.14 225.62,-147.07 221.89,-156.99 228.89,-157.14"/>
<text text-anchor="middle" x="236" y="-168.8" font-family="Times,serif" font-size="14.00" fill="darkgray">t2r</text>
</g>
<!-- C4S2&#45;&gt;C4S3 -->
<g id="edge11" class="edge">
<title>C4S2&#45;&gt;C4S3</title>
<path fill="none" stroke="darkgray" d="M197.21,-293.26C201.53,-281.59 207.43,-265.68 212.59,-251.76"/>
<polygon fill="darkgray" stroke="darkgray" points="215.99,-252.66 216.19,-242.06 209.43,-250.22 215.99,-252.66"/>
<text text-anchor="middle" x="217" y="-263.8" font-family="Times,serif" font-size="14.00" fill="darkgray">t4</text>
</g>
<!-- C4S12 -->
<g id="node16" class="node">
<title>C4S12</title>
<polygon fill="white" stroke="black" points="171,-212.54 171,-227.46 155.18,-238 132.82,-238 117,-227.46 117,-212.54 132.82,-202 155.18,-202 171,-212.54"/>
<polygon fill="none" stroke="black" points="175,-210.4 175,-229.6 156.39,-242 131.61,-242 113,-229.6 113,-210.4 131.61,-198 156.39,-198 175,-210.4"/>
<text text-anchor="middle" x="144" y="-216.3" font-family="Times,serif" font-size="14.00">12</text>
</g>
<!-- C4S2&#45;&gt;C4S12 -->
<g id="edge12" class="edge">
<title>C4S2&#45;&gt;C4S12</title>
<path fill="none" stroke="darkgray" d="M182.38,-293.68C176.12,-281.82 167.46,-265.43 159.96,-251.22"/>
<polygon fill="darkgray" stroke="darkgray" points="162.99,-249.47 155.23,-242.26 156.8,-252.74 162.99,-249.47"/>
<text text-anchor="middle" x="181.5" y="-263.8" font-family="Times,serif" font-size="14.00" fill="darkgray">t5f</text>
</g>
<!-- C4S13 -->
<g id="node19" class="node">
<title>C4S13</title>
<ellipse fill="white" stroke="black" cx="144" cy="-129" rx="27" ry="18"/>
<text text-anchor="middle" x="144" y="-125.3" font-family="Times,serif" font-size="14.00">13</text>
</g>
<!-- C4S12&#45;&gt;C4S13 -->
<g id="edge13" class="edge">
<title>C4S12&#45;&gt;C4S13</title>
<path fill="none" stroke="darkgray" d="M144,-197.91C144,-185.78 144,-170.41 144,-157.36"/>
<polygon fill="darkgray" stroke="darkgray" points="147.5,-157.07 144,-147.07 140.5,-157.07 147.5,-157.07"/>
<text text-anchor="middle" x="155" y="-168.8" font-family="Times,serif" font-size="14.00" fill="darkgray">t2r</text>
</g>
<!-- C5S5 -->
<g id="node22" class="node">
<title>C5S5</title>
<ellipse fill="white" stroke="black" cx="338" cy="-531" rx="27" ry="18"/>
<text text-anchor="middle" x="338" y="-527.3" font-family="Times,serif" font-size="14.00">5</text>
</g>
<!-- C4S4&#45;&gt;C5S5 -->
<g id="edge26" class="edge">
<title>C4S4&#45;&gt;C5S5</title>
<path fill="none" stroke="black" stroke-dasharray="5,2" d="M242.18,-143.97C259.03,-160.16 283,-188.54 283,-219 283,-420 283,-420 283,-420 283,-452.84 302.85,-485.93 318.7,-507.11"/>
<polygon fill="black" stroke="black" points="324.97,-515.15 315.27,-510.03 321.89,-511.21 318.82,-507.26 318.82,-507.26 318.82,-507.26 321.89,-511.21 322.38,-504.5 324.97,-515.15 324.97,-515.15"/>
<text text-anchor="middle" x="299" y="-307.3" font-family="Times,serif" font-size="14.00">O3 r</text>
</g>
<!-- C4S0 -->
<g id="node18" class="node">
<title>C4S0</title>
<polygon fill="white" stroke="black" points="171,-30.54 171,-45.46 155.18,-56 132.82,-56 117,-45.46 117,-30.54 132.82,-20 155.18,-20 171,-30.54"/>
<polygon fill="none" stroke="black" points="175,-28.4 175,-47.6 156.39,-60 131.61,-60 113,-47.6 113,-28.4 131.61,-16 156.39,-16 175,-28.4"/>
<text text-anchor="middle" x="144" y="-34.3" font-family="Times,serif" font-size="14.00">0</text>
</g>
<!-- C4S0&#45;&gt;C6S1 -->
<g id="edge24" class="edge">
<title>C4S0&#45;&gt;C6S1</title>
<path fill="none" stroke="black" stroke-dasharray="5,2" d="M118.66,-51.57C93.29,-66.15 58,-92.76 58,-128 58,-312 58,-312 58,-312 58,-339.24 64.45,-369.74 70.03,-391"/>
<polygon fill="black" stroke="black" points="72.75,-400.93 65.77,-392.47 71.43,-396.11 70.11,-391.28 70.11,-391.28 70.11,-391.28 71.43,-396.11 74.45,-390.1 72.75,-400.93 72.75,-400.93"/>
<text text-anchor="middle" x="76.5" y="-216.3" font-family="Times,serif" font-size="14.00">O3 fr</text>
</g>
<!-- C4S13&#45;&gt;C4S0 -->
<g id="edge14" class="edge">
<title>C4S13&#45;&gt;C4S0</title>
<path fill="none" stroke="darkgray" d="M144,-110.84C144,-99.44 144,-84.13 144,-70.58"/>
<polygon fill="darkgray" stroke="darkgray" points="147.5,-70.19 144,-60.19 140.5,-70.19 147.5,-70.19"/>
<text text-anchor="middle" x="152" y="-81.8" font-family="Times,serif" font-size="14.00" fill="darkgray">t4</text>
</g>
<!-- C4S14 -->
<g id="node20" class="node">
<title>C4S14</title>
<polygon fill="white" stroke="black" points="251,-30.54 251,-45.46 235.18,-56 212.82,-56 197,-45.46 197,-30.54 212.82,-20 235.18,-20 251,-30.54"/>
<polygon fill="none" stroke="black" points="255,-28.4 255,-47.6 236.39,-60 211.61,-60 193,-47.6 193,-28.4 211.61,-16 236.39,-16 255,-28.4"/>
<text text-anchor="middle" x="224" y="-34.3" font-family="Times,serif" font-size="14.00">14</text>
</g>
<!-- C4S13&#45;&gt;C4S14 -->
<g id="edge15" class="edge">
<title>C4S13&#45;&gt;C4S14</title>
<path fill="none" stroke="darkgray" d="M157.57,-112.9C169.26,-99.89 186.41,-80.82 200.35,-65.31"/>
<polygon fill="darkgray" stroke="darkgray" points="203.22,-67.35 207.31,-57.57 198.02,-62.67 203.22,-67.35"/>
<text text-anchor="middle" x="198.5" y="-81.8" font-family="Times,serif" font-size="14.00" fill="darkgray">t5f</text>
</g>
<!-- C5S1 -->
<g id="node21" class="node">
<title>C5S1</title>
<polygon fill="white" stroke="black" points="365,-411.54 365,-426.46 349.18,-437 326.82,-437 311,-426.46 311,-411.54 326.82,-401 349.18,-401 365,-411.54"/>
<text text-anchor="middle" x="338" y="-415.3" font-family="Times,serif" font-size="14.00">1</text>
</g>
<!-- C5S1&#45;&gt;C4S2 -->
<g id="edge27" class="edge">
<title>C5S1&#45;&gt;C4S2</title>
<path fill="none" stroke="black" stroke-dasharray="5,2" d="M319.88,-405.46C310.36,-398.83 298.51,-390.52 288,-383 263.61,-365.54 236.03,-345.3 216.53,-330.91"/>
<polygon fill="black" stroke="black" points="208.44,-324.94 219.16,-327.26 212.46,-327.91 216.49,-330.88 216.49,-330.88 216.49,-330.88 212.46,-327.91 213.81,-334.5 208.44,-324.94 208.44,-324.94"/>
<text text-anchor="middle" x="303.5" y="-371.8" font-family="Times,serif" font-size="14.00">O2 f</text>
</g>
<!-- C5S5&#45;&gt;C5S1 -->
<g id="edge16" class="edge">
<title>C5S5&#45;&gt;C5S1</title>
<path fill="none" stroke="darkgray" d="M338,-512.81C338,-495.21 338,-467.61 338,-447.07"/>
<polygon fill="darkgray" stroke="darkgray" points="341.5,-447.07 338,-437.07 334.5,-447.07 341.5,-447.07"/>
<text text-anchor="middle" x="348.5" y="-479.8" font-family="Times,serif" font-size="14.00" fill="darkgray">t5f</text>
</g>
<!-- C5S6 -->
<g id="node23" class="node">
<title>C5S6</title>
<polygon fill="white" stroke="black" points="437,-411.54 437,-426.46 421.18,-437 398.82,-437 383,-426.46 383,-411.54 398.82,-401 421.18,-401 437,-411.54"/>
<text text-anchor="middle" x="410" y="-415.3" font-family="Times,serif" font-size="14.00">6</text>
</g>
<!-- C5S5&#45;&gt;C5S6 -->
<g id="edge17" class="edge">
<title>C5S5&#45;&gt;C5S6</title>
<path fill="none" stroke="darkgray" d="M348.32,-514.24C360.02,-496.36 379.28,-466.93 393.17,-445.71"/>
<polygon fill="darkgray" stroke="darkgray" points="396.21,-447.46 398.75,-437.18 390.35,-443.63 396.21,-447.46"/>
<text text-anchor="middle" x="379" y="-479.8" font-family="Times,serif" font-size="14.00" fill="darkgray">t4</text>
</g>
<!-- C5S6&#45;&gt;C1S7 -->
<g id="edge28" class="edge">
<title>C5S6&#45;&gt;C1S7</title>
<path fill="none" stroke="black" stroke-dasharray="5,2" d="M411.58,-400.86C413.11,-390.74 416.11,-378 422,-368 430.59,-353.4 444.19,-340.38 456.37,-330.58"/>
<polygon fill="black" stroke="black" points="464.5,-324.32 459.32,-333.99 460.54,-327.37 456.58,-330.42 456.58,-330.42 456.58,-330.42 460.54,-327.37 453.83,-326.85 464.5,-324.32 464.5,-324.32"/>
<text text-anchor="middle" x="438.5" y="-371.8" font-family="Times,serif" font-size="14.00">O2 ε</text>
</g>
<!-- C6S1&#45;&gt;C4S2 -->
<g id="edge29" class="edge">
<title>C6S1&#45;&gt;C4S2</title>
<path fill="none" stroke="black" stroke-dasharray="5,2" d="M91.92,-402.76C101.32,-392.66 114.12,-379.26 126,-368 139.13,-355.56 154.42,-342.33 166.88,-331.85"/>
<polygon fill="black" stroke="black" points="174.6,-325.39 169.81,-335.26 170.76,-328.6 166.93,-331.81 166.93,-331.81 166.93,-331.81 170.76,-328.6 164.04,-328.35 174.6,-325.39 174.6,-325.39"/>
<text text-anchor="middle" x="142.5" y="-371.8" font-family="Times,serif" font-size="14.00">O2 ε</text>
</g>
</g>
</svg>
