<?xml version="1.0" encoding="UTF-8" standalone="no"?>
<!DOCTYPE svg PUBLIC "-//W3C//DTD SVG 1.1//EN"
 "http://www.w3.org/Graphics/SVG/1.1/DTD/svg11.dtd">
<!-- Generated by graphviz version 2.43.0 (0)
 -->
<!-- Title: EXPinput/e Pages: 1 -->
<svg width="697pt" height="808pt"
 viewBox="0.00 0.00 697.00 808.00" xmlns="http://www.w3.org/2000/svg" xmlns:xlink="http://www.w3.org/1999/xlink">
<g id="graph0" class="graph" transform="scale(1 1) rotate(0) translate(4 804)">
<title>EXPinput/e</title>
<polygon fill="white" stroke="transparent" points="-4,4 -4,-804 693,-804 693,4 -4,4"/>
<g id="clust1" class="cluster">
<title>cluster0</title>
<path fill="#eaffee" stroke="#eaffee" d="M20,-501C20,-501 66,-501 66,-501 72,-501 78,-507 78,-513 78,-513 78,-564 78,-564 78,-570 72,-576 66,-576 66,-576 20,-576 20,-576 14,-576 8,-570 8,-564 8,-564 8,-513 8,-513 8,-507 14,-501 20,-501"/>
<text text-anchor="middle" x="43" y="-560.8" font-family="Times,serif" font-size="14.00" fill="#b2ccbb">C0</text>
</g>
<g id="clust2" class="cluster">
<title>cluster1</title>
<path fill="#eaffee" stroke="#eaffee" d="M20,-393C20,-393 66,-393 66,-393 72,-393 78,-399 78,-405 78,-405 78,-456 78,-456 78,-462 72,-468 66,-468 66,-468 20,-468 20,-468 14,-468 8,-462 8,-456 8,-456 8,-405 8,-405 8,-399 14,-393 20,-393"/>
<text text-anchor="middle" x="43" y="-452.8" font-family="Times,serif" font-size="14.00" fill="#b2ccbb">C1</text>
</g>
<g id="clust3" class="cluster">
<title>cluster2</title>
<path fill="#eaffee" stroke="#eaffee" d="M145,-8C145,-8 279,-8 279,-8 285,-8 291,-14 291,-20 291,-20 291,-348 291,-348 291,-354 285,-360 279,-360 279,-360 145,-360 145,-360 139,-360 133,-354 133,-348 133,-348 133,-20 133,-20 133,-14 139,-8 145,-8"/>
<text text-anchor="middle" x="212" y="-344.8" font-family="Times,serif" font-size="14.00" fill="#b2ccbb">C2</text>
</g>
<g id="clust4" class="cluster">
<title>cluster3</title>
<path fill="#eaffee" stroke="#eaffee" d="M145,-393C145,-393 263,-393 263,-393 269,-393 275,-399 275,-405 275,-405 275,-564 275,-564 275,-570 269,-576 263,-576 263,-576 145,-576 145,-576 139,-576 133,-570 133,-564 133,-564 133,-405 133,-405 133,-399 139,-393 145,-393"/>
<text text-anchor="middle" x="204" y="-560.8" font-family="Times,serif" font-size="14.00" fill="#b2ccbb">C3</text>
</g>
<g id="clust5" class="cluster">
<title>cluster4</title>
<path fill="#eaffee" stroke="#eaffee" d="M386,-285C386,-285 432,-285 432,-285 438,-285 444,-291 444,-297 444,-297 444,-348 444,-348 444,-354 438,-360 432,-360 432,-360 386,-360 386,-360 380,-360 374,-354 374,-348 374,-348 374,-297 374,-297 374,-291 380,-285 386,-285"/>
<text text-anchor="middle" x="409" y="-344.8" font-family="Times,serif" font-size="14.00" fill="#b2ccbb">C4</text>
</g>
<g id="clust6" class="cluster">
<title>cluster5</title>
<path fill="#eaffee" stroke="#eaffee" d="M295,-393C295,-393 413,-393 413,-393 419,-393 425,-399 425,-405 425,-405 425,-780 425,-780 425,-786 419,-792 413,-792 413,-792 295,-792 295,-792 289,-792 283,-786 283,-780 283,-780 283,-405 283,-405 283,-399 289,-393 295,-393"/>
<text text-anchor="middle" x="354" y="-776.8" font-family="Times,serif" font-size="14.00" fill="#b2ccbb">C5</text>
</g>
<g id="clust7" class="cluster">
<title>cluster6</title>
<path fill="#eaffee" stroke="#eaffee" d="M498,-393C498,-393 616,-393 616,-393 622,-393 628,-399 628,-405 628,-405 628,-672 628,-672 628,-678 622,-684 616,-684 616,-684 498,-684 498,-684 492,-684 486,-678 486,-672 486,-672 486,-405 486,-405 486,-399 492,-393 498,-393"/>
<text text-anchor="middle" x="557" y="-668.8" font-family="Times,serif" font-size="14.00" fill="#b2ccbb">C6</text>
</g>
<!-- C0S0 -->
<g id="node1" class="node">
<title>C0S0</title>
<polygon fill="white" stroke="black" points="70,-519.54 70,-534.46 54.18,-545 31.82,-545 16,-534.46 16,-519.54 31.82,-509 54.18,-509 70,-519.54"/>
<text text-anchor="middle" x="43" y="-523.3" font-family="Times,serif" font-size="14.00">0</text>
</g>
<!-- C1S1 -->
<g id="node2" class="node">
<title>C1S1</title>
<polygon fill="white" stroke="black" points="70,-411.54 70,-426.46 54.18,-437 31.82,-437 16,-426.46 16,-411.54 31.82,-401 54.18,-401 70,-411.54"/>
<text text-anchor="middle" x="43" y="-415.3" font-family="Times,serif" font-size="14.00">1</text>
</g>
<!-- C0S0&#45;&gt;C1S1 -->
<g id="edge16" class="edge">
<title>C0S0&#45;&gt;C1S1</title>
<path fill="none" stroke="black" stroke-dasharray="5,2" d="M43,-508.97C43,-492.38 43,-466.88 43,-447.43"/>
<polygon fill="black" stroke="black" points="43,-437.34 47.5,-447.34 43,-442.34 43,-447.34 43,-447.34 43,-447.34 43,-442.34 38.5,-447.34 43,-437.34 43,-437.34"/>
<text text-anchor="middle" x="59.5" y="-479.8" font-family="Times,serif" font-size="14.00">O3 ε</text>
</g>
<!-- C2S2 -->
<g id="node3" class="node">
<title>C2S2</title>
<ellipse fill="white" stroke="black" cx="210" cy="-311" rx="27" ry="18"/>
<text text-anchor="middle" x="210" y="-307.3" font-family="Times,serif" font-size="14.00">2</text>
</g>
<!-- C1S1&#45;&gt;C2S2 -->
<g id="edge17" class="edge">
<title>C1S1&#45;&gt;C2S2</title>
<path fill="none" stroke="black" stroke-dasharray="5,2" d="M59.45,-404.49C74.18,-393.08 96.82,-377.17 119,-368 135.35,-361.24 142.26,-368.07 158,-360 170.13,-353.78 181.51,-343.94 190.51,-334.78"/>
<polygon fill="black" stroke="black" points="197.48,-327.34 193.93,-337.72 194.06,-330.99 190.65,-334.64 190.65,-334.64 190.65,-334.64 194.06,-330.99 187.36,-331.56 197.48,-327.34 197.48,-327.34"/>
<text text-anchor="middle" x="135.5" y="-371.8" font-family="Times,serif" font-size="14.00">O2 ε</text>
</g>
<!-- C2S3 -->
<g id="node5" class="node">
<title>C2S3</title>
<polygon fill="white" stroke="black" points="199,-212.54 199,-227.46 183.18,-238 160.82,-238 145,-227.46 145,-212.54 160.82,-202 183.18,-202 199,-212.54"/>
<polygon fill="none" stroke="black" points="203,-210.4 203,-229.6 184.39,-242 159.61,-242 141,-229.6 141,-210.4 159.61,-198 184.39,-198 203,-210.4"/>
<text text-anchor="middle" x="172" y="-216.3" font-family="Times,serif" font-size="14.00">3</text>
</g>
<!-- C2S2&#45;&gt;C2S3 -->
<g id="edge1" class="edge">
<title>C2S2&#45;&gt;C2S3</title>
<path fill="none" stroke="darkgray" d="M202.85,-293.26C197.82,-281.48 190.94,-265.37 184.96,-251.35"/>
<polygon fill="darkgray" stroke="darkgray" points="188.14,-249.89 180.99,-242.06 181.7,-252.63 188.14,-249.89"/>
<text text-anchor="middle" x="202" y="-263.8" font-family="Times,serif" font-size="14.00" fill="darkgray">t4</text>
</g>
<!-- C2S10 -->
<g id="node7" class="node">
<title>C2S10</title>
<polygon fill="white" stroke="black" points="279,-212.54 279,-227.46 263.18,-238 240.82,-238 225,-227.46 225,-212.54 240.82,-202 263.18,-202 279,-212.54"/>
<polygon fill="none" stroke="black" points="283,-210.4 283,-229.6 264.39,-242 239.61,-242 221,-229.6 221,-210.4 239.61,-198 264.39,-198 283,-210.4"/>
<text text-anchor="middle" x="252" y="-216.3" font-family="Times,serif" font-size="14.00">10</text>
</g>
<!-- C2S2&#45;&gt;C2S10 -->
<g id="edge2" class="edge">
<title>C2S2&#45;&gt;C2S10</title>
<path fill="none" stroke="darkgray" d="M217.7,-293.68C223.24,-281.93 230.88,-265.74 237.55,-251.62"/>
<polygon fill="darkgray" stroke="darkgray" points="240.86,-252.8 241.97,-242.26 234.53,-249.81 240.86,-252.8"/>
<text text-anchor="middle" x="250.5" y="-263.8" font-family="Times,serif" font-size="14.00" fill="darkgray">t5R2</text>
</g>
<!-- C2S0 -->
<g id="node4" class="node">
<title>C2S0</title>
<polygon fill="white" stroke="black" points="196,-30.54 196,-45.46 180.18,-56 157.82,-56 142,-45.46 142,-30.54 157.82,-20 180.18,-20 196,-30.54"/>
<text text-anchor="middle" x="169" y="-34.3" font-family="Times,serif" font-size="14.00">0</text>
</g>
<!-- C2S0&#45;&gt;C1S1 -->
<g id="edge18" class="edge">
<title>C2S0&#45;&gt;C1S1</title>
<path fill="none" stroke="black" stroke-dasharray="5,2" d="M141.81,-43.52C100.84,-52.06 28,-74.74 28,-128 28,-312 28,-312 28,-312 28,-339.03 32.84,-369.56 37.02,-390.89"/>
<polygon fill="black" stroke="black" points="39.06,-400.85 32.65,-391.95 38.06,-395.95 37.06,-391.05 37.06,-391.05 37.06,-391.05 38.06,-395.95 41.46,-390.15 39.06,-400.85 39.06,-400.85"/>
<text text-anchor="middle" x="56.5" y="-216.3" font-family="Times,serif" font-size="14.00">O3 r2r1</text>
</g>
<!-- C2S4 -->
<g id="node6" class="node">
<title>C2S4</title>
<polygon fill="white" stroke="black" points="198,-121.54 198,-136.46 182.18,-147 159.82,-147 144,-136.46 144,-121.54 159.82,-111 182.18,-111 198,-121.54"/>
<text text-anchor="middle" x="171" y="-125.3" font-family="Times,serif" font-size="14.00">4</text>
</g>
<!-- C2S3&#45;&gt;C2S4 -->
<g id="edge3" class="edge">
<title>C2S3&#45;&gt;C2S4</title>
<path fill="none" stroke="darkgray" d="M171.76,-197.91C171.63,-185.78 171.45,-170.41 171.31,-157.36"/>
<polygon fill="darkgray" stroke="darkgray" points="174.8,-157.03 171.19,-147.07 167.8,-157.11 174.8,-157.03"/>
<text text-anchor="middle" x="189.5" y="-168.8" font-family="Times,serif" font-size="14.00" fill="darkgray">t2R1</text>
</g>
<!-- C6S9 -->
<g id="node19" class="node">
<title>C6S9</title>
<ellipse fill="white" stroke="black" cx="589" cy="-635" rx="27" ry="18"/>
<text text-anchor="middle" x="589" y="-631.3" font-family="Times,serif" font-size="14.00">9</text>
</g>
<!-- C2S3&#45;&gt;C6S9 -->
<g id="edge19" class="edge">
<title>C2S3&#45;&gt;C6S9</title>
<path fill="none" stroke="black" stroke-dasharray="5,2" d="M195.55,-235C200.82,-237.67 206.49,-240.19 212,-242 306.82,-273.18 656,-210.18 656,-310 656,-528 656,-528 656,-528 656,-562.26 645.53,-570.85 626,-599 622.45,-604.12 618.05,-609.07 613.54,-613.56"/>
<polygon fill="black" stroke="black" points="605.97,-620.63 610.21,-610.52 609.62,-617.22 613.28,-613.81 613.28,-613.81 613.28,-613.81 609.62,-617.22 616.35,-617.1 605.97,-620.63 605.97,-620.63"/>
<text text-anchor="middle" x="672.5" y="-415.3" font-family="Times,serif" font-size="14.00">O3 ε</text>
</g>
<!-- C3S5 -->
<g id="node10" class="node">
<title>C3S5</title>
<ellipse fill="white" stroke="black" cx="168" cy="-527" rx="27" ry="18"/>
<text text-anchor="middle" x="168" y="-523.3" font-family="Times,serif" font-size="14.00">5</text>
</g>
<!-- C2S4&#45;&gt;C3S5 -->
<g id="edge20" class="edge">
<title>C2S4&#45;&gt;C3S5</title>
<path fill="none" stroke="black" stroke-dasharray="5,2" d="M154.53,-143.91C137.39,-160.05 113,-188.38 113,-219 113,-420 113,-420 113,-420 113,-451.38 132.23,-482.72 147.95,-503.08"/>
<polygon fill="black" stroke="black" points="154.4,-511.11 144.63,-506.14 151.27,-507.21 148.14,-503.32 148.14,-503.32 148.14,-503.32 151.27,-507.21 151.64,-500.5 154.4,-511.11 154.4,-511.11"/>
<text text-anchor="middle" x="133.5" y="-307.3" font-family="Times,serif" font-size="14.00">O3 r1</text>
</g>
<!-- C2S11 -->
<g id="node8" class="node">
<title>C2S11</title>
<ellipse fill="white" stroke="black" cx="245" cy="-129" rx="27" ry="18"/>
<text text-anchor="middle" x="245" y="-125.3" font-family="Times,serif" font-size="14.00">11</text>
</g>
<!-- C2S10&#45;&gt;C2S11 -->
<g id="edge4" class="edge">
<title>C2S10&#45;&gt;C2S11</title>
<path fill="none" stroke="darkgray" d="M250.34,-197.91C249.39,-185.78 248.18,-170.41 247.15,-157.36"/>
<polygon fill="darkgray" stroke="darkgray" points="250.62,-156.76 246.34,-147.07 243.64,-157.31 250.62,-156.76"/>
<text text-anchor="middle" x="265.5" y="-168.8" font-family="Times,serif" font-size="14.00" fill="darkgray">t2R1</text>
</g>
<!-- C2S11&#45;&gt;C2S0 -->
<g id="edge5" class="edge">
<title>C2S11&#45;&gt;C2S0</title>
<path fill="none" stroke="darkgray" d="M232.11,-112.9C220.35,-99.13 202.79,-78.57 189.18,-62.63"/>
<polygon fill="darkgray" stroke="darkgray" points="191.62,-60.1 182.47,-54.77 186.3,-64.65 191.62,-60.1"/>
<text text-anchor="middle" x="221" y="-81.8" font-family="Times,serif" font-size="14.00" fill="darkgray">t4</text>
</g>
<!-- C2S12 -->
<g id="node9" class="node">
<title>C2S12</title>
<polygon fill="white" stroke="black" points="272,-30.54 272,-45.46 256.18,-56 233.82,-56 218,-45.46 218,-30.54 233.82,-20 256.18,-20 272,-30.54"/>
<polygon fill="none" stroke="black" points="276,-28.4 276,-47.6 257.39,-60 232.61,-60 214,-47.6 214,-28.4 232.61,-16 257.39,-16 276,-28.4"/>
<text text-anchor="middle" x="245" y="-34.3" font-family="Times,serif" font-size="14.00">12</text>
</g>
<!-- C2S11&#45;&gt;C2S12 -->
<g id="edge6" class="edge">
<title>C2S11&#45;&gt;C2S12</title>
<path fill="none" stroke="darkgray" d="M245,-110.84C245,-99.44 245,-84.13 245,-70.58"/>
<polygon fill="darkgray" stroke="darkgray" points="248.5,-70.19 245,-60.19 241.5,-70.19 248.5,-70.19"/>
<text text-anchor="middle" x="262.5" y="-81.8" font-family="Times,serif" font-size="14.00" fill="darkgray">t5R2</text>
</g>
<!-- C3S1 -->
<g id="node11" class="node">
<title>C3S1</title>
<polygon fill="white" stroke="black" points="195,-411.54 195,-426.46 179.18,-437 156.82,-437 141,-426.46 141,-411.54 156.82,-401 179.18,-401 195,-411.54"/>
<text text-anchor="middle" x="168" y="-415.3" font-family="Times,serif" font-size="14.00">1</text>
</g>
<!-- C3S5&#45;&gt;C3S1 -->
<g id="edge8" class="edge">
<title>C3S5&#45;&gt;C3S1</title>
<path fill="none" stroke="darkgray" d="M168,-508.97C168,-492.38 168,-466.88 168,-447.43"/>
<polygon fill="darkgray" stroke="darkgray" points="171.5,-447.34 168,-437.34 164.5,-447.34 171.5,-447.34"/>
<text text-anchor="middle" x="185.5" y="-479.8" font-family="Times,serif" font-size="14.00" fill="darkgray">t5R2</text>
</g>
<!-- C3S6 -->
<g id="node12" class="node">
<title>C3S6</title>
<polygon fill="white" stroke="black" points="267,-411.54 267,-426.46 251.18,-437 228.82,-437 213,-426.46 213,-411.54 228.82,-401 251.18,-401 267,-411.54"/>
<text text-anchor="middle" x="240" y="-415.3" font-family="Times,serif" font-size="14.00">6</text>
</g>
<!-- C3S5&#45;&gt;C3S6 -->
<g id="edge7" class="edge">
<title>C3S5&#45;&gt;C3S6</title>
<path fill="none" stroke="darkgray" d="M185.38,-513.01C192.71,-506.91 200.94,-499.19 207,-491 216.96,-477.55 224.97,-460.61 230.6,-446.66"/>
<polygon fill="darkgray" stroke="darkgray" points="233.95,-447.7 234.28,-437.11 227.42,-445.19 233.95,-447.7"/>
<text text-anchor="middle" x="224" y="-479.8" font-family="Times,serif" font-size="14.00" fill="darkgray">t4</text>
</g>
<!-- C3S1&#45;&gt;C2S2 -->
<g id="edge21" class="edge">
<title>C3S1&#45;&gt;C2S2</title>
<path fill="none" stroke="black" stroke-dasharray="5,2" d="M159.89,-400.91C156.36,-391.05 153.86,-378.55 158,-368 163.53,-353.93 174.44,-341.29 184.84,-331.59"/>
<polygon fill="black" stroke="black" points="192.6,-324.78 188.06,-334.76 188.85,-328.08 185.09,-331.38 185.09,-331.38 185.09,-331.38 188.85,-328.08 182.12,-327.99 192.6,-324.78 192.6,-324.78"/>
<text text-anchor="middle" x="178.5" y="-371.8" font-family="Times,serif" font-size="14.00">O2 r2</text>
</g>
<!-- C4S7 -->
<g id="node13" class="node">
<title>C4S7</title>
<polygon fill="white" stroke="black" points="436,-303.54 436,-318.46 420.18,-329 397.82,-329 382,-318.46 382,-303.54 397.82,-293 420.18,-293 436,-303.54"/>
<text text-anchor="middle" x="409" y="-307.3" font-family="Times,serif" font-size="14.00">7</text>
</g>
<!-- C3S6&#45;&gt;C4S7 -->
<g id="edge22" class="edge">
<title>C3S6&#45;&gt;C4S7</title>
<path fill="none" stroke="black" stroke-dasharray="5,2" d="M259.01,-405.74C265.36,-401.67 272.47,-397.12 279,-393 288.83,-386.79 345.89,-351.27 381.07,-329.38"/>
<polygon fill="black" stroke="black" points="389.93,-323.87 383.81,-332.97 385.68,-326.51 381.44,-329.15 381.44,-329.15 381.44,-329.15 385.68,-326.51 379.06,-325.33 389.93,-323.87 389.93,-323.87"/>
<text text-anchor="middle" x="332.5" y="-371.8" font-family="Times,serif" font-size="14.00">O2 ε</text>
</g>
<!-- C5S8 -->
<g id="node14" class="node">
<title>C5S8</title>
<ellipse fill="white" stroke="black" cx="386" cy="-743" rx="27" ry="18"/>
<text text-anchor="middle" x="386" y="-739.3" font-family="Times,serif" font-size="14.00">8</text>
</g>
<!-- C4S7&#45;&gt;C5S8 -->
<g id="edge23" class="edge">
<title>C4S7&#45;&gt;C5S8</title>
<path fill="none" stroke="black" stroke-dasharray="5,2" d="M418.65,-329.03C429.31,-349.48 445,-385.15 445,-418 445,-636 445,-636 445,-636 445,-669.04 440.46,-678.95 423,-707 419.71,-712.29 415.42,-717.32 410.94,-721.83"/>
<polygon fill="black" stroke="black" points="403.36,-728.89 407.61,-718.78 407.02,-725.48 410.68,-722.08 410.68,-722.08 410.68,-722.08 407.02,-725.48 413.75,-725.37 403.36,-728.89 403.36,-728.89"/>
<text text-anchor="middle" x="461.5" y="-523.3" font-family="Times,serif" font-size="14.00">O3 ε</text>
</g>
<!-- C5S9 -->
<g id="node18" class="node">
<title>C5S9</title>
<ellipse fill="white" stroke="black" cx="382" cy="-635" rx="27" ry="18"/>
<text text-anchor="middle" x="382" y="-631.3" font-family="Times,serif" font-size="14.00">9</text>
</g>
<!-- C5S8&#45;&gt;C5S9 -->
<g id="edge9" class="edge">
<title>C5S8&#45;&gt;C5S9</title>
<path fill="none" stroke="darkgray" d="M385.36,-724.97C384.73,-708.38 383.77,-682.88 383.04,-663.43"/>
<polygon fill="darkgray" stroke="darkgray" points="386.53,-663.2 382.65,-653.34 379.53,-663.47 386.53,-663.2"/>
<text text-anchor="middle" x="401.5" y="-695.8" font-family="Times,serif" font-size="14.00" fill="darkgray">t5R2</text>
</g>
<!-- C5S5 -->
<g id="node15" class="node">
<title>C5S5</title>
<ellipse fill="white" stroke="black" cx="382" cy="-527" rx="27" ry="18"/>
<text text-anchor="middle" x="382" y="-523.3" font-family="Times,serif" font-size="14.00">5</text>
</g>
<!-- C5S6 -->
<g id="node16" class="node">
<title>C5S6</title>
<polygon fill="white" stroke="black" points="417,-411.54 417,-426.46 401.18,-437 378.82,-437 363,-426.46 363,-411.54 378.82,-401 401.18,-401 417,-411.54"/>
<text text-anchor="middle" x="390" y="-415.3" font-family="Times,serif" font-size="14.00">6</text>
</g>
<!-- C5S5&#45;&gt;C5S6 -->
<g id="edge10" class="edge">
<title>C5S5&#45;&gt;C5S6</title>
<path fill="none" stroke="darkgray" d="M383.29,-508.97C384.54,-492.38 386.46,-466.88 387.93,-447.43"/>
<polygon fill="darkgray" stroke="darkgray" points="391.43,-447.58 388.69,-437.34 384.45,-447.05 391.43,-447.58"/>
<text text-anchor="middle" x="393" y="-479.8" font-family="Times,serif" font-size="14.00" fill="darkgray">t4</text>
</g>
<!-- C5S1 -->
<g id="node17" class="node">
<title>C5S1</title>
<polygon fill="white" stroke="black" points="345,-411.54 345,-426.46 329.18,-437 306.82,-437 291,-426.46 291,-411.54 306.82,-401 329.18,-401 345,-411.54"/>
<text text-anchor="middle" x="318" y="-415.3" font-family="Times,serif" font-size="14.00">1</text>
</g>
<!-- C5S5&#45;&gt;C5S1 -->
<g id="edge11" class="edge">
<title>C5S5&#45;&gt;C5S1</title>
<path fill="none" stroke="darkgray" d="M364.89,-512.73C357.99,-506.69 350.4,-499.09 345,-491 336.08,-477.62 329.53,-460.88 325.12,-447.02"/>
<polygon fill="darkgray" stroke="darkgray" points="328.37,-445.66 322.16,-437.08 321.66,-447.66 328.37,-445.66"/>
<text text-anchor="middle" x="362.5" y="-479.8" font-family="Times,serif" font-size="14.00" fill="darkgray">t5R2</text>
</g>
<!-- C5S6&#45;&gt;C4S7 -->
<g id="edge25" class="edge">
<title>C5S6&#45;&gt;C4S7</title>
<path fill="none" stroke="black" stroke-dasharray="5,2" d="M379.36,-400.95C374.66,-391.32 370.83,-379.04 374,-368 377.21,-356.81 383.38,-345.68 389.66,-336.34"/>
<polygon fill="black" stroke="black" points="395.62,-327.97 393.48,-338.73 392.71,-332.04 389.81,-336.12 389.81,-336.12 389.81,-336.12 392.71,-332.04 386.15,-333.51 395.62,-327.97 395.62,-327.97"/>
<text text-anchor="middle" x="402.5" y="-371.8" font-family="Times,serif" font-size="14.00">O2 r2r1</text>
</g>
<!-- C5S1&#45;&gt;C2S2 -->
<g id="edge24" class="edge">
<title>C5S1&#45;&gt;C2S2</title>
<path fill="none" stroke="black" stroke-dasharray="5,2" d="M300.55,-404.72C294.08,-400.38 286.49,-395.92 279,-393 255.04,-383.65 240.13,-401.24 222,-383 210.8,-371.73 207.76,-354.14 207.54,-339.29"/>
<polygon fill="black" stroke="black" points="207.81,-329.09 212.05,-339.2 207.68,-334.09 207.55,-339.09 207.55,-339.09 207.55,-339.09 207.68,-334.09 203.05,-338.97 207.81,-329.09 207.81,-329.09"/>
<text text-anchor="middle" x="258.5" y="-371.8" font-family="Times,serif" font-size="14.00">O2 r2r1r2</text>
</g>
<!-- C5S9&#45;&gt;C5S5 -->
<g id="edge12" class="edge">
<title>C5S9&#45;&gt;C5S5</title>
<path fill="none" stroke="darkgray" d="M382,-616.97C382,-600.38 382,-574.88 382,-555.43"/>
<polygon fill="darkgray" stroke="darkgray" points="385.5,-555.34 382,-545.34 378.5,-555.34 385.5,-555.34"/>
<text text-anchor="middle" x="399.5" y="-587.8" font-family="Times,serif" font-size="14.00" fill="darkgray">t2R1</text>
</g>
<!-- C6S5 -->
<g id="node20" class="node">
<title>C6S5</title>
<ellipse fill="white" stroke="black" cx="585" cy="-527" rx="27" ry="18"/>
<text text-anchor="middle" x="585" y="-523.3" font-family="Times,serif" font-size="14.00">5</text>
</g>
<!-- C6S9&#45;&gt;C6S5 -->
<g id="edge13" class="edge">
<title>C6S9&#45;&gt;C6S5</title>
<path fill="none" stroke="darkgray" d="M588.36,-616.97C587.73,-600.38 586.77,-574.88 586.04,-555.43"/>
<polygon fill="darkgray" stroke="darkgray" points="589.53,-555.2 585.65,-545.34 582.53,-555.47 589.53,-555.2"/>
<text text-anchor="middle" x="604.5" y="-587.8" font-family="Times,serif" font-size="14.00" fill="darkgray">t2R1</text>
</g>
<!-- C6S6 -->
<g id="node21" class="node">
<title>C6S6</title>
<polygon fill="white" stroke="black" points="620,-411.54 620,-426.46 604.18,-437 581.82,-437 566,-426.46 566,-411.54 581.82,-401 604.18,-401 620,-411.54"/>
<text text-anchor="middle" x="593" y="-415.3" font-family="Times,serif" font-size="14.00">6</text>
</g>
<!-- C6S5&#45;&gt;C6S6 -->
<g id="edge14" class="edge">
<title>C6S5&#45;&gt;C6S6</title>
<path fill="none" stroke="darkgray" d="M586.29,-508.97C587.54,-492.38 589.46,-466.88 590.93,-447.43"/>
<polygon fill="darkgray" stroke="darkgray" points="594.43,-447.58 591.69,-437.34 587.45,-447.05 594.43,-447.58"/>
<text text-anchor="middle" x="596" y="-479.8" font-family="Times,serif" font-size="14.00" fill="darkgray">t4</text>
</g>
<!-- C6S1 -->
<g id="node22" class="node">
<title>C6S1</title>
<polygon fill="white" stroke="black" points="548,-411.54 548,-426.46 532.18,-437 509.82,-437 494,-426.46 494,-411.54 509.82,-401 532.18,-401 548,-411.54"/>
<text text-anchor="middle" x="521" y="-415.3" font-family="Times,serif" font-size="14.00">1</text>
</g>
<!-- C6S5&#45;&gt;C6S1 -->
<g id="edge15" class="edge">
<title>C6S5&#45;&gt;C6S1</title>
<path fill="none" stroke="darkgray" d="M567.89,-512.73C560.99,-506.69 553.4,-499.09 548,-491 539.08,-477.62 532.53,-460.88 528.12,-447.02"/>
<polygon fill="darkgray" stroke="darkgray" points="531.37,-445.66 525.16,-437.08 524.66,-447.66 531.37,-445.66"/>
<text text-anchor="middle" x="565.5" y="-479.8" font-family="Times,serif" font-size="14.00" fill="darkgray">t5R2</text>
</g>
<!-- C6S6&#45;&gt;C4S7 -->
<g id="edge27" class="edge">
<title>C6S6&#45;&gt;C4S7</title>
<path fill="none" stroke="black" stroke-dasharray="5,2" d="M581.19,-401.34C572.9,-390.65 561.01,-377.1 548,-368 516.44,-345.92 474.9,-330.65 445.47,-321.7"/>
<polygon fill="black" stroke="black" points="435.6,-318.79 446.47,-317.3 440.4,-320.2 445.2,-321.62 445.2,-321.62 445.2,-321.62 440.4,-320.2 443.93,-325.93 435.6,-318.79 435.6,-318.79"/>
<text text-anchor="middle" x="584.5" y="-371.8" font-family="Times,serif" font-size="14.00">O2 r1</text>
</g>
<!-- C6S1&#45;&gt;C2S2 -->
<g id="edge26" class="edge">
<title>C6S1&#45;&gt;C2S2</title>
<path fill="none" stroke="black" stroke-dasharray="5,2" d="M503.57,-405.01C486.88,-393.28 460.54,-376.59 435,-368 407.41,-358.72 398.49,-365.98 370,-360 325.31,-350.62 275.06,-334.62 243,-323.69"/>
<polygon fill="black" stroke="black" points="233.27,-320.34 244.19,-319.34 237.99,-321.96 242.72,-323.59 242.72,-323.59 242.72,-323.59 237.99,-321.96 241.25,-327.85 233.27,-320.34 233.27,-320.34"/>
<text text-anchor="middle" x="495.5" y="-371.8" font-family="Times,serif" font-size="14.00">O2 r1r2</text>
</g>
</g>
</svg>
