<?xml version="1.0" encoding="UTF-8" standalone="no"?>
<!DOCTYPE svg PUBLIC "-//W3C//DTD SVG 1.1//EN"
 "http://www.w3.org/Graphics/SVG/1.1/DTD/svg11.dtd">
<!-- Generated by graphviz version 2.43.0 (0)
 -->
<!-- Title: EXPinput/e Pages: 1 -->
<svg width="767pt" height="709pt"
 viewBox="0.00 0.00 767.00 709.00" xmlns="http://www.w3.org/2000/svg" xmlns:xlink="http://www.w3.org/1999/xlink">
<g id="graph0" class="graph" transform="scale(1 1) rotate(0) translate(4 705)">
<title>EXPinput/e</title>
<polygon fill="white" stroke="transparent" points="-4,4 -4,-705 763,-705 763,4 -4,4"/>
<g id="clust1" class="cluster">
<title>cluster1</title>
<path fill="#eaffee" stroke="#eaffee" d="M661,-459C661,-459 739,-459 739,-459 745,-459 751,-465 751,-471 751,-471 751,-507 751,-507 751,-513 745,-519 739,-519 739,-519 661,-519 661,-519 655,-519 649,-513 649,-507 649,-507 649,-471 649,-471 649,-465 655,-459 661,-459"/>
</g>
<g id="clust2" class="cluster">
<title>cluster2</title>
<path fill="#eaffee" stroke="#eaffee" d="M661,-372C661,-372 731,-372 731,-372 737,-372 743,-378 743,-384 743,-384 743,-412 743,-412 743,-418 737,-424 731,-424 731,-424 661,-424 661,-424 655,-424 649,-418 649,-412 649,-412 649,-384 649,-384 649,-378 655,-372 661,-372"/>
</g>
<g id="clust3" class="cluster">
<title>cluster3</title>
<path fill="#eaffee" stroke="#eaffee" d="M372,-8C372,-8 566,-8 566,-8 572,-8 578,-14 578,-20 578,-20 578,-325 578,-325 578,-331 572,-337 566,-337 566,-337 372,-337 372,-337 366,-337 360,-331 360,-325 360,-325 360,-20 360,-20 360,-14 366,-8 372,-8"/>
</g>
<g id="clust4" class="cluster">
<title>cluster4</title>
<path fill="#eaffee" stroke="#eaffee" d="M70,-372C70,-372 235,-372 235,-372 241,-372 247,-378 247,-384 247,-384 247,-503 247,-503 247,-509 241,-515 235,-515 235,-515 70,-515 70,-515 64,-515 58,-509 58,-503 58,-503 58,-384 58,-384 58,-378 64,-372 70,-372"/>
</g>
<g id="clust5" class="cluster">
<title>cluster5</title>
<path fill="#eaffee" stroke="#eaffee" d="M121,-285C121,-285 191,-285 191,-285 197,-285 203,-291 203,-297 203,-297 203,-325 203,-325 203,-331 197,-337 191,-337 191,-337 121,-337 121,-337 115,-337 109,-331 109,-325 109,-325 109,-297 109,-297 109,-291 115,-285 121,-285"/>
</g>
<g id="clust6" class="cluster">
<title>cluster6</title>
<path fill="#eaffee" stroke="#eaffee" d="M267,-372C267,-372 432,-372 432,-372 438,-372 444,-378 444,-384 444,-384 444,-681 444,-681 444,-687 438,-693 432,-693 432,-693 267,-693 267,-693 261,-693 255,-687 255,-681 255,-681 255,-384 255,-384 255,-378 261,-372 267,-372"/>
</g>
<g id="clust7" class="cluster">
<title>cluster7</title>
<path fill="#eaffee" stroke="#eaffee" d="M464,-372C464,-372 629,-372 629,-372 635,-372 641,-378 641,-384 641,-384 641,-594 641,-594 641,-600 635,-606 629,-606 629,-606 464,-606 464,-606 458,-606 452,-600 452,-594 452,-594 452,-384 452,-384 452,-378 458,-372 464,-372"/>
</g>
<!-- C1S0 -->
<g id="node1" class="node">
<title>C1S0</title>
<polygon fill="white" stroke="black" points="738.87,-481.54 738.87,-496.46 716.1,-507 683.9,-507 661.13,-496.46 661.13,-481.54 683.9,-471 716.1,-471 738.87,-481.54"/>
<polygon fill="none" stroke="black" points="742.89,-478.99 742.89,-499.01 716.99,-511 683.01,-511 657.11,-499.01 657.11,-478.99 683.01,-467 716.99,-467 742.89,-478.99"/>
<text text-anchor="middle" x="700" y="-485.3" font-family="Times,serif" font-size="14.00">C1S0</text>
</g>
<!-- C2S1 -->
<g id="node2" class="node">
<title>C2S1</title>
<polygon fill="white" stroke="black" points="734.89,-390.54 734.89,-405.46 712.11,-416 679.89,-416 657.11,-405.46 657.11,-390.54 679.89,-380 712.11,-380 734.89,-390.54"/>
<text text-anchor="middle" x="696" y="-394.3" font-family="Times,serif" font-size="14.00">C2S1</text>
</g>
<!-- C1S0&#45;&gt;C2S1 -->
<g id="edge16" class="edge">
<title>C1S0&#45;&gt;C2S1</title>
<path fill="none" stroke="black" stroke-dasharray="5,2" d="M699.05,-466.91C698.51,-454.78 697.82,-439.41 697.23,-426.36"/>
<polygon fill="black" stroke="black" points="696.77,-416.07 701.71,-425.85 696.99,-421.06 697.22,-426.06 697.22,-426.06 697.22,-426.06 696.99,-421.06 692.72,-426.26 696.77,-416.07 696.77,-416.07"/>
<text text-anchor="middle" x="714.5" y="-437.8" font-family="Times,serif" font-size="14.00">O3 ε</text>
</g>
<!-- C3S2 -->
<g id="node3" class="node">
<title>C3S2</title>
<ellipse fill="white" stroke="black" cx="480" cy="-311" rx="36" ry="18"/>
<text text-anchor="middle" x="480" y="-307.3" font-family="Times,serif" font-size="14.00">C3S2</text>
</g>
<!-- C2S1&#45;&gt;C3S2 -->
<g id="edge17" class="edge">
<title>C2S1&#45;&gt;C3S2</title>
<path fill="none" stroke="black" stroke-dasharray="5,2" d="M676.13,-381.47C661.17,-370.44 639.75,-356.05 619,-347 588.32,-333.62 551.52,-324.64 523.49,-319.13"/>
<polygon fill="black" stroke="black" points="513.59,-317.25 524.25,-314.69 518.5,-318.18 523.41,-319.11 523.41,-319.11 523.41,-319.11 518.5,-318.18 522.57,-323.53 513.59,-317.25 513.59,-317.25"/>
<text text-anchor="middle" x="661.5" y="-350.8" font-family="Times,serif" font-size="14.00">O2 ε</text>
</g>
<!-- C3S3 -->
<g id="node5" class="node">
<title>C3S3</title>
<polygon fill="white" stroke="black" points="449.87,-212.54 449.87,-227.46 427.1,-238 394.9,-238 372.13,-227.46 372.13,-212.54 394.9,-202 427.1,-202 449.87,-212.54"/>
<polygon fill="none" stroke="black" points="453.89,-209.99 453.89,-230.01 427.99,-242 394.01,-242 368.11,-230.01 368.11,-209.99 394.01,-198 427.99,-198 453.89,-209.99"/>
<text text-anchor="middle" x="411" y="-216.3" font-family="Times,serif" font-size="14.00">C3S3</text>
</g>
<!-- C3S2&#45;&gt;C3S3 -->
<g id="edge1" class="edge">
<title>C3S2&#45;&gt;C3S3</title>
<path fill="none" stroke="darkgray" d="M467.66,-294.09C458.27,-281.97 445.07,-264.94 433.77,-250.37"/>
<polygon fill="darkgray" stroke="darkgray" points="436.27,-247.89 427.38,-242.13 430.74,-252.18 436.27,-247.89"/>
<text text-anchor="middle" x="459" y="-263.8" font-family="Times,serif" font-size="14.00" fill="darkgray">t4</text>
</g>
<!-- C3S10 -->
<g id="node7" class="node">
<title>C3S10</title>
<polygon fill="white" stroke="black" points="566.05,-212.54 566.05,-227.46 539.66,-238 502.34,-238 475.95,-227.46 475.95,-212.54 502.34,-202 539.66,-202 566.05,-212.54"/>
<polygon fill="none" stroke="black" points="570.05,-209.84 570.05,-230.16 540.43,-242 501.57,-242 471.95,-230.16 471.95,-209.84 501.57,-198 540.43,-198 570.05,-209.84"/>
<text text-anchor="middle" x="521" y="-216.3" font-family="Times,serif" font-size="14.00">C3S10</text>
</g>
<!-- C3S2&#45;&gt;C3S10 -->
<g id="edge2" class="edge">
<title>C3S2&#45;&gt;C3S10</title>
<path fill="none" stroke="darkgray" d="M487.71,-293.26C493.14,-281.48 500.56,-265.37 507.02,-251.35"/>
<polygon fill="darkgray" stroke="darkgray" points="510.29,-252.61 511.3,-242.06 503.93,-249.68 510.29,-252.61"/>
<text text-anchor="middle" x="519.5" y="-263.8" font-family="Times,serif" font-size="14.00" fill="darkgray">t5R2</text>
</g>
<!-- C3S0 -->
<g id="node4" class="node">
<title>C3S0</title>
<polygon fill="white" stroke="black" points="565.87,-30.54 565.87,-45.46 543.1,-56 510.9,-56 488.13,-45.46 488.13,-30.54 510.9,-20 543.1,-20 565.87,-30.54"/>
<polygon fill="none" stroke="black" points="569.89,-27.99 569.89,-48.01 543.99,-60 510.01,-60 484.11,-48.01 484.11,-27.99 510.01,-16 543.99,-16 569.89,-27.99"/>
<text text-anchor="middle" x="527" y="-34.3" font-family="Times,serif" font-size="14.00">C3S0</text>
</g>
<!-- C3S0&#45;&gt;C2S1 -->
<g id="edge18" class="edge">
<title>C3S0&#45;&gt;C2S1</title>
<path fill="none" stroke="black" stroke-dasharray="5,2" d="M569.83,-43.19C619.6,-50.69 695,-71.39 695,-128 695,-312 695,-312 695,-312 695,-331.25 695.26,-352.95 695.51,-369.6"/>
<polygon fill="black" stroke="black" points="695.68,-379.74 691.02,-369.82 695.6,-374.74 695.52,-369.75 695.52,-369.75 695.52,-369.75 695.6,-374.74 700.02,-369.67 695.68,-379.74 695.68,-379.74"/>
<text text-anchor="middle" x="723.5" y="-216.3" font-family="Times,serif" font-size="14.00">O3 r2r1</text>
</g>
<!-- C3S4 -->
<g id="node6" class="node">
<title>C3S4</title>
<polygon fill="white" stroke="black" points="446.89,-121.54 446.89,-136.46 424.11,-147 391.89,-147 369.11,-136.46 369.11,-121.54 391.89,-111 424.11,-111 446.89,-121.54"/>
<text text-anchor="middle" x="408" y="-125.3" font-family="Times,serif" font-size="14.00">C3S4</text>
</g>
<!-- C3S3&#45;&gt;C3S4 -->
<g id="edge3" class="edge">
<title>C3S3&#45;&gt;C3S4</title>
<path fill="none" stroke="darkgray" d="M410.29,-197.91C409.88,-185.78 409.36,-170.41 408.92,-157.36"/>
<polygon fill="darkgray" stroke="darkgray" points="412.41,-156.94 408.58,-147.07 405.41,-157.18 412.41,-156.94"/>
<text text-anchor="middle" x="426.5" y="-168.8" font-family="Times,serif" font-size="14.00" fill="darkgray">t2R1</text>
</g>
<!-- C4S5 -->
<g id="node10" class="node">
<title>C4S5</title>
<ellipse fill="white" stroke="black" cx="105" cy="-489" rx="36" ry="18"/>
<text text-anchor="middle" x="105" y="-485.3" font-family="Times,serif" font-size="14.00">C4S5</text>
</g>
<!-- C3S4&#45;&gt;C4S5 -->
<g id="edge19" class="edge">
<title>C3S4&#45;&gt;C4S5</title>
<path fill="none" stroke="black" stroke-dasharray="5,2" d="M369.1,-131.15C274.11,-135.03 38,-151.45 38,-219 38,-399 38,-399 38,-399 38,-426.58 58.8,-451.06 77.22,-467.32"/>
<polygon fill="black" stroke="black" points="84.9,-473.78 74.35,-470.79 81.07,-470.56 77.24,-467.35 77.24,-467.35 77.24,-467.35 81.07,-470.56 80.14,-463.9 84.9,-473.78 84.9,-473.78"/>
<text text-anchor="middle" x="54.5" y="-307.3" font-family="Times,serif" font-size="14.00">O3 ε</text>
</g>
<!-- C3S11 -->
<g id="node8" class="node">
<title>C3S11</title>
<ellipse fill="white" stroke="black" cx="521" cy="-129" rx="41.69" ry="18"/>
<text text-anchor="middle" x="521" y="-125.3" font-family="Times,serif" font-size="14.00">C3S11</text>
</g>
<!-- C3S10&#45;&gt;C3S11 -->
<g id="edge4" class="edge">
<title>C3S10&#45;&gt;C3S11</title>
<path fill="none" stroke="darkgray" d="M521,-197.91C521,-185.78 521,-170.41 521,-157.36"/>
<polygon fill="darkgray" stroke="darkgray" points="524.5,-157.07 521,-147.07 517.5,-157.07 524.5,-157.07"/>
<text text-anchor="middle" x="538.5" y="-168.8" font-family="Times,serif" font-size="14.00" fill="darkgray">t2R1</text>
</g>
<!-- C3S11&#45;&gt;C3S0 -->
<g id="edge5" class="edge">
<title>C3S11&#45;&gt;C3S0</title>
<path fill="none" stroke="darkgray" d="M522.16,-110.84C522.93,-99.33 523.98,-83.83 524.9,-70.18"/>
<polygon fill="darkgray" stroke="darkgray" points="528.39,-70.4 525.57,-60.19 521.41,-69.93 528.39,-70.4"/>
<text text-anchor="middle" x="532" y="-81.8" font-family="Times,serif" font-size="14.00" fill="darkgray">t4</text>
</g>
<!-- C3S12 -->
<g id="node9" class="node">
<title>C3S12</title>
<polygon fill="white" stroke="black" points="462.05,-30.54 462.05,-45.46 435.66,-56 398.34,-56 371.95,-45.46 371.95,-30.54 398.34,-20 435.66,-20 462.05,-30.54"/>
<polygon fill="none" stroke="black" points="466.05,-27.84 466.05,-48.16 436.43,-60 397.57,-60 367.95,-48.16 367.95,-27.84 397.57,-16 436.43,-16 466.05,-27.84"/>
<text text-anchor="middle" x="417" y="-34.3" font-family="Times,serif" font-size="14.00">C3S12</text>
</g>
<!-- C3S11&#45;&gt;C3S12 -->
<g id="edge6" class="edge">
<title>C3S11&#45;&gt;C3S12</title>
<path fill="none" stroke="darkgray" d="M502.88,-112.5C487.74,-99.54 465.82,-80.78 447.91,-65.45"/>
<polygon fill="darkgray" stroke="darkgray" points="449.87,-62.53 440,-58.68 445.32,-67.84 449.87,-62.53"/>
<text text-anchor="middle" x="495.5" y="-81.8" font-family="Times,serif" font-size="14.00" fill="darkgray">t5R2</text>
</g>
<!-- C4S1 -->
<g id="node11" class="node">
<title>C4S1</title>
<polygon fill="white" stroke="black" points="238.89,-390.54 238.89,-405.46 216.11,-416 183.89,-416 161.11,-405.46 161.11,-390.54 183.89,-380 216.11,-380 238.89,-390.54"/>
<text text-anchor="middle" x="200" y="-394.3" font-family="Times,serif" font-size="14.00">C4S1</text>
</g>
<!-- C4S5&#45;&gt;C4S1 -->
<g id="edge8" class="edge">
<title>C4S5&#45;&gt;C4S1</title>
<path fill="none" stroke="darkgray" d="M121.12,-472.9C135.9,-459.05 158.02,-438.33 175.08,-422.35"/>
<polygon fill="darkgray" stroke="darkgray" points="177.61,-424.77 182.52,-415.38 172.82,-419.66 177.61,-424.77"/>
<text text-anchor="middle" x="178.5" y="-437.8" font-family="Times,serif" font-size="14.00" fill="darkgray">t5R2</text>
</g>
<!-- C4S6 -->
<g id="node12" class="node">
<title>C4S6</title>
<polygon fill="white" stroke="black" points="143.89,-390.54 143.89,-405.46 121.11,-416 88.89,-416 66.11,-405.46 66.11,-390.54 88.89,-380 121.11,-380 143.89,-390.54"/>
<text text-anchor="middle" x="105" y="-394.3" font-family="Times,serif" font-size="14.00">C4S6</text>
</g>
<!-- C4S5&#45;&gt;C4S6 -->
<g id="edge7" class="edge">
<title>C4S5&#45;&gt;C4S6</title>
<path fill="none" stroke="darkgray" d="M105,-470.84C105,-458.28 105,-440.98 105,-426.5"/>
<polygon fill="darkgray" stroke="darkgray" points="108.5,-426.11 105,-416.11 101.5,-426.11 108.5,-426.11"/>
<text text-anchor="middle" x="113" y="-437.8" font-family="Times,serif" font-size="14.00" fill="darkgray">t4</text>
</g>
<!-- C4S1&#45;&gt;C3S2 -->
<g id="edge20" class="edge">
<title>C4S1&#45;&gt;C3S2</title>
<path fill="none" stroke="black" stroke-dasharray="5,2" d="M224.47,-383.78C232.74,-379.64 242.13,-375.3 251,-372 255.48,-370.33 374.4,-339.4 439.05,-322.62"/>
<polygon fill="black" stroke="black" points="448.94,-320.05 440.39,-326.92 444.1,-321.31 439.26,-322.57 439.26,-322.57 439.26,-322.57 444.1,-321.31 438.13,-318.21 448.94,-320.05 448.94,-320.05"/>
<text text-anchor="middle" x="360.5" y="-350.8" font-family="Times,serif" font-size="14.00">O2 r2</text>
</g>
<!-- C5S7 -->
<g id="node13" class="node">
<title>C5S7</title>
<polygon fill="white" stroke="black" points="194.89,-303.54 194.89,-318.46 172.11,-329 139.89,-329 117.11,-318.46 117.11,-303.54 139.89,-293 172.11,-293 194.89,-303.54"/>
<text text-anchor="middle" x="156" y="-307.3" font-family="Times,serif" font-size="14.00">C5S7</text>
</g>
<!-- C4S6&#45;&gt;C5S7 -->
<g id="edge21" class="edge">
<title>C4S6&#45;&gt;C5S7</title>
<path fill="none" stroke="black" stroke-dasharray="5,2" d="M112.15,-379.87C116.53,-369.99 122.53,-357.49 129,-347 130.97,-343.81 133.17,-340.56 135.44,-337.39"/>
<polygon fill="black" stroke="black" points="141.52,-329.29 139.12,-339.99 138.52,-333.29 135.52,-337.29 135.52,-337.29 135.52,-337.29 138.52,-333.29 131.92,-334.59 141.52,-329.29 141.52,-329.29"/>
<text text-anchor="middle" x="145.5" y="-350.8" font-family="Times,serif" font-size="14.00">O2 ε</text>
</g>
<!-- C6S8 -->
<g id="node14" class="node">
<title>C6S8</title>
<ellipse fill="white" stroke="black" cx="300" cy="-667" rx="36" ry="18"/>
<text text-anchor="middle" x="300" y="-663.3" font-family="Times,serif" font-size="14.00">C6S8</text>
</g>
<!-- C5S7&#45;&gt;C6S8 -->
<g id="edge22" class="edge">
<title>C5S7&#45;&gt;C6S8</title>
<path fill="none" stroke="black" stroke-dasharray="5,2" d="M124.81,-322.04C79.28,-337.64 0,-368.86 0,-397 0,-581 0,-581 0,-581 0,-633.29 170.85,-655.07 254.69,-662.6"/>
<polygon fill="black" stroke="black" points="264.7,-663.47 254.35,-667.09 259.72,-663.04 254.74,-662.61 254.74,-662.61 254.74,-662.61 259.72,-663.04 255.13,-658.13 264.7,-663.47 264.7,-663.47"/>
<text text-anchor="middle" x="16.5" y="-485.3" font-family="Times,serif" font-size="14.00">O3 ε</text>
</g>
<!-- C6S9 -->
<g id="node18" class="node">
<title>C6S9</title>
<ellipse fill="white" stroke="black" cx="301" cy="-580" rx="36" ry="18"/>
<text text-anchor="middle" x="301" y="-576.3" font-family="Times,serif" font-size="14.00">C6S9</text>
</g>
<!-- C6S8&#45;&gt;C6S9 -->
<g id="edge9" class="edge">
<title>C6S8&#45;&gt;C6S9</title>
<path fill="none" stroke="darkgray" d="M300.2,-648.8C300.34,-637.16 300.52,-621.55 300.68,-608.24"/>
<polygon fill="darkgray" stroke="darkgray" points="304.18,-608.22 300.8,-598.18 297.18,-608.13 304.18,-608.22"/>
<text text-anchor="middle" x="317.5" y="-619.8" font-family="Times,serif" font-size="14.00" fill="darkgray">t5R2</text>
</g>
<!-- C6S5 -->
<g id="node15" class="node">
<title>C6S5</title>
<ellipse fill="white" stroke="black" cx="302" cy="-489" rx="36" ry="18"/>
<text text-anchor="middle" x="302" y="-485.3" font-family="Times,serif" font-size="14.00">C6S5</text>
</g>
<!-- C6S6 -->
<g id="node16" class="node">
<title>C6S6</title>
<polygon fill="white" stroke="black" points="340.89,-390.54 340.89,-405.46 318.11,-416 285.89,-416 263.11,-405.46 263.11,-390.54 285.89,-380 318.11,-380 340.89,-390.54"/>
<text text-anchor="middle" x="302" y="-394.3" font-family="Times,serif" font-size="14.00">C6S6</text>
</g>
<!-- C6S5&#45;&gt;C6S6 -->
<g id="edge10" class="edge">
<title>C6S5&#45;&gt;C6S6</title>
<path fill="none" stroke="darkgray" d="M302,-470.84C302,-458.28 302,-440.98 302,-426.5"/>
<polygon fill="darkgray" stroke="darkgray" points="305.5,-426.11 302,-416.11 298.5,-426.11 305.5,-426.11"/>
<text text-anchor="middle" x="310" y="-437.8" font-family="Times,serif" font-size="14.00" fill="darkgray">t4</text>
</g>
<!-- C6S1 -->
<g id="node17" class="node">
<title>C6S1</title>
<polygon fill="white" stroke="black" points="435.89,-390.54 435.89,-405.46 413.11,-416 380.89,-416 358.11,-405.46 358.11,-390.54 380.89,-380 413.11,-380 435.89,-390.54"/>
<text text-anchor="middle" x="397" y="-394.3" font-family="Times,serif" font-size="14.00">C6S1</text>
</g>
<!-- C6S5&#45;&gt;C6S1 -->
<g id="edge11" class="edge">
<title>C6S5&#45;&gt;C6S1</title>
<path fill="none" stroke="darkgray" d="M318.12,-472.9C332.9,-459.05 355.02,-438.33 372.08,-422.35"/>
<polygon fill="darkgray" stroke="darkgray" points="374.61,-424.77 379.52,-415.38 369.82,-419.66 374.61,-424.77"/>
<text text-anchor="middle" x="375.5" y="-437.8" font-family="Times,serif" font-size="14.00" fill="darkgray">t5R2</text>
</g>
<!-- C6S6&#45;&gt;C5S7 -->
<g id="edge24" class="edge">
<title>C6S6&#45;&gt;C5S7</title>
<path fill="none" stroke="black" stroke-dasharray="5,2" d="M275.93,-384.25C256.59,-374.77 233.2,-363.27 231,-362 215.54,-353.09 198.97,-342.2 185.35,-332.85"/>
<polygon fill="black" stroke="black" points="176.87,-326.98 187.65,-328.97 180.98,-329.82 185.09,-332.67 185.09,-332.67 185.09,-332.67 180.98,-329.82 182.53,-336.37 176.87,-326.98 176.87,-326.98"/>
<text text-anchor="middle" x="259.5" y="-350.8" font-family="Times,serif" font-size="14.00">O2 r2r1</text>
</g>
<!-- C6S1&#45;&gt;C3S2 -->
<g id="edge23" class="edge">
<title>C6S1&#45;&gt;C3S2</title>
<path fill="none" stroke="black" stroke-dasharray="5,2" d="M394.23,-379.77C393.5,-369.38 394.35,-356.38 401,-347 409.74,-334.67 423.84,-326.63 437.72,-321.4"/>
<polygon fill="black" stroke="black" points="447.23,-318.22 439.18,-325.66 442.49,-319.8 437.75,-321.39 437.75,-321.39 437.75,-321.39 442.49,-319.8 436.32,-317.13 447.23,-318.22 447.23,-318.22"/>
<text text-anchor="middle" x="437.5" y="-350.8" font-family="Times,serif" font-size="14.00">O2 r2r1r2</text>
</g>
<!-- C6S9&#45;&gt;C6S5 -->
<g id="edge12" class="edge">
<title>C6S9&#45;&gt;C6S5</title>
<path fill="none" stroke="darkgray" d="M301.19,-561.84C301.33,-549.28 301.53,-531.98 301.69,-517.5"/>
<polygon fill="darkgray" stroke="darkgray" points="305.2,-517.15 301.81,-507.11 298.2,-517.07 305.2,-517.15"/>
<text text-anchor="middle" x="318.5" y="-532.8" font-family="Times,serif" font-size="14.00" fill="darkgray">t2R1</text>
</g>
<!-- C7S9 -->
<g id="node19" class="node">
<title>C7S9</title>
<ellipse fill="white" stroke="black" cx="532" cy="-580" rx="36" ry="18"/>
<text text-anchor="middle" x="532" y="-576.3" font-family="Times,serif" font-size="14.00">C7S9</text>
</g>
<!-- C7S5 -->
<g id="node20" class="node">
<title>C7S5</title>
<ellipse fill="white" stroke="black" cx="532" cy="-489" rx="36" ry="18"/>
<text text-anchor="middle" x="532" y="-485.3" font-family="Times,serif" font-size="14.00">C7S5</text>
</g>
<!-- C7S9&#45;&gt;C7S5 -->
<g id="edge13" class="edge">
<title>C7S9&#45;&gt;C7S5</title>
<path fill="none" stroke="darkgray" d="M532,-561.84C532,-549.28 532,-531.98 532,-517.5"/>
<polygon fill="darkgray" stroke="darkgray" points="535.5,-517.11 532,-507.11 528.5,-517.11 535.5,-517.11"/>
<text text-anchor="middle" x="549.5" y="-532.8" font-family="Times,serif" font-size="14.00" fill="darkgray">t2R1</text>
</g>
<!-- C7S6 -->
<g id="node21" class="node">
<title>C7S6</title>
<polygon fill="white" stroke="black" points="537.89,-390.54 537.89,-405.46 515.11,-416 482.89,-416 460.11,-405.46 460.11,-390.54 482.89,-380 515.11,-380 537.89,-390.54"/>
<text text-anchor="middle" x="499" y="-394.3" font-family="Times,serif" font-size="14.00">C7S6</text>
</g>
<!-- C7S5&#45;&gt;C7S6 -->
<g id="edge14" class="edge">
<title>C7S5&#45;&gt;C7S6</title>
<path fill="none" stroke="darkgray" d="M525.79,-471.26C521.06,-458.5 514.45,-440.66 508.97,-425.9"/>
<polygon fill="darkgray" stroke="darkgray" points="512.16,-424.43 505.4,-416.27 505.6,-426.87 512.16,-424.43"/>
<text text-anchor="middle" x="525" y="-437.8" font-family="Times,serif" font-size="14.00" fill="darkgray">t4</text>
</g>
<!-- C7S1 -->
<g id="node22" class="node">
<title>C7S1</title>
<polygon fill="white" stroke="black" points="632.89,-390.54 632.89,-405.46 610.11,-416 577.89,-416 555.11,-405.46 555.11,-390.54 577.89,-380 610.11,-380 632.89,-390.54"/>
<text text-anchor="middle" x="594" y="-394.3" font-family="Times,serif" font-size="14.00">C7S1</text>
</g>
<!-- C7S5&#45;&gt;C7S1 -->
<g id="edge15" class="edge">
<title>C7S5&#45;&gt;C7S1</title>
<path fill="none" stroke="darkgray" d="M543.37,-471.68C552.55,-458.5 565.62,-439.74 576.19,-424.57"/>
<polygon fill="darkgray" stroke="darkgray" points="579.22,-426.34 582.07,-416.13 573.48,-422.34 579.22,-426.34"/>
<text text-anchor="middle" x="585.5" y="-437.8" font-family="Times,serif" font-size="14.00" fill="darkgray">t5R2</text>
</g>
<!-- C7S6&#45;&gt;C5S7 -->
<g id="edge26" class="edge">
<title>C7S6&#45;&gt;C5S7</title>
<path fill="none" stroke="black" stroke-dasharray="5,2" d="M495.03,-379.71C491.48,-368.46 485.09,-354.52 474,-347 452.22,-332.23 382.17,-339.74 356,-337 304.46,-331.6 245.61,-324.08 205.16,-318.7"/>
<polygon fill="black" stroke="black" points="195.04,-317.35 205.54,-314.21 199.99,-318.01 204.95,-318.67 204.95,-318.67 204.95,-318.67 199.99,-318.01 204.35,-323.13 195.04,-317.35 195.04,-317.35"/>
<text text-anchor="middle" x="506.5" y="-350.8" font-family="Times,serif" font-size="14.00">O2 r1</text>
</g>
<!-- C7S1&#45;&gt;C3S2 -->
<g id="edge25" class="edge">
<title>C7S1&#45;&gt;C3S2</title>
<path fill="none" stroke="black" stroke-dasharray="5,2" d="M577.72,-379.71C567.67,-369.54 554.2,-356.8 541,-347 532.4,-340.61 522.53,-334.49 513.26,-329.21"/>
<polygon fill="black" stroke="black" points="504.28,-324.22 515.2,-325.14 508.65,-326.65 513.02,-329.07 513.02,-329.07 513.02,-329.07 508.65,-326.65 510.84,-333.01 504.28,-324.22 504.28,-324.22"/>
<text text-anchor="middle" x="586.5" y="-350.8" font-family="Times,serif" font-size="14.00">O2 r1r2</text>
</g>
</g>
</svg>
