<?xml version="1.0" encoding="UTF-8" standalone="no"?>
<!DOCTYPE svg PUBLIC "-//W3C//DTD SVG 1.1//EN"
 "http://www.w3.org/Graphics/SVG/1.1/DTD/svg11.dtd">
<!-- Generated by graphviz version 2.43.0 (0)
 -->
<!-- Title: EXPinput/e Pages: 1 -->
<svg width="707pt" height="816pt"
 viewBox="0.00 0.00 707.00 816.00" xmlns="http://www.w3.org/2000/svg" xmlns:xlink="http://www.w3.org/1999/xlink">
<g id="graph0" class="graph" transform="scale(1 1) rotate(0) translate(4 812)">
<title>EXPinput/e</title>
<polygon fill="white" stroke="transparent" points="-4,4 -4,-812 703,-812 703,4 -4,4"/>
<g id="clust1" class="cluster">
<title>cluster0</title>
<path fill="#eaffee" stroke="#eaffee" d="M20,-501C20,-501 74,-501 74,-501 80,-501 86,-507 86,-513 86,-513 86,-572 86,-572 86,-578 80,-584 74,-584 74,-584 20,-584 20,-584 14,-584 8,-578 8,-572 8,-572 8,-513 8,-513 8,-507 14,-501 20,-501"/>
<text text-anchor="middle" x="47" y="-568.8" font-family="Times,serif" font-size="14.00" fill="#b2ccbb">C0</text>
</g>
<g id="clust2" class="cluster">
<title>cluster1</title>
<path fill="#eaffee" stroke="#eaffee" d="M24,-393C24,-393 70,-393 70,-393 76,-393 82,-399 82,-405 82,-405 82,-456 82,-456 82,-462 76,-468 70,-468 70,-468 24,-468 24,-468 18,-468 12,-462 12,-456 12,-456 12,-405 12,-405 12,-399 18,-393 24,-393"/>
<text text-anchor="middle" x="47" y="-452.8" font-family="Times,serif" font-size="14.00" fill="#b2ccbb">C1</text>
</g>
<g id="clust3" class="cluster">
<title>cluster2</title>
<path fill="#eaffee" stroke="#eaffee" d="M147,-8C147,-8 281,-8 281,-8 287,-8 293,-14 293,-20 293,-20 293,-348 293,-348 293,-354 287,-360 281,-360 281,-360 147,-360 147,-360 141,-360 135,-354 135,-348 135,-348 135,-20 135,-20 135,-14 141,-8 147,-8"/>
<text text-anchor="middle" x="214" y="-344.8" font-family="Times,serif" font-size="14.00" fill="#b2ccbb">C2</text>
</g>
<g id="clust4" class="cluster">
<title>cluster3</title>
<path fill="#eaffee" stroke="#eaffee" d="M147,-393C147,-393 265,-393 265,-393 271,-393 277,-399 277,-405 277,-405 277,-568 277,-568 277,-574 271,-580 265,-580 265,-580 147,-580 147,-580 141,-580 135,-574 135,-568 135,-568 135,-405 135,-405 135,-399 141,-393 147,-393"/>
<text text-anchor="middle" x="206" y="-564.8" font-family="Times,serif" font-size="14.00" fill="#b2ccbb">C3</text>
</g>
<g id="clust5" class="cluster">
<title>cluster4</title>
<path fill="#eaffee" stroke="#eaffee" d="M403,-285C403,-285 449,-285 449,-285 455,-285 461,-291 461,-297 461,-297 461,-348 461,-348 461,-354 455,-360 449,-360 449,-360 403,-360 403,-360 397,-360 391,-354 391,-348 391,-348 391,-297 391,-297 391,-291 397,-285 403,-285"/>
<text text-anchor="middle" x="426" y="-344.8" font-family="Times,serif" font-size="14.00" fill="#b2ccbb">C4</text>
</g>
<g id="clust6" class="cluster">
<title>cluster5</title>
<path fill="#eaffee" stroke="#eaffee" d="M297,-393C297,-393 415,-393 415,-393 421,-393 427,-399 427,-405 427,-405 427,-788 427,-788 427,-794 421,-800 415,-800 415,-800 297,-800 297,-800 291,-800 285,-794 285,-788 285,-788 285,-405 285,-405 285,-399 291,-393 297,-393"/>
<text text-anchor="middle" x="356" y="-784.8" font-family="Times,serif" font-size="14.00" fill="#b2ccbb">C5</text>
</g>
<g id="clust7" class="cluster">
<title>cluster6</title>
<path fill="#eaffee" stroke="#eaffee" d="M508,-393C508,-393 626,-393 626,-393 632,-393 638,-399 638,-405 638,-405 638,-680 638,-680 638,-686 632,-692 626,-692 626,-692 508,-692 508,-692 502,-692 496,-686 496,-680 496,-680 496,-405 496,-405 496,-399 502,-393 508,-393"/>
<text text-anchor="middle" x="567" y="-676.8" font-family="Times,serif" font-size="14.00" fill="#b2ccbb">C6</text>
</g>
<!-- C0S0 -->
<g id="node1" class="node">
<title>C0S0</title>
<polygon fill="white" stroke="black" points="74,-523.54 74,-538.46 58.18,-549 35.82,-549 20,-538.46 20,-523.54 35.82,-513 58.18,-513 74,-523.54"/>
<polygon fill="none" stroke="black" points="78,-521.4 78,-540.6 59.39,-553 34.61,-553 16,-540.6 16,-521.4 34.61,-509 59.39,-509 78,-521.4"/>
<text text-anchor="middle" x="47" y="-527.3" font-family="Times,serif" font-size="14.00">0</text>
</g>
<!-- C1S1 -->
<g id="node2" class="node">
<title>C1S1</title>
<polygon fill="white" stroke="black" points="74,-411.54 74,-426.46 58.18,-437 35.82,-437 20,-426.46 20,-411.54 35.82,-401 58.18,-401 74,-411.54"/>
<text text-anchor="middle" x="47" y="-415.3" font-family="Times,serif" font-size="14.00">1</text>
</g>
<!-- C0S0&#45;&gt;C1S1 -->
<g id="edge18" class="edge">
<title>C0S0&#45;&gt;C1S1</title>
<path fill="none" stroke="black" stroke-dasharray="5,2" d="M47,-508.79C47,-491.28 47,-466.3 47,-447.3"/>
<polygon fill="black" stroke="black" points="47,-437.17 51.5,-447.17 47,-442.17 47,-447.17 47,-447.17 47,-447.17 47,-442.17 42.5,-447.17 47,-437.17 47,-437.17"/>
<text text-anchor="middle" x="63.5" y="-479.8" font-family="Times,serif" font-size="14.00">O3 ε</text>
</g>
<!-- C2S2 -->
<g id="node3" class="node">
<title>C2S2</title>
<ellipse fill="white" stroke="black" cx="213" cy="-311" rx="27" ry="18"/>
<text text-anchor="middle" x="213" y="-307.3" font-family="Times,serif" font-size="14.00">2</text>
</g>
<!-- C1S1&#45;&gt;C2S2 -->
<g id="edge19" class="edge">
<title>C1S1&#45;&gt;C2S2</title>
<path fill="none" stroke="black" stroke-dasharray="5,2" d="M68.26,-407.34C89.68,-396.33 123.4,-378.23 151,-360 163.94,-351.45 177.65,-341 188.87,-332.04"/>
<polygon fill="black" stroke="black" points="196.92,-325.53 191.97,-335.32 193.03,-328.67 189.14,-331.82 189.14,-331.82 189.14,-331.82 193.03,-328.67 186.31,-328.32 196.92,-325.53 196.92,-325.53"/>
<text text-anchor="middle" x="154.5" y="-371.8" font-family="Times,serif" font-size="14.00">O2 ε</text>
</g>
<!-- C2S3 -->
<g id="node5" class="node">
<title>C2S3</title>
<polygon fill="white" stroke="black" points="201,-212.54 201,-227.46 185.18,-238 162.82,-238 147,-227.46 147,-212.54 162.82,-202 185.18,-202 201,-212.54"/>
<polygon fill="none" stroke="black" points="205,-210.4 205,-229.6 186.39,-242 161.61,-242 143,-229.6 143,-210.4 161.61,-198 186.39,-198 205,-210.4"/>
<text text-anchor="middle" x="174" y="-216.3" font-family="Times,serif" font-size="14.00">3</text>
</g>
<!-- C2S2&#45;&gt;C2S3 -->
<g id="edge1" class="edge">
<title>C2S2&#45;&gt;C2S3</title>
<path fill="none" stroke="darkgray" d="M204.82,-293.72C201.95,-287.86 198.75,-281.17 196,-275 192.64,-267.46 189.18,-259.24 186.04,-251.54"/>
<polygon fill="darkgray" stroke="darkgray" points="189.24,-250.13 182.25,-242.16 182.75,-252.75 189.24,-250.13"/>
<text text-anchor="middle" x="204" y="-263.8" font-family="Times,serif" font-size="14.00" fill="darkgray">t4</text>
</g>
<!-- C2S12 -->
<g id="node7" class="node">
<title>C2S12</title>
<polygon fill="white" stroke="black" points="281,-212.54 281,-227.46 265.18,-238 242.82,-238 227,-227.46 227,-212.54 242.82,-202 265.18,-202 281,-212.54"/>
<polygon fill="none" stroke="black" points="285,-210.4 285,-229.6 266.39,-242 241.61,-242 223,-229.6 223,-210.4 241.61,-198 266.39,-198 285,-210.4"/>
<text text-anchor="middle" x="254" y="-216.3" font-family="Times,serif" font-size="14.00">12</text>
</g>
<!-- C2S2&#45;&gt;C2S12 -->
<g id="edge2" class="edge">
<title>C2S2&#45;&gt;C2S12</title>
<path fill="none" stroke="darkgray" d="M220.52,-293.68C225.93,-281.93 233.39,-265.74 239.89,-251.62"/>
<polygon fill="darkgray" stroke="darkgray" points="243.2,-252.81 244.21,-242.26 236.84,-249.88 243.2,-252.81"/>
<text text-anchor="middle" x="245.5" y="-263.8" font-family="Times,serif" font-size="14.00" fill="darkgray">t5f</text>
</g>
<!-- C2S0 -->
<g id="node4" class="node">
<title>C2S0</title>
<polygon fill="white" stroke="black" points="201,-30.54 201,-45.46 185.18,-56 162.82,-56 147,-45.46 147,-30.54 162.82,-20 185.18,-20 201,-30.54"/>
<polygon fill="none" stroke="black" points="205,-28.4 205,-47.6 186.39,-60 161.61,-60 143,-47.6 143,-28.4 161.61,-16 186.39,-16 205,-28.4"/>
<text text-anchor="middle" x="174" y="-34.3" font-family="Times,serif" font-size="14.00">0</text>
</g>
<!-- C2S0&#45;&gt;C1S1 -->
<g id="edge20" class="edge">
<title>C2S0&#45;&gt;C1S1</title>
<path fill="none" stroke="black" stroke-dasharray="5,2" d="M142.93,-44.47C101.68,-53.73 34,-76.73 34,-128 34,-312 34,-312 34,-312 34,-338.96 38.2,-369.5 41.82,-390.85"/>
<polygon fill="black" stroke="black" points="43.58,-400.82 37.41,-391.76 42.71,-395.9 41.84,-390.97 41.84,-390.97 41.84,-390.97 42.71,-395.9 46.27,-390.19 43.58,-400.82 43.58,-400.82"/>
<text text-anchor="middle" x="52.5" y="-216.3" font-family="Times,serif" font-size="14.00">O3 fr</text>
</g>
<!-- C2S4 -->
<g id="node6" class="node">
<title>C2S4</title>
<polygon fill="white" stroke="black" points="198,-121.54 198,-136.46 182.18,-147 159.82,-147 144,-136.46 144,-121.54 159.82,-111 182.18,-111 198,-121.54"/>
<text text-anchor="middle" x="171" y="-125.3" font-family="Times,serif" font-size="14.00">4</text>
</g>
<!-- C2S3&#45;&gt;C2S4 -->
<g id="edge3" class="edge">
<title>C2S3&#45;&gt;C2S4</title>
<path fill="none" stroke="darkgray" d="M173.29,-197.91C172.88,-185.78 172.36,-170.41 171.92,-157.36"/>
<polygon fill="darkgray" stroke="darkgray" points="175.41,-156.94 171.58,-147.07 168.41,-157.18 175.41,-156.94"/>
<text text-anchor="middle" x="183" y="-168.8" font-family="Times,serif" font-size="14.00" fill="darkgray">t2r</text>
</g>
<!-- C6S11 -->
<g id="node21" class="node">
<title>C6S11</title>
<ellipse fill="white" stroke="black" cx="603" cy="-643" rx="27" ry="18"/>
<text text-anchor="middle" x="603" y="-639.3" font-family="Times,serif" font-size="14.00">11</text>
</g>
<!-- C2S3&#45;&gt;C6S11 -->
<g id="edge21" class="edge">
<title>C2S3&#45;&gt;C6S11</title>
<path fill="none" stroke="black" stroke-dasharray="5,2" d="M197.54,-235.01C202.81,-237.68 208.48,-240.19 214,-242 310.53,-273.6 666,-208.43 666,-310 666,-532 666,-532 666,-532 666,-566.19 642.79,-599.4 624.55,-620.22"/>
<polygon fill="black" stroke="black" points="617.61,-627.83 621.02,-617.41 620.98,-624.14 624.35,-620.44 624.35,-620.44 624.35,-620.44 620.98,-624.14 627.67,-623.48 617.61,-627.83 617.61,-627.83"/>
<text text-anchor="middle" x="682.5" y="-415.3" font-family="Times,serif" font-size="14.00">O3 ε</text>
</g>
<!-- C3S5 -->
<g id="node10" class="node">
<title>C3S5</title>
<ellipse fill="white" stroke="black" cx="170" cy="-531" rx="27" ry="18"/>
<text text-anchor="middle" x="170" y="-527.3" font-family="Times,serif" font-size="14.00">5</text>
</g>
<!-- C2S4&#45;&gt;C3S5 -->
<g id="edge22" class="edge">
<title>C2S4&#45;&gt;C3S5</title>
<path fill="none" stroke="black" stroke-dasharray="5,2" d="M155.1,-144.03C138.55,-160.27 115,-188.7 115,-219 115,-420 115,-420 115,-420 115,-452.84 134.85,-485.93 150.7,-507.11"/>
<polygon fill="black" stroke="black" points="156.97,-515.15 147.27,-510.03 153.89,-511.21 150.82,-507.26 150.82,-507.26 150.82,-507.26 153.89,-511.21 154.38,-504.5 156.97,-515.15 156.97,-515.15"/>
<text text-anchor="middle" x="131" y="-307.3" font-family="Times,serif" font-size="14.00">O3 r</text>
</g>
<!-- C2S13 -->
<g id="node8" class="node">
<title>C2S13</title>
<ellipse fill="white" stroke="black" cx="254" cy="-129" rx="27" ry="18"/>
<text text-anchor="middle" x="254" y="-125.3" font-family="Times,serif" font-size="14.00">13</text>
</g>
<!-- C2S12&#45;&gt;C2S13 -->
<g id="edge4" class="edge">
<title>C2S12&#45;&gt;C2S13</title>
<path fill="none" stroke="darkgray" d="M254,-197.91C254,-185.78 254,-170.41 254,-157.36"/>
<polygon fill="darkgray" stroke="darkgray" points="257.5,-157.07 254,-147.07 250.5,-157.07 257.5,-157.07"/>
<text text-anchor="middle" x="265" y="-168.8" font-family="Times,serif" font-size="14.00" fill="darkgray">t2r</text>
</g>
<!-- C2S13&#45;&gt;C2S0 -->
<g id="edge5" class="edge">
<title>C2S13&#45;&gt;C2S0</title>
<path fill="none" stroke="darkgray" d="M240.43,-112.9C228.74,-99.89 211.59,-80.82 197.65,-65.31"/>
<polygon fill="darkgray" stroke="darkgray" points="199.98,-62.67 190.69,-57.57 194.78,-67.35 199.98,-62.67"/>
<text text-anchor="middle" x="229" y="-81.8" font-family="Times,serif" font-size="14.00" fill="darkgray">t4</text>
</g>
<!-- C2S14 -->
<g id="node9" class="node">
<title>C2S14</title>
<polygon fill="white" stroke="black" points="281,-30.54 281,-45.46 265.18,-56 242.82,-56 227,-45.46 227,-30.54 242.82,-20 265.18,-20 281,-30.54"/>
<polygon fill="none" stroke="black" points="285,-28.4 285,-47.6 266.39,-60 241.61,-60 223,-47.6 223,-28.4 241.61,-16 266.39,-16 285,-28.4"/>
<text text-anchor="middle" x="254" y="-34.3" font-family="Times,serif" font-size="14.00">14</text>
</g>
<!-- C2S13&#45;&gt;C2S14 -->
<g id="edge6" class="edge">
<title>C2S13&#45;&gt;C2S14</title>
<path fill="none" stroke="darkgray" d="M254,-110.84C254,-99.44 254,-84.13 254,-70.58"/>
<polygon fill="darkgray" stroke="darkgray" points="257.5,-70.19 254,-60.19 250.5,-70.19 257.5,-70.19"/>
<text text-anchor="middle" x="264.5" y="-81.8" font-family="Times,serif" font-size="14.00" fill="darkgray">t5f</text>
</g>
<!-- C3S1 -->
<g id="node11" class="node">
<title>C3S1</title>
<polygon fill="white" stroke="black" points="197,-411.54 197,-426.46 181.18,-437 158.82,-437 143,-426.46 143,-411.54 158.82,-401 181.18,-401 197,-411.54"/>
<text text-anchor="middle" x="170" y="-415.3" font-family="Times,serif" font-size="14.00">1</text>
</g>
<!-- C3S5&#45;&gt;C3S1 -->
<g id="edge8" class="edge">
<title>C3S5&#45;&gt;C3S1</title>
<path fill="none" stroke="darkgray" d="M170,-512.81C170,-495.21 170,-467.61 170,-447.07"/>
<polygon fill="darkgray" stroke="darkgray" points="173.5,-447.07 170,-437.07 166.5,-447.07 173.5,-447.07"/>
<text text-anchor="middle" x="180.5" y="-479.8" font-family="Times,serif" font-size="14.00" fill="darkgray">t5f</text>
</g>
<!-- C3S6 -->
<g id="node12" class="node">
<title>C3S6</title>
<polygon fill="white" stroke="black" points="269,-411.54 269,-426.46 253.18,-437 230.82,-437 215,-426.46 215,-411.54 230.82,-401 253.18,-401 269,-411.54"/>
<text text-anchor="middle" x="242" y="-415.3" font-family="Times,serif" font-size="14.00">6</text>
</g>
<!-- C3S5&#45;&gt;C3S6 -->
<g id="edge7" class="edge">
<title>C3S5&#45;&gt;C3S6</title>
<path fill="none" stroke="darkgray" d="M180.32,-514.24C192.02,-496.36 211.28,-466.93 225.17,-445.71"/>
<polygon fill="darkgray" stroke="darkgray" points="228.21,-447.46 230.75,-437.18 222.35,-443.63 228.21,-447.46"/>
<text text-anchor="middle" x="211" y="-479.8" font-family="Times,serif" font-size="14.00" fill="darkgray">t4</text>
</g>
<!-- C3S1&#45;&gt;C2S2 -->
<g id="edge23" class="edge">
<title>C3S1&#45;&gt;C2S2</title>
<path fill="none" stroke="black" stroke-dasharray="5,2" d="M176.91,-400.97C183.81,-383.95 194.52,-357.55 202.48,-337.93"/>
<polygon fill="black" stroke="black" points="206.25,-328.64 206.66,-339.6 204.37,-333.27 202.49,-337.91 202.49,-337.91 202.49,-337.91 204.37,-333.27 198.32,-336.21 206.25,-328.64 206.25,-328.64"/>
<text text-anchor="middle" x="205.5" y="-371.8" font-family="Times,serif" font-size="14.00">O2 f</text>
</g>
<!-- C4S7 -->
<g id="node13" class="node">
<title>C4S7</title>
<polygon fill="white" stroke="black" points="453,-303.54 453,-318.46 437.18,-329 414.82,-329 399,-318.46 399,-303.54 414.82,-293 437.18,-293 453,-303.54"/>
<text text-anchor="middle" x="426" y="-307.3" font-family="Times,serif" font-size="14.00">7</text>
</g>
<!-- C3S6&#45;&gt;C4S7 -->
<g id="edge24" class="edge">
<title>C3S6&#45;&gt;C4S7</title>
<path fill="none" stroke="black" stroke-dasharray="5,2" d="M260.12,-405.11C266.53,-400.9 273.91,-396.44 281,-393 293.27,-387.06 297.67,-388.82 310,-383 342.05,-367.89 376.39,-346.09 399.32,-330.64"/>
<polygon fill="black" stroke="black" points="407.81,-324.86 402.08,-334.21 403.68,-327.67 399.55,-330.49 399.55,-330.49 399.55,-330.49 403.68,-327.67 397.02,-326.77 407.81,-324.86 407.81,-324.86"/>
<text text-anchor="middle" x="352.5" y="-371.8" font-family="Times,serif" font-size="14.00">O2 ε</text>
</g>
<!-- C5S8 -->
<g id="node14" class="node">
<title>C5S8</title>
<ellipse fill="white" stroke="black" cx="392" cy="-751" rx="27" ry="18"/>
<text text-anchor="middle" x="392" y="-747.3" font-family="Times,serif" font-size="14.00">8</text>
</g>
<!-- C4S7&#45;&gt;C5S8 -->
<g id="edge25" class="edge">
<title>C4S7&#45;&gt;C5S8</title>
<path fill="none" stroke="black" stroke-dasharray="5,2" d="M433.77,-329.23C442.36,-349.89 455,-385.76 455,-418 455,-644 455,-644 455,-644 455,-676.88 432.32,-708.47 414.17,-728.48"/>
<polygon fill="black" stroke="black" points="407.25,-735.81 410.84,-725.45 410.68,-732.17 414.12,-728.53 414.12,-728.53 414.12,-728.53 410.68,-732.17 417.39,-731.62 407.25,-735.81 407.25,-735.81"/>
<text text-anchor="middle" x="471.5" y="-527.3" font-family="Times,serif" font-size="14.00">O3 ε</text>
</g>
<!-- C5S9 -->
<g id="node18" class="node">
<title>C5S9</title>
<ellipse fill="white" stroke="black" cx="320" cy="-643" rx="27" ry="18"/>
<text text-anchor="middle" x="320" y="-639.3" font-family="Times,serif" font-size="14.00">9</text>
</g>
<!-- C5S8&#45;&gt;C5S9 -->
<g id="edge9" class="edge">
<title>C5S8&#45;&gt;C5S9</title>
<path fill="none" stroke="darkgray" d="M381.38,-734.36C369.52,-716.9 350.19,-688.44 336.39,-668.13"/>
<polygon fill="darkgray" stroke="darkgray" points="339.18,-666.01 330.67,-659.7 333.39,-669.94 339.18,-666.01"/>
<text text-anchor="middle" x="374" y="-703.8" font-family="Times,serif" font-size="14.00" fill="darkgray">t4</text>
</g>
<!-- C5S11 -->
<g id="node20" class="node">
<title>C5S11</title>
<ellipse fill="white" stroke="black" cx="392" cy="-643" rx="27" ry="18"/>
<text text-anchor="middle" x="392" y="-639.3" font-family="Times,serif" font-size="14.00">11</text>
</g>
<!-- C5S8&#45;&gt;C5S11 -->
<g id="edge10" class="edge">
<title>C5S8&#45;&gt;C5S11</title>
<path fill="none" stroke="darkgray" d="M392,-732.97C392,-716.38 392,-690.88 392,-671.43"/>
<polygon fill="darkgray" stroke="darkgray" points="395.5,-671.34 392,-661.34 388.5,-671.34 395.5,-671.34"/>
<text text-anchor="middle" x="402.5" y="-703.8" font-family="Times,serif" font-size="14.00" fill="darkgray">t5f</text>
</g>
<!-- C5S5 -->
<g id="node15" class="node">
<title>C5S5</title>
<ellipse fill="white" stroke="black" cx="392" cy="-531" rx="27" ry="18"/>
<text text-anchor="middle" x="392" y="-527.3" font-family="Times,serif" font-size="14.00">5</text>
</g>
<!-- C5S6 -->
<g id="node16" class="node">
<title>C5S6</title>
<polygon fill="white" stroke="black" points="419,-411.54 419,-426.46 403.18,-437 380.82,-437 365,-426.46 365,-411.54 380.82,-401 403.18,-401 419,-411.54"/>
<text text-anchor="middle" x="392" y="-415.3" font-family="Times,serif" font-size="14.00">6</text>
</g>
<!-- C5S5&#45;&gt;C5S6 -->
<g id="edge11" class="edge">
<title>C5S5&#45;&gt;C5S6</title>
<path fill="none" stroke="darkgray" d="M392,-512.81C392,-495.21 392,-467.61 392,-447.07"/>
<polygon fill="darkgray" stroke="darkgray" points="395.5,-447.07 392,-437.07 388.5,-447.07 395.5,-447.07"/>
<text text-anchor="middle" x="400" y="-479.8" font-family="Times,serif" font-size="14.00" fill="darkgray">t4</text>
</g>
<!-- C5S1 -->
<g id="node17" class="node">
<title>C5S1</title>
<polygon fill="white" stroke="black" points="347,-411.54 347,-426.46 331.18,-437 308.82,-437 293,-426.46 293,-411.54 308.82,-401 331.18,-401 347,-411.54"/>
<text text-anchor="middle" x="320" y="-415.3" font-family="Times,serif" font-size="14.00">1</text>
</g>
<!-- C5S5&#45;&gt;C5S1 -->
<g id="edge12" class="edge">
<title>C5S5&#45;&gt;C5S1</title>
<path fill="none" stroke="darkgray" d="M381.68,-514.24C369.98,-496.36 350.72,-466.93 336.83,-445.71"/>
<polygon fill="darkgray" stroke="darkgray" points="339.65,-443.63 331.25,-437.18 333.79,-447.46 339.65,-443.63"/>
<text text-anchor="middle" x="374.5" y="-479.8" font-family="Times,serif" font-size="14.00" fill="darkgray">t5f</text>
</g>
<!-- C5S6&#45;&gt;C4S7 -->
<g id="edge27" class="edge">
<title>C5S6&#45;&gt;C4S7</title>
<path fill="none" stroke="black" stroke-dasharray="5,2" d="M395.53,-400.71C397.66,-391.01 400.62,-378.73 404,-368 407.04,-358.34 410.93,-347.97 414.6,-338.81"/>
<polygon fill="black" stroke="black" points="418.43,-329.43 418.81,-340.39 416.54,-334.06 414.64,-338.69 414.64,-338.69 414.64,-338.69 416.54,-334.06 410.48,-336.98 418.43,-329.43 418.43,-329.43"/>
<text text-anchor="middle" x="422.5" y="-371.8" font-family="Times,serif" font-size="14.00">O2 fr</text>
</g>
<!-- C5S1&#45;&gt;C2S2 -->
<g id="edge26" class="edge">
<title>C5S1&#45;&gt;C2S2</title>
<path fill="none" stroke="black" stroke-dasharray="5,2" d="M300.97,-405.87C287,-396.9 269.96,-385.77 267,-383 252.2,-369.16 238.43,-350.92 228.49,-336.39"/>
<polygon fill="black" stroke="black" points="222.83,-327.9 232.12,-333.72 225.6,-332.06 228.37,-336.22 228.37,-336.22 228.37,-336.22 225.6,-332.06 224.63,-338.72 222.83,-327.9 222.83,-327.9"/>
<text text-anchor="middle" x="288.5" y="-371.8" font-family="Times,serif" font-size="14.00">O2 frf</text>
</g>
<!-- C5S10 -->
<g id="node19" class="node">
<title>C5S10</title>
<ellipse fill="white" stroke="black" cx="320" cy="-531" rx="27" ry="18"/>
<text text-anchor="middle" x="320" y="-527.3" font-family="Times,serif" font-size="14.00">10</text>
</g>
<!-- C5S9&#45;&gt;C5S10 -->
<g id="edge13" class="edge">
<title>C5S9&#45;&gt;C5S10</title>
<path fill="none" stroke="darkgray" d="M320,-624.81C320,-607.21 320,-579.61 320,-559.07"/>
<polygon fill="darkgray" stroke="darkgray" points="323.5,-559.07 320,-549.07 316.5,-559.07 323.5,-559.07"/>
<text text-anchor="middle" x="331" y="-595.8" font-family="Times,serif" font-size="14.00" fill="darkgray">t2r</text>
</g>
<!-- C5S11&#45;&gt;C5S5 -->
<g id="edge14" class="edge">
<title>C5S11&#45;&gt;C5S5</title>
<path fill="none" stroke="darkgray" d="M392,-624.81C392,-607.21 392,-579.61 392,-559.07"/>
<polygon fill="darkgray" stroke="darkgray" points="395.5,-559.07 392,-549.07 388.5,-559.07 395.5,-559.07"/>
<text text-anchor="middle" x="403" y="-595.8" font-family="Times,serif" font-size="14.00" fill="darkgray">t2r</text>
</g>
<!-- C6S5 -->
<g id="node22" class="node">
<title>C6S5</title>
<ellipse fill="white" stroke="black" cx="603" cy="-531" rx="27" ry="18"/>
<text text-anchor="middle" x="603" y="-527.3" font-family="Times,serif" font-size="14.00">5</text>
</g>
<!-- C6S11&#45;&gt;C6S5 -->
<g id="edge15" class="edge">
<title>C6S11&#45;&gt;C6S5</title>
<path fill="none" stroke="darkgray" d="M603,-624.81C603,-607.21 603,-579.61 603,-559.07"/>
<polygon fill="darkgray" stroke="darkgray" points="606.5,-559.07 603,-549.07 599.5,-559.07 606.5,-559.07"/>
<text text-anchor="middle" x="614" y="-595.8" font-family="Times,serif" font-size="14.00" fill="darkgray">t2r</text>
</g>
<!-- C6S6 -->
<g id="node23" class="node">
<title>C6S6</title>
<polygon fill="white" stroke="black" points="630,-411.54 630,-426.46 614.18,-437 591.82,-437 576,-426.46 576,-411.54 591.82,-401 614.18,-401 630,-411.54"/>
<text text-anchor="middle" x="603" y="-415.3" font-family="Times,serif" font-size="14.00">6</text>
</g>
<!-- C6S5&#45;&gt;C6S6 -->
<g id="edge16" class="edge">
<title>C6S5&#45;&gt;C6S6</title>
<path fill="none" stroke="darkgray" d="M603,-512.81C603,-495.21 603,-467.61 603,-447.07"/>
<polygon fill="darkgray" stroke="darkgray" points="606.5,-447.07 603,-437.07 599.5,-447.07 606.5,-447.07"/>
<text text-anchor="middle" x="611" y="-479.8" font-family="Times,serif" font-size="14.00" fill="darkgray">t4</text>
</g>
<!-- C6S1 -->
<g id="node24" class="node">
<title>C6S1</title>
<polygon fill="white" stroke="black" points="558,-411.54 558,-426.46 542.18,-437 519.82,-437 504,-426.46 504,-411.54 519.82,-401 542.18,-401 558,-411.54"/>
<text text-anchor="middle" x="531" y="-415.3" font-family="Times,serif" font-size="14.00">1</text>
</g>
<!-- C6S5&#45;&gt;C6S1 -->
<g id="edge17" class="edge">
<title>C6S5&#45;&gt;C6S1</title>
<path fill="none" stroke="darkgray" d="M592.68,-514.24C580.98,-496.36 561.72,-466.93 547.83,-445.71"/>
<polygon fill="darkgray" stroke="darkgray" points="550.65,-443.63 542.25,-437.18 544.79,-447.46 550.65,-443.63"/>
<text text-anchor="middle" x="585.5" y="-479.8" font-family="Times,serif" font-size="14.00" fill="darkgray">t5f</text>
</g>
<!-- C6S6&#45;&gt;C4S7 -->
<g id="edge29" class="edge">
<title>C6S6&#45;&gt;C4S7</title>
<path fill="none" stroke="black" stroke-dasharray="5,2" d="M589.17,-402.08C579.32,-391.44 565.33,-377.67 551,-368 522.51,-348.78 486.34,-333.41 460.25,-323.67"/>
<polygon fill="black" stroke="black" points="450.78,-320.22 461.72,-319.42 455.48,-321.93 460.18,-323.65 460.18,-323.65 460.18,-323.65 455.48,-321.93 458.64,-327.87 450.78,-320.22 450.78,-320.22"/>
<text text-anchor="middle" x="585" y="-371.8" font-family="Times,serif" font-size="14.00">O2 r</text>
</g>
<!-- C6S1&#45;&gt;C2S2 -->
<g id="edge28" class="edge">
<title>C6S1&#45;&gt;C2S2</title>
<path fill="none" stroke="black" stroke-dasharray="5,2" d="M513.54,-405.09C496.84,-393.42 470.47,-376.78 445,-368 420.4,-359.52 412.49,-365.25 387,-360 337.56,-349.82 281.44,-333.44 246.62,-322.7"/>
<polygon fill="black" stroke="black" points="236.96,-319.7 247.85,-318.37 241.74,-321.18 246.51,-322.67 246.51,-322.67 246.51,-322.67 241.74,-321.18 245.17,-326.96 236.96,-319.7 236.96,-319.7"/>
<text text-anchor="middle" x="495.5" y="-371.8" font-family="Times,serif" font-size="14.00">O2 rf</text>
</g>
</g>
</svg>
