<?xml version="1.0" encoding="UTF-8" standalone="no"?>
<!DOCTYPE svg PUBLIC "-//W3C//DTD SVG 1.1//EN"
 "http://www.w3.org/Graphics/SVG/1.1/DTD/svg11.dtd">
<!-- Generated by graphviz version 2.43.0 (0)
 -->
<!-- Title: EXPinput/e Pages: 1 -->
<svg width="656pt" height="816pt"
 viewBox="0.00 0.00 656.00 816.00" xmlns="http://www.w3.org/2000/svg" xmlns:xlink="http://www.w3.org/1999/xlink">
<g id="graph0" class="graph" transform="scale(1 1) rotate(0) translate(4 812)">
<title>EXPinput/e</title>
<polygon fill="white" stroke="transparent" points="-4,4 -4,-812 652,-812 652,4 -4,4"/>
<g id="clust1" class="cluster">
<title>cluster0</title>
<path fill="#eaffee" stroke="#eaffee" d="M47,-501C47,-501 101,-501 101,-501 107,-501 113,-507 113,-513 113,-513 113,-572 113,-572 113,-578 107,-584 101,-584 101,-584 47,-584 47,-584 41,-584 35,-578 35,-572 35,-572 35,-513 35,-513 35,-507 41,-501 47,-501"/>
<text text-anchor="middle" x="74" y="-568.8" font-family="Times,serif" font-size="14.00" fill="#b2ccbb">C0</text>
</g>
<g id="clust2" class="cluster">
<title>cluster1</title>
<path fill="#eaffee" stroke="#eaffee" d="M55,-393C55,-393 101,-393 101,-393 107,-393 113,-399 113,-405 113,-405 113,-456 113,-456 113,-462 107,-468 101,-468 101,-468 55,-468 55,-468 49,-468 43,-462 43,-456 43,-456 43,-405 43,-405 43,-399 49,-393 55,-393"/>
<text text-anchor="middle" x="78" y="-452.8" font-family="Times,serif" font-size="14.00" fill="#b2ccbb">C1</text>
</g>
<g id="clust3" class="cluster">
<title>cluster2</title>
<path fill="#eaffee" stroke="#eaffee" d="M133,-393C133,-393 251,-393 251,-393 257,-393 263,-399 263,-405 263,-405 263,-568 263,-568 263,-574 257,-580 251,-580 251,-580 133,-580 133,-580 127,-580 121,-574 121,-568 121,-568 121,-405 121,-405 121,-399 127,-393 133,-393"/>
<text text-anchor="middle" x="192" y="-564.8" font-family="Times,serif" font-size="14.00" fill="#b2ccbb">C2</text>
</g>
<g id="clust4" class="cluster">
<title>cluster3</title>
<path fill="#eaffee" stroke="#eaffee" d="M117,-8C117,-8 251,-8 251,-8 257,-8 263,-14 263,-20 263,-20 263,-348 263,-348 263,-354 257,-360 251,-360 251,-360 117,-360 117,-360 111,-360 105,-354 105,-348 105,-348 105,-20 105,-20 105,-14 111,-8 117,-8"/>
<text text-anchor="middle" x="184" y="-344.8" font-family="Times,serif" font-size="14.00" fill="#b2ccbb">C3</text>
</g>
<g id="clust5" class="cluster">
<title>cluster4</title>
<path fill="#eaffee" stroke="#eaffee" d="M315,-393C315,-393 433,-393 433,-393 439,-393 445,-399 445,-405 445,-405 445,-680 445,-680 445,-686 439,-692 433,-692 433,-692 315,-692 315,-692 309,-692 303,-686 303,-680 303,-680 303,-405 303,-405 303,-399 309,-393 315,-393"/>
<text text-anchor="middle" x="374" y="-676.8" font-family="Times,serif" font-size="14.00" fill="#b2ccbb">C4</text>
</g>
<g id="clust6" class="cluster">
<title>cluster5</title>
<path fill="#eaffee" stroke="#eaffee" d="M465,-393C465,-393 583,-393 583,-393 589,-393 595,-399 595,-405 595,-405 595,-788 595,-788 595,-794 589,-800 583,-800 583,-800 465,-800 465,-800 459,-800 453,-794 453,-788 453,-788 453,-405 453,-405 453,-399 459,-393 465,-393"/>
<text text-anchor="middle" x="524" y="-784.8" font-family="Times,serif" font-size="14.00" fill="#b2ccbb">C5</text>
</g>
<g id="clust7" class="cluster">
<title>cluster6</title>
<path fill="#eaffee" stroke="#eaffee" d="M461,-285C461,-285 507,-285 507,-285 513,-285 519,-291 519,-297 519,-297 519,-348 519,-348 519,-354 513,-360 507,-360 507,-360 461,-360 461,-360 455,-360 449,-354 449,-348 449,-348 449,-297 449,-297 449,-291 455,-285 461,-285"/>
<text text-anchor="middle" x="484" y="-344.8" font-family="Times,serif" font-size="14.00" fill="#b2ccbb">C6</text>
</g>
<!-- C0S0 -->
<g id="node1" class="node">
<title>C0S0</title>
<polygon fill="white" stroke="black" points="101,-523.54 101,-538.46 85.18,-549 62.82,-549 47,-538.46 47,-523.54 62.82,-513 85.18,-513 101,-523.54"/>
<polygon fill="none" stroke="black" points="105,-521.4 105,-540.6 86.39,-553 61.61,-553 43,-540.6 43,-521.4 61.61,-509 86.39,-509 105,-521.4"/>
<text text-anchor="middle" x="74" y="-527.3" font-family="Times,serif" font-size="14.00">0</text>
</g>
<!-- C1S1 -->
<g id="node2" class="node">
<title>C1S1</title>
<polygon fill="white" stroke="black" points="105,-411.54 105,-426.46 89.18,-437 66.82,-437 51,-426.46 51,-411.54 66.82,-401 89.18,-401 105,-411.54"/>
<text text-anchor="middle" x="78" y="-415.3" font-family="Times,serif" font-size="14.00">1</text>
</g>
<!-- C0S0&#45;&gt;C1S1 -->
<g id="edge16" class="edge">
<title>C0S0&#45;&gt;C1S1</title>
<path fill="none" stroke="black" stroke-dasharray="5,2" d="M74.77,-508.79C75.41,-491.28 76.32,-466.3 77.01,-447.3"/>
<polygon fill="black" stroke="black" points="77.38,-437.17 81.51,-447.33 77.19,-442.17 77.01,-447.17 77.01,-447.17 77.01,-447.17 77.19,-442.17 72.52,-447 77.38,-437.17 77.38,-437.17"/>
<text text-anchor="middle" x="91.5" y="-479.8" font-family="Times,serif" font-size="14.00">O3 ε</text>
</g>
<!-- C3S2 -->
<g id="node6" class="node">
<title>C3S2</title>
<ellipse fill="white" stroke="black" cx="212" cy="-311" rx="27" ry="18"/>
<text text-anchor="middle" x="212" y="-307.3" font-family="Times,serif" font-size="14.00">2</text>
</g>
<!-- C1S1&#45;&gt;C3S2 -->
<g id="edge17" class="edge">
<title>C1S1&#45;&gt;C3S2</title>
<path fill="none" stroke="black" stroke-dasharray="5,2" d="M91.44,-402.22C100.64,-391.89 113.39,-378.44 126,-368 143.83,-353.24 165.72,-339.03 182.95,-328.62"/>
<polygon fill="black" stroke="black" points="191.99,-323.25 185.69,-332.23 187.69,-325.81 183.39,-328.36 183.39,-328.36 183.39,-328.36 187.69,-325.81 181.09,-324.49 191.99,-323.25 191.99,-323.25"/>
<text text-anchor="middle" x="142.5" y="-371.8" font-family="Times,serif" font-size="14.00">O2 ε</text>
</g>
<!-- C2S6 -->
<g id="node3" class="node">
<title>C2S6</title>
<polygon fill="white" stroke="black" points="255,-411.54 255,-426.46 239.18,-437 216.82,-437 201,-426.46 201,-411.54 216.82,-401 239.18,-401 255,-411.54"/>
<text text-anchor="middle" x="228" y="-415.3" font-family="Times,serif" font-size="14.00">6</text>
</g>
<!-- C6S7 -->
<g id="node22" class="node">
<title>C6S7</title>
<polygon fill="white" stroke="black" points="511,-303.54 511,-318.46 495.18,-329 472.82,-329 457,-318.46 457,-303.54 472.82,-293 495.18,-293 511,-303.54"/>
<text text-anchor="middle" x="484" y="-307.3" font-family="Times,serif" font-size="14.00">7</text>
</g>
<!-- C2S6&#45;&gt;C6S7 -->
<g id="edge19" class="edge">
<title>C2S6&#45;&gt;C6S7</title>
<path fill="none" stroke="black" stroke-dasharray="5,2" d="M250.74,-408.66C267.86,-401.62 291.91,-391.72 313,-383 361.4,-362.99 417.45,-339.69 451.81,-325.4"/>
<polygon fill="black" stroke="black" points="461.33,-321.44 453.82,-329.43 456.71,-323.36 452.09,-325.28 452.09,-325.28 452.09,-325.28 456.71,-323.36 450.37,-321.13 461.33,-321.44 461.33,-321.44"/>
<text text-anchor="middle" x="361.5" y="-371.8" font-family="Times,serif" font-size="14.00">O2 ε</text>
</g>
<!-- C2S5 -->
<g id="node4" class="node">
<title>C2S5</title>
<ellipse fill="white" stroke="black" cx="228" cy="-531" rx="27" ry="18"/>
<text text-anchor="middle" x="228" y="-527.3" font-family="Times,serif" font-size="14.00">5</text>
</g>
<!-- C2S5&#45;&gt;C2S6 -->
<g id="edge1" class="edge">
<title>C2S5&#45;&gt;C2S6</title>
<path fill="none" stroke="darkgray" d="M228,-512.81C228,-495.21 228,-467.61 228,-447.07"/>
<polygon fill="darkgray" stroke="darkgray" points="231.5,-447.07 228,-437.07 224.5,-447.07 231.5,-447.07"/>
<text text-anchor="middle" x="236" y="-479.8" font-family="Times,serif" font-size="14.00" fill="darkgray">t4</text>
</g>
<!-- C2S1 -->
<g id="node5" class="node">
<title>C2S1</title>
<polygon fill="white" stroke="black" points="183,-411.54 183,-426.46 167.18,-437 144.82,-437 129,-426.46 129,-411.54 144.82,-401 167.18,-401 183,-411.54"/>
<text text-anchor="middle" x="156" y="-415.3" font-family="Times,serif" font-size="14.00">1</text>
</g>
<!-- C2S5&#45;&gt;C2S1 -->
<g id="edge2" class="edge">
<title>C2S5&#45;&gt;C2S1</title>
<path fill="none" stroke="darkgray" d="M217.68,-514.24C205.98,-496.36 186.72,-466.93 172.83,-445.71"/>
<polygon fill="darkgray" stroke="darkgray" points="175.65,-443.63 167.25,-437.18 169.79,-447.46 175.65,-443.63"/>
<text text-anchor="middle" x="210.5" y="-479.8" font-family="Times,serif" font-size="14.00" fill="darkgray">t5f</text>
</g>
<!-- C2S1&#45;&gt;C3S2 -->
<g id="edge18" class="edge">
<title>C2S1&#45;&gt;C3S2</title>
<path fill="none" stroke="black" stroke-dasharray="5,2" d="M158.72,-400.74C160.71,-390.81 163.96,-378.31 169,-368 174.89,-355.95 183.59,-343.98 191.63,-334.21"/>
<polygon fill="black" stroke="black" points="198.16,-326.58 195.08,-337.1 194.91,-330.38 191.66,-334.18 191.66,-334.18 191.66,-334.18 194.91,-330.38 188.24,-331.26 198.16,-326.58 198.16,-326.58"/>
<text text-anchor="middle" x="184.5" y="-371.8" font-family="Times,serif" font-size="14.00">O2 f</text>
</g>
<!-- C3S10 -->
<g id="node10" class="node">
<title>C3S10</title>
<polygon fill="white" stroke="black" points="171,-212.54 171,-227.46 155.18,-238 132.82,-238 117,-227.46 117,-212.54 132.82,-202 155.18,-202 171,-212.54"/>
<polygon fill="none" stroke="black" points="175,-210.4 175,-229.6 156.39,-242 131.61,-242 113,-229.6 113,-210.4 131.61,-198 156.39,-198 175,-210.4"/>
<text text-anchor="middle" x="144" y="-216.3" font-family="Times,serif" font-size="14.00">10</text>
</g>
<!-- C3S2&#45;&gt;C3S10 -->
<g id="edge4" class="edge">
<title>C3S2&#45;&gt;C3S10</title>
<path fill="none" stroke="darkgray" d="M200.16,-294.5C190.52,-281.89 176.69,-263.79 165.16,-248.7"/>
<polygon fill="darkgray" stroke="darkgray" points="167.89,-246.5 159.04,-240.68 162.33,-250.75 167.89,-246.5"/>
<text text-anchor="middle" x="194.5" y="-263.8" font-family="Times,serif" font-size="14.00" fill="darkgray">t5f</text>
</g>
<!-- C3S3 -->
<g id="node12" class="node">
<title>C3S3</title>
<polygon fill="white" stroke="black" points="251,-212.54 251,-227.46 235.18,-238 212.82,-238 197,-227.46 197,-212.54 212.82,-202 235.18,-202 251,-212.54"/>
<polygon fill="none" stroke="black" points="255,-210.4 255,-229.6 236.39,-242 211.61,-242 193,-229.6 193,-210.4 211.61,-198 236.39,-198 255,-210.4"/>
<text text-anchor="middle" x="224" y="-216.3" font-family="Times,serif" font-size="14.00">3</text>
</g>
<!-- C3S2&#45;&gt;C3S3 -->
<g id="edge3" class="edge">
<title>C3S2&#45;&gt;C3S3</title>
<path fill="none" stroke="darkgray" d="M214.31,-292.84C215.87,-281.33 217.96,-265.83 219.8,-252.18"/>
<polygon fill="darkgray" stroke="darkgray" points="223.28,-252.57 221.14,-242.19 216.34,-251.63 223.28,-252.57"/>
<text text-anchor="middle" x="226" y="-263.8" font-family="Times,serif" font-size="14.00" fill="darkgray">t4</text>
</g>
<!-- C3S12 -->
<g id="node7" class="node">
<title>C3S12</title>
<polygon fill="white" stroke="black" points="251,-30.54 251,-45.46 235.18,-56 212.82,-56 197,-45.46 197,-30.54 212.82,-20 235.18,-20 251,-30.54"/>
<polygon fill="none" stroke="black" points="255,-28.4 255,-47.6 236.39,-60 211.61,-60 193,-47.6 193,-28.4 211.61,-16 236.39,-16 255,-28.4"/>
<text text-anchor="middle" x="224" y="-34.3" font-family="Times,serif" font-size="14.00">12</text>
</g>
<!-- C3S0 -->
<g id="node8" class="node">
<title>C3S0</title>
<polygon fill="white" stroke="black" points="171,-30.54 171,-45.46 155.18,-56 132.82,-56 117,-45.46 117,-30.54 132.82,-20 155.18,-20 171,-30.54"/>
<polygon fill="none" stroke="black" points="175,-28.4 175,-47.6 156.39,-60 131.61,-60 113,-47.6 113,-28.4 131.61,-16 156.39,-16 175,-28.4"/>
<text text-anchor="middle" x="144" y="-34.3" font-family="Times,serif" font-size="14.00">0</text>
</g>
<!-- C3S0&#45;&gt;C1S1 -->
<g id="edge20" class="edge">
<title>C3S0&#45;&gt;C1S1</title>
<path fill="none" stroke="black" stroke-dasharray="5,2" d="M118.66,-51.57C93.29,-66.15 58,-92.76 58,-128 58,-312 58,-312 58,-312 58,-339.24 64.45,-369.74 70.03,-391"/>
<polygon fill="black" stroke="black" points="72.75,-400.93 65.77,-392.47 71.43,-396.11 70.11,-391.28 70.11,-391.28 70.11,-391.28 71.43,-396.11 74.45,-390.1 72.75,-400.93 72.75,-400.93"/>
<text text-anchor="middle" x="76.5" y="-216.3" font-family="Times,serif" font-size="14.00">O3 fr</text>
</g>
<!-- C3S11 -->
<g id="node9" class="node">
<title>C3S11</title>
<ellipse fill="white" stroke="black" cx="144" cy="-129" rx="27" ry="18"/>
<text text-anchor="middle" x="144" y="-125.3" font-family="Times,serif" font-size="14.00">11</text>
</g>
<!-- C3S11&#45;&gt;C3S12 -->
<g id="edge6" class="edge">
<title>C3S11&#45;&gt;C3S12</title>
<path fill="none" stroke="darkgray" d="M157.57,-112.9C169.26,-99.89 186.41,-80.82 200.35,-65.31"/>
<polygon fill="darkgray" stroke="darkgray" points="203.22,-67.35 207.31,-57.57 198.02,-62.67 203.22,-67.35"/>
<text text-anchor="middle" x="198.5" y="-81.8" font-family="Times,serif" font-size="14.00" fill="darkgray">t5f</text>
</g>
<!-- C3S11&#45;&gt;C3S0 -->
<g id="edge5" class="edge">
<title>C3S11&#45;&gt;C3S0</title>
<path fill="none" stroke="darkgray" d="M144,-110.84C144,-99.44 144,-84.13 144,-70.58"/>
<polygon fill="darkgray" stroke="darkgray" points="147.5,-70.19 144,-60.19 140.5,-70.19 147.5,-70.19"/>
<text text-anchor="middle" x="152" y="-81.8" font-family="Times,serif" font-size="14.00" fill="darkgray">t4</text>
</g>
<!-- C3S10&#45;&gt;C3S11 -->
<g id="edge7" class="edge">
<title>C3S10&#45;&gt;C3S11</title>
<path fill="none" stroke="darkgray" d="M144,-197.91C144,-185.78 144,-170.41 144,-157.36"/>
<polygon fill="darkgray" stroke="darkgray" points="147.5,-157.07 144,-147.07 140.5,-157.07 147.5,-157.07"/>
<text text-anchor="middle" x="155" y="-168.8" font-family="Times,serif" font-size="14.00" fill="darkgray">t2r</text>
</g>
<!-- C3S4 -->
<g id="node11" class="node">
<title>C3S4</title>
<polygon fill="white" stroke="black" points="254,-121.54 254,-136.46 238.18,-147 215.82,-147 200,-136.46 200,-121.54 215.82,-111 238.18,-111 254,-121.54"/>
<text text-anchor="middle" x="227" y="-125.3" font-family="Times,serif" font-size="14.00">4</text>
</g>
<!-- C3S4&#45;&gt;C2S5 -->
<g id="edge22" class="edge">
<title>C3S4&#45;&gt;C2S5</title>
<path fill="none" stroke="black" stroke-dasharray="5,2" d="M242.9,-144.03C259.45,-160.27 283,-188.7 283,-219 283,-420 283,-420 283,-420 283,-452.84 263.15,-485.93 247.3,-507.11"/>
<polygon fill="black" stroke="black" points="241.03,-515.15 243.62,-504.5 244.11,-511.21 247.18,-507.26 247.18,-507.26 247.18,-507.26 244.11,-511.21 250.73,-510.03 241.03,-515.15 241.03,-515.15"/>
<text text-anchor="middle" x="299" y="-307.3" font-family="Times,serif" font-size="14.00">O3 r</text>
</g>
<!-- C3S3&#45;&gt;C3S4 -->
<g id="edge8" class="edge">
<title>C3S3&#45;&gt;C3S4</title>
<path fill="none" stroke="darkgray" d="M224.71,-197.91C225.12,-185.78 225.64,-170.41 226.08,-157.36"/>
<polygon fill="darkgray" stroke="darkgray" points="229.59,-157.18 226.42,-147.07 222.59,-156.94 229.59,-157.18"/>
<text text-anchor="middle" x="236" y="-168.8" font-family="Times,serif" font-size="14.00" fill="darkgray">t2r</text>
</g>
<!-- C4S9 -->
<g id="node13" class="node">
<title>C4S9</title>
<ellipse fill="white" stroke="black" cx="338" cy="-643" rx="27" ry="18"/>
<text text-anchor="middle" x="338" y="-639.3" font-family="Times,serif" font-size="14.00">9</text>
</g>
<!-- C3S3&#45;&gt;C4S9 -->
<g id="edge21" class="edge">
<title>C3S3&#45;&gt;C4S9</title>
<path fill="none" stroke="black" stroke-dasharray="5,2" d="M199.71,-234.39C194.58,-237.04 189.16,-239.7 184,-242 104.35,-277.45 0,-222.82 0,-310 0,-532 0,-532 0,-532 0,-558.91 8.95,-568.59 31,-584 74.24,-614.22 229.01,-632 300.86,-638.8"/>
<polygon fill="black" stroke="black" points="311.25,-639.76 300.87,-643.32 306.27,-639.3 301.29,-638.84 301.29,-638.84 301.29,-638.84 306.27,-639.3 301.7,-634.36 311.25,-639.76 311.25,-639.76"/>
<text text-anchor="middle" x="16.5" y="-415.3" font-family="Times,serif" font-size="14.00">O3 ε</text>
</g>
<!-- C4S5 -->
<g id="node15" class="node">
<title>C4S5</title>
<ellipse fill="white" stroke="black" cx="338" cy="-531" rx="27" ry="18"/>
<text text-anchor="middle" x="338" y="-527.3" font-family="Times,serif" font-size="14.00">5</text>
</g>
<!-- C4S9&#45;&gt;C4S5 -->
<g id="edge9" class="edge">
<title>C4S9&#45;&gt;C4S5</title>
<path fill="none" stroke="darkgray" d="M338,-624.81C338,-607.21 338,-579.61 338,-559.07"/>
<polygon fill="darkgray" stroke="darkgray" points="341.5,-559.07 338,-549.07 334.5,-559.07 341.5,-559.07"/>
<text text-anchor="middle" x="349" y="-595.8" font-family="Times,serif" font-size="14.00" fill="darkgray">t2r</text>
</g>
<!-- C4S6 -->
<g id="node14" class="node">
<title>C4S6</title>
<polygon fill="white" stroke="black" points="437,-411.54 437,-426.46 421.18,-437 398.82,-437 383,-426.46 383,-411.54 398.82,-401 421.18,-401 437,-411.54"/>
<text text-anchor="middle" x="410" y="-415.3" font-family="Times,serif" font-size="14.00">6</text>
</g>
<!-- C4S6&#45;&gt;C6S7 -->
<g id="edge24" class="edge">
<title>C4S6&#45;&gt;C6S7</title>
<path fill="none" stroke="black" stroke-dasharray="5,2" d="M411.98,-400.85C413.73,-390.73 416.99,-377.99 423,-368 431.73,-353.48 445.34,-340.47 457.49,-330.65"/>
<polygon fill="black" stroke="black" points="465.6,-324.38 460.44,-334.06 461.64,-327.44 457.69,-330.5 457.69,-330.5 457.69,-330.5 461.64,-327.44 454.93,-326.94 465.6,-324.38 465.6,-324.38"/>
<text text-anchor="middle" x="439" y="-371.8" font-family="Times,serif" font-size="14.00">O2 r</text>
</g>
<!-- C4S5&#45;&gt;C4S6 -->
<g id="edge10" class="edge">
<title>C4S5&#45;&gt;C4S6</title>
<path fill="none" stroke="darkgray" d="M348.32,-514.24C360.02,-496.36 379.28,-466.93 393.17,-445.71"/>
<polygon fill="darkgray" stroke="darkgray" points="396.21,-447.46 398.75,-437.18 390.35,-443.63 396.21,-447.46"/>
<text text-anchor="middle" x="379" y="-479.8" font-family="Times,serif" font-size="14.00" fill="darkgray">t4</text>
</g>
<!-- C4S1 -->
<g id="node16" class="node">
<title>C4S1</title>
<polygon fill="white" stroke="black" points="365,-411.54 365,-426.46 349.18,-437 326.82,-437 311,-426.46 311,-411.54 326.82,-401 349.18,-401 365,-411.54"/>
<text text-anchor="middle" x="338" y="-415.3" font-family="Times,serif" font-size="14.00">1</text>
</g>
<!-- C4S5&#45;&gt;C4S1 -->
<g id="edge11" class="edge">
<title>C4S5&#45;&gt;C4S1</title>
<path fill="none" stroke="darkgray" d="M338,-512.81C338,-495.21 338,-467.61 338,-447.07"/>
<polygon fill="darkgray" stroke="darkgray" points="341.5,-447.07 338,-437.07 334.5,-447.07 341.5,-447.07"/>
<text text-anchor="middle" x="348.5" y="-479.8" font-family="Times,serif" font-size="14.00" fill="darkgray">t5f</text>
</g>
<!-- C4S1&#45;&gt;C3S2 -->
<g id="edge23" class="edge">
<title>C4S1&#45;&gt;C3S2</title>
<path fill="none" stroke="black" stroke-dasharray="5,2" d="M316.26,-407.92C303.85,-401.64 288.35,-392.89 276,-383 258.68,-369.12 241.99,-350.36 230,-335.61"/>
<polygon fill="black" stroke="black" points="223.51,-327.46 233.26,-332.48 226.62,-331.37 229.73,-335.29 229.73,-335.29 229.73,-335.29 226.62,-331.37 226.21,-338.09 223.51,-327.46 223.51,-327.46"/>
<text text-anchor="middle" x="294.5" y="-371.8" font-family="Times,serif" font-size="14.00">O2 rf</text>
</g>
<!-- C5S8 -->
<g id="node17" class="node">
<title>C5S8</title>
<ellipse fill="white" stroke="black" cx="558" cy="-751" rx="27" ry="18"/>
<text text-anchor="middle" x="558" y="-747.3" font-family="Times,serif" font-size="14.00">8</text>
</g>
<!-- C5S9 -->
<g id="node21" class="node">
<title>C5S9</title>
<ellipse fill="white" stroke="black" cx="556" cy="-643" rx="27" ry="18"/>
<text text-anchor="middle" x="556" y="-639.3" font-family="Times,serif" font-size="14.00">9</text>
</g>
<!-- C5S8&#45;&gt;C5S9 -->
<g id="edge12" class="edge">
<title>C5S8&#45;&gt;C5S9</title>
<path fill="none" stroke="darkgray" d="M557.68,-732.97C557.37,-716.38 556.88,-690.88 556.52,-671.43"/>
<polygon fill="darkgray" stroke="darkgray" points="560.02,-671.27 556.33,-661.34 553.02,-671.4 560.02,-671.27"/>
<text text-anchor="middle" x="567.5" y="-703.8" font-family="Times,serif" font-size="14.00" fill="darkgray">t5f</text>
</g>
<!-- C5S1 -->
<g id="node18" class="node">
<title>C5S1</title>
<polygon fill="white" stroke="black" points="515,-411.54 515,-426.46 499.18,-437 476.82,-437 461,-426.46 461,-411.54 476.82,-401 499.18,-401 515,-411.54"/>
<text text-anchor="middle" x="488" y="-415.3" font-family="Times,serif" font-size="14.00">1</text>
</g>
<!-- C5S1&#45;&gt;C3S2 -->
<g id="edge25" class="edge">
<title>C5S1&#45;&gt;C3S2</title>
<path fill="none" stroke="black" stroke-dasharray="5,2" d="M481.62,-400.92C476.36,-389.45 467.68,-375.16 455,-368 417.43,-346.77 300.6,-377.13 261,-360 248.7,-354.68 237.75,-344.77 229.34,-335.33"/>
<polygon fill="black" stroke="black" points="222.89,-327.62 232.76,-332.4 226.1,-331.45 229.31,-335.29 229.31,-335.29 229.31,-335.29 226.1,-331.45 225.85,-338.17 222.89,-327.62 222.89,-327.62"/>
<text text-anchor="middle" x="491.5" y="-371.8" font-family="Times,serif" font-size="14.00">O2 frf</text>
</g>
<!-- C5S6 -->
<g id="node19" class="node">
<title>C5S6</title>
<polygon fill="white" stroke="black" points="587,-411.54 587,-426.46 571.18,-437 548.82,-437 533,-426.46 533,-411.54 548.82,-401 571.18,-401 587,-411.54"/>
<text text-anchor="middle" x="560" y="-415.3" font-family="Times,serif" font-size="14.00">6</text>
</g>
<!-- C5S6&#45;&gt;C6S7 -->
<g id="edge26" class="edge">
<title>C5S6&#45;&gt;C6S7</title>
<path fill="none" stroke="black" stroke-dasharray="5,2" d="M548.12,-401.44C535.76,-384.19 516.24,-356.97 501.99,-337.09"/>
<polygon fill="black" stroke="black" points="496.04,-328.8 505.53,-334.3 498.96,-332.86 501.87,-336.92 501.87,-336.92 501.87,-336.92 498.96,-332.86 498.21,-339.55 496.04,-328.8 496.04,-328.8"/>
<text text-anchor="middle" x="551.5" y="-371.8" font-family="Times,serif" font-size="14.00">O2 fr</text>
</g>
<!-- C5S5 -->
<g id="node20" class="node">
<title>C5S5</title>
<ellipse fill="white" stroke="black" cx="552" cy="-531" rx="27" ry="18"/>
<text text-anchor="middle" x="552" y="-527.3" font-family="Times,serif" font-size="14.00">5</text>
</g>
<!-- C5S5&#45;&gt;C5S1 -->
<g id="edge14" class="edge">
<title>C5S5&#45;&gt;C5S1</title>
<path fill="none" stroke="darkgray" d="M542.56,-513.77C532.14,-495.86 515.23,-466.8 502.99,-445.77"/>
<polygon fill="darkgray" stroke="darkgray" points="505.96,-443.9 497.9,-437.02 499.91,-447.43 505.96,-443.9"/>
<text text-anchor="middle" x="537.5" y="-479.8" font-family="Times,serif" font-size="14.00" fill="darkgray">t5f</text>
</g>
<!-- C5S5&#45;&gt;C5S6 -->
<g id="edge13" class="edge">
<title>C5S5&#45;&gt;C5S6</title>
<path fill="none" stroke="darkgray" d="M553.25,-512.81C554.53,-495.21 556.54,-467.61 558.03,-447.07"/>
<polygon fill="darkgray" stroke="darkgray" points="561.52,-447.29 558.76,-437.07 554.54,-446.79 561.52,-447.29"/>
<text text-anchor="middle" x="563" y="-479.8" font-family="Times,serif" font-size="14.00" fill="darkgray">t4</text>
</g>
<!-- C5S9&#45;&gt;C5S5 -->
<g id="edge15" class="edge">
<title>C5S9&#45;&gt;C5S5</title>
<path fill="none" stroke="darkgray" d="M555.38,-624.81C554.74,-607.21 553.73,-579.61 552.98,-559.07"/>
<polygon fill="darkgray" stroke="darkgray" points="556.48,-558.93 552.62,-549.07 549.49,-559.19 556.48,-558.93"/>
<text text-anchor="middle" x="565" y="-595.8" font-family="Times,serif" font-size="14.00" fill="darkgray">t2r</text>
</g>
<!-- C6S7&#45;&gt;C5S8 -->
<g id="edge27" class="edge">
<title>C6S7&#45;&gt;C5S8</title>
<path fill="none" stroke="black" stroke-dasharray="5,2" d="M509.26,-319.66C547.33,-332.96 615,-364.17 615,-418 615,-644 615,-644 615,-644 615,-675.77 594.89,-707.2 578.56,-727.48"/>
<polygon fill="black" stroke="black" points="572.09,-735.2 575.07,-724.64 575.3,-731.37 578.51,-727.53 578.51,-727.53 578.51,-727.53 575.3,-731.37 581.96,-730.42 572.09,-735.2 572.09,-735.2"/>
<text text-anchor="middle" x="631.5" y="-527.3" font-family="Times,serif" font-size="14.00">O3 ε</text>
</g>
</g>
</svg>
