<?xml version="1.0" encoding="UTF-8" standalone="no"?>
<!DOCTYPE svg PUBLIC "-//W3C//DTD SVG 1.1//EN"
 "http://www.w3.org/Graphics/SVG/1.1/DTD/svg11.dtd">
<!-- Generated by graphviz version 2.43.0 (0)
 -->
<!-- Title: MONinput/e Pages: 1 -->
<svg width="529pt" height="207pt"
 viewBox="0.00 0.00 529.00 207.00" xmlns="http://www.w3.org/2000/svg" xmlns:xlink="http://www.w3.org/1999/xlink">
<g id="graph0" class="graph" transform="scale(1 1) rotate(0) translate(4 203)">
<title>MONinput/e</title>
<polygon fill="white" stroke="transparent" points="-4,4 -4,-203 525,-203 525,4 -4,4"/>
<g id="clust1" class="cluster">
<title>cluster0</title>
<path fill="#fff9dd" stroke="#fff9dd" d="M20,-62C20,-62 66,-62 66,-62 72,-62 78,-68 78,-74 78,-74 78,-125 78,-125 78,-131 72,-137 66,-137 66,-137 20,-137 20,-137 14,-137 8,-131 8,-125 8,-125 8,-74 8,-74 8,-68 14,-62 20,-62"/>
<text text-anchor="middle" x="43" y="-121.8" font-family="Times,serif" font-size="14.00">ε</text>
</g>
<g id="clust2" class="cluster">
<title>cluster1</title>
<path fill="#fff9dd" stroke="#fff9dd" d="M145,-62C145,-62 191,-62 191,-62 197,-62 203,-68 203,-74 203,-74 203,-125 203,-125 203,-131 197,-137 191,-137 191,-137 145,-137 145,-137 139,-137 133,-131 133,-125 133,-125 133,-74 133,-74 133,-68 139,-62 145,-62"/>
<text text-anchor="middle" x="168" y="-121.8" font-family="Times,serif" font-size="14.00">ε</text>
</g>
<g id="clust3" class="cluster">
<title>cluster2</title>
<path fill="#fff9dd" stroke="#fff9dd" d="M270,-62C270,-62 316,-62 316,-62 322,-62 328,-68 328,-74 328,-74 328,-125 328,-125 328,-131 322,-137 316,-137 316,-137 270,-137 270,-137 264,-137 258,-131 258,-125 258,-125 258,-74 258,-74 258,-68 264,-62 270,-62"/>
<text text-anchor="middle" x="293" y="-121.8" font-family="Times,serif" font-size="14.00">(fr)?|r</text>
</g>
<g id="clust4" class="cluster">
<title>cluster3</title>
<path fill="#fff9dd" stroke="#fff9dd" d="M403,-8C403,-8 509,-8 509,-8 515,-8 521,-14 521,-20 521,-20 521,-179 521,-179 521,-185 515,-191 509,-191 509,-191 403,-191 403,-191 397,-191 391,-185 391,-179 391,-179 391,-20 391,-20 391,-14 397,-8 403,-8"/>
<text text-anchor="middle" x="456" y="-175.8" font-family="Times,serif" font-size="14.00">(fr)|(r?|(rf))|(rf?)</text>
</g>
<!-- M0S0 -->
<g id="node1" class="node">
<title>M0S0</title>
<path fill="#ffffff" stroke="black" d="M58,-106C58,-106 28,-106 28,-106 22,-106 16,-100 16,-94 16,-94 16,-82 16,-82 16,-76 22,-70 28,-70 28,-70 58,-70 58,-70 64,-70 70,-76 70,-82 70,-82 70,-94 70,-94 70,-100 64,-106 58,-106"/>
<text text-anchor="middle" x="43" y="-84.3" font-family="Times,serif" font-size="14.00">0</text>
</g>
<!-- M1S1 -->
<g id="node2" class="node">
<title>M1S1</title>
<path fill="#ffffff" stroke="black" d="M183,-106C183,-106 153,-106 153,-106 147,-106 141,-100 141,-94 141,-94 141,-82 141,-82 141,-76 147,-70 153,-70 153,-70 183,-70 183,-70 189,-70 195,-76 195,-82 195,-82 195,-94 195,-94 195,-100 189,-106 183,-106"/>
<text text-anchor="middle" x="168" y="-84.3" font-family="Times,serif" font-size="14.00">1</text>
</g>
<!-- M0S0&#45;&gt;M1S1 -->
<g id="edge1" class="edge">
<title>M0S0&#45;&gt;M1S1</title>
<path fill="none" stroke="black" d="M70.09,-88C87.78,-88 111.4,-88 130.9,-88"/>
<polygon fill="black" stroke="black" points="130.95,-91.5 140.95,-88 130.95,-84.5 130.95,-91.5"/>
<text text-anchor="middle" x="105.5" y="-91.8" font-family="Times,serif" font-size="14.00">(ε, ε)</text>
</g>
<!-- M2S3 -->
<g id="node3" class="node">
<title>M2S3</title>
<path fill="#ffffff" stroke="black" d="M308,-106C308,-106 278,-106 278,-106 272,-106 266,-100 266,-94 266,-94 266,-82 266,-82 266,-76 272,-70 278,-70 278,-70 308,-70 308,-70 314,-70 320,-76 320,-82 320,-82 320,-94 320,-94 320,-100 314,-106 308,-106"/>
<text text-anchor="middle" x="293" y="-84.3" font-family="Times,serif" font-size="14.00">3</text>
</g>
<!-- M1S1&#45;&gt;M2S3 -->
<g id="edge2" class="edge">
<title>M1S1&#45;&gt;M2S3</title>
<path fill="none" stroke="black" d="M195.09,-88C212.78,-88 236.4,-88 255.9,-88"/>
<polygon fill="black" stroke="black" points="255.95,-91.5 265.95,-88 255.95,-84.5 255.95,-91.5"/>
<text text-anchor="middle" x="230.5" y="-91.8" font-family="Times,serif" font-size="14.00">(ε, ε)</text>
</g>
<!-- M3S1 -->
<g id="node4" class="node">
<title>M3S1</title>
<path fill="#ffffff" stroke="black" d="M471,-160C471,-160 441,-160 441,-160 435,-160 429,-154 429,-148 429,-148 429,-136 429,-136 429,-130 435,-124 441,-124 441,-124 471,-124 471,-124 477,-124 483,-130 483,-136 483,-136 483,-148 483,-148 483,-154 477,-160 471,-160"/>
<text text-anchor="middle" x="456" y="-138.3" font-family="Times,serif" font-size="14.00">1</text>
</g>
<!-- M2S3&#45;&gt;M3S1 -->
<g id="edge3" class="edge">
<title>M2S3&#45;&gt;M3S1</title>
<path fill="none" stroke="black" d="M320.32,-99.96C326.1,-102.42 332.21,-104.89 338,-107 364.73,-116.73 395.57,-125.87 418.88,-132.37"/>
<polygon fill="black" stroke="black" points="418.12,-135.8 428.69,-135.08 419.98,-129.05 418.12,-135.8"/>
<text text-anchor="middle" x="359.5" y="-123.8" font-family="Times,serif" font-size="14.00">(fr, fr)</text>
</g>
<!-- M3S4 -->
<g id="node5" class="node">
<title>M3S4</title>
<path fill="#ffffff" stroke="black" d="M471,-106C471,-106 441,-106 441,-106 435,-106 429,-100 429,-94 429,-94 429,-82 429,-82 429,-76 435,-70 441,-70 441,-70 471,-70 471,-70 477,-70 483,-76 483,-82 483,-82 483,-94 483,-94 483,-100 477,-106 471,-106"/>
<text text-anchor="middle" x="456" y="-84.3" font-family="Times,serif" font-size="14.00">4</text>
</g>
<!-- M2S3&#45;&gt;M3S4 -->
<g id="edge4" class="edge">
<title>M2S3&#45;&gt;M3S4</title>
<path fill="none" stroke="black" d="M320.23,-88C347.01,-88 388.79,-88 418.73,-88"/>
<polygon fill="black" stroke="black" points="418.79,-91.5 428.79,-88 418.79,-84.5 418.79,-91.5"/>
<text text-anchor="middle" x="359.5" y="-91.8" font-family="Times,serif" font-size="14.00">(ε, ε)</text>
</g>
<!-- M3S2 -->
<g id="node6" class="node">
<title>M3S2</title>
<path fill="#ffffff" stroke="black" d="M471,-52C471,-52 441,-52 441,-52 435,-52 429,-46 429,-40 429,-40 429,-28 429,-28 429,-22 435,-16 441,-16 441,-16 471,-16 471,-16 477,-16 483,-22 483,-28 483,-28 483,-40 483,-40 483,-46 477,-52 471,-52"/>
<text text-anchor="middle" x="456" y="-30.3" font-family="Times,serif" font-size="14.00">2</text>
</g>
<!-- M2S3&#45;&gt;M3S2 -->
<g id="edge5" class="edge">
<title>M2S3&#45;&gt;M3S2</title>
<path fill="none" stroke="black" d="M320.32,-76.04C326.1,-73.58 332.21,-71.11 338,-69 364.73,-59.27 395.57,-50.13 418.88,-43.63"/>
<polygon fill="black" stroke="black" points="419.98,-46.95 428.69,-40.92 418.12,-40.2 419.98,-46.95"/>
<text text-anchor="middle" x="359.5" y="-72.8" font-family="Times,serif" font-size="14.00">(r, r)</text>
</g>
</g>
</svg>
