<?xml version="1.0" encoding="UTF-8" standalone="no"?>
<!DOCTYPE svg PUBLIC "-//W3C//DTD SVG 1.1//EN"
 "http://www.w3.org/Graphics/SVG/1.1/DTD/svg11.dtd">
<!-- Generated by graphviz version 2.43.0 (0)
 -->
<!-- Title: MONinput/e Pages: 1 -->
<svg width="734pt" height="220pt"
 viewBox="0.00 0.00 734.00 220.09" xmlns="http://www.w3.org/2000/svg" xmlns:xlink="http://www.w3.org/1999/xlink">
<g id="graph0" class="graph" transform="scale(1 1) rotate(0) translate(4 216.09)">
<title>MONinput/e</title>
<polygon fill="white" stroke="transparent" points="-4,4 -4,-216.09 730,-216.09 730,4 -4,4"/>
<g id="clust1" class="cluster">
<title>cluster0</title>
<path fill="#fff9dd" stroke="#fff9dd" d="M20,-75.09C20,-75.09 66,-75.09 66,-75.09 72,-75.09 78,-81.09 78,-87.09 78,-87.09 78,-138.09 78,-138.09 78,-144.09 72,-150.09 66,-150.09 66,-150.09 20,-150.09 20,-150.09 14,-150.09 8,-144.09 8,-138.09 8,-138.09 8,-87.09 8,-87.09 8,-81.09 14,-75.09 20,-75.09"/>
<text text-anchor="middle" x="43" y="-134.89" font-family="Times,serif" font-size="14.00">ε</text>
</g>
<g id="clust2" class="cluster">
<title>cluster1</title>
<path fill="#fff9dd" stroke="#fff9dd" d="M145,-75.09C145,-75.09 191,-75.09 191,-75.09 197,-75.09 203,-81.09 203,-87.09 203,-87.09 203,-138.09 203,-138.09 203,-144.09 197,-150.09 191,-150.09 191,-150.09 145,-150.09 145,-150.09 139,-150.09 133,-144.09 133,-138.09 133,-138.09 133,-87.09 133,-87.09 133,-81.09 139,-75.09 145,-75.09"/>
<text text-anchor="middle" x="168" y="-134.89" font-family="Times,serif" font-size="14.00">ε</text>
</g>
<g id="clust3" class="cluster">
<title>cluster2</title>
<path fill="#fff9dd" stroke="#fff9dd" d="M270,-75.09C270,-75.09 316,-75.09 316,-75.09 322,-75.09 328,-81.09 328,-87.09 328,-87.09 328,-138.09 328,-138.09 328,-144.09 322,-150.09 316,-150.09 316,-150.09 270,-150.09 270,-150.09 264,-150.09 258,-144.09 258,-138.09 258,-138.09 258,-87.09 258,-87.09 258,-81.09 264,-75.09 270,-75.09"/>
<text text-anchor="middle" x="293" y="-134.89" font-family="Times,serif" font-size="14.00">(fr)?|r</text>
</g>
<g id="clust4" class="cluster">
<title>cluster3</title>
<path fill="#fff9dd" stroke="#fff9dd" d="M403,-21.09C403,-21.09 480,-21.09 480,-21.09 486,-21.09 492,-27.09 492,-33.09 492,-33.09 492,-192.09 492,-192.09 492,-198.09 486,-204.09 480,-204.09 480,-204.09 403,-204.09 403,-204.09 397,-204.09 391,-198.09 391,-192.09 391,-192.09 391,-33.09 391,-33.09 391,-27.09 397,-21.09 403,-21.09"/>
<text text-anchor="middle" x="441.5" y="-188.89" font-family="Times,serif" font-size="14.00">(fr)|(rf)|(rf?)</text>
</g>
<g id="clust5" class="cluster">
<title>cluster4</title>
<path fill="#fff9dd" stroke="#fff9dd" d="M567,-15.09C567,-15.09 714,-15.09 714,-15.09 720,-15.09 726,-21.09 726,-27.09 726,-27.09 726,-132.09 726,-132.09 726,-138.09 720,-144.09 714,-144.09 714,-144.09 567,-144.09 567,-144.09 561,-144.09 555,-138.09 555,-132.09 555,-132.09 555,-27.09 555,-27.09 555,-21.09 561,-15.09 567,-15.09"/>
<text text-anchor="middle" x="640.5" y="-128.89" font-family="Times,serif" font-size="14.00">((fr)|(rf)(frf)?|(fr)|f|r)|r</text>
</g>
<!-- M0S0 -->
<g id="node1" class="node">
<title>M0S0</title>
<path fill="#ffffff" stroke="black" d="M58,-119.09C58,-119.09 28,-119.09 28,-119.09 22,-119.09 16,-113.09 16,-107.09 16,-107.09 16,-95.09 16,-95.09 16,-89.09 22,-83.09 28,-83.09 28,-83.09 58,-83.09 58,-83.09 64,-83.09 70,-89.09 70,-95.09 70,-95.09 70,-107.09 70,-107.09 70,-113.09 64,-119.09 58,-119.09"/>
<text text-anchor="middle" x="43" y="-97.39" font-family="Times,serif" font-size="14.00">0</text>
</g>
<!-- M1S1 -->
<g id="node2" class="node">
<title>M1S1</title>
<path fill="#ffffff" stroke="black" d="M183,-119.09C183,-119.09 153,-119.09 153,-119.09 147,-119.09 141,-113.09 141,-107.09 141,-107.09 141,-95.09 141,-95.09 141,-89.09 147,-83.09 153,-83.09 153,-83.09 183,-83.09 183,-83.09 189,-83.09 195,-89.09 195,-95.09 195,-95.09 195,-107.09 195,-107.09 195,-113.09 189,-119.09 183,-119.09"/>
<text text-anchor="middle" x="168" y="-97.39" font-family="Times,serif" font-size="14.00">1</text>
</g>
<!-- M0S0&#45;&gt;M1S1 -->
<g id="edge1" class="edge">
<title>M0S0&#45;&gt;M1S1</title>
<path fill="none" stroke="black" d="M70.09,-101.09C87.78,-101.09 111.4,-101.09 130.9,-101.09"/>
<polygon fill="black" stroke="black" points="130.95,-104.59 140.95,-101.09 130.95,-97.59 130.95,-104.59"/>
<text text-anchor="middle" x="105.5" y="-104.89" font-family="Times,serif" font-size="14.00">(ε, ε)</text>
</g>
<!-- M2S4 -->
<g id="node3" class="node">
<title>M2S4</title>
<path fill="#ffffff" stroke="black" d="M308,-119.09C308,-119.09 278,-119.09 278,-119.09 272,-119.09 266,-113.09 266,-107.09 266,-107.09 266,-95.09 266,-95.09 266,-89.09 272,-83.09 278,-83.09 278,-83.09 308,-83.09 308,-83.09 314,-83.09 320,-89.09 320,-95.09 320,-95.09 320,-107.09 320,-107.09 320,-113.09 314,-119.09 308,-119.09"/>
<text text-anchor="middle" x="293" y="-97.39" font-family="Times,serif" font-size="14.00">4</text>
</g>
<!-- M1S1&#45;&gt;M2S4 -->
<g id="edge2" class="edge">
<title>M1S1&#45;&gt;M2S4</title>
<path fill="none" stroke="black" d="M195.09,-101.09C212.78,-101.09 236.4,-101.09 255.9,-101.09"/>
<polygon fill="black" stroke="black" points="255.95,-104.59 265.95,-101.09 255.95,-97.59 255.95,-104.59"/>
<text text-anchor="middle" x="230.5" y="-104.89" font-family="Times,serif" font-size="14.00">(ε, ε)</text>
</g>
<!-- M3S1 -->
<g id="node4" class="node">
<title>M3S1</title>
<path fill="#ffffff" stroke="black" d="M456,-173.09C456,-173.09 426,-173.09 426,-173.09 420,-173.09 414,-167.09 414,-161.09 414,-161.09 414,-149.09 414,-149.09 414,-143.09 420,-137.09 426,-137.09 426,-137.09 456,-137.09 456,-137.09 462,-137.09 468,-143.09 468,-149.09 468,-149.09 468,-161.09 468,-161.09 468,-167.09 462,-173.09 456,-173.09"/>
<text text-anchor="middle" x="441" y="-151.39" font-family="Times,serif" font-size="14.00">1</text>
</g>
<!-- M2S4&#45;&gt;M3S1 -->
<g id="edge3" class="edge">
<title>M2S4&#45;&gt;M3S1</title>
<path fill="none" stroke="black" d="M320.39,-112.87C326.16,-115.34 332.26,-117.86 338,-120.09 359.81,-128.52 384.62,-137.06 404.31,-143.59"/>
<polygon fill="black" stroke="black" points="403.21,-146.91 413.81,-146.71 405.4,-140.26 403.21,-146.91"/>
<text text-anchor="middle" x="359.5" y="-138.89" font-family="Times,serif" font-size="14.00">(fr, fr)</text>
</g>
<!-- M3S5 -->
<g id="node5" class="node">
<title>M3S5</title>
<path fill="#ffffff" stroke="black" d="M456,-119.09C456,-119.09 426,-119.09 426,-119.09 420,-119.09 414,-113.09 414,-107.09 414,-107.09 414,-95.09 414,-95.09 414,-89.09 420,-83.09 426,-83.09 426,-83.09 456,-83.09 456,-83.09 462,-83.09 468,-89.09 468,-95.09 468,-95.09 468,-107.09 468,-107.09 468,-113.09 462,-119.09 456,-119.09"/>
<text text-anchor="middle" x="441" y="-97.39" font-family="Times,serif" font-size="14.00">5</text>
</g>
<!-- M2S4&#45;&gt;M3S5 -->
<g id="edge4" class="edge">
<title>M2S4&#45;&gt;M3S5</title>
<path fill="none" stroke="black" d="M320.1,-101.09C343.31,-101.09 377.5,-101.09 403.43,-101.09"/>
<polygon fill="black" stroke="black" points="403.63,-104.59 413.63,-101.09 403.63,-97.59 403.63,-104.59"/>
<text text-anchor="middle" x="359.5" y="-104.89" font-family="Times,serif" font-size="14.00">(ε, ε)</text>
</g>
<!-- M3S2 -->
<g id="node6" class="node">
<title>M3S2</title>
<path fill="#ffffff" stroke="black" d="M456,-65.09C456,-65.09 426,-65.09 426,-65.09 420,-65.09 414,-59.09 414,-53.09 414,-53.09 414,-41.09 414,-41.09 414,-35.09 420,-29.09 426,-29.09 426,-29.09 456,-29.09 456,-29.09 462,-29.09 468,-35.09 468,-41.09 468,-41.09 468,-53.09 468,-53.09 468,-59.09 462,-65.09 456,-65.09"/>
<text text-anchor="middle" x="441" y="-43.39" font-family="Times,serif" font-size="14.00">2</text>
</g>
<!-- M2S4&#45;&gt;M3S2 -->
<g id="edge5" class="edge">
<title>M2S4&#45;&gt;M3S2</title>
<path fill="none" stroke="black" d="M320.39,-89.3C326.16,-86.83 332.26,-84.31 338,-82.09 359.81,-73.65 384.62,-65.11 404.31,-58.58"/>
<polygon fill="black" stroke="black" points="405.4,-61.91 413.81,-55.46 403.21,-55.26 405.4,-61.91"/>
<text text-anchor="middle" x="359.5" y="-85.89" font-family="Times,serif" font-size="14.00">(r, r)</text>
</g>
<!-- M4S4 -->
<g id="node7" class="node">
<title>M4S4</title>
<path fill="#ffffff" stroke="black" d="M655,-113.09C655,-113.09 625,-113.09 625,-113.09 619,-113.09 613,-107.09 613,-101.09 613,-101.09 613,-89.09 613,-89.09 613,-83.09 619,-77.09 625,-77.09 625,-77.09 655,-77.09 655,-77.09 661,-77.09 667,-83.09 667,-89.09 667,-89.09 667,-101.09 667,-101.09 667,-107.09 661,-113.09 655,-113.09"/>
<text text-anchor="middle" x="640" y="-91.39" font-family="Times,serif" font-size="14.00">4</text>
</g>
<!-- M3S1&#45;&gt;M4S4 -->
<g id="edge6" class="edge">
<title>M3S1&#45;&gt;M4S4</title>
<path fill="none" stroke="black" d="M468.16,-147.12C502.75,-136.58 563.86,-117.97 602.84,-106.1"/>
<polygon fill="black" stroke="black" points="604.19,-109.35 612.73,-103.09 602.15,-102.65 604.19,-109.35"/>
<text text-anchor="middle" x="523.5" y="-138.89" font-family="Times,serif" font-size="14.00">(ε, fr)</text>
</g>
<!-- M3S5&#45;&gt;M4S4 -->
<g id="edge7" class="edge">
<title>M3S5&#45;&gt;M4S4</title>
<path fill="none" stroke="black" d="M468.16,-100.29C502.6,-99.24 563.34,-97.39 602.35,-96.2"/>
<polygon fill="black" stroke="black" points="602.84,-99.69 612.73,-95.89 602.63,-92.69 602.84,-99.69"/>
<text text-anchor="middle" x="523.5" y="-103.89" font-family="Times,serif" font-size="14.00">(rf, rf)</text>
</g>
<!-- M4S3 -->
<g id="node8" class="node">
<title>M4S3</title>
<path fill="#ffffff" stroke="black" d="M655,-59.09C655,-59.09 625,-59.09 625,-59.09 619,-59.09 613,-53.09 613,-47.09 613,-47.09 613,-35.09 613,-35.09 613,-29.09 619,-23.09 625,-23.09 625,-23.09 655,-23.09 655,-23.09 661,-23.09 667,-29.09 667,-35.09 667,-35.09 667,-47.09 667,-47.09 667,-53.09 661,-59.09 655,-59.09"/>
<text text-anchor="middle" x="640" y="-37.39" font-family="Times,serif" font-size="14.00">3</text>
</g>
<!-- M3S5&#45;&gt;M4S3 -->
<g id="edge8" class="edge">
<title>M3S5&#45;&gt;M4S3</title>
<path fill="none" stroke="black" d="M468,-91.64C476.64,-87.41 485.65,-81.64 492,-74.09 501.04,-63.32 490.69,-52.43 502,-44.09 530.77,-22.86 572.98,-25.52 602.93,-31.34"/>
<polygon fill="black" stroke="black" points="602.45,-34.82 612.97,-33.5 603.92,-27.98 602.45,-34.82"/>
<text text-anchor="middle" x="523.5" y="-47.89" font-family="Times,serif" font-size="14.00">(r, r)</text>
</g>
<!-- M3S2&#45;&gt;M4S4 -->
<g id="edge9" class="edge">
<title>M3S2&#45;&gt;M4S4</title>
<path fill="none" stroke="black" d="M468.16,-53.46C502.75,-61.89 563.86,-76.78 602.84,-86.28"/>
<polygon fill="black" stroke="black" points="602.19,-89.72 612.73,-88.69 603.84,-82.92 602.19,-89.72"/>
<text text-anchor="middle" x="523.5" y="-74.89" font-family="Times,serif" font-size="14.00">(f, rf)</text>
</g>
<!-- M3S2&#45;&gt;M4S3 -->
<g id="edge10" class="edge">
<title>M3S2&#45;&gt;M4S3</title>
<path fill="none" stroke="black" d="M460.81,-28.9C471.85,-19.52 486.63,-9.03 502,-4.09 536.24,6.92 575.99,-6.66 603.82,-20.37"/>
<polygon fill="black" stroke="black" points="602.28,-23.51 612.78,-24.98 605.49,-17.29 602.28,-23.51"/>
<text text-anchor="middle" x="523.5" y="-7.89" font-family="Times,serif" font-size="14.00">(ε, r)</text>
</g>
</g>
</svg>
