<?xml version="1.0" encoding="UTF-8" standalone="no"?>
<!DOCTYPE svg PUBLIC "-//W3C//DTD SVG 1.1//EN"
 "http://www.w3.org/Graphics/SVG/1.1/DTD/svg11.dtd">
<!-- Generated by graphviz version 2.43.0 (0)
 -->
<!-- Title: MONinput/e Pages: 1 -->
<svg width="5030pt" height="236pt"
 viewBox="0.00 0.00 5030.00 236.45" xmlns="http://www.w3.org/2000/svg" xmlns:xlink="http://www.w3.org/1999/xlink">
<g id="graph0" class="graph" transform="scale(1 1) rotate(0) translate(4 232.45)">
<title>MONinput/e</title>
<polygon fill="white" stroke="transparent" points="-4,4 -4,-232.45 5026,-232.45 5026,4 -4,4"/>
<g id="clust1" class="cluster">
<title>cluster0</title>
<path fill="#fff9dd" stroke="#fff9dd" d="M20,-66.45C20,-66.45 66,-66.45 66,-66.45 72,-66.45 78,-72.45 78,-78.45 78,-78.45 78,-129.45 78,-129.45 78,-135.45 72,-141.45 66,-141.45 66,-141.45 20,-141.45 20,-141.45 14,-141.45 8,-135.45 8,-129.45 8,-129.45 8,-78.45 8,-78.45 8,-72.45 14,-66.45 20,-66.45"/>
<text text-anchor="middle" x="43" y="-126.25" font-family="Times,serif" font-size="14.00">ε</text>
</g>
<g id="clust2" class="cluster">
<title>cluster1</title>
<path fill="#fff9dd" stroke="#fff9dd" d="M145,-66.45C145,-66.45 191,-66.45 191,-66.45 197,-66.45 203,-72.45 203,-78.45 203,-78.45 203,-129.45 203,-129.45 203,-135.45 197,-141.45 191,-141.45 191,-141.45 145,-141.45 145,-141.45 139,-141.45 133,-135.45 133,-129.45 133,-129.45 133,-78.45 133,-78.45 133,-72.45 139,-66.45 145,-66.45"/>
<text text-anchor="middle" x="168" y="-126.25" font-family="Times,serif" font-size="14.00">ε</text>
</g>
<g id="clust3" class="cluster">
<title>cluster2</title>
<path fill="#fff9dd" stroke="#fff9dd" d="M270,-66.45C270,-66.45 316,-66.45 316,-66.45 322,-66.45 328,-72.45 328,-78.45 328,-78.45 328,-129.45 328,-129.45 328,-135.45 322,-141.45 316,-141.45 316,-141.45 270,-141.45 270,-141.45 264,-141.45 258,-135.45 258,-129.45 258,-129.45 258,-78.45 258,-78.45 258,-72.45 264,-66.45 270,-66.45"/>
<text text-anchor="middle" x="293" y="-126.25" font-family="Times,serif" font-size="14.00">(r2r1)?</text>
</g>
<g id="clust4" class="cluster">
<title>cluster3</title>
<path fill="#fff9dd" stroke="#fff9dd" d="M443,-37.45C443,-37.45 505,-37.45 505,-37.45 511,-37.45 517,-43.45 517,-49.45 517,-49.45 517,-154.45 517,-154.45 517,-160.45 511,-166.45 505,-166.45 505,-166.45 443,-166.45 443,-166.45 437,-166.45 431,-160.45 431,-154.45 431,-154.45 431,-49.45 431,-49.45 431,-43.45 437,-37.45 443,-37.45"/>
<text text-anchor="middle" x="474" y="-151.25" font-family="Times,serif" font-size="14.00">(r2r1)|r2?</text>
</g>
<g id="clust5" class="cluster">
<title>cluster4</title>
<path fill="#fff9dd" stroke="#fff9dd" d="M608,-15.45C608,-15.45 730,-15.45 730,-15.45 736,-15.45 742,-21.45 742,-27.45 742,-27.45 742,-132.45 742,-132.45 742,-138.45 736,-144.45 730,-144.45 730,-144.45 608,-144.45 608,-144.45 602,-144.45 596,-138.45 596,-132.45 596,-132.45 596,-27.45 596,-27.45 596,-21.45 602,-15.45 608,-15.45"/>
<text text-anchor="middle" x="669" y="-129.25" font-family="Times,serif" font-size="14.00">((r2r1)|r2(r2r1)?)?</text>
</g>
<g id="clust6" class="cluster">
<title>cluster5</title>
<path fill="#fff9dd" stroke="#fff9dd" d="M919,-15.45C919,-15.45 1246,-15.45 1246,-15.45 1252,-15.45 1258,-21.45 1258,-27.45 1258,-27.45 1258,-186.45 1258,-186.45 1258,-192.45 1252,-198.45 1246,-198.45 1246,-198.45 919,-198.45 919,-198.45 913,-198.45 907,-192.45 907,-186.45 907,-186.45 907,-27.45 907,-27.45 907,-21.45 913,-15.45 919,-15.45"/>
<text text-anchor="middle" x="1082.5" y="-183.25" font-family="Times,serif" font-size="14.00">(((r2r1)|r2r2r1)|((r2r1)|r2r2?))|((r2r1r2)|(r2r1))</text>
</g>
<g id="clust7" class="cluster">
<title>cluster6</title>
<path fill="#fff9dd" stroke="#fff9dd" d="M1411,-37.45C1411,-37.45 1868,-37.45 1868,-37.45 1874,-37.45 1880,-43.45 1880,-49.45 1880,-49.45 1880,-154.45 1880,-154.45 1880,-160.45 1874,-166.45 1868,-166.45 1868,-166.45 1411,-166.45 1411,-166.45 1405,-166.45 1399,-160.45 1399,-154.45 1399,-154.45 1399,-49.45 1399,-49.45 1399,-43.45 1405,-37.45 1411,-37.45"/>
<text text-anchor="middle" x="1639.5" y="-151.25" font-family="Times,serif" font-size="14.00">((((r2r1)|r2r2r1)|((r2r1)|r2r2))|(r2r1r2)(r2r1)?)|(((r2r1)|r2)|(r2r1))</text>
</g>
<g id="clust8" class="cluster">
<title>cluster7</title>
<path fill="#fff9dd" stroke="#fff9dd" d="M2265,-37.45C2265,-37.45 3127,-37.45 3127,-37.45 3133,-37.45 3139,-43.45 3139,-49.45 3139,-49.45 3139,-208.45 3139,-208.45 3139,-214.45 3133,-220.45 3127,-220.45 3127,-220.45 2265,-220.45 2265,-220.45 2259,-220.45 2253,-214.45 2253,-208.45 2253,-208.45 2253,-49.45 2253,-49.45 2253,-43.45 2259,-37.45 2265,-37.45"/>
<text text-anchor="middle" x="2696" y="-205.25" font-family="Times,serif" font-size="14.00">(((((r2r1)|r2r2r1)|((r2r1)|r2r2))|(r2r1r2)r2r1)|((((r2r1)|r2r2r1)|((r2r1)|r2r2))|(r2r1r2)r2?))|(((r2r1)|r2)|(r2r1)(r2r1r2)|(r2r1))</text>
</g>
<g id="clust9" class="cluster">
<title>cluster8</title>
<path fill="#fff9dd" stroke="#fff9dd" d="M3500,-59.45C3500,-59.45 5010,-59.45 5010,-59.45 5016,-59.45 5022,-65.45 5022,-71.45 5022,-71.45 5022,-176.45 5022,-176.45 5022,-182.45 5016,-188.45 5010,-188.45 5010,-188.45 3500,-188.45 3500,-188.45 3494,-188.45 3488,-182.45 3488,-176.45 3488,-176.45 3488,-71.45 3488,-71.45 3488,-65.45 3494,-59.45 3500,-59.45"/>
<text text-anchor="middle" x="4255" y="-173.25" font-family="Times,serif" font-size="14.00">((((((r2r1)|r2r2r1)|((r2r1)|r2r2))|(r2r1r2)r2r1)|((((r2r1)|r2r2r1)|((r2r1)|r2r2))|(r2r1r2)r2))|(((r2r1)|r2)|(r2r1)r2r1r2)(((((r2r1)?)|r1)|r2)|(r2r1))|(r2r1r2))|(((((r2r1)|r2r2r1)|((r2r1)|r2r2))|(r2r1r2))|(((r2r1)|r2)|(r2r1)r2r1))</text>
</g>
<!-- M0S0 -->
<g id="node1" class="node">
<title>M0S0</title>
<path fill="#ffffff" stroke="black" d="M58,-110.45C58,-110.45 28,-110.45 28,-110.45 22,-110.45 16,-104.45 16,-98.45 16,-98.45 16,-86.45 16,-86.45 16,-80.45 22,-74.45 28,-74.45 28,-74.45 58,-74.45 58,-74.45 64,-74.45 70,-80.45 70,-86.45 70,-86.45 70,-98.45 70,-98.45 70,-104.45 64,-110.45 58,-110.45"/>
<text text-anchor="middle" x="43" y="-88.75" font-family="Times,serif" font-size="14.00">0</text>
</g>
<!-- M1S1 -->
<g id="node2" class="node">
<title>M1S1</title>
<path fill="#ffffff" stroke="black" d="M183,-110.45C183,-110.45 153,-110.45 153,-110.45 147,-110.45 141,-104.45 141,-98.45 141,-98.45 141,-86.45 141,-86.45 141,-80.45 147,-74.45 153,-74.45 153,-74.45 183,-74.45 183,-74.45 189,-74.45 195,-80.45 195,-86.45 195,-86.45 195,-98.45 195,-98.45 195,-104.45 189,-110.45 183,-110.45"/>
<text text-anchor="middle" x="168" y="-88.75" font-family="Times,serif" font-size="14.00">1</text>
</g>
<!-- M0S0&#45;&gt;M1S1 -->
<g id="edge1" class="edge">
<title>M0S0&#45;&gt;M1S1</title>
<path fill="none" stroke="black" d="M70.09,-92.45C87.78,-92.45 111.4,-92.45 130.9,-92.45"/>
<polygon fill="black" stroke="black" points="130.95,-95.95 140.95,-92.45 130.95,-88.95 130.95,-95.95"/>
<text text-anchor="middle" x="105.5" y="-96.25" font-family="Times,serif" font-size="14.00">(ε, ε)</text>
</g>
<!-- M2S2 -->
<g id="node3" class="node">
<title>M2S2</title>
<path fill="#ffffff" stroke="black" d="M308,-110.45C308,-110.45 278,-110.45 278,-110.45 272,-110.45 266,-104.45 266,-98.45 266,-98.45 266,-86.45 266,-86.45 266,-80.45 272,-74.45 278,-74.45 278,-74.45 308,-74.45 308,-74.45 314,-74.45 320,-80.45 320,-86.45 320,-86.45 320,-98.45 320,-98.45 320,-104.45 314,-110.45 308,-110.45"/>
<text text-anchor="middle" x="293" y="-88.75" font-family="Times,serif" font-size="14.00">2</text>
</g>
<!-- M1S1&#45;&gt;M2S2 -->
<g id="edge2" class="edge">
<title>M1S1&#45;&gt;M2S2</title>
<path fill="none" stroke="black" d="M195.09,-92.45C212.78,-92.45 236.4,-92.45 255.9,-92.45"/>
<polygon fill="black" stroke="black" points="255.95,-95.95 265.95,-92.45 255.95,-88.95 255.95,-95.95"/>
<text text-anchor="middle" x="230.5" y="-96.25" font-family="Times,serif" font-size="14.00">(ε, ε)</text>
</g>
<!-- M3S1 -->
<g id="node4" class="node">
<title>M3S1</title>
<path fill="#ffffff" stroke="black" d="M489,-135.45C489,-135.45 459,-135.45 459,-135.45 453,-135.45 447,-129.45 447,-123.45 447,-123.45 447,-111.45 447,-111.45 447,-105.45 453,-99.45 459,-99.45 459,-99.45 489,-99.45 489,-99.45 495,-99.45 501,-105.45 501,-111.45 501,-111.45 501,-123.45 501,-123.45 501,-129.45 495,-135.45 489,-135.45"/>
<text text-anchor="middle" x="474" y="-113.75" font-family="Times,serif" font-size="14.00">1</text>
</g>
<!-- M2S2&#45;&gt;M3S1 -->
<g id="edge3" class="edge">
<title>M2S2&#45;&gt;M3S1</title>
<path fill="none" stroke="black" d="M320.03,-96.08C350.78,-100.38 402.14,-107.55 436.77,-112.39"/>
<polygon fill="black" stroke="black" points="436.55,-115.89 446.94,-113.81 437.52,-108.96 436.55,-115.89"/>
<text text-anchor="middle" x="379.5" y="-113.25" font-family="Times,serif" font-size="14.00">(r2r1, r2r1)</text>
</g>
<!-- M3S3 -->
<g id="node5" class="node">
<title>M3S3</title>
<path fill="#ffffff" stroke="black" d="M489,-81.45C489,-81.45 459,-81.45 459,-81.45 453,-81.45 447,-75.45 447,-69.45 447,-69.45 447,-57.45 447,-57.45 447,-51.45 453,-45.45 459,-45.45 459,-45.45 489,-45.45 489,-45.45 495,-45.45 501,-51.45 501,-57.45 501,-57.45 501,-69.45 501,-69.45 501,-75.45 495,-81.45 489,-81.45"/>
<text text-anchor="middle" x="474" y="-59.75" font-family="Times,serif" font-size="14.00">3</text>
</g>
<!-- M2S2&#45;&gt;M3S3 -->
<g id="edge4" class="edge">
<title>M2S2&#45;&gt;M3S3</title>
<path fill="none" stroke="black" d="M320.34,-83.88C326.11,-82.22 332.23,-80.63 338,-79.45 371.06,-72.65 409.32,-68.46 436.64,-66.08"/>
<polygon fill="black" stroke="black" points="437.24,-69.54 446.91,-65.22 436.65,-62.56 437.24,-69.54"/>
<text text-anchor="middle" x="379.5" y="-83.25" font-family="Times,serif" font-size="14.00">(ε, ε)</text>
</g>
<!-- M4S2 -->
<g id="node6" class="node">
<title>M4S2</title>
<path fill="#ffffff" stroke="black" d="M684,-113.45C684,-113.45 654,-113.45 654,-113.45 648,-113.45 642,-107.45 642,-101.45 642,-101.45 642,-89.45 642,-89.45 642,-83.45 648,-77.45 654,-77.45 654,-77.45 684,-77.45 684,-77.45 690,-77.45 696,-83.45 696,-89.45 696,-89.45 696,-101.45 696,-101.45 696,-107.45 690,-113.45 684,-113.45"/>
<text text-anchor="middle" x="669" y="-91.75" font-family="Times,serif" font-size="14.00">2</text>
</g>
<!-- M3S1&#45;&gt;M4S2 -->
<g id="edge5" class="edge">
<title>M3S1&#45;&gt;M4S2</title>
<path fill="none" stroke="black" d="M501.03,-114.48C534.7,-110.64 593.54,-103.93 631.62,-99.59"/>
<polygon fill="black" stroke="black" points="632.23,-103.05 641.77,-98.44 631.44,-96.09 632.23,-103.05"/>
<text text-anchor="middle" x="556.5" y="-114.25" font-family="Times,serif" font-size="14.00">(ε, r2r1)</text>
</g>
<!-- M3S3&#45;&gt;M4S2 -->
<g id="edge6" class="edge">
<title>M3S3&#45;&gt;M4S2</title>
<path fill="none" stroke="black" d="M501.03,-67.76C534.7,-73.34 593.54,-83.1 631.62,-89.41"/>
<polygon fill="black" stroke="black" points="631.33,-92.91 641.77,-91.1 632.47,-86.01 631.33,-92.91"/>
<text text-anchor="middle" x="556.5" y="-84.25" font-family="Times,serif" font-size="14.00">(r2, r2)</text>
</g>
<!-- M4S4 -->
<g id="node7" class="node">
<title>M4S4</title>
<path fill="#ffffff" stroke="black" d="M684,-59.45C684,-59.45 654,-59.45 654,-59.45 648,-59.45 642,-53.45 642,-47.45 642,-47.45 642,-35.45 642,-35.45 642,-29.45 648,-23.45 654,-23.45 654,-23.45 684,-23.45 684,-23.45 690,-23.45 696,-29.45 696,-35.45 696,-35.45 696,-47.45 696,-47.45 696,-53.45 690,-59.45 684,-59.45"/>
<text text-anchor="middle" x="669" y="-37.75" font-family="Times,serif" font-size="14.00">4</text>
</g>
<!-- M3S3&#45;&gt;M4S4 -->
<g id="edge7" class="edge">
<title>M3S3&#45;&gt;M4S4</title>
<path fill="none" stroke="black" d="M501.13,-50.66C509.23,-47.32 518.31,-44.17 527,-42.45 562.18,-35.48 603.28,-36.16 631.99,-38.02"/>
<polygon fill="black" stroke="black" points="631.75,-41.51 641.98,-38.74 632.26,-34.53 631.75,-41.51"/>
<text text-anchor="middle" x="556.5" y="-46.25" font-family="Times,serif" font-size="14.00">(ε, ε)</text>
</g>
<!-- M5S1 -->
<g id="node8" class="node">
<title>M5S1</title>
<path fill="#ffffff" stroke="black" d="M1097,-167.45C1097,-167.45 1067,-167.45 1067,-167.45 1061,-167.45 1055,-161.45 1055,-155.45 1055,-155.45 1055,-143.45 1055,-143.45 1055,-137.45 1061,-131.45 1067,-131.45 1067,-131.45 1097,-131.45 1097,-131.45 1103,-131.45 1109,-137.45 1109,-143.45 1109,-143.45 1109,-155.45 1109,-155.45 1109,-161.45 1103,-167.45 1097,-167.45"/>
<text text-anchor="middle" x="1082" y="-145.75" font-family="Times,serif" font-size="14.00">1</text>
</g>
<!-- M4S2&#45;&gt;M5S1 -->
<g id="edge8" class="edge">
<title>M4S2&#45;&gt;M5S1</title>
<path fill="none" stroke="black" d="M696.06,-102.34C712.09,-106.37 733.12,-111.27 752,-114.45 857.53,-132.22 983.72,-142.66 1044.6,-147.03"/>
<polygon fill="black" stroke="black" points="1044.62,-150.54 1054.84,-147.75 1045.11,-143.56 1044.62,-150.54"/>
<text text-anchor="middle" x="824.5" y="-137.25" font-family="Times,serif" font-size="14.00">(r2r1, (r2r1)|r2r2r1)</text>
</g>
<!-- M5S3 -->
<g id="node9" class="node">
<title>M5S3</title>
<path fill="#ffffff" stroke="black" d="M1097,-113.45C1097,-113.45 1067,-113.45 1067,-113.45 1061,-113.45 1055,-107.45 1055,-101.45 1055,-101.45 1055,-89.45 1055,-89.45 1055,-83.45 1061,-77.45 1067,-77.45 1067,-77.45 1097,-77.45 1097,-77.45 1103,-77.45 1109,-83.45 1109,-89.45 1109,-89.45 1109,-101.45 1109,-101.45 1109,-107.45 1103,-113.45 1097,-113.45"/>
<text text-anchor="middle" x="1082" y="-91.75" font-family="Times,serif" font-size="14.00">3</text>
</g>
<!-- M4S2&#45;&gt;M5S3 -->
<g id="edge9" class="edge">
<title>M4S2&#45;&gt;M5S3</title>
<path fill="none" stroke="black" d="M696.02,-95.45C766.78,-95.45 962.85,-95.45 1044.54,-95.45"/>
<polygon fill="black" stroke="black" points="1044.83,-98.95 1054.83,-95.45 1044.83,-91.95 1044.83,-98.95"/>
<text text-anchor="middle" x="824.5" y="-99.25" font-family="Times,serif" font-size="14.00">(ε, (r2r1)|r2)</text>
</g>
<!-- M5S5 -->
<g id="node10" class="node">
<title>M5S5</title>
<path fill="#ffffff" stroke="black" d="M1097,-59.45C1097,-59.45 1067,-59.45 1067,-59.45 1061,-59.45 1055,-53.45 1055,-47.45 1055,-47.45 1055,-35.45 1055,-35.45 1055,-29.45 1061,-23.45 1067,-23.45 1067,-23.45 1097,-23.45 1097,-23.45 1103,-23.45 1109,-29.45 1109,-35.45 1109,-35.45 1109,-47.45 1109,-47.45 1109,-53.45 1103,-59.45 1097,-59.45"/>
<text text-anchor="middle" x="1082" y="-37.75" font-family="Times,serif" font-size="14.00">5</text>
</g>
<!-- M4S4&#45;&gt;M5S5 -->
<g id="edge10" class="edge">
<title>M4S4&#45;&gt;M5S5</title>
<path fill="none" stroke="black" d="M696.02,-41.45C766.78,-41.45 962.85,-41.45 1044.54,-41.45"/>
<polygon fill="black" stroke="black" points="1044.83,-44.95 1054.83,-41.45 1044.83,-37.95 1044.83,-44.95"/>
<text text-anchor="middle" x="824.5" y="-45.25" font-family="Times,serif" font-size="14.00">(ε, ε)</text>
</g>
<!-- M6S2 -->
<g id="node11" class="node">
<title>M6S2</title>
<path fill="#ffffff" stroke="black" d="M1654,-135.45C1654,-135.45 1624,-135.45 1624,-135.45 1618,-135.45 1612,-129.45 1612,-123.45 1612,-123.45 1612,-111.45 1612,-111.45 1612,-105.45 1618,-99.45 1624,-99.45 1624,-99.45 1654,-99.45 1654,-99.45 1660,-99.45 1666,-105.45 1666,-111.45 1666,-111.45 1666,-123.45 1666,-123.45 1666,-129.45 1660,-135.45 1654,-135.45"/>
<text text-anchor="middle" x="1639" y="-113.75" font-family="Times,serif" font-size="14.00">2</text>
</g>
<!-- M5S1&#45;&gt;M6S2 -->
<g id="edge11" class="edge">
<title>M5S1&#45;&gt;M6S2</title>
<path fill="none" stroke="black" d="M1109.02,-147.95C1199.05,-142.75 1497.43,-125.55 1601.67,-119.54"/>
<polygon fill="black" stroke="black" points="1601.93,-123.03 1611.71,-118.96 1601.52,-116.04 1601.93,-123.03"/>
<text text-anchor="middle" x="1328.5" y="-141.25" font-family="Times,serif" font-size="14.00">(ε, (r2r1)|r2r2r1)</text>
</g>
<!-- M5S3&#45;&gt;M6S2 -->
<g id="edge12" class="edge">
<title>M5S3&#45;&gt;M6S2</title>
<path fill="none" stroke="black" d="M1109.02,-96.48C1199.05,-100.05 1497.43,-111.87 1601.67,-116.01"/>
<polygon fill="black" stroke="black" points="1601.58,-119.5 1611.71,-116.4 1601.86,-112.51 1601.58,-119.5"/>
<text text-anchor="middle" x="1328.5" y="-110.25" font-family="Times,serif" font-size="14.00">(r2, (r2r1)|r2r2)</text>
</g>
<!-- M6S4 -->
<g id="node12" class="node">
<title>M6S4</title>
<path fill="#ffffff" stroke="black" d="M1654,-81.45C1654,-81.45 1624,-81.45 1624,-81.45 1618,-81.45 1612,-75.45 1612,-69.45 1612,-69.45 1612,-57.45 1612,-57.45 1612,-51.45 1618,-45.45 1624,-45.45 1624,-45.45 1654,-45.45 1654,-45.45 1660,-45.45 1666,-51.45 1666,-57.45 1666,-57.45 1666,-69.45 1666,-69.45 1666,-75.45 1660,-81.45 1654,-81.45"/>
<text text-anchor="middle" x="1639" y="-59.75" font-family="Times,serif" font-size="14.00">4</text>
</g>
<!-- M5S3&#45;&gt;M6S4 -->
<g id="edge13" class="edge">
<title>M5S3&#45;&gt;M6S4</title>
<path fill="none" stroke="black" d="M1109.04,-93.67C1144.84,-91.24 1211.29,-86.82 1268,-83.45 1390.27,-76.18 1535.33,-68.66 1601.65,-65.28"/>
<polygon fill="black" stroke="black" points="1602.17,-68.76 1611.98,-64.76 1601.81,-61.77 1602.17,-68.76"/>
<text text-anchor="middle" x="1328.5" y="-87.25" font-family="Times,serif" font-size="14.00">(ε, (r2r1)|r2)</text>
</g>
<!-- M5S5&#45;&gt;M6S2 -->
<g id="edge14" class="edge">
<title>M5S5&#45;&gt;M6S2</title>
<path fill="none" stroke="black" d="M1109,-39.13C1174.84,-33.84 1345.97,-23.74 1389,-57.45 1401.07,-66.9 1387.22,-80.64 1399,-90.45 1456.48,-138.33 1550.56,-132.41 1601.86,-124.55"/>
<polygon fill="black" stroke="black" points="1602.53,-127.99 1611.83,-122.91 1601.4,-121.08 1602.53,-127.99"/>
<text text-anchor="middle" x="1328.5" y="-61.25" font-family="Times,serif" font-size="14.00">(r2r1r2, r2r1r2)</text>
</g>
<!-- M5S5&#45;&gt;M6S4 -->
<g id="edge15" class="edge">
<title>M5S5&#45;&gt;M6S4</title>
<path fill="none" stroke="black" d="M1109.1,-34.53C1144.7,-25.48 1210.63,-10.13 1268,-4.45 1321.52,0.85 1335.59,1.8 1389,-4.45 1466.24,-13.47 1554.27,-37.74 1602.22,-52.19"/>
<polygon fill="black" stroke="black" points="1601.24,-55.55 1611.83,-55.11 1603.28,-48.85 1601.24,-55.55"/>
<text text-anchor="middle" x="1328.5" y="-8.25" font-family="Times,serif" font-size="14.00">(r2r1, r2r1)</text>
</g>
<!-- M7S1 -->
<g id="node13" class="node">
<title>M7S1</title>
<path fill="#ffffff" stroke="black" d="M2711,-189.45C2711,-189.45 2681,-189.45 2681,-189.45 2675,-189.45 2669,-183.45 2669,-177.45 2669,-177.45 2669,-165.45 2669,-165.45 2669,-159.45 2675,-153.45 2681,-153.45 2681,-153.45 2711,-153.45 2711,-153.45 2717,-153.45 2723,-159.45 2723,-165.45 2723,-165.45 2723,-177.45 2723,-177.45 2723,-183.45 2717,-189.45 2711,-189.45"/>
<text text-anchor="middle" x="2696" y="-167.75" font-family="Times,serif" font-size="14.00">1</text>
</g>
<!-- M6S2&#45;&gt;M7S1 -->
<g id="edge16" class="edge">
<title>M6S2&#45;&gt;M7S1</title>
<path fill="none" stroke="black" d="M1666.26,-119.72C1711.78,-123.61 1808.31,-131.57 1890,-136.45 2186.59,-154.16 2545.17,-166.57 2658.71,-170.29"/>
<polygon fill="black" stroke="black" points="2658.81,-173.79 2668.92,-170.62 2659.04,-166.8 2658.81,-173.79"/>
<text text-anchor="middle" x="2066.5" y="-156.25" font-family="Times,serif" font-size="14.00">(r2r1, (((r2r1)|r2r2r1)|((r2r1)|r2r2))|(r2r1r2)r2r1)</text>
</g>
<!-- M7S3 -->
<g id="node14" class="node">
<title>M7S3</title>
<path fill="#ffffff" stroke="black" d="M2711,-135.45C2711,-135.45 2681,-135.45 2681,-135.45 2675,-135.45 2669,-129.45 2669,-123.45 2669,-123.45 2669,-111.45 2669,-111.45 2669,-105.45 2675,-99.45 2681,-99.45 2681,-99.45 2711,-99.45 2711,-99.45 2717,-99.45 2723,-105.45 2723,-111.45 2723,-111.45 2723,-123.45 2723,-123.45 2723,-129.45 2717,-135.45 2711,-135.45"/>
<text text-anchor="middle" x="2696" y="-113.75" font-family="Times,serif" font-size="14.00">3</text>
</g>
<!-- M6S2&#45;&gt;M7S3 -->
<g id="edge17" class="edge">
<title>M6S2&#45;&gt;M7S3</title>
<path fill="none" stroke="black" d="M1666.08,-117.45C1808.59,-117.45 2492.85,-117.45 2658.72,-117.45"/>
<polygon fill="black" stroke="black" points="2658.89,-120.95 2668.89,-117.45 2658.89,-113.95 2658.89,-120.95"/>
<text text-anchor="middle" x="2066.5" y="-121.25" font-family="Times,serif" font-size="14.00">(ε, (((r2r1)|r2r2r1)|((r2r1)|r2r2))|(r2r1r2))</text>
</g>
<!-- M7S5 -->
<g id="node15" class="node">
<title>M7S5</title>
<path fill="#ffffff" stroke="black" d="M2711,-81.45C2711,-81.45 2681,-81.45 2681,-81.45 2675,-81.45 2669,-75.45 2669,-69.45 2669,-69.45 2669,-57.45 2669,-57.45 2669,-51.45 2675,-45.45 2681,-45.45 2681,-45.45 2711,-45.45 2711,-45.45 2717,-45.45 2723,-51.45 2723,-57.45 2723,-57.45 2723,-69.45 2723,-69.45 2723,-75.45 2717,-81.45 2711,-81.45"/>
<text text-anchor="middle" x="2696" y="-59.75" font-family="Times,serif" font-size="14.00">5</text>
</g>
<!-- M6S4&#45;&gt;M7S5 -->
<g id="edge18" class="edge">
<title>M6S4&#45;&gt;M7S5</title>
<path fill="none" stroke="black" d="M1666.08,-63.45C1808.59,-63.45 2492.85,-63.45 2658.72,-63.45"/>
<polygon fill="black" stroke="black" points="2658.89,-66.95 2668.89,-63.45 2658.89,-59.95 2658.89,-66.95"/>
<text text-anchor="middle" x="2066.5" y="-67.25" font-family="Times,serif" font-size="14.00">(ε, ((r2r1)|r2)|(r2r1))</text>
</g>
<!-- M8S2 -->
<g id="node16" class="node">
<title>M8S2</title>
<path fill="#ffffff" stroke="black" d="M4270,-157.45C4270,-157.45 4240,-157.45 4240,-157.45 4234,-157.45 4228,-151.45 4228,-145.45 4228,-145.45 4228,-133.45 4228,-133.45 4228,-127.45 4234,-121.45 4240,-121.45 4240,-121.45 4270,-121.45 4270,-121.45 4276,-121.45 4282,-127.45 4282,-133.45 4282,-133.45 4282,-145.45 4282,-145.45 4282,-151.45 4276,-157.45 4270,-157.45"/>
<text text-anchor="middle" x="4255" y="-135.75" font-family="Times,serif" font-size="14.00">2</text>
</g>
<!-- M7S1&#45;&gt;M8S2 -->
<g id="edge19" class="edge">
<title>M7S1&#45;&gt;M8S2</title>
<path fill="none" stroke="black" d="M2723.05,-170.91C2906.58,-167.14 4004.05,-144.58 4217.9,-140.19"/>
<polygon fill="black" stroke="black" points="4218.04,-143.69 4227.96,-139.98 4217.89,-136.69 4218.04,-143.69"/>
<text text-anchor="middle" x="3313.5" y="-165.25" font-family="Times,serif" font-size="14.00">(ε, (((r2r1)|r2r2r1)|((r2r1)|r2r2))|(r2r1r2)r2r1)</text>
</g>
<!-- M7S3&#45;&gt;M8S2 -->
<g id="edge20" class="edge">
<title>M7S3&#45;&gt;M8S2</title>
<path fill="none" stroke="black" d="M2723.05,-117.81C2906.58,-120.41 4004.05,-135.91 4217.9,-138.94"/>
<polygon fill="black" stroke="black" points="4217.91,-142.44 4227.96,-139.08 4218.01,-135.44 4217.91,-142.44"/>
<text text-anchor="middle" x="3313.5" y="-132.25" font-family="Times,serif" font-size="14.00">(r2, (((r2r1)|r2r2r1)|((r2r1)|r2r2))|(r2r1r2)r2)</text>
</g>
<!-- M8S4 -->
<g id="node17" class="node">
<title>M8S4</title>
<path fill="#ffffff" stroke="black" d="M4270,-103.45C4270,-103.45 4240,-103.45 4240,-103.45 4234,-103.45 4228,-97.45 4228,-91.45 4228,-91.45 4228,-79.45 4228,-79.45 4228,-73.45 4234,-67.45 4240,-67.45 4240,-67.45 4270,-67.45 4270,-67.45 4276,-67.45 4282,-73.45 4282,-79.45 4282,-79.45 4282,-91.45 4282,-91.45 4282,-97.45 4276,-103.45 4270,-103.45"/>
<text text-anchor="middle" x="4255" y="-81.75" font-family="Times,serif" font-size="14.00">4</text>
</g>
<!-- M7S3&#45;&gt;M8S4 -->
<g id="edge21" class="edge">
<title>M7S3&#45;&gt;M8S4</title>
<path fill="none" stroke="black" d="M2723.24,-116.59C2792.69,-114.33 2987.13,-108.17 3149,-104.45 3569.16,-94.79 4079.3,-87.75 4217.83,-85.92"/>
<polygon fill="black" stroke="black" points="4217.94,-89.41 4227.89,-85.78 4217.85,-82.42 4217.94,-89.41"/>
<text text-anchor="middle" x="3313.5" y="-108.25" font-family="Times,serif" font-size="14.00">(ε, (((r2r1)|r2r2r1)|((r2r1)|r2r2))|(r2r1r2))</text>
</g>
<!-- M7S5&#45;&gt;M8S2 -->
<g id="edge22" class="edge">
<title>M7S5&#45;&gt;M8S2</title>
<path fill="none" stroke="black" d="M2723.29,-62.14C2852.56,-55.97 3416.96,-31.85 3478,-78.45 3490.52,-88 3475.56,-102.79 3488,-112.45 3713.74,-287.64 4099.75,-187.92 4218.31,-151.22"/>
<polygon fill="black" stroke="black" points="4219.5,-154.52 4227.99,-148.18 4217.4,-147.84 4219.5,-154.52"/>
<text text-anchor="middle" x="3313.5" y="-82.25" font-family="Times,serif" font-size="14.00">(r2r1r2, ((r2r1)|r2)|(r2r1)r2r1r2)</text>
</g>
<!-- M7S5&#45;&gt;M8S4 -->
<g id="edge23" class="edge">
<title>M7S5&#45;&gt;M8S4</title>
<path fill="none" stroke="black" d="M2723.45,-60.52C2793.02,-52.99 2986.94,-33.07 3149,-26.45 3569.46,-9.27 4079.39,-64.68 4217.85,-81.04"/>
<polygon fill="black" stroke="black" points="4217.56,-84.53 4227.91,-82.23 4218.39,-77.58 4217.56,-84.53"/>
<text text-anchor="middle" x="3313.5" y="-30.25" font-family="Times,serif" font-size="14.00">(r2r1, ((r2r1)|r2)|(r2r1)r2r1)</text>
</g>
</g>
</svg>
