<?xml version="1.0" encoding="UTF-8" standalone="no"?>
<!DOCTYPE svg PUBLIC "-//W3C//DTD SVG 1.1//EN"
 "http://www.w3.org/Graphics/SVG/1.1/DTD/svg11.dtd">
<!-- Generated by graphviz version 2.43.0 (0)
 -->
<!-- Title: MONinput/e Pages: 1 -->
<svg width="1181pt" height="222pt"
 viewBox="0.00 0.00 1181.00 222.16" xmlns="http://www.w3.org/2000/svg" xmlns:xlink="http://www.w3.org/1999/xlink">
<g id="graph0" class="graph" transform="scale(1 1) rotate(0) translate(4 218.16)">
<title>MONinput/e</title>
<polygon fill="white" stroke="transparent" points="-4,4 -4,-218.16 1177,-218.16 1177,4 -4,4"/>
<g id="clust1" class="cluster">
<title>cluster0</title>
<path fill="#fff9dd" stroke="#fff9dd" d="M20,-77.16C20,-77.16 66,-77.16 66,-77.16 72,-77.16 78,-83.16 78,-89.16 78,-89.16 78,-140.16 78,-140.16 78,-146.16 72,-152.16 66,-152.16 66,-152.16 20,-152.16 20,-152.16 14,-152.16 8,-146.16 8,-140.16 8,-140.16 8,-89.16 8,-89.16 8,-83.16 14,-77.16 20,-77.16"/>
<text text-anchor="middle" x="43" y="-136.96" font-family="Times,serif" font-size="14.00">ε</text>
</g>
<g id="clust2" class="cluster">
<title>cluster1</title>
<path fill="#fff9dd" stroke="#fff9dd" d="M145,-77.16C145,-77.16 191,-77.16 191,-77.16 197,-77.16 203,-83.16 203,-89.16 203,-89.16 203,-140.16 203,-140.16 203,-146.16 197,-152.16 191,-152.16 191,-152.16 145,-152.16 145,-152.16 139,-152.16 133,-146.16 133,-140.16 133,-140.16 133,-89.16 133,-89.16 133,-83.16 139,-77.16 145,-77.16"/>
<text text-anchor="middle" x="168" y="-136.96" font-family="Times,serif" font-size="14.00">ε</text>
</g>
<g id="clust3" class="cluster">
<title>cluster2</title>
<path fill="#fff9dd" stroke="#fff9dd" d="M270,-77.16C270,-77.16 332,-77.16 332,-77.16 338,-77.16 344,-83.16 344,-89.16 344,-89.16 344,-140.16 344,-140.16 344,-146.16 338,-152.16 332,-152.16 332,-152.16 270,-152.16 270,-152.16 264,-152.16 258,-146.16 258,-140.16 258,-140.16 258,-89.16 258,-89.16 258,-83.16 264,-77.16 270,-77.16"/>
<text text-anchor="middle" x="301" y="-136.96" font-family="Times,serif" font-size="14.00">(r2r1)?|r1</text>
</g>
<g id="clust4" class="cluster">
<title>cluster3</title>
<path fill="#fff9dd" stroke="#fff9dd" d="M459,-23.16C459,-23.16 635,-23.16 635,-23.16 641,-23.16 647,-29.16 647,-35.16 647,-35.16 647,-194.16 647,-194.16 647,-200.16 641,-206.16 635,-206.16 635,-206.16 459,-206.16 459,-206.16 453,-206.16 447,-200.16 447,-194.16 447,-194.16 447,-35.16 447,-35.16 447,-29.16 453,-23.16 459,-23.16"/>
<text text-anchor="middle" x="547" y="-190.96" font-family="Times,serif" font-size="14.00">((r2r1)|((r1r2)|r1))|(r1r2?)</text>
</g>
<g id="clust5" class="cluster">
<title>cluster4</title>
<path fill="#fff9dd" stroke="#fff9dd" d="M762,-17.16C762,-17.16 1161,-17.16 1161,-17.16 1167,-17.16 1173,-23.16 1173,-29.16 1173,-29.16 1173,-134.16 1173,-134.16 1173,-140.16 1167,-146.16 1161,-146.16 1161,-146.16 762,-146.16 762,-146.16 756,-146.16 750,-140.16 750,-134.16 750,-134.16 750,-29.16 750,-29.16 750,-23.16 756,-17.16 762,-17.16"/>
<text text-anchor="middle" x="961.5" y="-130.96" font-family="Times,serif" font-size="14.00">(((r2r1)|(r1r2))|(r1r2)(((r1?|r2)|(r2r1))|(r2r1))|(r2r1r2))|r1</text>
</g>
<!-- M0S0 -->
<g id="node1" class="node">
<title>M0S0</title>
<path fill="#ffffff" stroke="black" d="M58,-121.16C58,-121.16 28,-121.16 28,-121.16 22,-121.16 16,-115.16 16,-109.16 16,-109.16 16,-97.16 16,-97.16 16,-91.16 22,-85.16 28,-85.16 28,-85.16 58,-85.16 58,-85.16 64,-85.16 70,-91.16 70,-97.16 70,-97.16 70,-109.16 70,-109.16 70,-115.16 64,-121.16 58,-121.16"/>
<text text-anchor="middle" x="43" y="-99.46" font-family="Times,serif" font-size="14.00">0</text>
</g>
<!-- M1S1 -->
<g id="node2" class="node">
<title>M1S1</title>
<path fill="#ffffff" stroke="black" d="M183,-121.16C183,-121.16 153,-121.16 153,-121.16 147,-121.16 141,-115.16 141,-109.16 141,-109.16 141,-97.16 141,-97.16 141,-91.16 147,-85.16 153,-85.16 153,-85.16 183,-85.16 183,-85.16 189,-85.16 195,-91.16 195,-97.16 195,-97.16 195,-109.16 195,-109.16 195,-115.16 189,-121.16 183,-121.16"/>
<text text-anchor="middle" x="168" y="-99.46" font-family="Times,serif" font-size="14.00">1</text>
</g>
<!-- M0S0&#45;&gt;M1S1 -->
<g id="edge1" class="edge">
<title>M0S0&#45;&gt;M1S1</title>
<path fill="none" stroke="black" d="M70.09,-103.16C87.78,-103.16 111.4,-103.16 130.9,-103.16"/>
<polygon fill="black" stroke="black" points="130.95,-106.66 140.95,-103.16 130.95,-99.66 130.95,-106.66"/>
<text text-anchor="middle" x="105.5" y="-106.96" font-family="Times,serif" font-size="14.00">(ε, ε)</text>
</g>
<!-- M2S2 -->
<g id="node3" class="node">
<title>M2S2</title>
<path fill="#ffffff" stroke="black" d="M316,-121.16C316,-121.16 286,-121.16 286,-121.16 280,-121.16 274,-115.16 274,-109.16 274,-109.16 274,-97.16 274,-97.16 274,-91.16 280,-85.16 286,-85.16 286,-85.16 316,-85.16 316,-85.16 322,-85.16 328,-91.16 328,-97.16 328,-97.16 328,-109.16 328,-109.16 328,-115.16 322,-121.16 316,-121.16"/>
<text text-anchor="middle" x="301" y="-99.46" font-family="Times,serif" font-size="14.00">2</text>
</g>
<!-- M1S1&#45;&gt;M2S2 -->
<g id="edge2" class="edge">
<title>M1S1&#45;&gt;M2S2</title>
<path fill="none" stroke="black" d="M195.19,-103.16C214.83,-103.16 241.94,-103.16 263.67,-103.16"/>
<polygon fill="black" stroke="black" points="263.85,-106.66 273.85,-103.16 263.85,-99.66 263.85,-106.66"/>
<text text-anchor="middle" x="230.5" y="-106.96" font-family="Times,serif" font-size="14.00">(ε, ε)</text>
</g>
<!-- M3S1 -->
<g id="node4" class="node">
<title>M3S1</title>
<path fill="#ffffff" stroke="black" d="M562,-175.16C562,-175.16 532,-175.16 532,-175.16 526,-175.16 520,-169.16 520,-163.16 520,-163.16 520,-151.16 520,-151.16 520,-145.16 526,-139.16 532,-139.16 532,-139.16 562,-139.16 562,-139.16 568,-139.16 574,-145.16 574,-151.16 574,-151.16 574,-163.16 574,-163.16 574,-169.16 568,-175.16 562,-175.16"/>
<text text-anchor="middle" x="547" y="-153.46" font-family="Times,serif" font-size="14.00">1</text>
</g>
<!-- M2S2&#45;&gt;M3S1 -->
<g id="edge3" class="edge">
<title>M2S2&#45;&gt;M3S1</title>
<path fill="none" stroke="black" d="M328.17,-113.7C336.35,-116.73 345.47,-119.84 354,-122.16 407.35,-136.65 470.69,-146.89 509.61,-152.4"/>
<polygon fill="black" stroke="black" points="509.53,-155.93 519.91,-153.84 510.49,-148.99 509.53,-155.93"/>
<text text-anchor="middle" x="395.5" y="-142.96" font-family="Times,serif" font-size="14.00">(r2r1, r2r1)</text>
</g>
<!-- M3S3 -->
<g id="node5" class="node">
<title>M3S3</title>
<path fill="#ffffff" stroke="black" d="M562,-121.16C562,-121.16 532,-121.16 532,-121.16 526,-121.16 520,-115.16 520,-109.16 520,-109.16 520,-97.16 520,-97.16 520,-91.16 526,-85.16 532,-85.16 532,-85.16 562,-85.16 562,-85.16 568,-85.16 574,-91.16 574,-97.16 574,-97.16 574,-109.16 574,-109.16 574,-115.16 568,-121.16 562,-121.16"/>
<text text-anchor="middle" x="547" y="-99.46" font-family="Times,serif" font-size="14.00">3</text>
</g>
<!-- M2S2&#45;&gt;M3S3 -->
<g id="edge4" class="edge">
<title>M2S2&#45;&gt;M3S3</title>
<path fill="none" stroke="black" d="M328.11,-103.16C371.75,-103.16 459.6,-103.16 509.39,-103.16"/>
<polygon fill="black" stroke="black" points="509.71,-106.66 519.71,-103.16 509.71,-99.66 509.71,-106.66"/>
<text text-anchor="middle" x="395.5" y="-106.96" font-family="Times,serif" font-size="14.00">(ε, ε)</text>
</g>
<!-- M3S4 -->
<g id="node6" class="node">
<title>M3S4</title>
<path fill="#ffffff" stroke="black" d="M562,-67.16C562,-67.16 532,-67.16 532,-67.16 526,-67.16 520,-61.16 520,-55.16 520,-55.16 520,-43.16 520,-43.16 520,-37.16 526,-31.16 532,-31.16 532,-31.16 562,-31.16 562,-31.16 568,-31.16 574,-37.16 574,-43.16 574,-43.16 574,-55.16 574,-55.16 574,-61.16 568,-67.16 562,-67.16"/>
<text text-anchor="middle" x="547" y="-45.46" font-family="Times,serif" font-size="14.00">4</text>
</g>
<!-- M2S2&#45;&gt;M3S4 -->
<g id="edge5" class="edge">
<title>M2S2&#45;&gt;M3S4</title>
<path fill="none" stroke="black" d="M328.17,-92.61C336.35,-89.58 345.47,-86.47 354,-84.16 407.35,-69.66 470.69,-59.42 509.61,-53.91"/>
<polygon fill="black" stroke="black" points="510.49,-57.32 519.91,-52.48 509.53,-50.39 510.49,-57.32"/>
<text text-anchor="middle" x="395.5" y="-87.96" font-family="Times,serif" font-size="14.00">(r1, r1)</text>
</g>
<!-- M4S2 -->
<g id="node7" class="node">
<title>M4S2</title>
<path fill="#ffffff" stroke="black" d="M976,-115.16C976,-115.16 946,-115.16 946,-115.16 940,-115.16 934,-109.16 934,-103.16 934,-103.16 934,-91.16 934,-91.16 934,-85.16 940,-79.16 946,-79.16 946,-79.16 976,-79.16 976,-79.16 982,-79.16 988,-85.16 988,-91.16 988,-91.16 988,-103.16 988,-103.16 988,-109.16 982,-115.16 976,-115.16"/>
<text text-anchor="middle" x="961" y="-93.46" font-family="Times,serif" font-size="14.00">2</text>
</g>
<!-- M3S1&#45;&gt;M4S2 -->
<g id="edge6" class="edge">
<title>M3S1&#45;&gt;M4S2</title>
<path fill="none" stroke="black" d="M574.09,-153.36C645.02,-143.03 841.56,-114.4 923.45,-102.48"/>
<polygon fill="black" stroke="black" points="924.37,-105.88 933.76,-100.98 923.36,-98.95 924.37,-105.88"/>
<text text-anchor="middle" x="698.5" y="-143.96" font-family="Times,serif" font-size="14.00">(ε, r2r1)</text>
</g>
<!-- M3S3&#45;&gt;M4S2 -->
<g id="edge7" class="edge">
<title>M3S3&#45;&gt;M4S2</title>
<path fill="none" stroke="black" d="M574.09,-102.78C645.02,-101.74 841.56,-98.88 923.45,-97.69"/>
<polygon fill="black" stroke="black" points="923.82,-101.18 933.76,-97.54 923.71,-94.18 923.82,-101.18"/>
<text text-anchor="middle" x="698.5" y="-105.96" font-family="Times,serif" font-size="14.00">(r1r2, r1r2)</text>
</g>
<!-- M4S5 -->
<g id="node8" class="node">
<title>M4S5</title>
<path fill="#ffffff" stroke="black" d="M976,-61.16C976,-61.16 946,-61.16 946,-61.16 940,-61.16 934,-55.16 934,-49.16 934,-49.16 934,-37.16 934,-37.16 934,-31.16 940,-25.16 946,-25.16 946,-25.16 976,-25.16 976,-25.16 982,-25.16 988,-31.16 988,-37.16 988,-37.16 988,-49.16 988,-49.16 988,-55.16 982,-61.16 976,-61.16"/>
<text text-anchor="middle" x="961" y="-39.46" font-family="Times,serif" font-size="14.00">5</text>
</g>
<!-- M3S3&#45;&gt;M4S5 -->
<g id="edge8" class="edge">
<title>M3S3&#45;&gt;M4S5</title>
<path fill="none" stroke="black" d="M574.13,-102.75C596.32,-101.01 627.59,-95.03 647,-76.16 657.99,-65.47 644.69,-52.29 657,-43.16 698.19,-12.6 852.42,-28.59 923.59,-37.95"/>
<polygon fill="black" stroke="black" points="923.49,-41.47 933.87,-39.33 924.43,-34.53 923.49,-41.47"/>
<text text-anchor="middle" x="698.5" y="-46.96" font-family="Times,serif" font-size="14.00">(r1, r1)</text>
</g>
<!-- M3S4&#45;&gt;M4S2 -->
<g id="edge9" class="edge">
<title>M3S4&#45;&gt;M4S2</title>
<path fill="none" stroke="black" d="M574.09,-52.19C645.02,-60.46 841.56,-83.36 923.45,-92.9"/>
<polygon fill="black" stroke="black" points="923.43,-96.42 933.76,-94.1 924.24,-89.47 923.43,-96.42"/>
<text text-anchor="middle" x="698.5" y="-74.96" font-family="Times,serif" font-size="14.00">(r2, r1r2)</text>
</g>
<!-- M3S4&#45;&gt;M4S5 -->
<g id="edge10" class="edge">
<title>M3S4&#45;&gt;M4S5</title>
<path fill="none" stroke="black" d="M574.04,-35.66C595.61,-25.27 627.42,-11.78 657,-6.16 752.77,12.05 867.36,-15.01 924.27,-31.69"/>
<polygon fill="black" stroke="black" points="923.3,-35.05 933.88,-34.57 925.31,-28.34 923.3,-35.05"/>
<text text-anchor="middle" x="698.5" y="-9.96" font-family="Times,serif" font-size="14.00">(ε, r1)</text>
</g>
</g>
</svg>
