<?xml version="1.0" encoding="UTF-8" standalone="no"?>
<!DOCTYPE svg PUBLIC "-//W3C//DTD SVG 1.1//EN"
 "http://www.w3.org/Graphics/SVG/1.1/DTD/svg11.dtd">
<!-- Generated by graphviz version 2.43.0 (0)
 -->
<!-- Title: MONinput/e Pages: 1 -->
<svg width="4606pt" height="365pt"
 viewBox="0.00 0.00 4606.00 364.62" xmlns="http://www.w3.org/2000/svg" xmlns:xlink="http://www.w3.org/1999/xlink">
<g id="graph0" class="graph" transform="scale(1 1) rotate(0) translate(4 360.62)">
<title>MONinput/e</title>
<polygon fill="white" stroke="transparent" points="-4,4 -4,-360.62 4602,-360.62 4602,4 -4,4"/>
<g id="clust1" class="cluster">
<title>cluster0</title>
<path fill="#fff9dd" stroke="#fff9dd" d="M20,-78.62C20,-78.62 66,-78.62 66,-78.62 72,-78.62 78,-84.62 78,-90.62 78,-90.62 78,-141.62 78,-141.62 78,-147.62 72,-153.62 66,-153.62 66,-153.62 20,-153.62 20,-153.62 14,-153.62 8,-147.62 8,-141.62 8,-141.62 8,-90.62 8,-90.62 8,-84.62 14,-78.62 20,-78.62"/>
<text text-anchor="middle" x="43" y="-138.42" font-family="Times,serif" font-size="14.00">ε</text>
</g>
<g id="clust2" class="cluster">
<title>cluster1</title>
<path fill="#fff9dd" stroke="#fff9dd" d="M145,-78.62C145,-78.62 191,-78.62 191,-78.62 197,-78.62 203,-84.62 203,-90.62 203,-90.62 203,-141.62 203,-141.62 203,-147.62 197,-153.62 191,-153.62 191,-153.62 145,-153.62 145,-153.62 139,-153.62 133,-147.62 133,-141.62 133,-141.62 133,-90.62 133,-90.62 133,-84.62 139,-78.62 145,-78.62"/>
<text text-anchor="middle" x="168" y="-138.42" font-family="Times,serif" font-size="14.00">ε</text>
</g>
<g id="clust3" class="cluster">
<title>cluster2</title>
<path fill="#fff9dd" stroke="#fff9dd" d="M270,-78.62C270,-78.62 316,-78.62 316,-78.62 322,-78.62 328,-84.62 328,-90.62 328,-90.62 328,-141.62 328,-141.62 328,-147.62 322,-153.62 316,-153.62 316,-153.62 270,-153.62 270,-153.62 264,-153.62 258,-147.62 258,-141.62 258,-141.62 258,-90.62 258,-90.62 258,-84.62 264,-78.62 270,-78.62"/>
<text text-anchor="middle" x="293" y="-138.42" font-family="Times,serif" font-size="14.00">(fr)?|r</text>
</g>
<g id="clust4" class="cluster">
<title>cluster3</title>
<path fill="#fff9dd" stroke="#fff9dd" d="M403,-24.62C403,-24.62 480,-24.62 480,-24.62 486,-24.62 492,-30.62 492,-36.62 492,-36.62 492,-195.62 492,-195.62 492,-201.62 486,-207.62 480,-207.62 480,-207.62 403,-207.62 403,-207.62 397,-207.62 391,-201.62 391,-195.62 391,-195.62 391,-36.62 391,-36.62 391,-30.62 397,-24.62 403,-24.62"/>
<text text-anchor="middle" x="441.5" y="-192.42" font-family="Times,serif" font-size="14.00">(fr)|(rf)|(rf?)</text>
</g>
<g id="clust5" class="cluster">
<title>cluster4</title>
<path fill="#fff9dd" stroke="#fff9dd" d="M567,-46.62C567,-46.62 672,-46.62 672,-46.62 678,-46.62 684,-52.62 684,-58.62 684,-58.62 684,-163.62 684,-163.62 684,-169.62 678,-175.62 672,-175.62 672,-175.62 567,-175.62 567,-175.62 561,-175.62 555,-169.62 555,-163.62 555,-163.62 555,-58.62 555,-58.62 555,-52.62 561,-46.62 567,-46.62"/>
<text text-anchor="middle" x="619.5" y="-160.42" font-family="Times,serif" font-size="14.00">((fr)|(rf)(fr)?|r)|r</text>
</g>
<g id="clust6" class="cluster">
<title>cluster5</title>
<path fill="#fff9dd" stroke="#fff9dd" d="M808,-21.62C808,-21.62 1072,-21.62 1072,-21.62 1078,-21.62 1084,-27.62 1084,-33.62 1084,-33.62 1084,-246.62 1084,-246.62 1084,-252.62 1078,-258.62 1072,-258.62 1072,-258.62 808,-258.62 808,-258.62 802,-258.62 796,-252.62 796,-246.62 796,-246.62 796,-33.62 796,-33.62 796,-27.62 802,-21.62 808,-21.62"/>
<text text-anchor="middle" x="940" y="-243.42" font-family="Times,serif" font-size="14.00">((fr)|(rf)fr)|((fr)|(rf)rf)|((fr)|(rf)rf?)|(rfrf)</text>
</g>
<g id="clust7" class="cluster">
<title>cluster6</title>
<path fill="#fff9dd" stroke="#fff9dd" d="M1209,-53.62C1209,-53.62 1633,-53.62 1633,-53.62 1639,-53.62 1645,-59.62 1645,-65.62 1645,-65.62 1645,-170.62 1645,-170.62 1645,-176.62 1639,-182.62 1633,-182.62 1633,-182.62 1209,-182.62 1209,-182.62 1203,-182.62 1197,-176.62 1197,-170.62 1197,-170.62 1197,-65.62 1197,-65.62 1197,-59.62 1203,-53.62 1209,-53.62"/>
<text text-anchor="middle" x="1421" y="-167.42" font-family="Times,serif" font-size="14.00">(((fr)|(rf)fr)|((fr)|(rf)rf)|((fr)|(rf)rf)|(rfrf)(fr)?|r)|(((fr)|(rf)r)|(rfr))</text>
</g>
<g id="clust8" class="cluster">
<title>cluster7</title>
<path fill="#fff9dd" stroke="#fff9dd" d="M1984,-36.62C1984,-36.62 2526,-36.62 2526,-36.62 2532,-36.62 2538,-42.62 2538,-48.62 2538,-48.62 2538,-276.62 2538,-276.62 2538,-282.62 2532,-288.62 2526,-288.62 2526,-288.62 1984,-288.62 1984,-288.62 1978,-288.62 1972,-282.62 1972,-276.62 1972,-276.62 1972,-48.62 1972,-48.62 1972,-42.62 1978,-36.62 1984,-36.62"/>
<text text-anchor="middle" x="2255" y="-273.42" font-family="Times,serif" font-size="14.00">(((fr)|(rf)fr)|((fr)|(rf)rf)|((fr)|(rf)rf)|(rfrf)fr)|(((fr)|(rf)fr)|((fr)|(rf)rf)|((fr)|(rf)rf)|(rfr</text>
<text text-anchor="middle" x="2255" y="-258.42" font-family="Times,serif" font-size="14.00">f)rf)|(((fr)|(rf)fr)|((fr)|(rf)rf)|((fr)|(rf)rf)|(rfrf)rf?)|(((fr)|(rf)r)|(rfr)frf)</text>
</g>
<g id="clust9" class="cluster">
<title>cluster8</title>
<path fill="#fff9dd" stroke="#fff9dd" d="M2877,-68.62C2877,-68.62 3422,-68.62 3422,-68.62 3428,-68.62 3434,-74.62 3434,-80.62 3434,-80.62 3434,-215.62 3434,-215.62 3434,-221.62 3428,-227.62 3422,-227.62 3422,-227.62 2877,-227.62 2877,-227.62 2871,-227.62 2865,-221.62 2865,-215.62 2865,-215.62 2865,-80.62 2865,-80.62 2865,-74.62 2871,-68.62 2877,-68.62"/>
<text text-anchor="middle" x="3149.5" y="-212.42" font-family="Times,serif" font-size="14.00">((((fr)|(rf)fr)|((fr)|(rf)rf)|((fr)|(rf)rf)|(rfrf)fr)|(((fr)|(rf)fr)|((fr)|(rf)rf)|((fr)|(rf)rf)|(rf</text>
<text text-anchor="middle" x="3149.5" y="-197.42" font-family="Times,serif" font-size="14.00">rf)rf)|(((fr)|(rf)fr)|((fr)|(rf)rf)|((fr)|(rf)rf)|(rfrf)rf)|(((fr)|(rf)r)|(rfr)frf)(fr)?|r)|((((fr)|</text>
<text text-anchor="middle" x="3149.5" y="-182.42" font-family="Times,serif" font-size="14.00">(rf)fr)|((fr)|(rf)rf)|((fr)|(rf)rf)|(rfrf)r)|(((fr)|(rf)r)|(rfr)fr))</text>
</g>
<g id="clust10" class="cluster">
<title>cluster9</title>
<path fill="#fff9dd" stroke="#fff9dd" d="M4041,-21.62C4041,-21.62 4586,-21.62 4586,-21.62 4592,-21.62 4598,-27.62 4598,-33.62 4598,-33.62 4598,-336.62 4598,-336.62 4598,-342.62 4592,-348.62 4586,-348.62 4586,-348.62 4041,-348.62 4041,-348.62 4035,-348.62 4029,-342.62 4029,-336.62 4029,-336.62 4029,-33.62 4029,-33.62 4029,-27.62 4035,-21.62 4041,-21.62"/>
<text text-anchor="middle" x="4313.5" y="-333.42" font-family="Times,serif" font-size="14.00">((((fr)|(rf)fr)|((fr)|(rf)rf)|((fr)|(rf)rf)|(rfrf)fr)|(((fr)|(rf)fr)|((fr)|(rf)rf)|((fr)|(rf)rf)|(rf</text>
<text text-anchor="middle" x="4313.5" y="-318.42" font-family="Times,serif" font-size="14.00">rf)rf)|(((fr)|(rf)fr)|((fr)|(rf)rf)|((fr)|(rf)rf)|(rfrf)rf)|(((fr)|(rf)r)|(rfr)frf)fr)|((((fr)|(rf)f</text>
<text text-anchor="middle" x="4313.5" y="-303.42" font-family="Times,serif" font-size="14.00">r)|((fr)|(rf)rf)|((fr)|(rf)rf)|(rfrf)fr)|(((fr)|(rf)fr)|((fr)|(rf)rf)|((fr)|(rf)rf)|(rfrf)rf)|(((fr)</text>
<text text-anchor="middle" x="4313.5" y="-288.42" font-family="Times,serif" font-size="14.00">|(rf)fr)|((fr)|(rf)rf)|((fr)|(rf)rf)|(rfrf)rf)|(((fr)|(rf)r)|(rfr)frf)(rf)?)|((((fr)|(rf)fr)|((fr)|(</text>
<text text-anchor="middle" x="4313.5" y="-273.42" font-family="Times,serif" font-size="14.00">rf)rf)|((fr)|(rf)rf)|(rfrf)fr)|(((fr)|(rf)fr)|((fr)|(rf)rf)|((fr)|(rf)rf)|(rfrf)rf)|(((fr)|(rf)fr)|(</text>
<text text-anchor="middle" x="4313.5" y="-258.42" font-family="Times,serif" font-size="14.00">(fr)|(rf)rf)|((fr)|(rf)rf)|(rfrf)rf)|(((fr)|(rf)r)|(rfr)frf)rf?)|((((fr)|(rf)fr)|((fr)|(rf)rf)|((fr)</text>
<text text-anchor="middle" x="4313.5" y="-243.42" font-family="Times,serif" font-size="14.00">|(rf)rf)|(rfrf)r)|(((fr)|(rf)r)|(rfr)fr)f?|(fr)|r|(frf))</text>
</g>
<!-- M0S0 -->
<g id="node1" class="node">
<title>M0S0</title>
<path fill="#ffffff" stroke="black" d="M58,-122.62C58,-122.62 28,-122.62 28,-122.62 22,-122.62 16,-116.62 16,-110.62 16,-110.62 16,-98.62 16,-98.62 16,-92.62 22,-86.62 28,-86.62 28,-86.62 58,-86.62 58,-86.62 64,-86.62 70,-92.62 70,-98.62 70,-98.62 70,-110.62 70,-110.62 70,-116.62 64,-122.62 58,-122.62"/>
<text text-anchor="middle" x="43" y="-100.92" font-family="Times,serif" font-size="14.00">0</text>
</g>
<!-- M1S6 -->
<g id="node2" class="node">
<title>M1S6</title>
<path fill="#ffffff" stroke="black" d="M183,-122.62C183,-122.62 153,-122.62 153,-122.62 147,-122.62 141,-116.62 141,-110.62 141,-110.62 141,-98.62 141,-98.62 141,-92.62 147,-86.62 153,-86.62 153,-86.62 183,-86.62 183,-86.62 189,-86.62 195,-92.62 195,-98.62 195,-98.62 195,-110.62 195,-110.62 195,-116.62 189,-122.62 183,-122.62"/>
<text text-anchor="middle" x="168" y="-100.92" font-family="Times,serif" font-size="14.00">6</text>
</g>
<!-- M0S0&#45;&gt;M1S6 -->
<g id="edge1" class="edge">
<title>M0S0&#45;&gt;M1S6</title>
<path fill="none" stroke="black" d="M70.09,-104.62C87.78,-104.62 111.4,-104.62 130.9,-104.62"/>
<polygon fill="black" stroke="black" points="130.95,-108.12 140.95,-104.62 130.95,-101.12 130.95,-108.12"/>
<text text-anchor="middle" x="105.5" y="-108.42" font-family="Times,serif" font-size="14.00">(ε, ε)</text>
</g>
<!-- M2S4 -->
<g id="node3" class="node">
<title>M2S4</title>
<path fill="#ffffff" stroke="black" d="M308,-122.62C308,-122.62 278,-122.62 278,-122.62 272,-122.62 266,-116.62 266,-110.62 266,-110.62 266,-98.62 266,-98.62 266,-92.62 272,-86.62 278,-86.62 278,-86.62 308,-86.62 308,-86.62 314,-86.62 320,-92.62 320,-98.62 320,-98.62 320,-110.62 320,-110.62 320,-116.62 314,-122.62 308,-122.62"/>
<text text-anchor="middle" x="293" y="-100.92" font-family="Times,serif" font-size="14.00">4</text>
</g>
<!-- M1S6&#45;&gt;M2S4 -->
<g id="edge2" class="edge">
<title>M1S6&#45;&gt;M2S4</title>
<path fill="none" stroke="black" d="M195.09,-104.62C212.78,-104.62 236.4,-104.62 255.9,-104.62"/>
<polygon fill="black" stroke="black" points="255.95,-108.12 265.95,-104.62 255.95,-101.12 255.95,-108.12"/>
<text text-anchor="middle" x="230.5" y="-108.42" font-family="Times,serif" font-size="14.00">(ε, ε)</text>
</g>
<!-- M3S6 -->
<g id="node4" class="node">
<title>M3S6</title>
<path fill="#ffffff" stroke="black" d="M456,-176.62C456,-176.62 426,-176.62 426,-176.62 420,-176.62 414,-170.62 414,-164.62 414,-164.62 414,-152.62 414,-152.62 414,-146.62 420,-140.62 426,-140.62 426,-140.62 456,-140.62 456,-140.62 462,-140.62 468,-146.62 468,-152.62 468,-152.62 468,-164.62 468,-164.62 468,-170.62 462,-176.62 456,-176.62"/>
<text text-anchor="middle" x="441" y="-154.92" font-family="Times,serif" font-size="14.00">6</text>
</g>
<!-- M2S4&#45;&gt;M3S6 -->
<g id="edge3" class="edge">
<title>M2S4&#45;&gt;M3S6</title>
<path fill="none" stroke="black" d="M320.39,-116.4C326.16,-118.87 332.26,-121.39 338,-123.62 359.81,-132.05 384.62,-140.59 404.31,-147.12"/>
<polygon fill="black" stroke="black" points="403.21,-150.44 413.81,-150.25 405.4,-143.79 403.21,-150.44"/>
<text text-anchor="middle" x="359.5" y="-142.42" font-family="Times,serif" font-size="14.00">(fr, fr)</text>
</g>
<!-- M3S2 -->
<g id="node5" class="node">
<title>M3S2</title>
<path fill="#ffffff" stroke="black" d="M456,-122.62C456,-122.62 426,-122.62 426,-122.62 420,-122.62 414,-116.62 414,-110.62 414,-110.62 414,-98.62 414,-98.62 414,-92.62 420,-86.62 426,-86.62 426,-86.62 456,-86.62 456,-86.62 462,-86.62 468,-92.62 468,-98.62 468,-98.62 468,-110.62 468,-110.62 468,-116.62 462,-122.62 456,-122.62"/>
<text text-anchor="middle" x="441" y="-100.92" font-family="Times,serif" font-size="14.00">2</text>
</g>
<!-- M2S4&#45;&gt;M3S2 -->
<g id="edge4" class="edge">
<title>M2S4&#45;&gt;M3S2</title>
<path fill="none" stroke="black" d="M320.1,-104.62C343.31,-104.62 377.5,-104.62 403.43,-104.62"/>
<polygon fill="black" stroke="black" points="403.63,-108.12 413.63,-104.62 403.63,-101.12 403.63,-108.12"/>
<text text-anchor="middle" x="359.5" y="-108.42" font-family="Times,serif" font-size="14.00">(ε, ε)</text>
</g>
<!-- M3S5 -->
<g id="node6" class="node">
<title>M3S5</title>
<path fill="#ffffff" stroke="black" d="M456,-68.62C456,-68.62 426,-68.62 426,-68.62 420,-68.62 414,-62.62 414,-56.62 414,-56.62 414,-44.62 414,-44.62 414,-38.62 420,-32.62 426,-32.62 426,-32.62 456,-32.62 456,-32.62 462,-32.62 468,-38.62 468,-44.62 468,-44.62 468,-56.62 468,-56.62 468,-62.62 462,-68.62 456,-68.62"/>
<text text-anchor="middle" x="441" y="-46.92" font-family="Times,serif" font-size="14.00">5</text>
</g>
<!-- M2S4&#45;&gt;M3S5 -->
<g id="edge5" class="edge">
<title>M2S4&#45;&gt;M3S5</title>
<path fill="none" stroke="black" d="M320.39,-92.83C326.16,-90.36 332.26,-87.84 338,-85.62 359.81,-77.18 384.62,-68.64 404.31,-62.11"/>
<polygon fill="black" stroke="black" points="405.4,-65.44 413.81,-58.99 403.21,-58.79 405.4,-65.44"/>
<text text-anchor="middle" x="359.5" y="-89.42" font-family="Times,serif" font-size="14.00">(r, r)</text>
</g>
<!-- M4S4 -->
<g id="node7" class="node">
<title>M4S4</title>
<path fill="#ffffff" stroke="black" d="M634,-144.62C634,-144.62 604,-144.62 604,-144.62 598,-144.62 592,-138.62 592,-132.62 592,-132.62 592,-120.62 592,-120.62 592,-114.62 598,-108.62 604,-108.62 604,-108.62 634,-108.62 634,-108.62 640,-108.62 646,-114.62 646,-120.62 646,-120.62 646,-132.62 646,-132.62 646,-138.62 640,-144.62 634,-144.62"/>
<text text-anchor="middle" x="619" y="-122.92" font-family="Times,serif" font-size="14.00">4</text>
</g>
<!-- M3S6&#45;&gt;M4S4 -->
<g id="edge6" class="edge">
<title>M3S6&#45;&gt;M4S4</title>
<path fill="none" stroke="black" d="M468.35,-153.83C498.5,-148.34 548.07,-139.33 581.83,-133.19"/>
<polygon fill="black" stroke="black" points="582.55,-136.62 591.76,-131.39 581.29,-129.73 582.55,-136.62"/>
<text text-anchor="middle" x="523.5" y="-150.42" font-family="Times,serif" font-size="14.00">(ε, fr)</text>
</g>
<!-- M3S2&#45;&gt;M4S4 -->
<g id="edge7" class="edge">
<title>M3S2&#45;&gt;M4S4</title>
<path fill="none" stroke="black" d="M468.35,-107.91C498.5,-111.68 548.07,-117.88 581.83,-122.09"/>
<polygon fill="black" stroke="black" points="581.4,-125.57 591.76,-123.34 582.27,-118.62 581.4,-125.57"/>
<text text-anchor="middle" x="523.5" y="-120.42" font-family="Times,serif" font-size="14.00">(rf, rf)</text>
</g>
<!-- M4S1 -->
<g id="node8" class="node">
<title>M4S1</title>
<path fill="#ffffff" stroke="black" d="M634,-90.62C634,-90.62 604,-90.62 604,-90.62 598,-90.62 592,-84.62 592,-78.62 592,-78.62 592,-66.62 592,-66.62 592,-60.62 598,-54.62 604,-54.62 604,-54.62 634,-54.62 634,-54.62 640,-54.62 646,-60.62 646,-66.62 646,-66.62 646,-78.62 646,-78.62 646,-84.62 640,-90.62 634,-90.62"/>
<text text-anchor="middle" x="619" y="-68.92" font-family="Times,serif" font-size="14.00">1</text>
</g>
<!-- M3S2&#45;&gt;M4S1 -->
<g id="edge8" class="edge">
<title>M3S2&#45;&gt;M4S1</title>
<path fill="none" stroke="black" d="M468.26,-99.21C478.74,-97.09 490.93,-94.68 502,-92.62 528.66,-87.65 558.84,-82.46 581.74,-78.61"/>
<polygon fill="black" stroke="black" points="582.42,-82.05 591.7,-76.94 581.26,-75.14 582.42,-82.05"/>
<text text-anchor="middle" x="523.5" y="-96.42" font-family="Times,serif" font-size="14.00">(r, r)</text>
</g>
<!-- M3S5&#45;&gt;M4S4 -->
<g id="edge9" class="edge">
<title>M3S5&#45;&gt;M4S4</title>
<path fill="none" stroke="black" d="M468.01,-47.18C490.98,-45.65 523.98,-47.38 545,-65.62 556.9,-75.94 544.54,-87.84 555,-99.62 562.24,-107.78 572.38,-113.55 582.41,-117.61"/>
<polygon fill="black" stroke="black" points="581.3,-120.93 591.89,-120.99 583.65,-114.34 581.3,-120.93"/>
<text text-anchor="middle" x="523.5" y="-69.42" font-family="Times,serif" font-size="14.00">(f, rf)</text>
</g>
<!-- M3S5&#45;&gt;M4S1 -->
<g id="edge10" class="edge">
<title>M3S5&#45;&gt;M4S1</title>
<path fill="none" stroke="black" d="M464.51,-32.61C475.21,-25.18 488.58,-17.42 502,-13.62 520.39,-8.4 526.98,-7.25 545,-13.62 564.14,-20.38 581.93,-34.53 595.16,-47.28"/>
<polygon fill="black" stroke="black" points="592.87,-49.93 602.4,-54.55 597.83,-44.99 592.87,-49.93"/>
<text text-anchor="middle" x="523.5" y="-17.42" font-family="Times,serif" font-size="14.00">(ε, r)</text>
</g>
<!-- M5S6 -->
<g id="node9" class="node">
<title>M5S6</title>
<path fill="#ffffff" stroke="black" d="M955,-227.62C955,-227.62 925,-227.62 925,-227.62 919,-227.62 913,-221.62 913,-215.62 913,-215.62 913,-203.62 913,-203.62 913,-197.62 919,-191.62 925,-191.62 925,-191.62 955,-191.62 955,-191.62 961,-191.62 967,-197.62 967,-203.62 967,-203.62 967,-215.62 967,-215.62 967,-221.62 961,-227.62 955,-227.62"/>
<text text-anchor="middle" x="940" y="-205.92" font-family="Times,serif" font-size="14.00">6</text>
</g>
<!-- M4S4&#45;&gt;M5S6 -->
<g id="edge11" class="edge">
<title>M4S4&#45;&gt;M5S6</title>
<path fill="none" stroke="black" d="M646.21,-139.83C660.14,-146.46 677.71,-154.21 694,-159.62 766.16,-183.58 854.26,-198.16 902.72,-204.98"/>
<polygon fill="black" stroke="black" points="902.34,-208.46 912.72,-206.35 903.29,-201.52 902.34,-208.46"/>
<text text-anchor="middle" x="740" y="-186.42" font-family="Times,serif" font-size="14.00">(fr, (fr)|(rf)fr)</text>
</g>
<!-- M5S2 -->
<g id="node10" class="node">
<title>M5S2</title>
<path fill="#ffffff" stroke="black" d="M955,-173.62C955,-173.62 925,-173.62 925,-173.62 919,-173.62 913,-167.62 913,-161.62 913,-161.62 913,-149.62 913,-149.62 913,-143.62 919,-137.62 925,-137.62 925,-137.62 955,-137.62 955,-137.62 961,-137.62 967,-143.62 967,-149.62 967,-149.62 967,-161.62 967,-161.62 967,-167.62 961,-173.62 955,-173.62"/>
<text text-anchor="middle" x="940" y="-151.92" font-family="Times,serif" font-size="14.00">2</text>
</g>
<!-- M4S4&#45;&gt;M5S2 -->
<g id="edge12" class="edge">
<title>M4S4&#45;&gt;M5S2</title>
<path fill="none" stroke="black" d="M646.11,-128.99C702.91,-134.15 837.83,-146.42 902.81,-152.33"/>
<polygon fill="black" stroke="black" points="902.71,-155.83 912.98,-153.25 903.34,-148.86 902.71,-155.83"/>
<text text-anchor="middle" x="740" y="-144.42" font-family="Times,serif" font-size="14.00">(ε, (fr)|(rf))</text>
</g>
<!-- M5S5 -->
<g id="node11" class="node">
<title>M5S5</title>
<path fill="#ffffff" stroke="black" d="M955,-119.62C955,-119.62 925,-119.62 925,-119.62 919,-119.62 913,-113.62 913,-107.62 913,-107.62 913,-95.62 913,-95.62 913,-89.62 919,-83.62 925,-83.62 925,-83.62 955,-83.62 955,-83.62 961,-83.62 967,-89.62 967,-95.62 967,-95.62 967,-107.62 967,-107.62 967,-113.62 961,-119.62 955,-119.62"/>
<text text-anchor="middle" x="940" y="-97.92" font-family="Times,serif" font-size="14.00">5</text>
</g>
<!-- M4S4&#45;&gt;M5S5 -->
<g id="edge13" class="edge">
<title>M4S4&#45;&gt;M5S5</title>
<path fill="none" stroke="black" d="M646.28,-121.65C660.38,-119.16 678.08,-116.32 694,-114.62 767.83,-106.69 854.71,-103.53 902.64,-102.32"/>
<polygon fill="black" stroke="black" points="902.91,-105.82 912.82,-102.08 902.74,-98.82 902.91,-105.82"/>
<text text-anchor="middle" x="740" y="-118.42" font-family="Times,serif" font-size="14.00">(r, (fr)|(rf)r)</text>
</g>
<!-- M5S3 -->
<g id="node12" class="node">
<title>M5S3</title>
<path fill="#ffffff" stroke="black" d="M955,-65.62C955,-65.62 925,-65.62 925,-65.62 919,-65.62 913,-59.62 913,-53.62 913,-53.62 913,-41.62 913,-41.62 913,-35.62 919,-29.62 925,-29.62 925,-29.62 955,-29.62 955,-29.62 961,-29.62 967,-35.62 967,-41.62 967,-41.62 967,-53.62 967,-53.62 967,-59.62 961,-65.62 955,-65.62"/>
<text text-anchor="middle" x="940" y="-43.92" font-family="Times,serif" font-size="14.00">3</text>
</g>
<!-- M4S1&#45;&gt;M5S3 -->
<g id="edge14" class="edge">
<title>M4S1&#45;&gt;M5S3</title>
<path fill="none" stroke="black" d="M646.11,-70.57C702.91,-66.12 837.83,-55.54 902.81,-50.45"/>
<polygon fill="black" stroke="black" points="903.29,-53.93 912.98,-49.66 902.74,-46.95 903.29,-53.93"/>
<text text-anchor="middle" x="740" y="-69.42" font-family="Times,serif" font-size="14.00">(ε, r)</text>
</g>
<!-- M6S4 -->
<g id="node13" class="node">
<title>M6S4</title>
<path fill="#ffffff" stroke="black" d="M1436,-151.62C1436,-151.62 1406,-151.62 1406,-151.62 1400,-151.62 1394,-145.62 1394,-139.62 1394,-139.62 1394,-127.62 1394,-127.62 1394,-121.62 1400,-115.62 1406,-115.62 1406,-115.62 1436,-115.62 1436,-115.62 1442,-115.62 1448,-121.62 1448,-127.62 1448,-127.62 1448,-139.62 1448,-139.62 1448,-145.62 1442,-151.62 1436,-151.62"/>
<text text-anchor="middle" x="1421" y="-129.92" font-family="Times,serif" font-size="14.00">4</text>
</g>
<!-- M5S6&#45;&gt;M6S4 -->
<g id="edge15" class="edge">
<title>M5S6&#45;&gt;M6S4</title>
<path fill="none" stroke="black" d="M967.03,-209.34C1012.11,-208.53 1107.53,-205.32 1187,-192.62 1257.87,-181.29 1338.68,-158.55 1384.09,-144.85"/>
<polygon fill="black" stroke="black" points="1385.22,-148.16 1393.77,-141.9 1383.18,-141.47 1385.22,-148.16"/>
<text text-anchor="middle" x="1140.5" y="-206.42" font-family="Times,serif" font-size="14.00">(ε, (fr)|(rf)fr)</text>
</g>
<!-- M5S2&#45;&gt;M6S4 -->
<g id="edge16" class="edge">
<title>M5S2&#45;&gt;M6S4</title>
<path fill="none" stroke="black" d="M967.2,-159.2C997.61,-163.16 1049.33,-169.29 1094,-171.62 1135.28,-173.77 1145.8,-174.95 1187,-171.62 1257.3,-165.92 1338.38,-150.71 1383.98,-141.35"/>
<polygon fill="black" stroke="black" points="1384.88,-144.74 1393.96,-139.28 1383.46,-137.88 1384.88,-144.74"/>
<text text-anchor="middle" x="1140.5" y="-177.42" font-family="Times,serif" font-size="14.00">(rf, (fr)|(rf)rf)</text>
</g>
<!-- M6S1 -->
<g id="node14" class="node">
<title>M6S1</title>
<path fill="#ffffff" stroke="black" d="M1436,-97.62C1436,-97.62 1406,-97.62 1406,-97.62 1400,-97.62 1394,-91.62 1394,-85.62 1394,-85.62 1394,-73.62 1394,-73.62 1394,-67.62 1400,-61.62 1406,-61.62 1406,-61.62 1436,-61.62 1436,-61.62 1442,-61.62 1448,-67.62 1448,-73.62 1448,-73.62 1448,-85.62 1448,-85.62 1448,-91.62 1442,-97.62 1436,-97.62"/>
<text text-anchor="middle" x="1421" y="-75.92" font-family="Times,serif" font-size="14.00">1</text>
</g>
<!-- M5S2&#45;&gt;M6S1 -->
<g id="edge17" class="edge">
<title>M5S2&#45;&gt;M6S1</title>
<path fill="none" stroke="black" d="M967.37,-154.83C1027.29,-152.83 1169.84,-146.73 1187,-133.62 1197.17,-125.84 1186.96,-114.55 1197,-106.62 1250.75,-64.18 1335.7,-67.26 1383.75,-73.38"/>
<polygon fill="black" stroke="black" points="1383.31,-76.85 1393.7,-74.76 1384.27,-69.92 1383.31,-76.85"/>
<text text-anchor="middle" x="1140.5" y="-151.42" font-family="Times,serif" font-size="14.00">(r, (fr)|(rf)r)</text>
</g>
<!-- M5S5&#45;&gt;M6S4 -->
<g id="edge18" class="edge">
<title>M5S5&#45;&gt;M6S4</title>
<path fill="none" stroke="black" d="M967.09,-103.36C1047.46,-108.73 1291.35,-125.02 1383.88,-131.2"/>
<polygon fill="black" stroke="black" points="1383.67,-134.7 1393.88,-131.87 1384.14,-127.71 1383.67,-134.7"/>
<text text-anchor="middle" x="1140.5" y="-121.42" font-family="Times,serif" font-size="14.00">(f, (fr)|(rf)rf)</text>
</g>
<!-- M5S5&#45;&gt;M6S1 -->
<g id="edge19" class="edge">
<title>M5S5&#45;&gt;M6S1</title>
<path fill="none" stroke="black" d="M967.15,-96.94C997.52,-91.77 1049.2,-83.75 1094,-80.62 1198.93,-73.29 1323.31,-76.07 1383.61,-78.15"/>
<polygon fill="black" stroke="black" points="1383.64,-81.65 1393.76,-78.51 1383.89,-74.66 1383.64,-81.65"/>
<text text-anchor="middle" x="1140.5" y="-84.42" font-family="Times,serif" font-size="14.00">(ε, (fr)|(rf)r)</text>
</g>
<!-- M5S3&#45;&gt;M6S4 -->
<g id="edge20" class="edge">
<title>M5S3&#45;&gt;M6S4</title>
<path fill="none" stroke="black" d="M967.33,-39.31C1016.82,-25.51 1124.34,-4.29 1187,-57.62 1203.93,-72.02 1180.66,-91.55 1197,-106.62 1247.61,-153.29 1334.47,-148.43 1383.52,-140.92"/>
<polygon fill="black" stroke="black" points="1384.38,-144.32 1393.67,-139.24 1383.24,-137.42 1384.38,-144.32"/>
<text text-anchor="middle" x="1140.5" y="-61.42" font-family="Times,serif" font-size="14.00">(frf, rfrf)</text>
</g>
<!-- M5S3&#45;&gt;M6S1 -->
<g id="edge21" class="edge">
<title>M5S3&#45;&gt;M6S1</title>
<path fill="none" stroke="black" d="M967.07,-37.92C997.15,-27.29 1048.35,-10.91 1094,-4.62 1134.95,1.03 1146.17,1.79 1187,-4.62 1259.16,-15.94 1339.46,-45.87 1384.44,-64.32"/>
<polygon fill="black" stroke="black" points="1383.17,-67.58 1393.75,-68.18 1385.86,-61.11 1383.17,-67.58"/>
<text text-anchor="middle" x="1140.5" y="-8.42" font-family="Times,serif" font-size="14.00">(fr, rfr)</text>
</g>
<!-- M7S6 -->
<g id="node15" class="node">
<title>M7S6</title>
<path fill="#ffffff" stroke="black" d="M2270,-242.62C2270,-242.62 2240,-242.62 2240,-242.62 2234,-242.62 2228,-236.62 2228,-230.62 2228,-230.62 2228,-218.62 2228,-218.62 2228,-212.62 2234,-206.62 2240,-206.62 2240,-206.62 2270,-206.62 2270,-206.62 2276,-206.62 2282,-212.62 2282,-218.62 2282,-218.62 2282,-230.62 2282,-230.62 2282,-236.62 2276,-242.62 2270,-242.62"/>
<text text-anchor="middle" x="2255" y="-220.92" font-family="Times,serif" font-size="14.00">6</text>
</g>
<!-- M6S4&#45;&gt;M7S6 -->
<g id="edge22" class="edge">
<title>M6S4&#45;&gt;M7S6</title>
<path fill="none" stroke="black" d="M1448.07,-139.33C1491,-148.54 1579.35,-166.63 1655,-176.62 1867.38,-204.65 2124.43,-218.59 2217.86,-223.01"/>
<polygon fill="black" stroke="black" points="2217.77,-226.51 2227.92,-223.48 2218.09,-219.52 2217.77,-226.51"/>
<text text-anchor="middle" x="1808.5" y="-209.42" font-family="Times,serif" font-size="14.00">(fr, ((fr)|(rf)fr)|((fr)|(rf)rf)|((fr)|(rf)rf)|(rfrf)fr)</text>
</g>
<!-- M7S2 -->
<g id="node16" class="node">
<title>M7S2</title>
<path fill="#ffffff" stroke="black" d="M2270,-188.62C2270,-188.62 2240,-188.62 2240,-188.62 2234,-188.62 2228,-182.62 2228,-176.62 2228,-176.62 2228,-164.62 2228,-164.62 2228,-158.62 2234,-152.62 2240,-152.62 2240,-152.62 2270,-152.62 2270,-152.62 2276,-152.62 2282,-158.62 2282,-164.62 2282,-164.62 2282,-176.62 2282,-176.62 2282,-182.62 2276,-188.62 2270,-188.62"/>
<text text-anchor="middle" x="2255" y="-166.92" font-family="Times,serif" font-size="14.00">2</text>
</g>
<!-- M6S4&#45;&gt;M7S2 -->
<g id="edge23" class="edge">
<title>M6S4&#45;&gt;M7S2</title>
<path fill="none" stroke="black" d="M1448.21,-134.89C1491.33,-136.97 1579.96,-141.22 1655,-144.62 1868.27,-154.28 2124.28,-165.15 2217.66,-169.09"/>
<polygon fill="black" stroke="black" points="2217.59,-172.59 2227.72,-169.51 2217.88,-165.59 2217.59,-172.59"/>
<text text-anchor="middle" x="1808.5" y="-161.42" font-family="Times,serif" font-size="14.00">(ε, ((fr)|(rf)fr)|((fr)|(rf)rf)|((fr)|(rf)rf)|(rfrf))</text>
</g>
<!-- M7S5 -->
<g id="node17" class="node">
<title>M7S5</title>
<path fill="#ffffff" stroke="black" d="M2270,-134.62C2270,-134.62 2240,-134.62 2240,-134.62 2234,-134.62 2228,-128.62 2228,-122.62 2228,-122.62 2228,-110.62 2228,-110.62 2228,-104.62 2234,-98.62 2240,-98.62 2240,-98.62 2270,-98.62 2270,-98.62 2276,-98.62 2282,-104.62 2282,-110.62 2282,-110.62 2282,-122.62 2282,-122.62 2282,-128.62 2276,-134.62 2270,-134.62"/>
<text text-anchor="middle" x="2255" y="-112.92" font-family="Times,serif" font-size="14.00">5</text>
</g>
<!-- M6S4&#45;&gt;M7S5 -->
<g id="edge24" class="edge">
<title>M6S4&#45;&gt;M7S5</title>
<path fill="none" stroke="black" d="M1448.27,-133.08C1569.69,-130.6 2076.46,-120.24 2217.46,-117.36"/>
<polygon fill="black" stroke="black" points="2217.79,-120.86 2227.72,-117.15 2217.65,-113.86 2217.79,-120.86"/>
<text text-anchor="middle" x="1808.5" y="-132.42" font-family="Times,serif" font-size="14.00">(r, ((fr)|(rf)fr)|((fr)|(rf)rf)|((fr)|(rf)rf)|(rfrf)r)</text>
</g>
<!-- M7S3 -->
<g id="node18" class="node">
<title>M7S3</title>
<path fill="#ffffff" stroke="black" d="M2270,-80.62C2270,-80.62 2240,-80.62 2240,-80.62 2234,-80.62 2228,-74.62 2228,-68.62 2228,-68.62 2228,-56.62 2228,-56.62 2228,-50.62 2234,-44.62 2240,-44.62 2240,-44.62 2270,-44.62 2270,-44.62 2276,-44.62 2282,-50.62 2282,-56.62 2282,-56.62 2282,-68.62 2282,-68.62 2282,-74.62 2276,-80.62 2270,-80.62"/>
<text text-anchor="middle" x="2255" y="-58.92" font-family="Times,serif" font-size="14.00">3</text>
</g>
<!-- M6S1&#45;&gt;M7S3 -->
<g id="edge25" class="edge">
<title>M6S1&#45;&gt;M7S3</title>
<path fill="none" stroke="black" d="M1448.27,-79.08C1569.69,-76.6 2076.46,-66.24 2217.46,-63.36"/>
<polygon fill="black" stroke="black" points="2217.79,-66.86 2227.72,-63.15 2217.65,-59.86 2217.79,-66.86"/>
<text text-anchor="middle" x="1808.5" y="-78.42" font-family="Times,serif" font-size="14.00">(ε, ((fr)|(rf)r)|(rfr))</text>
</g>
<!-- M8S4 -->
<g id="node19" class="node">
<title>M8S4</title>
<path fill="#ffffff" stroke="black" d="M3164,-166.62C3164,-166.62 3134,-166.62 3134,-166.62 3128,-166.62 3122,-160.62 3122,-154.62 3122,-154.62 3122,-142.62 3122,-142.62 3122,-136.62 3128,-130.62 3134,-130.62 3134,-130.62 3164,-130.62 3164,-130.62 3170,-130.62 3176,-136.62 3176,-142.62 3176,-142.62 3176,-154.62 3176,-154.62 3176,-160.62 3170,-166.62 3164,-166.62"/>
<text text-anchor="middle" x="3149" y="-144.92" font-family="Times,serif" font-size="14.00">4</text>
</g>
<!-- M7S6&#45;&gt;M8S4 -->
<g id="edge26" class="edge">
<title>M7S6&#45;&gt;M8S4</title>
<path fill="none" stroke="black" d="M2282.1,-225.63C2365.75,-228.54 2634.63,-235.1 2855,-209.62 2948.83,-198.76 3057.14,-172.57 3112.06,-158.29"/>
<polygon fill="black" stroke="black" points="3113.21,-161.6 3121.99,-155.68 3111.43,-154.83 3113.21,-161.6"/>
<text text-anchor="middle" x="2701.5" y="-230.42" font-family="Times,serif" font-size="14.00">(ε, ((fr)|(rf)fr)|((fr)|(rf)rf)|((fr)|(rf)rf)|(rfrf)fr)</text>
</g>
<!-- M7S2&#45;&gt;M8S4 -->
<g id="edge27" class="edge">
<title>M7S2&#45;&gt;M8S4</title>
<path fill="none" stroke="black" d="M2282.01,-173C2365.41,-180.29 2633.62,-200.91 2855,-186.62 2948.05,-180.61 3056.69,-163.97 3111.86,-154.83"/>
<polygon fill="black" stroke="black" points="3112.56,-158.26 3121.85,-153.16 3111.41,-151.36 3112.56,-158.26"/>
<text text-anchor="middle" x="2701.5" y="-194.42" font-family="Times,serif" font-size="14.00">(rf, ((fr)|(rf)fr)|((fr)|(rf)rf)|((fr)|(rf)rf)|(rfrf)rf)</text>
</g>
<!-- M8S1 -->
<g id="node20" class="node">
<title>M8S1</title>
<path fill="#ffffff" stroke="black" d="M3164,-112.62C3164,-112.62 3134,-112.62 3134,-112.62 3128,-112.62 3122,-106.62 3122,-100.62 3122,-100.62 3122,-88.62 3122,-88.62 3122,-82.62 3128,-76.62 3134,-76.62 3134,-76.62 3164,-76.62 3164,-76.62 3170,-76.62 3176,-82.62 3176,-88.62 3176,-88.62 3176,-100.62 3176,-100.62 3176,-106.62 3170,-112.62 3164,-112.62"/>
<text text-anchor="middle" x="3149" y="-90.92" font-family="Times,serif" font-size="14.00">1</text>
</g>
<!-- M7S2&#45;&gt;M8S1 -->
<g id="edge28" class="edge">
<title>M7S2&#45;&gt;M8S1</title>
<path fill="none" stroke="black" d="M2282.12,-170.46C2394.42,-169.69 2831.5,-165.62 2855,-148.62 2865.37,-141.11 2854.86,-129.42 2865,-121.62 2937.52,-65.84 3053.4,-76.68 3111.82,-86.91"/>
<polygon fill="black" stroke="black" points="3111.23,-90.36 3121.7,-88.73 3112.5,-83.48 3111.23,-90.36"/>
<text text-anchor="middle" x="2701.5" y="-169.42" font-family="Times,serif" font-size="14.00">(r, ((fr)|(rf)fr)|((fr)|(rf)rf)|((fr)|(rf)rf)|(rfrf)r)</text>
</g>
<!-- M7S5&#45;&gt;M8S4 -->
<g id="edge29" class="edge">
<title>M7S5&#45;&gt;M8S4</title>
<path fill="none" stroke="black" d="M2282.28,-117.15C2365.94,-118.89 2633.58,-124.81 2855,-133.62 2947.52,-137.3 3056.38,-143.31 3111.73,-146.49"/>
<polygon fill="black" stroke="black" points="3111.56,-149.99 3121.74,-147.07 3111.96,-143 3111.56,-149.99"/>
<text text-anchor="middle" x="2701.5" y="-137.42" font-family="Times,serif" font-size="14.00">(f, ((fr)|(rf)fr)|((fr)|(rf)rf)|((fr)|(rf)rf)|(rfrf)rf)</text>
</g>
<!-- M7S5&#45;&gt;M8S1 -->
<g id="edge30" class="edge">
<title>M7S5&#45;&gt;M8S1</title>
<path fill="none" stroke="black" d="M2282.14,-114.12C2333.18,-109.38 2449.72,-99.23 2548,-95.62 2761.75,-87.76 3018.62,-91.86 3111.92,-93.8"/>
<polygon fill="black" stroke="black" points="3111.89,-97.3 3121.96,-94.01 3112.04,-90.3 3111.89,-97.3"/>
<text text-anchor="middle" x="2701.5" y="-99.42" font-family="Times,serif" font-size="14.00">(ε, ((fr)|(rf)fr)|((fr)|(rf)rf)|((fr)|(rf)rf)|(rfrf)r)</text>
</g>
<!-- M7S3&#45;&gt;M8S4 -->
<g id="edge31" class="edge">
<title>M7S3&#45;&gt;M8S4</title>
<path fill="none" stroke="black" d="M2282.17,-61.12C2391.82,-55.08 2810.59,-34.64 2855,-71.62 2872.42,-86.11 2848.18,-106.43 2865,-121.62 2933.26,-183.23 3052.06,-169.46 3111.68,-157.4"/>
<polygon fill="black" stroke="black" points="3112.7,-160.76 3121.76,-155.26 3111.25,-153.91 3112.7,-160.76"/>
<text text-anchor="middle" x="2701.5" y="-75.42" font-family="Times,serif" font-size="14.00">(frf, ((fr)|(rf)r)|(rfr)frf)</text>
</g>
<!-- M7S3&#45;&gt;M8S1 -->
<g id="edge32" class="edge">
<title>M7S3&#45;&gt;M8S1</title>
<path fill="none" stroke="black" d="M2282.08,-57.09C2365.68,-40.17 2634.41,8.17 2855,-19.62 2949.65,-31.54 3057.54,-64.32 3112.2,-82.34"/>
<polygon fill="black" stroke="black" points="3111.17,-85.69 3121.77,-85.53 3113.38,-79.05 3111.17,-85.69"/>
<text text-anchor="middle" x="2701.5" y="-23.42" font-family="Times,serif" font-size="14.00">(fr, ((fr)|(rf)r)|(rfr)fr)</text>
</g>
<!-- M9S6 -->
<g id="node21" class="node">
<title>M9S6</title>
<path fill="#ffffff" stroke="black" d="M4328,-227.62C4328,-227.62 4298,-227.62 4298,-227.62 4292,-227.62 4286,-221.62 4286,-215.62 4286,-215.62 4286,-203.62 4286,-203.62 4286,-197.62 4292,-191.62 4298,-191.62 4298,-191.62 4328,-191.62 4328,-191.62 4334,-191.62 4340,-197.62 4340,-203.62 4340,-203.62 4340,-215.62 4340,-215.62 4340,-221.62 4334,-227.62 4328,-227.62"/>
<text text-anchor="middle" x="4313" y="-205.92" font-family="Times,serif" font-size="14.00">6</text>
</g>
<!-- M8S4&#45;&gt;M9S6 -->
<g id="edge33" class="edge">
<title>M8S4&#45;&gt;M9S6</title>
<path fill="none" stroke="black" d="M3176.26,-152.93C3227.55,-161.14 3344.71,-178.9 3444,-186.62 3765.69,-211.6 4156.23,-210.89 4275.61,-209.98"/>
<polygon fill="black" stroke="black" points="4275.7,-213.48 4285.67,-209.9 4275.64,-206.48 4275.7,-213.48"/>
<text text-anchor="middle" x="3731.5" y="-227.42" font-family="Times,serif" font-size="14.00">(fr, (((fr)|(rf)fr)|((fr)|(rf)rf)|((fr)|(rf)rf)|(rfrf)fr)|(((fr)|(rf)fr)|((fr)|(rf)rf)|((fr)|(rf)rf)|(rfr</text>
<text text-anchor="middle" x="3731.5" y="-212.42" font-family="Times,serif" font-size="14.00">f)rf)|(((fr)|(rf)fr)|((fr)|(rf)rf)|((fr)|(rf)rf)|(rfrf)rf)|(((fr)|(rf)r)|(rfr)frf)fr)</text>
</g>
<!-- M9S2 -->
<g id="node22" class="node">
<title>M9S2</title>
<path fill="#ffffff" stroke="black" d="M4328,-173.62C4328,-173.62 4298,-173.62 4298,-173.62 4292,-173.62 4286,-167.62 4286,-161.62 4286,-161.62 4286,-149.62 4286,-149.62 4286,-143.62 4292,-137.62 4298,-137.62 4298,-137.62 4328,-137.62 4328,-137.62 4334,-137.62 4340,-143.62 4340,-149.62 4340,-149.62 4340,-161.62 4340,-161.62 4340,-167.62 4334,-173.62 4328,-173.62"/>
<text text-anchor="middle" x="4313" y="-151.92" font-family="Times,serif" font-size="14.00">2</text>
</g>
<!-- M8S4&#45;&gt;M9S2 -->
<g id="edge34" class="edge">
<title>M8S4&#45;&gt;M9S2</title>
<path fill="none" stroke="black" d="M3176.18,-148.77C3328.37,-149.69 4098.74,-154.33 4275.72,-155.4"/>
<polygon fill="black" stroke="black" points="4275.79,-158.9 4285.81,-155.46 4275.83,-151.9 4275.79,-158.9"/>
<text text-anchor="middle" x="3731.5" y="-172.42" font-family="Times,serif" font-size="14.00">(ε, (((fr)|(rf)fr)|((fr)|(rf)rf)|((fr)|(rf)rf)|(rfrf)fr)|(((fr)|(rf)fr)|((fr)|(rf)rf)|((fr)|(rf)rf)|(rfr</text>
<text text-anchor="middle" x="3731.5" y="-157.42" font-family="Times,serif" font-size="14.00">f)rf)|(((fr)|(rf)fr)|((fr)|(rf)rf)|((fr)|(rf)rf)|(rfrf)rf)|(((fr)|(rf)r)|(rfr)frf))</text>
</g>
<!-- M9S5 -->
<g id="node23" class="node">
<title>M9S5</title>
<path fill="#ffffff" stroke="black" d="M4328,-119.62C4328,-119.62 4298,-119.62 4298,-119.62 4292,-119.62 4286,-113.62 4286,-107.62 4286,-107.62 4286,-95.62 4286,-95.62 4286,-89.62 4292,-83.62 4298,-83.62 4298,-83.62 4328,-83.62 4328,-83.62 4334,-83.62 4340,-89.62 4340,-95.62 4340,-95.62 4340,-107.62 4340,-107.62 4340,-113.62 4334,-119.62 4328,-119.62"/>
<text text-anchor="middle" x="4313" y="-97.92" font-family="Times,serif" font-size="14.00">5</text>
</g>
<!-- M8S4&#45;&gt;M9S5 -->
<g id="edge35" class="edge">
<title>M8S4&#45;&gt;M9S5</title>
<path fill="none" stroke="black" d="M3176.24,-149.93C3227.29,-151.66 3342.96,-151.54 3434,-121.62 3438.92,-120 3439.02,-117.04 3444,-115.62 3603.76,-69.98 4132.18,-92.57 4275.74,-99.71"/>
<polygon fill="black" stroke="black" points="4275.62,-103.21 4285.78,-100.22 4275.97,-96.22 4275.62,-103.21"/>
<text text-anchor="middle" x="3731.5" y="-134.42" font-family="Times,serif" font-size="14.00">(r, (((fr)|(rf)fr)|((fr)|(rf)rf)|((fr)|(rf)rf)|(rfrf)fr)|(((fr)|(rf)fr)|((fr)|(rf)rf)|((fr)|(rf)rf)|(rfr</text>
<text text-anchor="middle" x="3731.5" y="-119.42" font-family="Times,serif" font-size="14.00">f)rf)|(((fr)|(rf)fr)|((fr)|(rf)rf)|((fr)|(rf)rf)|(rfrf)rf)|(((fr)|(rf)r)|(rfr)frf)r)</text>
</g>
<!-- M9S3 -->
<g id="node24" class="node">
<title>M9S3</title>
<path fill="#ffffff" stroke="black" d="M4328,-65.62C4328,-65.62 4298,-65.62 4298,-65.62 4292,-65.62 4286,-59.62 4286,-53.62 4286,-53.62 4286,-41.62 4286,-41.62 4286,-35.62 4292,-29.62 4298,-29.62 4298,-29.62 4328,-29.62 4328,-29.62 4334,-29.62 4340,-35.62 4340,-41.62 4340,-41.62 4340,-53.62 4340,-53.62 4340,-59.62 4334,-65.62 4328,-65.62"/>
<text text-anchor="middle" x="4313" y="-43.92" font-family="Times,serif" font-size="14.00">3</text>
</g>
<!-- M8S1&#45;&gt;M9S3 -->
<g id="edge36" class="edge">
<title>M8S1&#45;&gt;M9S3</title>
<path fill="none" stroke="black" d="M3176.31,-91.72C3227.69,-86.19 3345.01,-74.19 3444,-68.62 3766.13,-50.49 4156.38,-48 4275.65,-47.66"/>
<polygon fill="black" stroke="black" points="4275.71,-51.16 4285.7,-47.64 4275.69,-44.16 4275.71,-51.16"/>
<text text-anchor="middle" x="3731.5" y="-72.42" font-family="Times,serif" font-size="14.00">(ε, (((fr)|(rf)fr)|((fr)|(rf)rf)|((fr)|(rf)rf)|(rfrf)r)|(((fr)|(rf)r)|(rfr)fr))</text>
</g>
</g>
</svg>
