<?xml version="1.0" encoding="UTF-8" standalone="no"?>
<!DOCTYPE svg PUBLIC "-//W3C//DTD SVG 1.1//EN"
 "http://www.w3.org/Graphics/SVG/1.1/DTD/svg11.dtd">
<!-- Generated by graphviz version 2.43.0 (0)
 -->
<!-- Title: MONinput/e Pages: 1 -->
<svg width="3464pt" height="275pt"
 viewBox="0.00 0.00 3464.00 274.55" xmlns="http://www.w3.org/2000/svg" xmlns:xlink="http://www.w3.org/1999/xlink">
<g id="graph0" class="graph" transform="scale(1 1) rotate(0) translate(4 270.55)">
<title>MONinput/e</title>
<polygon fill="white" stroke="transparent" points="-4,4 -4,-270.55 3460,-270.55 3460,4 -4,4"/>
<g id="clust1" class="cluster">
<title>cluster0</title>
<path fill="#fff9dd" stroke="#fff9dd" d="M20,-81.55C20,-81.55 66,-81.55 66,-81.55 72,-81.55 78,-87.55 78,-93.55 78,-93.55 78,-144.55 78,-144.55 78,-150.55 72,-156.55 66,-156.55 66,-156.55 20,-156.55 20,-156.55 14,-156.55 8,-150.55 8,-144.55 8,-144.55 8,-93.55 8,-93.55 8,-87.55 14,-81.55 20,-81.55"/>
<text text-anchor="middle" x="43" y="-141.35" font-family="Times,serif" font-size="14.00">ε</text>
</g>
<g id="clust2" class="cluster">
<title>cluster1</title>
<path fill="#fff9dd" stroke="#fff9dd" d="M145,-81.55C145,-81.55 191,-81.55 191,-81.55 197,-81.55 203,-87.55 203,-93.55 203,-93.55 203,-144.55 203,-144.55 203,-150.55 197,-156.55 191,-156.55 191,-156.55 145,-156.55 145,-156.55 139,-156.55 133,-150.55 133,-144.55 133,-144.55 133,-93.55 133,-93.55 133,-87.55 139,-81.55 145,-81.55"/>
<text text-anchor="middle" x="168" y="-141.35" font-family="Times,serif" font-size="14.00">ε</text>
</g>
<g id="clust3" class="cluster">
<title>cluster2</title>
<path fill="#fff9dd" stroke="#fff9dd" d="M270,-81.55C270,-81.55 332,-81.55 332,-81.55 338,-81.55 344,-87.55 344,-93.55 344,-93.55 344,-144.55 344,-144.55 344,-150.55 338,-156.55 332,-156.55 332,-156.55 270,-156.55 270,-156.55 264,-156.55 258,-150.55 258,-144.55 258,-144.55 258,-93.55 258,-93.55 258,-87.55 264,-81.55 270,-81.55"/>
<text text-anchor="middle" x="301" y="-141.35" font-family="Times,serif" font-size="14.00">(r2r1)?|r1</text>
</g>
<g id="clust4" class="cluster">
<title>cluster3</title>
<path fill="#fff9dd" stroke="#fff9dd" d="M459,-27.55C459,-27.55 628,-27.55 628,-27.55 634,-27.55 640,-33.55 640,-39.55 640,-39.55 640,-198.55 640,-198.55 640,-204.55 634,-210.55 628,-210.55 628,-210.55 459,-210.55 459,-210.55 453,-210.55 447,-204.55 447,-198.55 447,-198.55 447,-39.55 447,-39.55 447,-33.55 453,-27.55 459,-27.55"/>
<text text-anchor="middle" x="543.5" y="-195.35" font-family="Times,serif" font-size="14.00">((r2r1)|((r1r2)|r1))|(r1r2)</text>
</g>
<g id="clust5" class="cluster">
<title>cluster4</title>
<path fill="#fff9dd" stroke="#fff9dd" d="M755,-49.55C755,-49.55 994,-49.55 994,-49.55 1000,-49.55 1006,-55.55 1006,-61.55 1006,-61.55 1006,-166.55 1006,-166.55 1006,-172.55 1000,-178.55 994,-178.55 994,-178.55 755,-178.55 755,-178.55 749,-178.55 743,-172.55 743,-166.55 743,-166.55 743,-61.55 743,-61.55 743,-55.55 749,-49.55 755,-49.55"/>
<text text-anchor="middle" x="874.5" y="-163.35" font-family="Times,serif" font-size="14.00">(((r2r1)|(r1r2))|(r1r2)(r2r1)?|r1)|r1</text>
</g>
<g id="clust6" class="cluster">
<title>cluster5</title>
<path fill="#fff9dd" stroke="#fff9dd" d="M1267,-21.55C1267,-21.55 2018,-21.55 2018,-21.55 2024,-21.55 2030,-27.55 2030,-33.55 2030,-33.55 2030,-246.55 2030,-246.55 2030,-252.55 2024,-258.55 2018,-258.55 2018,-258.55 1267,-258.55 1267,-258.55 1261,-258.55 1255,-252.55 1255,-246.55 1255,-246.55 1255,-33.55 1255,-33.55 1255,-27.55 1261,-21.55 1267,-21.55"/>
<text text-anchor="middle" x="1642.5" y="-243.35" font-family="Times,serif" font-size="14.00">(((((r2r1)|(r1r2))|(r1r2)r2r1)|(((r2r1)|(r1r2))|(r1r2)(r1r2)|r1))|(((r2r1)|(r1r2))|(r1r2)r1r2))|(r1(r2r1r2)|(r2r1))</text>
</g>
<g id="clust7" class="cluster">
<title>cluster6</title>
<path fill="#fff9dd" stroke="#fff9dd" d="M2291,-53.55C2291,-53.55 3444,-53.55 3444,-53.55 3450,-53.55 3456,-59.55 3456,-65.55 3456,-65.55 3456,-170.55 3456,-170.55 3456,-176.55 3450,-182.55 3444,-182.55 3444,-182.55 2291,-182.55 2291,-182.55 2285,-182.55 2279,-176.55 2279,-170.55 2279,-170.55 2279,-65.55 2279,-65.55 2279,-59.55 2285,-53.55 2291,-53.55"/>
<text text-anchor="middle" x="2867.5" y="-167.35" font-family="Times,serif" font-size="14.00">((((((r2r1)|(r1r2))|(r1r2)r2r1)|(((r2r1)|(r1r2))|(r1r2)r1r2))|(((r2r1)|(r1r2))|(r1r2)r1r2))|(r1r2r1r2)(((r1?|r2)|(r2r1))|(r2r1))|(r2r1r2))|((((r2r1)|(r1r2))|(r1r2)r1)|(r1r2r1))</text>
</g>
<!-- M0S0 -->
<g id="node1" class="node">
<title>M0S0</title>
<path fill="#ffffff" stroke="black" d="M58,-125.55C58,-125.55 28,-125.55 28,-125.55 22,-125.55 16,-119.55 16,-113.55 16,-113.55 16,-101.55 16,-101.55 16,-95.55 22,-89.55 28,-89.55 28,-89.55 58,-89.55 58,-89.55 64,-89.55 70,-95.55 70,-101.55 70,-101.55 70,-113.55 70,-113.55 70,-119.55 64,-125.55 58,-125.55"/>
<text text-anchor="middle" x="43" y="-103.85" font-family="Times,serif" font-size="14.00">0</text>
</g>
<!-- M1S1 -->
<g id="node2" class="node">
<title>M1S1</title>
<path fill="#ffffff" stroke="black" d="M183,-125.55C183,-125.55 153,-125.55 153,-125.55 147,-125.55 141,-119.55 141,-113.55 141,-113.55 141,-101.55 141,-101.55 141,-95.55 147,-89.55 153,-89.55 153,-89.55 183,-89.55 183,-89.55 189,-89.55 195,-95.55 195,-101.55 195,-101.55 195,-113.55 195,-113.55 195,-119.55 189,-125.55 183,-125.55"/>
<text text-anchor="middle" x="168" y="-103.85" font-family="Times,serif" font-size="14.00">1</text>
</g>
<!-- M0S0&#45;&gt;M1S1 -->
<g id="edge1" class="edge">
<title>M0S0&#45;&gt;M1S1</title>
<path fill="none" stroke="black" d="M70.09,-107.55C87.78,-107.55 111.4,-107.55 130.9,-107.55"/>
<polygon fill="black" stroke="black" points="130.95,-111.05 140.95,-107.55 130.95,-104.05 130.95,-111.05"/>
<text text-anchor="middle" x="105.5" y="-111.35" font-family="Times,serif" font-size="14.00">(ε, ε)</text>
</g>
<!-- M2S2 -->
<g id="node3" class="node">
<title>M2S2</title>
<path fill="#ffffff" stroke="black" d="M316,-125.55C316,-125.55 286,-125.55 286,-125.55 280,-125.55 274,-119.55 274,-113.55 274,-113.55 274,-101.55 274,-101.55 274,-95.55 280,-89.55 286,-89.55 286,-89.55 316,-89.55 316,-89.55 322,-89.55 328,-95.55 328,-101.55 328,-101.55 328,-113.55 328,-113.55 328,-119.55 322,-125.55 316,-125.55"/>
<text text-anchor="middle" x="301" y="-103.85" font-family="Times,serif" font-size="14.00">2</text>
</g>
<!-- M1S1&#45;&gt;M2S2 -->
<g id="edge2" class="edge">
<title>M1S1&#45;&gt;M2S2</title>
<path fill="none" stroke="black" d="M195.19,-107.55C214.83,-107.55 241.94,-107.55 263.67,-107.55"/>
<polygon fill="black" stroke="black" points="263.85,-111.05 273.85,-107.55 263.85,-104.05 263.85,-111.05"/>
<text text-anchor="middle" x="230.5" y="-111.35" font-family="Times,serif" font-size="14.00">(ε, ε)</text>
</g>
<!-- M3S1 -->
<g id="node4" class="node">
<title>M3S1</title>
<path fill="#ffffff" stroke="black" d="M558,-179.55C558,-179.55 528,-179.55 528,-179.55 522,-179.55 516,-173.55 516,-167.55 516,-167.55 516,-155.55 516,-155.55 516,-149.55 522,-143.55 528,-143.55 528,-143.55 558,-143.55 558,-143.55 564,-143.55 570,-149.55 570,-155.55 570,-155.55 570,-167.55 570,-167.55 570,-173.55 564,-179.55 558,-179.55"/>
<text text-anchor="middle" x="543" y="-157.85" font-family="Times,serif" font-size="14.00">1</text>
</g>
<!-- M2S2&#45;&gt;M3S1 -->
<g id="edge3" class="edge">
<title>M2S2&#45;&gt;M3S1</title>
<path fill="none" stroke="black" d="M328.18,-118.08C336.36,-121.1 345.47,-124.22 354,-126.55 405.95,-140.77 467.57,-151.02 505.73,-156.63"/>
<polygon fill="black" stroke="black" points="505.45,-160.12 515.84,-158.08 506.44,-153.19 505.45,-160.12"/>
<text text-anchor="middle" x="395.5" y="-148.35" font-family="Times,serif" font-size="14.00">(r2r1, r2r1)</text>
</g>
<!-- M3S3 -->
<g id="node5" class="node">
<title>M3S3</title>
<path fill="#ffffff" stroke="black" d="M558,-125.55C558,-125.55 528,-125.55 528,-125.55 522,-125.55 516,-119.55 516,-113.55 516,-113.55 516,-101.55 516,-101.55 516,-95.55 522,-89.55 528,-89.55 528,-89.55 558,-89.55 558,-89.55 564,-89.55 570,-95.55 570,-101.55 570,-101.55 570,-113.55 570,-113.55 570,-119.55 564,-125.55 558,-125.55"/>
<text text-anchor="middle" x="543" y="-103.85" font-family="Times,serif" font-size="14.00">3</text>
</g>
<!-- M2S2&#45;&gt;M3S3 -->
<g id="edge4" class="edge">
<title>M2S2&#45;&gt;M3S3</title>
<path fill="none" stroke="black" d="M328.14,-107.55C371.15,-107.55 456.93,-107.55 505.77,-107.55"/>
<polygon fill="black" stroke="black" points="505.89,-111.05 515.89,-107.55 505.89,-104.05 505.89,-111.05"/>
<text text-anchor="middle" x="395.5" y="-111.35" font-family="Times,serif" font-size="14.00">(ε, ε)</text>
</g>
<!-- M3S4 -->
<g id="node6" class="node">
<title>M3S4</title>
<path fill="#ffffff" stroke="black" d="M558,-71.55C558,-71.55 528,-71.55 528,-71.55 522,-71.55 516,-65.55 516,-59.55 516,-59.55 516,-47.55 516,-47.55 516,-41.55 522,-35.55 528,-35.55 528,-35.55 558,-35.55 558,-35.55 564,-35.55 570,-41.55 570,-47.55 570,-47.55 570,-59.55 570,-59.55 570,-65.55 564,-71.55 558,-71.55"/>
<text text-anchor="middle" x="543" y="-49.85" font-family="Times,serif" font-size="14.00">4</text>
</g>
<!-- M2S2&#45;&gt;M3S4 -->
<g id="edge5" class="edge">
<title>M2S2&#45;&gt;M3S4</title>
<path fill="none" stroke="black" d="M328.18,-97.02C336.36,-93.99 345.47,-90.88 354,-88.55 405.95,-74.33 467.57,-64.07 505.73,-58.47"/>
<polygon fill="black" stroke="black" points="506.44,-61.91 515.84,-57.02 505.45,-54.98 506.44,-61.91"/>
<text text-anchor="middle" x="395.5" y="-92.35" font-family="Times,serif" font-size="14.00">(r1, r1)</text>
</g>
<!-- M4S2 -->
<g id="node7" class="node">
<title>M4S2</title>
<path fill="#ffffff" stroke="black" d="M889,-147.55C889,-147.55 859,-147.55 859,-147.55 853,-147.55 847,-141.55 847,-135.55 847,-135.55 847,-123.55 847,-123.55 847,-117.55 853,-111.55 859,-111.55 859,-111.55 889,-111.55 889,-111.55 895,-111.55 901,-117.55 901,-123.55 901,-123.55 901,-135.55 901,-135.55 901,-141.55 895,-147.55 889,-147.55"/>
<text text-anchor="middle" x="874" y="-125.85" font-family="Times,serif" font-size="14.00">2</text>
</g>
<!-- M3S1&#45;&gt;M4S2 -->
<g id="edge6" class="edge">
<title>M3S1&#45;&gt;M4S2</title>
<path fill="none" stroke="black" d="M570.09,-159.01C628.52,-153.33 769.98,-139.57 836.84,-133.07"/>
<polygon fill="black" stroke="black" points="837.29,-136.54 846.91,-132.09 836.61,-129.57 837.29,-136.54"/>
<text text-anchor="middle" x="691.5" y="-154.35" font-family="Times,serif" font-size="14.00">(ε, r2r1)</text>
</g>
<!-- M3S3&#45;&gt;M4S2 -->
<g id="edge7" class="edge">
<title>M3S3&#45;&gt;M4S2</title>
<path fill="none" stroke="black" d="M570.09,-109.29C628.52,-113.2 769.98,-122.66 836.84,-127.13"/>
<polygon fill="black" stroke="black" points="836.69,-130.63 846.91,-127.8 837.16,-123.65 836.69,-130.63"/>
<text text-anchor="middle" x="691.5" y="-123.35" font-family="Times,serif" font-size="14.00">(r1r2, r1r2)</text>
</g>
<!-- M4S5 -->
<g id="node8" class="node">
<title>M4S5</title>
<path fill="#ffffff" stroke="black" d="M889,-93.55C889,-93.55 859,-93.55 859,-93.55 853,-93.55 847,-87.55 847,-81.55 847,-81.55 847,-69.55 847,-69.55 847,-63.55 853,-57.55 859,-57.55 859,-57.55 889,-57.55 889,-57.55 895,-57.55 901,-63.55 901,-69.55 901,-69.55 901,-81.55 901,-81.55 901,-87.55 895,-93.55 889,-93.55"/>
<text text-anchor="middle" x="874" y="-71.85" font-family="Times,serif" font-size="14.00">5</text>
</g>
<!-- M3S3&#45;&gt;M4S5 -->
<g id="edge8" class="edge">
<title>M3S3&#45;&gt;M4S5</title>
<path fill="none" stroke="black" d="M570.12,-104.42C591.56,-101.89 622.73,-98.32 650,-95.55 715.74,-88.88 792.5,-82.25 836.66,-78.55"/>
<polygon fill="black" stroke="black" points="837.22,-82.01 846.89,-77.69 836.63,-75.04 837.22,-82.01"/>
<text text-anchor="middle" x="691.5" y="-99.35" font-family="Times,serif" font-size="14.00">(r1, r1)</text>
</g>
<!-- M3S4&#45;&gt;M4S2 -->
<g id="edge9" class="edge">
<title>M3S4&#45;&gt;M4S2</title>
<path fill="none" stroke="black" d="M570.26,-47.19C610.17,-39.18 686.36,-30.69 733,-68.55 745.23,-78.48 731.42,-91.87 743,-102.55 768.13,-125.72 807.77,-131.11 836.67,-131.54"/>
<polygon fill="black" stroke="black" points="836.8,-135.04 846.79,-131.5 836.77,-128.04 836.8,-135.04"/>
<text text-anchor="middle" x="691.5" y="-72.35" font-family="Times,serif" font-size="14.00">(r2, r1r2)</text>
</g>
<!-- M3S4&#45;&gt;M4S5 -->
<g id="edge10" class="edge">
<title>M3S4&#45;&gt;M4S5</title>
<path fill="none" stroke="black" d="M570.35,-41.56C591.41,-32.67 621.94,-21.31 650,-16.55 686.37,-10.38 696.84,-9.24 733,-16.55 770.35,-24.1 810.13,-41.92 837.7,-56.01"/>
<polygon fill="black" stroke="black" points="836.44,-59.3 846.92,-60.82 839.67,-53.09 836.44,-59.3"/>
<text text-anchor="middle" x="691.5" y="-20.35" font-family="Times,serif" font-size="14.00">(ε, r1)</text>
</g>
<!-- M5S1 -->
<g id="node9" class="node">
<title>M5S1</title>
<path fill="#ffffff" stroke="black" d="M1657,-227.55C1657,-227.55 1627,-227.55 1627,-227.55 1621,-227.55 1615,-221.55 1615,-215.55 1615,-215.55 1615,-203.55 1615,-203.55 1615,-197.55 1621,-191.55 1627,-191.55 1627,-191.55 1657,-191.55 1657,-191.55 1663,-191.55 1669,-197.55 1669,-203.55 1669,-203.55 1669,-215.55 1669,-215.55 1669,-221.55 1663,-227.55 1657,-227.55"/>
<text text-anchor="middle" x="1642" y="-205.85" font-family="Times,serif" font-size="14.00">1</text>
</g>
<!-- M4S2&#45;&gt;M5S1 -->
<g id="edge11" class="edge">
<title>M4S2&#45;&gt;M5S1</title>
<path fill="none" stroke="black" d="M901.06,-136.3C929.22,-143.36 975.51,-154.26 1016,-160.55 1238.1,-195.05 1508.58,-205.77 1604.86,-208.63"/>
<polygon fill="black" stroke="black" points="1604.84,-212.13 1614.94,-208.92 1605.04,-205.14 1604.84,-212.13"/>
<text text-anchor="middle" x="1130.5" y="-190.35" font-family="Times,serif" font-size="14.00">(r2r1, ((r2r1)|(r1r2))|(r1r2)r2r1)</text>
</g>
<!-- M5S3 -->
<g id="node10" class="node">
<title>M5S3</title>
<path fill="#ffffff" stroke="black" d="M1657,-173.55C1657,-173.55 1627,-173.55 1627,-173.55 1621,-173.55 1615,-167.55 1615,-161.55 1615,-161.55 1615,-149.55 1615,-149.55 1615,-143.55 1621,-137.55 1627,-137.55 1627,-137.55 1657,-137.55 1657,-137.55 1663,-137.55 1669,-143.55 1669,-149.55 1669,-149.55 1669,-161.55 1669,-161.55 1669,-167.55 1663,-173.55 1657,-173.55"/>
<text text-anchor="middle" x="1642" y="-151.85" font-family="Times,serif" font-size="14.00">3</text>
</g>
<!-- M4S2&#45;&gt;M5S3 -->
<g id="edge12" class="edge">
<title>M4S2&#45;&gt;M5S3</title>
<path fill="none" stroke="black" d="M901.37,-130.44C1016.12,-134.34 1472.16,-149.82 1604.7,-154.32"/>
<polygon fill="black" stroke="black" points="1604.63,-157.82 1614.74,-154.66 1604.87,-150.82 1604.63,-157.82"/>
<text text-anchor="middle" x="1130.5" y="-145.35" font-family="Times,serif" font-size="14.00">(ε, ((r2r1)|(r1r2))|(r1r2))</text>
</g>
<!-- M5S4 -->
<g id="node11" class="node">
<title>M5S4</title>
<path fill="#ffffff" stroke="black" d="M1657,-119.55C1657,-119.55 1627,-119.55 1627,-119.55 1621,-119.55 1615,-113.55 1615,-107.55 1615,-107.55 1615,-95.55 1615,-95.55 1615,-89.55 1621,-83.55 1627,-83.55 1627,-83.55 1657,-83.55 1657,-83.55 1663,-83.55 1669,-89.55 1669,-95.55 1669,-95.55 1669,-107.55 1669,-107.55 1669,-113.55 1663,-119.55 1657,-119.55"/>
<text text-anchor="middle" x="1642" y="-97.85" font-family="Times,serif" font-size="14.00">4</text>
</g>
<!-- M4S2&#45;&gt;M5S4 -->
<g id="edge13" class="edge">
<title>M4S2&#45;&gt;M5S4</title>
<path fill="none" stroke="black" d="M901.19,-126.09C929.46,-122.51 975.83,-117.1 1016,-114.55 1239.41,-100.37 1508.56,-100.6 1604.7,-101.23"/>
<polygon fill="black" stroke="black" points="1604.74,-104.73 1614.77,-101.3 1604.79,-97.73 1604.74,-104.73"/>
<text text-anchor="middle" x="1130.5" y="-118.35" font-family="Times,serif" font-size="14.00">(r1, ((r2r1)|(r1r2))|(r1r2)r1)</text>
</g>
<!-- M5S6 -->
<g id="node12" class="node">
<title>M5S6</title>
<path fill="#ffffff" stroke="black" d="M1657,-65.55C1657,-65.55 1627,-65.55 1627,-65.55 1621,-65.55 1615,-59.55 1615,-53.55 1615,-53.55 1615,-41.55 1615,-41.55 1615,-35.55 1621,-29.55 1627,-29.55 1627,-29.55 1657,-29.55 1657,-29.55 1663,-29.55 1669,-35.55 1669,-41.55 1669,-41.55 1669,-53.55 1669,-53.55 1669,-59.55 1663,-65.55 1657,-65.55"/>
<text text-anchor="middle" x="1642" y="-43.85" font-family="Times,serif" font-size="14.00">6</text>
</g>
<!-- M4S5&#45;&gt;M5S6 -->
<g id="edge14" class="edge">
<title>M4S5&#45;&gt;M5S6</title>
<path fill="none" stroke="black" d="M901.37,-74.59C1016.12,-70.39 1472.16,-53.72 1604.7,-48.88"/>
<polygon fill="black" stroke="black" points="1604.88,-52.37 1614.74,-48.51 1604.62,-45.38 1604.88,-52.37"/>
<text text-anchor="middle" x="1130.5" y="-73.35" font-family="Times,serif" font-size="14.00">(ε, r1)</text>
</g>
<!-- M6S2 -->
<g id="node13" class="node">
<title>M6S2</title>
<path fill="#ffffff" stroke="black" d="M2882,-151.55C2882,-151.55 2852,-151.55 2852,-151.55 2846,-151.55 2840,-145.55 2840,-139.55 2840,-139.55 2840,-127.55 2840,-127.55 2840,-121.55 2846,-115.55 2852,-115.55 2852,-115.55 2882,-115.55 2882,-115.55 2888,-115.55 2894,-121.55 2894,-127.55 2894,-127.55 2894,-139.55 2894,-139.55 2894,-145.55 2888,-151.55 2882,-151.55"/>
<text text-anchor="middle" x="2867" y="-129.85" font-family="Times,serif" font-size="14.00">2</text>
</g>
<!-- M5S1&#45;&gt;M6S2 -->
<g id="edge15" class="edge">
<title>M5S1&#45;&gt;M6S2</title>
<path fill="none" stroke="black" d="M1669.27,-209.51C1755.36,-209.22 2036.8,-207.16 2269,-192.55 2482.19,-179.14 2736.97,-149.35 2829.86,-138.03"/>
<polygon fill="black" stroke="black" points="2830.37,-141.49 2839.87,-136.81 2829.52,-134.55 2830.37,-141.49"/>
<text text-anchor="middle" x="2154.5" y="-206.35" font-family="Times,serif" font-size="14.00">(ε, ((r2r1)|(r1r2))|(r1r2)r2r1)</text>
</g>
<!-- M5S3&#45;&gt;M6S2 -->
<g id="edge16" class="edge">
<title>M5S3&#45;&gt;M6S2</title>
<path fill="none" stroke="black" d="M1669,-156.96C1732.4,-160.32 1900,-168.73 2040,-171.55 2141.76,-173.6 2167.27,-174.78 2269,-171.55 2481.9,-164.78 2736.85,-144.47 2829.83,-136.66"/>
<polygon fill="black" stroke="black" points="2830.17,-140.14 2839.84,-135.81 2829.58,-133.16 2830.17,-140.14"/>
<text text-anchor="middle" x="2154.5" y="-177.35" font-family="Times,serif" font-size="14.00">(r1r2, ((r2r1)|(r1r2))|(r1r2)r1r2)</text>
</g>
<!-- M6S5 -->
<g id="node14" class="node">
<title>M6S5</title>
<path fill="#ffffff" stroke="black" d="M2882,-97.55C2882,-97.55 2852,-97.55 2852,-97.55 2846,-97.55 2840,-91.55 2840,-85.55 2840,-85.55 2840,-73.55 2840,-73.55 2840,-67.55 2846,-61.55 2852,-61.55 2852,-61.55 2882,-61.55 2882,-61.55 2888,-61.55 2894,-67.55 2894,-73.55 2894,-73.55 2894,-85.55 2894,-85.55 2894,-91.55 2888,-97.55 2882,-97.55"/>
<text text-anchor="middle" x="2867" y="-75.85" font-family="Times,serif" font-size="14.00">5</text>
</g>
<!-- M5S3&#45;&gt;M6S5 -->
<g id="edge17" class="edge">
<title>M5S3&#45;&gt;M6S5</title>
<path fill="none" stroke="black" d="M1669.13,-155.44C1784.58,-154.84 2244.35,-151.36 2269,-133.55 2279.37,-126.06 2268.67,-114.1 2279,-106.55 2450.44,18.72 2731.12,-41.86 2830.09,-68.89"/>
<polygon fill="black" stroke="black" points="2829.33,-72.31 2839.9,-71.62 2831.21,-65.57 2829.33,-72.31"/>
<text text-anchor="middle" x="2154.5" y="-153.35" font-family="Times,serif" font-size="14.00">(r1, ((r2r1)|(r1r2))|(r1r2)r1)</text>
</g>
<!-- M5S4&#45;&gt;M6S2 -->
<g id="edge18" class="edge">
<title>M5S4&#45;&gt;M6S2</title>
<path fill="none" stroke="black" d="M1669.11,-102.23C1826.34,-106.35 2646.53,-127.81 2829.7,-132.6"/>
<polygon fill="black" stroke="black" points="2829.79,-136.1 2839.88,-132.87 2829.97,-129.11 2829.79,-136.1"/>
<text text-anchor="middle" x="2154.5" y="-121.35" font-family="Times,serif" font-size="14.00">(r2, ((r2r1)|(r1r2))|(r1r2)r1r2)</text>
</g>
<!-- M5S4&#45;&gt;M6S5 -->
<g id="edge19" class="edge">
<title>M5S4&#45;&gt;M6S5</title>
<path fill="none" stroke="black" d="M1669.46,-99.68C1733.2,-95.27 1900.29,-84.33 2040,-80.55 2345.48,-72.29 2714.73,-77.09 2829.92,-78.93"/>
<polygon fill="black" stroke="black" points="2829.9,-82.43 2839.95,-79.09 2830.01,-75.43 2829.9,-82.43"/>
<text text-anchor="middle" x="2154.5" y="-84.35" font-family="Times,serif" font-size="14.00">(ε, ((r2r1)|(r1r2))|(r1r2)r1)</text>
</g>
<!-- M5S6&#45;&gt;M6S2 -->
<g id="edge20" class="edge">
<title>M5S6&#45;&gt;M6S2</title>
<path fill="none" stroke="black" d="M1669.2,-46.08C1781.97,-39.98 2222.37,-18.85 2269,-57.55 2286.1,-71.74 2262.11,-92.1 2279,-106.55 2440.88,-245.05 2729.26,-175.56 2830.04,-145.25"/>
<polygon fill="black" stroke="black" points="2831.21,-148.55 2839.75,-142.27 2829.16,-141.85 2831.21,-148.55"/>
<text text-anchor="middle" x="2154.5" y="-61.35" font-family="Times,serif" font-size="14.00">(r2r1r2, r1r2r1r2)</text>
</g>
<!-- M5S6&#45;&gt;M6S5 -->
<g id="edge21" class="edge">
<title>M5S6&#45;&gt;M6S5</title>
<path fill="none" stroke="black" d="M1669.4,-43.69C1733,-34.62 1899.82,-12.12 2040,-4.55 2141.63,0.94 2167.42,1.81 2269,-4.55 2482.83,-17.93 2737.22,-58.01 2829.94,-73.42"/>
<polygon fill="black" stroke="black" points="2829.48,-76.89 2839.92,-75.09 2830.64,-69.99 2829.48,-76.89"/>
<text text-anchor="middle" x="2154.5" y="-8.35" font-family="Times,serif" font-size="14.00">(r2r1, r1r2r1)</text>
</g>
</g>
</svg>
