<?xml version="1.0" encoding="UTF-8" standalone="no"?>
<!DOCTYPE svg PUBLIC "-//W3C//DTD SVG 1.1//EN"
 "http://www.w3.org/Graphics/SVG/1.1/DTD/svg11.dtd">
<!-- Generated by graphviz version 2.43.0 (0)
 -->
<!-- Title: MONinput/e Pages: 1 -->
<svg width="3478pt" height="275pt"
 viewBox="0.00 0.00 3478.00 274.54" xmlns="http://www.w3.org/2000/svg" xmlns:xlink="http://www.w3.org/1999/xlink">
<g id="graph0" class="graph" transform="scale(1 1) rotate(0) translate(4 270.54)">
<title>MONinput/e</title>
<polygon fill="white" stroke="transparent" points="-4,4 -4,-270.54 3474,-270.54 3474,4 -4,4"/>
<g id="clust1" class="cluster">
<title>cluster0</title>
<path fill="#fff9dd" stroke="#fff9dd" d="M20,-81.54C20,-81.54 66,-81.54 66,-81.54 72,-81.54 78,-87.54 78,-93.54 78,-93.54 78,-144.54 78,-144.54 78,-150.54 72,-156.54 66,-156.54 66,-156.54 20,-156.54 20,-156.54 14,-156.54 8,-150.54 8,-144.54 8,-144.54 8,-93.54 8,-93.54 8,-87.54 14,-81.54 20,-81.54"/>
<text text-anchor="middle" x="43" y="-141.34" font-family="Times,serif" font-size="14.00">ε</text>
</g>
<g id="clust2" class="cluster">
<title>cluster1</title>
<path fill="#fff9dd" stroke="#fff9dd" d="M145,-81.54C145,-81.54 191,-81.54 191,-81.54 197,-81.54 203,-87.54 203,-93.54 203,-93.54 203,-144.54 203,-144.54 203,-150.54 197,-156.54 191,-156.54 191,-156.54 145,-156.54 145,-156.54 139,-156.54 133,-150.54 133,-144.54 133,-144.54 133,-93.54 133,-93.54 133,-87.54 139,-81.54 145,-81.54"/>
<text text-anchor="middle" x="168" y="-141.34" font-family="Times,serif" font-size="14.00">ε</text>
</g>
<g id="clust3" class="cluster">
<title>cluster2</title>
<path fill="#fff9dd" stroke="#fff9dd" d="M270,-81.54C270,-81.54 332,-81.54 332,-81.54 338,-81.54 344,-87.54 344,-93.54 344,-93.54 344,-144.54 344,-144.54 344,-150.54 338,-156.54 332,-156.54 332,-156.54 270,-156.54 270,-156.54 264,-156.54 258,-150.54 258,-144.54 258,-144.54 258,-93.54 258,-93.54 258,-87.54 264,-81.54 270,-81.54"/>
<text text-anchor="middle" x="301" y="-141.34" font-family="Times,serif" font-size="14.00">(r2r1)?|r1</text>
</g>
<g id="clust4" class="cluster">
<title>cluster3</title>
<path fill="#fff9dd" stroke="#fff9dd" d="M459,-27.54C459,-27.54 635,-27.54 635,-27.54 641,-27.54 647,-33.54 647,-39.54 647,-39.54 647,-198.54 647,-198.54 647,-204.54 641,-210.54 635,-210.54 635,-210.54 459,-210.54 459,-210.54 453,-210.54 447,-204.54 447,-198.54 447,-198.54 447,-39.54 447,-39.54 447,-33.54 453,-27.54 459,-27.54"/>
<text text-anchor="middle" x="547" y="-195.34" font-family="Times,serif" font-size="14.00">((r2r1)|((r1r2)|r1))|(r1r2?)</text>
</g>
<g id="clust5" class="cluster">
<title>cluster4</title>
<path fill="#fff9dd" stroke="#fff9dd" d="M762,-49.54C762,-49.54 1001,-49.54 1001,-49.54 1007,-49.54 1013,-55.54 1013,-61.54 1013,-61.54 1013,-166.54 1013,-166.54 1013,-172.54 1007,-178.54 1001,-178.54 1001,-178.54 762,-178.54 762,-178.54 756,-178.54 750,-172.54 750,-166.54 750,-166.54 750,-61.54 750,-61.54 750,-55.54 756,-49.54 762,-49.54"/>
<text text-anchor="middle" x="881.5" y="-163.34" font-family="Times,serif" font-size="14.00">(((r2r1)|(r1r2))|(r1r2)(r2r1)?|r1)|r1</text>
</g>
<g id="clust6" class="cluster">
<title>cluster5</title>
<path fill="#fff9dd" stroke="#fff9dd" d="M1274,-21.54C1274,-21.54 2032,-21.54 2032,-21.54 2038,-21.54 2044,-27.54 2044,-33.54 2044,-33.54 2044,-246.54 2044,-246.54 2044,-252.54 2038,-258.54 2032,-258.54 2032,-258.54 1274,-258.54 1274,-258.54 1268,-258.54 1262,-252.54 1262,-246.54 1262,-246.54 1262,-33.54 1262,-33.54 1262,-27.54 1268,-21.54 1274,-21.54"/>
<text text-anchor="middle" x="1653" y="-243.34" font-family="Times,serif" font-size="14.00">(((((r2r1)|(r1r2))|(r1r2)r2r1)|(((r2r1)|(r1r2))|(r1r2)(r1r2)|r1))|(((r2r1)|(r1r2))|(r1r2)r1r2?))|(r1(r2r1r2)|(r2r1))</text>
</g>
<g id="clust7" class="cluster">
<title>cluster6</title>
<path fill="#fff9dd" stroke="#fff9dd" d="M2305,-53.54C2305,-53.54 3458,-53.54 3458,-53.54 3464,-53.54 3470,-59.54 3470,-65.54 3470,-65.54 3470,-170.54 3470,-170.54 3470,-176.54 3464,-182.54 3458,-182.54 3458,-182.54 2305,-182.54 2305,-182.54 2299,-182.54 2293,-176.54 2293,-170.54 2293,-170.54 2293,-65.54 2293,-65.54 2293,-59.54 2299,-53.54 2305,-53.54"/>
<text text-anchor="middle" x="2881.5" y="-167.34" font-family="Times,serif" font-size="14.00">((((((r2r1)|(r1r2))|(r1r2)r2r1)|(((r2r1)|(r1r2))|(r1r2)r1r2))|(((r2r1)|(r1r2))|(r1r2)r1r2))|(r1r2r1r2)(((r1?|r2)|(r2r1))|(r2r1))|(r2r1r2))|((((r2r1)|(r1r2))|(r1r2)r1)|(r1r2r1))</text>
</g>
<!-- M0S0 -->
<g id="node1" class="node">
<title>M0S0</title>
<path fill="#ffffff" stroke="black" d="M58,-125.54C58,-125.54 28,-125.54 28,-125.54 22,-125.54 16,-119.54 16,-113.54 16,-113.54 16,-101.54 16,-101.54 16,-95.54 22,-89.54 28,-89.54 28,-89.54 58,-89.54 58,-89.54 64,-89.54 70,-95.54 70,-101.54 70,-101.54 70,-113.54 70,-113.54 70,-119.54 64,-125.54 58,-125.54"/>
<text text-anchor="middle" x="43" y="-103.84" font-family="Times,serif" font-size="14.00">0</text>
</g>
<!-- M1S1 -->
<g id="node2" class="node">
<title>M1S1</title>
<path fill="#ffffff" stroke="black" d="M183,-125.54C183,-125.54 153,-125.54 153,-125.54 147,-125.54 141,-119.54 141,-113.54 141,-113.54 141,-101.54 141,-101.54 141,-95.54 147,-89.54 153,-89.54 153,-89.54 183,-89.54 183,-89.54 189,-89.54 195,-95.54 195,-101.54 195,-101.54 195,-113.54 195,-113.54 195,-119.54 189,-125.54 183,-125.54"/>
<text text-anchor="middle" x="168" y="-103.84" font-family="Times,serif" font-size="14.00">1</text>
</g>
<!-- M0S0&#45;&gt;M1S1 -->
<g id="edge1" class="edge">
<title>M0S0&#45;&gt;M1S1</title>
<path fill="none" stroke="black" d="M70.09,-107.54C87.78,-107.54 111.4,-107.54 130.9,-107.54"/>
<polygon fill="black" stroke="black" points="130.95,-111.04 140.95,-107.54 130.95,-104.04 130.95,-111.04"/>
<text text-anchor="middle" x="105.5" y="-111.34" font-family="Times,serif" font-size="14.00">(ε, ε)</text>
</g>
<!-- M2S2 -->
<g id="node3" class="node">
<title>M2S2</title>
<path fill="#ffffff" stroke="black" d="M316,-125.54C316,-125.54 286,-125.54 286,-125.54 280,-125.54 274,-119.54 274,-113.54 274,-113.54 274,-101.54 274,-101.54 274,-95.54 280,-89.54 286,-89.54 286,-89.54 316,-89.54 316,-89.54 322,-89.54 328,-95.54 328,-101.54 328,-101.54 328,-113.54 328,-113.54 328,-119.54 322,-125.54 316,-125.54"/>
<text text-anchor="middle" x="301" y="-103.84" font-family="Times,serif" font-size="14.00">2</text>
</g>
<!-- M1S1&#45;&gt;M2S2 -->
<g id="edge2" class="edge">
<title>M1S1&#45;&gt;M2S2</title>
<path fill="none" stroke="black" d="M195.19,-107.54C214.83,-107.54 241.94,-107.54 263.67,-107.54"/>
<polygon fill="black" stroke="black" points="263.85,-111.04 273.85,-107.54 263.85,-104.04 263.85,-111.04"/>
<text text-anchor="middle" x="230.5" y="-111.34" font-family="Times,serif" font-size="14.00">(ε, ε)</text>
</g>
<!-- M3S1 -->
<g id="node4" class="node">
<title>M3S1</title>
<path fill="#ffffff" stroke="black" d="M562,-179.54C562,-179.54 532,-179.54 532,-179.54 526,-179.54 520,-173.54 520,-167.54 520,-167.54 520,-155.54 520,-155.54 520,-149.54 526,-143.54 532,-143.54 532,-143.54 562,-143.54 562,-143.54 568,-143.54 574,-149.54 574,-155.54 574,-155.54 574,-167.54 574,-167.54 574,-173.54 568,-179.54 562,-179.54"/>
<text text-anchor="middle" x="547" y="-157.84" font-family="Times,serif" font-size="14.00">1</text>
</g>
<!-- M2S2&#45;&gt;M3S1 -->
<g id="edge3" class="edge">
<title>M2S2&#45;&gt;M3S1</title>
<path fill="none" stroke="black" d="M328.17,-118.09C336.35,-121.11 345.47,-124.22 354,-126.54 407.35,-141.04 470.69,-151.27 509.61,-156.79"/>
<polygon fill="black" stroke="black" points="509.53,-160.31 519.91,-158.22 510.49,-153.38 509.53,-160.31"/>
<text text-anchor="middle" x="395.5" y="-147.34" font-family="Times,serif" font-size="14.00">(r2r1, r2r1)</text>
</g>
<!-- M3S3 -->
<g id="node5" class="node">
<title>M3S3</title>
<path fill="#ffffff" stroke="black" d="M562,-125.54C562,-125.54 532,-125.54 532,-125.54 526,-125.54 520,-119.54 520,-113.54 520,-113.54 520,-101.54 520,-101.54 520,-95.54 526,-89.54 532,-89.54 532,-89.54 562,-89.54 562,-89.54 568,-89.54 574,-95.54 574,-101.54 574,-101.54 574,-113.54 574,-113.54 574,-119.54 568,-125.54 562,-125.54"/>
<text text-anchor="middle" x="547" y="-103.84" font-family="Times,serif" font-size="14.00">3</text>
</g>
<!-- M2S2&#45;&gt;M3S3 -->
<g id="edge4" class="edge">
<title>M2S2&#45;&gt;M3S3</title>
<path fill="none" stroke="black" d="M328.11,-107.54C371.75,-107.54 459.6,-107.54 509.39,-107.54"/>
<polygon fill="black" stroke="black" points="509.71,-111.04 519.71,-107.54 509.71,-104.04 509.71,-111.04"/>
<text text-anchor="middle" x="395.5" y="-111.34" font-family="Times,serif" font-size="14.00">(ε, ε)</text>
</g>
<!-- M3S4 -->
<g id="node6" class="node">
<title>M3S4</title>
<path fill="#ffffff" stroke="black" d="M562,-71.54C562,-71.54 532,-71.54 532,-71.54 526,-71.54 520,-65.54 520,-59.54 520,-59.54 520,-47.54 520,-47.54 520,-41.54 526,-35.54 532,-35.54 532,-35.54 562,-35.54 562,-35.54 568,-35.54 574,-41.54 574,-47.54 574,-47.54 574,-59.54 574,-59.54 574,-65.54 568,-71.54 562,-71.54"/>
<text text-anchor="middle" x="547" y="-49.84" font-family="Times,serif" font-size="14.00">4</text>
</g>
<!-- M2S2&#45;&gt;M3S4 -->
<g id="edge5" class="edge">
<title>M2S2&#45;&gt;M3S4</title>
<path fill="none" stroke="black" d="M328.17,-96.99C336.35,-93.96 345.47,-90.86 354,-88.54 407.35,-74.04 470.69,-63.81 509.61,-58.29"/>
<polygon fill="black" stroke="black" points="510.49,-61.7 519.91,-56.86 509.53,-54.77 510.49,-61.7"/>
<text text-anchor="middle" x="395.5" y="-92.34" font-family="Times,serif" font-size="14.00">(r1, r1)</text>
</g>
<!-- M4S2 -->
<g id="node7" class="node">
<title>M4S2</title>
<path fill="#ffffff" stroke="black" d="M896,-147.54C896,-147.54 866,-147.54 866,-147.54 860,-147.54 854,-141.54 854,-135.54 854,-135.54 854,-123.54 854,-123.54 854,-117.54 860,-111.54 866,-111.54 866,-111.54 896,-111.54 896,-111.54 902,-111.54 908,-117.54 908,-123.54 908,-123.54 908,-135.54 908,-135.54 908,-141.54 902,-147.54 896,-147.54"/>
<text text-anchor="middle" x="881" y="-125.84" font-family="Times,serif" font-size="14.00">2</text>
</g>
<!-- M3S1&#45;&gt;M4S2 -->
<g id="edge6" class="edge">
<title>M3S1&#45;&gt;M4S2</title>
<path fill="none" stroke="black" d="M574.05,-159.03C632.82,-153.36 775.82,-139.58 843.43,-133.06"/>
<polygon fill="black" stroke="black" points="843.99,-136.53 853.61,-132.08 843.32,-129.56 843.99,-136.53"/>
<text text-anchor="middle" x="698.5" y="-153.34" font-family="Times,serif" font-size="14.00">(ε, r2r1)</text>
</g>
<!-- M3S3&#45;&gt;M4S2 -->
<g id="edge7" class="edge">
<title>M3S3&#45;&gt;M4S2</title>
<path fill="none" stroke="black" d="M574.05,-109.27C632.82,-113.16 775.82,-122.64 843.43,-127.12"/>
<polygon fill="black" stroke="black" points="843.4,-130.62 853.61,-127.79 843.86,-123.64 843.4,-130.62"/>
<text text-anchor="middle" x="698.5" y="-123.34" font-family="Times,serif" font-size="14.00">(r1r2, r1r2)</text>
</g>
<!-- M4S5 -->
<g id="node8" class="node">
<title>M4S5</title>
<path fill="#ffffff" stroke="black" d="M896,-93.54C896,-93.54 866,-93.54 866,-93.54 860,-93.54 854,-87.54 854,-81.54 854,-81.54 854,-69.54 854,-69.54 854,-63.54 860,-57.54 866,-57.54 866,-57.54 896,-57.54 896,-57.54 902,-57.54 908,-63.54 908,-69.54 908,-69.54 908,-81.54 908,-81.54 908,-87.54 902,-93.54 896,-93.54"/>
<text text-anchor="middle" x="881" y="-71.84" font-family="Times,serif" font-size="14.00">5</text>
</g>
<!-- M3S3&#45;&gt;M4S5 -->
<g id="edge8" class="edge">
<title>M3S3&#45;&gt;M4S5</title>
<path fill="none" stroke="black" d="M574.42,-104.48C596.48,-101.96 628.77,-98.36 657,-95.54 722.75,-88.97 799.5,-82.31 843.66,-78.57"/>
<polygon fill="black" stroke="black" points="844.22,-82.04 853.89,-77.71 843.63,-75.06 844.22,-82.04"/>
<text text-anchor="middle" x="698.5" y="-99.34" font-family="Times,serif" font-size="14.00">(r1, r1)</text>
</g>
<!-- M3S4&#45;&gt;M4S2 -->
<g id="edge9" class="edge">
<title>M3S4&#45;&gt;M4S2</title>
<path fill="none" stroke="black" d="M574.01,-47.17C614.36,-38.94 692.35,-29.9 740,-68.54 752.23,-78.46 738.42,-91.86 750,-102.54 775.13,-125.71 814.77,-131.1 843.67,-131.53"/>
<polygon fill="black" stroke="black" points="843.8,-135.03 853.79,-131.49 843.77,-128.03 843.8,-135.03"/>
<text text-anchor="middle" x="698.5" y="-72.34" font-family="Times,serif" font-size="14.00">(r2, r1r2)</text>
</g>
<!-- M3S4&#45;&gt;M4S5 -->
<g id="edge10" class="edge">
<title>M3S4&#45;&gt;M4S5</title>
<path fill="none" stroke="black" d="M574.25,-41.91C595.95,-32.97 627.82,-21.36 657,-16.54 693.4,-10.53 703.84,-9.23 740,-16.54 777.35,-24.09 817.13,-41.91 844.7,-56"/>
<polygon fill="black" stroke="black" points="843.44,-59.29 853.92,-60.81 846.67,-53.08 843.44,-59.29"/>
<text text-anchor="middle" x="698.5" y="-20.34" font-family="Times,serif" font-size="14.00">(ε, r1)</text>
</g>
<!-- M5S1 -->
<g id="node9" class="node">
<title>M5S1</title>
<path fill="#ffffff" stroke="black" d="M1668,-227.54C1668,-227.54 1638,-227.54 1638,-227.54 1632,-227.54 1626,-221.54 1626,-215.54 1626,-215.54 1626,-203.54 1626,-203.54 1626,-197.54 1632,-191.54 1638,-191.54 1638,-191.54 1668,-191.54 1668,-191.54 1674,-191.54 1680,-197.54 1680,-203.54 1680,-203.54 1680,-215.54 1680,-215.54 1680,-221.54 1674,-227.54 1668,-227.54"/>
<text text-anchor="middle" x="1653" y="-205.84" font-family="Times,serif" font-size="14.00">1</text>
</g>
<!-- M4S2&#45;&gt;M5S1 -->
<g id="edge11" class="edge">
<title>M4S2&#45;&gt;M5S1</title>
<path fill="none" stroke="black" d="M908.06,-136.29C936.22,-143.35 982.51,-154.25 1023,-160.54 1246.51,-195.26 1518.73,-205.85 1615.62,-208.65"/>
<polygon fill="black" stroke="black" points="1615.68,-212.15 1625.77,-208.93 1615.87,-205.15 1615.68,-212.15"/>
<text text-anchor="middle" x="1137.5" y="-190.34" font-family="Times,serif" font-size="14.00">(r2r1, ((r2r1)|(r1r2))|(r1r2)r2r1)</text>
</g>
<!-- M5S3 -->
<g id="node10" class="node">
<title>M5S3</title>
<path fill="#ffffff" stroke="black" d="M1668,-173.54C1668,-173.54 1638,-173.54 1638,-173.54 1632,-173.54 1626,-167.54 1626,-161.54 1626,-161.54 1626,-149.54 1626,-149.54 1626,-143.54 1632,-137.54 1638,-137.54 1638,-137.54 1668,-137.54 1668,-137.54 1674,-137.54 1680,-143.54 1680,-149.54 1680,-149.54 1680,-161.54 1680,-161.54 1680,-167.54 1674,-173.54 1668,-173.54"/>
<text text-anchor="middle" x="1653" y="-151.84" font-family="Times,serif" font-size="14.00">3</text>
</g>
<!-- M4S2&#45;&gt;M5S3 -->
<g id="edge12" class="edge">
<title>M4S2&#45;&gt;M5S3</title>
<path fill="none" stroke="black" d="M908.06,-130.42C1022.78,-134.29 1482.96,-149.83 1615.88,-154.32"/>
<polygon fill="black" stroke="black" points="1615.83,-157.82 1625.95,-154.66 1616.07,-150.82 1615.83,-157.82"/>
<text text-anchor="middle" x="1137.5" y="-145.34" font-family="Times,serif" font-size="14.00">(ε, ((r2r1)|(r1r2))|(r1r2))</text>
</g>
<!-- M5S4 -->
<g id="node11" class="node">
<title>M5S4</title>
<path fill="#ffffff" stroke="black" d="M1668,-119.54C1668,-119.54 1638,-119.54 1638,-119.54 1632,-119.54 1626,-113.54 1626,-107.54 1626,-107.54 1626,-95.54 1626,-95.54 1626,-89.54 1632,-83.54 1638,-83.54 1638,-83.54 1668,-83.54 1668,-83.54 1674,-83.54 1680,-89.54 1680,-95.54 1680,-95.54 1680,-107.54 1680,-107.54 1680,-113.54 1674,-119.54 1668,-119.54"/>
<text text-anchor="middle" x="1653" y="-97.84" font-family="Times,serif" font-size="14.00">4</text>
</g>
<!-- M4S2&#45;&gt;M5S4 -->
<g id="edge13" class="edge">
<title>M4S2&#45;&gt;M5S4</title>
<path fill="none" stroke="black" d="M908.19,-126.08C936.46,-122.5 982.83,-117.09 1023,-114.54 1248.11,-100.27 1519.34,-100.56 1615.8,-101.21"/>
<polygon fill="black" stroke="black" points="1615.88,-104.71 1625.9,-101.28 1615.93,-97.71 1615.88,-104.71"/>
<text text-anchor="middle" x="1137.5" y="-118.34" font-family="Times,serif" font-size="14.00">(r1, ((r2r1)|(r1r2))|(r1r2)r1)</text>
</g>
<!-- M5S6 -->
<g id="node12" class="node">
<title>M5S6</title>
<path fill="#ffffff" stroke="black" d="M1668,-65.54C1668,-65.54 1638,-65.54 1638,-65.54 1632,-65.54 1626,-59.54 1626,-53.54 1626,-53.54 1626,-41.54 1626,-41.54 1626,-35.54 1632,-29.54 1638,-29.54 1638,-29.54 1668,-29.54 1668,-29.54 1674,-29.54 1680,-35.54 1680,-41.54 1680,-41.54 1680,-53.54 1680,-53.54 1680,-59.54 1674,-65.54 1668,-65.54"/>
<text text-anchor="middle" x="1653" y="-43.84" font-family="Times,serif" font-size="14.00">6</text>
</g>
<!-- M4S5&#45;&gt;M5S6 -->
<g id="edge14" class="edge">
<title>M4S5&#45;&gt;M5S6</title>
<path fill="none" stroke="black" d="M908.06,-74.59C1022.78,-70.42 1482.96,-53.69 1615.88,-48.85"/>
<polygon fill="black" stroke="black" points="1616.08,-52.35 1625.95,-48.49 1615.83,-45.35 1616.08,-52.35"/>
<text text-anchor="middle" x="1137.5" y="-73.34" font-family="Times,serif" font-size="14.00">(ε, r1)</text>
</g>
<!-- M6S2 -->
<g id="node13" class="node">
<title>M6S2</title>
<path fill="#ffffff" stroke="black" d="M2896,-151.54C2896,-151.54 2866,-151.54 2866,-151.54 2860,-151.54 2854,-145.54 2854,-139.54 2854,-139.54 2854,-127.54 2854,-127.54 2854,-121.54 2860,-115.54 2866,-115.54 2866,-115.54 2896,-115.54 2896,-115.54 2902,-115.54 2908,-121.54 2908,-127.54 2908,-127.54 2908,-139.54 2908,-139.54 2908,-145.54 2902,-151.54 2896,-151.54"/>
<text text-anchor="middle" x="2881" y="-129.84" font-family="Times,serif" font-size="14.00">2</text>
</g>
<!-- M5S1&#45;&gt;M6S2 -->
<g id="edge15" class="edge">
<title>M5S1&#45;&gt;M6S2</title>
<path fill="none" stroke="black" d="M1680.09,-209.5C1766.24,-209.24 2049.41,-207.22 2283,-192.54 2496.19,-179.14 2750.97,-149.34 2843.86,-138.02"/>
<polygon fill="black" stroke="black" points="2844.37,-141.49 2853.87,-136.8 2843.52,-134.54 2844.37,-141.49"/>
<text text-anchor="middle" x="2168.5" y="-206.34" font-family="Times,serif" font-size="14.00">(ε, ((r2r1)|(r1r2))|(r1r2)r2r1)</text>
</g>
<!-- M5S3&#45;&gt;M6S2 -->
<g id="edge16" class="edge">
<title>M5S3&#45;&gt;M6S2</title>
<path fill="none" stroke="black" d="M1680.2,-156.95C1744.07,-160.31 1912.94,-168.72 2054,-171.54 2155.76,-173.57 2181.27,-174.77 2283,-171.54 2495.9,-164.77 2750.85,-144.46 2843.83,-136.65"/>
<polygon fill="black" stroke="black" points="2844.17,-140.13 2853.84,-135.8 2843.58,-133.15 2844.17,-140.13"/>
<text text-anchor="middle" x="2168.5" y="-177.34" font-family="Times,serif" font-size="14.00">(r1r2, ((r2r1)|(r1r2))|(r1r2)r1r2)</text>
</g>
<!-- M6S5 -->
<g id="node14" class="node">
<title>M6S5</title>
<path fill="#ffffff" stroke="black" d="M2896,-97.54C2896,-97.54 2866,-97.54 2866,-97.54 2860,-97.54 2854,-91.54 2854,-85.54 2854,-85.54 2854,-73.54 2854,-73.54 2854,-67.54 2860,-61.54 2866,-61.54 2866,-61.54 2896,-61.54 2896,-61.54 2902,-61.54 2908,-67.54 2908,-73.54 2908,-73.54 2908,-85.54 2908,-85.54 2908,-91.54 2902,-97.54 2896,-97.54"/>
<text text-anchor="middle" x="2881" y="-75.84" font-family="Times,serif" font-size="14.00">5</text>
</g>
<!-- M5S3&#45;&gt;M6S5 -->
<g id="edge17" class="edge">
<title>M5S3&#45;&gt;M6S5</title>
<path fill="none" stroke="black" d="M1680.25,-155.43C1796.25,-154.85 2258.23,-151.43 2283,-133.54 2293.37,-126.05 2282.67,-114.09 2293,-106.54 2464.44,18.73 2745.12,-41.85 2844.09,-68.88"/>
<polygon fill="black" stroke="black" points="2843.33,-72.3 2853.9,-71.61 2845.21,-65.56 2843.33,-72.3"/>
<text text-anchor="middle" x="2168.5" y="-153.34" font-family="Times,serif" font-size="14.00">(r1, ((r2r1)|(r1r2))|(r1r2)r1)</text>
</g>
<!-- M5S4&#45;&gt;M6S2 -->
<g id="edge18" class="edge">
<title>M5S4&#45;&gt;M6S2</title>
<path fill="none" stroke="black" d="M1680.17,-102.22C1837.79,-106.34 2659.99,-127.8 2843.61,-132.59"/>
<polygon fill="black" stroke="black" points="2843.72,-136.09 2853.81,-132.86 2843.91,-129.1 2843.72,-136.09"/>
<text text-anchor="middle" x="2168.5" y="-121.34" font-family="Times,serif" font-size="14.00">(r2, ((r2r1)|(r1r2))|(r1r2)r1r2)</text>
</g>
<!-- M5S4&#45;&gt;M6S5 -->
<g id="edge19" class="edge">
<title>M5S4&#45;&gt;M6S5</title>
<path fill="none" stroke="black" d="M1680.19,-99.7C1744.05,-95.31 1912.88,-84.33 2054,-80.54 2359.48,-72.34 2728.73,-77.1 2843.92,-78.92"/>
<polygon fill="black" stroke="black" points="2843.9,-82.42 2853.95,-79.09 2844.01,-75.42 2843.9,-82.42"/>
<text text-anchor="middle" x="2168.5" y="-84.34" font-family="Times,serif" font-size="14.00">(ε, ((r2r1)|(r1r2))|(r1r2)r1)</text>
</g>
<!-- M5S6&#45;&gt;M6S2 -->
<g id="edge20" class="edge">
<title>M5S6&#45;&gt;M6S2</title>
<path fill="none" stroke="black" d="M1680.33,-46.06C1793.63,-39.93 2236.15,-18.66 2283,-57.54 2300.1,-71.73 2276.11,-92.09 2293,-106.54 2454.88,-245.04 2743.26,-175.55 2844.04,-145.23"/>
<polygon fill="black" stroke="black" points="2845.21,-148.54 2853.75,-142.26 2843.16,-141.84 2845.21,-148.54"/>
<text text-anchor="middle" x="2168.5" y="-61.34" font-family="Times,serif" font-size="14.00">(r2r1r2, r1r2r1r2)</text>
</g>
<!-- M5S6&#45;&gt;M6S5 -->
<g id="edge21" class="edge">
<title>M5S6&#45;&gt;M6S5</title>
<path fill="none" stroke="black" d="M1680.13,-43.75C1743.86,-34.72 1912.42,-12.13 2054,-4.54 2155.63,0.91 2181.42,1.82 2283,-4.54 2496.83,-17.92 2751.22,-58 2843.94,-73.41"/>
<polygon fill="black" stroke="black" points="2843.48,-76.88 2853.92,-75.08 2844.64,-69.98 2843.48,-76.88"/>
<text text-anchor="middle" x="2168.5" y="-8.34" font-family="Times,serif" font-size="14.00">(r2r1, r1r2r1)</text>
</g>
</g>
</svg>
