<?xml version="1.0" encoding="UTF-8" standalone="no"?>
<!DOCTYPE svg PUBLIC "-//W3C//DTD SVG 1.1//EN"
 "http://www.w3.org/Graphics/SVG/1.1/DTD/svg11.dtd">
<!-- Generated by graphviz version 2.43.0 (0)
 -->
<!-- Title: EXPinput/e Pages: 1 -->
<svg width="625pt" height="704pt"
 viewBox="0.00 0.00 625.00 704.00" xmlns="http://www.w3.org/2000/svg" xmlns:xlink="http://www.w3.org/1999/xlink">
<g id="graph0" class="graph" transform="scale(1 1) rotate(0) translate(4 700)">
<title>EXPinput/e</title>
<polygon fill="white" stroke="transparent" points="-4,4 -4,-700 621,-700 621,4 -4,4"/>
<g id="clust1" class="cluster">
<title>cluster0</title>
<path fill="#eaffee" stroke="#eaffee" d="M55,-431C55,-431 77,-431 77,-431 83,-431 89,-437 89,-443 89,-443 89,-488 89,-488 89,-494 83,-500 77,-500 77,-500 55,-500 55,-500 49,-500 43,-494 43,-488 43,-488 43,-443 43,-443 43,-437 49,-431 55,-431"/>
<text text-anchor="middle" x="66" y="-484.8" font-family="Times,serif" font-size="14.00" fill="#b2ccbb">C0</text>
</g>
<g id="clust2" class="cluster">
<title>cluster1</title>
<path fill="#eaffee" stroke="#eaffee" d="M59,-337C59,-337 73,-337 73,-337 79,-337 85,-343 85,-349 85,-349 85,-386 85,-386 85,-392 79,-398 73,-398 73,-398 59,-398 59,-398 53,-398 47,-392 47,-386 47,-386 47,-349 47,-349 47,-343 53,-337 59,-337"/>
<text text-anchor="middle" x="66" y="-382.8" font-family="Times,serif" font-size="14.00" fill="#b2ccbb">C1</text>
</g>
<g id="clust3" class="cluster">
<title>cluster2</title>
<path fill="#eaffee" stroke="#eaffee" d="M114,-8C114,-8 217,-8 217,-8 223,-8 229,-14 229,-20 229,-20 229,-292 229,-292 229,-298 223,-304 217,-304 217,-304 114,-304 114,-304 108,-304 102,-298 102,-292 102,-292 102,-20 102,-20 102,-14 108,-8 114,-8"/>
<text text-anchor="middle" x="165.5" y="-288.8" font-family="Times,serif" font-size="14.00" fill="#b2ccbb">C2</text>
</g>
<g id="clust4" class="cluster">
<title>cluster3</title>
<path fill="#eaffee" stroke="#eaffee" d="M293,-337C293,-337 377,-337 377,-337 383,-337 389,-343 389,-349 389,-349 389,-582 389,-582 389,-588 383,-594 377,-594 377,-594 293,-594 293,-594 287,-594 281,-588 281,-582 281,-582 281,-349 281,-349 281,-343 287,-337 293,-337"/>
<text text-anchor="middle" x="335" y="-578.8" font-family="Times,serif" font-size="14.00" fill="#b2ccbb">C3</text>
</g>
<g id="clust5" class="cluster">
<title>cluster4</title>
<path fill="#eaffee" stroke="#eaffee" d="M152,-337C152,-337 236,-337 236,-337 242,-337 248,-343 248,-349 248,-349 248,-484 248,-484 248,-490 242,-496 236,-496 236,-496 152,-496 152,-496 146,-496 140,-490 140,-484 140,-484 140,-349 140,-349 140,-343 146,-337 152,-337"/>
<text text-anchor="middle" x="194" y="-480.8" font-family="Times,serif" font-size="14.00" fill="#b2ccbb">C4</text>
</g>
<g id="clust6" class="cluster">
<title>cluster5</title>
<path fill="#eaffee" stroke="#eaffee" d="M425,-243C425,-243 439,-243 439,-243 445,-243 451,-249 451,-255 451,-255 451,-292 451,-292 451,-298 445,-304 439,-304 439,-304 425,-304 425,-304 419,-304 413,-298 413,-292 413,-292 413,-255 413,-255 413,-249 419,-243 425,-243"/>
<text text-anchor="middle" x="432" y="-288.8" font-family="Times,serif" font-size="14.00" fill="#b2ccbb">C5</text>
</g>
<g id="clust7" class="cluster">
<title>cluster6</title>
<path fill="#eaffee" stroke="#eaffee" d="M440,-337C440,-337 543,-337 543,-337 549,-337 555,-343 555,-349 555,-349 555,-676 555,-676 555,-682 549,-688 543,-688 543,-688 440,-688 440,-688 434,-688 428,-682 428,-676 428,-676 428,-349 428,-349 428,-343 434,-337 440,-337"/>
<text text-anchor="middle" x="491.5" y="-672.8" font-family="Times,serif" font-size="14.00" fill="#b2ccbb">C6</text>
</g>
<!-- C0S0 -->
<g id="node1" class="node">
<title>C0S0</title>
<polygon fill="white" stroke="black" points="77,-449.44 77,-458.56 70.56,-465 61.44,-465 55,-458.56 55,-449.44 61.44,-443 70.56,-443 77,-449.44"/>
<polygon fill="none" stroke="black" points="81,-447.79 81,-460.21 72.21,-469 59.79,-469 51,-460.21 51,-447.79 59.79,-439 72.21,-439 81,-447.79"/>
</g>
<!-- C1S0 -->
<g id="node2" class="node">
<title>C1S0</title>
<polygon fill="white" stroke="black" points="77,-351.44 77,-360.56 70.56,-367 61.44,-367 55,-360.56 55,-351.44 61.44,-345 70.56,-345 77,-351.44"/>
</g>
<!-- C0S0&#45;&gt;C1S0 -->
<g id="edge18" class="edge">
<title>C0S0&#45;&gt;C1S0</title>
<path fill="none" stroke="black" stroke-dasharray="5,2" d="M66,-438.83C66,-422.52 66,-395.59 66,-377.11"/>
<polygon fill="black" stroke="black" points="66,-367.1 70.5,-377.1 66,-372.1 66,-377.1 66,-377.1 66,-377.1 66,-372.1 61.5,-377.1 66,-367.1 66,-367.1"/>
<text text-anchor="middle" x="82.5" y="-409.8" font-family="Times,serif" font-size="14.00">O3 ε</text>
</g>
<!-- C2S0 -->
<g id="node3" class="node">
<title>C2S0</title>
<ellipse fill="white" stroke="black" cx="157" cy="-262" rx="11" ry="11"/>
</g>
<!-- C1S0&#45;&gt;C2S0 -->
<g id="edge19" class="edge">
<title>C1S0&#45;&gt;C2S0</title>
<path fill="none" stroke="black" stroke-dasharray="5,2" d="M69.53,-344.97C73.14,-335.7 79.44,-321.89 88,-312 102.35,-295.41 123.43,-281.5 138.51,-272.8"/>
<polygon fill="black" stroke="black" points="147.42,-267.85 140.86,-276.64 143.05,-270.27 138.68,-272.7 138.68,-272.7 138.68,-272.7 143.05,-270.27 136.49,-268.77 147.42,-267.85 147.42,-267.85"/>
<text text-anchor="middle" x="104.5" y="-315.8" font-family="Times,serif" font-size="14.00">O2 ε</text>
</g>
<!-- C2S1 -->
<g id="node4" class="node">
<title>C2S1</title>
<polygon fill="white" stroke="black" points="197,-180.44 197,-189.56 190.56,-196 181.44,-196 175,-189.56 175,-180.44 181.44,-174 190.56,-174 197,-180.44"/>
<polygon fill="none" stroke="black" points="201,-178.79 201,-191.21 192.21,-200 179.79,-200 171,-191.21 171,-178.79 179.79,-170 192.21,-170 201,-178.79"/>
</g>
<!-- C2S0&#45;&gt;C2S1 -->
<g id="edge2" class="edge">
<title>C2S0&#45;&gt;C2S1</title>
<path fill="none" stroke="darkgray" d="M160.67,-251.5C164.72,-241.03 171.38,-223.81 176.86,-209.64"/>
<polygon fill="darkgray" stroke="darkgray" points="180.24,-210.6 180.58,-200.01 173.71,-208.08 180.24,-210.6"/>
<text text-anchor="middle" x="181" y="-221.8" font-family="Times,serif" font-size="14.00" fill="darkgray">t4</text>
</g>
<!-- C2S3 -->
<g id="node6" class="node">
<title>C2S3</title>
<polygon fill="white" stroke="black" points="139,-180.44 139,-189.56 132.56,-196 123.44,-196 117,-189.56 117,-180.44 123.44,-174 132.56,-174 139,-180.44"/>
<polygon fill="none" stroke="black" points="143,-178.79 143,-191.21 134.21,-200 121.79,-200 113,-191.21 113,-178.79 121.79,-170 134.21,-170 143,-178.79"/>
</g>
<!-- C2S0&#45;&gt;C2S3 -->
<g id="edge1" class="edge">
<title>C2S0&#45;&gt;C2S3</title>
<path fill="none" stroke="darkgray" d="M148.12,-255.05C141.49,-250.04 132.94,-242.23 129,-233 126,-225.96 125.06,-217.77 125.08,-210.22"/>
<polygon fill="darkgray" stroke="darkgray" points="128.58,-210.32 125.62,-200.15 121.59,-209.94 128.58,-210.32"/>
<text text-anchor="middle" x="146.5" y="-221.8" font-family="Times,serif" font-size="14.00" fill="darkgray">t5R2</text>
</g>
<!-- C2S2 -->
<g id="node5" class="node">
<title>C2S2</title>
<polygon fill="white" stroke="black" points="209,-103.44 209,-112.56 202.56,-119 193.44,-119 187,-112.56 187,-103.44 193.44,-97 202.56,-97 209,-103.44"/>
</g>
<!-- C2S1&#45;&gt;C2S2 -->
<g id="edge3" class="edge">
<title>C2S1&#45;&gt;C2S2</title>
<path fill="none" stroke="darkgray" d="M188.26,-169.89C190.08,-158.47 192.68,-142.23 194.74,-129.39"/>
<polygon fill="darkgray" stroke="darkgray" points="198.24,-129.62 196.37,-119.2 191.33,-128.52 198.24,-129.62"/>
<text text-anchor="middle" x="210.5" y="-140.8" font-family="Times,serif" font-size="14.00" fill="darkgray">t2R1</text>
</g>
<!-- C3S0 -->
<g id="node10" class="node">
<title>C3S0</title>
<ellipse fill="white" stroke="black" cx="303" cy="-552" rx="11" ry="11"/>
</g>
<!-- C2S1&#45;&gt;C3S0 -->
<g id="edge21" class="edge">
<title>C2S1&#45;&gt;C3S0</title>
<path fill="none" stroke="black" stroke-dasharray="5,2" d="M171.45,-192.02C165.44,-194.51 158.39,-197.4 152,-200 84.57,-227.41 0,-188.21 0,-261 0,-455 0,-455 0,-455 0,-481.47 16.08,-486.76 39,-500 119.48,-546.48 234.45,-551.51 281.59,-551.45"/>
<polygon fill="black" stroke="black" points="291.81,-551.35 281.85,-555.95 286.81,-551.4 281.81,-551.45 281.81,-551.45 281.81,-551.45 286.81,-551.4 281.77,-546.95 291.81,-551.35 291.81,-551.35"/>
<text text-anchor="middle" x="16.5" y="-352.3" font-family="Times,serif" font-size="14.00">O3 ε</text>
</g>
<!-- C4S0 -->
<g id="node14" class="node">
<title>C4S0</title>
<ellipse fill="white" stroke="black" cx="224" cy="-454" rx="11" ry="11"/>
</g>
<!-- C2S2&#45;&gt;C4S0 -->
<g id="edge23" class="edge">
<title>C2S2&#45;&gt;C4S0</title>
<path fill="none" stroke="black" stroke-dasharray="5,2" d="M207.59,-114.18C225.67,-124.74 263,-150.57 263,-184 263,-357 263,-357 263,-357 263,-386.41 247.09,-417.41 235.6,-435.98"/>
<polygon fill="black" stroke="black" points="230.09,-444.48 231.75,-433.64 232.81,-440.28 235.53,-436.08 235.53,-436.08 235.53,-436.08 232.81,-440.28 239.31,-438.53 230.09,-444.48 230.09,-444.48"/>
<text text-anchor="middle" x="283.5" y="-258.3" font-family="Times,serif" font-size="14.00">O3 r1</text>
</g>
<!-- C2S4 -->
<g id="node7" class="node">
<title>C2S4</title>
<ellipse fill="white" stroke="black" cx="128" cy="-108" rx="11" ry="11"/>
</g>
<!-- C2S3&#45;&gt;C2S4 -->
<g id="edge4" class="edge">
<title>C2S3&#45;&gt;C2S4</title>
<path fill="none" stroke="darkgray" d="M128,-169.89C128,-158.47 128,-142.23 128,-129.39"/>
<polygon fill="darkgray" stroke="darkgray" points="131.5,-129.2 128,-119.2 124.5,-129.2 131.5,-129.2"/>
<text text-anchor="middle" x="145.5" y="-140.8" font-family="Times,serif" font-size="14.00" fill="darkgray">t2R1</text>
</g>
<!-- C2S5 -->
<g id="node8" class="node">
<title>C2S5</title>
<polygon fill="white" stroke="black" points="136,-26.44 136,-35.56 129.56,-42 120.44,-42 114,-35.56 114,-26.44 120.44,-20 129.56,-20 136,-26.44"/>
<polygon fill="none" stroke="black" points="140,-24.79 140,-37.21 131.21,-46 118.79,-46 110,-37.21 110,-24.79 118.79,-16 131.21,-16 140,-24.79"/>
</g>
<!-- C2S4&#45;&gt;C2S5 -->
<g id="edge6" class="edge">
<title>C2S4&#45;&gt;C2S5</title>
<path fill="none" stroke="darkgray" d="M127.6,-96.89C127.18,-86.54 126.52,-70.07 125.97,-56.32"/>
<polygon fill="darkgray" stroke="darkgray" points="129.46,-55.89 125.56,-46.04 122.46,-56.17 129.46,-55.89"/>
<text text-anchor="middle" x="134" y="-67.8" font-family="Times,serif" font-size="14.00" fill="darkgray">t4</text>
</g>
<!-- C2S6 -->
<g id="node9" class="node">
<title>C2S6</title>
<polygon fill="white" stroke="black" points="184,-26.44 184,-35.56 177.56,-42 168.44,-42 162,-35.56 162,-26.44 168.44,-20 177.56,-20 184,-26.44"/>
<polygon fill="none" stroke="black" points="188,-24.79 188,-37.21 179.21,-46 166.79,-46 158,-37.21 158,-24.79 166.79,-16 179.21,-16 188,-24.79"/>
</g>
<!-- C2S4&#45;&gt;C2S6 -->
<g id="edge5" class="edge">
<title>C2S4&#45;&gt;C2S6</title>
<path fill="none" stroke="darkgray" d="M133.79,-98.24C137.37,-92.76 142.04,-85.52 146,-79 150.92,-70.91 156.14,-61.92 160.67,-53.98"/>
<polygon fill="darkgray" stroke="darkgray" points="163.72,-55.7 165.61,-45.27 157.63,-52.25 163.72,-55.7"/>
<text text-anchor="middle" x="171.5" y="-67.8" font-family="Times,serif" font-size="14.00" fill="darkgray">t5R2</text>
</g>
<!-- C2S5&#45;&gt;C1S0 -->
<g id="edge20" class="edge">
<title>C2S5&#45;&gt;C1S0</title>
<path fill="none" stroke="black" stroke-dasharray="5,2" d="M109.85,-37.13C84.92,-46.64 38,-69.51 38,-107 38,-263 38,-263 38,-263 38,-289.22 48.54,-317.89 56.68,-336.14"/>
<polygon fill="black" stroke="black" points="60.99,-345.36 52.68,-338.21 58.88,-340.83 56.76,-336.3 56.76,-336.3 56.76,-336.3 58.88,-340.83 60.83,-334.39 60.99,-345.36 60.99,-345.36"/>
<text text-anchor="middle" x="66.5" y="-181.3" font-family="Times,serif" font-size="14.00">O3 r2r1</text>
</g>
<!-- C3S1 -->
<g id="node11" class="node">
<title>C3S1</title>
<ellipse fill="white" stroke="black" cx="307" cy="-454" rx="11" ry="11"/>
</g>
<!-- C3S0&#45;&gt;C3S1 -->
<g id="edge7" class="edge">
<title>C3S0&#45;&gt;C3S1</title>
<path fill="none" stroke="darkgray" d="M303.43,-540.73C304.07,-525.21 305.31,-495.48 306.15,-475.44"/>
<polygon fill="darkgray" stroke="darkgray" points="309.66,-475.34 306.58,-465.2 302.66,-475.05 309.66,-475.34"/>
<text text-anchor="middle" x="321.5" y="-511.8" font-family="Times,serif" font-size="14.00" fill="darkgray">t2R1</text>
</g>
<!-- C3S2 -->
<g id="node12" class="node">
<title>C3S2</title>
<polygon fill="white" stroke="black" points="369,-351.44 369,-360.56 362.56,-367 353.44,-367 347,-360.56 347,-351.44 353.44,-345 362.56,-345 369,-351.44"/>
</g>
<!-- C3S1&#45;&gt;C3S2 -->
<g id="edge9" class="edge">
<title>C3S1&#45;&gt;C3S2</title>
<path fill="none" stroke="darkgray" d="M316.13,-447.3C324.42,-441.64 336.32,-432.21 343,-421 350.94,-407.67 354.68,-390.45 356.44,-377.23"/>
<polygon fill="darkgray" stroke="darkgray" points="359.92,-377.56 357.5,-367.24 352.96,-376.82 359.92,-377.56"/>
<text text-anchor="middle" x="357" y="-409.8" font-family="Times,serif" font-size="14.00" fill="darkgray">t4</text>
</g>
<!-- C3S3 -->
<g id="node13" class="node">
<title>C3S3</title>
<polygon fill="white" stroke="black" points="316,-351.44 316,-360.56 309.56,-367 300.44,-367 294,-360.56 294,-351.44 300.44,-345 309.56,-345 316,-351.44"/>
</g>
<!-- C3S1&#45;&gt;C3S3 -->
<g id="edge8" class="edge">
<title>C3S1&#45;&gt;C3S3</title>
<path fill="none" stroke="darkgray" d="M306.79,-442.73C306.46,-427.21 305.84,-397.48 305.43,-377.44"/>
<polygon fill="darkgray" stroke="darkgray" points="308.92,-377.12 305.21,-367.2 301.92,-377.27 308.92,-377.12"/>
<text text-anchor="middle" x="323.5" y="-409.8" font-family="Times,serif" font-size="14.00" fill="darkgray">t5R2</text>
</g>
<!-- C5S0 -->
<g id="node17" class="node">
<title>C5S0</title>
<polygon fill="white" stroke="black" points="443,-257.44 443,-266.56 436.56,-273 427.44,-273 421,-266.56 421,-257.44 427.44,-251 436.56,-251 443,-257.44"/>
</g>
<!-- C3S2&#45;&gt;C5S0 -->
<g id="edge26" class="edge">
<title>C3S2&#45;&gt;C5S0</title>
<path fill="none" stroke="black" stroke-dasharray="5,2" d="M353.57,-344.78C350.32,-335.62 347.37,-322.11 353,-312 365.32,-289.87 392.22,-276.46 411.2,-269.39"/>
<polygon fill="black" stroke="black" points="420.78,-266.1 412.79,-273.6 416.05,-267.73 411.33,-269.35 411.33,-269.35 411.33,-269.35 416.05,-267.73 409.87,-265.09 420.78,-266.1 420.78,-266.1"/>
<text text-anchor="middle" x="373.5" y="-315.8" font-family="Times,serif" font-size="14.00">O2 r1</text>
</g>
<!-- C3S3&#45;&gt;C2S0 -->
<g id="edge22" class="edge">
<title>C3S3&#45;&gt;C2S0</title>
<path fill="none" stroke="black" stroke-dasharray="5,2" d="M294.09,-351.12C283.41,-347.36 266.66,-341.58 252,-337 236.56,-332.18 230.81,-335.43 217,-327 197.19,-314.91 179.71,-294.54 168.8,-280.03"/>
<polygon fill="black" stroke="black" points="162.89,-271.88 172.4,-277.33 165.83,-275.92 168.76,-279.97 168.76,-279.97 168.76,-279.97 165.83,-275.92 165.11,-282.61 162.89,-271.88 162.89,-271.88"/>
<text text-anchor="middle" x="245.5" y="-315.8" font-family="Times,serif" font-size="14.00">O2 r1r2</text>
</g>
<!-- C4S1 -->
<g id="node15" class="node">
<title>C4S1</title>
<polygon fill="white" stroke="black" points="235,-351.44 235,-360.56 228.56,-367 219.44,-367 213,-360.56 213,-351.44 219.44,-345 228.56,-345 235,-351.44"/>
</g>
<!-- C4S0&#45;&gt;C4S1 -->
<g id="edge11" class="edge">
<title>C4S0&#45;&gt;C4S1</title>
<path fill="none" stroke="darkgray" d="M224,-442.73C224,-427.21 224,-397.48 224,-377.44"/>
<polygon fill="darkgray" stroke="darkgray" points="227.5,-377.2 224,-367.2 220.5,-377.2 227.5,-377.2"/>
<text text-anchor="middle" x="232" y="-409.8" font-family="Times,serif" font-size="14.00" fill="darkgray">t4</text>
</g>
<!-- C4S2 -->
<g id="node16" class="node">
<title>C4S2</title>
<polygon fill="white" stroke="black" points="173,-351.44 173,-360.56 166.56,-367 157.44,-367 151,-360.56 151,-351.44 157.44,-345 166.56,-345 173,-351.44"/>
</g>
<!-- C4S0&#45;&gt;C4S2 -->
<g id="edge10" class="edge">
<title>C4S0&#45;&gt;C4S2</title>
<path fill="none" stroke="darkgray" d="M214.74,-447.49C205.96,-441.85 192.98,-432.31 185,-421 175.75,-407.88 169.84,-390.65 166.33,-377.37"/>
<polygon fill="darkgray" stroke="darkgray" points="169.65,-376.24 163.92,-367.33 162.85,-377.87 169.65,-376.24"/>
<text text-anchor="middle" x="202.5" y="-409.8" font-family="Times,serif" font-size="14.00" fill="darkgray">t5R2</text>
</g>
<!-- C4S1&#45;&gt;C5S0 -->
<g id="edge25" class="edge">
<title>C4S1&#45;&gt;C5S0</title>
<path fill="none" stroke="black" stroke-dasharray="5,2" d="M233.67,-350.01C249.76,-341.77 283.14,-324.93 312,-312 346.71,-296.46 387.88,-280.08 411.86,-270.75"/>
<polygon fill="black" stroke="black" points="421.3,-267.09 413.6,-274.9 416.64,-268.9 411.98,-270.7 411.98,-270.7 411.98,-270.7 416.64,-268.9 410.35,-266.51 421.3,-267.09 421.3,-267.09"/>
<text text-anchor="middle" x="328.5" y="-315.8" font-family="Times,serif" font-size="14.00">O2 ε</text>
</g>
<!-- C4S2&#45;&gt;C2S0 -->
<g id="edge24" class="edge">
<title>C4S2&#45;&gt;C2S0</title>
<path fill="none" stroke="black" stroke-dasharray="5,2" d="M152.18,-350.1C144.02,-345.41 132.96,-337.51 128,-327 120.06,-310.17 131.88,-290.67 142.74,-277.65"/>
<polygon fill="black" stroke="black" points="149.51,-270.14 146.16,-280.58 146.16,-273.85 142.82,-277.57 142.82,-277.57 142.82,-277.57 146.16,-273.85 139.47,-274.55 149.51,-270.14 149.51,-270.14"/>
<text text-anchor="middle" x="148.5" y="-315.8" font-family="Times,serif" font-size="14.00">O2 r2</text>
</g>
<!-- C6S0 -->
<g id="node18" class="node">
<title>C6S0</title>
<ellipse fill="white" stroke="black" cx="512" cy="-646" rx="11" ry="11"/>
</g>
<!-- C5S0&#45;&gt;C6S0 -->
<g id="edge27" class="edge">
<title>C5S0&#45;&gt;C6S0</title>
<path fill="none" stroke="black" stroke-dasharray="5,2" d="M443.42,-264.35C478.77,-269.24 584,-289.3 584,-355 584,-553 584,-553 584,-553 584,-585 571.91,-592.77 551,-617 545.16,-623.77 537.37,-629.78 530.28,-634.48"/>
<polygon fill="black" stroke="black" points="521.31,-640.03 527.45,-630.94 525.57,-637.4 529.82,-634.77 529.82,-634.77 529.82,-634.77 525.57,-637.4 532.19,-638.59 521.31,-640.03 521.31,-640.03"/>
<text text-anchor="middle" x="600.5" y="-450.3" font-family="Times,serif" font-size="14.00">O3 ε</text>
</g>
<!-- C6S1 -->
<g id="node19" class="node">
<title>C6S1</title>
<ellipse fill="white" stroke="black" cx="463" cy="-552" rx="11" ry="11"/>
</g>
<!-- C6S0&#45;&gt;C6S1 -->
<g id="edge13" class="edge">
<title>C6S0&#45;&gt;C6S1</title>
<path fill="none" stroke="darkgray" d="M505.61,-636.95C501.45,-631.5 496.06,-624.04 492,-617 483.64,-602.49 475.9,-585.13 470.53,-572.16"/>
<polygon fill="darkgray" stroke="darkgray" points="473.75,-570.79 466.76,-562.83 467.26,-573.42 473.75,-570.79"/>
<text text-anchor="middle" x="500" y="-605.8" font-family="Times,serif" font-size="14.00" fill="darkgray">t4</text>
</g>
<!-- C6S3 -->
<g id="node21" class="node">
<title>C6S3</title>
<ellipse fill="white" stroke="black" cx="512" cy="-552" rx="11" ry="11"/>
</g>
<!-- C6S0&#45;&gt;C6S3 -->
<g id="edge12" class="edge">
<title>C6S0&#45;&gt;C6S3</title>
<path fill="none" stroke="darkgray" d="M512,-634.8C512,-620.02 512,-592.33 512,-573.29"/>
<polygon fill="darkgray" stroke="darkgray" points="515.5,-573.24 512,-563.24 508.5,-573.24 515.5,-573.24"/>
<text text-anchor="middle" x="529.5" y="-605.8" font-family="Times,serif" font-size="14.00" fill="darkgray">t5R2</text>
</g>
<!-- C6S2 -->
<g id="node20" class="node">
<title>C6S2</title>
<ellipse fill="white" stroke="black" cx="454" cy="-454" rx="11" ry="11"/>
</g>
<!-- C6S1&#45;&gt;C6S2 -->
<g id="edge14" class="edge">
<title>C6S1&#45;&gt;C6S2</title>
<path fill="none" stroke="darkgray" d="M462.04,-540.73C460.58,-525.14 457.77,-495.2 455.89,-475.16"/>
<polygon fill="darkgray" stroke="darkgray" points="459.37,-474.83 454.96,-465.2 452.41,-475.48 459.37,-474.83"/>
<text text-anchor="middle" x="477.5" y="-511.8" font-family="Times,serif" font-size="14.00" fill="darkgray">t2R1</text>
</g>
<!-- C6S4 -->
<g id="node22" class="node">
<title>C6S4</title>
<ellipse fill="white" stroke="black" cx="512" cy="-454" rx="11" ry="11"/>
</g>
<!-- C6S3&#45;&gt;C6S4 -->
<g id="edge15" class="edge">
<title>C6S3&#45;&gt;C6S4</title>
<path fill="none" stroke="darkgray" d="M512,-540.73C512,-525.21 512,-495.48 512,-475.44"/>
<polygon fill="darkgray" stroke="darkgray" points="515.5,-475.2 512,-465.2 508.5,-475.2 515.5,-475.2"/>
<text text-anchor="middle" x="529.5" y="-511.8" font-family="Times,serif" font-size="14.00" fill="darkgray">t2R1</text>
</g>
<!-- C6S5 -->
<g id="node23" class="node">
<title>C6S5</title>
<polygon fill="white" stroke="black" points="523,-351.44 523,-360.56 516.56,-367 507.44,-367 501,-360.56 501,-351.44 507.44,-345 516.56,-345 523,-351.44"/>
</g>
<!-- C6S4&#45;&gt;C6S5 -->
<g id="edge17" class="edge">
<title>C6S4&#45;&gt;C6S5</title>
<path fill="none" stroke="darkgray" d="M512,-442.73C512,-427.21 512,-397.48 512,-377.44"/>
<polygon fill="darkgray" stroke="darkgray" points="515.5,-377.2 512,-367.2 508.5,-377.2 515.5,-377.2"/>
<text text-anchor="middle" x="520" y="-409.8" font-family="Times,serif" font-size="14.00" fill="darkgray">t4</text>
</g>
<!-- C6S6 -->
<g id="node24" class="node">
<title>C6S6</title>
<polygon fill="white" stroke="black" points="462,-351.44 462,-360.56 455.56,-367 446.44,-367 440,-360.56 440,-351.44 446.44,-345 455.56,-345 462,-351.44"/>
</g>
<!-- C6S4&#45;&gt;C6S6 -->
<g id="edge16" class="edge">
<title>C6S4&#45;&gt;C6S6</title>
<path fill="none" stroke="darkgray" d="M502.7,-447.52C493.9,-441.89 480.9,-432.36 473,-421 463.88,-407.88 458.25,-390.65 454.96,-377.37"/>
<polygon fill="darkgray" stroke="darkgray" points="458.32,-376.33 452.73,-367.33 451.48,-377.85 458.32,-376.33"/>
<text text-anchor="middle" x="490.5" y="-409.8" font-family="Times,serif" font-size="14.00" fill="darkgray">t5R2</text>
</g>
<!-- C6S5&#45;&gt;C5S0 -->
<g id="edge29" class="edge">
<title>C6S5&#45;&gt;C5S0</title>
<path fill="none" stroke="black" stroke-dasharray="5,2" d="M508.13,-344.78C504.36,-335.62 498.03,-322.11 490,-312 478.26,-297.21 461.5,-283.63 449.01,-274.54"/>
<polygon fill="black" stroke="black" points="440.81,-268.76 451.57,-270.84 444.9,-271.64 448.98,-274.52 448.98,-274.52 448.98,-274.52 444.9,-271.64 446.39,-278.2 440.81,-268.76 440.81,-268.76"/>
<text text-anchor="middle" x="527.5" y="-315.8" font-family="Times,serif" font-size="14.00">O2 r2r1</text>
</g>
<!-- C6S6&#45;&gt;C2S0 -->
<g id="edge28" class="edge">
<title>C6S6&#45;&gt;C2S0</title>
<path fill="none" stroke="black" stroke-dasharray="5,2" d="M442.49,-348.85C434.75,-343.23 423.03,-334.65 413,-327 404.45,-320.47 404.07,-315.79 394,-312 362.14,-300 273.96,-312.53 241,-304 216.57,-297.68 190.83,-283.91 174.38,-274.08"/>
<polygon fill="black" stroke="black" points="165.85,-268.82 176.73,-270.23 170.11,-271.45 174.37,-274.07 174.37,-274.07 174.37,-274.07 170.11,-271.45 172.01,-277.9 165.85,-268.82 165.85,-268.82"/>
<text text-anchor="middle" x="449.5" y="-315.8" font-family="Times,serif" font-size="14.00">O2 r2r1r2</text>
</g>
</g>
</svg>
