<?xml version="1.0" encoding="UTF-8" standalone="no"?>
<!DOCTYPE svg PUBLIC "-//W3C//DTD SVG 1.1//EN"
 "http://www.w3.org/Graphics/SVG/1.1/DTD/svg11.dtd">
<!-- Generated by graphviz version 2.43.0 (0)
 -->
<!-- Title: EXPinput/e Pages: 1 -->
<svg width="291pt" height="696pt"
 viewBox="0.00 0.00 291.00 696.00" xmlns="http://www.w3.org/2000/svg" xmlns:xlink="http://www.w3.org/1999/xlink">
<g id="graph0" class="graph" transform="scale(1 1) rotate(0) translate(4 692)">
<title>EXPinput/e</title>
<polygon fill="white" stroke="transparent" points="-4,4 -4,-692 287,-692 287,4 -4,4"/>
<g id="clust1" class="cluster">
<title>cluster0</title>
<path fill="#eaffee" stroke="#eaffee" d="M61,-102C61,-102 83,-102 83,-102 89,-102 95,-108 95,-114 95,-114 95,-159 95,-159 95,-165 89,-171 83,-171 83,-171 61,-171 61,-171 55,-171 49,-165 49,-159 49,-159 49,-114 49,-114 49,-108 55,-102 61,-102"/>
<text text-anchor="middle" x="72" y="-155.8" font-family="Times,serif" font-size="14.00" fill="#b2ccbb">C0</text>
</g>
<g id="clust2" class="cluster">
<title>cluster1</title>
<path fill="#eaffee" stroke="#eaffee" d="M121,-8C121,-8 135,-8 135,-8 141,-8 147,-14 147,-20 147,-20 147,-57 147,-57 147,-63 141,-69 135,-69 135,-69 121,-69 121,-69 115,-69 109,-63 109,-57 109,-57 109,-20 109,-20 109,-14 115,-8 121,-8"/>
<text text-anchor="middle" x="128" y="-53.8" font-family="Times,serif" font-size="14.00" fill="#b2ccbb">C1</text>
</g>
<g id="clust3" class="cluster">
<title>cluster2</title>
<path fill="#eaffee" stroke="#eaffee" d="M115,-102C115,-102 192,-102 192,-102 198,-102 204,-108 204,-114 204,-114 204,-407 204,-407 204,-413 198,-419 192,-419 192,-419 115,-419 115,-419 109,-419 103,-413 103,-407 103,-407 103,-114 103,-114 103,-108 109,-102 115,-102"/>
<text text-anchor="middle" x="153.5" y="-403.8" font-family="Times,serif" font-size="14.00" fill="#b2ccbb">C2</text>
</g>
<g id="clust4" class="cluster">
<title>cluster3</title>
<path fill="#eaffee" stroke="#eaffee" d="M145,-452C145,-452 215,-452 215,-452 221,-452 227,-458 227,-464 227,-464 227,-668 227,-668 227,-674 221,-680 215,-680 215,-680 145,-680 145,-680 139,-680 133,-674 133,-668 133,-668 133,-464 133,-464 133,-458 139,-452 145,-452"/>
<text text-anchor="middle" x="180" y="-664.8" font-family="Times,serif" font-size="14.00" fill="#b2ccbb">C3</text>
</g>
<g id="clust5" class="cluster">
<title>cluster4</title>
<path fill="#eaffee" stroke="#eaffee" d="M25,-452C25,-452 95,-452 95,-452 101,-452 107,-458 107,-464 107,-464 107,-574 107,-574 107,-580 101,-586 95,-586 95,-586 25,-586 25,-586 19,-586 13,-580 13,-574 13,-574 13,-464 13,-464 13,-458 19,-452 25,-452"/>
<text text-anchor="middle" x="60" y="-570.8" font-family="Times,serif" font-size="14.00" fill="#b2ccbb">C4</text>
</g>
<g id="clust6" class="cluster">
<title>cluster5</title>
<path fill="#eaffee" stroke="#eaffee" d="M64,-358C64,-358 78,-358 78,-358 84,-358 90,-364 90,-370 90,-370 90,-407 90,-407 90,-413 84,-419 78,-419 78,-419 64,-419 64,-419 58,-419 52,-413 52,-407 52,-407 52,-370 52,-370 52,-364 58,-358 64,-358"/>
<text text-anchor="middle" x="71" y="-403.8" font-family="Times,serif" font-size="14.00" fill="#b2ccbb">C5</text>
</g>
<!-- C0S0 -->
<g id="node1" class="node">
<title>C0S0</title>
<polygon fill="white" stroke="black" points="83,-120.44 83,-129.56 76.56,-136 67.44,-136 61,-129.56 61,-120.44 67.44,-114 76.56,-114 83,-120.44"/>
<polygon fill="none" stroke="black" points="87,-118.79 87,-131.21 78.21,-140 65.79,-140 57,-131.21 57,-118.79 65.79,-110 78.21,-110 87,-118.79"/>
</g>
<!-- C1S0 -->
<g id="node2" class="node">
<title>C1S0</title>
<polygon fill="white" stroke="black" points="139,-22.44 139,-31.56 132.56,-38 123.44,-38 117,-31.56 117,-22.44 123.44,-16 132.56,-16 139,-22.44"/>
</g>
<!-- C0S0&#45;&gt;C1S0 -->
<g id="edge12" class="edge">
<title>C0S0&#45;&gt;C1S0</title>
<path fill="none" stroke="black" stroke-dasharray="5,2" d="M76.57,-109.98C79.96,-100.4 85.01,-87.57 91,-77 97.69,-65.19 106.88,-53.01 114.42,-43.75"/>
<polygon fill="black" stroke="black" points="121.02,-35.87 118.05,-46.42 117.81,-39.7 114.6,-43.53 114.6,-43.53 114.6,-43.53 117.81,-39.7 111.15,-40.65 121.02,-35.87 121.02,-35.87"/>
<text text-anchor="middle" x="107.5" y="-80.8" font-family="Times,serif" font-size="14.00">O3 ε</text>
</g>
<!-- C2S0 -->
<g id="node3" class="node">
<title>C2S0</title>
<ellipse fill="white" stroke="black" cx="175" cy="-377" rx="11" ry="11"/>
</g>
<!-- C1S0&#45;&gt;C2S0 -->
<g id="edge13" class="edge">
<title>C1S0&#45;&gt;C2S0</title>
<path fill="none" stroke="black" stroke-dasharray="5,2" d="M138.09,-32.65C161.78,-44.33 219,-77.38 219,-124 219,-301 219,-301 219,-301 219,-324.72 202.42,-347.59 189.61,-361.7"/>
<polygon fill="black" stroke="black" points="182.66,-368.94 186.34,-358.61 186.13,-365.34 189.59,-361.73 189.59,-361.73 189.59,-361.73 186.13,-365.34 192.83,-364.84 182.66,-368.94 182.66,-368.94"/>
<text text-anchor="middle" x="235.5" y="-219.3" font-family="Times,serif" font-size="14.00">O2 ε</text>
</g>
<!-- C2S1 -->
<g id="node4" class="node">
<title>C2S1</title>
<polygon fill="white" stroke="black" points="139,-295.44 139,-304.56 132.56,-311 123.44,-311 117,-304.56 117,-295.44 123.44,-289 132.56,-289 139,-295.44"/>
<polygon fill="none" stroke="black" points="143,-293.79 143,-306.21 134.21,-315 121.79,-315 113,-306.21 113,-293.79 121.79,-285 134.21,-285 143,-293.79"/>
</g>
<!-- C2S0&#45;&gt;C2S1 -->
<g id="edge2" class="edge">
<title>C2S0&#45;&gt;C2S1</title>
<path fill="none" stroke="darkgray" d="M168.83,-367.82C164.76,-362.31 159.39,-354.84 155,-348 149.88,-340.03 144.62,-331.07 140.11,-323.12"/>
<polygon fill="darkgray" stroke="darkgray" points="143.16,-321.4 135.22,-314.38 137.05,-324.81 143.16,-321.4"/>
<text text-anchor="middle" x="163" y="-336.8" font-family="Times,serif" font-size="14.00" fill="darkgray">t4</text>
</g>
<!-- C2S3 -->
<g id="node6" class="node">
<title>C2S3</title>
<polygon fill="white" stroke="black" points="187,-295.44 187,-304.56 180.56,-311 171.44,-311 165,-304.56 165,-295.44 171.44,-289 180.56,-289 187,-295.44"/>
<polygon fill="none" stroke="black" points="191,-293.79 191,-306.21 182.21,-315 169.79,-315 161,-306.21 161,-293.79 169.79,-285 182.21,-285 191,-293.79"/>
</g>
<!-- C2S0&#45;&gt;C2S3 -->
<g id="edge1" class="edge">
<title>C2S0&#45;&gt;C2S3</title>
<path fill="none" stroke="darkgray" d="M175.13,-365.89C175.27,-355.54 175.49,-339.07 175.68,-325.32"/>
<polygon fill="darkgray" stroke="darkgray" points="179.18,-325.08 175.81,-315.04 172.18,-324.99 179.18,-325.08"/>
<text text-anchor="middle" x="185.5" y="-336.8" font-family="Times,serif" font-size="14.00" fill="darkgray">t5f</text>
</g>
<!-- C2S2 -->
<g id="node5" class="node">
<title>C2S2</title>
<polygon fill="white" stroke="black" points="137,-218.44 137,-227.56 130.56,-234 121.44,-234 115,-227.56 115,-218.44 121.44,-212 130.56,-212 137,-218.44"/>
</g>
<!-- C2S1&#45;&gt;C2S2 -->
<g id="edge3" class="edge">
<title>C2S1&#45;&gt;C2S2</title>
<path fill="none" stroke="darkgray" d="M127.62,-284.89C127.32,-273.47 126.89,-257.23 126.54,-244.39"/>
<polygon fill="darkgray" stroke="darkgray" points="130.04,-244.1 126.27,-234.2 123.04,-244.29 130.04,-244.1"/>
<text text-anchor="middle" x="138" y="-255.8" font-family="Times,serif" font-size="14.00" fill="darkgray">t2r</text>
</g>
<!-- C3S0 -->
<g id="node10" class="node">
<title>C3S0</title>
<ellipse fill="white" stroke="black" cx="202" cy="-638" rx="11" ry="11"/>
</g>
<!-- C2S1&#45;&gt;C3S0 -->
<g id="edge15" class="edge">
<title>C2S1&#45;&gt;C3S0</title>
<path fill="none" stroke="black" stroke-dasharray="5,2" d="M140.49,-308.82C144.13,-310.96 148.17,-313.18 152,-315 198.34,-337.01 250,-324.7 250,-376 250,-545 250,-545 250,-545 250,-575.38 241.45,-582.85 226,-609 223.29,-613.58 219.81,-618.14 216.35,-622.21"/>
<polygon fill="black" stroke="black" points="209.51,-629.72 212.92,-619.29 212.88,-626.02 216.24,-622.32 216.24,-622.32 216.24,-622.32 212.88,-626.02 219.57,-625.35 209.51,-629.72 209.51,-629.72"/>
<text text-anchor="middle" x="266.5" y="-467.3" font-family="Times,serif" font-size="14.00">O3 ε</text>
</g>
<!-- C4S0 -->
<g id="node14" class="node">
<title>C4S0</title>
<ellipse fill="white" stroke="black" cx="39" cy="-544" rx="11" ry="11"/>
</g>
<!-- C2S2&#45;&gt;C4S0 -->
<g id="edge17" class="edge">
<title>C2S2&#45;&gt;C4S0</title>
<path fill="none" stroke="black" stroke-dasharray="5,2" d="M114.82,-225.28C83.98,-229.47 0,-245.79 0,-299 0,-472 0,-472 0,-472 0,-493.23 13.56,-514.1 24.69,-527.67"/>
<polygon fill="black" stroke="black" points="31.48,-535.45 21.51,-530.88 28.19,-531.68 24.9,-527.92 24.9,-527.92 24.9,-527.92 28.19,-531.68 28.3,-524.96 31.48,-535.45 31.48,-535.45"/>
<text text-anchor="middle" x="16" y="-373.3" font-family="Times,serif" font-size="14.00">O3 r</text>
</g>
<!-- C2S4 -->
<g id="node7" class="node">
<title>C2S4</title>
<ellipse fill="white" stroke="black" cx="172" cy="-223" rx="11" ry="11"/>
</g>
<!-- C2S3&#45;&gt;C2S4 -->
<g id="edge4" class="edge">
<title>C2S3&#45;&gt;C2S4</title>
<path fill="none" stroke="darkgray" d="M175.25,-284.89C174.64,-273.47 173.77,-257.23 173.09,-244.39"/>
<polygon fill="darkgray" stroke="darkgray" points="176.57,-243.99 172.54,-234.2 169.58,-244.37 176.57,-243.99"/>
<text text-anchor="middle" x="185" y="-255.8" font-family="Times,serif" font-size="14.00" fill="darkgray">t2r</text>
</g>
<!-- C2S5 -->
<g id="node8" class="node">
<title>C2S5</title>
<polygon fill="white" stroke="black" points="139,-120.44 139,-129.56 132.56,-136 123.44,-136 117,-129.56 117,-120.44 123.44,-114 132.56,-114 139,-120.44"/>
<polygon fill="none" stroke="black" points="143,-118.79 143,-131.21 134.21,-140 121.79,-140 113,-131.21 113,-118.79 121.79,-110 134.21,-110 143,-118.79"/>
</g>
<!-- C2S4&#45;&gt;C2S5 -->
<g id="edge6" class="edge">
<title>C2S4&#45;&gt;C2S5</title>
<path fill="none" stroke="darkgray" d="M165.44,-213.51C161.48,-208.13 156.54,-200.9 153,-194 145.79,-179.96 139.65,-163.35 135.25,-150.06"/>
<polygon fill="darkgray" stroke="darkgray" points="138.49,-148.69 132.11,-140.23 131.82,-150.82 138.49,-148.69"/>
<text text-anchor="middle" x="161" y="-182.8" font-family="Times,serif" font-size="14.00" fill="darkgray">t4</text>
</g>
<!-- C2S6 -->
<g id="node9" class="node">
<title>C2S6</title>
<polygon fill="white" stroke="black" points="187,-120.44 187,-129.56 180.56,-136 171.44,-136 165,-129.56 165,-120.44 171.44,-114 180.56,-114 187,-120.44"/>
<polygon fill="none" stroke="black" points="191,-118.79 191,-131.21 182.21,-140 169.79,-140 161,-131.21 161,-118.79 169.79,-110 182.21,-110 191,-118.79"/>
</g>
<!-- C2S4&#45;&gt;C2S6 -->
<g id="edge5" class="edge">
<title>C2S4&#45;&gt;C2S6</title>
<path fill="none" stroke="darkgray" d="M172.43,-211.73C173.03,-197.2 174.16,-170.21 174.98,-150.38"/>
<polygon fill="darkgray" stroke="darkgray" points="178.49,-150.37 175.41,-140.23 171.49,-150.08 178.49,-150.37"/>
<text text-anchor="middle" x="183.5" y="-182.8" font-family="Times,serif" font-size="14.00" fill="darkgray">t5f</text>
</g>
<!-- C2S5&#45;&gt;C1S0 -->
<g id="edge14" class="edge">
<title>C2S5&#45;&gt;C1S0</title>
<path fill="none" stroke="black" stroke-dasharray="5,2" d="M128,-109.83C128,-93.52 128,-66.59 128,-48.11"/>
<polygon fill="black" stroke="black" points="128,-38.1 132.5,-48.1 128,-43.1 128,-48.1 128,-48.1 128,-48.1 128,-43.1 123.5,-48.1 128,-38.1 128,-38.1"/>
<text text-anchor="middle" x="146.5" y="-80.8" font-family="Times,serif" font-size="14.00">O3 fr</text>
</g>
<!-- C3S1 -->
<g id="node11" class="node">
<title>C3S1</title>
<ellipse fill="white" stroke="black" cx="197" cy="-544" rx="11" ry="11"/>
</g>
<!-- C3S0&#45;&gt;C3S1 -->
<g id="edge7" class="edge">
<title>C3S0&#45;&gt;C3S1</title>
<path fill="none" stroke="darkgray" d="M201.45,-626.8C200.64,-612.02 199.14,-584.33 198.1,-565.29"/>
<polygon fill="darkgray" stroke="darkgray" points="201.59,-565.04 197.56,-555.24 194.6,-565.42 201.59,-565.04"/>
<text text-anchor="middle" x="211" y="-597.8" font-family="Times,serif" font-size="14.00" fill="darkgray">t2r</text>
</g>
<!-- C3S2 -->
<g id="node12" class="node">
<title>C3S2</title>
<polygon fill="white" stroke="black" points="166,-466.44 166,-475.56 159.56,-482 150.44,-482 144,-475.56 144,-466.44 150.44,-460 159.56,-460 166,-466.44"/>
</g>
<!-- C3S1&#45;&gt;C3S2 -->
<g id="edge9" class="edge">
<title>C3S1&#45;&gt;C3S2</title>
<path fill="none" stroke="darkgray" d="M190.72,-534.89C186.6,-529.41 181.22,-521.94 177,-515 172.39,-507.43 167.84,-498.78 164.08,-491.23"/>
<polygon fill="darkgray" stroke="darkgray" points="167.18,-489.6 159.66,-482.13 160.88,-492.66 167.18,-489.6"/>
<text text-anchor="middle" x="185" y="-503.8" font-family="Times,serif" font-size="14.00" fill="darkgray">t4</text>
</g>
<!-- C3S3 -->
<g id="node13" class="node">
<title>C3S3</title>
<polygon fill="white" stroke="black" points="209,-466.44 209,-475.56 202.56,-482 193.44,-482 187,-475.56 187,-466.44 193.44,-460 202.56,-460 209,-466.44"/>
</g>
<!-- C3S1&#45;&gt;C3S3 -->
<g id="edge8" class="edge">
<title>C3S1&#45;&gt;C3S3</title>
<path fill="none" stroke="darkgray" d="M197.14,-532.83C197.29,-522.28 197.53,-505.52 197.71,-492.26"/>
<polygon fill="darkgray" stroke="darkgray" points="201.22,-492.2 197.86,-482.15 194.22,-492.1 201.22,-492.2"/>
<text text-anchor="middle" x="207.5" y="-503.8" font-family="Times,serif" font-size="14.00" fill="darkgray">t5f</text>
</g>
<!-- C5S0 -->
<g id="node17" class="node">
<title>C5S0</title>
<ellipse fill="white" stroke="black" cx="71" cy="-377" rx="11" ry="11"/>
</g>
<!-- C3S2&#45;&gt;C5S0 -->
<g id="edge20" class="edge">
<title>C3S2&#45;&gt;C5S0</title>
<path fill="none" stroke="black" stroke-dasharray="5,2" d="M149.67,-460.51C143.8,-450.85 133.5,-436.02 121,-427 112.56,-420.91 107.22,-425.38 99,-419 91.26,-412.99 84.87,-404.22 80.15,-396.34"/>
<polygon fill="black" stroke="black" points="75.26,-387.4 84.01,-394.02 77.66,-391.79 80.07,-396.18 80.07,-396.18 80.07,-396.18 77.66,-391.79 76.12,-398.34 75.26,-387.4 75.26,-387.4"/>
<text text-anchor="middle" x="152" y="-430.8" font-family="Times,serif" font-size="14.00">O2 r</text>
</g>
<!-- C3S3&#45;&gt;C2S0 -->
<g id="edge16" class="edge">
<title>C3S3&#45;&gt;C2S0</title>
<path fill="none" stroke="black" stroke-dasharray="5,2" d="M195.45,-459.8C191.72,-444.87 184.69,-416.77 179.93,-397.72"/>
<polygon fill="black" stroke="black" points="177.49,-387.96 184.28,-396.57 178.7,-392.81 179.92,-397.66 179.92,-397.66 179.92,-397.66 178.7,-392.81 175.55,-398.76 177.49,-387.96 177.49,-387.96"/>
<text text-anchor="middle" x="208.5" y="-430.8" font-family="Times,serif" font-size="14.00">O2 rf</text>
</g>
<!-- C4S1 -->
<g id="node15" class="node">
<title>C4S1</title>
<polygon fill="white" stroke="black" points="50,-466.44 50,-475.56 43.56,-482 34.44,-482 28,-475.56 28,-466.44 34.44,-460 43.56,-460 50,-466.44"/>
</g>
<!-- C4S0&#45;&gt;C4S1 -->
<g id="edge11" class="edge">
<title>C4S0&#45;&gt;C4S1</title>
<path fill="none" stroke="darkgray" d="M39,-532.83C39,-522.28 39,-505.52 39,-492.26"/>
<polygon fill="darkgray" stroke="darkgray" points="42.5,-492.15 39,-482.15 35.5,-492.15 42.5,-492.15"/>
<text text-anchor="middle" x="47" y="-503.8" font-family="Times,serif" font-size="14.00" fill="darkgray">t4</text>
</g>
<!-- C4S2 -->
<g id="node16" class="node">
<title>C4S2</title>
<polygon fill="white" stroke="black" points="95,-466.44 95,-475.56 88.56,-482 79.44,-482 73,-475.56 73,-466.44 79.44,-460 88.56,-460 95,-466.44"/>
</g>
<!-- C4S0&#45;&gt;C4S2 -->
<g id="edge10" class="edge">
<title>C4S0&#45;&gt;C4S2</title>
<path fill="none" stroke="darkgray" d="M44.52,-534.29C51.53,-523.24 63.79,-503.89 72.79,-489.68"/>
<polygon fill="darkgray" stroke="darkgray" points="75.75,-491.55 78.15,-481.23 69.84,-487.8 75.75,-491.55"/>
<text text-anchor="middle" x="76.5" y="-503.8" font-family="Times,serif" font-size="14.00" fill="darkgray">t5f</text>
</g>
<!-- C4S1&#45;&gt;C5S0 -->
<g id="edge19" class="edge">
<title>C4S1&#45;&gt;C5S0</title>
<path fill="none" stroke="black" stroke-dasharray="5,2" d="M35.4,-459.84C32.81,-450.96 30.37,-437.83 34,-427 38.41,-413.84 47.9,-401.4 56.16,-392.34"/>
<polygon fill="black" stroke="black" points="63.23,-385.06 59.5,-395.37 59.75,-388.65 56.27,-392.24 56.27,-392.24 56.27,-392.24 59.75,-388.65 53.04,-389.1 63.23,-385.06 63.23,-385.06"/>
<text text-anchor="middle" x="50.5" y="-430.8" font-family="Times,serif" font-size="14.00">O2 ε</text>
</g>
<!-- C4S2&#45;&gt;C2S0 -->
<g id="edge18" class="edge">
<title>C4S2&#45;&gt;C2S0</title>
<path fill="none" stroke="black" stroke-dasharray="5,2" d="M81.86,-459.97C80.44,-450.7 79.84,-436.9 86,-427 90.14,-420.35 131.34,-399.36 156.21,-387.11"/>
<polygon fill="black" stroke="black" points="165.42,-382.61 158.41,-391.05 160.93,-384.81 156.44,-387 156.44,-387 156.44,-387 160.93,-384.81 154.46,-382.96 165.42,-382.61 165.42,-382.61"/>
<text text-anchor="middle" x="101.5" y="-430.8" font-family="Times,serif" font-size="14.00">O2 f</text>
</g>
</g>
</svg>
