<?xml version="1.0" encoding="UTF-8" standalone="no"?>
<!DOCTYPE svg PUBLIC "-//W3C//DTD SVG 1.1//EN"
 "http://www.w3.org/Graphics/SVG/1.1/DTD/svg11.dtd">
<!-- Generated by graphviz version 2.43.0 (0)
 -->
<!-- Title: SCinput/e Pages: 1 -->
<svg width="382pt" height="1494pt"
 viewBox="0.00 0.00 381.74 1494.31" xmlns="http://www.w3.org/2000/svg" xmlns:xlink="http://www.w3.org/1999/xlink">
<g id="graph0" class="graph" transform="scale(1 1) rotate(0) translate(4 1490.31)">
<title>SCinput/e</title>
<polygon fill="white" stroke="transparent" points="-4,4 -4,-1490.31 377.74,-1490.31 377.74,4 -4,4"/>
<!-- R00_Lee -->
<g id="node1" class="node">
<title>R00_Lee</title>
<ellipse fill="none" stroke="black" cx="262.7" cy="-1436.26" rx="50.09" ry="50.09"/>
<text text-anchor="middle" x="262.7" y="-1432.56" font-family="Times,serif" font-size="14.00">R00_Lee</text>
</g>
<!-- R01_L2e -->
<g id="node2" class="node">
<title>R01_L2e</title>
<ellipse fill="none" stroke="black" cx="210.7" cy="-1284.52" rx="50.89" ry="50.89"/>
<text text-anchor="middle" x="210.7" y="-1280.82" font-family="Times,serif" font-size="14.00">R01_L2e</text>
</g>
<!-- R00_Lee&#45;&gt;R01_L2e -->
<g id="edge1" class="edge">
<title>R00_Lee&#45;&gt;R01_L2e</title>
<path fill="none" stroke="black" d="M246.53,-1388.71C241.44,-1374.06 235.76,-1357.71 230.46,-1342.43"/>
<polygon fill="black" stroke="black" points="233.62,-1340.87 227.03,-1332.57 227.01,-1343.16 233.62,-1340.87"/>
<text text-anchor="middle" x="256.7" y="-1357.02" font-family="Times,serif" font-size="14.00">t3O3</text>
</g>
<!-- R11_Le3 -->
<g id="node3" class="node">
<title>R11_Le3</title>
<ellipse fill="none" stroke="black" cx="210.7" cy="-1132.13" rx="50.89" ry="50.89"/>
<text text-anchor="middle" x="210.7" y="-1128.43" font-family="Times,serif" font-size="14.00">R11_Le3</text>
</g>
<!-- R01_L2e&#45;&gt;R11_Le3 -->
<g id="edge2" class="edge">
<title>R01_L2e&#45;&gt;R11_Le3</title>
<path fill="none" stroke="black" d="M210.7,-1233.45C210.7,-1220.51 210.7,-1206.45 210.7,-1193.07"/>
<polygon fill="black" stroke="black" points="214.2,-1192.99 210.7,-1182.99 207.2,-1192.99 214.2,-1192.99"/>
<text text-anchor="middle" x="228.7" y="-1204.63" font-family="Times,serif" font-size="14.00">t1O2</text>
</g>
<!-- R10_Lee -->
<g id="node4" class="node">
<title>R10_Lee</title>
<ellipse fill="none" stroke="black" cx="149.7" cy="-976.39" rx="50.09" ry="50.09"/>
<ellipse fill="none" stroke="black" cx="149.7" cy="-976.39" rx="54.09" ry="54.09"/>
<text text-anchor="middle" x="149.7" y="-972.69" font-family="Times,serif" font-size="14.00">R10_Lee</text>
</g>
<!-- R11_Le3&#45;&gt;R10_Lee -->
<g id="edge4" class="edge">
<title>R11_Le3&#45;&gt;R10_Lee</title>
<path fill="none" stroke="black" d="M192.23,-1084.59C186.25,-1069.51 179.53,-1052.58 173.23,-1036.71"/>
<polygon fill="black" stroke="black" points="176.31,-1034.99 169.37,-1026.98 169.81,-1037.57 176.31,-1034.99"/>
<text text-anchor="middle" x="190.7" y="-1052.24" font-family="Times,serif" font-size="14.00">t4</text>
</g>
<!-- R11_Lee -->
<g id="node11" class="node">
<title>R11_Lee</title>
<ellipse fill="none" stroke="black" cx="275.7" cy="-976.39" rx="50.09" ry="50.09"/>
<ellipse fill="none" stroke="black" cx="275.7" cy="-976.39" rx="54.09" ry="54.09"/>
<text text-anchor="middle" x="275.7" y="-972.69" font-family="Times,serif" font-size="14.00">R11_Lee</text>
</g>
<!-- R11_Le3&#45;&gt;R11_Lee -->
<g id="edge3" class="edge">
<title>R11_Le3&#45;&gt;R11_Lee</title>
<path fill="none" stroke="black" d="M230.2,-1085.01C236.73,-1069.55 244.1,-1052.12 250.98,-1035.85"/>
<polygon fill="black" stroke="black" points="254.29,-1037 254.96,-1026.43 247.85,-1034.28 254.29,-1037"/>
<text text-anchor="middle" x="263.2" y="-1052.24" font-family="Times,serif" font-size="14.00">t5R2</text>
</g>
<!-- R00_Le3 -->
<g id="node5" class="node">
<title>R00_Le3</title>
<ellipse fill="none" stroke="black" cx="121.7" cy="-820.65" rx="50.89" ry="50.89"/>
<text text-anchor="middle" x="121.7" y="-816.95" font-family="Times,serif" font-size="14.00">R00_Le3</text>
</g>
<!-- R10_Lee&#45;&gt;R00_Le3 -->
<g id="edge6" class="edge">
<title>R10_Lee&#45;&gt;R00_Le3</title>
<path fill="none" stroke="black" d="M140.14,-922.91C137.66,-909.33 134.99,-894.62 132.46,-880.73"/>
<polygon fill="black" stroke="black" points="135.88,-880 130.64,-870.79 128.99,-881.25 135.88,-880"/>
<text text-anchor="middle" x="154.2" y="-893.15" font-family="Times,serif" font-size="14.00">t2R1</text>
</g>
<!-- R11_L2e -->
<g id="node10" class="node">
<title>R11_L2e</title>
<ellipse fill="none" stroke="black" cx="137.7" cy="-50.7" rx="50.89" ry="50.89"/>
<text text-anchor="middle" x="137.7" y="-47" font-family="Times,serif" font-size="14.00">R11_L2e</text>
</g>
<!-- R10_Lee&#45;&gt;R11_L2e -->
<g id="edge5" class="edge">
<title>R10_Lee&#45;&gt;R11_L2e</title>
<path fill="none" stroke="black" d="M174.15,-927.91C187.24,-898.18 200.7,-858.63 200.7,-821.65 200.7,-821.65 200.7,-821.65 200.7,-202.74 200.7,-167.36 185.79,-130.66 170.48,-102.3"/>
<polygon fill="black" stroke="black" points="173.44,-100.42 165.51,-93.39 167.33,-103.83 173.44,-100.42"/>
<text text-anchor="middle" x="218.7" y="-505.47" font-family="Times,serif" font-size="14.00">t3O3</text>
</g>
<!-- R01_L23 -->
<g id="node6" class="node">
<title>R01_L23</title>
<ellipse fill="none" stroke="black" cx="109.7" cy="-664.91" rx="51.19" ry="51.19"/>
<text text-anchor="middle" x="109.7" y="-661.21" font-family="Times,serif" font-size="14.00">R01_L23</text>
</g>
<!-- R00_Le3&#45;&gt;R01_L23 -->
<g id="edge7" class="edge">
<title>R00_Le3&#45;&gt;R01_L23</title>
<path fill="none" stroke="black" d="M117.8,-769.74C116.73,-755.98 115.55,-740.9 114.43,-726.6"/>
<polygon fill="black" stroke="black" points="117.9,-726.06 113.63,-716.36 110.92,-726.61 117.9,-726.06"/>
<text text-anchor="middle" x="134.7" y="-740.76" font-family="Times,serif" font-size="14.00">t3O3</text>
</g>
<!-- R01_L23&#45;&gt;R01_L2e -->
<g id="edge8" class="edge">
<title>R01_L23&#45;&gt;R01_L2e</title>
<path fill="none" stroke="black" d="M80.5,-707.54C62.45,-737.33 42.7,-779.18 42.7,-819.65 42.7,-1133.13 42.7,-1133.13 42.7,-1133.13 42.7,-1194.36 105.42,-1236.92 154.21,-1260.75"/>
<polygon fill="black" stroke="black" points="152.92,-1264.01 163.45,-1265.13 155.91,-1257.69 152.92,-1264.01"/>
<text text-anchor="middle" x="60.2" y="-972.69" font-family="Times,serif" font-size="14.00">t5R2</text>
</g>
<!-- R00_L2e -->
<g id="node7" class="node">
<title>R00_L2e</title>
<ellipse fill="none" stroke="black" cx="56.7" cy="-509.17" rx="50.89" ry="50.89"/>
<text text-anchor="middle" x="56.7" y="-505.47" font-family="Times,serif" font-size="14.00">R00_L2e</text>
</g>
<!-- R01_L23&#45;&gt;R00_L2e -->
<g id="edge9" class="edge">
<title>R01_L23&#45;&gt;R00_L2e</title>
<path fill="none" stroke="black" d="M93.22,-616.11C87.88,-600.63 81.91,-583.31 76.37,-567.24"/>
<polygon fill="black" stroke="black" points="79.55,-565.73 72.98,-557.41 72.93,-568.01 79.55,-565.73"/>
<text text-anchor="middle" x="93.7" y="-581.66" font-family="Times,serif" font-size="14.00">t4</text>
</g>
<!-- R10_Le3 -->
<g id="node8" class="node">
<title>R10_Le3</title>
<ellipse fill="none" stroke="black" cx="50.7" cy="-356.78" rx="50.89" ry="50.89"/>
<text text-anchor="middle" x="50.7" y="-353.08" font-family="Times,serif" font-size="14.00">R10_Le3</text>
</g>
<!-- R00_L2e&#45;&gt;R10_Le3 -->
<g id="edge10" class="edge">
<title>R00_L2e&#45;&gt;R10_Le3</title>
<path fill="none" stroke="black" d="M54.71,-458.51C54.19,-445.49 53.63,-431.3 53.09,-417.8"/>
<polygon fill="black" stroke="black" points="56.58,-417.49 52.68,-407.64 49.59,-417.77 56.58,-417.49"/>
<text text-anchor="middle" x="72.7" y="-429.27" font-family="Times,serif" font-size="14.00">t1O2</text>
</g>
<!-- R11_L23 -->
<g id="node9" class="node">
<title>R11_L23</title>
<ellipse fill="none" stroke="black" cx="56.7" cy="-203.74" rx="51.19" ry="51.19"/>
<text text-anchor="middle" x="56.7" y="-200.04" font-family="Times,serif" font-size="14.00">R11_L23</text>
</g>
<!-- R10_Le3&#45;&gt;R11_L23 -->
<g id="edge11" class="edge">
<title>R10_Le3&#45;&gt;R11_L23</title>
<path fill="none" stroke="black" d="M52.68,-305.9C53.19,-292.89 53.76,-278.73 54.29,-265.23"/>
<polygon fill="black" stroke="black" points="57.8,-265.21 54.7,-255.08 50.8,-264.93 57.8,-265.21"/>
<text text-anchor="middle" x="72.7" y="-276.88" font-family="Times,serif" font-size="14.00">t3O3</text>
</g>
<!-- R11_L23&#45;&gt;R11_L2e -->
<g id="edge12" class="edge">
<title>R11_L23&#45;&gt;R11_L2e</title>
<path fill="none" stroke="black" d="M72.73,-154.62C77.31,-142.83 82.71,-130.43 88.7,-119.39 92.26,-112.81 96.38,-106.14 100.68,-99.67"/>
<polygon fill="black" stroke="black" points="103.85,-101.24 106.62,-91.02 98.08,-97.28 103.85,-101.24"/>
<text text-anchor="middle" x="106.2" y="-123.19" font-family="Times,serif" font-size="14.00">t5R2</text>
</g>
<!-- R11_L2e&#45;&gt;R01_L23 -->
<g id="edge13" class="edge">
<title>R11_L2e&#45;&gt;R01_L23</title>
<path fill="none" stroke="black" d="M137.7,-101.7C137.7,-131.12 137.7,-169.04 137.7,-202.74 137.7,-510.17 137.7,-510.17 137.7,-510.17 137.7,-541.96 131.83,-576.86 125.47,-605.36"/>
<polygon fill="black" stroke="black" points="122.04,-604.63 123.2,-615.16 128.86,-606.21 122.04,-604.63"/>
<text text-anchor="middle" x="155.2" y="-353.08" font-family="Times,serif" font-size="14.00">t2R1</text>
</g>
<!-- R01_Le3 -->
<g id="node12" class="node">
<title>R01_Le3</title>
<ellipse fill="none" stroke="black" cx="319.7" cy="-820.65" rx="50.89" ry="50.89"/>
<text text-anchor="middle" x="319.7" y="-816.95" font-family="Times,serif" font-size="14.00">R01_Le3</text>
</g>
<!-- R11_Lee&#45;&gt;R01_Le3 -->
<g id="edge14" class="edge">
<title>R11_Lee&#45;&gt;R01_Le3</title>
<path fill="none" stroke="black" d="M290.35,-924.2C294.45,-909.86 298.94,-894.18 303.14,-879.49"/>
<polygon fill="black" stroke="black" points="306.61,-880.08 306,-869.5 299.88,-878.15 306.61,-880.08"/>
<text text-anchor="middle" x="317.2" y="-893.15" font-family="Times,serif" font-size="14.00">t2R1</text>
</g>
<!-- R01_Le3&#45;&gt;R00_Lee -->
<g id="edge16" class="edge">
<title>R01_Le3&#45;&gt;R00_Lee</title>
<path fill="none" stroke="black" d="M337.47,-868.36C347.36,-898.45 357.7,-938.69 357.7,-975.39 357.7,-1285.52 357.7,-1285.52 357.7,-1285.52 357.7,-1327.03 331.35,-1366.35 306.4,-1394.28"/>
<polygon fill="black" stroke="black" points="303.63,-1392.12 299.42,-1401.84 308.78,-1396.86 303.63,-1392.12"/>
<text text-anchor="middle" x="365.7" y="-1128.43" font-family="Times,serif" font-size="14.00">t4</text>
</g>
<!-- R01_Lee -->
<g id="node13" class="node">
<title>R01_Lee</title>
<ellipse fill="none" stroke="black" cx="319.7" cy="-664.91" rx="50.09" ry="50.09"/>
<ellipse fill="none" stroke="black" cx="319.7" cy="-664.91" rx="54.09" ry="54.09"/>
<text text-anchor="middle" x="319.7" y="-661.21" font-family="Times,serif" font-size="14.00">R01_Lee</text>
</g>
<!-- R01_Le3&#45;&gt;R01_Lee -->
<g id="edge15" class="edge">
<title>R01_Le3&#45;&gt;R01_Lee</title>
<path fill="none" stroke="black" d="M319.7,-769.74C319.7,-756.81 319.7,-742.72 319.7,-729.21"/>
<polygon fill="black" stroke="black" points="323.2,-729.02 319.7,-719.02 316.2,-729.02 323.2,-729.02"/>
<text text-anchor="middle" x="337.2" y="-740.76" font-family="Times,serif" font-size="14.00">t5R2</text>
</g>
</g>
</svg>
