<?xml version="1.0" encoding="UTF-8" standalone="no"?>
<!DOCTYPE svg PUBLIC "-//W3C//DTD SVG 1.1//EN"
 "http://www.w3.org/Graphics/SVG/1.1/DTD/svg11.dtd">
<!-- Generated by graphviz version 2.43.0 (0)
 -->
<!-- Title: SCinput/e Pages: 1 -->
<svg width="373pt" height="914pt"
 viewBox="0.00 0.00 373.39 914.00" xmlns="http://www.w3.org/2000/svg" xmlns:xlink="http://www.w3.org/1999/xlink">
<g id="graph0" class="graph" transform="scale(1 1) rotate(0) translate(4 910)">
<title>SCinput/e</title>
<polygon fill="white" stroke="transparent" points="-4,4 -4,-910 369.39,-910 369.39,4 -4,4"/>
<!-- R00_Lee -->
<g id="node1" class="node">
<title>R00_Lee</title>
<ellipse fill="#ffeeee" stroke="black" cx="50.05" cy="-888" rx="50.09" ry="18"/>
<text text-anchor="middle" x="50.05" y="-884.3" font-family="Times,serif" font-size="14.00">R00_Lee</text>
</g>
<!-- R01_L2e -->
<g id="node2" class="node">
<title>R01_L2e</title>
<ellipse fill="#ffffff" stroke="black" cx="180.05" cy="-801" rx="50.89" ry="18"/>
<text text-anchor="middle" x="180.05" y="-797.3" font-family="Times,serif" font-size="14.00">R01_L2e</text>
</g>
<!-- R00_Lee&#45;&gt;R01_L2e -->
<g id="edge1" class="edge">
<title>R00_Lee&#45;&gt;R01_L2e</title>
<path fill="none" stroke="black" d="M72.99,-872C93.93,-858.31 125.08,-837.94 148.38,-822.7"/>
<polygon fill="black" stroke="black" points="150.44,-825.54 156.9,-817.14 146.61,-819.68 150.44,-825.54"/>
<text text-anchor="middle" x="140.05" y="-840.8" font-family="Times,serif" font-size="14.00">t3O3</text>
</g>
<!-- R11_Le3 -->
<g id="node3" class="node">
<title>R11_Le3</title>
<ellipse fill="#ffffff" stroke="black" cx="180.05" cy="-714" rx="50.89" ry="18"/>
<text text-anchor="middle" x="180.05" y="-710.3" font-family="Times,serif" font-size="14.00">R11_Le3</text>
</g>
<!-- R01_L2e&#45;&gt;R11_Le3 -->
<g id="edge2" class="edge">
<title>R01_L2e&#45;&gt;R11_Le3</title>
<path fill="none" stroke="black" d="M180.05,-782.8C180.05,-771.16 180.05,-755.55 180.05,-742.24"/>
<polygon fill="black" stroke="black" points="183.55,-742.18 180.05,-732.18 176.55,-742.18 183.55,-742.18"/>
<text text-anchor="middle" x="198.05" y="-753.8" font-family="Times,serif" font-size="14.00">t1O2</text>
</g>
<!-- R10_Lee -->
<g id="node4" class="node">
<title>R10_Lee</title>
<ellipse fill="#ffeeee" stroke="black" cx="230.05" cy="-627" rx="50.09" ry="18"/>
<text text-anchor="middle" x="230.05" y="-623.3" font-family="Times,serif" font-size="14.00">R10_Lee</text>
</g>
<!-- R11_Le3&#45;&gt;R10_Lee -->
<g id="edge4" class="edge">
<title>R11_Le3&#45;&gt;R10_Lee</title>
<path fill="none" stroke="black" d="M189.92,-696.21C197.05,-684.1 206.79,-667.53 214.89,-653.76"/>
<polygon fill="black" stroke="black" points="218.13,-655.15 220.19,-644.76 212.1,-651.6 218.13,-655.15"/>
<text text-anchor="middle" x="215.05" y="-666.8" font-family="Times,serif" font-size="14.00">t4</text>
</g>
<!-- R11_Lee -->
<g id="node13" class="node">
<title>R11_Lee</title>
<ellipse fill="#ffeeee" stroke="black" cx="112.05" cy="-627" rx="50.09" ry="18"/>
<text text-anchor="middle" x="112.05" y="-623.3" font-family="Times,serif" font-size="14.00">R11_Lee</text>
</g>
<!-- R11_Le3&#45;&gt;R11_Lee -->
<g id="edge3" class="edge">
<title>R11_Le3&#45;&gt;R11_Lee</title>
<path fill="none" stroke="black" d="M166.93,-696.61C156.93,-684.11 142.99,-666.69 131.67,-652.53"/>
<polygon fill="black" stroke="black" points="134.33,-650.25 125.35,-644.63 128.86,-654.62 134.33,-650.25"/>
<text text-anchor="middle" x="160.55" y="-666.8" font-family="Times,serif" font-size="14.00">t5f</text>
</g>
<!-- R00_Le3 -->
<g id="node5" class="node">
<title>R00_Le3</title>
<ellipse fill="#ffffff" stroke="black" cx="237.05" cy="-540" rx="50.89" ry="18"/>
<text text-anchor="middle" x="237.05" y="-536.3" font-family="Times,serif" font-size="14.00">R00_Le3</text>
</g>
<!-- R10_Lee&#45;&gt;R00_Le3 -->
<g id="edge6" class="edge">
<title>R10_Lee&#45;&gt;R00_Le3</title>
<path fill="none" stroke="black" d="M231.46,-608.8C232.42,-597.16 233.71,-581.55 234.8,-568.24"/>
<polygon fill="black" stroke="black" points="238.3,-568.43 235.63,-558.18 231.32,-567.85 238.3,-568.43"/>
<text text-anchor="middle" x="244.05" y="-579.8" font-family="Times,serif" font-size="14.00">t2r</text>
</g>
<!-- R11_L2e -->
<g id="node12" class="node">
<title>R11_L2e</title>
<ellipse fill="#ffffff" stroke="black" cx="184.05" cy="-105" rx="50.89" ry="18"/>
<text text-anchor="middle" x="184.05" y="-101.3" font-family="Times,serif" font-size="14.00">R11_L2e</text>
</g>
<!-- R10_Lee&#45;&gt;R11_L2e -->
<g id="edge5" class="edge">
<title>R10_Lee&#45;&gt;R11_L2e</title>
<path fill="none" stroke="black" d="M205.67,-611.03C184.78,-596.13 158.05,-571.17 158.05,-541 158.05,-541 158.05,-541 158.05,-191 158.05,-170.68 164.92,-148.78 171.6,-132.29"/>
<polygon fill="black" stroke="black" points="174.95,-133.36 175.68,-122.79 168.52,-130.61 174.95,-133.36"/>
<text text-anchor="middle" x="176.05" y="-362.3" font-family="Times,serif" font-size="14.00">t3O3</text>
</g>
<!-- R01_L23 -->
<g id="node6" class="node">
<title>R01_L23</title>
<ellipse fill="#ffffff" stroke="black" cx="314.05" cy="-453" rx="51.19" ry="18"/>
<text text-anchor="middle" x="314.05" y="-449.3" font-family="Times,serif" font-size="14.00">R01_L23</text>
</g>
<!-- R00_Le3&#45;&gt;R01_L23 -->
<g id="edge7" class="edge">
<title>R00_Le3&#45;&gt;R01_L23</title>
<path fill="none" stroke="black" d="M244.63,-522.1C249.75,-511.83 257.18,-498.84 266.05,-489 270.48,-484.07 275.72,-479.41 281.08,-475.19"/>
<polygon fill="black" stroke="black" points="283.54,-477.72 289.49,-468.96 279.37,-472.1 283.54,-477.72"/>
<text text-anchor="middle" x="284.05" y="-492.8" font-family="Times,serif" font-size="14.00">t3O3</text>
</g>
<!-- R01_L23&#45;&gt;R01_L2e -->
<g id="edge8" class="edge">
<title>R01_L23&#45;&gt;R01_L2e</title>
<path fill="none" stroke="black" d="M314.69,-471.25C315.27,-488.42 316.05,-515.53 316.05,-539 316.05,-715 316.05,-715 316.05,-715 316.05,-755.64 271.84,-777.57 233.83,-788.91"/>
<polygon fill="black" stroke="black" points="232.52,-785.65 223.83,-791.71 234.4,-792.39 232.52,-785.65"/>
<text text-anchor="middle" x="326.55" y="-623.3" font-family="Times,serif" font-size="14.00">t5f</text>
</g>
<!-- R00_L2e -->
<g id="node7" class="node">
<title>R00_L2e</title>
<ellipse fill="#ffffff" stroke="black" cx="263.05" cy="-366" rx="50.89" ry="18"/>
<text text-anchor="middle" x="263.05" y="-362.3" font-family="Times,serif" font-size="14.00">R00_L2e</text>
</g>
<!-- R01_L23&#45;&gt;R00_L2e -->
<g id="edge9" class="edge">
<title>R01_L23&#45;&gt;R00_L2e</title>
<path fill="none" stroke="black" d="M303.97,-435.21C296.64,-422.98 286.57,-406.21 278.26,-392.36"/>
<polygon fill="black" stroke="black" points="281.25,-390.53 273.1,-383.76 275.24,-394.13 281.25,-390.53"/>
<text text-anchor="middle" x="299.05" y="-405.8" font-family="Times,serif" font-size="14.00">t4</text>
</g>
<!-- R10_Le3 -->
<g id="node8" class="node">
<title>R10_Le3</title>
<ellipse fill="#ffffff" stroke="black" cx="255.05" cy="-279" rx="50.89" ry="18"/>
<text text-anchor="middle" x="255.05" y="-275.3" font-family="Times,serif" font-size="14.00">R10_Le3</text>
</g>
<!-- R00_L2e&#45;&gt;R10_Le3 -->
<g id="edge10" class="edge">
<title>R00_L2e&#45;&gt;R10_Le3</title>
<path fill="none" stroke="black" d="M261.43,-347.8C260.33,-336.16 258.86,-320.55 257.61,-307.24"/>
<polygon fill="black" stroke="black" points="261.08,-306.8 256.66,-297.18 254.11,-307.46 261.08,-306.8"/>
<text text-anchor="middle" x="277.05" y="-318.8" font-family="Times,serif" font-size="14.00">t1O2</text>
</g>
<!-- R11_L23 -->
<g id="node9" class="node">
<title>R11_L23</title>
<ellipse fill="#ffffff" stroke="black" cx="255.05" cy="-192" rx="51.19" ry="18"/>
<text text-anchor="middle" x="255.05" y="-188.3" font-family="Times,serif" font-size="14.00">R11_L23</text>
</g>
<!-- R10_Le3&#45;&gt;R11_L23 -->
<g id="edge11" class="edge">
<title>R10_Le3&#45;&gt;R11_L23</title>
<path fill="none" stroke="black" d="M255.05,-260.8C255.05,-249.16 255.05,-233.55 255.05,-220.24"/>
<polygon fill="black" stroke="black" points="258.55,-220.18 255.05,-210.18 251.55,-220.18 258.55,-220.18"/>
<text text-anchor="middle" x="273.05" y="-231.8" font-family="Times,serif" font-size="14.00">t3O3</text>
</g>
<!-- R10_L2e -->
<g id="node10" class="node">
<title>R10_L2e</title>
<ellipse fill="#ffffff" stroke="black" cx="303.05" cy="-105" rx="50.89" ry="18"/>
<text text-anchor="middle" x="303.05" y="-101.3" font-family="Times,serif" font-size="14.00">R10_L2e</text>
</g>
<!-- R11_L23&#45;&gt;R10_L2e -->
<g id="edge13" class="edge">
<title>R11_L23&#45;&gt;R10_L2e</title>
<path fill="none" stroke="black" d="M264.53,-174.21C271.37,-162.1 280.72,-145.53 288.5,-131.76"/>
<polygon fill="black" stroke="black" points="291.71,-133.19 293.58,-122.76 285.62,-129.74 291.71,-133.19"/>
<text text-anchor="middle" x="289.05" y="-144.8" font-family="Times,serif" font-size="14.00">t4</text>
</g>
<!-- R11_L23&#45;&gt;R11_L2e -->
<g id="edge12" class="edge">
<title>R11_L23&#45;&gt;R11_L2e</title>
<path fill="none" stroke="black" d="M241.36,-174.61C230.85,-162.03 216.17,-144.46 204.3,-130.25"/>
<polygon fill="black" stroke="black" points="206.79,-127.77 197.69,-122.34 201.42,-132.26 206.79,-127.77"/>
<text text-anchor="middle" x="233.55" y="-144.8" font-family="Times,serif" font-size="14.00">t5f</text>
</g>
<!-- R00_L23 -->
<g id="node11" class="node">
<title>R00_L23</title>
<ellipse fill="#ffffff" stroke="black" cx="303.05" cy="-18" rx="51.19" ry="18"/>
<text text-anchor="middle" x="303.05" y="-14.3" font-family="Times,serif" font-size="14.00">R00_L23</text>
</g>
<!-- R10_L2e&#45;&gt;R00_L23 -->
<g id="edge14" class="edge">
<title>R10_L2e&#45;&gt;R00_L23</title>
<path fill="none" stroke="black" d="M303.05,-86.8C303.05,-75.16 303.05,-59.55 303.05,-46.24"/>
<polygon fill="black" stroke="black" points="306.55,-46.18 303.05,-36.18 299.55,-46.18 306.55,-46.18"/>
<text text-anchor="middle" x="314.05" y="-57.8" font-family="Times,serif" font-size="14.00">t2r</text>
</g>
<!-- R11_L2e&#45;&gt;R01_L23 -->
<g id="edge15" class="edge">
<title>R11_L2e&#45;&gt;R01_L23</title>
<path fill="none" stroke="black" d="M221.91,-117.04C255.42,-126.86 299.31,-139.84 301.05,-141 324.97,-156.92 342.05,-162.26 342.05,-191 342.05,-367 342.05,-367 342.05,-367 342.05,-387.46 334.64,-409.36 327.44,-425.8"/>
<polygon fill="black" stroke="black" points="324.08,-424.73 323.06,-435.28 330.44,-427.67 324.08,-424.73"/>
<text text-anchor="middle" x="353.05" y="-275.3" font-family="Times,serif" font-size="14.00">t2r</text>
</g>
<!-- R01_Le3 -->
<g id="node14" class="node">
<title>R01_Le3</title>
<ellipse fill="#ffffff" stroke="black" cx="57.05" cy="-540" rx="50.89" ry="18"/>
<text text-anchor="middle" x="57.05" y="-536.3" font-family="Times,serif" font-size="14.00">R01_Le3</text>
</g>
<!-- R11_Lee&#45;&gt;R01_Le3 -->
<g id="edge16" class="edge">
<title>R11_Lee&#45;&gt;R01_Le3</title>
<path fill="none" stroke="black" d="M101.18,-609.21C93.27,-596.98 82.42,-580.21 73.46,-566.36"/>
<polygon fill="black" stroke="black" points="76.26,-564.25 67.89,-557.76 70.38,-568.06 76.26,-564.25"/>
<text text-anchor="middle" x="98.05" y="-579.8" font-family="Times,serif" font-size="14.00">t2r</text>
</g>
<!-- R01_Le3&#45;&gt;R00_Lee -->
<g id="edge18" class="edge">
<title>R01_Le3&#45;&gt;R00_Lee</title>
<path fill="none" stroke="black" d="M49.64,-557.89C42.92,-574.79 34.05,-601.69 34.05,-626 34.05,-802 34.05,-802 34.05,-802 34.05,-821.59 38.2,-843.28 42.27,-859.85"/>
<polygon fill="black" stroke="black" points="38.99,-861.12 44.89,-869.92 45.76,-859.36 38.99,-861.12"/>
<text text-anchor="middle" x="42.05" y="-710.3" font-family="Times,serif" font-size="14.00">t4</text>
</g>
<!-- R01_Lee -->
<g id="node15" class="node">
<title>R01_Lee</title>
<ellipse fill="#ffeeee" stroke="black" cx="57.05" cy="-453" rx="50.09" ry="18"/>
<text text-anchor="middle" x="57.05" y="-449.3" font-family="Times,serif" font-size="14.00">R01_Lee</text>
</g>
<!-- R01_Le3&#45;&gt;R01_Lee -->
<g id="edge17" class="edge">
<title>R01_Le3&#45;&gt;R01_Lee</title>
<path fill="none" stroke="black" d="M57.05,-521.8C57.05,-510.16 57.05,-494.55 57.05,-481.24"/>
<polygon fill="black" stroke="black" points="60.55,-481.18 57.05,-471.18 53.55,-481.18 60.55,-481.18"/>
<text text-anchor="middle" x="67.55" y="-492.8" font-family="Times,serif" font-size="14.00">t5f</text>
</g>
</g>
</svg>
