<?xml version="1.0" encoding="UTF-8" standalone="no"?>
<!DOCTYPE svg PUBLIC "-//W3C//DTD SVG 1.1//EN"
 "http://www.w3.org/Graphics/SVG/1.1/DTD/svg11.dtd">
<!-- Generated by graphviz version 2.43.0 (0)
 -->
<!-- Title: SCinput/e Pages: 1 -->
<svg width="313pt" height="827pt"
 viewBox="0.00 0.00 312.70 827.00" xmlns="http://www.w3.org/2000/svg" xmlns:xlink="http://www.w3.org/1999/xlink">
<g id="graph0" class="graph" transform="scale(1 1) rotate(0) translate(4 823)">
<title>SCinput/e</title>
<polygon fill="white" stroke="transparent" points="-4,4 -4,-823 308.7,-823 308.7,4 -4,4"/>
<!-- R00_Lee -->
<g id="node1" class="node">
<title>R00_Lee</title>
<ellipse fill="#ffeeee" stroke="black" cx="241" cy="-801" rx="50.09" ry="18"/>
<text text-anchor="middle" x="241" y="-797.3" font-family="Times,serif" font-size="14.00">R00_Lee</text>
</g>
<!-- R01_L2e -->
<g id="node2" class="node">
<title>R01_L2e</title>
<ellipse fill="#ffffff" stroke="black" cx="144" cy="-714" rx="50.89" ry="18"/>
<text text-anchor="middle" x="144" y="-710.3" font-family="Times,serif" font-size="14.00">R01_L2e</text>
</g>
<!-- R00_Lee&#45;&gt;R01_L2e -->
<g id="edge2" class="edge">
<title>R00_Lee&#45;&gt;R01_L2e</title>
<path fill="none" stroke="black" d="M222.76,-784.01C207.85,-770.95 186.6,-752.33 169.93,-737.72"/>
<polygon fill="black" stroke="black" points="171.99,-734.87 162.16,-730.92 167.38,-740.14 171.99,-734.87"/>
<text text-anchor="middle" x="216" y="-753.8" font-family="Times,serif" font-size="14.00">t3O3</text>
</g>
<!-- R11_Le3 -->
<g id="node7" class="node">
<title>R11_Le3</title>
<ellipse fill="#ffffff" stroke="black" cx="144" cy="-627" rx="50.89" ry="18"/>
<text text-anchor="middle" x="144" y="-623.3" font-family="Times,serif" font-size="14.00">R11_Le3</text>
</g>
<!-- R01_L2e&#45;&gt;R11_Le3 -->
<g id="edge1" class="edge">
<title>R01_L2e&#45;&gt;R11_Le3</title>
<path fill="none" stroke="black" d="M144,-695.8C144,-684.16 144,-668.55 144,-655.24"/>
<polygon fill="black" stroke="black" points="147.5,-655.18 144,-645.18 140.5,-655.18 147.5,-655.18"/>
<text text-anchor="middle" x="162" y="-666.8" font-family="Times,serif" font-size="14.00">t1O2</text>
</g>
<!-- R01_L23 -->
<g id="node3" class="node">
<title>R01_L23</title>
<ellipse fill="#ffffff" stroke="black" cx="134" cy="-366" rx="51.19" ry="18"/>
<text text-anchor="middle" x="134" y="-362.3" font-family="Times,serif" font-size="14.00">R01_L23</text>
</g>
<!-- R01_L23&#45;&gt;R01_L2e -->
<g id="edge3" class="edge">
<title>R01_L23&#45;&gt;R01_L2e</title>
<path fill="none" stroke="black" d="M90.49,-375.6C51.37,-386.16 0,-408.33 0,-452 0,-628 0,-628 0,-628 0,-671.04 48.31,-692.74 88.96,-703.38"/>
<polygon fill="black" stroke="black" points="88.29,-706.82 98.83,-705.79 89.95,-700.02 88.29,-706.82"/>
<text text-anchor="middle" x="10.5" y="-536.3" font-family="Times,serif" font-size="14.00">t5f</text>
</g>
<!-- R00_L2e -->
<g id="node5" class="node">
<title>R00_L2e</title>
<ellipse fill="#ffffff" stroke="black" cx="143" cy="-279" rx="50.89" ry="18"/>
<text text-anchor="middle" x="143" y="-275.3" font-family="Times,serif" font-size="14.00">R00_L2e</text>
</g>
<!-- R01_L23&#45;&gt;R00_L2e -->
<g id="edge4" class="edge">
<title>R01_L23&#45;&gt;R00_L2e</title>
<path fill="none" stroke="black" d="M135.82,-347.8C137.05,-336.16 138.71,-320.55 140.12,-307.24"/>
<polygon fill="black" stroke="black" points="143.61,-307.49 141.18,-297.18 136.65,-306.75 143.61,-307.49"/>
<text text-anchor="middle" x="147" y="-318.8" font-family="Times,serif" font-size="14.00">t4</text>
</g>
<!-- R00_Le3 -->
<g id="node4" class="node">
<title>R00_Le3</title>
<ellipse fill="#ffffff" stroke="black" cx="123" cy="-453" rx="50.89" ry="18"/>
<text text-anchor="middle" x="123" y="-449.3" font-family="Times,serif" font-size="14.00">R00_Le3</text>
</g>
<!-- R00_Le3&#45;&gt;R01_L23 -->
<g id="edge5" class="edge">
<title>R00_Le3&#45;&gt;R01_L23</title>
<path fill="none" stroke="black" d="M125.23,-434.8C126.73,-423.16 128.75,-407.55 130.48,-394.24"/>
<polygon fill="black" stroke="black" points="133.96,-394.54 131.78,-384.18 127.02,-393.64 133.96,-394.54"/>
<text text-anchor="middle" x="147" y="-405.8" font-family="Times,serif" font-size="14.00">t3O3</text>
</g>
<!-- R10_Le3 -->
<g id="node13" class="node">
<title>R10_Le3</title>
<ellipse fill="#ffffff" stroke="black" cx="135" cy="-192" rx="50.89" ry="18"/>
<text text-anchor="middle" x="135" y="-188.3" font-family="Times,serif" font-size="14.00">R10_Le3</text>
</g>
<!-- R00_L2e&#45;&gt;R10_Le3 -->
<g id="edge6" class="edge">
<title>R00_L2e&#45;&gt;R10_Le3</title>
<path fill="none" stroke="black" d="M141.38,-260.8C140.29,-249.16 138.82,-233.55 137.56,-220.24"/>
<polygon fill="black" stroke="black" points="141.04,-219.8 136.62,-210.18 134.07,-220.46 141.04,-219.8"/>
<text text-anchor="middle" x="157" y="-231.8" font-family="Times,serif" font-size="14.00">t1O2</text>
</g>
<!-- R11_Lee -->
<g id="node6" class="node">
<title>R11_Lee</title>
<ellipse fill="#ffeeee" stroke="black" cx="207" cy="-540" rx="50.09" ry="18"/>
<text text-anchor="middle" x="207" y="-536.3" font-family="Times,serif" font-size="14.00">R11_Lee</text>
</g>
<!-- R01_Le3 -->
<g id="node11" class="node">
<title>R01_Le3</title>
<ellipse fill="#ffffff" stroke="black" cx="254" cy="-453" rx="50.89" ry="18"/>
<text text-anchor="middle" x="254" y="-449.3" font-family="Times,serif" font-size="14.00">R01_Le3</text>
</g>
<!-- R11_Lee&#45;&gt;R01_Le3 -->
<g id="edge7" class="edge">
<title>R11_Lee&#45;&gt;R01_Le3</title>
<path fill="none" stroke="black" d="M216.29,-522.21C222.98,-510.1 232.14,-493.53 239.76,-479.76"/>
<polygon fill="black" stroke="black" points="242.96,-481.2 244.73,-470.76 236.83,-477.82 242.96,-481.2"/>
<text text-anchor="middle" x="244" y="-492.8" font-family="Times,serif" font-size="14.00">t2r</text>
</g>
<!-- R11_Le3&#45;&gt;R11_Lee -->
<g id="edge8" class="edge">
<title>R11_Le3&#45;&gt;R11_Lee</title>
<path fill="none" stroke="black" d="M156.45,-609.21C165.65,-596.79 178.34,-579.67 188.7,-565.7"/>
<polygon fill="black" stroke="black" points="191.65,-567.59 194.79,-557.47 186.03,-563.42 191.65,-567.59"/>
<text text-anchor="middle" x="189.5" y="-579.8" font-family="Times,serif" font-size="14.00">t5f</text>
</g>
<!-- R10_Lee -->
<g id="node10" class="node">
<title>R10_Lee</title>
<ellipse fill="#ffeeee" stroke="black" cx="89" cy="-540" rx="50.09" ry="18"/>
<text text-anchor="middle" x="89" y="-536.3" font-family="Times,serif" font-size="14.00">R10_Lee</text>
</g>
<!-- R11_Le3&#45;&gt;R10_Lee -->
<g id="edge9" class="edge">
<title>R11_Le3&#45;&gt;R10_Lee</title>
<path fill="none" stroke="black" d="M133.13,-609.21C125.22,-596.98 114.37,-580.21 105.41,-566.36"/>
<polygon fill="black" stroke="black" points="108.21,-564.25 99.84,-557.76 102.34,-568.06 108.21,-564.25"/>
<text text-anchor="middle" x="127" y="-579.8" font-family="Times,serif" font-size="14.00">t4</text>
</g>
<!-- R01_Lee -->
<g id="node8" class="node">
<title>R01_Lee</title>
<ellipse fill="#ffeeee" stroke="black" cx="254" cy="-366" rx="50.09" ry="18"/>
<text text-anchor="middle" x="254" y="-362.3" font-family="Times,serif" font-size="14.00">R01_Lee</text>
</g>
<!-- R11_L2e -->
<g id="node9" class="node">
<title>R11_L2e</title>
<ellipse fill="#ffffff" stroke="black" cx="135" cy="-18" rx="50.89" ry="18"/>
<text text-anchor="middle" x="135" y="-14.3" font-family="Times,serif" font-size="14.00">R11_L2e</text>
</g>
<!-- R11_L2e&#45;&gt;R01_L23 -->
<g id="edge10" class="edge">
<title>R11_L2e&#45;&gt;R01_L23</title>
<path fill="none" stroke="black" d="M164.45,-32.7C189.69,-46.7 222,-71.06 222,-104 222,-280 222,-280 222,-280 222,-309.19 196.63,-331.54 173.14,-345.98"/>
<polygon fill="black" stroke="black" points="171.17,-343.07 164.28,-351.12 174.69,-349.13 171.17,-343.07"/>
<text text-anchor="middle" x="233" y="-188.3" font-family="Times,serif" font-size="14.00">t2r</text>
</g>
<!-- R10_Lee&#45;&gt;R00_Le3 -->
<g id="edge12" class="edge">
<title>R10_Lee&#45;&gt;R00_Le3</title>
<path fill="none" stroke="black" d="M95.88,-521.8C100.66,-509.85 107.11,-493.72 112.53,-480.18"/>
<polygon fill="black" stroke="black" points="115.78,-481.47 116.25,-470.89 109.28,-478.87 115.78,-481.47"/>
<text text-anchor="middle" x="119" y="-492.8" font-family="Times,serif" font-size="14.00">t2r</text>
</g>
<!-- R10_Lee&#45;&gt;R11_L2e -->
<g id="edge11" class="edge">
<title>R10_Lee&#45;&gt;R11_L2e</title>
<path fill="none" stroke="black" d="M72.02,-522.82C57.18,-506.87 38,-481.02 38,-454 38,-454 38,-454 38,-104 38,-72.75 66.82,-50.32 93.04,-36.37"/>
<polygon fill="black" stroke="black" points="94.8,-39.4 102.16,-31.79 91.65,-33.15 94.8,-39.4"/>
<text text-anchor="middle" x="56" y="-275.3" font-family="Times,serif" font-size="14.00">t3O3</text>
</g>
<!-- R01_Le3&#45;&gt;R00_Lee -->
<g id="edge14" class="edge">
<title>R01_Le3&#45;&gt;R00_Lee</title>
<path fill="none" stroke="black" d="M264.15,-470.92C273.19,-487.62 285,-514.18 285,-539 285,-715 285,-715 285,-715 285,-737.15 273.07,-759.28 261.63,-775.41"/>
<polygon fill="black" stroke="black" points="258.61,-773.61 255.41,-783.71 264.21,-777.81 258.61,-773.61"/>
<text text-anchor="middle" x="293" y="-623.3" font-family="Times,serif" font-size="14.00">t4</text>
</g>
<!-- R01_Le3&#45;&gt;R01_Lee -->
<g id="edge13" class="edge">
<title>R01_Le3&#45;&gt;R01_Lee</title>
<path fill="none" stroke="black" d="M254,-434.8C254,-423.16 254,-407.55 254,-394.24"/>
<polygon fill="black" stroke="black" points="257.5,-394.18 254,-384.18 250.5,-394.18 257.5,-394.18"/>
<text text-anchor="middle" x="264.5" y="-405.8" font-family="Times,serif" font-size="14.00">t5f</text>
</g>
<!-- R11_L23 -->
<g id="node12" class="node">
<title>R11_L23</title>
<ellipse fill="#ffffff" stroke="black" cx="135" cy="-105" rx="51.19" ry="18"/>
<text text-anchor="middle" x="135" y="-101.3" font-family="Times,serif" font-size="14.00">R11_L23</text>
</g>
<!-- R11_L23&#45;&gt;R11_L2e -->
<g id="edge15" class="edge">
<title>R11_L23&#45;&gt;R11_L2e</title>
<path fill="none" stroke="black" d="M135,-86.8C135,-75.16 135,-59.55 135,-46.24"/>
<polygon fill="black" stroke="black" points="138.5,-46.18 135,-36.18 131.5,-46.18 138.5,-46.18"/>
<text text-anchor="middle" x="145.5" y="-57.8" font-family="Times,serif" font-size="14.00">t5f</text>
</g>
<!-- R10_Le3&#45;&gt;R11_L23 -->
<g id="edge16" class="edge">
<title>R10_Le3&#45;&gt;R11_L23</title>
<path fill="none" stroke="black" d="M135,-173.8C135,-162.16 135,-146.55 135,-133.24"/>
<polygon fill="black" stroke="black" points="138.5,-133.18 135,-123.18 131.5,-133.18 138.5,-133.18"/>
<text text-anchor="middle" x="153" y="-144.8" font-family="Times,serif" font-size="14.00">t3O3</text>
</g>
</g>
</svg>
