<?xml version="1.0" encoding="UTF-8" standalone="no"?>
<!DOCTYPE svg PUBLIC "-//W3C//DTD SVG 1.1//EN"
 "http://www.w3.org/Graphics/SVG/1.1/DTD/svg11.dtd">
<!-- Generated by graphviz version 2.43.0 (0)
 -->
<!-- Title: SCinput/e Pages: 1 -->
<svg width="349pt" height="827pt"
 viewBox="0.00 0.00 349.39 827.00" xmlns="http://www.w3.org/2000/svg" xmlns:xlink="http://www.w3.org/1999/xlink">
<g id="graph0" class="graph" transform="scale(1 1) rotate(0) translate(4 823)">
<title>SCinput/e</title>
<polygon fill="white" stroke="transparent" points="-4,4 -4,-823 345.39,-823 345.39,4 -4,4"/>
<!-- R00_Lee -->
<g id="node1" class="node">
<title>R00_Lee</title>
<ellipse fill="#ffeeee" stroke="black" cx="216.7" cy="-801" rx="50.09" ry="18"/>
<text text-anchor="middle" x="216.7" y="-797.3" font-family="Times,serif" font-size="14.00">R00_Lee</text>
</g>
<!-- R01_L2e -->
<g id="node2" class="node">
<title>R01_L2e</title>
<ellipse fill="#ffffff" stroke="black" cx="172.7" cy="-714" rx="50.89" ry="18"/>
<text text-anchor="middle" x="172.7" y="-710.3" font-family="Times,serif" font-size="14.00">R01_L2e</text>
</g>
<!-- R00_Lee&#45;&gt;R01_L2e -->
<g id="edge1" class="edge">
<title>R00_Lee&#45;&gt;R01_L2e</title>
<path fill="none" stroke="black" d="M208,-783.21C201.74,-771.1 193.16,-754.53 186.03,-740.76"/>
<polygon fill="black" stroke="black" points="189.08,-739.03 181.37,-731.76 182.86,-742.25 189.08,-739.03"/>
<text text-anchor="middle" x="215.7" y="-753.8" font-family="Times,serif" font-size="14.00">t3O3</text>
</g>
<!-- R11_Le3 -->
<g id="node3" class="node">
<title>R11_Le3</title>
<ellipse fill="#ffffff" stroke="black" cx="172.7" cy="-627" rx="50.89" ry="18"/>
<text text-anchor="middle" x="172.7" y="-623.3" font-family="Times,serif" font-size="14.00">R11_Le3</text>
</g>
<!-- R01_L2e&#45;&gt;R11_Le3 -->
<g id="edge2" class="edge">
<title>R01_L2e&#45;&gt;R11_Le3</title>
<path fill="none" stroke="black" d="M172.7,-695.8C172.7,-684.16 172.7,-668.55 172.7,-655.24"/>
<polygon fill="black" stroke="black" points="176.2,-655.18 172.7,-645.18 169.2,-655.18 176.2,-655.18"/>
<text text-anchor="middle" x="190.7" y="-666.8" font-family="Times,serif" font-size="14.00">t1O2</text>
</g>
<!-- R10_Lee -->
<g id="node4" class="node">
<title>R10_Lee</title>
<ellipse fill="#ffeeee" stroke="black" cx="118.7" cy="-540" rx="50.09" ry="18"/>
<text text-anchor="middle" x="118.7" y="-536.3" font-family="Times,serif" font-size="14.00">R10_Lee</text>
</g>
<!-- R11_Le3&#45;&gt;R10_Lee -->
<g id="edge4" class="edge">
<title>R11_Le3&#45;&gt;R10_Lee</title>
<path fill="none" stroke="black" d="M162.03,-609.21C154.26,-596.98 143.61,-580.21 134.81,-566.36"/>
<polygon fill="black" stroke="black" points="137.66,-564.32 129.34,-557.76 131.75,-568.08 137.66,-564.32"/>
<text text-anchor="middle" x="157.7" y="-579.8" font-family="Times,serif" font-size="14.00">t4</text>
</g>
<!-- R11_Lee -->
<g id="node11" class="node">
<title>R11_Lee</title>
<ellipse fill="#ffeeee" stroke="black" cx="236.7" cy="-540" rx="50.09" ry="18"/>
<text text-anchor="middle" x="236.7" y="-536.3" font-family="Times,serif" font-size="14.00">R11_Lee</text>
</g>
<!-- R11_Le3&#45;&gt;R11_Lee -->
<g id="edge3" class="edge">
<title>R11_Le3&#45;&gt;R11_Lee</title>
<path fill="none" stroke="black" d="M185.34,-609.21C194.69,-596.79 207.58,-579.67 218.1,-565.7"/>
<polygon fill="black" stroke="black" points="221.08,-567.56 224.3,-557.47 215.48,-563.35 221.08,-567.56"/>
<text text-anchor="middle" x="219.2" y="-579.8" font-family="Times,serif" font-size="14.00">t5f</text>
</g>
<!-- R00_Le3 -->
<g id="node5" class="node">
<title>R00_Le3</title>
<ellipse fill="#ffffff" stroke="black" cx="108.7" cy="-453" rx="50.89" ry="18"/>
<text text-anchor="middle" x="108.7" y="-449.3" font-family="Times,serif" font-size="14.00">R00_Le3</text>
</g>
<!-- R10_Lee&#45;&gt;R00_Le3 -->
<g id="edge6" class="edge">
<title>R10_Lee&#45;&gt;R00_Le3</title>
<path fill="none" stroke="black" d="M116.67,-521.8C115.3,-510.16 113.47,-494.55 111.9,-481.24"/>
<polygon fill="black" stroke="black" points="115.36,-480.7 110.72,-471.18 108.41,-481.52 115.36,-480.7"/>
<text text-anchor="middle" x="125.7" y="-492.8" font-family="Times,serif" font-size="14.00">t2r</text>
</g>
<!-- R11_L2e -->
<g id="node10" class="node">
<title>R11_L2e</title>
<ellipse fill="#ffffff" stroke="black" cx="137.7" cy="-18" rx="50.89" ry="18"/>
<text text-anchor="middle" x="137.7" y="-14.3" font-family="Times,serif" font-size="14.00">R11_L2e</text>
</g>
<!-- R10_Lee&#45;&gt;R11_L2e -->
<g id="edge5" class="edge">
<title>R10_Lee&#45;&gt;R11_L2e</title>
<path fill="none" stroke="black" d="M142.06,-523.8C162.07,-508.73 187.7,-483.65 187.7,-454 187.7,-454 187.7,-454 187.7,-104 187.7,-81.11 174.06,-58.95 161.03,-42.99"/>
<polygon fill="black" stroke="black" points="163.53,-40.53 154.34,-35.24 158.23,-45.1 163.53,-40.53"/>
<text text-anchor="middle" x="205.7" y="-275.3" font-family="Times,serif" font-size="14.00">t3O3</text>
</g>
<!-- R01_L23 -->
<g id="node6" class="node">
<title>R01_L23</title>
<ellipse fill="#ffffff" stroke="black" cx="99.7" cy="-366" rx="51.19" ry="18"/>
<text text-anchor="middle" x="99.7" y="-362.3" font-family="Times,serif" font-size="14.00">R01_L23</text>
</g>
<!-- R00_Le3&#45;&gt;R01_L23 -->
<g id="edge7" class="edge">
<title>R00_Le3&#45;&gt;R01_L23</title>
<path fill="none" stroke="black" d="M106.87,-434.8C105.64,-423.16 103.99,-407.55 102.58,-394.24"/>
<polygon fill="black" stroke="black" points="106.05,-393.75 101.51,-384.18 99.09,-394.49 106.05,-393.75"/>
<text text-anchor="middle" x="123.7" y="-405.8" font-family="Times,serif" font-size="14.00">t3O3</text>
</g>
<!-- R01_L23&#45;&gt;R01_L2e -->
<g id="edge8" class="edge">
<title>R01_L23&#45;&gt;R01_L2e</title>
<path fill="none" stroke="black" d="M76,-382.13C55.69,-397.14 29.7,-422.18 29.7,-452 29.7,-628 29.7,-628 29.7,-628 29.7,-670.69 77.37,-692.42 117.66,-703.16"/>
<polygon fill="black" stroke="black" points="116.9,-706.58 127.45,-705.6 118.59,-699.79 116.9,-706.58"/>
<text text-anchor="middle" x="40.2" y="-536.3" font-family="Times,serif" font-size="14.00">t5f</text>
</g>
<!-- R00_L2e -->
<g id="node7" class="node">
<title>R00_L2e</title>
<ellipse fill="#ffffff" stroke="black" cx="56.7" cy="-279" rx="50.89" ry="18"/>
<text text-anchor="middle" x="56.7" y="-275.3" font-family="Times,serif" font-size="14.00">R00_L2e</text>
</g>
<!-- R01_L23&#45;&gt;R00_L2e -->
<g id="edge9" class="edge">
<title>R01_L23&#45;&gt;R00_L2e</title>
<path fill="none" stroke="black" d="M91.2,-348.21C85.08,-336.1 76.69,-319.53 69.73,-305.76"/>
<polygon fill="black" stroke="black" points="72.81,-304.1 65.17,-296.76 66.56,-307.26 72.81,-304.1"/>
<text text-anchor="middle" x="89.7" y="-318.8" font-family="Times,serif" font-size="14.00">t4</text>
</g>
<!-- R10_Le3 -->
<g id="node8" class="node">
<title>R10_Le3</title>
<ellipse fill="#ffffff" stroke="black" cx="50.7" cy="-192" rx="50.89" ry="18"/>
<text text-anchor="middle" x="50.7" y="-188.3" font-family="Times,serif" font-size="14.00">R10_Le3</text>
</g>
<!-- R00_L2e&#45;&gt;R10_Le3 -->
<g id="edge10" class="edge">
<title>R00_L2e&#45;&gt;R10_Le3</title>
<path fill="none" stroke="black" d="M55.48,-260.8C54.66,-249.16 53.56,-233.55 52.62,-220.24"/>
<polygon fill="black" stroke="black" points="56.1,-219.9 51.91,-210.18 49.12,-220.4 56.1,-219.9"/>
<text text-anchor="middle" x="72.7" y="-231.8" font-family="Times,serif" font-size="14.00">t1O2</text>
</g>
<!-- R11_L23 -->
<g id="node9" class="node">
<title>R11_L23</title>
<ellipse fill="#ffffff" stroke="black" cx="56.7" cy="-105" rx="51.19" ry="18"/>
<text text-anchor="middle" x="56.7" y="-101.3" font-family="Times,serif" font-size="14.00">R11_L23</text>
</g>
<!-- R10_Le3&#45;&gt;R11_L23 -->
<g id="edge11" class="edge">
<title>R10_Le3&#45;&gt;R11_L23</title>
<path fill="none" stroke="black" d="M51.91,-173.8C52.73,-162.16 53.83,-146.55 54.77,-133.24"/>
<polygon fill="black" stroke="black" points="58.27,-133.4 55.48,-123.18 51.29,-132.9 58.27,-133.4"/>
<text text-anchor="middle" x="72.7" y="-144.8" font-family="Times,serif" font-size="14.00">t3O3</text>
</g>
<!-- R11_L23&#45;&gt;R11_L2e -->
<g id="edge12" class="edge">
<title>R11_L23&#45;&gt;R11_L2e</title>
<path fill="none" stroke="black" d="M71.44,-87.63C80.38,-77.79 92.08,-65.07 102.7,-54 106.32,-50.22 110.2,-46.26 114.01,-42.41"/>
<polygon fill="black" stroke="black" points="116.58,-44.79 121.17,-35.24 111.63,-39.85 116.58,-44.79"/>
<text text-anchor="middle" x="113.2" y="-57.8" font-family="Times,serif" font-size="14.00">t5f</text>
</g>
<!-- R11_L2e&#45;&gt;R01_L23 -->
<g id="edge13" class="edge">
<title>R11_L2e&#45;&gt;R01_L23</title>
<path fill="none" stroke="black" d="M137.7,-36.26C137.7,-53.43 137.7,-80.54 137.7,-104 137.7,-280 137.7,-280 137.7,-280 137.7,-301.35 127.58,-323.3 117.79,-339.54"/>
<polygon fill="black" stroke="black" points="114.56,-338.08 112.14,-348.4 120.47,-341.85 114.56,-338.08"/>
<text text-anchor="middle" x="148.7" y="-188.3" font-family="Times,serif" font-size="14.00">t2r</text>
</g>
<!-- R01_Le3 -->
<g id="node12" class="node">
<title>R01_Le3</title>
<ellipse fill="#ffffff" stroke="black" cx="290.7" cy="-453" rx="50.89" ry="18"/>
<text text-anchor="middle" x="290.7" y="-449.3" font-family="Times,serif" font-size="14.00">R01_Le3</text>
</g>
<!-- R11_Lee&#45;&gt;R01_Le3 -->
<g id="edge14" class="edge">
<title>R11_Lee&#45;&gt;R01_Le3</title>
<path fill="none" stroke="black" d="M247.36,-522.21C255.13,-509.98 265.78,-493.21 274.58,-479.36"/>
<polygon fill="black" stroke="black" points="277.64,-481.08 280.05,-470.76 271.73,-477.32 277.64,-481.08"/>
<text text-anchor="middle" x="278.7" y="-492.8" font-family="Times,serif" font-size="14.00">t2r</text>
</g>
<!-- R01_Le3&#45;&gt;R00_Lee -->
<g id="edge16" class="edge">
<title>R01_Le3&#45;&gt;R00_Lee</title>
<path fill="none" stroke="black" d="M298.42,-470.86C305.44,-487.73 314.7,-514.62 314.7,-539 314.7,-715 314.7,-715 314.7,-715 314.7,-746.53 285.39,-768.99 258.83,-782.88"/>
<polygon fill="black" stroke="black" points="257.02,-779.87 249.6,-787.43 260.12,-786.15 257.02,-779.87"/>
<text text-anchor="middle" x="322.7" y="-623.3" font-family="Times,serif" font-size="14.00">t4</text>
</g>
<!-- R01_Lee -->
<g id="node13" class="node">
<title>R01_Lee</title>
<ellipse fill="#ffeeee" stroke="black" cx="290.7" cy="-366" rx="50.09" ry="18"/>
<text text-anchor="middle" x="290.7" y="-362.3" font-family="Times,serif" font-size="14.00">R01_Lee</text>
</g>
<!-- R01_Le3&#45;&gt;R01_Lee -->
<g id="edge15" class="edge">
<title>R01_Le3&#45;&gt;R01_Lee</title>
<path fill="none" stroke="black" d="M290.7,-434.8C290.7,-423.16 290.7,-407.55 290.7,-394.24"/>
<polygon fill="black" stroke="black" points="294.2,-394.18 290.7,-384.18 287.2,-394.18 294.2,-394.18"/>
<text text-anchor="middle" x="301.2" y="-405.8" font-family="Times,serif" font-size="14.00">t5f</text>
</g>
</g>
</svg>
