<?xml version="1.0" encoding="UTF-8" standalone="no"?>
<!DOCTYPE svg PUBLIC "-//W3C//DTD SVG 1.1//EN"
 "http://www.w3.org/Graphics/SVG/1.1/DTD/svg11.dtd">
<!-- Generated by graphviz version 2.43.0 (0)
 -->
<!-- Title: SCinput/e Pages: 1 -->
<svg width="602pt" height="2039pt"
 viewBox="0.00 0.00 601.84 2039.47" xmlns="http://www.w3.org/2000/svg" xmlns:xlink="http://www.w3.org/1999/xlink">
<g id="graph0" class="graph" transform="scale(1 1) rotate(0) translate(4 2035.47)">
<title>SCinput/e</title>
<polygon fill="white" stroke="transparent" points="-4,4 -4,-2035.47 597.84,-2035.47 597.84,4 -4,4"/>
<!-- R00_Lee_O0 -->
<g id="node1" class="node">
<title>R00_Lee_O0</title>
<ellipse fill="none" stroke="black" cx="298.24" cy="-1959.87" rx="67.68" ry="67.68"/>
<ellipse fill="none" stroke="black" cx="298.24" cy="-1959.87" rx="71.69" ry="71.69"/>
<text text-anchor="middle" x="298.24" y="-1956.17" font-family="Times,serif" font-size="14.00">R00_Lee_O0</text>
</g>
<!-- R01_L2e_O1 -->
<g id="node2" class="node">
<title>R01_L2e_O1</title>
<ellipse fill="none" stroke="black" cx="298.24" cy="-1769.04" rx="68.49" ry="68.49"/>
<text text-anchor="middle" x="298.24" y="-1765.34" font-family="Times,serif" font-size="14.00">R01_L2e_O1</text>
</g>
<!-- R00_Lee_O0&#45;&gt;R01_L2e_O1 -->
<g id="edge1" class="edge">
<title>R00_Lee_O0&#45;&gt;R01_L2e_O1</title>
<path fill="none" stroke="black" d="M298.24,-1888.02C298.24,-1874.84 298.24,-1861.01 298.24,-1847.65"/>
<polygon fill="black" stroke="black" points="301.74,-1847.53 298.24,-1837.53 294.74,-1847.53 301.74,-1847.53"/>
<text text-anchor="middle" x="316.24" y="-1859.08" font-family="Times,serif" font-size="14.00">t3O3</text>
</g>
<!-- R11_Le3_O2 -->
<g id="node3" class="node">
<title>R11_Le3_O2</title>
<ellipse fill="none" stroke="black" cx="298.24" cy="-1581.55" rx="68.49" ry="68.49"/>
<text text-anchor="middle" x="298.24" y="-1577.85" font-family="Times,serif" font-size="14.00">R11_Le3_O2</text>
</g>
<!-- R01_L2e_O1&#45;&gt;R11_Le3_O2 -->
<g id="edge2" class="edge">
<title>R01_L2e_O1&#45;&gt;R11_Le3_O2</title>
<path fill="none" stroke="black" d="M298.24,-1700.55C298.24,-1687.42 298.24,-1673.57 298.24,-1660.15"/>
<polygon fill="black" stroke="black" points="301.74,-1659.99 298.24,-1649.99 294.74,-1659.99 301.74,-1659.99"/>
<text text-anchor="middle" x="316.24" y="-1671.59" font-family="Times,serif" font-size="14.00">t1O2</text>
</g>
<!-- R10_Lee_O2 -->
<g id="node4" class="node">
<title>R10_Lee_O2</title>
<ellipse fill="none" stroke="black" cx="222.24" cy="-1394.71" rx="67.69" ry="67.69"/>
<text text-anchor="middle" x="222.24" y="-1391.01" font-family="Times,serif" font-size="14.00">R10_Lee_O2</text>
</g>
<!-- R11_Le3_O2&#45;&gt;R10_Lee_O2 -->
<g id="edge4" class="edge">
<title>R11_Le3_O2&#45;&gt;R10_Lee_O2</title>
<path fill="none" stroke="black" d="M272.62,-1518.23C265.82,-1501.69 258.43,-1483.71 251.45,-1466.75"/>
<polygon fill="black" stroke="black" points="254.67,-1465.36 247.63,-1457.44 248.19,-1468.02 254.67,-1465.36"/>
<text text-anchor="middle" x="271.24" y="-1484.1" font-family="Times,serif" font-size="14.00">t4</text>
</g>
<!-- R11_Lee_O2 -->
<g id="node15" class="node">
<title>R11_Lee_O2</title>
<ellipse fill="none" stroke="black" cx="375.24" cy="-1394.71" rx="67.69" ry="67.69"/>
<text text-anchor="middle" x="375.24" y="-1391.01" font-family="Times,serif" font-size="14.00">R11_Lee_O2</text>
</g>
<!-- R11_Le3_O2&#45;&gt;R11_Lee_O2 -->
<g id="edge3" class="edge">
<title>R11_Le3_O2&#45;&gt;R11_Lee_O2</title>
<path fill="none" stroke="black" d="M324.21,-1518.23C331.09,-1501.69 338.58,-1483.71 345.65,-1466.75"/>
<polygon fill="black" stroke="black" points="348.91,-1468.02 349.53,-1457.44 342.45,-1465.33 348.91,-1468.02"/>
<text text-anchor="middle" x="355.74" y="-1484.1" font-family="Times,serif" font-size="14.00">t5R2</text>
</g>
<!-- R00_Le3_O2 -->
<g id="node5" class="node">
<title>R00_Le3_O2</title>
<ellipse fill="none" stroke="black" cx="68.24" cy="-1207.87" rx="68.49" ry="68.49"/>
<text text-anchor="middle" x="68.24" y="-1204.17" font-family="Times,serif" font-size="14.00">R00_Le3_O2</text>
</g>
<!-- R10_Lee_O2&#45;&gt;R00_Le3_O2 -->
<g id="edge6" class="edge">
<title>R10_Lee_O2&#45;&gt;R00_Le3_O2</title>
<path fill="none" stroke="black" d="M179.35,-1342.22C160.32,-1319.38 137.8,-1292.36 118.04,-1268.63"/>
<polygon fill="black" stroke="black" points="120.54,-1266.17 111.45,-1260.72 115.16,-1270.65 120.54,-1266.17"/>
<text text-anchor="middle" x="167.74" y="-1297.92" font-family="Times,serif" font-size="14.00">t2R1</text>
</g>
<!-- R11_L2e_O3 -->
<g id="node14" class="node">
<title>R11_L2e_O3</title>
<ellipse fill="none" stroke="black" cx="222.24" cy="-1207.87" rx="68.49" ry="68.49"/>
<text text-anchor="middle" x="222.24" y="-1204.17" font-family="Times,serif" font-size="14.00">R11_L2e_O3</text>
</g>
<!-- R10_Lee_O2&#45;&gt;R11_L2e_O3 -->
<g id="edge5" class="edge">
<title>R10_Lee_O2&#45;&gt;R11_L2e_O3</title>
<path fill="none" stroke="black" d="M222.24,-1326.98C222.24,-1313.79 222.24,-1299.85 222.24,-1286.35"/>
<polygon fill="black" stroke="black" points="225.74,-1286.12 222.24,-1276.13 218.74,-1286.13 225.74,-1286.12"/>
<text text-anchor="middle" x="240.24" y="-1297.92" font-family="Times,serif" font-size="14.00">t3O3</text>
</g>
<!-- R01_L23_O3 -->
<g id="node6" class="node">
<title>R01_L23_O3</title>
<ellipse fill="none" stroke="black" cx="222.24" cy="-1019.73" rx="68.79" ry="68.79"/>
<text text-anchor="middle" x="222.24" y="-1016.03" font-family="Times,serif" font-size="14.00">R01_L23_O3</text>
</g>
<!-- R00_Le3_O2&#45;&gt;R01_L23_O3 -->
<g id="edge7" class="edge">
<title>R00_Le3_O2&#45;&gt;R01_L23_O3</title>
<path fill="none" stroke="black" d="M111.55,-1154.53C130.41,-1131.73 152.64,-1104.87 172.2,-1081.22"/>
<polygon fill="black" stroke="black" points="175.05,-1083.27 178.73,-1073.33 169.66,-1078.8 175.05,-1083.27"/>
<text text-anchor="middle" x="168.24" y="-1110.43" font-family="Times,serif" font-size="14.00">t3O3</text>
</g>
<!-- R01_L2e_O3 -->
<g id="node7" class="node">
<title>R01_L2e_O3</title>
<ellipse fill="none" stroke="black" cx="299.24" cy="-831.6" rx="68.49" ry="68.49"/>
<text text-anchor="middle" x="299.24" y="-827.9" font-family="Times,serif" font-size="14.00">R01_L2e_O3</text>
</g>
<!-- R01_L23_O3&#45;&gt;R01_L2e_O3 -->
<g id="edge8" class="edge">
<title>R01_L23_O3&#45;&gt;R01_L2e_O3</title>
<path fill="none" stroke="black" d="M248.31,-955.72C255.16,-939.16 262.59,-921.19 269.61,-904.22"/>
<polygon fill="black" stroke="black" points="272.88,-905.5 273.46,-894.92 266.41,-902.82 272.88,-905.5"/>
<text text-anchor="middle" x="280.74" y="-921.64" font-family="Times,serif" font-size="14.00">t5R2</text>
</g>
<!-- R11_Le3_O4 -->
<g id="node8" class="node">
<title>R11_Le3_O4</title>
<ellipse fill="none" stroke="black" cx="299.24" cy="-644.11" rx="68.49" ry="68.49"/>
<text text-anchor="middle" x="299.24" y="-640.41" font-family="Times,serif" font-size="14.00">R11_Le3_O4</text>
</g>
<!-- R01_L2e_O3&#45;&gt;R11_Le3_O4 -->
<g id="edge9" class="edge">
<title>R01_L2e_O3&#45;&gt;R11_Le3_O4</title>
<path fill="none" stroke="black" d="M299.24,-763.11C299.24,-749.98 299.24,-736.13 299.24,-722.71"/>
<polygon fill="black" stroke="black" points="302.74,-722.55 299.24,-712.55 295.74,-722.55 302.74,-722.55"/>
<text text-anchor="middle" x="317.24" y="-734.15" font-family="Times,serif" font-size="14.00">t1O2</text>
</g>
<!-- R10_Lee_O4 -->
<g id="node9" class="node">
<title>R10_Lee_O4</title>
<ellipse fill="none" stroke="black" cx="280.24" cy="-453.27" rx="67.68" ry="67.68"/>
<ellipse fill="none" stroke="black" cx="280.24" cy="-453.27" rx="71.69" ry="71.69"/>
<text text-anchor="middle" x="280.24" y="-449.57" font-family="Times,serif" font-size="14.00">R10_Lee_O4</text>
</g>
<!-- R11_Le3_O4&#45;&gt;R10_Lee_O4 -->
<g id="edge11" class="edge">
<title>R11_Le3_O4&#45;&gt;R10_Lee_O4</title>
<path fill="none" stroke="black" d="M292.49,-576C291.16,-562.74 289.74,-548.69 288.37,-535.03"/>
<polygon fill="black" stroke="black" points="291.81,-534.28 287.33,-524.68 284.85,-534.98 291.81,-534.28"/>
<text text-anchor="middle" x="299.24" y="-546.66" font-family="Times,serif" font-size="14.00">t4</text>
</g>
<!-- R11_Lee_O4 -->
<g id="node10" class="node">
<title>R11_Lee_O4</title>
<ellipse fill="none" stroke="black" cx="441.24" cy="-453.27" rx="67.68" ry="67.68"/>
<ellipse fill="none" stroke="black" cx="441.24" cy="-453.27" rx="71.69" ry="71.69"/>
<text text-anchor="middle" x="441.24" y="-449.57" font-family="Times,serif" font-size="14.00">R11_Lee_O4</text>
</g>
<!-- R11_Le3_O4&#45;&gt;R11_Lee_O4 -->
<g id="edge10" class="edge">
<title>R11_Le3_O4&#45;&gt;R11_Lee_O4</title>
<path fill="none" stroke="black" d="M339.94,-588.99C356.29,-567.25 375.28,-542 392.37,-519.27"/>
<polygon fill="black" stroke="black" points="395.35,-521.12 398.57,-511.02 389.76,-516.91 395.35,-521.12"/>
<text text-anchor="middle" x="391.74" y="-546.66" font-family="Times,serif" font-size="14.00">t5R2</text>
</g>
<!-- R01_Le3_O4 -->
<g id="node11" class="node">
<title>R01_Le3_O4</title>
<ellipse fill="none" stroke="black" cx="441.24" cy="-262.43" rx="68.49" ry="68.49"/>
<text text-anchor="middle" x="441.24" y="-258.73" font-family="Times,serif" font-size="14.00">R01_Le3_O4</text>
</g>
<!-- R11_Lee_O4&#45;&gt;R01_Le3_O4 -->
<g id="edge12" class="edge">
<title>R11_Lee_O4&#45;&gt;R01_Le3_O4</title>
<path fill="none" stroke="black" d="M441.24,-381.42C441.24,-368.24 441.24,-354.41 441.24,-341.04"/>
<polygon fill="black" stroke="black" points="444.74,-340.93 441.24,-330.93 437.74,-340.93 444.74,-340.93"/>
<text text-anchor="middle" x="458.74" y="-352.48" font-family="Times,serif" font-size="14.00">t2R1</text>
</g>
<!-- R00_Lee_O4 -->
<g id="node12" class="node">
<title>R00_Lee_O4</title>
<ellipse fill="none" stroke="black" cx="361.24" cy="-71.59" rx="67.68" ry="67.68"/>
<ellipse fill="none" stroke="black" cx="361.24" cy="-71.59" rx="71.69" ry="71.69"/>
<text text-anchor="middle" x="361.24" y="-67.89" font-family="Times,serif" font-size="14.00">R00_Lee_O4</text>
</g>
<!-- R01_Le3_O4&#45;&gt;R00_Lee_O4 -->
<g id="edge14" class="edge">
<title>R01_Le3_O4&#45;&gt;R00_Lee_O4</title>
<path fill="none" stroke="black" d="M414.94,-199.34C407.91,-182.74 400.23,-164.63 392.94,-147.42"/>
<polygon fill="black" stroke="black" points="396.06,-145.81 388.94,-137.97 389.62,-148.54 396.06,-145.81"/>
<text text-anchor="middle" x="411.24" y="-164.99" font-family="Times,serif" font-size="14.00">t4</text>
</g>
<!-- R01_Lee_O4 -->
<g id="node13" class="node">
<title>R01_Lee_O4</title>
<ellipse fill="none" stroke="black" cx="522.24" cy="-71.59" rx="67.68" ry="67.68"/>
<ellipse fill="none" stroke="black" cx="522.24" cy="-71.59" rx="71.69" ry="71.69"/>
<text text-anchor="middle" x="522.24" y="-67.89" font-family="Times,serif" font-size="14.00">R01_Lee_O4</text>
</g>
<!-- R01_Le3_O4&#45;&gt;R01_Lee_O4 -->
<g id="edge13" class="edge">
<title>R01_Le3_O4&#45;&gt;R01_Lee_O4</title>
<path fill="none" stroke="black" d="M467.88,-199.34C475.04,-182.65 482.85,-164.43 490.27,-147.14"/>
<polygon fill="black" stroke="black" points="493.62,-148.21 494.34,-137.64 487.18,-145.45 493.62,-148.21"/>
<text text-anchor="middle" x="500.74" y="-164.99" font-family="Times,serif" font-size="14.00">t5R2</text>
</g>
<!-- R11_L2e_O3&#45;&gt;R01_L23_O3 -->
<g id="edge15" class="edge">
<title>R11_L2e_O3&#45;&gt;R01_L23_O3</title>
<path fill="none" stroke="black" d="M222.24,-1139.41C222.24,-1126.31 222.24,-1112.48 222.24,-1099.06"/>
<polygon fill="black" stroke="black" points="225.74,-1098.9 222.24,-1088.9 218.74,-1098.9 225.74,-1098.9"/>
<text text-anchor="middle" x="239.74" y="-1110.43" font-family="Times,serif" font-size="14.00">t2R1</text>
</g>
<!-- R01_Le3_O2 -->
<g id="node16" class="node">
<title>R01_Le3_O2</title>
<ellipse fill="none" stroke="black" cx="376.24" cy="-1207.87" rx="68.49" ry="68.49"/>
<text text-anchor="middle" x="376.24" y="-1204.17" font-family="Times,serif" font-size="14.00">R01_Le3_O2</text>
</g>
<!-- R11_Lee_O2&#45;&gt;R01_Le3_O2 -->
<g id="edge16" class="edge">
<title>R11_Lee_O2&#45;&gt;R01_Le3_O2</title>
<path fill="none" stroke="black" d="M375.6,-1326.98C375.68,-1313.79 375.75,-1299.85 375.82,-1286.35"/>
<polygon fill="black" stroke="black" points="379.33,-1286.14 375.88,-1276.13 372.33,-1286.11 379.33,-1286.14"/>
<text text-anchor="middle" x="392.74" y="-1297.92" font-family="Times,serif" font-size="14.00">t2R1</text>
</g>
<!-- R00_Lee_O2 -->
<g id="node17" class="node">
<title>R00_Lee_O2</title>
<ellipse fill="none" stroke="black" cx="376.24" cy="-1019.73" rx="67.69" ry="67.69"/>
<text text-anchor="middle" x="376.24" y="-1016.03" font-family="Times,serif" font-size="14.00">R00_Lee_O2</text>
</g>
<!-- R01_Le3_O2&#45;&gt;R00_Lee_O2 -->
<g id="edge17" class="edge">
<title>R01_Le3_O2&#45;&gt;R00_Lee_O2</title>
<path fill="none" stroke="black" d="M376.24,-1139.41C376.24,-1125.76 376.24,-1111.32 376.24,-1097.38"/>
<polygon fill="black" stroke="black" points="379.74,-1097.34 376.24,-1087.34 372.74,-1097.34 379.74,-1097.34"/>
<text text-anchor="middle" x="384.24" y="-1110.43" font-family="Times,serif" font-size="14.00">t4</text>
</g>
<!-- R00_Lee_O2&#45;&gt;R01_L2e_O3 -->
<g id="edge18" class="edge">
<title>R00_Lee_O2&#45;&gt;R01_L2e_O3</title>
<path fill="none" stroke="black" d="M350.71,-957.01C343.77,-940.22 336.19,-921.9 329.03,-904.6"/>
<polygon fill="black" stroke="black" points="332.16,-903.01 325.1,-895.1 325.69,-905.68 332.16,-903.01"/>
<text text-anchor="middle" x="357.24" y="-921.64" font-family="Times,serif" font-size="14.00">t3O3</text>
</g>
</g>
</svg>
