<?xml version="1.0" encoding="UTF-8" standalone="no"?>
<!DOCTYPE svg PUBLIC "-//W3C//DTD SVG 1.1//EN"
 "http://www.w3.org/Graphics/SVG/1.1/DTD/svg11.dtd">
<!-- Generated by graphviz version 2.43.0 (0)
 -->
<!-- Title: SCinput/e Pages: 1 -->
<svg width="369pt" height="827pt"
 viewBox="0.00 0.00 369.39 827.00" xmlns="http://www.w3.org/2000/svg" xmlns:xlink="http://www.w3.org/1999/xlink">
<g id="graph0" class="graph" transform="scale(1 1) rotate(0) translate(4 823)">
<title>SCinput/e</title>
<polygon fill="white" stroke="transparent" points="-4,4 -4,-823 365.39,-823 365.39,4 -4,4"/>
<!-- R00_Lee -->
<g id="node1" class="node">
<title>R00_Lee</title>
<ellipse fill="none" stroke="black" cx="252.7" cy="-801" rx="50.09" ry="18"/>
<text text-anchor="middle" x="252.7" y="-797.3" font-family="Times,serif" font-size="14.00">R00_Lee</text>
</g>
<!-- R01_L2e -->
<g id="node2" class="node">
<title>R01_L2e</title>
<ellipse fill="none" stroke="black" cx="200.7" cy="-714" rx="50.89" ry="18"/>
<text text-anchor="middle" x="200.7" y="-710.3" font-family="Times,serif" font-size="14.00">R01_L2e</text>
</g>
<!-- R00_Lee&#45;&gt;R01_L2e -->
<g id="edge1" class="edge">
<title>R00_Lee&#45;&gt;R01_L2e</title>
<path fill="none" stroke="black" d="M242.42,-783.21C234.94,-770.98 224.69,-754.21 216.21,-740.36"/>
<polygon fill="black" stroke="black" points="219.15,-738.46 210.95,-731.76 213.18,-742.12 219.15,-738.46"/>
<text text-anchor="middle" x="248.7" y="-753.8" font-family="Times,serif" font-size="14.00">t3O3</text>
</g>
<!-- R11_Le3 -->
<g id="node3" class="node">
<title>R11_Le3</title>
<ellipse fill="none" stroke="black" cx="200.7" cy="-627" rx="50.89" ry="18"/>
<text text-anchor="middle" x="200.7" y="-623.3" font-family="Times,serif" font-size="14.00">R11_Le3</text>
</g>
<!-- R01_L2e&#45;&gt;R11_Le3 -->
<g id="edge2" class="edge">
<title>R01_L2e&#45;&gt;R11_Le3</title>
<path fill="none" stroke="black" d="M200.7,-695.8C200.7,-684.16 200.7,-668.55 200.7,-655.24"/>
<polygon fill="black" stroke="black" points="204.2,-655.18 200.7,-645.18 197.2,-655.18 204.2,-655.18"/>
<text text-anchor="middle" x="218.7" y="-666.8" font-family="Times,serif" font-size="14.00">t1O2</text>
</g>
<!-- R10_Lee -->
<g id="node4" class="node">
<title>R10_Lee</title>
<ellipse fill="#ffeeee" stroke="black" cx="145.7" cy="-540" rx="50.09" ry="18"/>
<text text-anchor="middle" x="145.7" y="-536.3" font-family="Times,serif" font-size="14.00">R10_Lee</text>
</g>
<!-- R11_Le3&#45;&gt;R10_Lee -->
<g id="edge4" class="edge">
<title>R11_Le3&#45;&gt;R10_Lee</title>
<path fill="none" stroke="black" d="M189.83,-609.21C181.92,-596.98 171.07,-580.21 162.11,-566.36"/>
<polygon fill="black" stroke="black" points="164.91,-564.25 156.54,-557.76 159.03,-568.06 164.91,-564.25"/>
<text text-anchor="middle" x="184.7" y="-579.8" font-family="Times,serif" font-size="14.00">t4</text>
</g>
<!-- R11_Lee -->
<g id="node11" class="node">
<title>R11_Lee</title>
<ellipse fill="#ffeeee" stroke="black" cx="263.7" cy="-540" rx="50.09" ry="18"/>
<text text-anchor="middle" x="263.7" y="-536.3" font-family="Times,serif" font-size="14.00">R11_Lee</text>
</g>
<!-- R11_Le3&#45;&gt;R11_Lee -->
<g id="edge3" class="edge">
<title>R11_Le3&#45;&gt;R11_Lee</title>
<path fill="none" stroke="black" d="M213.14,-609.21C222.35,-596.79 235.03,-579.67 245.39,-565.7"/>
<polygon fill="black" stroke="black" points="248.35,-567.59 251.49,-557.47 242.72,-563.42 248.35,-567.59"/>
<text text-anchor="middle" x="254.2" y="-579.8" font-family="Times,serif" font-size="14.00">t5R2</text>
</g>
<!-- R00_Le3 -->
<g id="node5" class="node">
<title>R00_Le3</title>
<ellipse fill="#ffffff" stroke="black" cx="121.7" cy="-453" rx="50.89" ry="18"/>
<text text-anchor="middle" x="121.7" y="-449.3" font-family="Times,serif" font-size="14.00">R00_Le3</text>
</g>
<!-- R10_Lee&#45;&gt;R00_Le3 -->
<g id="edge6" class="edge">
<title>R10_Lee&#45;&gt;R00_Le3</title>
<path fill="none" stroke="black" d="M140.84,-521.8C137.52,-510.05 133.06,-494.24 129.27,-480.84"/>
<polygon fill="black" stroke="black" points="132.63,-479.85 126.55,-471.18 125.89,-481.75 132.63,-479.85"/>
<text text-anchor="middle" x="153.2" y="-492.8" font-family="Times,serif" font-size="14.00">t2R1</text>
</g>
<!-- R11_L2e -->
<g id="node10" class="node">
<title>R11_L2e</title>
<ellipse fill="#ffffff" stroke="black" cx="137.7" cy="-18" rx="50.89" ry="18"/>
<text text-anchor="middle" x="137.7" y="-14.3" font-family="Times,serif" font-size="14.00">R11_L2e</text>
</g>
<!-- R10_Lee&#45;&gt;R11_L2e -->
<g id="edge5" class="edge">
<title>R10_Lee&#45;&gt;R11_L2e</title>
<path fill="none" stroke="black" d="M164.01,-523.08C180.01,-507.31 200.7,-481.6 200.7,-454 200.7,-454 200.7,-454 200.7,-104 200.7,-79.15 183.1,-56.83 166.51,-41.3"/>
<polygon fill="black" stroke="black" points="168.83,-38.68 159.02,-34.66 164.18,-43.91 168.83,-38.68"/>
<text text-anchor="middle" x="218.7" y="-275.3" font-family="Times,serif" font-size="14.00">t3O3</text>
</g>
<!-- R01_L23 -->
<g id="node6" class="node">
<title>R01_L23</title>
<ellipse fill="#ffffff" stroke="black" cx="109.7" cy="-366" rx="51.19" ry="18"/>
<text text-anchor="middle" x="109.7" y="-362.3" font-family="Times,serif" font-size="14.00">R01_L23</text>
</g>
<!-- R00_Le3&#45;&gt;R01_L23 -->
<g id="edge7" class="edge">
<title>R00_Le3&#45;&gt;R01_L23</title>
<path fill="none" stroke="black" d="M119.27,-434.8C117.62,-423.16 115.42,-407.55 113.54,-394.24"/>
<polygon fill="black" stroke="black" points="116.98,-393.59 112.12,-384.18 110.05,-394.57 116.98,-393.59"/>
<text text-anchor="middle" x="134.7" y="-405.8" font-family="Times,serif" font-size="14.00">t3O3</text>
</g>
<!-- R01_L23&#45;&gt;R01_L2e -->
<g id="edge8" class="edge">
<title>R01_L23&#45;&gt;R01_L2e</title>
<path fill="none" stroke="black" d="M87.01,-382.36C67.58,-397.54 42.7,-422.69 42.7,-452 42.7,-628 42.7,-628 42.7,-628 42.7,-675.2 98.06,-696.31 143.24,-705.67"/>
<polygon fill="black" stroke="black" points="142.81,-709.15 153.29,-707.6 144.13,-702.28 142.81,-709.15"/>
<text text-anchor="middle" x="60.2" y="-536.3" font-family="Times,serif" font-size="14.00">t5R2</text>
</g>
<!-- R00_L2e -->
<g id="node7" class="node">
<title>R00_L2e</title>
<ellipse fill="#ffffff" stroke="black" cx="56.7" cy="-279" rx="50.89" ry="18"/>
<text text-anchor="middle" x="56.7" y="-275.3" font-family="Times,serif" font-size="14.00">R00_L2e</text>
</g>
<!-- R01_L23&#45;&gt;R00_L2e -->
<g id="edge9" class="edge">
<title>R01_L23&#45;&gt;R00_L2e</title>
<path fill="none" stroke="black" d="M99.22,-348.21C91.6,-335.98 81.15,-319.21 72.51,-305.36"/>
<polygon fill="black" stroke="black" points="75.41,-303.39 67.14,-296.76 69.47,-307.1 75.41,-303.39"/>
<text text-anchor="middle" x="94.7" y="-318.8" font-family="Times,serif" font-size="14.00">t4</text>
</g>
<!-- R10_Le3 -->
<g id="node8" class="node">
<title>R10_Le3</title>
<ellipse fill="#ffffff" stroke="black" cx="50.7" cy="-192" rx="50.89" ry="18"/>
<text text-anchor="middle" x="50.7" y="-188.3" font-family="Times,serif" font-size="14.00">R10_Le3</text>
</g>
<!-- R00_L2e&#45;&gt;R10_Le3 -->
<g id="edge10" class="edge">
<title>R00_L2e&#45;&gt;R10_Le3</title>
<path fill="none" stroke="black" d="M55.48,-260.8C54.66,-249.16 53.56,-233.55 52.62,-220.24"/>
<polygon fill="black" stroke="black" points="56.1,-219.9 51.91,-210.18 49.12,-220.4 56.1,-219.9"/>
<text text-anchor="middle" x="72.7" y="-231.8" font-family="Times,serif" font-size="14.00">t1O2</text>
</g>
<!-- R11_L23 -->
<g id="node9" class="node">
<title>R11_L23</title>
<ellipse fill="#ffffff" stroke="black" cx="56.7" cy="-105" rx="51.19" ry="18"/>
<text text-anchor="middle" x="56.7" y="-101.3" font-family="Times,serif" font-size="14.00">R11_L23</text>
</g>
<!-- R10_Le3&#45;&gt;R11_L23 -->
<g id="edge11" class="edge">
<title>R10_Le3&#45;&gt;R11_L23</title>
<path fill="none" stroke="black" d="M51.91,-173.8C52.73,-162.16 53.83,-146.55 54.77,-133.24"/>
<polygon fill="black" stroke="black" points="58.27,-133.4 55.48,-123.18 51.29,-132.9 58.27,-133.4"/>
<text text-anchor="middle" x="72.7" y="-144.8" font-family="Times,serif" font-size="14.00">t3O3</text>
</g>
<!-- R11_L23&#45;&gt;R11_L2e -->
<g id="edge12" class="edge">
<title>R11_L23&#45;&gt;R11_L2e</title>
<path fill="none" stroke="black" d="M65.35,-87.11C71.11,-76.85 79.32,-63.86 88.7,-54 93.49,-48.96 99.09,-44.18 104.77,-39.85"/>
<polygon fill="black" stroke="black" points="106.99,-42.57 113.06,-33.88 102.9,-36.89 106.99,-42.57"/>
<text text-anchor="middle" x="106.2" y="-57.8" font-family="Times,serif" font-size="14.00">t5R2</text>
</g>
<!-- R11_L2e&#45;&gt;R01_L23 -->
<g id="edge13" class="edge">
<title>R11_L2e&#45;&gt;R01_L23</title>
<path fill="none" stroke="black" d="M137.7,-36.26C137.7,-53.43 137.7,-80.54 137.7,-104 137.7,-280 137.7,-280 137.7,-280 137.7,-300.46 130.29,-322.36 123.09,-338.8"/>
<polygon fill="black" stroke="black" points="119.73,-337.73 118.71,-348.28 126.09,-340.67 119.73,-337.73"/>
<text text-anchor="middle" x="155.2" y="-188.3" font-family="Times,serif" font-size="14.00">t2R1</text>
</g>
<!-- R01_Le3 -->
<g id="node12" class="node">
<title>R01_Le3</title>
<ellipse fill="#ffffff" stroke="black" cx="310.7" cy="-453" rx="50.89" ry="18"/>
<text text-anchor="middle" x="310.7" y="-449.3" font-family="Times,serif" font-size="14.00">R01_Le3</text>
</g>
<!-- R11_Lee&#45;&gt;R01_Le3 -->
<g id="edge14" class="edge">
<title>R11_Lee&#45;&gt;R01_Le3</title>
<path fill="none" stroke="black" d="M272.98,-522.21C279.68,-510.1 288.84,-493.53 296.45,-479.76"/>
<polygon fill="black" stroke="black" points="299.65,-481.2 301.43,-470.76 293.53,-477.82 299.65,-481.2"/>
<text text-anchor="middle" x="308.2" y="-492.8" font-family="Times,serif" font-size="14.00">t2R1</text>
</g>
<!-- R01_Le3&#45;&gt;R00_Lee -->
<g id="edge16" class="edge">
<title>R01_Le3&#45;&gt;R00_Lee</title>
<path fill="none" stroke="black" d="M320.85,-470.92C329.89,-487.62 341.7,-514.18 341.7,-539 341.7,-715 341.7,-715 341.7,-715 341.7,-744.56 315.71,-766.99 291.82,-781.37"/>
<polygon fill="black" stroke="black" points="289.79,-778.5 282.83,-786.48 293.25,-784.58 289.79,-778.5"/>
<text text-anchor="middle" x="349.7" y="-623.3" font-family="Times,serif" font-size="14.00">t4</text>
</g>
<!-- R01_Lee -->
<g id="node13" class="node">
<title>R01_Lee</title>
<ellipse fill="#ffeeee" stroke="black" cx="310.7" cy="-366" rx="50.09" ry="18"/>
<text text-anchor="middle" x="310.7" y="-362.3" font-family="Times,serif" font-size="14.00">R01_Lee</text>
</g>
<!-- R01_Le3&#45;&gt;R01_Lee -->
<g id="edge15" class="edge">
<title>R01_Le3&#45;&gt;R01_Lee</title>
<path fill="none" stroke="black" d="M310.7,-434.8C310.7,-423.16 310.7,-407.55 310.7,-394.24"/>
<polygon fill="black" stroke="black" points="314.2,-394.18 310.7,-384.18 307.2,-394.18 314.2,-394.18"/>
<text text-anchor="middle" x="328.2" y="-405.8" font-family="Times,serif" font-size="14.00">t5R2</text>
</g>
</g>
</svg>
