<?xml version="1.0" encoding="UTF-8" standalone="no"?>
<!DOCTYPE svg PUBLIC "-//W3C//DTD SVG 1.1//EN"
 "http://www.w3.org/Graphics/SVG/1.1/DTD/svg11.dtd">
<!-- Generated by graphviz version 2.43.0 (0)
 -->
<!-- Title: SCinput/e Pages: 1 -->
<svg width="385pt" height="914pt"
 viewBox="0.00 0.00 385.05 914.00" xmlns="http://www.w3.org/2000/svg" xmlns:xlink="http://www.w3.org/1999/xlink">
<g id="graph0" class="graph" transform="scale(1 1) rotate(0) translate(4 910)">
<title>SCinput/e</title>
<polygon fill="white" stroke="transparent" points="-4,4 -4,-910 381.05,-910 381.05,4 -4,4"/>
<!-- R00_Lee -->
<g id="node1" class="node">
<title>R00_Lee</title>
<ellipse fill="#ffeeee" stroke="black" cx="50.05" cy="-888" rx="50.09" ry="18"/>
<text text-anchor="middle" x="50.05" y="-884.3" font-family="Times,serif" font-size="14.00">R00_Lee</text>
</g>
<!-- R01_L2e -->
<g id="node2" class="node">
<title>R01_L2e</title>
<ellipse fill="#ffffff" stroke="black" cx="174.05" cy="-801" rx="50.89" ry="18"/>
<text text-anchor="middle" x="174.05" y="-797.3" font-family="Times,serif" font-size="14.00">R01_L2e</text>
</g>
<!-- R00_Lee&#45;&gt;R01_L2e -->
<g id="edge1" class="edge">
<title>R00_Lee&#45;&gt;R01_L2e</title>
<path fill="none" stroke="black" d="M72.21,-871.8C92.02,-858.23 121.22,-838.21 143.28,-823.09"/>
<polygon fill="black" stroke="black" points="145.38,-825.89 151.65,-817.35 141.42,-820.12 145.38,-825.89"/>
<text text-anchor="middle" x="137.05" y="-840.8" font-family="Times,serif" font-size="14.00">t3O3</text>
</g>
<!-- R11_Le3 -->
<g id="node3" class="node">
<title>R11_Le3</title>
<ellipse fill="#ffffff" stroke="black" cx="174.05" cy="-714" rx="50.89" ry="18"/>
<text text-anchor="middle" x="174.05" y="-710.3" font-family="Times,serif" font-size="14.00">R11_Le3</text>
</g>
<!-- R01_L2e&#45;&gt;R11_Le3 -->
<g id="edge2" class="edge">
<title>R01_L2e&#45;&gt;R11_Le3</title>
<path fill="none" stroke="black" d="M174.05,-782.8C174.05,-771.16 174.05,-755.55 174.05,-742.24"/>
<polygon fill="black" stroke="black" points="177.55,-742.18 174.05,-732.18 170.55,-742.18 177.55,-742.18"/>
<text text-anchor="middle" x="192.05" y="-753.8" font-family="Times,serif" font-size="14.00">t1O2</text>
</g>
<!-- R10_Lee -->
<g id="node4" class="node">
<title>R10_Lee</title>
<ellipse fill="#ffeeee" stroke="black" cx="230.05" cy="-627" rx="50.09" ry="18"/>
<text text-anchor="middle" x="230.05" y="-623.3" font-family="Times,serif" font-size="14.00">R10_Lee</text>
</g>
<!-- R11_Le3&#45;&gt;R10_Lee -->
<g id="edge4" class="edge">
<title>R11_Le3&#45;&gt;R10_Lee</title>
<path fill="none" stroke="black" d="M185.11,-696.21C193.16,-683.98 204.21,-667.21 213.34,-653.36"/>
<polygon fill="black" stroke="black" points="216.43,-655.03 219,-644.76 210.58,-651.18 216.43,-655.03"/>
<text text-anchor="middle" x="213.05" y="-666.8" font-family="Times,serif" font-size="14.00">t4</text>
</g>
<!-- R11_Lee -->
<g id="node13" class="node">
<title>R11_Lee</title>
<ellipse fill="#ffeeee" stroke="black" cx="112.05" cy="-627" rx="50.09" ry="18"/>
<text text-anchor="middle" x="112.05" y="-623.3" font-family="Times,serif" font-size="14.00">R11_Lee</text>
</g>
<!-- R11_Le3&#45;&gt;R11_Lee -->
<g id="edge3" class="edge">
<title>R11_Le3&#45;&gt;R11_Lee</title>
<path fill="none" stroke="black" d="M161.8,-696.21C152.8,-683.87 140.42,-666.89 130.26,-652.97"/>
<polygon fill="black" stroke="black" points="132.99,-650.77 124.27,-644.76 127.33,-654.9 132.99,-650.77"/>
<text text-anchor="middle" x="163.55" y="-666.8" font-family="Times,serif" font-size="14.00">t5R2</text>
</g>
<!-- R00_Le3 -->
<g id="node5" class="node">
<title>R00_Le3</title>
<ellipse fill="#ffffff" stroke="black" cx="237.05" cy="-540" rx="50.89" ry="18"/>
<text text-anchor="middle" x="237.05" y="-536.3" font-family="Times,serif" font-size="14.00">R00_Le3</text>
</g>
<!-- R10_Lee&#45;&gt;R00_Le3 -->
<g id="edge6" class="edge">
<title>R10_Lee&#45;&gt;R00_Le3</title>
<path fill="none" stroke="black" d="M231.46,-608.8C232.42,-597.16 233.71,-581.55 234.8,-568.24"/>
<polygon fill="black" stroke="black" points="238.3,-568.43 235.63,-558.18 231.32,-567.85 238.3,-568.43"/>
<text text-anchor="middle" x="250.55" y="-579.8" font-family="Times,serif" font-size="14.00">t2R1</text>
</g>
<!-- R11_L2e -->
<g id="node12" class="node">
<title>R11_L2e</title>
<ellipse fill="#ffffff" stroke="black" cx="199.05" cy="-105" rx="50.89" ry="18"/>
<text text-anchor="middle" x="199.05" y="-101.3" font-family="Times,serif" font-size="14.00">R11_L2e</text>
</g>
<!-- R10_Lee&#45;&gt;R11_L2e -->
<g id="edge5" class="edge">
<title>R10_Lee&#45;&gt;R11_L2e</title>
<path fill="none" stroke="black" d="M205.67,-611.03C184.78,-596.13 158.05,-571.17 158.05,-541 158.05,-541 158.05,-541 158.05,-191 158.05,-169.16 169.16,-147.01 179.82,-130.81"/>
<polygon fill="black" stroke="black" points="182.79,-132.66 185.62,-122.45 177.04,-128.67 182.79,-132.66"/>
<text text-anchor="middle" x="176.05" y="-362.3" font-family="Times,serif" font-size="14.00">t3O3</text>
</g>
<!-- R01_L23 -->
<g id="node6" class="node">
<title>R01_L23</title>
<ellipse fill="#ffffff" stroke="black" cx="290.05" cy="-453" rx="51.19" ry="18"/>
<text text-anchor="middle" x="290.05" y="-449.3" font-family="Times,serif" font-size="14.00">R01_L23</text>
</g>
<!-- R00_Le3&#45;&gt;R01_L23 -->
<g id="edge7" class="edge">
<title>R00_Le3&#45;&gt;R01_L23</title>
<path fill="none" stroke="black" d="M246.4,-522.15C251.94,-512.36 259.19,-499.86 266.05,-489 268.09,-485.76 270.3,-482.39 272.52,-479.07"/>
<polygon fill="black" stroke="black" points="275.58,-480.8 278.31,-470.56 269.79,-476.86 275.58,-480.8"/>
<text text-anchor="middle" x="284.05" y="-492.8" font-family="Times,serif" font-size="14.00">t3O3</text>
</g>
<!-- R01_L23&#45;&gt;R01_L2e -->
<g id="edge8" class="edge">
<title>R01_L23&#45;&gt;R01_L2e</title>
<path fill="none" stroke="black" d="M298.42,-470.79C306.02,-487.62 316.05,-514.46 316.05,-539 316.05,-715 316.05,-715 316.05,-715 316.05,-757.47 268.71,-779.23 228.69,-790.04"/>
<polygon fill="black" stroke="black" points="227.81,-786.66 218.98,-792.5 229.53,-793.44 227.81,-786.66"/>
<text text-anchor="middle" x="333.55" y="-623.3" font-family="Times,serif" font-size="14.00">t5R2</text>
</g>
<!-- R00_L2e -->
<g id="node7" class="node">
<title>R00_L2e</title>
<ellipse fill="#ffffff" stroke="black" cx="263.05" cy="-366" rx="50.89" ry="18"/>
<text text-anchor="middle" x="263.05" y="-362.3" font-family="Times,serif" font-size="14.00">R00_L2e</text>
</g>
<!-- R01_L23&#45;&gt;R00_L2e -->
<g id="edge9" class="edge">
<title>R01_L23&#45;&gt;R00_L2e</title>
<path fill="none" stroke="black" d="M284.58,-434.8C280.85,-423.05 275.83,-407.24 271.57,-393.84"/>
<polygon fill="black" stroke="black" points="274.86,-392.65 268.5,-384.18 268.19,-394.77 274.86,-392.65"/>
<text text-anchor="middle" x="286.05" y="-405.8" font-family="Times,serif" font-size="14.00">t4</text>
</g>
<!-- R10_Le3 -->
<g id="node8" class="node">
<title>R10_Le3</title>
<ellipse fill="#ffffff" stroke="black" cx="255.05" cy="-279" rx="50.89" ry="18"/>
<text text-anchor="middle" x="255.05" y="-275.3" font-family="Times,serif" font-size="14.00">R10_Le3</text>
</g>
<!-- R00_L2e&#45;&gt;R10_Le3 -->
<g id="edge10" class="edge">
<title>R00_L2e&#45;&gt;R10_Le3</title>
<path fill="none" stroke="black" d="M261.43,-347.8C260.33,-336.16 258.86,-320.55 257.61,-307.24"/>
<polygon fill="black" stroke="black" points="261.08,-306.8 256.66,-297.18 254.11,-307.46 261.08,-306.8"/>
<text text-anchor="middle" x="277.05" y="-318.8" font-family="Times,serif" font-size="14.00">t1O2</text>
</g>
<!-- R11_L23 -->
<g id="node9" class="node">
<title>R11_L23</title>
<ellipse fill="#ffffff" stroke="black" cx="255.05" cy="-192" rx="51.19" ry="18"/>
<text text-anchor="middle" x="255.05" y="-188.3" font-family="Times,serif" font-size="14.00">R11_L23</text>
</g>
<!-- R10_Le3&#45;&gt;R11_L23 -->
<g id="edge11" class="edge">
<title>R10_Le3&#45;&gt;R11_L23</title>
<path fill="none" stroke="black" d="M255.05,-260.8C255.05,-249.16 255.05,-233.55 255.05,-220.24"/>
<polygon fill="black" stroke="black" points="258.55,-220.18 255.05,-210.18 251.55,-220.18 258.55,-220.18"/>
<text text-anchor="middle" x="273.05" y="-231.8" font-family="Times,serif" font-size="14.00">t3O3</text>
</g>
<!-- R10_L2e -->
<g id="node10" class="node">
<title>R10_L2e</title>
<ellipse fill="#ffffff" stroke="black" cx="318.05" cy="-105" rx="50.89" ry="18"/>
<text text-anchor="middle" x="318.05" y="-101.3" font-family="Times,serif" font-size="14.00">R10_L2e</text>
</g>
<!-- R11_L23&#45;&gt;R10_L2e -->
<g id="edge13" class="edge">
<title>R11_L23&#45;&gt;R10_L2e</title>
<path fill="none" stroke="black" d="M267.49,-174.21C276.64,-161.87 289.22,-144.89 299.54,-130.97"/>
<polygon fill="black" stroke="black" points="302.48,-132.88 305.62,-122.76 296.86,-128.71 302.48,-132.88"/>
<text text-anchor="middle" x="298.05" y="-144.8" font-family="Times,serif" font-size="14.00">t4</text>
</g>
<!-- R11_L23&#45;&gt;R11_L2e -->
<g id="edge12" class="edge">
<title>R11_L23&#45;&gt;R11_L2e</title>
<path fill="none" stroke="black" d="M243.46,-174.34C239.49,-168.56 235.03,-162.02 231.05,-156 225.75,-148.01 220.08,-139.23 215.01,-131.28"/>
<polygon fill="black" stroke="black" points="217.9,-129.31 209.58,-122.75 211.99,-133.07 217.9,-129.31"/>
<text text-anchor="middle" x="248.55" y="-144.8" font-family="Times,serif" font-size="14.00">t5R2</text>
</g>
<!-- R00_L23 -->
<g id="node11" class="node">
<title>R00_L23</title>
<ellipse fill="#ffffff" stroke="black" cx="318.05" cy="-18" rx="51.19" ry="18"/>
<text text-anchor="middle" x="318.05" y="-14.3" font-family="Times,serif" font-size="14.00">R00_L23</text>
</g>
<!-- R10_L2e&#45;&gt;R00_L23 -->
<g id="edge14" class="edge">
<title>R10_L2e&#45;&gt;R00_L23</title>
<path fill="none" stroke="black" d="M318.05,-86.8C318.05,-75.16 318.05,-59.55 318.05,-46.24"/>
<polygon fill="black" stroke="black" points="321.55,-46.18 318.05,-36.18 314.55,-46.18 321.55,-46.18"/>
<text text-anchor="middle" x="335.55" y="-57.8" font-family="Times,serif" font-size="14.00">t2R1</text>
</g>
<!-- R11_L2e&#45;&gt;R01_L23 -->
<g id="edge15" class="edge">
<title>R11_L2e&#45;&gt;R01_L23</title>
<path fill="none" stroke="black" d="M236.7,-117.21C267.67,-126.53 306.97,-138.64 310.05,-141 330.99,-157.04 342.05,-164.62 342.05,-191 342.05,-367 342.05,-367 342.05,-367 342.05,-390.13 327.86,-412.28 314.31,-428.17"/>
<polygon fill="black" stroke="black" points="311.46,-426.11 307.36,-435.88 316.66,-430.8 311.46,-426.11"/>
<text text-anchor="middle" x="359.55" y="-275.3" font-family="Times,serif" font-size="14.00">t2R1</text>
</g>
<!-- R01_Le3 -->
<g id="node14" class="node">
<title>R01_Le3</title>
<ellipse fill="#ffffff" stroke="black" cx="57.05" cy="-540" rx="50.89" ry="18"/>
<text text-anchor="middle" x="57.05" y="-536.3" font-family="Times,serif" font-size="14.00">R01_Le3</text>
</g>
<!-- R11_Lee&#45;&gt;R01_Le3 -->
<g id="edge16" class="edge">
<title>R11_Lee&#45;&gt;R01_Le3</title>
<path fill="none" stroke="black" d="M101.18,-609.21C93.27,-596.98 82.42,-580.21 73.46,-566.36"/>
<polygon fill="black" stroke="black" points="76.26,-564.25 67.89,-557.76 70.38,-568.06 76.26,-564.25"/>
<text text-anchor="middle" x="104.55" y="-579.8" font-family="Times,serif" font-size="14.00">t2R1</text>
</g>
<!-- R01_Le3&#45;&gt;R00_Lee -->
<g id="edge18" class="edge">
<title>R01_Le3&#45;&gt;R00_Lee</title>
<path fill="none" stroke="black" d="M49.64,-557.89C42.92,-574.79 34.05,-601.69 34.05,-626 34.05,-802 34.05,-802 34.05,-802 34.05,-821.59 38.2,-843.28 42.27,-859.85"/>
<polygon fill="black" stroke="black" points="38.99,-861.12 44.89,-869.92 45.76,-859.36 38.99,-861.12"/>
<text text-anchor="middle" x="42.05" y="-710.3" font-family="Times,serif" font-size="14.00">t4</text>
</g>
<!-- R01_Lee -->
<g id="node15" class="node">
<title>R01_Lee</title>
<ellipse fill="#ffeeee" stroke="black" cx="57.05" cy="-453" rx="50.09" ry="18"/>
<text text-anchor="middle" x="57.05" y="-449.3" font-family="Times,serif" font-size="14.00">R01_Lee</text>
</g>
<!-- R01_Le3&#45;&gt;R01_Lee -->
<g id="edge17" class="edge">
<title>R01_Le3&#45;&gt;R01_Lee</title>
<path fill="none" stroke="black" d="M57.05,-521.8C57.05,-510.16 57.05,-494.55 57.05,-481.24"/>
<polygon fill="black" stroke="black" points="60.55,-481.18 57.05,-471.18 53.55,-481.18 60.55,-481.18"/>
<text text-anchor="middle" x="74.55" y="-492.8" font-family="Times,serif" font-size="14.00">t5R2</text>
</g>
</g>
</svg>
