<?xml version="1.0" encoding="UTF-8" standalone="no"?>
<!DOCTYPE svg PUBLIC "-//W3C//DTD SVG 1.1//EN"
 "http://www.w3.org/Graphics/SVG/1.1/DTD/svg11.dtd">
<!-- Generated by graphviz version 2.43.0 (0)
 -->
<!-- Title: SCinput/e Pages: 1 -->
<svg width="402pt" height="653pt"
 viewBox="0.00 0.00 402.00 653.00" xmlns="http://www.w3.org/2000/svg" xmlns:xlink="http://www.w3.org/1999/xlink">
<g id="graph0" class="graph" transform="scale(1 1) rotate(0) translate(4 649)">
<title>SCinput/e</title>
<polygon fill="white" stroke="transparent" points="-4,4 -4,-649 398,-649 398,4 -4,4"/>
<!-- S9 -->
<g id="node1" class="node">
<title>S9</title>
<ellipse fill="none" stroke="black" cx="125" cy="-540" rx="27" ry="18"/>
<text text-anchor="middle" x="125" y="-536.3" font-family="Times,serif" font-size="14.00">S9</text>
</g>
<!-- S10 -->
<g id="node8" class="node">
<title>S10</title>
<ellipse fill="#ffffff" stroke="black" cx="125" cy="-453" rx="28.7" ry="18"/>
<text text-anchor="middle" x="125" y="-449.3" font-family="Times,serif" font-size="14.00">S10</text>
</g>
<!-- S9&#45;&gt;S10 -->
<g id="edge1" class="edge">
<title>S9&#45;&gt;S10</title>
<path fill="none" stroke="black" d="M125,-521.8C125,-510.16 125,-494.55 125,-481.24"/>
<polygon fill="black" stroke="black" points="128.5,-481.18 125,-471.18 121.5,-481.18 128.5,-481.18"/>
<text text-anchor="middle" x="136" y="-492.8" font-family="Times,serif" font-size="14.00">t2r</text>
</g>
<!-- S7 -->
<g id="node2" class="node">
<title>S7</title>
<ellipse fill="none" stroke="black" cx="27" cy="-279" rx="27" ry="18"/>
<text text-anchor="middle" x="27" y="-275.3" font-family="Times,serif" font-size="14.00">S7</text>
</g>
<!-- S8 -->
<g id="node6" class="node">
<title>S8</title>
<ellipse fill="#ffffff" stroke="black" cx="125" cy="-627" rx="27" ry="18"/>
<text text-anchor="middle" x="125" y="-623.3" font-family="Times,serif" font-size="14.00">S8</text>
</g>
<!-- S7&#45;&gt;S8 -->
<g id="edge2" class="edge">
<title>S7&#45;&gt;S8</title>
<path fill="none" stroke="black" d="M28.61,-297.24C30.07,-314.4 32,-341.5 32,-365 32,-541 32,-541 32,-541 32,-574.85 65.98,-598.84 92.87,-612.51"/>
<polygon fill="black" stroke="black" points="91.48,-615.73 102.01,-616.92 94.52,-609.43 91.48,-615.73"/>
<text text-anchor="middle" x="50" y="-449.3" font-family="Times,serif" font-size="14.00">t3O3</text>
</g>
<!-- S3 -->
<g id="node3" class="node">
<title>S3</title>
<ellipse fill="#ffeeee" stroke="black" cx="239" cy="-192" rx="27" ry="18"/>
<text text-anchor="middle" x="239" y="-188.3" font-family="Times,serif" font-size="14.00">S3</text>
</g>
<!-- S11 -->
<g id="node5" class="node">
<title>S11</title>
<ellipse fill="#ffffff" stroke="black" cx="213" cy="-540" rx="28.7" ry="18"/>
<text text-anchor="middle" x="213" y="-536.3" font-family="Times,serif" font-size="14.00">S11</text>
</g>
<!-- S3&#45;&gt;S11 -->
<g id="edge3" class="edge">
<title>S3&#45;&gt;S11</title>
<path fill="none" stroke="black" d="M264.24,-198.94C299.17,-208.84 358,-232.3 358,-278 358,-454 358,-454 358,-454 358,-503.71 293.8,-524.9 250.84,-533.51"/>
<polygon fill="black" stroke="black" points="250.15,-530.08 240.96,-535.35 251.43,-536.96 250.15,-530.08"/>
<text text-anchor="middle" x="376" y="-362.3" font-family="Times,serif" font-size="14.00">t3O3</text>
</g>
<!-- S4 -->
<g id="node11" class="node">
<title>S4</title>
<ellipse fill="#ffffff" stroke="black" cx="266" cy="-105" rx="27" ry="18"/>
<text text-anchor="middle" x="266" y="-101.3" font-family="Times,serif" font-size="14.00">S4</text>
</g>
<!-- S3&#45;&gt;S4 -->
<g id="edge4" class="edge">
<title>S3&#45;&gt;S4</title>
<path fill="none" stroke="black" d="M244.33,-174.21C248.11,-162.33 253.24,-146.17 257.56,-132.56"/>
<polygon fill="black" stroke="black" points="260.99,-133.35 260.68,-122.76 254.31,-131.23 260.99,-133.35"/>
<text text-anchor="middle" x="265" y="-144.8" font-family="Times,serif" font-size="14.00">t2r</text>
</g>
<!-- S12 -->
<g id="node4" class="node">
<title>S12</title>
<ellipse fill="#ffeeee" stroke="black" cx="165" cy="-192" rx="28.7" ry="18"/>
<text text-anchor="middle" x="165" y="-188.3" font-family="Times,serif" font-size="14.00">S12</text>
</g>
<!-- S13 -->
<g id="node13" class="node">
<title>S13</title>
<ellipse fill="#ffffff" stroke="black" cx="160" cy="-105" rx="28.7" ry="18"/>
<text text-anchor="middle" x="160" y="-101.3" font-family="Times,serif" font-size="14.00">S13</text>
</g>
<!-- S12&#45;&gt;S13 -->
<g id="edge5" class="edge">
<title>S12&#45;&gt;S13</title>
<path fill="none" stroke="black" d="M163.99,-173.8C163.3,-162.16 162.39,-146.55 161.6,-133.24"/>
<polygon fill="black" stroke="black" points="165.09,-132.95 161.01,-123.18 158.1,-133.36 165.09,-132.95"/>
<text text-anchor="middle" x="173" y="-144.8" font-family="Times,serif" font-size="14.00">t2r</text>
</g>
<!-- S5 -->
<g id="node14" class="node">
<title>S5</title>
<ellipse fill="#ffffff" stroke="black" cx="213" cy="-453" rx="27" ry="18"/>
<text text-anchor="middle" x="213" y="-449.3" font-family="Times,serif" font-size="14.00">S5</text>
</g>
<!-- S11&#45;&gt;S5 -->
<g id="edge6" class="edge">
<title>S11&#45;&gt;S5</title>
<path fill="none" stroke="black" d="M213,-521.8C213,-510.16 213,-494.55 213,-481.24"/>
<polygon fill="black" stroke="black" points="216.5,-481.18 213,-471.18 209.5,-481.18 216.5,-481.18"/>
<text text-anchor="middle" x="224" y="-492.8" font-family="Times,serif" font-size="14.00">t2r</text>
</g>
<!-- S8&#45;&gt;S9 -->
<g id="edge8" class="edge">
<title>S8&#45;&gt;S9</title>
<path fill="none" stroke="black" d="M125,-608.8C125,-597.16 125,-581.55 125,-568.24"/>
<polygon fill="black" stroke="black" points="128.5,-568.18 125,-558.18 121.5,-568.18 128.5,-568.18"/>
<text text-anchor="middle" x="133" y="-579.8" font-family="Times,serif" font-size="14.00">t4</text>
</g>
<!-- S8&#45;&gt;S11 -->
<g id="edge7" class="edge">
<title>S8&#45;&gt;S11</title>
<path fill="none" stroke="black" d="M139.93,-611.58C153.83,-598.15 174.75,-577.94 190.65,-562.59"/>
<polygon fill="black" stroke="black" points="193.24,-564.95 198,-555.49 188.37,-559.92 193.24,-564.95"/>
<text text-anchor="middle" x="184.5" y="-579.8" font-family="Times,serif" font-size="14.00">t5f</text>
</g>
<!-- S2 -->
<g id="node7" class="node">
<title>S2</title>
<ellipse fill="#ffffff" stroke="black" cx="165" cy="-279" rx="27" ry="18"/>
<text text-anchor="middle" x="165" y="-275.3" font-family="Times,serif" font-size="14.00">S2</text>
</g>
<!-- S2&#45;&gt;S3 -->
<g id="edge10" class="edge">
<title>S2&#45;&gt;S3</title>
<path fill="none" stroke="black" d="M178.23,-262.8C189.59,-249.75 206.15,-230.74 219.11,-215.85"/>
<polygon fill="black" stroke="black" points="221.96,-217.91 225.88,-208.06 216.68,-213.31 221.96,-217.91"/>
<text text-anchor="middle" x="214" y="-231.8" font-family="Times,serif" font-size="14.00">t4</text>
</g>
<!-- S2&#45;&gt;S12 -->
<g id="edge9" class="edge">
<title>S2&#45;&gt;S12</title>
<path fill="none" stroke="black" d="M165,-260.8C165,-249.16 165,-233.55 165,-220.24"/>
<polygon fill="black" stroke="black" points="168.5,-220.18 165,-210.18 161.5,-220.18 168.5,-220.18"/>
<text text-anchor="middle" x="175.5" y="-231.8" font-family="Times,serif" font-size="14.00">t5f</text>
</g>
<!-- S6 -->
<g id="node9" class="node">
<title>S6</title>
<ellipse fill="#ffffff" stroke="black" cx="213" cy="-366" rx="27" ry="18"/>
<text text-anchor="middle" x="213" y="-362.3" font-family="Times,serif" font-size="14.00">S6</text>
</g>
<!-- S6&#45;&gt;S7 -->
<g id="edge11" class="edge">
<title>S6&#45;&gt;S7</title>
<path fill="none" stroke="black" d="M208.7,-348.16C205.01,-337.11 198.58,-323.22 188,-315 178.17,-307.36 107.29,-293.93 62.91,-286.12"/>
<polygon fill="black" stroke="black" points="63.25,-282.62 52.8,-284.35 62.05,-289.52 63.25,-282.62"/>
<text text-anchor="middle" x="218" y="-318.8" font-family="Times,serif" font-size="14.00">t1O2</text>
</g>
<!-- S0 -->
<g id="node10" class="node">
<title>S0</title>
<ellipse fill="#ffeeee" stroke="black" cx="84" cy="-18" rx="27" ry="18"/>
<text text-anchor="middle" x="84" y="-14.3" font-family="Times,serif" font-size="14.00">S0</text>
</g>
<!-- S1 -->
<g id="node15" class="node">
<title>S1</title>
<ellipse fill="#ffffff" stroke="black" cx="141" cy="-366" rx="27" ry="18"/>
<text text-anchor="middle" x="141" y="-362.3" font-family="Times,serif" font-size="14.00">S1</text>
</g>
<!-- S0&#45;&gt;S1 -->
<g id="edge12" class="edge">
<title>S0&#45;&gt;S1</title>
<path fill="none" stroke="black" d="M83.36,-36.25C82.77,-53.42 82,-80.53 82,-104 82,-280 82,-280 82,-280 82,-305.47 100.1,-328.8 116.25,-344.55"/>
<polygon fill="black" stroke="black" points="114.21,-347.44 123.93,-351.65 118.96,-342.29 114.21,-347.44"/>
<text text-anchor="middle" x="100" y="-188.3" font-family="Times,serif" font-size="14.00">t3O3</text>
</g>
<!-- S4&#45;&gt;S5 -->
<g id="edge13" class="edge">
<title>S4&#45;&gt;S5</title>
<path fill="none" stroke="black" d="M274.71,-122.09C282.93,-138.82 294,-165.99 294,-191 294,-367 294,-367 294,-367 294,-397.59 266.16,-421.53 243.13,-436.1"/>
<polygon fill="black" stroke="black" points="241.06,-433.26 234.28,-441.4 244.66,-439.26 241.06,-433.26"/>
<text text-anchor="middle" x="312" y="-275.3" font-family="Times,serif" font-size="14.00">t3O3</text>
</g>
<!-- S14 -->
<g id="node12" class="node">
<title>S14</title>
<ellipse fill="#ffeeee" stroke="black" cx="160" cy="-18" rx="28.7" ry="18"/>
<text text-anchor="middle" x="160" y="-14.3" font-family="Times,serif" font-size="14.00">S14</text>
</g>
<!-- S13&#45;&gt;S0 -->
<g id="edge15" class="edge">
<title>S13&#45;&gt;S0</title>
<path fill="none" stroke="black" d="M146.41,-88.8C134.67,-75.67 117.53,-56.5 104.18,-41.57"/>
<polygon fill="black" stroke="black" points="106.49,-38.9 97.22,-33.78 101.27,-43.57 106.49,-38.9"/>
<text text-anchor="middle" x="134" y="-57.8" font-family="Times,serif" font-size="14.00">t4</text>
</g>
<!-- S13&#45;&gt;S14 -->
<g id="edge14" class="edge">
<title>S13&#45;&gt;S14</title>
<path fill="none" stroke="black" d="M160,-86.8C160,-75.16 160,-59.55 160,-46.24"/>
<polygon fill="black" stroke="black" points="163.5,-46.18 160,-36.18 156.5,-46.18 163.5,-46.18"/>
<text text-anchor="middle" x="170.5" y="-57.8" font-family="Times,serif" font-size="14.00">t5f</text>
</g>
<!-- S5&#45;&gt;S6 -->
<g id="edge17" class="edge">
<title>S5&#45;&gt;S6</title>
<path fill="none" stroke="black" d="M213,-434.8C213,-423.16 213,-407.55 213,-394.24"/>
<polygon fill="black" stroke="black" points="216.5,-394.18 213,-384.18 209.5,-394.18 216.5,-394.18"/>
<text text-anchor="middle" x="221" y="-405.8" font-family="Times,serif" font-size="14.00">t4</text>
</g>
<!-- S5&#45;&gt;S1 -->
<g id="edge16" class="edge">
<title>S5&#45;&gt;S1</title>
<path fill="none" stroke="black" d="M200.13,-436.8C189.07,-423.75 172.96,-404.74 160.35,-389.85"/>
<polygon fill="black" stroke="black" points="162.89,-387.43 153.76,-382.06 157.55,-391.96 162.89,-387.43"/>
<text text-anchor="middle" x="191.5" y="-405.8" font-family="Times,serif" font-size="14.00">t5f</text>
</g>
<!-- S1&#45;&gt;S2 -->
<g id="edge18" class="edge">
<title>S1&#45;&gt;S2</title>
<path fill="none" stroke="black" d="M144.18,-347.73C146.13,-338.02 148.84,-325.74 152,-315 152.84,-312.14 153.8,-309.18 154.8,-306.25"/>
<polygon fill="black" stroke="black" points="158.19,-307.17 158.31,-296.58 151.61,-304.79 158.19,-307.17"/>
<text text-anchor="middle" x="170" y="-318.8" font-family="Times,serif" font-size="14.00">t1O2</text>
</g>
</g>
</svg>
