<?xml version="1.0" encoding="UTF-8" standalone="no"?>
<!DOCTYPE svg PUBLIC "-//W3C//DTD SVG 1.1//EN"
 "http://www.w3.org/Graphics/SVG/1.1/DTD/svg11.dtd">
<!-- Generated by graphviz version 2.43.0 (0)
 -->
<!-- Title: input/i Pages: 1 -->
<svg width="398pt" height="426pt"
 viewBox="0.00 0.00 398.00 426.00" xmlns="http://www.w3.org/2000/svg" xmlns:xlink="http://www.w3.org/1999/xlink">
<g id="graph0" class="graph" transform="scale(1 1) rotate(0) translate(4 422)">
<title>input/i</title>
<polygon fill="white" stroke="transparent" points="-4,4 -4,-422 394,-422 394,4 -4,4"/>
<g id="clust1" class="cluster">
<title>cluster0</title>
<path fill="#ffeeee" stroke="#ffeeee" d="M258,-8C258,-8 370,-8 370,-8 376,-8 382,-14 382,-20 382,-20 382,-166 382,-166 382,-172 376,-178 370,-178 370,-178 258,-178 258,-178 252,-178 246,-172 246,-166 246,-166 246,-20 246,-20 246,-14 252,-8 258,-8"/>
<text text-anchor="middle" x="314" y="-162.8" font-family="Times,serif" font-size="14.00">C1</text>
</g>
<g id="clust2" class="cluster">
<title>cluster1</title>
<path fill="#ffeeee" stroke="#ffeeee" d="M20,-215C20,-215 125,-215 125,-215 131,-215 137,-221 137,-227 137,-227 137,-398 137,-398 137,-404 131,-410 125,-410 125,-410 20,-410 20,-410 14,-410 8,-404 8,-398 8,-398 8,-227 8,-227 8,-221 14,-215 20,-215"/>
<text text-anchor="middle" x="72.5" y="-394.8" font-family="Times,serif" font-size="14.00">C2</text>
</g>
<g id="clust3" class="cluster">
<title>cluster2</title>
<path fill="#ffeeee" stroke="#ffeeee" d="M157,-99C157,-99 226,-99 226,-99 232,-99 238,-105 238,-111 238,-111 238,-282 238,-282 238,-288 232,-294 226,-294 226,-294 157,-294 157,-294 151,-294 145,-288 145,-282 145,-282 145,-111 145,-111 145,-105 151,-99 157,-99"/>
<text text-anchor="middle" x="191.5" y="-278.8" font-family="Times,serif" font-size="14.00">C3</text>
</g>
<!-- C0s0 -->
<g id="node1" class="node">
<title>C0s0</title>
<ellipse fill="white" stroke="black" cx="283" cy="-125" rx="18" ry="18"/>
<ellipse fill="none" stroke="black" cx="283" cy="-125" rx="22" ry="22"/>
<text text-anchor="middle" x="283" y="-121.3" font-family="Times,serif" font-size="14.00">0</text>
</g>
<!-- C0s1 -->
<g id="node2" class="node">
<title>C0s1</title>
<ellipse fill="white" stroke="black" cx="319" cy="-34" rx="18" ry="18"/>
<text text-anchor="middle" x="319" y="-30.3" font-family="Times,serif" font-size="14.00">1</text>
</g>
<!-- C0s0&#45;&gt;C0s1 -->
<g id="edge1" class="edge">
<title>C0s0&#45;&gt;C0s1</title>
<path fill="none" stroke="black" d="M273.84,-104.95C270.04,-94.22 267.62,-80.85 273,-70 277.52,-60.89 285.67,-53.51 293.86,-47.91"/>
<polygon fill="black" stroke="black" points="295.92,-50.76 302.61,-42.54 292.26,-44.79 295.92,-50.76"/>
<text text-anchor="middle" x="285" y="-73.8" font-family="Times,serif" font-size="14.00">t1a</text>
</g>
<!-- C0s0&#45;&gt;C0s1 -->
<g id="edge2" class="edge">
<title>C0s0&#45;&gt;C0s1</title>
<path fill="none" stroke="black" d="M290.99,-104.25C296.22,-91.31 303.11,-74.28 308.75,-60.34"/>
<polygon fill="black" stroke="black" points="312.09,-61.43 312.59,-50.84 305.6,-58.8 312.09,-61.43"/>
<text text-anchor="middle" x="312" y="-73.8" font-family="Times,serif" font-size="14.00">t2</text>
</g>
<!-- C0s1&#45;&gt;C0s0 -->
<g id="edge3" class="edge">
<title>C0s1&#45;&gt;C0s0</title>
<path fill="none" stroke="black" d="M324.58,-51.38C327.07,-61.45 328.54,-74.42 324,-85 320.68,-92.74 314.98,-99.68 308.87,-105.47"/>
<polygon fill="black" stroke="black" points="306.36,-103.01 301.06,-112.18 310.92,-108.32 306.36,-103.01"/>
<text text-anchor="middle" x="334" y="-73.8" font-family="Times,serif" font-size="14.00">t3</text>
</g>
<!-- C1s0 -->
<g id="node3" class="node">
<title>C1s0</title>
<ellipse fill="white" stroke="black" cx="100" cy="-357" rx="18" ry="18"/>
<ellipse fill="none" stroke="black" cx="100" cy="-357" rx="22" ry="22"/>
<text text-anchor="middle" x="100" y="-353.3" font-family="Times,serif" font-size="14.00">0</text>
</g>
<!-- C1s0&#45;&gt;C0s0 -->
<g id="edge11" class="edge">
<title>C1s0&#45;&gt;C0s0</title>
<path fill="none" stroke="black" d="M137,-349.41C169.4,-341.69 215.35,-325.69 242,-294 266.72,-264.61 276.97,-222.65 281.04,-188.02"/>
<polygon fill="black" stroke="black" points="284.53,-188.3 282.07,-178 277.57,-187.59 284.53,-188.3"/>
<text text-anchor="middle" x="285.5" y="-237.3" font-family="Times,serif" font-size="14.00">L3</text>
</g>
<!-- C1s1 -->
<g id="node4" class="node">
<title>C1s1</title>
<ellipse fill="white" stroke="black" cx="63" cy="-241" rx="18" ry="18"/>
<text text-anchor="middle" x="63" y="-237.3" font-family="Times,serif" font-size="14.00">1</text>
</g>
<!-- C1s0&#45;&gt;C1s1 -->
<g id="edge5" class="edge">
<title>C1s0&#45;&gt;C1s1</title>
<path fill="none" stroke="black" d="M79.75,-348.11C66.68,-341.83 50.72,-331.64 43,-317 34.41,-300.71 40.69,-280.45 48.41,-265.09"/>
<polygon fill="black" stroke="black" points="51.52,-266.69 53.28,-256.24 45.39,-263.31 51.52,-266.69"/>
<text text-anchor="middle" x="61" y="-305.8" font-family="Times,serif" font-size="14.00">t5O1</text>
</g>
<!-- C2s0 -->
<g id="node5" class="node">
<title>C2s0</title>
<ellipse fill="white" stroke="black" cx="191" cy="-241" rx="18" ry="18"/>
<ellipse fill="none" stroke="black" cx="191" cy="-241" rx="22" ry="22"/>
<text text-anchor="middle" x="191" y="-237.3" font-family="Times,serif" font-size="14.00">0</text>
</g>
<!-- C1s0&#45;&gt;C2s0 -->
<g id="edge10" class="edge">
<title>C1s0&#45;&gt;C2s0</title>
<path fill="none" stroke="black" d="M137,-309.65C139,-307.14 141.03,-304.6 143.07,-302.05"/>
<polygon fill="black" stroke="black" points="145.99,-304 149.49,-294 140.52,-299.63 145.99,-304"/>
<text text-anchor="middle" x="152.5" y="-305.8" font-family="Times,serif" font-size="14.00">L2</text>
</g>
<!-- C1s1&#45;&gt;C1s0 -->
<g id="edge4" class="edge">
<title>C1s1&#45;&gt;C1s0</title>
<path fill="none" stroke="black" d="M68.27,-258.23C73.99,-275.87 83.27,-304.44 90.31,-326.15"/>
<polygon fill="black" stroke="black" points="87.05,-327.45 93.47,-335.88 93.71,-325.29 87.05,-327.45"/>
<text text-anchor="middle" x="105" y="-305.8" font-family="Times,serif" font-size="14.00">t4O2</text>
</g>
<!-- C2s0&#45;&gt;C0s0 -->
<g id="edge9" class="edge">
<title>C2s0&#45;&gt;C0s0</title>
<path fill="none" stroke="black" d="M238,-182.93C238.51,-182.3 239.02,-181.66 239.54,-181.02"/>
<polygon fill="black" stroke="black" points="242.45,-183 246,-173.02 237,-178.6 242.45,-183"/>
<text text-anchor="middle" x="245.5" y="-189.8" font-family="Times,serif" font-size="14.00">L1</text>
</g>
<!-- C2s1 -->
<g id="node6" class="node">
<title>C2s1</title>
<ellipse fill="white" stroke="black" cx="171" cy="-125" rx="18" ry="18"/>
<text text-anchor="middle" x="171" y="-121.3" font-family="Times,serif" font-size="14.00">1</text>
</g>
<!-- C2s0&#45;&gt;C2s1 -->
<g id="edge7" class="edge">
<title>C2s0&#45;&gt;C2s1</title>
<path fill="none" stroke="black" d="M178.09,-222.65C174.03,-216.19 170.07,-208.58 168,-201 163.76,-185.47 164.31,-167.47 166.02,-152.99"/>
<polygon fill="black" stroke="black" points="169.54,-153.11 167.48,-142.71 162.61,-152.12 169.54,-153.11"/>
<text text-anchor="middle" x="176" y="-189.8" font-family="Times,serif" font-size="14.00">t7</text>
</g>
<!-- C2s1&#45;&gt;C2s0 -->
<g id="edge6" class="edge">
<title>C2s1&#45;&gt;C2s0</title>
<path fill="none" stroke="black" d="M176.68,-142.33C180.58,-154.27 185.48,-170.94 188,-186 189.22,-193.3 189.98,-201.23 190.43,-208.7"/>
<polygon fill="black" stroke="black" points="186.94,-209.02 190.9,-218.85 193.94,-208.7 186.94,-209.02"/>
<text text-anchor="middle" x="198" y="-189.8" font-family="Times,serif" font-size="14.00">t6</text>
</g>
<!-- C2s1&#45;&gt;C2s1 -->
<g id="edge8" class="edge">
<title>C2s1&#45;&gt;C2s1</title>
<path fill="none" stroke="black" d="M187.29,-133.02C197.39,-134.95 207,-132.28 207,-125 207,-120.34 203.06,-117.57 197.57,-116.68"/>
<polygon fill="black" stroke="black" points="197.18,-113.19 187.29,-116.98 197.39,-120.19 197.18,-113.19"/>
<text text-anchor="middle" x="218.5" y="-121.3" font-family="Times,serif" font-size="14.00">t8c</text>
</g>
</g>
</svg>
