<?xml version="1.0" encoding="UTF-8" standalone="no"?>
<!DOCTYPE svg PUBLIC "-//W3C//DTD SVG 1.1//EN"
 "http://www.w3.org/Graphics/SVG/1.1/DTD/svg11.dtd">
<!-- Generated by graphviz version 2.43.0 (0)
 -->
<!-- Title: input/i Pages: 1 -->
<svg width="430pt" height="487pt"
 viewBox="0.00 0.00 430.00 487.38" xmlns="http://www.w3.org/2000/svg" xmlns:xlink="http://www.w3.org/1999/xlink">
<g id="graph0" class="graph" transform="scale(1 1) rotate(0) translate(4 483.38)">
<title>input/i</title>
<polygon fill="white" stroke="transparent" points="-4,4 -4,-483.38 426,-483.38 426,4 -4,4"/>
<g id="clust1" class="cluster">
<title>cluster1</title>
<path fill="#ffeeee" stroke="#ffeeee" d="M290,-8C290,-8 402,-8 402,-8 408,-8 414,-14 414,-20 414,-20 414,-206.19 414,-206.19 414,-212.19 408,-218.19 402,-218.19 402,-218.19 290,-218.19 290,-218.19 284,-218.19 278,-212.19 278,-206.19 278,-206.19 278,-20 278,-20 278,-14 284,-8 290,-8"/>
</g>
<g id="clust2" class="cluster">
<title>cluster2</title>
<path fill="#ffeeee" stroke="#ffeeee" d="M20,-257.19C20,-257.19 125,-257.19 125,-257.19 131,-257.19 137,-263.19 137,-269.19 137,-269.19 137,-459.38 137,-459.38 137,-465.38 131,-471.38 125,-471.38 125,-471.38 20,-471.38 20,-471.38 14,-471.38 8,-465.38 8,-459.38 8,-459.38 8,-269.19 8,-269.19 8,-263.19 14,-257.19 20,-257.19"/>
</g>
<g id="clust3" class="cluster">
<title>cluster3</title>
<path fill="#ffeeee" stroke="#ffeeee" d="M157,-130.59C157,-130.59 258,-130.59 258,-130.59 264,-130.59 270,-136.59 270,-142.59 270,-142.59 270,-332.78 270,-332.78 270,-338.78 264,-344.78 258,-344.78 258,-344.78 157,-344.78 157,-344.78 151,-344.78 145,-338.78 145,-332.78 145,-332.78 145,-142.59 145,-142.59 145,-136.59 151,-130.59 157,-130.59"/>
</g>
<!-- C1_0 -->
<g id="node1" class="node">
<title>C1_0</title>
<ellipse fill="white" stroke="black" cx="324" cy="-172.39" rx="33.62" ry="33.62"/>
<ellipse fill="none" stroke="black" cx="324" cy="-172.39" rx="37.6" ry="37.6"/>
<text text-anchor="middle" x="324" y="-168.69" font-family="Times,serif" font-size="14.00">C1_0</text>
</g>
<!-- C1_1 -->
<g id="node2" class="node">
<title>C1_1</title>
<ellipse fill="white" stroke="black" cx="351" cy="-49.8" rx="33.6" ry="33.6"/>
<text text-anchor="middle" x="351" y="-46.1" font-family="Times,serif" font-size="14.00">C1_1</text>
</g>
<!-- C1_0&#45;&gt;C1_1 -->
<g id="edge1" class="edge">
<title>C1_0&#45;&gt;C1_1</title>
<path fill="none" stroke="black" d="M306.52,-138.63C302.43,-126.79 300.44,-113.43 305,-101.59 308.08,-93.61 313.05,-86.11 318.62,-79.45"/>
<polygon fill="black" stroke="black" points="321.22,-81.79 325.34,-72.03 316.03,-77.09 321.22,-81.79"/>
<text text-anchor="middle" x="317" y="-105.39" font-family="Times,serif" font-size="14.00">t1a</text>
</g>
<!-- C1_0&#45;&gt;C1_1 -->
<g id="edge2" class="edge">
<title>C1_0&#45;&gt;C1_1</title>
<path fill="none" stroke="black" d="M332.1,-135.21C335.1,-121.81 338.53,-106.51 341.63,-92.65"/>
<polygon fill="black" stroke="black" points="345.05,-93.38 343.82,-82.86 338.22,-91.85 345.05,-93.38"/>
<text text-anchor="middle" x="347" y="-105.39" font-family="Times,serif" font-size="14.00">t2</text>
</g>
<!-- C1_1&#45;&gt;C1_0 -->
<g id="edge3" class="edge">
<title>C1_1&#45;&gt;C1_0</title>
<path fill="none" stroke="black" d="M359.99,-82.68C361.73,-93.59 362.16,-105.77 359,-116.59 357.34,-122.29 354.88,-127.95 352.03,-133.36"/>
<polygon fill="black" stroke="black" points="348.91,-131.76 346.93,-142.17 354.97,-135.27 348.91,-131.76"/>
<text text-anchor="middle" x="369" y="-105.39" font-family="Times,serif" font-size="14.00">t3</text>
</g>
<!-- C2_0 -->
<g id="node3" class="node">
<title>C2_0</title>
<ellipse fill="white" stroke="black" cx="91" cy="-425.58" rx="33.62" ry="33.62"/>
<ellipse fill="none" stroke="black" cx="91" cy="-425.58" rx="37.6" ry="37.6"/>
<text text-anchor="middle" x="91" y="-421.88" font-family="Times,serif" font-size="14.00">C2_0</text>
</g>
<!-- C2_0&#45;&gt;C1_0 -->
<g id="edge11" class="edge">
<title>C2_0&#45;&gt;C1_0</title>
<path fill="none" stroke="black" d="M137,-416.05C178.52,-405.99 238.39,-385.24 274,-344.78 304.42,-310.22 316.37,-258.07 321.05,-220.37"/>
<polygon fill="black" stroke="black" points="320.67,-228.68 322.18,-218.19 314.46,-225.45 320.67,-228.68"/>
<text text-anchor="middle" x="332.5" y="-295.29" font-family="Times,serif" font-size="14.00">L3{}</text>
</g>
<!-- C2_1 -->
<g id="node4" class="node">
<title>C2_1</title>
<ellipse fill="white" stroke="black" cx="71" cy="-298.99" rx="33.6" ry="33.6"/>
<text text-anchor="middle" x="71" y="-295.29" font-family="Times,serif" font-size="14.00">C2_1</text>
</g>
<!-- C2_0&#45;&gt;C2_1 -->
<g id="edge5" class="edge">
<title>C2_0&#45;&gt;C2_1</title>
<path fill="none" stroke="black" d="M62.03,-401.27C53.23,-392.44 44.66,-381.63 40,-369.78 35.37,-358 38.5,-345.3 44.25,-334"/>
<polygon fill="black" stroke="black" points="47.32,-335.69 49.33,-325.29 41.27,-332.17 47.32,-335.69"/>
<text text-anchor="middle" x="58" y="-358.58" font-family="Times,serif" font-size="14.00">t5O1</text>
</g>
<!-- C3_0 -->
<g id="node5" class="node">
<title>C3_0</title>
<ellipse fill="white" stroke="black" cx="200" cy="-298.99" rx="33.62" ry="33.62"/>
<ellipse fill="none" stroke="black" cx="200" cy="-298.99" rx="37.6" ry="37.6"/>
<text text-anchor="middle" x="200" y="-295.29" font-family="Times,serif" font-size="14.00">C3_0</text>
</g>
<!-- C2_0&#45;&gt;C3_0 -->
<g id="edge10" class="edge">
<title>C2_0&#45;&gt;C3_0</title>
<path fill="none" stroke="black" d="M137,-372C142.61,-365.58 148.36,-359.02 153.97,-352.6"/>
<polygon fill="black" stroke="black" points="156.86,-354.61 160.81,-344.78 151.59,-350 156.86,-354.61"/>
<text text-anchor="middle" x="171.5" y="-358.58" font-family="Times,serif" font-size="14.00">L2{}</text>
</g>
<!-- C2_1&#45;&gt;C2_0 -->
<g id="edge4" class="edge">
<title>C2_1&#45;&gt;C2_0</title>
<path fill="none" stroke="black" d="M76.27,-332.79C78.49,-346.63 81.11,-362.99 83.53,-378.04"/>
<polygon fill="black" stroke="black" points="80.12,-378.89 85.16,-388.21 87.03,-377.78 80.12,-378.89"/>
<text text-anchor="middle" x="101" y="-358.58" font-family="Times,serif" font-size="14.00">t4O2</text>
</g>
<!-- C3_0&#45;&gt;C1_0 -->
<g id="edge9" class="edge">
<title>C3_0&#45;&gt;C1_0</title>
<path fill="none" stroke="black" d="M270,-227.19C270.58,-226.6 271.17,-226.01 271.76,-225.42"/>
<polygon fill="black" stroke="black" points="274.4,-227.73 278.99,-218.18 269.44,-222.79 274.4,-227.73"/>
<text text-anchor="middle" x="287.5" y="-231.99" font-family="Times,serif" font-size="14.00">L1{}</text>
</g>
<!-- C3_1 -->
<g id="node6" class="node">
<title>C3_1</title>
<ellipse fill="white" stroke="black" cx="187" cy="-172.39" rx="33.6" ry="33.6"/>
<text text-anchor="middle" x="187" y="-168.69" font-family="Times,serif" font-size="14.00">C3_1</text>
</g>
<!-- C3_0&#45;&gt;C3_1 -->
<g id="edge7" class="edge">
<title>C3_0&#45;&gt;C3_1</title>
<path fill="none" stroke="black" d="M183,-265.1C180.1,-258.04 177.53,-250.51 176,-243.19 174.08,-234.02 174.28,-224.11 175.52,-214.71"/>
<polygon fill="black" stroke="black" points="178.98,-215.23 177.21,-204.78 172.08,-214.05 178.98,-215.23"/>
<text text-anchor="middle" x="184" y="-231.99" font-family="Times,serif" font-size="14.00">t7</text>
</g>
<!-- C3_1&#45;&gt;C3_0 -->
<g id="edge6" class="edge">
<title>C3_1&#45;&gt;C3_0</title>
<path fill="none" stroke="black" d="M192.9,-205.77C194.08,-213.12 195.2,-220.91 196,-228.19 196.81,-235.49 197.45,-243.23 197.98,-250.81"/>
<polygon fill="black" stroke="black" points="194.49,-251.21 198.61,-260.98 201.48,-250.78 194.49,-251.21"/>
<text text-anchor="middle" x="206" y="-231.99" font-family="Times,serif" font-size="14.00">t6</text>
</g>
<!-- C3_1&#45;&gt;C3_1 -->
<g id="edge8" class="edge">
<title>C3_1&#45;&gt;C3_1</title>
<path fill="none" stroke="black" d="M218.87,-184.01C229.89,-184.14 238.8,-180.26 238.8,-172.39 238.8,-167.23 234.96,-163.78 229.21,-162.06"/>
<polygon fill="black" stroke="black" points="229.22,-158.53 218.87,-160.77 228.36,-165.48 229.22,-158.53"/>
<text text-anchor="middle" x="250.3" y="-168.69" font-family="Times,serif" font-size="14.00">t8c</text>
</g>
</g>
</svg>
