<?xml version="1.0" encoding="UTF-8" standalone="no"?>
<!DOCTYPE svg PUBLIC "-//W3C//DTD SVG 1.1//EN"
 "http://www.w3.org/Graphics/SVG/1.1/DTD/svg11.dtd">
<!-- Generated by graphviz version 2.43.0 (0)
 -->
<!-- Title: input/i Pages: 1 -->
<svg width="453pt" height="487pt"
 viewBox="0.00 0.00 453.00 487.38" xmlns="http://www.w3.org/2000/svg" xmlns:xlink="http://www.w3.org/1999/xlink">
<g id="graph0" class="graph" transform="scale(1 1) rotate(0) translate(4 483.38)">
<title>input/i</title>
<polygon fill="white" stroke="transparent" points="-4,4 -4,-483.38 449,-483.38 449,4 -4,4"/>
<g id="clust1" class="cluster">
<title>cluster1</title>
<path fill="#ffeeee" stroke="#ffeeee" d="M302,-8C302,-8 425,-8 425,-8 431,-8 437,-14 437,-20 437,-20 437,-206.19 437,-206.19 437,-212.19 431,-218.19 425,-218.19 425,-218.19 302,-218.19 302,-218.19 296,-218.19 290,-212.19 290,-206.19 290,-206.19 290,-20 290,-20 290,-14 296,-8 302,-8"/>
</g>
<g id="clust2" class="cluster">
<title>cluster2</title>
<path fill="#ffeeee" stroke="#ffeeee" d="M20,-257.19C20,-257.19 125,-257.19 125,-257.19 131,-257.19 137,-263.19 137,-269.19 137,-269.19 137,-459.38 137,-459.38 137,-465.38 131,-471.38 125,-471.38 125,-471.38 20,-471.38 20,-471.38 14,-471.38 8,-465.38 8,-459.38 8,-459.38 8,-269.19 8,-269.19 8,-263.19 14,-257.19 20,-257.19"/>
</g>
<g id="clust3" class="cluster">
<title>cluster3</title>
<path fill="#ffeeee" stroke="#ffeeee" d="M157,-130.59C157,-130.59 270,-130.59 270,-130.59 276,-130.59 282,-136.59 282,-142.59 282,-142.59 282,-332.78 282,-332.78 282,-338.78 276,-344.78 270,-344.78 270,-344.78 157,-344.78 157,-344.78 151,-344.78 145,-338.78 145,-332.78 145,-332.78 145,-142.59 145,-142.59 145,-136.59 151,-130.59 157,-130.59"/>
</g>
<!-- C1_0 -->
<g id="node1" class="node">
<title>C1_0</title>
<ellipse fill="white" stroke="black" cx="336" cy="-172.39" rx="33.62" ry="33.62"/>
<ellipse fill="none" stroke="black" cx="336" cy="-172.39" rx="37.6" ry="37.6"/>
<text text-anchor="middle" x="336" y="-168.69" font-family="Times,serif" font-size="14.00">C1_0</text>
</g>
<!-- C1_1 -->
<g id="node2" class="node">
<title>C1_1</title>
<ellipse fill="white" stroke="black" cx="374" cy="-49.8" rx="33.6" ry="33.6"/>
<text text-anchor="middle" x="374" y="-46.1" font-family="Times,serif" font-size="14.00">C1_1</text>
</g>
<!-- C1_0&#45;&gt;C1_1 -->
<g id="edge1" class="edge">
<title>C1_0&#45;&gt;C1_1</title>
<path fill="none" stroke="black" d="M318.08,-139.05C313.75,-127 311.71,-113.4 317,-101.59 321.61,-91.31 329.44,-82.26 337.84,-74.75"/>
<polygon fill="black" stroke="black" points="340.17,-77.37 345.65,-68.3 335.71,-71.98 340.17,-77.37"/>
<text text-anchor="middle" x="334.5" y="-105.39" font-family="Times,serif" font-size="14.00">t1R1</text>
</g>
<!-- C1_0&#45;&gt;C1_1 -->
<g id="edge2" class="edge">
<title>C1_0&#45;&gt;C1_1</title>
<path fill="none" stroke="black" d="M347.09,-136.19C351.47,-122.29 356.53,-106.23 361.08,-91.81"/>
<polygon fill="black" stroke="black" points="364.46,-92.73 364.12,-82.14 357.78,-90.63 364.46,-92.73"/>
<text text-anchor="middle" x="365" y="-105.39" font-family="Times,serif" font-size="14.00">t2</text>
</g>
<!-- C1_1&#45;&gt;C1_0 -->
<g id="edge3" class="edge">
<title>C1_1&#45;&gt;C1_0</title>
<path fill="none" stroke="black" d="M380.09,-83.23C380.92,-94.07 380.5,-106.07 377,-116.59 374.78,-123.26 371.4,-129.77 367.51,-135.84"/>
<polygon fill="black" stroke="black" points="364.4,-134.19 361.53,-144.39 370.13,-138.2 364.4,-134.19"/>
<text text-anchor="middle" x="387" y="-105.39" font-family="Times,serif" font-size="14.00">t3</text>
</g>
<!-- C2_0 -->
<g id="node3" class="node">
<title>C2_0</title>
<ellipse fill="white" stroke="black" cx="91" cy="-425.58" rx="33.62" ry="33.62"/>
<ellipse fill="none" stroke="black" cx="91" cy="-425.58" rx="37.6" ry="37.6"/>
<text text-anchor="middle" x="91" y="-421.88" font-family="Times,serif" font-size="14.00">C2_0</text>
</g>
<!-- C2_0&#45;&gt;C1_0 -->
<g id="edge11" class="edge">
<title>C2_0&#45;&gt;C1_0</title>
<path fill="none" stroke="black" d="M137,-417.51C181.27,-408.32 247.08,-388.01 286,-344.78 316.81,-310.57 328.7,-258.36 333.25,-220.55"/>
<polygon fill="black" stroke="black" points="333.31,-228.73 334.35,-218.19 326.96,-225.78 333.31,-228.73"/>
<text text-anchor="middle" x="344.5" y="-295.29" font-family="Times,serif" font-size="14.00">L3{}</text>
</g>
<!-- C2_1 -->
<g id="node4" class="node">
<title>C2_1</title>
<ellipse fill="white" stroke="black" cx="71" cy="-298.99" rx="33.6" ry="33.6"/>
<text text-anchor="middle" x="71" y="-295.29" font-family="Times,serif" font-size="14.00">C2_1</text>
</g>
<!-- C2_0&#45;&gt;C2_1 -->
<g id="edge5" class="edge">
<title>C2_0&#45;&gt;C2_1</title>
<path fill="none" stroke="black" d="M62.03,-401.27C53.23,-392.44 44.66,-381.63 40,-369.78 35.37,-358 38.5,-345.3 44.25,-334"/>
<polygon fill="black" stroke="black" points="47.32,-335.69 49.33,-325.29 41.27,-332.17 47.32,-335.69"/>
<text text-anchor="middle" x="58" y="-358.58" font-family="Times,serif" font-size="14.00">t5O1</text>
</g>
<!-- C3_0 -->
<g id="node5" class="node">
<title>C3_0</title>
<ellipse fill="white" stroke="black" cx="204" cy="-298.99" rx="33.62" ry="33.62"/>
<ellipse fill="none" stroke="black" cx="204" cy="-298.99" rx="37.6" ry="37.6"/>
<text text-anchor="middle" x="204" y="-295.29" font-family="Times,serif" font-size="14.00">C3_0</text>
</g>
<!-- C2_0&#45;&gt;C3_0 -->
<g id="edge10" class="edge">
<title>C2_0&#45;&gt;C3_0</title>
<path fill="none" stroke="black" d="M137,-373.86C143.47,-366.73 150.12,-359.39 156.62,-352.23"/>
<polygon fill="black" stroke="black" points="159.25,-354.54 163.38,-344.78 154.06,-349.83 159.25,-354.54"/>
<text text-anchor="middle" x="173.5" y="-358.58" font-family="Times,serif" font-size="14.00">L2{}</text>
</g>
<!-- C2_1&#45;&gt;C2_0 -->
<g id="edge4" class="edge">
<title>C2_1&#45;&gt;C2_0</title>
<path fill="none" stroke="black" d="M76.27,-332.79C78.49,-346.63 81.11,-362.99 83.53,-378.04"/>
<polygon fill="black" stroke="black" points="80.12,-378.89 85.16,-388.21 87.03,-377.78 80.12,-378.89"/>
<text text-anchor="middle" x="101" y="-358.58" font-family="Times,serif" font-size="14.00">t4O2</text>
</g>
<!-- C3_0&#45;&gt;C1_0 -->
<g id="edge9" class="edge">
<title>C3_0&#45;&gt;C1_0</title>
<path fill="none" stroke="black" d="M282,-220.38C284,-219.15 286,-217.92 288,-216.7"/>
<polygon fill="black" stroke="black" points="283.31,-223.68 290,-215.47 279.65,-217.71 283.31,-223.68"/>
<text text-anchor="middle" x="282.5" y="-231.99" font-family="Times,serif" font-size="14.00">L1{}</text>
</g>
<!-- C3_1 -->
<g id="node6" class="node">
<title>C3_1</title>
<ellipse fill="white" stroke="black" cx="187" cy="-172.39" rx="33.6" ry="33.6"/>
<text text-anchor="middle" x="187" y="-168.69" font-family="Times,serif" font-size="14.00">C3_1</text>
</g>
<!-- C3_0&#45;&gt;C3_1 -->
<g id="edge7" class="edge">
<title>C3_0&#45;&gt;C3_1</title>
<path fill="none" stroke="black" d="M185.16,-265.87C181.79,-258.63 178.78,-250.83 177,-243.19 174.88,-234.08 174.91,-224.2 176.01,-214.81"/>
<polygon fill="black" stroke="black" points="179.47,-215.3 177.55,-204.88 172.56,-214.22 179.47,-215.3"/>
<text text-anchor="middle" x="185" y="-231.99" font-family="Times,serif" font-size="14.00">t7</text>
</g>
<!-- C3_1&#45;&gt;C3_0 -->
<g id="edge6" class="edge">
<title>C3_1&#45;&gt;C3_0</title>
<path fill="none" stroke="black" d="M193.36,-205.77C194.67,-213.12 195.97,-220.91 197,-228.19 198.03,-235.48 198.96,-243.23 199.79,-250.8"/>
<polygon fill="black" stroke="black" points="196.33,-251.39 200.85,-260.97 203.29,-250.66 196.33,-251.39"/>
<text text-anchor="middle" x="207" y="-231.99" font-family="Times,serif" font-size="14.00">t6</text>
</g>
<!-- C3_1&#45;&gt;C3_1 -->
<g id="edge8" class="edge">
<title>C3_1&#45;&gt;C3_1</title>
<path fill="none" stroke="black" d="M218.87,-184.01C229.89,-184.14 238.8,-180.26 238.8,-172.39 238.8,-167.23 234.96,-163.78 229.21,-162.06"/>
<polygon fill="black" stroke="black" points="229.22,-158.53 218.87,-160.77 228.36,-165.48 229.22,-158.53"/>
<text text-anchor="middle" x="256.3" y="-168.69" font-family="Times,serif" font-size="14.00">t8R3</text>
</g>
</g>
</svg>
