<?xml version="1.0" encoding="UTF-8" standalone="no"?>
<!DOCTYPE svg PUBLIC "-//W3C//DTD SVG 1.1//EN"
 "http://www.w3.org/Graphics/SVG/1.1/DTD/svg11.dtd">
<!-- Generated by graphviz version 2.43.0 (0)
 -->
<!-- Title: MONinput/i Pages: 1 -->
<svg width="8031pt" height="386pt"
 viewBox="0.00 0.00 8031.00 386.30" xmlns="http://www.w3.org/2000/svg" xmlns:xlink="http://www.w3.org/1999/xlink">
<g id="graph0" class="graph" transform="scale(1 1) rotate(0) translate(4 382.3)">
<title>MONinput/i</title>
<polygon fill="white" stroke="transparent" points="-4,4 -4,-382.3 8027,-382.3 8027,4 -4,4"/>
<g id="clust1" class="cluster">
<title>cluster0</title>
<path fill="#fff9dd" stroke="#fff9dd" d="M12,-160.3C12,-160.3 136,-160.3 136,-160.3 142,-160.3 148,-166.3 148,-172.3 148,-172.3 148,-223.3 148,-223.3 148,-229.3 142,-235.3 136,-235.3 136,-235.3 12,-235.3 12,-235.3 6,-235.3 0,-229.3 0,-223.3 0,-223.3 0,-172.3 0,-172.3 0,-166.3 6,-160.3 12,-160.3"/>
<text text-anchor="middle" x="74" y="-220.1" font-family="Times,serif" font-size="14.00">((r1?|r1)|(r1r1))|r1</text>
</g>
<g id="clust2" class="cluster">
<title>cluster1</title>
<path fill="#fff9dd" stroke="#fff9dd" d="M263,-25.3C263,-25.3 8011,-25.3 8011,-25.3 8017,-25.3 8023,-31.3 8023,-37.3 8023,-37.3 8023,-358.3 8023,-358.3 8023,-364.3 8017,-370.3 8011,-370.3 8011,-370.3 263,-370.3 263,-370.3 257,-370.3 251,-364.3 251,-358.3 251,-358.3 251,-37.3 251,-37.3 251,-31.3 257,-25.3 263,-25.3"/>
<text text-anchor="middle" x="4137" y="-355.1" font-family="Times,serif" font-size="14.00">((((((((((((((((((r1?|r1)|(r1r1))|(r1r1))|((r1r1)|(((r1r1)|((r1|r3r1)|((r1r1)|((r1r1)|(r1r3)))))|(r1r1|(r1|(r1|(r1|r3)))))))|((r1r1)|(((r1r1)|((r1|r3r1)|((r1r1)|(((r1r1)|(r1r3))|(r1r3)))))|(r1r1|(r1|(r1|((r1|r3)|r3)))))))|((r1r1)|(((r1r1)|((r1r1)|((r1r1)|(((r1|r3r1)|(r1r3))|((r3r1)|((r1|r3)|r3))))))|((r1r1)|((r1r1)|((r1r1)|(((r1|r3r1)|(r1r3))|((r3r1)|(r1r1|(r1|(r1|((r1|r3)|((r1|r3)|r3)))))))))))))|r1)|r1)|(r1|((r1|(r1|(r1|(r1|(r3|(r1|((r1|r3)|r1)))))))|(r1|(r1|(r1|(r1|(r3|r1))))))))|(r1|((r1|(r1|(r1|((r1|r3)|(r3|(r1|((r1|r3)|r1)))))))|(r1|(r1|(r1|((r1|r3)|(r3|r1))))))))|r1)|(r1|((r1|(r1|r3))|r1)))|r1)|r1)|(((((((((((((r1?|(r1r1))|(r1r1))|((r1r1)|((r1r1|(r1|(r1|(r1|r3))))|(r3r1))))|((r1r1)|((r1r1|(r1|(r1|((r1|r3)|r3))))|(r3r1))))|((r1r1)|((r1r1|(r1|(r1|(r1|(r3|((r1|r3)|r3))))))|((r1r1)|((r1r1)|((r1r1)|(((r1|r3r1)|(r1r3))|(r3r1))))))))|r1)|r1)|(r1|(r1|(r1|(r1|(r1|(r1|r3)))))))|(r1|(r1|(r1|(r1|(r1|((r1|r3)|r3)))))))|r1)|(r1|(r1|r3)))|r1)|r1))|(r1(((r1?|r1)|(r1|(r1|(r1|(r1|r3)))))|(r1|(r1|(r1|((r1|r3)|r3)))))|(r1|(r1|(r1|(r1|(r3|((r1|r3)|r3))))))))|(r1(((r1?|r1)|r1)|(r1|(r1|(r1|r3))))|(r1|(r1|(r1|(r3|(r1|r3)))))))|(r1r1))|(r1(((r1?|r1)|(r1|(r1|(r1|(r1|r3)))))|(r1|(r1|(((r1r1)|(r1r3))))))|(r1|(r1|(r1|(r1|(r3|((r1|r3)|r3)))))))</text>
</g>
<!-- M0S0 -->
<g id="node1" class="node">
<title>M0S0</title>
<path fill="#ffffff" stroke="black" d="M89,-204.3C89,-204.3 59,-204.3 59,-204.3 53,-204.3 47,-198.3 47,-192.3 47,-192.3 47,-180.3 47,-180.3 47,-174.3 53,-168.3 59,-168.3 59,-168.3 89,-168.3 89,-168.3 95,-168.3 101,-174.3 101,-180.3 101,-180.3 101,-192.3 101,-192.3 101,-198.3 95,-204.3 89,-204.3"/>
<text text-anchor="middle" x="74" y="-182.6" font-family="Times,serif" font-size="14.00">0</text>
</g>
<!-- M1S9 -->
<g id="node2" class="node">
<title>M1S9</title>
<path fill="#ffffff" stroke="black" d="M4152,-339.3C4152,-339.3 4122,-339.3 4122,-339.3 4116,-339.3 4110,-333.3 4110,-327.3 4110,-327.3 4110,-315.3 4110,-315.3 4110,-309.3 4116,-303.3 4122,-303.3 4122,-303.3 4152,-303.3 4152,-303.3 4158,-303.3 4164,-309.3 4164,-315.3 4164,-315.3 4164,-327.3 4164,-327.3 4164,-333.3 4158,-339.3 4152,-339.3"/>
<text text-anchor="middle" x="4137" y="-317.6" font-family="Times,serif" font-size="14.00">9</text>
</g>
<!-- M0S0&#45;&gt;M1S9 -->
<g id="edge1" class="edge">
<title>M0S0&#45;&gt;M1S9</title>
<path fill="none" stroke="black" d="M93.15,-204.53C109.15,-219.86 133.65,-241.57 158,-256.3 196.2,-279.42 207.22,-285.55 251,-294.3 648.67,-373.85 3728.03,-327.77 4099.39,-321.89"/>
<polygon fill="black" stroke="black" points="4099.63,-325.39 4109.58,-321.73 4099.52,-318.39 4099.63,-325.39"/>
<text text-anchor="middle" x="199.5" y="-295.1" font-family="Times,serif" font-size="14.00">(ε, ε)</text>
</g>
<!-- M1S16 -->
<g id="node3" class="node">
<title>M1S16</title>
<path fill="#ffffff" stroke="black" d="M4152,-285.3C4152,-285.3 4122,-285.3 4122,-285.3 4116,-285.3 4110,-279.3 4110,-273.3 4110,-273.3 4110,-261.3 4110,-261.3 4110,-255.3 4116,-249.3 4122,-249.3 4122,-249.3 4152,-249.3 4152,-249.3 4158,-249.3 4164,-255.3 4164,-261.3 4164,-261.3 4164,-273.3 4164,-273.3 4164,-279.3 4158,-285.3 4152,-285.3"/>
<text text-anchor="middle" x="4137" y="-263.6" font-family="Times,serif" font-size="14.00">16</text>
</g>
<!-- M0S0&#45;&gt;M1S16 -->
<g id="edge2" class="edge">
<title>M0S0&#45;&gt;M1S16</title>
<path fill="none" stroke="black" d="M101.27,-197.01C135.19,-210.2 196.35,-231.91 251,-240.3 651.85,-301.84 3728.41,-271.58 4099.42,-267.7"/>
<polygon fill="black" stroke="black" points="4099.64,-271.19 4109.6,-267.59 4099.57,-264.19 4099.64,-271.19"/>
<text text-anchor="middle" x="199.5" y="-241.1" font-family="Times,serif" font-size="14.00">(ε, ε)</text>
</g>
<!-- M1S2 -->
<g id="node4" class="node">
<title>M1S2</title>
<path fill="#ffffff" stroke="black" d="M4152,-231.3C4152,-231.3 4122,-231.3 4122,-231.3 4116,-231.3 4110,-225.3 4110,-219.3 4110,-219.3 4110,-207.3 4110,-207.3 4110,-201.3 4116,-195.3 4122,-195.3 4122,-195.3 4152,-195.3 4152,-195.3 4158,-195.3 4164,-201.3 4164,-207.3 4164,-207.3 4164,-219.3 4164,-219.3 4164,-225.3 4158,-231.3 4152,-231.3"/>
<text text-anchor="middle" x="4137" y="-209.6" font-family="Times,serif" font-size="14.00">2</text>
</g>
<!-- M0S0&#45;&gt;M1S2 -->
<g id="edge3" class="edge">
<title>M0S0&#45;&gt;M1S2</title>
<path fill="none" stroke="black" d="M101.2,-186.48C428.4,-188.65 3716.93,-210.52 4099.71,-213.06"/>
<polygon fill="black" stroke="black" points="4099.92,-216.56 4109.94,-213.13 4099.96,-209.56 4099.92,-216.56"/>
<text text-anchor="middle" x="199.5" y="-191.1" font-family="Times,serif" font-size="14.00">(r1, r1)</text>
</g>
<!-- M1S3 -->
<g id="node5" class="node">
<title>M1S3</title>
<path fill="#ffffff" stroke="black" d="M4152,-177.3C4152,-177.3 4122,-177.3 4122,-177.3 4116,-177.3 4110,-171.3 4110,-165.3 4110,-165.3 4110,-153.3 4110,-153.3 4110,-147.3 4116,-141.3 4122,-141.3 4122,-141.3 4152,-141.3 4152,-141.3 4158,-141.3 4164,-147.3 4164,-153.3 4164,-153.3 4164,-165.3 4164,-165.3 4164,-171.3 4158,-177.3 4152,-177.3"/>
<text text-anchor="middle" x="4137" y="-155.6" font-family="Times,serif" font-size="14.00">3</text>
</g>
<!-- M0S0&#45;&gt;M1S3 -->
<g id="edge4" class="edge">
<title>M0S0&#45;&gt;M1S3</title>
<path fill="none" stroke="black" d="M101.28,-178.71C117.48,-174.42 138.76,-169.5 158,-167.3 571,-120.22 3725.4,-154.62 4099.73,-158.89"/>
<polygon fill="black" stroke="black" points="4099.95,-162.39 4109.99,-159 4100.03,-155.39 4099.95,-162.39"/>
<text text-anchor="middle" x="199.5" y="-171.1" font-family="Times,serif" font-size="14.00">(r1, r1)</text>
</g>
<!-- M1S4 -->
<g id="node6" class="node">
<title>M1S4</title>
<path fill="#ffffff" stroke="black" d="M4152,-123.3C4152,-123.3 4122,-123.3 4122,-123.3 4116,-123.3 4110,-117.3 4110,-111.3 4110,-111.3 4110,-99.3 4110,-99.3 4110,-93.3 4116,-87.3 4122,-87.3 4122,-87.3 4152,-87.3 4152,-87.3 4158,-87.3 4164,-93.3 4164,-99.3 4164,-99.3 4164,-111.3 4164,-111.3 4164,-117.3 4158,-123.3 4152,-123.3"/>
<text text-anchor="middle" x="4137" y="-101.6" font-family="Times,serif" font-size="14.00">4</text>
</g>
<!-- M0S0&#45;&gt;M1S4 -->
<g id="edge5" class="edge">
<title>M0S0&#45;&gt;M1S4</title>
<path fill="none" stroke="black" d="M101.16,-169.11C116.97,-159.59 137.88,-148.47 158,-142.3 197.75,-130.13 209.5,-134.67 251,-132.3 1843.32,-41.39 3808.63,-95.39 4099.38,-104.16"/>
<polygon fill="black" stroke="black" points="4099.66,-107.67 4109.76,-104.48 4099.87,-100.68 4099.66,-107.67"/>
<text text-anchor="middle" x="199.5" y="-146.1" font-family="Times,serif" font-size="14.00">(r1r1, r1r1)</text>
</g>
<!-- M1S1 -->
<g id="node7" class="node">
<title>M1S1</title>
<path fill="#ffffff" stroke="black" d="M4152,-69.3C4152,-69.3 4122,-69.3 4122,-69.3 4116,-69.3 4110,-63.3 4110,-57.3 4110,-57.3 4110,-45.3 4110,-45.3 4110,-39.3 4116,-33.3 4122,-33.3 4122,-33.3 4152,-33.3 4152,-33.3 4158,-33.3 4164,-39.3 4164,-45.3 4164,-45.3 4164,-57.3 4164,-57.3 4164,-63.3 4158,-69.3 4152,-69.3"/>
<text text-anchor="middle" x="4137" y="-47.6" font-family="Times,serif" font-size="14.00">1</text>
</g>
<!-- M0S0&#45;&gt;M1S1 -->
<g id="edge6" class="edge">
<title>M0S0&#45;&gt;M1S1</title>
<path fill="none" stroke="black" d="M91.96,-168.02C107.77,-151.84 132.66,-128.52 158,-113.3 195.86,-90.57 207.58,-86.36 251,-78.3 1045.02,69.01 3752.79,-35.64 4099.38,-49.78"/>
<polygon fill="black" stroke="black" points="4099.48,-53.29 4109.61,-50.2 4099.77,-46.3 4099.48,-53.29"/>
<text text-anchor="middle" x="199.5" y="-117.1" font-family="Times,serif" font-size="14.00">(r1, r1)</text>
</g>
</g>
</svg>
