<?xml version="1.0" encoding="UTF-8" standalone="no"?>
<!DOCTYPE svg PUBLIC "-//W3C//DTD SVG 1.1//EN"
 "http://www.w3.org/Graphics/SVG/1.1/DTD/svg11.dtd">
<!-- Generated by graphviz version 2.43.0 (0)
 -->
<!-- Title: MONinput/i Pages: 1 -->
<svg width="156pt" height="99pt"
 viewBox="0.00 0.00 156.00 99.00" xmlns="http://www.w3.org/2000/svg" xmlns:xlink="http://www.w3.org/1999/xlink">
<g id="graph0" class="graph" transform="scale(1 1) rotate(0) translate(4 95)">
<title>MONinput/i</title>
<polygon fill="white" stroke="transparent" points="-4,4 -4,-95 152,-95 152,4 -4,4"/>
<g id="clust1" class="cluster">
<title>cluster0</title>
<path fill="#fff9dd" stroke="#fff9dd" d="M12,-8C12,-8 136,-8 136,-8 142,-8 148,-14 148,-20 148,-20 148,-71 148,-71 148,-77 142,-83 136,-83 136,-83 12,-83 12,-83 6,-83 0,-77 0,-71 0,-71 0,-20 0,-20 0,-14 6,-8 12,-8"/>
<text text-anchor="middle" x="74" y="-67.8" font-family="Times,serif" font-size="14.00">((r1?|(r1r1))|r1)|r1</text>
</g>
<!-- M0S0 -->
<g id="node1" class="node">
<title>M0S0</title>
<path fill="#ffffff" stroke="black" d="M89,-52C89,-52 59,-52 59,-52 53,-52 47,-46 47,-40 47,-40 47,-28 47,-28 47,-22 53,-16 59,-16 59,-16 89,-16 89,-16 95,-16 101,-22 101,-28 101,-28 101,-40 101,-40 101,-46 95,-52 89,-52"/>
<text text-anchor="middle" x="74" y="-30.3" font-family="Times,serif" font-size="14.00">0</text>
</g>
</g>
</svg>
