<?xml version="1.0" encoding="UTF-8" standalone="no"?>
<!DOCTYPE svg PUBLIC "-//W3C//DTD SVG 1.1//EN"
 "http://www.w3.org/Graphics/SVG/1.1/DTD/svg11.dtd">
<!-- Generated by graphviz version 2.43.0 (0)
 -->
<!-- Title: MONinput/i Pages: 1 -->
<svg width="12072pt" height="421pt"
 viewBox="0.00 0.00 12072.00 421.31" xmlns="http://www.w3.org/2000/svg" xmlns:xlink="http://www.w3.org/1999/xlink">
<g id="graph0" class="graph" transform="scale(1 1) rotate(0) translate(4 417.31)">
<title>MONinput/i</title>
<polygon fill="white" stroke="transparent" points="-4,4 -4,-417.31 12068,-417.31 12068,4 -4,4"/>
<g id="clust1" class="cluster">
<title>cluster0</title>
<path fill="#fff9dd" stroke="#fff9dd" d="M12,-195.31C12,-195.31 136,-195.31 136,-195.31 142,-195.31 148,-201.31 148,-207.31 148,-207.31 148,-258.31 148,-258.31 148,-264.31 142,-270.31 136,-270.31 136,-270.31 12,-270.31 12,-270.31 6,-270.31 0,-264.31 0,-258.31 0,-258.31 0,-207.31 0,-207.31 0,-201.31 6,-195.31 12,-195.31"/>
<text text-anchor="middle" x="74" y="-255.11" font-family="Times,serif" font-size="14.00">((r1?|(r1r1))|r1)|r1</text>
</g>
<g id="clust2" class="cluster">
<title>cluster1</title>
<path fill="#fff9dd" stroke="#fff9dd" d="M263,-60.31C263,-60.31 12052,-60.31 12052,-60.31 12058,-60.31 12064,-66.31 12064,-72.31 12064,-72.31 12064,-393.31 12064,-393.31 12064,-399.31 12058,-405.31 12052,-405.31 12052,-405.31 263,-405.31 263,-405.31 257,-405.31 251,-399.31 251,-393.31 251,-393.31 251,-72.31 251,-72.31 251,-66.31 257,-60.31 263,-60.31"/>
<text text-anchor="middle" x="6157.5" y="-390.11" font-family="Times,serif" font-size="14.00">(((((r1((((r1?|r1)|r1)|(r1|(r1|(r1|r3))))|((r1r1)|((r1r1)|((r1|r3r1)|(r1r3)))))|(r1|(r1|(r1|(r3|(r1|r3))))))|((((((((((((((r1?|r1)|(r1r1))|(r1r1))|((r1r1)|((r1r1)|((r1|r3r1)|((r1r1)|((r1r1)|(r1r3)))))))|((r1r1)|((r1r1)|((r1|r3r1)|((r1r1)|(((r1r1)|(r1r3))|(r1r3)))))))|((r1r1r1)|((r1r1r1)|((r1|r3r1r1)|((r1r1r1)|((((r1r1)|(r1r3))|(r1r3)r1)|(r1r1r3)))))))|((r1r1)|((r1r1)|((r1r1)|((r1r1)|(((r1|r3r1)|(r1r3))|((r3r1)|((r1r1)|((r1|r3r1)|((r1r1)|((r1r1)|((r1r3)|(((r1r1)|(r1r3))|(r1r3))))))))))))))|r1)|r1)|(r1|(r1|(r1|(r1|(r1|(r3|(r1|((r1|r3)|r1)))))))))|(r1|(r1|(r1|(r1|((r1|r3)|(r3|(r1|((r1|r3)|r1)))))))))|r1)|(r1|(r1|(r1|r3))))|r1))|(r1r1(r1|r3)?))|(r1((((r1?|r1)|(r1|(r1|(r1|(r1|r3)))))|(r1|(r1|(r1|((r1|r3)|r3)))))|((r1r1)|((r1r1)|((r1r1)|(((r1|r3)|r3r1)|(r1r3))))))|(r1|(r1|(r1|(r1|(r3|((r1|r3)|r3))))))))|(((((((((((((((r1?|r1)|r1)|(r1r1))|(r1r1))|((r1r1)|(((r1r1)|((r1|r3r1)|((r1r1)|((r1r1)|(r1r3)))))|((r1r1)|((r1r1)|((r1r1)|((r1r1)|(r1r3))))))))|((r1r1)|(((r1r1)|((r1|r3r1)|((r1r1)|(((r1r1)|(r1r3))|(r1r3)))))|((r1r1)|((r1r1)|((r1r1)|(((r1r1)|(r1r3))|(r1r3))))))))|((r1r1r1)|(((r1r1r1)|((r1|r3r1r1)|((r1r1r1)|((((r1r1)|(r1r3))|(r1r3)r1)|(r1r1r3)))))|((r1r1r1)|((r1r1r1)|((r1r1r1)|((((r1r1)|(r1r3))|(r1r3)r1)|(r1r1r3))))))))|((r1r1)|(((r1r1)|((r1r1)|((r1r1)|(((r1|r3r1)|(r1r3))|((r3r1)|((r1r1)|((r1|r3r1)|((r1r1)|((r1r1)|((r1r3)|(((r1r1)|(r1r3))|(r1r3))))))))))))|((r1r1)|((r1r1)|((r1r1)|(((r1|r3r1)|(r1r3))|((r3r1)|((r1r1)|((r1r1)|((r1r1)|((r1r1)|((r1r3)|(((r1r1)|(r1r3))|(r1r3)))))))))))))))|r1)|r1)|(r1|((r1|(r1|(r1|(r1|(r3|(r1|((r1|r3)|r1)))))))|(r1|(r1|(r1|(r1|(r3|r1))))))))|(r1|((r1|(r1|(r1|((r1|r3)|(r3|(r1|((r1|r3)|r1)))))))|(r1|(r1|(r1|((r1|r3)|(r3|r1))))))))|r1)|(r1|((r1|(r1|r3))|r1)))|r1))|(r1((((r1?|r1)|(r1|(r1|(r1|(r1|r3)))))|(r1|(r1|(r1|((r1|r3)|r3)))))|((r1r1)|((r1r1)|((r1r1)|(((r1|r3)|r3r1)|(r1r3))))))|(r1|(r1|(r1|(r1|(r3|((r1|r3)|r3)))))))</text>
</g>
<!-- M0S0 -->
<g id="node1" class="node">
<title>M0S0</title>
<path fill="#ffffff" stroke="black" d="M89,-239.31C89,-239.31 59,-239.31 59,-239.31 53,-239.31 47,-233.31 47,-227.31 47,-227.31 47,-215.31 47,-215.31 47,-209.31 53,-203.31 59,-203.31 59,-203.31 89,-203.31 89,-203.31 95,-203.31 101,-209.31 101,-215.31 101,-215.31 101,-227.31 101,-227.31 101,-233.31 95,-239.31 89,-239.31"/>
<text text-anchor="middle" x="74" y="-217.61" font-family="Times,serif" font-size="14.00">0</text>
</g>
<!-- M1S1 -->
<g id="node2" class="node">
<title>M1S1</title>
<path fill="#ffffff" stroke="black" d="M6172,-374.31C6172,-374.31 6142,-374.31 6142,-374.31 6136,-374.31 6130,-368.31 6130,-362.31 6130,-362.31 6130,-350.31 6130,-350.31 6130,-344.31 6136,-338.31 6142,-338.31 6142,-338.31 6172,-338.31 6172,-338.31 6178,-338.31 6184,-344.31 6184,-350.31 6184,-350.31 6184,-362.31 6184,-362.31 6184,-368.31 6178,-374.31 6172,-374.31"/>
<text text-anchor="middle" x="6157" y="-352.61" font-family="Times,serif" font-size="14.00">1</text>
</g>
<!-- M0S0&#45;&gt;M1S1 -->
<g id="edge1" class="edge">
<title>M0S0&#45;&gt;M1S1</title>
<path fill="none" stroke="black" d="M93.15,-239.54C109.15,-254.86 133.65,-276.57 158,-291.31 196.2,-314.43 207.21,-320.6 251,-329.31 557.54,-390.24 5639.55,-359.58 6119.67,-356.54"/>
<polygon fill="black" stroke="black" points="6119.87,-360.04 6129.84,-356.47 6119.82,-353.04 6119.87,-360.04"/>
<text text-anchor="middle" x="199.5" y="-330.11" font-family="Times,serif" font-size="14.00">(r1, r1)</text>
</g>
<!-- M1S2 -->
<g id="node3" class="node">
<title>M1S2</title>
<path fill="#ffffff" stroke="black" d="M6172,-320.31C6172,-320.31 6142,-320.31 6142,-320.31 6136,-320.31 6130,-314.31 6130,-308.31 6130,-308.31 6130,-296.31 6130,-296.31 6130,-290.31 6136,-284.31 6142,-284.31 6142,-284.31 6172,-284.31 6172,-284.31 6178,-284.31 6184,-290.31 6184,-296.31 6184,-296.31 6184,-308.31 6184,-308.31 6184,-314.31 6178,-320.31 6172,-320.31"/>
<text text-anchor="middle" x="6157" y="-298.61" font-family="Times,serif" font-size="14.00">2</text>
</g>
<!-- M0S0&#45;&gt;M1S2 -->
<g id="edge2" class="edge">
<title>M0S0&#45;&gt;M1S2</title>
<path fill="none" stroke="black" d="M101.27,-232.03C135.18,-245.25 196.34,-266.98 251,-275.31 868.02,-369.28 5654.46,-308.9 6119.67,-302.79"/>
<polygon fill="black" stroke="black" points="6119.9,-306.29 6129.85,-302.66 6119.8,-299.29 6119.9,-306.29"/>
<text text-anchor="middle" x="199.5" y="-276.11" font-family="Times,serif" font-size="14.00">(ε, ε)</text>
</g>
<!-- M1S3 -->
<g id="node4" class="node">
<title>M1S3</title>
<path fill="#ffffff" stroke="black" d="M6172,-266.31C6172,-266.31 6142,-266.31 6142,-266.31 6136,-266.31 6130,-260.31 6130,-254.31 6130,-254.31 6130,-242.31 6130,-242.31 6130,-236.31 6136,-230.31 6142,-230.31 6142,-230.31 6172,-230.31 6172,-230.31 6178,-230.31 6184,-236.31 6184,-242.31 6184,-242.31 6184,-254.31 6184,-254.31 6184,-260.31 6178,-266.31 6172,-266.31"/>
<text text-anchor="middle" x="6157" y="-244.61" font-family="Times,serif" font-size="14.00">3</text>
</g>
<!-- M0S0&#45;&gt;M1S3 -->
<g id="edge3" class="edge">
<title>M0S0&#45;&gt;M1S3</title>
<path fill="none" stroke="black" d="M101.12,-221.42C511.95,-223.25 5638.17,-246.01 6119.76,-248.14"/>
<polygon fill="black" stroke="black" points="6119.95,-251.65 6129.96,-248.19 6119.98,-244.65 6119.95,-251.65"/>
<text text-anchor="middle" x="199.5" y="-225.11" font-family="Times,serif" font-size="14.00">(r1r1, r1r1)</text>
</g>
<!-- M1S4 -->
<g id="node5" class="node">
<title>M1S4</title>
<path fill="#ffffff" stroke="black" d="M6172,-212.31C6172,-212.31 6142,-212.31 6142,-212.31 6136,-212.31 6130,-206.31 6130,-200.31 6130,-200.31 6130,-188.31 6130,-188.31 6130,-182.31 6136,-176.31 6142,-176.31 6142,-176.31 6172,-176.31 6172,-176.31 6178,-176.31 6184,-182.31 6184,-188.31 6184,-188.31 6184,-200.31 6184,-200.31 6184,-206.31 6178,-212.31 6172,-212.31"/>
<text text-anchor="middle" x="6157" y="-190.61" font-family="Times,serif" font-size="14.00">4</text>
</g>
<!-- M0S0&#45;&gt;M1S4 -->
<g id="edge4" class="edge">
<title>M0S0&#45;&gt;M1S4</title>
<path fill="none" stroke="black" d="M101.28,-213.7C117.48,-209.42 138.76,-204.49 158,-202.31 473.51,-166.44 5634.42,-191.67 6119.49,-194.12"/>
<polygon fill="black" stroke="black" points="6119.75,-197.62 6129.77,-194.17 6119.79,-190.62 6119.75,-197.62"/>
<text text-anchor="middle" x="199.5" y="-206.11" font-family="Times,serif" font-size="14.00">(r1, r1)</text>
</g>
<!-- M1S5 -->
<g id="node6" class="node">
<title>M1S5</title>
<path fill="#ffffff" stroke="black" d="M6172,-158.31C6172,-158.31 6142,-158.31 6142,-158.31 6136,-158.31 6130,-152.31 6130,-146.31 6130,-146.31 6130,-134.31 6130,-134.31 6130,-128.31 6136,-122.31 6142,-122.31 6142,-122.31 6172,-122.31 6172,-122.31 6178,-122.31 6184,-128.31 6184,-134.31 6184,-134.31 6184,-146.31 6184,-146.31 6184,-152.31 6178,-158.31 6172,-158.31"/>
<text text-anchor="middle" x="6157" y="-136.61" font-family="Times,serif" font-size="14.00">5</text>
</g>
<!-- M0S0&#45;&gt;M1S5 -->
<g id="edge5" class="edge">
<title>M0S0&#45;&gt;M1S5</title>
<path fill="none" stroke="black" d="M101.24,-204.59C117.07,-195.32 137.99,-184.45 158,-178.31 197.79,-166.09 209.46,-169.85 251,-167.31 1492.51,-91.29 5685.89,-135.12 6119.66,-139.9"/>
<polygon fill="black" stroke="black" points="6119.72,-143.4 6129.76,-140.01 6119.8,-136.4 6119.72,-143.4"/>
<text text-anchor="middle" x="199.5" y="-182.11" font-family="Times,serif" font-size="14.00">(ε, ε)</text>
</g>
<!-- M1S6 -->
<g id="node7" class="node">
<title>M1S6</title>
<path fill="#ffffff" stroke="black" d="M6172,-104.31C6172,-104.31 6142,-104.31 6142,-104.31 6136,-104.31 6130,-98.31 6130,-92.31 6130,-92.31 6130,-80.31 6130,-80.31 6130,-74.31 6136,-68.31 6142,-68.31 6142,-68.31 6172,-68.31 6172,-68.31 6178,-68.31 6184,-74.31 6184,-80.31 6184,-80.31 6184,-92.31 6184,-92.31 6184,-98.31 6178,-104.31 6172,-104.31"/>
<text text-anchor="middle" x="6157" y="-82.61" font-family="Times,serif" font-size="14.00">6</text>
</g>
<!-- M0S0&#45;&gt;M1S6 -->
<g id="edge6" class="edge">
<title>M0S0&#45;&gt;M1S6</title>
<path fill="none" stroke="black" d="M91.96,-203.02C107.77,-186.84 132.66,-163.52 158,-148.31 195.86,-125.57 207.57,-121.31 251,-113.31 1474.55,112.2 5686.13,-65.64 6119.85,-84.7"/>
<polygon fill="black" stroke="black" points="6119.79,-88.2 6129.94,-85.14 6120.1,-81.2 6119.79,-88.2"/>
<text text-anchor="middle" x="199.5" y="-152.11" font-family="Times,serif" font-size="14.00">(r1, r1)</text>
</g>
</g>
</svg>
