<?xml version="1.0" encoding="UTF-8" standalone="no"?>
<!DOCTYPE svg PUBLIC "-//W3C//DTD SVG 1.1//EN"
 "http://www.w3.org/Graphics/SVG/1.1/DTD/svg11.dtd">
<!-- Generated by graphviz version 2.43.0 (0)
 -->
<!-- Title: MONinput/i Pages: 1 -->
<svg width="8121pt" height="207pt"
 viewBox="0.00 0.00 8121.00 207.00" xmlns="http://www.w3.org/2000/svg" xmlns:xlink="http://www.w3.org/1999/xlink">
<g id="graph0" class="graph" transform="scale(1 1) rotate(0) translate(4 203)">
<title>MONinput/i</title>
<polygon fill="white" stroke="transparent" points="-4,4 -4,-203 8117,-203 8117,4 -4,4"/>
<g id="clust1" class="cluster">
<title>cluster0</title>
<path fill="#fff9dd" stroke="#fff9dd" d="M20,-62C20,-62 66,-62 66,-62 72,-62 78,-68 78,-74 78,-74 78,-125 78,-125 78,-131 72,-137 66,-137 66,-137 20,-137 20,-137 14,-137 8,-131 8,-125 8,-125 8,-74 8,-74 8,-68 14,-62 20,-62"/>
<text text-anchor="middle" x="43" y="-121.8" font-family="Times,serif" font-size="14.00">ε</text>
</g>
<g id="clust2" class="cluster">
<title>cluster1</title>
<path fill="#fff9dd" stroke="#fff9dd" d="M145,-62C145,-62 4319,-62 4319,-62 4325,-62 4331,-68 4331,-74 4331,-74 4331,-125 4331,-125 4331,-131 4325,-137 4319,-137 4319,-137 145,-137 145,-137 139,-137 133,-131 133,-125 133,-125 133,-74 133,-74 133,-68 139,-62 145,-62"/>
<text text-anchor="middle" x="2232" y="-121.8" font-family="Times,serif" font-size="14.00">(((((((((((((r1?|r1)|(r1r1))|(r1r1))|((r1r1)|(((r1r1)|((r1|r3r1)|((r1r1)|((r1r1)|(r1r3)))))|(r1r1|(r1|(r1|(r1|r3)))))))|((r1r1)|(((r1r1)|((r1|r3r1)|((r1r1)|(((r1r1)|(r1r3))|(r1r3)))))|(r1r1|(r1|(r1|((r1|r3)|r3)))))))|((r1r1)|(((r1r1)|((r1r1)|((r1r1)|(((r1|r3r1)|(r1r3))|((r3r1)|((r1r1)|((r1|r3r1)|((r1r1)|((r1r1)|((r1r3)|(((r1r1)|(r1r3))|(r1r3))))))))))))|((r1r1)|((r1r1)|((r1r1)|(((r1|r3r1)|(r1r3))|((r3r1)|(r1r1|(r1|(r1|(r1|(r3|((r1|r3)|r3))))))))))))))|r1)|r1)|(r1|((r1|(r1|(r1|(r1|(r3|(r1|((r1|r3)|r1)))))))|(r1|(r1|(r1|(r1|(r3|r1))))))))|(r1|((r1|(r1|(r1|((r1|r3)|(r3|(r1|((r1|r3)|r1)))))))|(r1|(r1|(r1|((r1|r3)|(r3|r1))))))))|r1)|(r1|((r1|(r1|r3))|r1)))|r1)|r1</text>
</g>
<g id="clust3" class="cluster">
<title>cluster2</title>
<path fill="#fff9dd" stroke="#fff9dd" d="M5439,-8C5439,-8 6470,-8 6470,-8 6476,-8 6482,-14 6482,-20 6482,-20 6482,-179 6482,-179 6482,-185 6476,-191 6470,-191 6470,-191 5439,-191 5439,-191 5433,-191 5427,-185 5427,-179 5427,-179 5427,-20 5427,-20 5427,-14 5433,-8 5439,-8"/>
<text text-anchor="middle" x="5954.5" y="-175.8" font-family="Times,serif" font-size="14.00">((r1|((r1|(r1|(r1|(r1|(r3|(r1|((r1|r3)|r1)))))))|(r1|(r1|(r1|(r1|(r3|r1)))))))|(r1|((r1|(r1|(r1|((r1|r3)|(r3|(r1|((r1|r3)|r1)))))))|(r1|(r1|(r1|((r1|r3)|(r3|r1))))))))?</text>
</g>
<g id="clust4" class="cluster">
<title>cluster3</title>
<path fill="#fff9dd" stroke="#fff9dd" d="M7070,-62C7070,-62 8101,-62 8101,-62 8107,-62 8113,-68 8113,-74 8113,-74 8113,-125 8113,-125 8113,-131 8107,-137 8101,-137 8101,-137 7070,-137 7070,-137 7064,-137 7058,-131 7058,-125 7058,-125 7058,-74 7058,-74 7058,-68 7064,-62 7070,-62"/>
<text text-anchor="middle" x="7585.5" y="-121.8" font-family="Times,serif" font-size="14.00">((r1|((r1|(r1|(r1|(r1|(r3|(r1|((r1|r3)|r1)))))))|(r1|(r1|(r1|(r1|(r3|r1)))))))|(r1|((r1|(r1|(r1|((r1|r3)|(r3|(r1|((r1|r3)|r1)))))))|(r1|(r1|(r1|((r1|r3)|(r3|r1))))))))?</text>
</g>
<!-- M0S0 -->
<g id="node1" class="node">
<title>M0S0</title>
<path fill="#ffffff" stroke="black" d="M58,-106C58,-106 28,-106 28,-106 22,-106 16,-100 16,-94 16,-94 16,-82 16,-82 16,-76 22,-70 28,-70 28,-70 58,-70 58,-70 64,-70 70,-76 70,-82 70,-82 70,-94 70,-94 70,-100 64,-106 58,-106"/>
<text text-anchor="middle" x="43" y="-84.3" font-family="Times,serif" font-size="14.00">0</text>
</g>
<!-- M1S9 -->
<g id="node2" class="node">
<title>M1S9</title>
<path fill="#ffffff" stroke="black" d="M2247,-106C2247,-106 2217,-106 2217,-106 2211,-106 2205,-100 2205,-94 2205,-94 2205,-82 2205,-82 2205,-76 2211,-70 2217,-70 2217,-70 2247,-70 2247,-70 2253,-70 2259,-76 2259,-82 2259,-82 2259,-94 2259,-94 2259,-100 2253,-106 2247,-106"/>
<text text-anchor="middle" x="2232" y="-84.3" font-family="Times,serif" font-size="14.00">9</text>
</g>
<!-- M0S0&#45;&gt;M1S9 -->
<g id="edge1" class="edge">
<title>M0S0&#45;&gt;M1S9</title>
<path fill="none" stroke="black" d="M70.08,-88C296.7,-88 1929.79,-88 2194.73,-88"/>
<polygon fill="black" stroke="black" points="2194.95,-91.5 2204.95,-88 2194.95,-84.5 2194.95,-91.5"/>
<text text-anchor="middle" x="105.5" y="-91.8" font-family="Times,serif" font-size="14.00">(ε, ε)</text>
</g>
<!-- M2S7 -->
<g id="node3" class="node">
<title>M2S7</title>
<path fill="#ffffff" stroke="black" d="M5969,-160C5969,-160 5939,-160 5939,-160 5933,-160 5927,-154 5927,-148 5927,-148 5927,-136 5927,-136 5927,-130 5933,-124 5939,-124 5939,-124 5969,-124 5969,-124 5975,-124 5981,-130 5981,-136 5981,-136 5981,-148 5981,-148 5981,-154 5975,-160 5969,-160"/>
<text text-anchor="middle" x="5954" y="-138.3" font-family="Times,serif" font-size="14.00">7</text>
</g>
<!-- M1S9&#45;&gt;M2S7 -->
<g id="edge2" class="edge">
<title>M1S9&#45;&gt;M2S7</title>
<path fill="none" stroke="black" d="M2259.25,-88.38C2570.56,-92.9 5552.51,-136.19 5916.63,-141.47"/>
<polygon fill="black" stroke="black" points="5916.82,-144.98 5926.87,-141.62 5916.92,-137.98 5916.82,-144.98"/>
<text text-anchor="middle" x="4879" y="-137.8" font-family="Times,serif" font-size="14.00">(r1|((r1|(r1|(r1|(r1|(r3|(r1|((r1|r3)|r1)))))))|(r1|(r1|(r1|(r1|(r3|r1)))))), r1|((r1|(r1|(r1|(r1|(r3|(r1|((r1|r3)|r1)))))))|(r1|(r1|(r1|(r1|(r3|r1)))))))</text>
</g>
<!-- M2S5 -->
<g id="node4" class="node">
<title>M2S5</title>
<path fill="#ffffff" stroke="black" d="M5969,-106C5969,-106 5939,-106 5939,-106 5933,-106 5927,-100 5927,-94 5927,-94 5927,-82 5927,-82 5927,-76 5933,-70 5939,-70 5939,-70 5969,-70 5969,-70 5975,-70 5981,-76 5981,-82 5981,-82 5981,-94 5981,-94 5981,-100 5975,-106 5969,-106"/>
<text text-anchor="middle" x="5954" y="-84.3" font-family="Times,serif" font-size="14.00">5</text>
</g>
<!-- M1S9&#45;&gt;M2S5 -->
<g id="edge3" class="edge">
<title>M1S9&#45;&gt;M2S5</title>
<path fill="none" stroke="black" d="M2259.25,-88C2570.56,-88 5552.51,-88 5916.63,-88"/>
<polygon fill="black" stroke="black" points="5916.87,-91.5 5926.87,-88 5916.87,-84.5 5916.87,-91.5"/>
<text text-anchor="middle" x="4879" y="-91.8" font-family="Times,serif" font-size="14.00">(r1|((r1|(r1|(r1|((r1|r3)|(r3|(r1|((r1|r3)|r1)))))))|(r1|(r1|(r1|((r1|r3)|(r3|r1)))))), r1|((r1|(r1|(r1|((r1|r3)|(r3|(r1|((r1|r3)|r1)))))))|(r1|(r1|(r1|((r1|r3)|(r3|r1)))))))</text>
</g>
<!-- M2S6 -->
<g id="node5" class="node">
<title>M2S6</title>
<path fill="#ffffff" stroke="black" d="M5969,-52C5969,-52 5939,-52 5939,-52 5933,-52 5927,-46 5927,-40 5927,-40 5927,-28 5927,-28 5927,-22 5933,-16 5939,-16 5939,-16 5969,-16 5969,-16 5975,-16 5981,-22 5981,-28 5981,-28 5981,-40 5981,-40 5981,-46 5975,-52 5969,-52"/>
<text text-anchor="middle" x="5954" y="-30.3" font-family="Times,serif" font-size="14.00">6</text>
</g>
<!-- M1S9&#45;&gt;M2S6 -->
<g id="edge4" class="edge">
<title>M1S9&#45;&gt;M2S6</title>
<path fill="none" stroke="black" d="M2259.25,-87.62C2570.56,-83.1 5552.51,-39.81 5916.63,-34.53"/>
<polygon fill="black" stroke="black" points="5916.92,-38.02 5926.87,-34.38 5916.82,-31.02 5916.92,-38.02"/>
<text text-anchor="middle" x="4879" y="-60.8" font-family="Times,serif" font-size="14.00">(ε, ε)</text>
</g>
<!-- M3S4 -->
<g id="node6" class="node">
<title>M3S4</title>
<path fill="#ffffff" stroke="black" d="M7600,-106C7600,-106 7570,-106 7570,-106 7564,-106 7558,-100 7558,-94 7558,-94 7558,-82 7558,-82 7558,-76 7564,-70 7570,-70 7570,-70 7600,-70 7600,-70 7606,-70 7612,-76 7612,-82 7612,-82 7612,-94 7612,-94 7612,-100 7606,-106 7600,-106"/>
<text text-anchor="middle" x="7585" y="-84.3" font-family="Times,serif" font-size="14.00">4</text>
</g>
<!-- M2S7&#45;&gt;M3S4 -->
<g id="edge5" class="edge">
<title>M2S7&#45;&gt;M3S4</title>
<path fill="none" stroke="black" d="M5981.22,-141.19C6102.6,-137.45 6622.02,-121.37 7048,-107 7236.05,-100.66 7461.19,-92.49 7547.7,-89.33"/>
<polygon fill="black" stroke="black" points="7547.92,-92.82 7557.79,-88.96 7547.67,-85.83 7547.92,-92.82"/>
<text text-anchor="middle" x="6770" y="-128.8" font-family="Times,serif" font-size="14.00">(ε, r1|((r1|(r1|(r1|(r1|(r3|(r1|((r1|r3)|r1)))))))|(r1|(r1|(r1|(r1|(r3|r1)))))))</text>
</g>
<!-- M2S5&#45;&gt;M3S4 -->
<g id="edge6" class="edge">
<title>M2S5&#45;&gt;M3S4</title>
<path fill="none" stroke="black" d="M5981.25,-88C6170.69,-88 7327.76,-88 7547.86,-88"/>
<polygon fill="black" stroke="black" points="7547.91,-91.5 7557.91,-88 7547.91,-84.5 7547.91,-91.5"/>
<text text-anchor="middle" x="6770" y="-91.8" font-family="Times,serif" font-size="14.00">(ε, r1|((r1|(r1|(r1|((r1|r3)|(r3|(r1|((r1|r3)|r1)))))))|(r1|(r1|(r1|((r1|r3)|(r3|r1)))))))</text>
</g>
<!-- M2S6&#45;&gt;M3S4 -->
<g id="edge7" class="edge">
<title>M2S6&#45;&gt;M3S4</title>
<path fill="none" stroke="black" d="M5981.22,-34.81C6102.6,-38.55 6622.02,-54.63 7048,-69 7236.05,-75.34 7461.19,-83.51 7547.7,-86.67"/>
<polygon fill="black" stroke="black" points="7547.67,-90.17 7557.79,-87.04 7547.92,-83.18 7547.67,-90.17"/>
<text text-anchor="middle" x="6770" y="-72.8" font-family="Times,serif" font-size="14.00">(ε, ε)</text>
</g>
</g>
</svg>
