<?xml version="1.0" encoding="UTF-8" standalone="no"?>
<!DOCTYPE svg PUBLIC "-//W3C//DTD SVG 1.1//EN"
 "http://www.w3.org/Graphics/SVG/1.1/DTD/svg11.dtd">
<!-- Generated by graphviz version 2.43.0 (0)
 -->
<!-- Title: MONinput/i Pages: 1 -->
<svg width="1760pt" height="1329pt"
 viewBox="0.00 0.00 1760.00 1328.69" xmlns="http://www.w3.org/2000/svg" xmlns:xlink="http://www.w3.org/1999/xlink">
<g id="graph0" class="graph" transform="scale(1 1) rotate(0) translate(4 1324.69)">
<title>MONinput/i</title>
<polygon fill="white" stroke="transparent" points="-4,4 -4,-1324.69 1756,-1324.69 1756,4 -4,4"/>
<g id="clust1" class="cluster">
<title>cluster0</title>
<path fill="#fff9dd" stroke="#fff9dd" d="M20,-766.69C20,-766.69 66,-766.69 66,-766.69 72,-766.69 78,-772.69 78,-778.69 78,-778.69 78,-829.69 78,-829.69 78,-835.69 72,-841.69 66,-841.69 66,-841.69 20,-841.69 20,-841.69 14,-841.69 8,-835.69 8,-829.69 8,-829.69 8,-778.69 8,-778.69 8,-772.69 14,-766.69 20,-766.69"/>
<text text-anchor="middle" x="43" y="-826.49" font-family="Times,serif" font-size="14.00">a?</text>
</g>
<g id="clust2" class="cluster">
<title>cluster1</title>
<path fill="#fff9dd" stroke="#fff9dd" d="M147,-658.69C147,-658.69 332,-658.69 332,-658.69 338,-658.69 344,-664.69 344,-670.69 344,-670.69 344,-937.69 344,-937.69 344,-943.69 338,-949.69 332,-949.69 332,-949.69 147,-949.69 147,-949.69 141,-949.69 135,-943.69 135,-937.69 135,-937.69 135,-670.69 135,-670.69 135,-664.69 141,-658.69 147,-658.69"/>
<text text-anchor="middle" x="239.5" y="-934.49" font-family="Times,serif" font-size="14.00">a|a|c?|(a|c|(a|c)|c|a|a|c|c|a)?</text>
</g>
<g id="clust3" class="cluster">
<title>cluster2</title>
<path fill="#fff9dd" stroke="#fff9dd" d="M557,-338.69C557,-338.69 796,-338.69 796,-338.69 802,-338.69 808,-344.69 808,-350.69 808,-350.69 808,-887.69 808,-887.69 808,-893.69 802,-899.69 796,-899.69 796,-899.69 557,-899.69 557,-899.69 551,-899.69 545,-893.69 545,-887.69 545,-887.69 545,-350.69 545,-350.69 545,-344.69 551,-338.69 557,-338.69"/>
<text text-anchor="middle" x="676.5" y="-884.49" font-family="Times,serif" font-size="14.00">a|c|(a|c)|c|a|a|c|c|a|a?|a|c?|a|c?|a|c?</text>
</g>
<g id="clust4" class="cluster">
<title>cluster3</title>
<path fill="#fff9dd" stroke="#fff9dd" d="M948,-436.69C948,-436.69 1740,-436.69 1740,-436.69 1746,-436.69 1752,-442.69 1752,-448.69 1752,-448.69 1752,-661.69 1752,-661.69 1752,-667.69 1746,-673.69 1740,-673.69 1740,-673.69 948,-673.69 948,-673.69 942,-673.69 936,-667.69 936,-661.69 936,-661.69 936,-448.69 936,-448.69 936,-442.69 942,-436.69 948,-436.69"/>
<text text-anchor="middle" x="1344" y="-658.49" font-family="Times,serif" font-size="14.00">(a|c|(a|c)|c|a|a|c|c|a(a|c)?)|(a?|a|c|((aa)|((a|ca)|(ac)))|a|c)|(a?|a|c|((aa)|((a|ca)|(ac)))|a|c)|(a?|a|c|((aa)|((a|ca)|(ac)))|a|c)</text>
</g>
<!-- M0S0 -->
<g id="node1" class="node">
<title>M0S0</title>
<path fill="#ffffff" stroke="black" d="M58,-810.69C58,-810.69 28,-810.69 28,-810.69 22,-810.69 16,-804.69 16,-798.69 16,-798.69 16,-786.69 16,-786.69 16,-780.69 22,-774.69 28,-774.69 28,-774.69 58,-774.69 58,-774.69 64,-774.69 70,-780.69 70,-786.69 70,-786.69 70,-798.69 70,-798.69 70,-804.69 64,-810.69 58,-810.69"/>
<text text-anchor="middle" x="43" y="-788.99" font-family="Times,serif" font-size="14.00">0</text>
</g>
<!-- M1S1 -->
<g id="node2" class="node">
<title>M1S1</title>
<path fill="#ffffff" stroke="black" d="M254,-918.69C254,-918.69 224,-918.69 224,-918.69 218,-918.69 212,-912.69 212,-906.69 212,-906.69 212,-894.69 212,-894.69 212,-888.69 218,-882.69 224,-882.69 224,-882.69 254,-882.69 254,-882.69 260,-882.69 266,-888.69 266,-894.69 266,-894.69 266,-906.69 266,-906.69 266,-912.69 260,-918.69 254,-918.69"/>
<text text-anchor="middle" x="239" y="-896.99" font-family="Times,serif" font-size="14.00">1</text>
</g>
<!-- M0S0&#45;&gt;M1S1 -->
<g id="edge1" class="edge">
<title>M0S0&#45;&gt;M1S1</title>
<path fill="none" stroke="black" d="M59.03,-810.9C67.16,-820.26 77.64,-831.59 88,-840.69 107.18,-857.53 111.85,-862.95 135,-873.69 156.14,-883.49 181.42,-890.19 201.66,-894.46"/>
<polygon fill="black" stroke="black" points="201.23,-897.94 211.72,-896.47 202.61,-891.08 201.23,-897.94"/>
<text text-anchor="middle" x="106.5" y="-871.49" font-family="Times,serif" font-size="14.00">(a, a)</text>
</g>
<!-- M1S2 -->
<g id="node3" class="node">
<title>M1S2</title>
<path fill="#ffffff" stroke="black" d="M254,-756.69C254,-756.69 224,-756.69 224,-756.69 218,-756.69 212,-750.69 212,-744.69 212,-744.69 212,-732.69 212,-732.69 212,-726.69 218,-720.69 224,-720.69 224,-720.69 254,-720.69 254,-720.69 260,-720.69 266,-726.69 266,-732.69 266,-732.69 266,-744.69 266,-744.69 266,-750.69 260,-756.69 254,-756.69"/>
<text text-anchor="middle" x="239" y="-734.99" font-family="Times,serif" font-size="14.00">2</text>
</g>
<!-- M0S0&#45;&gt;M1S2 -->
<g id="edge2" class="edge">
<title>M0S0&#45;&gt;M1S2</title>
<path fill="none" stroke="black" d="M70.23,-780.46C76.01,-778.02 82.15,-775.62 88,-773.69 126.22,-761.09 171.34,-751.21 202.04,-745.21"/>
<polygon fill="black" stroke="black" points="202.71,-748.64 211.87,-743.32 201.39,-741.77 202.71,-748.64"/>
<text text-anchor="middle" x="106.5" y="-777.49" font-family="Times,serif" font-size="14.00">(ε, ε)</text>
</g>
<!-- M1S4 -->
<g id="node4" class="node">
<title>M1S4</title>
<path fill="#ffffff" stroke="black" d="M254,-810.69C254,-810.69 224,-810.69 224,-810.69 218,-810.69 212,-804.69 212,-798.69 212,-798.69 212,-786.69 212,-786.69 212,-780.69 218,-774.69 224,-774.69 224,-774.69 254,-774.69 254,-774.69 260,-774.69 266,-780.69 266,-786.69 266,-786.69 266,-798.69 266,-798.69 266,-804.69 260,-810.69 254,-810.69"/>
<text text-anchor="middle" x="239" y="-788.99" font-family="Times,serif" font-size="14.00">4</text>
</g>
<!-- M0S0&#45;&gt;M1S4 -->
<g id="edge3" class="edge">
<title>M0S0&#45;&gt;M1S4</title>
<path fill="none" stroke="black" d="M70.16,-792.69C104.1,-792.69 163.48,-792.69 201.75,-792.69"/>
<polygon fill="black" stroke="black" points="201.94,-796.19 211.94,-792.69 201.94,-789.19 201.94,-796.19"/>
<text text-anchor="middle" x="106.5" y="-796.49" font-family="Times,serif" font-size="14.00">(a, a)</text>
</g>
<!-- M1S5 -->
<g id="node5" class="node">
<title>M1S5</title>
<path fill="#ffffff" stroke="black" d="M254,-702.69C254,-702.69 224,-702.69 224,-702.69 218,-702.69 212,-696.69 212,-690.69 212,-690.69 212,-678.69 212,-678.69 212,-672.69 218,-666.69 224,-666.69 224,-666.69 254,-666.69 254,-666.69 260,-666.69 266,-672.69 266,-678.69 266,-678.69 266,-690.69 266,-690.69 266,-696.69 260,-702.69 254,-702.69"/>
<text text-anchor="middle" x="239" y="-680.99" font-family="Times,serif" font-size="14.00">5</text>
</g>
<!-- M0S0&#45;&gt;M1S5 -->
<g id="edge4" class="edge">
<title>M0S0&#45;&gt;M1S5</title>
<path fill="none" stroke="black" d="M58.52,-774.49C66.67,-764.81 77.33,-753.02 88,-743.69 107.02,-727.06 112,-722.16 135,-711.69 156.21,-702.04 181.5,-695.35 201.71,-691.04"/>
<polygon fill="black" stroke="black" points="202.66,-694.42 211.77,-689 201.27,-687.56 202.66,-694.42"/>
<text text-anchor="middle" x="106.5" y="-747.49" font-family="Times,serif" font-size="14.00">(ε, ε)</text>
</g>
<!-- M1S6 -->
<g id="node6" class="node">
<title>M1S6</title>
<path fill="#ffffff" stroke="black" d="M254,-864.69C254,-864.69 224,-864.69 224,-864.69 218,-864.69 212,-858.69 212,-852.69 212,-852.69 212,-840.69 212,-840.69 212,-834.69 218,-828.69 224,-828.69 224,-828.69 254,-828.69 254,-828.69 260,-828.69 266,-834.69 266,-840.69 266,-840.69 266,-852.69 266,-852.69 266,-858.69 260,-864.69 254,-864.69"/>
<text text-anchor="middle" x="239" y="-842.99" font-family="Times,serif" font-size="14.00">6</text>
</g>
<!-- M0S0&#45;&gt;M1S6 -->
<g id="edge5" class="edge">
<title>M0S0&#45;&gt;M1S6</title>
<path fill="none" stroke="black" d="M70.23,-804.92C76.01,-807.36 82.15,-809.76 88,-811.69 126.22,-824.29 171.34,-834.17 202.04,-840.18"/>
<polygon fill="black" stroke="black" points="201.39,-843.61 211.87,-842.06 202.71,-836.74 201.39,-843.61"/>
<text text-anchor="middle" x="106.5" y="-825.49" font-family="Times,serif" font-size="14.00">(a, a)</text>
</g>
<!-- M2S7 -->
<g id="node7" class="node">
<title>M2S7</title>
<path fill="#ffffff" stroke="black" d="M691,-868.69C691,-868.69 661,-868.69 661,-868.69 655,-868.69 649,-862.69 649,-856.69 649,-856.69 649,-844.69 649,-844.69 649,-838.69 655,-832.69 661,-832.69 661,-832.69 691,-832.69 691,-832.69 697,-832.69 703,-838.69 703,-844.69 703,-844.69 703,-856.69 703,-856.69 703,-862.69 697,-868.69 691,-868.69"/>
<text text-anchor="middle" x="676" y="-846.99" font-family="Times,serif" font-size="14.00">7</text>
</g>
<!-- M1S1&#45;&gt;M2S7 -->
<g id="edge6" class="edge">
<title>M1S1&#45;&gt;M2S7</title>
<path fill="none" stroke="black" d="M242.75,-918.9C253.46,-987.28 294.79,-1226.97 354,-1270.69 418.72,-1318.47 469.74,-1317.73 535,-1270.69 665.12,-1176.9 676.13,-956.93 675.76,-878.82"/>
<polygon fill="black" stroke="black" points="679.25,-878.72 675.64,-868.77 672.26,-878.81 679.25,-878.72"/>
<text text-anchor="middle" x="444.5" y="-1309.49" font-family="Times,serif" font-size="14.00">(ε, a)</text>
</g>
<!-- M2S9 -->
<g id="node8" class="node">
<title>M2S9</title>
<path fill="#ffffff" stroke="black" d="M691,-760.69C691,-760.69 661,-760.69 661,-760.69 655,-760.69 649,-754.69 649,-748.69 649,-748.69 649,-736.69 649,-736.69 649,-730.69 655,-724.69 661,-724.69 661,-724.69 691,-724.69 691,-724.69 697,-724.69 703,-730.69 703,-736.69 703,-736.69 703,-748.69 703,-748.69 703,-754.69 697,-760.69 691,-760.69"/>
<text text-anchor="middle" x="676" y="-738.99" font-family="Times,serif" font-size="14.00">9</text>
</g>
<!-- M1S1&#45;&gt;M2S9 -->
<g id="edge7" class="edge">
<title>M1S1&#45;&gt;M2S9</title>
<path fill="none" stroke="black" d="M240.54,-919.02C243.21,-972.53 259.16,-1128.83 354,-1193.69 387.2,-1216.4 506.23,-1221.79 535,-1193.69 551.86,-1177.23 529.91,-787.79 545,-769.69 567.31,-742.92 608.61,-738.35 638.68,-739.1"/>
<polygon fill="black" stroke="black" points="638.66,-742.6 648.8,-739.56 638.97,-735.61 638.66,-742.6"/>
<text text-anchor="middle" x="444.5" y="-1216.49" font-family="Times,serif" font-size="14.00">(ε, a)</text>
</g>
<!-- M2S10 -->
<g id="node9" class="node">
<title>M2S10</title>
<path fill="#ffffff" stroke="black" d="M691,-814.69C691,-814.69 661,-814.69 661,-814.69 655,-814.69 649,-808.69 649,-802.69 649,-802.69 649,-790.69 649,-790.69 649,-784.69 655,-778.69 661,-778.69 661,-778.69 691,-778.69 691,-778.69 697,-778.69 703,-784.69 703,-790.69 703,-790.69 703,-802.69 703,-802.69 703,-808.69 697,-814.69 691,-814.69"/>
<text text-anchor="middle" x="676" y="-792.99" font-family="Times,serif" font-size="14.00">10</text>
</g>
<!-- M1S1&#45;&gt;M2S10 -->
<g id="edge8" class="edge">
<title>M1S1&#45;&gt;M2S10</title>
<path fill="none" stroke="black" d="M239.63,-918.85C239.55,-976.67 248.11,-1157.09 354,-1232.69 370.37,-1244.38 520.61,-1246.74 535,-1232.69 551.27,-1216.82 530.44,-841.14 545,-823.69 567.32,-796.93 608.61,-792.36 638.69,-793.1"/>
<polygon fill="black" stroke="black" points="638.66,-796.61 648.81,-793.56 638.98,-789.61 638.66,-796.61"/>
<text text-anchor="middle" x="444.5" y="-1245.49" font-family="Times,serif" font-size="14.00">(ε, a)</text>
</g>
<!-- M2S11 -->
<g id="node10" class="node">
<title>M2S11</title>
<path fill="#ffffff" stroke="black" d="M691,-706.69C691,-706.69 661,-706.69 661,-706.69 655,-706.69 649,-700.69 649,-694.69 649,-694.69 649,-682.69 649,-682.69 649,-676.69 655,-670.69 661,-670.69 661,-670.69 691,-670.69 691,-670.69 697,-670.69 703,-676.69 703,-682.69 703,-682.69 703,-694.69 703,-694.69 703,-700.69 697,-706.69 691,-706.69"/>
<text text-anchor="middle" x="676" y="-684.99" font-family="Times,serif" font-size="14.00">11</text>
</g>
<!-- M1S1&#45;&gt;M2S11 -->
<g id="edge9" class="edge">
<title>M1S1&#45;&gt;M2S11</title>
<path fill="none" stroke="black" d="M248.38,-919.09C263.95,-950.72 300.68,-1014.46 354,-1039.69 390.36,-1056.89 506.12,-1067.69 535,-1039.69 560.86,-1014.62 521.84,-743.27 545,-715.69 567.41,-689 608.68,-684.42 638.73,-685.14"/>
<polygon fill="black" stroke="black" points="638.7,-688.64 648.84,-685.59 639.01,-681.65 638.7,-688.64"/>
<text text-anchor="middle" x="444.5" y="-1060.49" font-family="Times,serif" font-size="14.00">(ε, a)</text>
</g>
<!-- M1S2&#45;&gt;M2S7 -->
<g id="edge10" class="edge">
<title>M1S2&#45;&gt;M2S7</title>
<path fill="none" stroke="black" d="M266.45,-737.8C290.43,-738.54 324.86,-743.77 344,-765.69 368.72,-794.01 325.93,-824.68 354,-849.69 395.13,-886.33 564.18,-866.98 639.04,-856.26"/>
<polygon fill="black" stroke="black" points="639.57,-859.72 648.95,-854.81 638.55,-852.79 639.57,-859.72"/>
<text text-anchor="middle" x="444.5" y="-874.49" font-family="Times,serif" font-size="14.00">(a|c, a|c)</text>
</g>
<!-- M1S2&#45;&gt;M2S9 -->
<g id="edge11" class="edge">
<title>M1S2&#45;&gt;M2S9</title>
<path fill="none" stroke="black" d="M266.41,-741.3C288.46,-744.44 320.05,-751.22 344,-765.69 349.66,-769.11 347.96,-774.02 354,-776.69 427.57,-809.23 458.28,-800.87 535,-776.69 540.17,-775.06 540.02,-771.84 545,-769.69 575.17,-756.66 612.06,-749.77 638.82,-746.22"/>
<polygon fill="black" stroke="black" points="639.41,-749.67 648.91,-744.98 638.55,-742.73 639.41,-749.67"/>
<text text-anchor="middle" x="444.5" y="-801.49" font-family="Times,serif" font-size="14.00">(a|c, a|c)</text>
</g>
<!-- M1S2&#45;&gt;M2S10 -->
<g id="edge12" class="edge">
<title>M1S2&#45;&gt;M2S10</title>
<path fill="none" stroke="black" d="M266.04,-738.17C289.73,-739.17 323.97,-744.58 344,-765.69 359.3,-781.82 336.78,-800.63 354,-814.69 396.63,-849.5 564.1,-819.99 638.75,-804.61"/>
<polygon fill="black" stroke="black" points="639.57,-808.01 648.64,-802.54 638.14,-801.16 639.57,-808.01"/>
<text text-anchor="middle" x="444.5" y="-834.49" font-family="Times,serif" font-size="14.00">(a, a)</text>
</g>
<!-- M1S2&#45;&gt;M2S11 -->
<g id="edge13" class="edge">
<title>M1S2&#45;&gt;M2S11</title>
<path fill="none" stroke="black" d="M266.09,-739.69C290.17,-739.06 324.97,-733.95 344,-711.69 358.8,-694.38 337.13,-624.99 354,-609.69 383.8,-582.67 503.99,-584.07 535,-609.69 553.14,-624.68 528.48,-644.93 545,-661.69 569.14,-686.19 609.29,-691.3 638.59,-691.3"/>
<polygon fill="black" stroke="black" points="638.92,-694.8 648.85,-691.1 638.78,-687.8 638.92,-694.8"/>
<text text-anchor="middle" x="444.5" y="-613.49" font-family="Times,serif" font-size="14.00">(a, a)</text>
</g>
<!-- M2S12 -->
<g id="node11" class="node">
<title>M2S12</title>
<path fill="#ffffff" stroke="black" d="M691,-652.69C691,-652.69 661,-652.69 661,-652.69 655,-652.69 649,-646.69 649,-640.69 649,-640.69 649,-628.69 649,-628.69 649,-622.69 655,-616.69 661,-616.69 661,-616.69 691,-616.69 691,-616.69 697,-616.69 703,-622.69 703,-628.69 703,-628.69 703,-640.69 703,-640.69 703,-646.69 697,-652.69 691,-652.69"/>
<text text-anchor="middle" x="676" y="-630.99" font-family="Times,serif" font-size="14.00">12</text>
</g>
<!-- M1S2&#45;&gt;M2S12 -->
<g id="edge14" class="edge">
<title>M1S2&#45;&gt;M2S12</title>
<path fill="none" stroke="black" d="M266.23,-739.8C290.4,-739.26 325.27,-734.21 344,-711.69 364.09,-687.54 331.02,-592.1 354,-570.69 383.43,-543.27 503.06,-546.24 535,-570.69 548.53,-581.05 532.6,-596.01 545,-607.69 569.95,-631.21 609.79,-636.51 638.8,-636.83"/>
<polygon fill="black" stroke="black" points="638.97,-640.33 648.95,-636.74 638.92,-633.33 638.97,-640.33"/>
<text text-anchor="middle" x="444.5" y="-574.49" font-family="Times,serif" font-size="14.00">(ε, ε)</text>
</g>
<!-- M2S13 -->
<g id="node12" class="node">
<title>M2S13</title>
<path fill="#ffffff" stroke="black" d="M691,-544.69C691,-544.69 661,-544.69 661,-544.69 655,-544.69 649,-538.69 649,-532.69 649,-532.69 649,-520.69 649,-520.69 649,-514.69 655,-508.69 661,-508.69 661,-508.69 691,-508.69 691,-508.69 697,-508.69 703,-514.69 703,-520.69 703,-520.69 703,-532.69 703,-532.69 703,-538.69 697,-544.69 691,-544.69"/>
<text text-anchor="middle" x="676" y="-522.99" font-family="Times,serif" font-size="14.00">13</text>
</g>
<!-- M1S2&#45;&gt;M2S13 -->
<g id="edge15" class="edge">
<title>M1S2&#45;&gt;M2S13</title>
<path fill="none" stroke="black" d="M266.35,-739.9C290.62,-739.44 325.55,-734.44 344,-711.69 359.2,-692.94 336.54,-511.36 354,-494.69 383.09,-466.91 495.85,-485.45 535,-494.69 539.84,-495.83 540.31,-498.06 545,-499.69 575.76,-510.37 612.15,-517.48 638.6,-521.72"/>
<polygon fill="black" stroke="black" points="638.15,-525.19 648.57,-523.25 639.21,-518.27 638.15,-525.19"/>
<text text-anchor="middle" x="444.5" y="-498.49" font-family="Times,serif" font-size="14.00">(ε, ε)</text>
</g>
<!-- M2S14 -->
<g id="node13" class="node">
<title>M2S14</title>
<path fill="#ffffff" stroke="black" d="M691,-598.69C691,-598.69 661,-598.69 661,-598.69 655,-598.69 649,-592.69 649,-586.69 649,-586.69 649,-574.69 649,-574.69 649,-568.69 655,-562.69 661,-562.69 661,-562.69 691,-562.69 691,-562.69 697,-562.69 703,-568.69 703,-574.69 703,-574.69 703,-586.69 703,-586.69 703,-592.69 697,-598.69 691,-598.69"/>
<text text-anchor="middle" x="676" y="-576.99" font-family="Times,serif" font-size="14.00">14</text>
</g>
<!-- M1S2&#45;&gt;M2S14 -->
<g id="edge16" class="edge">
<title>M1S2&#45;&gt;M2S14</title>
<path fill="none" stroke="black" d="M266.31,-739.87C290.53,-739.37 325.45,-734.35 344,-711.69 356.69,-696.19 339.45,-545.46 354,-531.69 383.22,-504.05 501.18,-509.91 535,-531.69 544.03,-537.5 536.61,-546.98 545,-553.69 571.42,-574.82 610.27,-580.59 638.62,-581.68"/>
<polygon fill="black" stroke="black" points="638.85,-585.18 648.92,-581.89 638.99,-578.18 638.85,-585.18"/>
<text text-anchor="middle" x="444.5" y="-535.49" font-family="Times,serif" font-size="14.00">(ε, ε)</text>
</g>
<!-- M2S15 -->
<g id="node14" class="node">
<title>M2S15</title>
<path fill="#ffffff" stroke="black" d="M691,-436.69C691,-436.69 661,-436.69 661,-436.69 655,-436.69 649,-430.69 649,-424.69 649,-424.69 649,-412.69 649,-412.69 649,-406.69 655,-400.69 661,-400.69 661,-400.69 691,-400.69 691,-400.69 697,-400.69 703,-406.69 703,-412.69 703,-412.69 703,-424.69 703,-424.69 703,-430.69 697,-436.69 691,-436.69"/>
<text text-anchor="middle" x="676" y="-414.99" font-family="Times,serif" font-size="14.00">15</text>
</g>
<!-- M1S2&#45;&gt;M2S15 -->
<g id="edge17" class="edge">
<title>M1S2&#45;&gt;M2S15</title>
<path fill="none" stroke="black" d="M266.41,-739.95C290.72,-739.52 325.68,-734.54 344,-711.69 364.03,-686.71 331.14,-446.11 354,-423.69 393.33,-385.11 563.36,-403.13 638.76,-413.35"/>
<polygon fill="black" stroke="black" points="638.36,-416.83 648.75,-414.73 639.32,-409.89 638.36,-416.83"/>
<text text-anchor="middle" x="444.5" y="-427.49" font-family="Times,serif" font-size="14.00">(ε, ε)</text>
</g>
<!-- M2S16 -->
<g id="node15" class="node">
<title>M2S16</title>
<path fill="#ffffff" stroke="black" d="M691,-490.69C691,-490.69 661,-490.69 661,-490.69 655,-490.69 649,-484.69 649,-478.69 649,-478.69 649,-466.69 649,-466.69 649,-460.69 655,-454.69 661,-454.69 661,-454.69 691,-454.69 691,-454.69 697,-454.69 703,-460.69 703,-466.69 703,-466.69 703,-478.69 703,-478.69 703,-484.69 697,-490.69 691,-490.69"/>
<text text-anchor="middle" x="676" y="-468.99" font-family="Times,serif" font-size="14.00">16</text>
</g>
<!-- M1S2&#45;&gt;M2S16 -->
<g id="edge18" class="edge">
<title>M1S2&#45;&gt;M2S16</title>
<path fill="none" stroke="black" d="M266.38,-739.93C290.67,-739.48 325.62,-734.49 344,-711.69 361.45,-690.05 333.95,-480.95 354,-461.69 393.75,-423.5 563.55,-450.86 638.82,-465.3"/>
<polygon fill="black" stroke="black" points="638.31,-468.76 648.8,-467.24 639.65,-461.89 638.31,-468.76"/>
<text text-anchor="middle" x="444.5" y="-465.49" font-family="Times,serif" font-size="14.00">(ε, ε)</text>
</g>
<!-- M1S4&#45;&gt;M2S7 -->
<g id="edge19" class="edge">
<title>M1S4&#45;&gt;M2S7</title>
<path fill="none" stroke="black" d="M266.31,-791.51C290.55,-792 325.46,-797.02 344,-819.69 357.03,-835.63 339.06,-990.53 354,-1004.69 383.2,-1032.35 498.22,-1020.96 535,-1004.69 593.79,-978.68 638.49,-914.44 660.28,-877.67"/>
<polygon fill="black" stroke="black" points="663.35,-879.36 665.32,-868.95 657.29,-875.86 663.35,-879.36"/>
<text text-anchor="middle" x="444.5" y="-1024.49" font-family="Times,serif" font-size="14.00">(ε, a)</text>
</g>
<!-- M1S4&#45;&gt;M2S9 -->
<g id="edge20" class="edge">
<title>M1S4&#45;&gt;M2S9</title>
<path fill="none" stroke="black" d="M266.12,-791.67C290.22,-792.27 325.04,-797.37 344,-819.69 359.75,-838.23 336.03,-912.3 354,-928.69 368.86,-942.25 520.34,-942.46 535,-928.69 560.81,-904.45 521.8,-796.44 545,-769.69 567.76,-743.44 608.79,-738.74 638.68,-739.32"/>
<polygon fill="black" stroke="black" points="638.61,-742.82 648.74,-739.71 638.88,-735.82 638.61,-742.82"/>
<text text-anchor="middle" x="444.5" y="-942.49" font-family="Times,serif" font-size="14.00">(ε, a)</text>
</g>
<!-- M1S4&#45;&gt;M2S10 -->
<g id="edge21" class="edge">
<title>M1S4&#45;&gt;M2S10</title>
<path fill="none" stroke="black" d="M266.24,-791.57C290.42,-792.1 325.3,-797.15 344,-819.69 364.9,-844.89 330.08,-944.34 354,-966.69 383.39,-994.15 505.58,-994.12 535,-966.69 558.3,-944.96 524.05,-847.68 545,-823.69 567.86,-797.52 608.86,-792.81 638.73,-793.36"/>
<polygon fill="black" stroke="black" points="638.65,-796.86 648.77,-793.74 638.92,-789.86 638.65,-796.86"/>
<text text-anchor="middle" x="444.5" y="-990.49" font-family="Times,serif" font-size="14.00">(ε, a)</text>
</g>
<!-- M1S4&#45;&gt;M2S11 -->
<g id="edge22" class="edge">
<title>M1S4&#45;&gt;M2S11</title>
<path fill="none" stroke="black" d="M266.29,-789.01C287.99,-785.24 319.15,-778.14 344,-765.69 349.09,-763.14 348.74,-759.85 354,-757.69 391.41,-742.33 502.38,-762.6 535,-738.69 543.99,-732.1 536.35,-722.72 545,-715.69 571.25,-694.35 610.12,-688.6 638.52,-687.58"/>
<polygon fill="black" stroke="black" points="638.91,-691.08 648.84,-687.4 638.78,-684.08 638.91,-691.08"/>
<text text-anchor="middle" x="444.5" y="-761.49" font-family="Times,serif" font-size="14.00">(ε, a)</text>
</g>
<!-- M1S5&#45;&gt;M2S7 -->
<g id="edge23" class="edge">
<title>M1S5&#45;&gt;M2S7</title>
<path fill="none" stroke="black" d="M266.23,-688.64C289.31,-692.05 323.85,-696.99 354,-700.69 394.14,-705.61 506.53,-690.97 535,-719.69 551.35,-736.18 529.5,-806.4 545,-823.69 568.19,-849.56 609.14,-854.33 638.9,-853.87"/>
<polygon fill="black" stroke="black" points="639.04,-857.37 648.91,-853.52 638.79,-850.37 639.04,-857.37"/>
<text text-anchor="middle" x="444.5" y="-723.49" font-family="Times,serif" font-size="14.00">(a|c|(a|c)|c|a, a|c|(a|c)|c|a)</text>
</g>
<!-- M1S5&#45;&gt;M2S9 -->
<g id="edge24" class="edge">
<title>M1S5&#45;&gt;M2S9</title>
<path fill="none" stroke="black" d="M266.14,-673.6C288.88,-664.59 322.97,-652.6 354,-647.69 393.73,-641.4 504.56,-621.4 535,-647.69 558.12,-667.66 524.04,-693.46 545,-715.69 568.66,-740.78 609.07,-745.77 638.57,-745.58"/>
<polygon fill="black" stroke="black" points="638.99,-749.07 648.89,-745.3 638.8,-742.07 638.99,-749.07"/>
<text text-anchor="middle" x="444.5" y="-651.49" font-family="Times,serif" font-size="14.00">(a|c|c|a, a|c|c|a)</text>
</g>
<!-- M1S5&#45;&gt;M2S10 -->
<g id="edge25" class="edge">
<title>M1S5&#45;&gt;M2S10</title>
<path fill="none" stroke="black" d="M266.27,-680.57C331.02,-671.04 495.9,-650.85 535,-685.69 563.07,-710.7 519.59,-741.98 545,-769.69 568.31,-795.11 608.78,-800.04 638.39,-799.74"/>
<polygon fill="black" stroke="black" points="638.87,-803.23 648.76,-799.43 638.65,-796.24 638.87,-803.23"/>
<text text-anchor="middle" x="444.5" y="-689.49" font-family="Times,serif" font-size="14.00">(a, a)</text>
</g>
<!-- M1S5&#45;&gt;M2S11 -->
<g id="edge26" class="edge">
<title>M1S5&#45;&gt;M2S11</title>
<path fill="none" stroke="black" d="M240.28,-666.54C242.21,-612.03 256.26,-449.35 354,-381.69 387.07,-358.8 506.06,-353.76 535,-381.69 557.4,-403.31 524.92,-637.9 545,-661.69 567.47,-688.32 608.74,-692.92 638.76,-692.21"/>
<polygon fill="black" stroke="black" points="639.03,-695.71 648.87,-691.77 638.72,-688.71 639.03,-695.71"/>
<text text-anchor="middle" x="444.5" y="-385.49" font-family="Times,serif" font-size="14.00">(a, a)</text>
</g>
<!-- M1S5&#45;&gt;M2S12 -->
<g id="edge27" class="edge">
<title>M1S5&#45;&gt;M2S12</title>
<path fill="none" stroke="black" d="M239.45,-666.47C238.77,-607.59 245.6,-421.75 354,-343.69 386.64,-320.19 506.03,-315.79 535,-343.69 556.15,-364.05 526.05,-585.28 545,-607.69 567.5,-634.3 608.76,-638.9 638.78,-638.2"/>
<polygon fill="black" stroke="black" points="639.04,-641.69 648.88,-637.76 638.74,-634.7 639.04,-641.69"/>
<text text-anchor="middle" x="444.5" y="-347.49" font-family="Times,serif" font-size="14.00">(ε, ε)</text>
</g>
<!-- M1S5&#45;&gt;M2S13 -->
<g id="edge28" class="edge">
<title>M1S5&#45;&gt;M2S13</title>
<path fill="none" stroke="black" d="M242.11,-666.26C251.02,-592.22 288.08,-318.01 354,-267.69 385.97,-243.29 505.95,-239.87 535,-267.69 553.63,-285.54 528.29,-480.03 545,-499.69 567.57,-526.24 608.82,-530.85 638.81,-530.17"/>
<polygon fill="black" stroke="black" points="639.06,-533.66 648.9,-529.74 638.76,-526.67 639.06,-533.66"/>
<text text-anchor="middle" x="444.5" y="-271.49" font-family="Times,serif" font-size="14.00">(ε, ε)</text>
</g>
<!-- M1S5&#45;&gt;M2S14 -->
<g id="edge29" class="edge">
<title>M1S5&#45;&gt;M2S14</title>
<path fill="none" stroke="black" d="M242.6,-666.52C252.93,-597.15 293.48,-350.68 354,-305.69 386.28,-281.69 505.99,-277.83 535,-305.69 554.89,-324.79 527.17,-532.65 545,-553.69 567.53,-580.27 608.79,-584.87 638.79,-584.19"/>
<polygon fill="black" stroke="black" points="639.05,-587.68 648.89,-583.75 638.75,-580.69 639.05,-587.68"/>
<text text-anchor="middle" x="444.5" y="-309.49" font-family="Times,serif" font-size="14.00">(ε, ε)</text>
</g>
<!-- M1S5&#45;&gt;M2S15 -->
<g id="edge30" class="edge">
<title>M1S5&#45;&gt;M2S15</title>
<path fill="none" stroke="black" d="M241.27,-666.65C247.4,-585.19 276.9,-252.99 354,-191.69 385.48,-166.66 505.86,-163.97 535,-191.69 551.12,-207.03 530.53,-374.79 545,-391.69 567.66,-418.16 608.89,-422.79 638.86,-422.13"/>
<polygon fill="black" stroke="black" points="639.1,-425.63 648.94,-421.71 638.8,-418.63 639.1,-425.63"/>
<text text-anchor="middle" x="444.5" y="-195.49" font-family="Times,serif" font-size="14.00">(ε, ε)</text>
</g>
<!-- M1S5&#45;&gt;M2S16 -->
<g id="edge31" class="edge">
<title>M1S5&#45;&gt;M2S16</title>
<path fill="none" stroke="black" d="M241.65,-666.48C249.12,-588.67 282.5,-285.49 354,-229.69 385.71,-204.95 505.91,-201.91 535,-229.69 552.38,-246.28 529.41,-427.41 545,-445.69 567.61,-472.2 608.85,-476.82 638.83,-476.15"/>
<polygon fill="black" stroke="black" points="639.08,-479.65 648.92,-475.72 638.78,-472.65 639.08,-479.65"/>
<text text-anchor="middle" x="444.5" y="-233.49" font-family="Times,serif" font-size="14.00">(ε, ε)</text>
</g>
<!-- M2S17 -->
<g id="node16" class="node">
<title>M2S17</title>
<path fill="#ffffff" stroke="black" d="M691,-382.69C691,-382.69 661,-382.69 661,-382.69 655,-382.69 649,-376.69 649,-370.69 649,-370.69 649,-358.69 649,-358.69 649,-352.69 655,-346.69 661,-346.69 661,-346.69 691,-346.69 691,-346.69 697,-346.69 703,-352.69 703,-358.69 703,-358.69 703,-370.69 703,-370.69 703,-376.69 697,-382.69 691,-382.69"/>
<text text-anchor="middle" x="676" y="-360.99" font-family="Times,serif" font-size="14.00">17</text>
</g>
<!-- M1S5&#45;&gt;M2S17 -->
<g id="edge32" class="edge">
<title>M1S5&#45;&gt;M2S17</title>
<path fill="none" stroke="black" d="M240.96,-666.44C245.9,-580.82 271.41,-220.43 354,-153.69 416.57,-103.13 464.12,-115.65 535,-153.69 608.08,-192.91 649.48,-288.91 666.2,-336.71"/>
<polygon fill="black" stroke="black" points="662.97,-338.06 669.49,-346.41 669.6,-335.82 662.97,-338.06"/>
<text text-anchor="middle" x="444.5" y="-157.49" font-family="Times,serif" font-size="14.00">(ε, ε)</text>
</g>
<!-- M1S6&#45;&gt;M2S7 -->
<g id="edge33" class="edge">
<title>M1S6&#45;&gt;M2S7</title>
<path fill="none" stroke="black" d="M266.41,-845.43C290.71,-845.87 325.67,-850.85 344,-873.69 363.69,-898.23 331.36,-1134.84 354,-1156.69 382.94,-1184.62 501.16,-1178.42 535,-1156.69 633.52,-1093.43 663.58,-941.69 672,-878.76"/>
<polygon fill="black" stroke="black" points="675.48,-879.13 673.25,-868.77 668.53,-878.26 675.48,-879.13"/>
<text text-anchor="middle" x="444.5" y="-1178.49" font-family="Times,serif" font-size="14.00">(ε, a)</text>
</g>
<!-- M1S6&#45;&gt;M2S9 -->
<g id="edge34" class="edge">
<title>M1S6&#45;&gt;M2S9</title>
<path fill="none" stroke="black" d="M266.34,-845.48C290.6,-845.96 325.53,-850.96 344,-873.69 358.52,-891.56 337.33,-1064.81 354,-1080.69 368.56,-1094.56 520.55,-1094.68 535,-1080.69 559.84,-1056.64 522.75,-796.15 545,-769.69 567.42,-743.02 608.7,-738.43 638.74,-739.15"/>
<polygon fill="black" stroke="black" points="638.7,-742.65 648.85,-739.59 639.01,-735.66 638.7,-742.65"/>
<text text-anchor="middle" x="444.5" y="-1094.49" font-family="Times,serif" font-size="14.00">(ε, a)</text>
</g>
<!-- M1S6&#45;&gt;M2S10 -->
<g id="edge35" class="edge">
<title>M1S6&#45;&gt;M2S10</title>
<path fill="none" stroke="black" d="M266.38,-845.45C290.66,-845.9 325.61,-850.9 344,-873.69 361.11,-894.9 334.35,-1099.82 354,-1118.69 368.51,-1132.62 520.54,-1132.67 535,-1118.69 558.58,-1095.9 523.87,-848.78 545,-823.69 567.45,-797.04 608.72,-792.45 638.75,-793.16"/>
<polygon fill="black" stroke="black" points="638.71,-796.66 648.86,-793.6 639.02,-789.67 638.71,-796.66"/>
<text text-anchor="middle" x="444.5" y="-1132.49" font-family="Times,serif" font-size="14.00">(ε, a)</text>
</g>
<!-- M1S6&#45;&gt;M2S11 -->
<g id="edge36" class="edge">
<title>M1S6&#45;&gt;M2S11</title>
<path fill="none" stroke="black" d="M266.23,-848.13C288.76,-850.54 321.14,-856.91 344,-873.69 350.76,-878.65 346.67,-885.63 354,-889.69 389.18,-909.19 505.75,-917.3 535,-889.69 563.16,-863.1 519.7,-745.02 545,-715.69 567.76,-689.3 608.97,-684.66 638.91,-685.29"/>
<polygon fill="black" stroke="black" points="638.84,-688.79 648.98,-685.7 639.13,-681.8 638.84,-688.79"/>
<text text-anchor="middle" x="444.5" y="-910.49" font-family="Times,serif" font-size="14.00">(ε, a)</text>
</g>
<!-- M3S3 -->
<g id="node17" class="node">
<title>M3S3</title>
<path fill="#ffffff" stroke="black" d="M1359,-642.69C1359,-642.69 1329,-642.69 1329,-642.69 1323,-642.69 1317,-636.69 1317,-630.69 1317,-630.69 1317,-618.69 1317,-618.69 1317,-612.69 1323,-606.69 1329,-606.69 1329,-606.69 1359,-606.69 1359,-606.69 1365,-606.69 1371,-612.69 1371,-618.69 1371,-618.69 1371,-630.69 1371,-630.69 1371,-636.69 1365,-642.69 1359,-642.69"/>
<text text-anchor="middle" x="1344" y="-620.99" font-family="Times,serif" font-size="14.00">3</text>
</g>
<!-- M2S7&#45;&gt;M3S3 -->
<g id="edge37" class="edge">
<title>M2S7&#45;&gt;M3S3</title>
<path fill="none" stroke="black" d="M690.07,-868.92C712.37,-898.27 760.95,-954.91 818,-976.69 862.84,-993.81 880.92,-993.17 926,-976.69 1109.89,-909.46 1268.63,-721.38 1322.99,-651.38"/>
<polygon fill="black" stroke="black" points="1326.07,-653.13 1329.39,-643.07 1320.52,-648.86 1326.07,-653.13"/>
<text text-anchor="middle" x="872" y="-992.49" font-family="Times,serif" font-size="14.00">(ε, a|c|(a|c)|c|a)</text>
</g>
<!-- M2S9&#45;&gt;M3S3 -->
<g id="edge38" class="edge">
<title>M2S9&#45;&gt;M3S3</title>
<path fill="none" stroke="black" d="M703.13,-739.71C733.3,-737.89 782.09,-740.22 808,-769.69 827.57,-791.95 796.27,-882.53 818,-902.69 853.19,-935.33 880.06,-916.6 926,-902.69 1094.11,-851.79 1256.38,-708.31 1317.5,-649.9"/>
<polygon fill="black" stroke="black" points="1320,-652.34 1324.78,-642.88 1315.15,-647.3 1320,-652.34"/>
<text text-anchor="middle" x="872" y="-924.49" font-family="Times,serif" font-size="14.00">(ε, a|c|c|a)</text>
</g>
<!-- M2S10&#45;&gt;M3S3 -->
<g id="edge39" class="edge">
<title>M2S10&#45;&gt;M3S3</title>
<path fill="none" stroke="black" d="M703.07,-793.76C733.19,-791.99 781.92,-794.36 808,-823.69 825.19,-843.03 798.94,-922.2 818,-939.69 853.37,-972.14 880.49,-954.95 926,-939.69 1102.13,-880.64 1263.26,-714.56 1320.73,-650.42"/>
<polygon fill="black" stroke="black" points="1323.5,-652.56 1327.52,-642.76 1318.27,-647.92 1323.5,-652.56"/>
<text text-anchor="middle" x="872" y="-961.49" font-family="Times,serif" font-size="14.00">(ε, a)</text>
</g>
<!-- M2S11&#45;&gt;M3S3 -->
<g id="edge40" class="edge">
<title>M2S11&#45;&gt;M3S3</title>
<path fill="none" stroke="black" d="M703.17,-685.67C733.38,-683.81 782.22,-686.1 808,-715.69 830.09,-741.04 793.45,-843.71 818,-866.69 853.04,-899.49 879.65,-879.17 926,-866.69 1086.45,-823.51 1248.8,-701.78 1313.63,-649.29"/>
<polygon fill="black" stroke="black" points="1315.87,-651.98 1321.41,-642.94 1311.44,-646.55 1315.87,-651.98"/>
<text text-anchor="middle" x="872" y="-887.49" font-family="Times,serif" font-size="14.00">(ε, a)</text>
</g>
<!-- M2S12&#45;&gt;M3S3 -->
<g id="edge43" class="edge">
<title>M2S12&#45;&gt;M3S3</title>
<path fill="none" stroke="black" d="M703.21,-631.64C733.46,-629.75 782.32,-632.01 808,-661.69 832.62,-690.14 790.62,-804.89 818,-830.69 852.93,-863.61 879.26,-841.61 926,-830.69 1078.76,-795.01 1239.82,-694.85 1308.61,-648.62"/>
<polygon fill="black" stroke="black" points="1310.99,-651.23 1317.31,-642.73 1307.06,-645.44 1310.99,-651.23"/>
<text text-anchor="middle" x="872" y="-851.49" font-family="Times,serif" font-size="14.00">(a, a)</text>
</g>
<!-- M3S4 -->
<g id="node18" class="node">
<title>M3S4</title>
<path fill="#ffffff" stroke="black" d="M1359,-588.69C1359,-588.69 1329,-588.69 1329,-588.69 1323,-588.69 1317,-582.69 1317,-576.69 1317,-576.69 1317,-564.69 1317,-564.69 1317,-558.69 1323,-552.69 1329,-552.69 1329,-552.69 1359,-552.69 1359,-552.69 1365,-552.69 1371,-558.69 1371,-564.69 1371,-564.69 1371,-576.69 1371,-576.69 1371,-582.69 1365,-588.69 1359,-588.69"/>
<text text-anchor="middle" x="1344" y="-566.99" font-family="Times,serif" font-size="14.00">4</text>
</g>
<!-- M2S12&#45;&gt;M3S4 -->
<g id="edge41" class="edge">
<title>M2S12&#45;&gt;M3S4</title>
<path fill="none" stroke="black" d="M703.12,-631.72C733.28,-629.9 782.07,-632.23 808,-661.69 827.29,-683.6 796.58,-772.85 818,-792.69 835.6,-809 908.6,-809.22 926,-792.69 941.73,-777.75 920.77,-613.15 936,-597.69 986.91,-546.01 1217.03,-559.76 1306.89,-567.31"/>
<polygon fill="black" stroke="black" points="1306.62,-570.8 1316.89,-568.17 1307.23,-563.82 1306.62,-570.8"/>
<text text-anchor="middle" x="872" y="-808.49" font-family="Times,serif" font-size="14.00">(ε, ε)</text>
</g>
<!-- M3S1 -->
<g id="node19" class="node">
<title>M3S1</title>
<path fill="#ffffff" stroke="black" d="M1359,-534.69C1359,-534.69 1329,-534.69 1329,-534.69 1323,-534.69 1317,-528.69 1317,-522.69 1317,-522.69 1317,-510.69 1317,-510.69 1317,-504.69 1323,-498.69 1329,-498.69 1329,-498.69 1359,-498.69 1359,-498.69 1365,-498.69 1371,-504.69 1371,-510.69 1371,-510.69 1371,-522.69 1371,-522.69 1371,-528.69 1365,-534.69 1359,-534.69"/>
<text text-anchor="middle" x="1344" y="-512.99" font-family="Times,serif" font-size="14.00">1</text>
</g>
<!-- M2S12&#45;&gt;M3S1 -->
<g id="edge42" class="edge">
<title>M2S12&#45;&gt;M3S1</title>
<path fill="none" stroke="black" d="M703.19,-631.88C733.19,-630.26 781.59,-632.82 808,-661.69 821.14,-676.05 803.47,-735.74 818,-748.69 853.83,-780.63 891.24,-781.79 926,-748.69 942.51,-732.96 920.02,-559.96 936,-543.69 986.85,-491.95 1217.01,-505.73 1306.89,-513.3"/>
<polygon fill="black" stroke="black" points="1306.62,-516.79 1316.88,-514.17 1307.22,-509.82 1306.62,-516.79"/>
<text text-anchor="middle" x="872" y="-776.49" font-family="Times,serif" font-size="14.00">(ε, ε)</text>
</g>
<!-- M2S13&#45;&gt;M3S3 -->
<g id="edge47" class="edge">
<title>M2S13&#45;&gt;M3S3</title>
<path fill="none" stroke="black" d="M703.11,-525.65C731.7,-525.85 777.53,-530.27 808,-553.69 815.88,-559.75 810.11,-567.65 818,-573.69 860.48,-606.24 882.96,-590.57 936,-597.69 1071.85,-615.93 1234.95,-622.02 1306.42,-623.91"/>
<polygon fill="black" stroke="black" points="1306.6,-627.42 1316.69,-624.17 1306.78,-620.42 1306.6,-627.42"/>
<text text-anchor="middle" x="872" y="-599.49" font-family="Times,serif" font-size="14.00">(a, a)</text>
</g>
<!-- M2S13&#45;&gt;M3S4 -->
<g id="edge44" class="edge">
<title>M2S13&#45;&gt;M3S4</title>
<path fill="none" stroke="black" d="M703.16,-531.16C731.4,-535.81 777.75,-542.92 818,-546.69 1001.17,-563.83 1221.48,-568.86 1306.8,-570.22"/>
<polygon fill="black" stroke="black" points="1306.94,-573.72 1316.99,-570.38 1307.05,-566.72 1306.94,-573.72"/>
<text text-anchor="middle" x="872" y="-558.49" font-family="Times,serif" font-size="14.00">(ε, ε)</text>
</g>
<!-- M2S13&#45;&gt;M3S1 -->
<g id="edge45" class="edge">
<title>M2S13&#45;&gt;M3S1</title>
<path fill="none" stroke="black" d="M703.17,-526.9C748.54,-527.21 844.74,-527.66 926,-526.69 1066.51,-525.01 1233.59,-520.13 1306.23,-517.87"/>
<polygon fill="black" stroke="black" points="1306.77,-521.35 1316.66,-517.54 1306.55,-514.36 1306.77,-521.35"/>
<text text-anchor="middle" x="872" y="-531.49" font-family="Times,serif" font-size="14.00">(ε, ε)</text>
</g>
<!-- M3S6 -->
<g id="node20" class="node">
<title>M3S6</title>
<path fill="#ffffff" stroke="black" d="M1359,-480.69C1359,-480.69 1329,-480.69 1329,-480.69 1323,-480.69 1317,-474.69 1317,-468.69 1317,-468.69 1317,-456.69 1317,-456.69 1317,-450.69 1323,-444.69 1329,-444.69 1329,-444.69 1359,-444.69 1359,-444.69 1365,-444.69 1371,-450.69 1371,-456.69 1371,-456.69 1371,-468.69 1371,-468.69 1371,-474.69 1365,-480.69 1359,-480.69"/>
<text text-anchor="middle" x="1344" y="-458.99" font-family="Times,serif" font-size="14.00">6</text>
</g>
<!-- M2S13&#45;&gt;M3S6 -->
<g id="edge46" class="edge">
<title>M2S13&#45;&gt;M3S6</title>
<path fill="none" stroke="black" d="M703.12,-529.66C733.29,-531.48 782.08,-529.15 808,-499.69 827.43,-477.6 796.43,-387.69 818,-367.69 889.81,-301.12 1201.11,-409.31 1307.33,-449"/>
<polygon fill="black" stroke="black" points="1306.36,-452.38 1316.95,-452.62 1308.83,-445.82 1306.36,-452.38"/>
<text text-anchor="middle" x="872" y="-371.49" font-family="Times,serif" font-size="14.00">(ε, ε)</text>
</g>
<!-- M2S14&#45;&gt;M3S3 -->
<g id="edge51" class="edge">
<title>M2S14&#45;&gt;M3S3</title>
<path fill="none" stroke="black" d="M703.01,-577.82C733.06,-576.1 781.74,-578.53 808,-607.69 823.09,-624.45 801.28,-693.55 818,-708.69 890.32,-774.2 1201.29,-674.21 1307.38,-637.4"/>
<polygon fill="black" stroke="black" points="1308.7,-640.64 1316.99,-634.04 1306.39,-634.04 1308.7,-640.64"/>
<text text-anchor="middle" x="872" y="-733.49" font-family="Times,serif" font-size="14.00">(a|c, a|c)</text>
</g>
<!-- M2S14&#45;&gt;M3S4 -->
<g id="edge48" class="edge">
<title>M2S14&#45;&gt;M3S4</title>
<path fill="none" stroke="black" d="M703.07,-578C732.94,-576.49 781.22,-579.16 808,-607.69 829.81,-630.93 793.95,-657.79 818,-678.69 836.12,-694.43 908.02,-694.59 926,-678.69 953.18,-654.66 909.64,-622.6 936,-597.69 988.61,-547.97 1216.76,-560.44 1306.52,-567.48"/>
<polygon fill="black" stroke="black" points="1306.51,-571 1316.76,-568.31 1307.08,-564.02 1306.51,-571"/>
<text text-anchor="middle" x="872" y="-693.49" font-family="Times,serif" font-size="14.00">(ε, ε)</text>
</g>
<!-- M2S14&#45;&gt;M3S1 -->
<g id="edge49" class="edge">
<title>M2S14&#45;&gt;M3S1</title>
<path fill="none" stroke="black" d="M703.11,-578.73C732.34,-578.02 779.36,-581.54 808,-607.69 819.32,-618.02 805.69,-631.56 818,-640.69 837.27,-654.99 908.18,-656.77 926,-640.69 942.09,-626.17 920.4,-558.73 936,-543.69 988.16,-493.4 1217.02,-506.26 1306.74,-513.44"/>
<polygon fill="black" stroke="black" points="1306.46,-516.93 1316.72,-514.26 1307.04,-509.96 1306.46,-516.93"/>
<text text-anchor="middle" x="872" y="-655.49" font-family="Times,serif" font-size="14.00">(ε, ε)</text>
</g>
<!-- M2S14&#45;&gt;M3S6 -->
<g id="edge50" class="edge">
<title>M2S14&#45;&gt;M3S6</title>
<path fill="none" stroke="black" d="M703.23,-583.05C732.8,-584.16 780.35,-581.04 808,-553.69 822.87,-538.98 802.75,-522.01 818,-507.69 835.84,-490.93 1190.94,-470.73 1306.79,-464.57"/>
<polygon fill="black" stroke="black" points="1307.12,-468.06 1316.93,-464.03 1306.75,-461.07 1307.12,-468.06"/>
<text text-anchor="middle" x="872" y="-511.49" font-family="Times,serif" font-size="14.00">(ε, ε)</text>
</g>
<!-- M2S15&#45;&gt;M3S3 -->
<g id="edge55" class="edge">
<title>M2S15&#45;&gt;M3S3</title>
<path fill="none" stroke="black" d="M703.26,-421.32C733.08,-422.74 781.09,-419.93 808,-391.69 827.86,-370.85 796.13,-346.41 818,-327.69 854.47,-296.48 891.44,-294.38 926,-327.69 947.62,-348.52 915.08,-576.15 936,-597.69 1034.45,-699.06 1226.7,-658.81 1306.71,-636.12"/>
<polygon fill="black" stroke="black" points="1308.17,-639.34 1316.79,-633.19 1306.21,-632.62 1308.17,-639.34"/>
<text text-anchor="middle" x="872" y="-331.49" font-family="Times,serif" font-size="14.00">(a, a)</text>
</g>
<!-- M2S15&#45;&gt;M3S4 -->
<g id="edge52" class="edge">
<title>M2S15&#45;&gt;M3S4</title>
<path fill="none" stroke="black" d="M703.04,-421.59C733.12,-423.33 781.83,-420.94 808,-391.69 824.07,-373.73 800.19,-299.93 818,-283.69 835.74,-267.52 908.71,-267.05 926,-283.69 946.83,-303.74 915.84,-522.97 936,-543.69 986.58,-595.7 1216.9,-581.75 1306.85,-574.11"/>
<polygon fill="black" stroke="black" points="1307.2,-577.59 1316.86,-573.24 1306.59,-570.62 1307.2,-577.59"/>
<text text-anchor="middle" x="872" y="-287.49" font-family="Times,serif" font-size="14.00">(ε, ε)</text>
</g>
<!-- M2S15&#45;&gt;M3S1 -->
<g id="edge53" class="edge">
<title>M2S15&#45;&gt;M3S1</title>
<path fill="none" stroke="black" d="M703.16,-421.7C733.36,-423.55 782.18,-421.25 808,-391.69 829.39,-367.2 794.23,-267.89 818,-245.69 835.54,-229.31 908.69,-229.07 926,-245.69 945.58,-264.48 917.06,-470.26 936,-489.69 986.65,-541.63 1216.93,-527.73 1306.86,-520.1"/>
<polygon fill="black" stroke="black" points="1307.21,-523.59 1316.87,-519.23 1306.6,-516.61 1307.21,-523.59"/>
<text text-anchor="middle" x="872" y="-249.49" font-family="Times,serif" font-size="14.00">(ε, ε)</text>
</g>
<!-- M2S15&#45;&gt;M3S6 -->
<g id="edge54" class="edge">
<title>M2S15&#45;&gt;M3S6</title>
<path fill="none" stroke="black" d="M703.09,-421.85C733.46,-423.89 782.68,-421.83 808,-391.69 832.02,-363.09 791.2,-81.7 818,-55.69 852.44,-22.26 881.54,-37.59 926,-55.69 1122.73,-135.78 1277.26,-358.28 1326.48,-435.71"/>
<polygon fill="black" stroke="black" points="1323.67,-437.81 1331.96,-444.41 1329.59,-434.09 1323.67,-437.81"/>
<text text-anchor="middle" x="872" y="-59.49" font-family="Times,serif" font-size="14.00">(ε, ε)</text>
</g>
<!-- M2S16&#45;&gt;M3S3 -->
<g id="edge59" class="edge">
<title>M2S16&#45;&gt;M3S3</title>
<path fill="none" stroke="black" d="M703.4,-468.42C760.8,-459.78 894.32,-443.44 926,-472.69 946.48,-491.59 916.16,-578.12 936,-597.69 1036.47,-696.81 1227.19,-657.96 1306.74,-635.89"/>
<polygon fill="black" stroke="black" points="1308.1,-639.14 1316.76,-633.03 1306.18,-632.41 1308.1,-639.14"/>
<text text-anchor="middle" x="872" y="-476.49" font-family="Times,serif" font-size="14.00">(a|c, a|c)</text>
</g>
<!-- M2S16&#45;&gt;M3S4 -->
<g id="edge56" class="edge">
<title>M2S16&#45;&gt;M3S4</title>
<path fill="none" stroke="black" d="M703.11,-471.7C730.68,-469.68 774.68,-463.65 808,-445.69 813.53,-442.71 812.19,-438.1 818,-435.69 862.35,-417.32 890.53,-403.35 926,-435.69 943.81,-451.93 918.74,-526.87 936,-543.69 987.91,-594.26 1216.99,-581.23 1306.75,-573.97"/>
<polygon fill="black" stroke="black" points="1307.31,-577.43 1316.98,-573.12 1306.73,-570.46 1307.31,-577.43"/>
<text text-anchor="middle" x="872" y="-439.49" font-family="Times,serif" font-size="14.00">(ε, ε)</text>
</g>
<!-- M2S16&#45;&gt;M3S1 -->
<g id="edge57" class="edge">
<title>M2S16&#45;&gt;M3S1</title>
<path fill="none" stroke="black" d="M703.01,-475.08C732.6,-476.26 780.39,-473.25 808,-445.69 823.43,-430.3 801.09,-411.44 818,-397.69 836.62,-382.55 908.14,-381.66 926,-397.69 941.31,-411.42 921.16,-475.46 936,-489.69 988.3,-539.84 1217.07,-527.06 1306.75,-519.92"/>
<polygon fill="black" stroke="black" points="1307.05,-523.41 1316.73,-519.1 1306.48,-516.43 1307.05,-523.41"/>
<text text-anchor="middle" x="872" y="-401.49" font-family="Times,serif" font-size="14.00">(ε, ε)</text>
</g>
<!-- M2S16&#45;&gt;M3S6 -->
<g id="edge58" class="edge">
<title>M2S16&#45;&gt;M3S6</title>
<path fill="none" stroke="black" d="M703.03,-475.8C733.34,-477.79 782.5,-475.67 808,-445.69 825.15,-425.53 798.9,-226.01 818,-207.69 896.34,-132.57 1211.21,-361.75 1311.88,-438.54"/>
<polygon fill="black" stroke="black" points="1309.79,-441.34 1319.86,-444.64 1314.04,-435.78 1309.79,-441.34"/>
<text text-anchor="middle" x="872" y="-211.49" font-family="Times,serif" font-size="14.00">(ε, ε)</text>
</g>
<!-- M2S17&#45;&gt;M3S3 -->
<g id="edge63" class="edge">
<title>M2S17&#45;&gt;M3S3</title>
<path fill="none" stroke="black" d="M683.88,-346.39C700.06,-306.34 744.8,-211.52 818,-174.69 860.88,-153.12 891.66,-141.15 926,-174.69 942.82,-191.11 919.74,-580.72 936,-597.69 1033.88,-699.84 1226.86,-659 1306.9,-636.13"/>
<polygon fill="black" stroke="black" points="1308.37,-639.35 1316.98,-633.18 1306.4,-632.63 1308.37,-639.35"/>
<text text-anchor="middle" x="872" y="-178.49" font-family="Times,serif" font-size="14.00">(a|c, a|c)</text>
</g>
<!-- M2S17&#45;&gt;M3S4 -->
<g id="edge60" class="edge">
<title>M2S17&#45;&gt;M3S4</title>
<path fill="none" stroke="black" d="M681.41,-346.64C693.75,-300.66 733.36,-179.4 818,-131.69 859.81,-108.12 891.65,-98.16 926,-131.69 942.38,-147.68 920.15,-527.16 936,-543.69 986.21,-596.05 1216.75,-581.89 1306.81,-574.15"/>
<polygon fill="black" stroke="black" points="1307.17,-577.63 1316.83,-573.27 1306.56,-570.66 1307.17,-577.63"/>
<text text-anchor="middle" x="872" y="-135.49" font-family="Times,serif" font-size="14.00">(ε, ε)</text>
</g>
<!-- M2S17&#45;&gt;M3S1 -->
<g id="edge61" class="edge">
<title>M2S17&#45;&gt;M3S1</title>
<path fill="none" stroke="black" d="M679.93,-346.46C689.23,-295.44 723.24,-151.2 818,-93.69 859.03,-68.78 891.63,-60.18 926,-93.69 941.76,-109.05 920.76,-473.81 936,-489.69 986.24,-542.03 1216.76,-527.88 1306.81,-520.15"/>
<polygon fill="black" stroke="black" points="1307.18,-523.63 1316.83,-519.27 1306.56,-516.66 1307.18,-523.63"/>
<text text-anchor="middle" x="872" y="-97.49" font-family="Times,serif" font-size="14.00">(ε, ε)</text>
</g>
<!-- M2S17&#45;&gt;M3S6 -->
<g id="edge62" class="edge">
<title>M2S17&#45;&gt;M3S6</title>
<path fill="none" stroke="black" d="M677.79,-346.43C681.49,-286.56 702.29,-95.57 818,-17.69 857.82,9.11 881.96,1.4 926,-17.69 1131.79,-106.87 1282.54,-353.17 1328.42,-435.49"/>
<polygon fill="black" stroke="black" points="1325.37,-437.19 1333.26,-444.26 1331.5,-433.81 1325.37,-437.19"/>
<text text-anchor="middle" x="872" y="-21.49" font-family="Times,serif" font-size="14.00">(ε, ε)</text>
</g>
</g>
</svg>
