<?xml version="1.0" encoding="UTF-8" standalone="no"?>
<!DOCTYPE svg PUBLIC "-//W3C//DTD SVG 1.1//EN"
 "http://www.w3.org/Graphics/SVG/1.1/DTD/svg11.dtd">
<!-- Generated by graphviz version 2.43.0 (0)
 -->
<!-- Title: MONinput/i Pages: 1 -->
<svg width="4978pt" height="207pt"
 viewBox="0.00 0.00 4978.00 207.00" xmlns="http://www.w3.org/2000/svg" xmlns:xlink="http://www.w3.org/1999/xlink">
<g id="graph0" class="graph" transform="scale(1 1) rotate(0) translate(4 203)">
<title>MONinput/i</title>
<polygon fill="white" stroke="transparent" points="-4,4 -4,-203 4974,-203 4974,4 -4,4"/>
<g id="clust1" class="cluster">
<title>cluster0</title>
<path fill="#fff9dd" stroke="#fff9dd" d="M20,-62C20,-62 66,-62 66,-62 72,-62 78,-68 78,-74 78,-74 78,-125 78,-125 78,-131 72,-137 66,-137 66,-137 20,-137 20,-137 14,-137 8,-131 8,-125 8,-125 8,-74 8,-74 8,-68 14,-62 20,-62"/>
<text text-anchor="middle" x="43" y="-121.8" font-family="Times,serif" font-size="14.00">ε</text>
</g>
<g id="clust2" class="cluster">
<title>cluster1</title>
<path fill="#fff9dd" stroke="#fff9dd" d="M145,-62C145,-62 1176,-62 1176,-62 1182,-62 1188,-68 1188,-74 1188,-74 1188,-125 1188,-125 1188,-131 1182,-137 1176,-137 1176,-137 145,-137 145,-137 139,-137 133,-131 133,-125 133,-125 133,-74 133,-74 133,-68 139,-62 145,-62"/>
<text text-anchor="middle" x="660.5" y="-121.8" font-family="Times,serif" font-size="14.00">((r1|((r1|(r1|(r1|(r1|(r3|(r1|((r1|r3)|r1)))))))|(r1|(r1|(r1|(r1|(r3|r1)))))))|(r1|((r1|(r1|(r1|((r1|r3)|(r3|(r1|((r1|r3)|r1)))))))|(r1|(r1|(r1|((r1|r3)|(r3|r1))))))))?</text>
</g>
<g id="clust3" class="cluster">
<title>cluster2</title>
<path fill="#fff9dd" stroke="#fff9dd" d="M2296,-8C2296,-8 3327,-8 3327,-8 3333,-8 3339,-14 3339,-20 3339,-20 3339,-179 3339,-179 3339,-185 3333,-191 3327,-191 3327,-191 2296,-191 2296,-191 2290,-191 2284,-185 2284,-179 2284,-179 2284,-20 2284,-20 2284,-14 2290,-8 2296,-8"/>
<text text-anchor="middle" x="2811.5" y="-175.8" font-family="Times,serif" font-size="14.00">((r1|((r1|(r1|(r1|(r1|(r3|(r1|((r1|r3)|r1)))))))|(r1|(r1|(r1|(r1|(r3|r1)))))))|(r1|((r1|(r1|(r1|((r1|r3)|(r3|(r1|((r1|r3)|r1)))))))|(r1|(r1|(r1|((r1|r3)|(r3|r1))))))))?</text>
</g>
<g id="clust4" class="cluster">
<title>cluster3</title>
<path fill="#fff9dd" stroke="#fff9dd" d="M3927,-62C3927,-62 4958,-62 4958,-62 4964,-62 4970,-68 4970,-74 4970,-74 4970,-125 4970,-125 4970,-131 4964,-137 4958,-137 4958,-137 3927,-137 3927,-137 3921,-137 3915,-131 3915,-125 3915,-125 3915,-74 3915,-74 3915,-68 3921,-62 3927,-62"/>
<text text-anchor="middle" x="4442.5" y="-121.8" font-family="Times,serif" font-size="14.00">((r1|((r1|(r1|(r1|(r1|(r3|(r1|((r1|r3)|r1)))))))|(r1|(r1|(r1|(r1|(r3|r1)))))))|(r1|((r1|(r1|(r1|((r1|r3)|(r3|(r1|((r1|r3)|r1)))))))|(r1|(r1|(r1|((r1|r3)|(r3|r1))))))))?</text>
</g>
<!-- M0S0 -->
<g id="node1" class="node">
<title>M0S0</title>
<path fill="#ffffff" stroke="black" d="M58,-106C58,-106 28,-106 28,-106 22,-106 16,-100 16,-94 16,-94 16,-82 16,-82 16,-76 22,-70 28,-70 28,-70 58,-70 58,-70 64,-70 70,-76 70,-82 70,-82 70,-94 70,-94 70,-100 64,-106 58,-106"/>
<text text-anchor="middle" x="43" y="-84.3" font-family="Times,serif" font-size="14.00">0</text>
</g>
<!-- M1S9 -->
<g id="node2" class="node">
<title>M1S9</title>
<path fill="#ffffff" stroke="black" d="M675,-106C675,-106 645,-106 645,-106 639,-106 633,-100 633,-94 633,-94 633,-82 633,-82 633,-76 639,-70 645,-70 645,-70 675,-70 675,-70 681,-70 687,-76 687,-82 687,-82 687,-94 687,-94 687,-100 681,-106 675,-106"/>
<text text-anchor="middle" x="660" y="-84.3" font-family="Times,serif" font-size="14.00">9</text>
</g>
<!-- M0S0&#45;&gt;M1S9 -->
<g id="edge1" class="edge">
<title>M0S0&#45;&gt;M1S9</title>
<path fill="none" stroke="black" d="M70.03,-88C167.37,-88 510.1,-88 622.79,-88"/>
<polygon fill="black" stroke="black" points="622.96,-91.5 632.96,-88 622.96,-84.5 622.96,-91.5"/>
<text text-anchor="middle" x="105.5" y="-91.8" font-family="Times,serif" font-size="14.00">(ε, ε)</text>
</g>
<!-- M2S7 -->
<g id="node3" class="node">
<title>M2S7</title>
<path fill="#ffffff" stroke="black" d="M2826,-160C2826,-160 2796,-160 2796,-160 2790,-160 2784,-154 2784,-148 2784,-148 2784,-136 2784,-136 2784,-130 2790,-124 2796,-124 2796,-124 2826,-124 2826,-124 2832,-124 2838,-130 2838,-136 2838,-136 2838,-148 2838,-148 2838,-154 2832,-160 2826,-160"/>
<text text-anchor="middle" x="2811" y="-138.3" font-family="Times,serif" font-size="14.00">7</text>
</g>
<!-- M1S9&#45;&gt;M2S7 -->
<g id="edge2" class="edge">
<title>M1S9&#45;&gt;M2S7</title>
<path fill="none" stroke="black" d="M687.26,-89.06C765.15,-92.16 1001.71,-101.4 1198,-107 1829.06,-125.01 2599.31,-138.45 2773.74,-141.4"/>
<polygon fill="black" stroke="black" points="2773.85,-144.9 2783.91,-141.57 2773.97,-137.9 2773.85,-144.9"/>
<text text-anchor="middle" x="1736" y="-135.8" font-family="Times,serif" font-size="14.00">(r1|((r1|(r1|(r1|(r1|(r3|(r1|((r1|r3)|r1)))))))|(r1|(r1|(r1|(r1|(r3|r1)))))), r1|((r1|(r1|(r1|(r1|(r3|(r1|((r1|r3)|r1)))))))|(r1|(r1|(r1|(r1|(r3|r1)))))))</text>
</g>
<!-- M2S5 -->
<g id="node4" class="node">
<title>M2S5</title>
<path fill="#ffffff" stroke="black" d="M2826,-106C2826,-106 2796,-106 2796,-106 2790,-106 2784,-100 2784,-94 2784,-94 2784,-82 2784,-82 2784,-76 2790,-70 2796,-70 2796,-70 2826,-70 2826,-70 2832,-70 2838,-76 2838,-82 2838,-82 2838,-94 2838,-94 2838,-100 2832,-106 2826,-106"/>
<text text-anchor="middle" x="2811" y="-84.3" font-family="Times,serif" font-size="14.00">5</text>
</g>
<!-- M1S9&#45;&gt;M2S5 -->
<g id="edge3" class="edge">
<title>M1S9&#45;&gt;M2S5</title>
<path fill="none" stroke="black" d="M687.01,-88C910.91,-88 2510.96,-88 2773.57,-88"/>
<polygon fill="black" stroke="black" points="2773.71,-91.5 2783.71,-88 2773.71,-84.5 2773.71,-91.5"/>
<text text-anchor="middle" x="1736" y="-91.8" font-family="Times,serif" font-size="14.00">(r1|((r1|(r1|(r1|((r1|r3)|(r3|(r1|((r1|r3)|r1)))))))|(r1|(r1|(r1|((r1|r3)|(r3|r1)))))), r1|((r1|(r1|(r1|((r1|r3)|(r3|(r1|((r1|r3)|r1)))))))|(r1|(r1|(r1|((r1|r3)|(r3|r1)))))))</text>
</g>
<!-- M2S6 -->
<g id="node5" class="node">
<title>M2S6</title>
<path fill="#ffffff" stroke="black" d="M2826,-52C2826,-52 2796,-52 2796,-52 2790,-52 2784,-46 2784,-40 2784,-40 2784,-28 2784,-28 2784,-22 2790,-16 2796,-16 2796,-16 2826,-16 2826,-16 2832,-16 2838,-22 2838,-28 2838,-28 2838,-40 2838,-40 2838,-46 2832,-52 2826,-52"/>
<text text-anchor="middle" x="2811" y="-30.3" font-family="Times,serif" font-size="14.00">6</text>
</g>
<!-- M1S9&#45;&gt;M2S6 -->
<g id="edge4" class="edge">
<title>M1S9&#45;&gt;M2S6</title>
<path fill="none" stroke="black" d="M687.26,-86.94C765.15,-83.84 1001.71,-74.6 1198,-69 1829.06,-50.99 2599.31,-37.55 2773.74,-34.6"/>
<polygon fill="black" stroke="black" points="2773.97,-38.1 2783.91,-34.43 2773.85,-31.1 2773.97,-38.1"/>
<text text-anchor="middle" x="1736" y="-72.8" font-family="Times,serif" font-size="14.00">(ε, ε)</text>
</g>
<!-- M3S4 -->
<g id="node6" class="node">
<title>M3S4</title>
<path fill="#ffffff" stroke="black" d="M4457,-106C4457,-106 4427,-106 4427,-106 4421,-106 4415,-100 4415,-94 4415,-94 4415,-82 4415,-82 4415,-76 4421,-70 4427,-70 4427,-70 4457,-70 4457,-70 4463,-70 4469,-76 4469,-82 4469,-82 4469,-94 4469,-94 4469,-100 4463,-106 4457,-106"/>
<text text-anchor="middle" x="4442" y="-84.3" font-family="Times,serif" font-size="14.00">4</text>
</g>
<!-- M2S7&#45;&gt;M3S4 -->
<g id="edge5" class="edge">
<title>M2S7&#45;&gt;M3S4</title>
<path fill="none" stroke="black" d="M2838.22,-141.19C2959.6,-137.45 3479.02,-121.37 3905,-107 4093.05,-100.66 4318.19,-92.49 4404.7,-89.33"/>
<polygon fill="black" stroke="black" points="4404.92,-92.82 4414.79,-88.96 4404.67,-85.83 4404.92,-92.82"/>
<text text-anchor="middle" x="3627" y="-128.8" font-family="Times,serif" font-size="14.00">(ε, r1|((r1|(r1|(r1|(r1|(r3|(r1|((r1|r3)|r1)))))))|(r1|(r1|(r1|(r1|(r3|r1)))))))</text>
</g>
<!-- M2S5&#45;&gt;M3S4 -->
<g id="edge6" class="edge">
<title>M2S5&#45;&gt;M3S4</title>
<path fill="none" stroke="black" d="M2838.25,-88C3027.69,-88 4184.76,-88 4404.86,-88"/>
<polygon fill="black" stroke="black" points="4404.91,-91.5 4414.91,-88 4404.91,-84.5 4404.91,-91.5"/>
<text text-anchor="middle" x="3627" y="-91.8" font-family="Times,serif" font-size="14.00">(ε, r1|((r1|(r1|(r1|((r1|r3)|(r3|(r1|((r1|r3)|r1)))))))|(r1|(r1|(r1|((r1|r3)|(r3|r1)))))))</text>
</g>
<!-- M2S6&#45;&gt;M3S4 -->
<g id="edge7" class="edge">
<title>M2S6&#45;&gt;M3S4</title>
<path fill="none" stroke="black" d="M2838.22,-34.81C2959.6,-38.55 3479.02,-54.63 3905,-69 4093.05,-75.34 4318.19,-83.51 4404.7,-86.67"/>
<polygon fill="black" stroke="black" points="4404.67,-90.17 4414.79,-87.04 4404.92,-83.18 4404.67,-90.17"/>
<text text-anchor="middle" x="3627" y="-72.8" font-family="Times,serif" font-size="14.00">(ε, ε)</text>
</g>
</g>
</svg>
