<?xml version="1.0" encoding="UTF-8" standalone="no"?>
<!DOCTYPE svg PUBLIC "-//W3C//DTD SVG 1.1//EN"
 "http://www.w3.org/Graphics/SVG/1.1/DTD/svg11.dtd">
<!-- Generated by graphviz version 2.43.0 (0)
 -->
<!-- Title: input/ic Pages: 1 -->
<svg width="596pt" height="487pt"
 viewBox="0.00 0.00 596.00 487.38" xmlns="http://www.w3.org/2000/svg" xmlns:xlink="http://www.w3.org/1999/xlink">
<g id="graph0" class="graph" transform="scale(1 1) rotate(0) translate(4 483.38)">
<title>input/ic</title>
<polygon fill="white" stroke="transparent" points="-4,4 -4,-483.38 592,-483.38 592,4 -4,4"/>
<g id="clust1" class="cluster">
<title>cluster1</title>
<path fill="#ffeeee" stroke="#ffeeee" d="M210,-8C210,-8 431,-8 431,-8 437,-8 443,-14 443,-20 443,-20 443,-206.19 443,-206.19 443,-212.19 437,-218.19 431,-218.19 431,-218.19 210,-218.19 210,-218.19 204,-218.19 198,-212.19 198,-206.19 198,-206.19 198,-20 198,-20 198,-14 204,-8 210,-8"/>
</g>
<g id="clust2" class="cluster">
<title>cluster2</title>
<path fill="#ffeeee" stroke="#ffeeee" d="M236,-257.19C236,-257.19 435,-257.19 435,-257.19 441,-257.19 447,-263.19 447,-269.19 447,-269.19 447,-459.38 447,-459.38 447,-465.38 441,-471.38 435,-471.38 435,-471.38 236,-471.38 236,-471.38 230,-471.38 224,-465.38 224,-459.38 224,-459.38 224,-269.19 224,-269.19 224,-263.19 230,-257.19 236,-257.19"/>
</g>
<g id="clust3" class="cluster">
<title>cluster3</title>
<path fill="#ffeeee" stroke="#ffeeee" d="M467,-130.59C467,-130.59 568,-130.59 568,-130.59 574,-130.59 580,-136.59 580,-142.59 580,-142.59 580,-332.78 580,-332.78 580,-338.78 574,-344.78 568,-344.78 568,-344.78 467,-344.78 467,-344.78 461,-344.78 455,-338.78 455,-332.78 455,-332.78 455,-142.59 455,-142.59 455,-136.59 461,-130.59 467,-130.59"/>
</g>
<g id="clust4" class="cluster">
<title>cluster4</title>
<path fill="#ffeeee" stroke="#ffeeee" d="M20,-8C20,-8 174,-8 174,-8 180,-8 186,-14 186,-20 186,-20 186,-455.38 186,-455.38 186,-461.38 180,-467.38 174,-467.38 174,-467.38 20,-467.38 20,-467.38 14,-467.38 8,-461.38 8,-455.38 8,-455.38 8,-20 8,-20 8,-14 14,-8 20,-8"/>
</g>
<!-- C1_0 -->
<g id="node1" class="node">
<title>C1_0</title>
<ellipse fill="white" stroke="black" cx="244" cy="-172.39" rx="33.62" ry="33.62"/>
<ellipse fill="none" stroke="black" cx="244" cy="-172.39" rx="37.6" ry="37.6"/>
<text text-anchor="middle" x="244" y="-168.69" font-family="Times,serif" font-size="14.00">C1_0</text>
</g>
<!-- C1_0&#45;&gt;C1_0 -->
<g id="edge4" class="edge">
<title>C1_0&#45;&gt;C1_0</title>
<path fill="none" stroke="black" d="M281.81,-176.24C292.03,-176.03 299.8,-174.75 299.8,-172.39 299.8,-170.92 296.76,-169.86 291.99,-169.23"/>
<polygon fill="black" stroke="black" points="292.03,-165.72 281.81,-168.54 291.56,-172.71 292.03,-165.72"/>
<text text-anchor="middle" x="316.3" y="-168.69" font-family="Times,serif" font-size="14.00">t14e</text>
</g>
<!-- C1_0&#45;&gt;C1_0 -->
<g id="edge5" class="edge">
<title>C1_0&#45;&gt;C1_0</title>
<path fill="none" stroke="black" d="M281.51,-179.56C306.77,-181.36 332.8,-178.97 332.8,-172.39 332.8,-166.69 313.22,-164.13 291.55,-164.73"/>
<polygon fill="black" stroke="black" points="291.33,-161.23 281.51,-165.22 291.67,-168.22 291.33,-161.23"/>
<text text-anchor="middle" x="349.3" y="-168.69" font-family="Times,serif" font-size="14.00">t15e</text>
</g>
<!-- C1_0&#45;&gt;C1_0 -->
<g id="edge6" class="edge">
<title>C1_0&#45;&gt;C1_0</title>
<path fill="none" stroke="black" d="M280.82,-181.79C318.68,-186.66 365.8,-183.53 365.8,-172.39 365.8,-162.25 326.77,-158.74 291.21,-161.87"/>
<polygon fill="black" stroke="black" points="290.39,-158.44 280.82,-162.99 291.14,-165.4 290.39,-158.44"/>
<text text-anchor="middle" x="382.3" y="-168.69" font-family="Times,serif" font-size="14.00">t15e</text>
</g>
<!-- C1_1 -->
<g id="node2" class="node">
<title>C1_1</title>
<ellipse fill="white" stroke="black" cx="271" cy="-49.8" rx="33.6" ry="33.6"/>
<text text-anchor="middle" x="271" y="-46.1" font-family="Times,serif" font-size="14.00">C1_1</text>
</g>
<!-- C1_0&#45;&gt;C1_1 -->
<g id="edge1" class="edge">
<title>C1_0&#45;&gt;C1_1</title>
<path fill="none" stroke="black" d="M226.52,-138.63C222.43,-126.79 220.44,-113.43 225,-101.59 228.08,-93.61 233.05,-86.11 238.62,-79.45"/>
<polygon fill="black" stroke="black" points="241.22,-81.79 245.34,-72.03 236.03,-77.09 241.22,-81.79"/>
<text text-anchor="middle" x="237" y="-105.39" font-family="Times,serif" font-size="14.00">t1a</text>
</g>
<!-- C1_0&#45;&gt;C1_1 -->
<g id="edge2" class="edge">
<title>C1_0&#45;&gt;C1_1</title>
<path fill="none" stroke="black" d="M252.1,-135.21C255.1,-121.81 258.53,-106.51 261.63,-92.65"/>
<polygon fill="black" stroke="black" points="265.05,-93.38 263.82,-82.86 258.22,-91.85 265.05,-93.38"/>
<text text-anchor="middle" x="267" y="-105.39" font-family="Times,serif" font-size="14.00">t2</text>
</g>
<!-- C4_0 -->
<g id="node7" class="node">
<title>C4_0</title>
<ellipse fill="white" stroke="black" cx="140" cy="-298.99" rx="33.62" ry="33.62"/>
<ellipse fill="none" stroke="black" cx="140" cy="-298.99" rx="37.6" ry="37.6"/>
<text text-anchor="middle" x="140" y="-295.29" font-family="Times,serif" font-size="14.00">C4_0</text>
</g>
<!-- C1_0&#45;&gt;C4_0 -->
<g id="edge23" class="edge">
<title>C1_0&#45;&gt;C4_0</title>
<path fill="none" stroke="black" d="M198,-212.71C196.91,-213.45 195.78,-214.19 194.63,-214.94"/>
<polygon fill="black" stroke="black" points="192.7,-212.01 186,-220.22 196.35,-217.98 192.7,-212.01"/>
<text text-anchor="middle" x="185.5" y="-231.99" font-family="Times,serif" font-size="14.00">L8{}</text>
</g>
<!-- C1_1&#45;&gt;C1_0 -->
<g id="edge3" class="edge">
<title>C1_1&#45;&gt;C1_0</title>
<path fill="none" stroke="black" d="M279.99,-82.68C281.73,-93.59 282.16,-105.77 279,-116.59 277.34,-122.29 274.88,-127.95 272.03,-133.36"/>
<polygon fill="black" stroke="black" points="268.91,-131.76 266.93,-142.17 274.97,-135.27 268.91,-131.76"/>
<text text-anchor="middle" x="289" y="-105.39" font-family="Times,serif" font-size="14.00">t3</text>
</g>
<!-- C2_0 -->
<g id="node3" class="node">
<title>C2_0</title>
<ellipse fill="white" stroke="black" cx="335" cy="-425.58" rx="33.62" ry="33.62"/>
<ellipse fill="none" stroke="black" cx="335" cy="-425.58" rx="37.6" ry="37.6"/>
<text text-anchor="middle" x="335" y="-421.88" font-family="Times,serif" font-size="14.00">C2_0</text>
</g>
<!-- C2_0&#45;&gt;C1_0 -->
<g id="edge19" class="edge">
<title>C2_0&#45;&gt;C1_0</title>
<path fill="none" stroke="black" d="M345,-257.19C334.25,-246.16 322.13,-235.12 310.13,-224.83"/>
<polygon fill="black" stroke="black" points="312.16,-221.97 302.26,-218.19 307.64,-227.31 312.16,-221.97"/>
<text text-anchor="middle" x="432.5" y="-295.29" font-family="Times,serif" font-size="14.00">L3{}</text>
</g>
<!-- C2_1 -->
<g id="node4" class="node">
<title>C2_1</title>
<ellipse fill="white" stroke="black" cx="302" cy="-298.99" rx="33.6" ry="33.6"/>
<text text-anchor="middle" x="302" y="-295.29" font-family="Times,serif" font-size="14.00">C2_1</text>
</g>
<!-- C2_0&#45;&gt;C2_1 -->
<g id="edge8" class="edge">
<title>C2_0&#45;&gt;C2_1</title>
<path fill="none" stroke="black" d="M299.65,-410.94C281.94,-402.08 262.15,-388.64 252,-369.78 243.66,-354.28 253.66,-338.22 266.85,-325.42"/>
<polygon fill="black" stroke="black" points="269.29,-327.94 274.41,-318.67 264.62,-322.72 269.29,-327.94"/>
<text text-anchor="middle" x="270" y="-358.58" font-family="Times,serif" font-size="14.00">t5O1</text>
</g>
<!-- C3_0 -->
<g id="node5" class="node">
<title>C3_0</title>
<ellipse fill="white" stroke="black" cx="501" cy="-298.99" rx="33.62" ry="33.62"/>
<ellipse fill="none" stroke="black" cx="501" cy="-298.99" rx="37.6" ry="37.6"/>
<text text-anchor="middle" x="501" y="-295.29" font-family="Times,serif" font-size="14.00">C3_0</text>
</g>
<!-- C2_0&#45;&gt;C3_0 -->
<g id="edge18" class="edge">
<title>C2_0&#45;&gt;C3_0</title>
<path fill="none" stroke="black" d="M447,-386.08C454.54,-381.23 461.65,-375.82 468,-369.78 472.92,-365.1 477.19,-359.54 480.87,-353.63"/>
<polygon fill="black" stroke="black" points="483.99,-355.21 485.84,-344.78 477.89,-351.78 483.99,-355.21"/>
<text text-anchor="middle" x="497.5" y="-358.58" font-family="Times,serif" font-size="14.00">L2{}</text>
</g>
<!-- C2_0&#45;&gt;C4_0 -->
<g id="edge24" class="edge">
<title>C2_0&#45;&gt;C4_0</title>
<path fill="none" stroke="black" d="M224,-380.48C218.12,-377.09 212.41,-373.53 207,-369.78 202.48,-366.65 198.01,-363.18 193.67,-359.51"/>
<polygon fill="black" stroke="black" points="195.8,-356.72 186,-352.71 191.16,-361.96 195.8,-356.72"/>
<text text-anchor="middle" x="225.5" y="-358.58" font-family="Times,serif" font-size="14.00">L9{}</text>
</g>
<!-- C2_1&#45;&gt;C2_0 -->
<g id="edge7" class="edge">
<title>C2_1&#45;&gt;C2_0</title>
<path fill="none" stroke="black" d="M333.26,-312.77C350.72,-321.73 370.94,-335.56 381,-354.78 388.01,-368.18 381.7,-382.23 371.74,-394.18"/>
<polygon fill="black" stroke="black" points="369,-391.99 364.78,-401.71 374.14,-396.75 369,-391.99"/>
<text text-anchor="middle" x="401" y="-358.58" font-family="Times,serif" font-size="14.00">t4O2</text>
</g>
<!-- C3_0&#45;&gt;C1_0 -->
<g id="edge17" class="edge">
<title>C3_0&#45;&gt;C1_0</title>
<path fill="none" stroke="black" d="M455,-253.31C443.84,-244.08 431.5,-235.09 419,-228.19 415.51,-226.26 411.94,-224.39 408.31,-222.58"/>
<polygon fill="black" stroke="black" points="409.7,-219.36 399.17,-218.19 406.67,-225.67 409.7,-219.36"/>
<text text-anchor="middle" x="459.5" y="-231.99" font-family="Times,serif" font-size="14.00">L1{}</text>
</g>
<!-- C3_1 -->
<g id="node6" class="node">
<title>C3_1</title>
<ellipse fill="white" stroke="black" cx="497" cy="-172.39" rx="33.6" ry="33.6"/>
<text text-anchor="middle" x="497" y="-168.69" font-family="Times,serif" font-size="14.00">C3_1</text>
</g>
<!-- C3_0&#45;&gt;C3_1 -->
<g id="edge10" class="edge">
<title>C3_0&#45;&gt;C3_1</title>
<path fill="none" stroke="black" d="M498.78,-261.15C498.48,-255.15 498.2,-249 498,-243.19 497.7,-234.57 497.49,-225.35 497.35,-216.53"/>
<polygon fill="black" stroke="black" points="500.84,-216.37 497.2,-206.42 493.84,-216.47 500.84,-216.37"/>
<text text-anchor="middle" x="506" y="-231.99" font-family="Times,serif" font-size="14.00">t7</text>
</g>
<!-- C3_0&#45;&gt;C4_0 -->
<g id="edge25" class="edge">
<title>C3_0&#45;&gt;C4_0</title>
<path fill="none" stroke="black" d="M455,-342.61C453.68,-343.38 452.34,-344.1 451,-344.78 422.3,-359.29 412.01,-355.66 380,-358.78 308.96,-365.72 287.74,-367.31 220,-344.78 211.64,-342 203.17,-338.3 195.03,-334.19"/>
<polygon fill="black" stroke="black" points="196.47,-331 186,-329.42 193.2,-337.19 196.47,-331"/>
<text text-anchor="middle" x="357" y="-358.58" font-family="Times,serif" font-size="14.00">L10{}</text>
</g>
<!-- C3_1&#45;&gt;C3_0 -->
<g id="edge9" class="edge">
<title>C3_1&#45;&gt;C3_0</title>
<path fill="none" stroke="black" d="M510.81,-203.54C513.78,-211.4 516.48,-219.97 518,-228.19 519.55,-236.56 519.06,-245.43 517.52,-253.94"/>
<polygon fill="black" stroke="black" points="514.1,-253.18 515.27,-263.71 520.92,-254.75 514.1,-253.18"/>
<text text-anchor="middle" x="526" y="-231.99" font-family="Times,serif" font-size="14.00">t6</text>
</g>
<!-- C3_1&#45;&gt;C3_1 -->
<g id="edge11" class="edge">
<title>C3_1&#45;&gt;C3_1</title>
<path fill="none" stroke="black" d="M528.87,-184.01C539.89,-184.14 548.8,-180.26 548.8,-172.39 548.8,-167.23 544.96,-163.78 539.21,-162.06"/>
<polygon fill="black" stroke="black" points="539.22,-158.53 528.87,-160.77 538.36,-165.48 539.22,-158.53"/>
<text text-anchor="middle" x="560.3" y="-168.69" font-family="Times,serif" font-size="14.00">t8c</text>
</g>
<!-- C4_0&#45;&gt;C1_0 -->
<g id="edge20" class="edge">
<title>C4_0&#45;&gt;C1_0</title>
<path fill="none" stroke="black" d="M186,-265.32C193.88,-258.54 201.59,-251.05 208,-243.19 212.04,-238.24 215.8,-232.77 219.25,-227.13"/>
<polygon fill="black" stroke="black" points="222.45,-228.59 224.43,-218.18 216.39,-225.09 222.45,-228.59"/>
<text text-anchor="middle" x="235.5" y="-231.99" font-family="Times,serif" font-size="14.00">L5{}</text>
</g>
<!-- C4_0&#45;&gt;C2_0 -->
<g id="edge21" class="edge">
<title>C4_0&#45;&gt;C2_0</title>
<path fill="none" stroke="black" d="M186,-386.2C194.9,-388.59 204.4,-391.1 214.15,-393.66"/>
<polygon fill="black" stroke="black" points="213.44,-397.09 224,-396.24 215.21,-390.32 213.44,-397.09"/>
<text text-anchor="middle" x="149.5" y="-358.58" font-family="Times,serif" font-size="14.00">L6{}</text>
</g>
<!-- C4_0&#45;&gt;C3_0 -->
<g id="edge22" class="edge">
<title>C4_0&#45;&gt;C3_0</title>
<path fill="none" stroke="black" d="M186,-328.7C196.82,-334.73 208.56,-340.52 220,-344.78 250.34,-356.09 259.27,-355.66 291.5,-358.78 359.01,-365.33 383.9,-373.49 445.62,-346.97"/>
<polygon fill="black" stroke="black" points="447.29,-350.06 455,-342.8 444.44,-343.66 447.29,-350.06"/>
<text text-anchor="middle" x="310" y="-358.58" font-family="Times,serif" font-size="14.00">L7{}</text>
</g>
<!-- C4_1 -->
<g id="node8" class="node">
<title>C4_1</title>
<ellipse fill="white" stroke="black" cx="86" cy="-172.39" rx="33.6" ry="33.6"/>
<text text-anchor="middle" x="86" y="-168.69" font-family="Times,serif" font-size="14.00">C4_1</text>
</g>
<!-- C4_0&#45;&gt;C4_1 -->
<g id="edge12" class="edge">
<title>C4_0&#45;&gt;C4_1</title>
<path fill="none" stroke="black" d="M125.24,-263.94C118.4,-248.16 110.24,-229.31 103.13,-212.91"/>
<polygon fill="black" stroke="black" points="106.27,-211.36 99.08,-203.57 99.85,-214.14 106.27,-211.36"/>
<text text-anchor="middle" x="125" y="-231.99" font-family="Times,serif" font-size="14.00">t9</text>
</g>
<!-- C4_2 -->
<g id="node11" class="node">
<title>C4_2</title>
<ellipse fill="white" stroke="black" cx="86" cy="-49.8" rx="33.6" ry="33.6"/>
<text text-anchor="middle" x="86" y="-46.1" font-family="Times,serif" font-size="14.00">C4_2</text>
</g>
<!-- C4_1&#45;&gt;C4_2 -->
<g id="edge14" class="edge">
<title>C4_1&#45;&gt;C4_2</title>
<path fill="none" stroke="black" d="M86,-138.44C86,-124.75 86,-108.67 86,-94.04"/>
<polygon fill="black" stroke="black" points="89.5,-93.71 86,-83.71 82.5,-93.71 89.5,-93.71"/>
<text text-anchor="middle" x="103" y="-105.39" font-family="Times,serif" font-size="14.00">t11g</text>
</g>
<!-- C4_3 -->
<g id="node9" class="node">
<title>C4_3</title>
<ellipse fill="white" stroke="black" cx="66" cy="-425.58" rx="33.6" ry="33.6"/>
<text text-anchor="middle" x="66" y="-421.88" font-family="Times,serif" font-size="14.00">C4_3</text>
</g>
<!-- C4_4 -->
<g id="node10" class="node">
<title>C4_4</title>
<ellipse fill="white" stroke="black" cx="50" cy="-298.99" rx="33.6" ry="33.6"/>
<text text-anchor="middle" x="50" y="-295.29" font-family="Times,serif" font-size="14.00">C4_4</text>
</g>
<!-- C4_3&#45;&gt;C4_4 -->
<g id="edge13" class="edge">
<title>C4_3&#45;&gt;C4_4</title>
<path fill="none" stroke="black" d="M46.96,-397.34C42.08,-388.89 37.5,-379.3 35,-369.78 32.49,-360.26 32.99,-349.93 34.86,-340.21"/>
<polygon fill="black" stroke="black" points="38.29,-340.9 37.24,-330.36 31.49,-339.26 38.29,-340.9"/>
<text text-anchor="middle" x="47.5" y="-358.58" font-family="Times,serif" font-size="14.00">t10</text>
</g>
<!-- C4_3&#45;&gt;C4_4 -->
<g id="edge15" class="edge">
<title>C4_3&#45;&gt;C4_4</title>
<path fill="none" stroke="black" d="M63.83,-391.84C62.88,-380.12 61.61,-366.84 60,-354.78 59.47,-350.8 58.84,-346.66 58.17,-342.53"/>
<polygon fill="black" stroke="black" points="61.57,-341.62 56.43,-332.36 54.67,-342.8 61.57,-341.62"/>
<text text-anchor="middle" x="74.5" y="-358.58" font-family="Times,serif" font-size="14.00">t12</text>
</g>
<!-- C4_4&#45;&gt;C4_1 -->
<g id="edge16" class="edge">
<title>C4_4&#45;&gt;C4_1</title>
<path fill="none" stroke="black" d="M59.03,-266.36C62.45,-254.39 66.39,-240.66 70,-228.19 71.26,-223.84 72.58,-219.3 73.89,-214.77"/>
<polygon fill="black" stroke="black" points="77.31,-215.55 76.75,-204.97 70.59,-213.59 77.31,-215.55"/>
<text text-anchor="middle" x="85" y="-231.99" font-family="Times,serif" font-size="14.00">t13f</text>
</g>
</g>
</svg>
