<?xml version="1.0" encoding="UTF-8" standalone="no"?>
<!DOCTYPE svg PUBLIC "-//W3C//DTD SVG 1.1//EN"
 "http://www.w3.org/Graphics/SVG/1.1/DTD/svg11.dtd">
<!-- Generated by graphviz version 2.43.0 (0)
 -->
<!-- Title: input/ic Pages: 1 -->
<svg width="468pt" height="360pt"
 viewBox="0.00 0.00 467.57 360.00" xmlns="http://www.w3.org/2000/svg" xmlns:xlink="http://www.w3.org/1999/xlink">
<g id="graph0" class="graph" transform="scale(1.35 1.35) rotate(0) translate(4 483.38)">
<title>input/ic</title>
<polygon fill="white" stroke="transparent" points="-4,4 -4,-483.38 629,-483.38 629,4 -4,4"/>
<g id="clust1" class="cluster">
<title>cluster1</title>
<polygon fill="none" stroke="black" points="194,-8 194,-218.19 472,-218.19 472,-8 194,-8"/>
</g>
<g id="clust2" class="cluster">
<title>cluster2</title>
<polygon fill="none" stroke="black" points="224,-257.19 224,-471.38 447,-471.38 447,-257.19 224,-257.19"/>
</g>
<g id="clust3" class="cluster">
<title>cluster3</title>
<polygon fill="none" stroke="black" points="480,-130.59 480,-344.78 617,-344.78 617,-130.59 480,-130.59"/>
</g>
<g id="clust4" class="cluster">
<title>cluster4</title>
<polygon fill="none" stroke="black" points="8,-8 8,-467.38 186,-467.38 186,-8 8,-8"/>
</g>
<!-- C1_0 -->
<g id="node1" class="node">
<title>C1_0</title>
<ellipse fill="none" stroke="black" cx="240" cy="-172.39" rx="33.62" ry="33.62"/>
<ellipse fill="none" stroke="black" cx="240" cy="-172.39" rx="37.6" ry="37.6"/>
<text text-anchor="middle" x="240" y="-168.69" font-family="Times,serif" font-size="14.00">C1_0</text>
</g>
<!-- C1_0&#45;&gt;C1_0 -->
<g id="edge4" class="edge">
<title>C1_0&#45;&gt;C1_0</title>
<path fill="none" stroke="black" d="M277.81,-176.24C288.03,-176.03 295.8,-174.75 295.8,-172.39 295.8,-170.92 292.76,-169.86 287.99,-169.23"/>
<polygon fill="black" stroke="black" points="288.03,-165.72 277.81,-168.54 287.56,-172.71 288.03,-165.72"/>
<text text-anchor="middle" x="317.8" y="-168.69" font-family="Times,serif" font-size="14.00">t14R5</text>
</g>
<!-- C1_0&#45;&gt;C1_0 -->
<g id="edge5" class="edge">
<title>C1_0&#45;&gt;C1_0</title>
<path fill="none" stroke="black" d="M277.41,-179.33C306.83,-181.54 339.8,-179.23 339.8,-172.39 339.8,-166.32 313.88,-163.82 287.49,-164.88"/>
<polygon fill="black" stroke="black" points="287.2,-161.39 277.41,-165.46 287.6,-168.38 287.2,-161.39"/>
<text text-anchor="middle" x="361.8" y="-168.69" font-family="Times,serif" font-size="14.00">t15R5</text>
</g>
<!-- C1_0&#45;&gt;C1_0 -->
<g id="edge6" class="edge">
<title>C1_0&#45;&gt;C1_0</title>
<path fill="none" stroke="black" d="M276.78,-181.29C321.44,-186.86 383.8,-183.89 383.8,-172.39 383.8,-161.74 330.35,-158.41 286.99,-162.39"/>
<polygon fill="black" stroke="black" points="286.35,-158.94 276.78,-163.49 287.1,-165.9 286.35,-158.94"/>
<text text-anchor="middle" x="405.8" y="-168.69" font-family="Times,serif" font-size="14.00">t15R5</text>
</g>
<!-- C1_1 -->
<g id="node2" class="node">
<title>C1_1</title>
<ellipse fill="none" stroke="black" cx="278" cy="-49.8" rx="33.6" ry="33.6"/>
<text text-anchor="middle" x="278" y="-46.1" font-family="Times,serif" font-size="14.00">C1_1</text>
</g>
<!-- C1_0&#45;&gt;C1_1 -->
<g id="edge1" class="edge">
<title>C1_0&#45;&gt;C1_1</title>
<path fill="none" stroke="black" d="M222.08,-139.05C217.75,-127 215.71,-113.4 221,-101.59 225.61,-91.31 233.44,-82.26 241.84,-74.75"/>
<polygon fill="black" stroke="black" points="244.17,-77.37 249.65,-68.3 239.71,-71.98 244.17,-77.37"/>
<text text-anchor="middle" x="238.5" y="-105.39" font-family="Times,serif" font-size="14.00">t1R1</text>
</g>
<!-- C1_0&#45;&gt;C1_1 -->
<g id="edge2" class="edge">
<title>C1_0&#45;&gt;C1_1</title>
<path fill="none" stroke="black" d="M251.09,-136.19C255.47,-122.29 260.53,-106.23 265.08,-91.81"/>
<polygon fill="black" stroke="black" points="268.46,-92.73 268.12,-82.14 261.78,-90.63 268.46,-92.73"/>
<text text-anchor="middle" x="269" y="-105.39" font-family="Times,serif" font-size="14.00">t2</text>
</g>
<!-- C4_0 -->
<g id="node7" class="node">
<title>C4_0</title>
<ellipse fill="none" stroke="black" cx="140" cy="-298.99" rx="33.62" ry="33.62"/>
<ellipse fill="none" stroke="black" cx="140" cy="-298.99" rx="37.6" ry="37.6"/>
<text text-anchor="middle" x="140" y="-295.29" font-family="Times,serif" font-size="14.00">C4_0</text>
</g>
<!-- C1_0&#45;&gt;C4_0 -->
<g id="edge23" class="edge">
<title>C1_0&#45;&gt;C4_0</title>
<path fill="none" stroke="black" d="M194,-214.83C192,-216.24 190,-217.66 188,-219.07"/>
<polygon fill="black" stroke="black" points="192.14,-211.86 186,-220.49 196.18,-217.57 192.14,-211.86"/>
<text text-anchor="middle" x="189.5" y="-231.99" font-family="Times,serif" font-size="14.00">L8{}</text>
</g>
<!-- C1_1&#45;&gt;C1_0 -->
<g id="edge3" class="edge">
<title>C1_1&#45;&gt;C1_0</title>
<path fill="none" stroke="black" d="M284.09,-83.23C284.92,-94.07 284.5,-106.07 281,-116.59 278.78,-123.26 275.4,-129.77 271.51,-135.84"/>
<polygon fill="black" stroke="black" points="268.4,-134.19 265.53,-144.39 274.13,-138.2 268.4,-134.19"/>
<text text-anchor="middle" x="291" y="-105.39" font-family="Times,serif" font-size="14.00">t3</text>
</g>
<!-- C2_0 -->
<g id="node3" class="node">
<title>C2_0</title>
<ellipse fill="none" stroke="black" cx="335" cy="-425.58" rx="33.62" ry="33.62"/>
<ellipse fill="none" stroke="black" cx="335" cy="-425.58" rx="37.6" ry="37.6"/>
<text text-anchor="middle" x="335" y="-421.88" font-family="Times,serif" font-size="14.00">C2_0</text>
</g>
<!-- C2_0&#45;&gt;C1_0 -->
<g id="edge19" class="edge">
<title>C2_0&#45;&gt;C1_0</title>
<path fill="none" stroke="black" d="M358.94,-257.19C346.52,-245.05 333.5,-234.06 320.82,-224.32"/>
<polygon fill="black" stroke="black" points="322.75,-221.39 312.65,-218.18 318.54,-226.99 322.75,-221.39"/>
<text text-anchor="middle" x="437.5" y="-295.29" font-family="Times,serif" font-size="14.00">L3{}</text>
</g>
<!-- C2_1 -->
<g id="node4" class="node">
<title>C2_1</title>
<ellipse fill="none" stroke="black" cx="315" cy="-298.99" rx="33.6" ry="33.6"/>
<text text-anchor="middle" x="315" y="-295.29" font-family="Times,serif" font-size="14.00">C2_1</text>
</g>
<!-- C2_0&#45;&gt;C2_1 -->
<g id="edge8" class="edge">
<title>C2_0&#45;&gt;C2_1</title>
<path fill="none" stroke="black" d="M299.65,-410.94C281.94,-402.08 262.15,-388.64 252,-369.78 242.01,-351.21 258.15,-333.6 276.59,-320.72"/>
<polygon fill="black" stroke="black" points="278.68,-323.54 285.14,-315.15 274.85,-317.68 278.68,-323.54"/>
<text text-anchor="middle" x="270" y="-358.58" font-family="Times,serif" font-size="14.00">t5O1</text>
</g>
<!-- C3_0 -->
<g id="node5" class="node">
<title>C3_0</title>
<ellipse fill="none" stroke="black" cx="526" cy="-298.99" rx="33.62" ry="33.62"/>
<ellipse fill="none" stroke="black" cx="526" cy="-298.99" rx="37.6" ry="37.6"/>
<text text-anchor="middle" x="526" y="-295.29" font-family="Times,serif" font-size="14.00">C3_0</text>
</g>
<!-- C2_0&#45;&gt;C3_0 -->
<g id="edge18" class="edge">
<title>C2_0&#45;&gt;C3_0</title>
<path fill="none" stroke="black" d="M447,-383.3C454.33,-379.13 461.41,-374.63 468,-369.78 474.85,-364.74 481.39,-358.72 487.45,-352.36"/>
<polygon fill="black" stroke="black" points="490.2,-354.54 494.33,-344.78 485.02,-349.84 490.2,-354.54"/>
<text text-anchor="middle" x="502.5" y="-358.58" font-family="Times,serif" font-size="14.00">L2{}</text>
</g>
<!-- C2_0&#45;&gt;C4_0 -->
<g id="edge24" class="edge">
<title>C2_0&#45;&gt;C4_0</title>
<path fill="none" stroke="black" d="M224,-380.48C218.12,-377.09 212.41,-373.53 207,-369.78 202.48,-366.65 198.01,-363.18 193.67,-359.51"/>
<polygon fill="black" stroke="black" points="195.8,-356.72 186,-352.71 191.16,-361.96 195.8,-356.72"/>
<text text-anchor="middle" x="225.5" y="-358.58" font-family="Times,serif" font-size="14.00">L9{}</text>
</g>
<!-- C2_1&#45;&gt;C2_0 -->
<g id="edge7" class="edge">
<title>C2_1&#45;&gt;C2_0</title>
<path fill="none" stroke="black" d="M344.32,-316.02C358.18,-325.34 373.34,-338.47 381,-354.78 387.37,-368.36 381.1,-382.35 371.36,-394.21"/>
<polygon fill="black" stroke="black" points="368.71,-391.92 364.55,-401.67 373.88,-396.64 368.71,-391.92"/>
<text text-anchor="middle" x="401" y="-358.58" font-family="Times,serif" font-size="14.00">t4O2</text>
</g>
<!-- C3_0&#45;&gt;C1_0 -->
<g id="edge17" class="edge">
<title>C3_0&#45;&gt;C1_0</title>
<path fill="none" stroke="black" d="M480,-252.76C468.88,-243.61 456.56,-234.79 444,-228.19 440.2,-226.19 436.33,-224.27 432.39,-222.41"/>
<polygon fill="black" stroke="black" points="433.65,-219.13 423.1,-218.18 430.75,-225.51 433.65,-219.13"/>
<text text-anchor="middle" x="484.5" y="-231.99" font-family="Times,serif" font-size="14.00">L1{}</text>
</g>
<!-- C3_1 -->
<g id="node6" class="node">
<title>C3_1</title>
<ellipse fill="none" stroke="black" cx="522" cy="-172.39" rx="33.6" ry="33.6"/>
<text text-anchor="middle" x="522" y="-168.69" font-family="Times,serif" font-size="14.00">C3_1</text>
</g>
<!-- C3_0&#45;&gt;C3_1 -->
<g id="edge10" class="edge">
<title>C3_0&#45;&gt;C3_1</title>
<path fill="none" stroke="black" d="M523.78,-261.15C523.48,-255.15 523.2,-249 523,-243.19 522.7,-234.57 522.49,-225.35 522.35,-216.53"/>
<polygon fill="black" stroke="black" points="525.84,-216.37 522.2,-206.42 518.84,-216.47 525.84,-216.37"/>
<text text-anchor="middle" x="531" y="-231.99" font-family="Times,serif" font-size="14.00">t7</text>
</g>
<!-- C3_0&#45;&gt;C4_0 -->
<g id="edge25" class="edge">
<title>C3_0&#45;&gt;C4_0</title>
<path fill="none" stroke="black" d="M480,-330.54C470.7,-335.91 460.77,-340.98 451,-344.78 421.03,-356.46 412.01,-355.66 380,-358.78 308.96,-365.72 287.74,-367.31 220,-344.78 211.64,-342 203.17,-338.3 195.03,-334.19"/>
<polygon fill="black" stroke="black" points="196.47,-331 186,-329.42 193.2,-337.19 196.47,-331"/>
<text text-anchor="middle" x="357" y="-358.58" font-family="Times,serif" font-size="14.00">L10{}</text>
</g>
<!-- C3_1&#45;&gt;C3_0 -->
<g id="edge9" class="edge">
<title>C3_1&#45;&gt;C3_0</title>
<path fill="none" stroke="black" d="M535.81,-203.54C538.78,-211.4 541.48,-219.97 543,-228.19 544.55,-236.56 544.06,-245.43 542.52,-253.94"/>
<polygon fill="black" stroke="black" points="539.1,-253.18 540.27,-263.71 545.92,-254.75 539.1,-253.18"/>
<text text-anchor="middle" x="551" y="-231.99" font-family="Times,serif" font-size="14.00">t6</text>
</g>
<!-- C3_1&#45;&gt;C3_1 -->
<g id="edge11" class="edge">
<title>C3_1&#45;&gt;C3_1</title>
<path fill="none" stroke="black" d="M553.87,-184.01C564.89,-184.14 573.8,-180.26 573.8,-172.39 573.8,-167.23 569.96,-163.78 564.21,-162.06"/>
<polygon fill="black" stroke="black" points="564.22,-158.53 553.87,-160.77 563.36,-165.48 564.22,-158.53"/>
<text text-anchor="middle" x="591.3" y="-168.69" font-family="Times,serif" font-size="14.00">t8R3</text>
</g>
<!-- C4_0&#45;&gt;C1_0 -->
<g id="edge20" class="edge">
<title>C4_0&#45;&gt;C1_0</title>
<path fill="none" stroke="black" d="M186,-268.9C195.48,-261.38 204.76,-252.69 212,-243.19 217.64,-235.79 222.3,-227.1 226.1,-218.42"/>
<polygon fill="black" stroke="black" points="218.29,-224.37 226.89,-218.19 216.31,-217.65 218.29,-224.37"/>
<text text-anchor="middle" x="238.5" y="-231.99" font-family="Times,serif" font-size="14.00">L5{}</text>
</g>
<!-- C4_0&#45;&gt;C2_0 -->
<g id="edge21" class="edge">
<title>C4_0&#45;&gt;C2_0</title>
<path fill="none" stroke="black" d="M186,-386.2C194.9,-388.59 204.4,-391.1 214.15,-393.66"/>
<polygon fill="black" stroke="black" points="213.44,-397.09 224,-396.24 215.21,-390.32 213.44,-397.09"/>
<text text-anchor="middle" x="149.5" y="-358.58" font-family="Times,serif" font-size="14.00">L6{}</text>
</g>
<!-- C4_0&#45;&gt;C3_0 -->
<g id="edge22" class="edge">
<title>C4_0&#45;&gt;C3_0</title>
<path fill="none" stroke="black" d="M186,-328.7C196.82,-334.73 208.56,-340.52 220,-344.78 250.34,-356.09 259.27,-355.66 291.5,-358.78 362.33,-365.65 383.7,-367.91 451,-344.78 457.76,-342.46 464.56,-339.45 471.16,-336.09"/>
<polygon fill="black" stroke="black" points="472.87,-339.14 480,-331.31 469.54,-332.98 472.87,-339.14"/>
<text text-anchor="middle" x="310" y="-358.58" font-family="Times,serif" font-size="14.00">L7{}</text>
</g>
<!-- C4_1 -->
<g id="node8" class="node">
<title>C4_1</title>
<ellipse fill="none" stroke="black" cx="98" cy="-172.39" rx="33.6" ry="33.6"/>
<text text-anchor="middle" x="98" y="-168.69" font-family="Times,serif" font-size="14.00">C4_1</text>
</g>
<!-- C4_0&#45;&gt;C4_1 -->
<g id="edge12" class="edge">
<title>C4_0&#45;&gt;C4_1</title>
<path fill="none" stroke="black" d="M128.19,-262.95C123.09,-247.81 117.08,-229.99 111.77,-214.25"/>
<polygon fill="black" stroke="black" points="115.09,-213.13 108.58,-204.77 108.45,-215.36 115.09,-213.13"/>
<text text-anchor="middle" x="130" y="-231.99" font-family="Times,serif" font-size="14.00">t9</text>
</g>
<!-- C4_2 -->
<g id="node11" class="node">
<title>C4_2</title>
<ellipse fill="none" stroke="black" cx="98" cy="-49.8" rx="33.6" ry="33.6"/>
<text text-anchor="middle" x="98" y="-46.1" font-family="Times,serif" font-size="14.00">C4_2</text>
</g>
<!-- C4_1&#45;&gt;C4_2 -->
<g id="edge14" class="edge">
<title>C4_1&#45;&gt;C4_2</title>
<path fill="none" stroke="black" d="M98,-138.44C98,-124.75 98,-108.67 98,-94.04"/>
<polygon fill="black" stroke="black" points="101.5,-93.71 98,-83.71 94.5,-93.71 101.5,-93.71"/>
<text text-anchor="middle" x="120" y="-105.39" font-family="Times,serif" font-size="14.00">t11R7</text>
</g>
<!-- C4_3 -->
<g id="node9" class="node">
<title>C4_3</title>
<ellipse fill="none" stroke="black" cx="66" cy="-425.58" rx="33.6" ry="33.6"/>
<text text-anchor="middle" x="66" y="-421.88" font-family="Times,serif" font-size="14.00">C4_3</text>
</g>
<!-- C4_4 -->
<g id="node10" class="node">
<title>C4_4</title>
<ellipse fill="none" stroke="black" cx="50" cy="-298.99" rx="33.6" ry="33.6"/>
<text text-anchor="middle" x="50" y="-295.29" font-family="Times,serif" font-size="14.00">C4_4</text>
</g>
<!-- C4_3&#45;&gt;C4_4 -->
<g id="edge13" class="edge">
<title>C4_3&#45;&gt;C4_4</title>
<path fill="none" stroke="black" d="M46.96,-397.34C42.08,-388.89 37.5,-379.3 35,-369.78 32.49,-360.26 32.99,-349.93 34.86,-340.21"/>
<polygon fill="black" stroke="black" points="38.29,-340.9 37.24,-330.36 31.49,-339.26 38.29,-340.9"/>
<text text-anchor="middle" x="47.5" y="-358.58" font-family="Times,serif" font-size="14.00">t10</text>
</g>
<!-- C4_3&#45;&gt;C4_4 -->
<g id="edge15" class="edge">
<title>C4_3&#45;&gt;C4_4</title>
<path fill="none" stroke="black" d="M63.83,-391.84C62.88,-380.12 61.61,-366.84 60,-354.78 59.47,-350.8 58.84,-346.66 58.17,-342.53"/>
<polygon fill="black" stroke="black" points="61.57,-341.62 56.43,-332.36 54.67,-342.8 61.57,-341.62"/>
<text text-anchor="middle" x="74.5" y="-358.58" font-family="Times,serif" font-size="14.00">t12</text>
</g>
<!-- C4_4&#45;&gt;C4_1 -->
<g id="edge16" class="edge">
<title>C4_4&#45;&gt;C4_1</title>
<path fill="none" stroke="black" d="M57.15,-265.88C60.24,-253.87 64.25,-240.22 69,-228.19 71.2,-222.61 73.82,-216.86 76.57,-211.28"/>
<polygon fill="black" stroke="black" points="79.82,-212.61 81.27,-202.12 73.59,-209.42 79.82,-212.61"/>
<text text-anchor="middle" x="91" y="-231.99" font-family="Times,serif" font-size="14.00">t13R6</text>
</g>
</g>
</svg>
