<?xml version="1.0" encoding="UTF-8" standalone="no"?>
<!DOCTYPE svg PUBLIC "-//W3C//DTD SVG 1.1//EN"
 "http://www.w3.org/Graphics/SVG/1.1/DTD/svg11.dtd">
<!-- Generated by graphviz version 2.43.0 (0)
 -->
<!-- Title: input/ic Pages: 1 -->
<svg width="499pt" height="495pt"
 viewBox="0.00 0.00 499.00 495.00" xmlns="http://www.w3.org/2000/svg" xmlns:xlink="http://www.w3.org/1999/xlink">
<g id="graph0" class="graph" transform="scale(1 1) rotate(0) translate(4 491)">
<title>input/ic</title>
<polygon fill="white" stroke="transparent" points="-4,4 -4,-491 495,-491 495,4 -4,4"/>
<g id="clust1" class="cluster">
<title>cluster0</title>
<path fill="#ffeeee" stroke="#ffeeee" d="M146,-8C146,-8 233,-8 233,-8 239,-8 245,-14 245,-20 245,-20 245,-189 245,-189 245,-195 239,-201 233,-201 233,-201 146,-201 146,-201 140,-201 134,-195 134,-189 134,-189 134,-20 134,-20 134,-14 140,-8 146,-8"/>
<text text-anchor="middle" x="189.5" y="-185.8" font-family="Times,serif" font-size="14.00">C1</text>
</g>
<g id="clust2" class="cluster">
<title>cluster1</title>
<path fill="#ffeeee" stroke="#ffeeee" d="M366,-238C366,-238 471,-238 471,-238 477,-238 483,-244 483,-250 483,-250 483,-467 483,-467 483,-473 477,-479 471,-479 471,-479 366,-479 366,-479 360,-479 354,-473 354,-467 354,-467 354,-250 354,-250 354,-244 360,-238 366,-238"/>
<text text-anchor="middle" x="418.5" y="-463.8" font-family="Times,serif" font-size="14.00">C2</text>
</g>
<g id="clust3" class="cluster">
<title>cluster2</title>
<path fill="#ffeeee" stroke="#ffeeee" d="M265,-99C265,-99 334,-99 334,-99 340,-99 346,-105 346,-111 346,-111 346,-328 346,-328 346,-334 340,-340 334,-340 334,-340 265,-340 265,-340 259,-340 253,-334 253,-328 253,-328 253,-111 253,-111 253,-105 259,-99 265,-99"/>
<text text-anchor="middle" x="299.5" y="-324.8" font-family="Times,serif" font-size="14.00">C3</text>
</g>
<g id="clust4" class="cluster">
<title>cluster3</title>
<path fill="#ffeeee" stroke="#ffeeee" d="M20,-8C20,-8 114,-8 114,-8 120,-8 126,-14 126,-20 126,-20 126,-328 126,-328 126,-334 120,-340 114,-340 114,-340 20,-340 20,-340 14,-340 8,-334 8,-328 8,-328 8,-20 8,-20 8,-14 14,-8 20,-8"/>
<text text-anchor="middle" x="67" y="-324.8" font-family="Times,serif" font-size="14.00">C4</text>
</g>
<!-- C0s0 -->
<g id="node1" class="node">
<title>C0s0</title>
<ellipse fill="white" stroke="black" cx="164" cy="-125" rx="18" ry="18"/>
<ellipse fill="none" stroke="black" cx="164" cy="-125" rx="22" ry="22"/>
<text text-anchor="middle" x="164" y="-121.3" font-family="Times,serif" font-size="14.00">0</text>
</g>
<!-- C0s0&#45;&gt;C0s0 -->
<g id="edge3" class="edge">
<title>C0s0&#45;&gt;C0s0</title>
<path fill="none" stroke="black" d="M184.58,-133.37C194.84,-134.53 204,-131.74 204,-125 204,-120.68 200.24,-117.99 194.84,-116.91"/>
<polygon fill="black" stroke="black" points="194.67,-113.41 184.58,-116.63 194.48,-120.4 194.67,-113.41"/>
<text text-anchor="middle" x="220.5" y="-121.3" font-family="Times,serif" font-size="14.00">t13e</text>
</g>
<!-- C0s1 -->
<g id="node2" class="node">
<title>C0s1</title>
<ellipse fill="white" stroke="black" cx="183" cy="-34" rx="18" ry="18"/>
<text text-anchor="middle" x="183" y="-30.3" font-family="Times,serif" font-size="14.00">1</text>
</g>
<!-- C0s0&#45;&gt;C0s1 -->
<g id="edge1" class="edge">
<title>C0s0&#45;&gt;C0s1</title>
<path fill="none" stroke="black" d="M159.68,-103.38C158.34,-93.16 157.91,-80.74 161,-70 162.29,-65.53 164.33,-61.09 166.66,-56.94"/>
<polygon fill="black" stroke="black" points="169.66,-58.75 172.06,-48.43 163.75,-55 169.66,-58.75"/>
<text text-anchor="middle" x="173" y="-73.8" font-family="Times,serif" font-size="14.00">t2a</text>
</g>
<!-- C3s0 -->
<g id="node7" class="node">
<title>C3s0</title>
<ellipse fill="white" stroke="black" cx="96" cy="-264" rx="18" ry="18"/>
<ellipse fill="none" stroke="black" cx="96" cy="-264" rx="22" ry="22"/>
<text text-anchor="middle" x="96" y="-260.3" font-family="Times,serif" font-size="14.00">0</text>
</g>
<!-- C0s0&#45;&gt;C3s0 -->
<g id="edge18" class="edge">
<title>C0s0&#45;&gt;C3s0</title>
<path fill="none" stroke="black" d="M134,-195.62C133.75,-195.91 133.49,-196.19 133.23,-196.48"/>
<polygon fill="black" stroke="black" points="130.66,-194.09 126,-203.61 135.58,-199.08 130.66,-194.09"/>
<text text-anchor="middle" x="118.5" y="-212.8" font-family="Times,serif" font-size="14.00">L8</text>
</g>
<!-- C0s1&#45;&gt;C0s0 -->
<g id="edge2" class="edge">
<title>C0s1&#45;&gt;C0s0</title>
<path fill="none" stroke="black" d="M186.04,-51.91C187.22,-61.72 187.72,-74.22 185,-85 183.99,-89 182.49,-93.03 180.73,-96.91"/>
<polygon fill="black" stroke="black" points="177.46,-95.62 176.02,-106.12 183.69,-98.81 177.46,-95.62"/>
<text text-anchor="middle" x="194" y="-73.8" font-family="Times,serif" font-size="14.00">t3</text>
</g>
<!-- C1s0 -->
<g id="node3" class="node">
<title>C1s0</title>
<ellipse fill="white" stroke="black" cx="384" cy="-403" rx="18" ry="18"/>
<ellipse fill="none" stroke="black" cx="384" cy="-403" rx="22" ry="22"/>
<text text-anchor="middle" x="384" y="-399.3" font-family="Times,serif" font-size="14.00">0</text>
</g>
<!-- C1s0&#45;&gt;C0s0 -->
<g id="edge14" class="edge">
<title>C1s0&#45;&gt;C0s0</title>
<path fill="none" stroke="black" d="M354,-399.62C307.82,-395.31 222.5,-384.6 202,-363 181.48,-341.38 172.03,-269.92 167.68,-211.07"/>
<polygon fill="black" stroke="black" points="171.17,-210.73 166.98,-201 164.18,-211.22 171.17,-210.73"/>
<text text-anchor="middle" x="198.5" y="-260.3" font-family="Times,serif" font-size="14.00">L3</text>
</g>
<!-- C1s1 -->
<g id="node4" class="node">
<title>C1s1</title>
<ellipse fill="white" stroke="black" cx="409" cy="-264" rx="18" ry="18"/>
<text text-anchor="middle" x="409" y="-260.3" font-family="Times,serif" font-size="14.00">1</text>
</g>
<!-- C1s0&#45;&gt;C1s1 -->
<g id="edge5" class="edge">
<title>C1s0&#45;&gt;C1s1</title>
<path fill="none" stroke="black" d="M378.36,-381.66C376.31,-371.51 374.94,-359.06 377,-348 380.79,-327.63 389.4,-305.82 396.73,-289.67"/>
<polygon fill="black" stroke="black" points="400,-290.94 401.08,-280.41 393.66,-287.97 400,-290.94"/>
<text text-anchor="middle" x="395" y="-351.8" font-family="Times,serif" font-size="14.00">t5O1</text>
</g>
<!-- C2s0 -->
<g id="node5" class="node">
<title>C2s0</title>
<ellipse fill="white" stroke="black" cx="295" cy="-264" rx="18" ry="18"/>
<ellipse fill="none" stroke="black" cx="295" cy="-264" rx="22" ry="22"/>
<text text-anchor="middle" x="295" y="-260.3" font-family="Times,serif" font-size="14.00">0</text>
</g>
<!-- C1s0&#45;&gt;C2s0 -->
<g id="edge13" class="edge">
<title>C1s0&#45;&gt;C2s0</title>
<path fill="none" stroke="black" d="M354,-365.83C353.32,-364.88 352.65,-363.94 352,-363 348.82,-358.42 345.65,-353.66 342.52,-348.81"/>
<polygon fill="black" stroke="black" points="345.25,-346.58 336.94,-340 339.34,-350.32 345.25,-346.58"/>
<text text-anchor="middle" x="361.5" y="-351.8" font-family="Times,serif" font-size="14.00">L2</text>
</g>
<!-- C1s0&#45;&gt;C3s0 -->
<g id="edge19" class="edge">
<title>C1s0&#45;&gt;C3s0</title>
<path fill="none" stroke="black" d="M354,-401.87C291.18,-400.94 148.8,-395.23 115,-363 110.82,-359.01 107.4,-354.4 104.62,-349.39"/>
<polygon fill="black" stroke="black" points="107.66,-347.61 100.28,-340 101.3,-350.54 107.66,-347.61"/>
<text text-anchor="middle" x="124.5" y="-351.8" font-family="Times,serif" font-size="14.00">L9</text>
</g>
<!-- C1s1&#45;&gt;C1s0 -->
<g id="edge4" class="edge">
<title>C1s1&#45;&gt;C1s0</title>
<path fill="none" stroke="black" d="M414.48,-281.52C420.18,-301.48 426.98,-335.75 417,-363 414.76,-369.12 411.08,-374.94 406.98,-380.13"/>
<polygon fill="black" stroke="black" points="404.29,-377.89 400.33,-387.72 409.56,-382.5 404.29,-377.89"/>
<text text-anchor="middle" x="438" y="-351.8" font-family="Times,serif" font-size="14.00">t4O2</text>
</g>
<!-- C2s0&#45;&gt;C0s0 -->
<g id="edge12" class="edge">
<title>C2s0&#45;&gt;C0s0</title>
<path fill="none" stroke="black" d="M253,-226.94C251.98,-225.96 250.98,-224.98 250,-224 244.96,-218.99 239.86,-213.73 234.79,-208.37"/>
<polygon fill="black" stroke="black" points="237.3,-205.92 227.92,-201 232.18,-210.7 237.3,-205.92"/>
<text text-anchor="middle" x="259.5" y="-212.8" font-family="Times,serif" font-size="14.00">L1</text>
</g>
<!-- C2s1 -->
<g id="node6" class="node">
<title>C2s1</title>
<ellipse fill="white" stroke="black" cx="279" cy="-125" rx="18" ry="18"/>
<text text-anchor="middle" x="279" y="-121.3" font-family="Times,serif" font-size="14.00">1</text>
</g>
<!-- C2s0&#45;&gt;C2s1 -->
<g id="edge7" class="edge">
<title>C2s0&#45;&gt;C2s1</title>
<path fill="none" stroke="black" d="M283.92,-244.6C280.7,-238.29 277.62,-231.05 276,-224 270.55,-200.38 272.09,-172.71 274.53,-152.81"/>
<polygon fill="black" stroke="black" points="278,-153.29 275.9,-142.9 271.07,-152.33 278,-153.29"/>
<text text-anchor="middle" x="284" y="-212.8" font-family="Times,serif" font-size="14.00">t7</text>
</g>
<!-- C2s0&#45;&gt;C3s0 -->
<g id="edge20" class="edge">
<title>C2s0&#45;&gt;C3s0</title>
<path fill="none" stroke="black" d="M253,-312.84C240.7,-323.88 226.39,-334.07 211,-340 192.34,-347.19 184.32,-348.03 166,-340 153.67,-334.59 142.55,-325.82 133,-316.13"/>
<polygon fill="black" stroke="black" points="135.36,-313.53 126,-308.57 130.23,-318.29 135.36,-313.53"/>
<text text-anchor="middle" x="217" y="-351.8" font-family="Times,serif" font-size="14.00">L10</text>
</g>
<!-- C2s1&#45;&gt;C2s0 -->
<g id="edge6" class="edge">
<title>C2s1&#45;&gt;C2s0</title>
<path fill="none" stroke="black" d="M283.46,-142.7C287.65,-159.35 293.64,-185.73 296,-209 296.67,-215.63 296.09,-217.33 296,-224 295.97,-226.55 295.92,-229.19 295.87,-231.84"/>
<polygon fill="black" stroke="black" points="292.37,-231.87 295.64,-241.95 299.37,-232.03 292.37,-231.87"/>
<text text-anchor="middle" x="304" y="-212.8" font-family="Times,serif" font-size="14.00">t6</text>
</g>
<!-- C2s1&#45;&gt;C2s1 -->
<g id="edge8" class="edge">
<title>C2s1&#45;&gt;C2s1</title>
<path fill="none" stroke="black" d="M295.29,-133.02C305.39,-134.95 315,-132.28 315,-125 315,-120.34 311.06,-117.57 305.57,-116.68"/>
<polygon fill="black" stroke="black" points="305.18,-113.19 295.29,-116.98 305.39,-120.19 305.18,-113.19"/>
<text text-anchor="middle" x="326.5" y="-121.3" font-family="Times,serif" font-size="14.00">t8c</text>
</g>
<!-- C3s0&#45;&gt;C0s0 -->
<g id="edge15" class="edge">
<title>C3s0&#45;&gt;C0s0</title>
<path fill="none" stroke="black" d="M126,-232.9C128.19,-230.01 130.23,-227.02 132,-224 134.57,-219.62 136.97,-215 139.19,-210.25"/>
<polygon fill="black" stroke="black" points="142.44,-211.56 143.27,-201 136.04,-208.74 142.44,-211.56"/>
<text text-anchor="middle" x="148.5" y="-212.8" font-family="Times,serif" font-size="14.00">L5</text>
</g>
<!-- C3s0&#45;&gt;C1s0 -->
<g id="edge16" class="edge">
<title>C3s0&#45;&gt;C1s0</title>
<path fill="none" stroke="black" d="M126,-332.62C133.9,-344.29 143.52,-355.17 155,-363 186.47,-384.47 296.19,-395.49 351.54,-399.79"/>
<polygon fill="black" stroke="black" points="343.41,-400.91 354,-400.56 345.51,-394.23 343.41,-400.91"/>
<text text-anchor="middle" x="164.5" y="-351.8" font-family="Times,serif" font-size="14.00">L6</text>
</g>
<!-- C3s0&#45;&gt;C2s0 -->
<g id="edge17" class="edge">
<title>C3s0&#45;&gt;C2s0</title>
<path fill="none" stroke="black" d="M126,-308.57C136.96,-321.13 150.52,-333.21 166,-340 184.32,-348.03 192.34,-347.19 211,-340 223.26,-335.28 234.84,-327.84 245.26,-319.44"/>
<polygon fill="black" stroke="black" points="247.66,-321.99 253,-312.84 243.12,-316.67 247.66,-321.99"/>
<text text-anchor="middle" x="246" y="-351.8" font-family="Times,serif" font-size="14.00">L7</text>
</g>
<!-- C3s1 -->
<g id="node8" class="node">
<title>C3s1</title>
<ellipse fill="white" stroke="black" cx="34" cy="-125" rx="18" ry="18"/>
<text text-anchor="middle" x="34" y="-121.3" font-family="Times,serif" font-size="14.00">1</text>
</g>
<!-- C3s0&#45;&gt;C3s1 -->
<g id="edge9" class="edge">
<title>C3s0&#45;&gt;C3s1</title>
<path fill="none" stroke="black" d="M82.07,-246.68C76.83,-239.97 71.15,-231.92 67,-224 54.95,-200.97 45.98,-172.65 40.45,-152.39"/>
<polygon fill="black" stroke="black" points="43.81,-151.38 37.88,-142.59 37.04,-153.15 43.81,-151.38"/>
<text text-anchor="middle" x="75" y="-212.8" font-family="Times,serif" font-size="14.00">t9</text>
</g>
<!-- C3s2 -->
<g id="node9" class="node">
<title>C3s2</title>
<ellipse fill="white" stroke="black" cx="41" cy="-34" rx="18" ry="18"/>
<text text-anchor="middle" x="41" y="-30.3" font-family="Times,serif" font-size="14.00">2</text>
</g>
<!-- C3s1&#45;&gt;C3s2 -->
<g id="edge10" class="edge">
<title>C3s1&#45;&gt;C3s2</title>
<path fill="none" stroke="black" d="M35.35,-106.84C36.35,-94.16 37.72,-76.64 38.87,-62.08"/>
<polygon fill="black" stroke="black" points="42.36,-62.35 39.65,-52.11 35.38,-61.8 42.36,-62.35"/>
<text text-anchor="middle" x="55" y="-73.8" font-family="Times,serif" font-size="14.00">t11g</text>
</g>
<!-- C3s2&#45;&gt;C3s0 -->
<g id="edge11" class="edge">
<title>C3s2&#45;&gt;C3s0</title>
<path fill="none" stroke="black" d="M55.31,-45.35C62.79,-51.59 71.35,-60.22 76,-70 89.23,-97.79 93.76,-184.27 95.27,-231.48"/>
<polygon fill="black" stroke="black" points="91.78,-231.85 95.58,-241.75 98.78,-231.65 91.78,-231.85"/>
<text text-anchor="middle" x="109" y="-121.3" font-family="Times,serif" font-size="14.00">t12f</text>
</g>
</g>
</svg>
