<?xml version="1.0" encoding="UTF-8" standalone="no"?>
<!DOCTYPE svg PUBLIC "-//W3C//DTD SVG 1.1//EN"
 "http://www.w3.org/Graphics/SVG/1.1/DTD/svg11.dtd">
<!-- Generated by graphviz version 2.43.0 (0)
 -->
<!-- Title: MONinput/ic Pages: 1 -->
<svg width="3856pt" height="99pt"
 viewBox="0.00 0.00 3856.00 99.00" xmlns="http://www.w3.org/2000/svg" xmlns:xlink="http://www.w3.org/1999/xlink">
<g id="graph0" class="graph" transform="scale(1 1) rotate(0) translate(4 95)">
<title>MONinput/ic</title>
<polygon fill="white" stroke="transparent" points="-4,4 -4,-95 3852,-95 3852,4 -4,4"/>
<g id="clust1" class="cluster">
<title>cluster0</title>
<path fill="#fff9dd" stroke="#fff9dd" d="M12,-8C12,-8 3836,-8 3836,-8 3842,-8 3848,-14 3848,-20 3848,-20 3848,-71 3848,-71 3848,-77 3842,-83 3836,-83 3836,-83 12,-83 12,-83 6,-83 0,-77 0,-71 0,-71 0,-20 0,-20 0,-14 6,-8 12,-8"/>
<text text-anchor="middle" x="1924" y="-67.8" font-family="Times,serif" font-size="14.00">((((((((((((((((((r1?|(r1r1))|(r1r1))|((r7r1r1)|(((r7r1r1)|(((r1r7r1)|(r1(r7r1)|(r1r7)))|((r1r7r1)|(r1(r7r1)|((r7r1)|(r1r7))))))|((r7r1r1)|(((r1r7r1)|(r1(r7r1)|(r1r7)))|(((r1r7r1)|((r1(r7r1)|(r1r7))|((r1r7r1)|(r1r1r7))))|((r1r7r1)|((r1(r7r1)|((r7r1)|(r1r7)))|((r1r7r1)|((r1(r7r1)|(r1r7))|((r1r7r1)|(r1r1r7))))))))))))|((r7r5r1r1)|((r7(r5r1r1)|(r1r5r1))|((r7r5r1r1)|((r7r1r5r1)|(r1r7r5r1))))))|r1)|r1)|r1)|((r7r1)|((r7r1)|(r1r7))))|((r7r5r1)|((r7(r5r1)|(r1r5))|((r7r5r1)|((r7r1r5)|(r1r7r5))))))|r1)|((r7r1)|((r7r1)|(r1r7))))|r1)|((r7r1)|(r1r7)))|(r7r5r1))|(r7r5r1))|r7)|(r7r5))|r7)|(r7r5)</text>
</g>
<!-- M0S0 -->
<g id="node1" class="node">
<title>M0S0</title>
<path fill="#ffffff" stroke="black" d="M1939,-52C1939,-52 1909,-52 1909,-52 1903,-52 1897,-46 1897,-40 1897,-40 1897,-28 1897,-28 1897,-22 1903,-16 1909,-16 1909,-16 1939,-16 1939,-16 1945,-16 1951,-22 1951,-28 1951,-28 1951,-40 1951,-40 1951,-46 1945,-52 1939,-52"/>
<text text-anchor="middle" x="1924" y="-30.3" font-family="Times,serif" font-size="14.00">0</text>
</g>
</g>
</svg>
