<?xml version="1.0" encoding="UTF-8" standalone="no"?>
<!DOCTYPE svg PUBLIC "-//W3C//DTD SVG 1.1//EN"
 "http://www.w3.org/Graphics/SVG/1.1/DTD/svg11.dtd">
<!-- Generated by graphviz version 2.43.0 (0)
 -->
<!-- Title: MONinput/ic Pages: 1 -->
<svg width="1615pt" height="99pt"
 viewBox="0.00 0.00 1615.00 99.00" xmlns="http://www.w3.org/2000/svg" xmlns:xlink="http://www.w3.org/1999/xlink">
<g id="graph0" class="graph" transform="scale(1 1) rotate(0) translate(4 95)">
<title>MONinput/ic</title>
<polygon fill="white" stroke="transparent" points="-4,4 -4,-95 1611,-95 1611,4 -4,4"/>
<g id="clust1" class="cluster">
<title>cluster0</title>
<path fill="#fff9dd" stroke="#fff9dd" d="M12,-8C12,-8 1595,-8 1595,-8 1601,-8 1607,-14 1607,-20 1607,-20 1607,-71 1607,-71 1607,-77 1601,-83 1595,-83 1595,-83 12,-83 12,-83 6,-83 0,-77 0,-71 0,-71 0,-20 0,-20 0,-14 6,-8 12,-8"/>
<text text-anchor="middle" x="803.5" y="-67.8" font-family="Times,serif" font-size="14.00">a?|(aa)|(((gaa)|((aga)|(a(ga)|(ag))))|(gaa)|((aga)|(a(ga)|(ag))|(aga)|(a(ga)|(ag))|(aga)|(aag)))|((ga)|(ag))|((gea)|(g(ea)|(ae))|((gea)|(gae)|(age)))|((geaa)|(g(eaa)|(aea))|((geaa)|(gaea)|(agea)))|((ga)|(ag))|(ga)|(ag)|g|(ge)|(gea)|g|(ge)|(gea)</text>
</g>
<!-- M0S0 -->
<g id="node1" class="node">
<title>M0S0</title>
<path fill="#ffffff" stroke="black" d="M818,-52C818,-52 788,-52 788,-52 782,-52 776,-46 776,-40 776,-40 776,-28 776,-28 776,-22 782,-16 788,-16 788,-16 818,-16 818,-16 824,-16 830,-22 830,-28 830,-28 830,-40 830,-40 830,-46 824,-52 818,-52"/>
<text text-anchor="middle" x="803" y="-30.3" font-family="Times,serif" font-size="14.00">0</text>
</g>
</g>
</svg>
