<?xml version="1.0" encoding="UTF-8" standalone="no"?>
<!DOCTYPE svg PUBLIC "-//W3C//DTD SVG 1.1//EN"
 "http://www.w3.org/Graphics/SVG/1.1/DTD/svg11.dtd">
<!-- Generated by graphviz version 2.43.0 (0)
 -->
<!-- Title: MONinput/ic Pages: 1 -->
<svg width="1513pt" height="99pt"
 viewBox="0.00 0.00 1513.00 99.00" xmlns="http://www.w3.org/2000/svg" xmlns:xlink="http://www.w3.org/1999/xlink">
<g id="graph0" class="graph" transform="scale(1 1) rotate(0) translate(4 95)">
<title>MONinput/ic</title>
<polygon fill="white" stroke="transparent" points="-4,4 -4,-95 1509,-95 1509,4 -4,4"/>
<g id="clust1" class="cluster">
<title>cluster0</title>
<path fill="#fff9dd" stroke="#fff9dd" d="M12,-8C12,-8 1493,-8 1493,-8 1499,-8 1505,-14 1505,-20 1505,-20 1505,-71 1505,-71 1505,-77 1499,-83 1493,-83 1493,-83 12,-83 12,-83 6,-83 0,-77 0,-71 0,-71 0,-20 0,-20 0,-14 6,-8 12,-8"/>
<text text-anchor="middle" x="752.5" y="-67.8" font-family="Times,serif" font-size="14.00">a?|(aa)|(((gaa)|((aga)|(a(ga)|(ag))))|(gaa)|((aga)|(a(ga)|(ag))|(aga)|(a(ga)|(ag))|(aga)|(aag)))|(geaa)|(g(eaa)|(aea))|((geaa)|(gaea)|(agea))|((ga)|(ag))|(gea)|(g(ea)|(ae))|((gea)|(gae)|(age))|((ga)|(ag))|(ga)|(ag)|g|(ge)|g|(ge)</text>
</g>
<!-- M0S0 -->
<g id="node1" class="node">
<title>M0S0</title>
<path fill="#ffffff" stroke="black" d="M767,-52C767,-52 737,-52 737,-52 731,-52 725,-46 725,-40 725,-40 725,-28 725,-28 725,-22 731,-16 737,-16 737,-16 767,-16 767,-16 773,-16 779,-22 779,-28 779,-28 779,-40 779,-40 779,-46 773,-52 767,-52"/>
<text text-anchor="middle" x="752" y="-30.3" font-family="Times,serif" font-size="14.00">0</text>
</g>
</g>
</svg>
