<?xml version="1.0" encoding="UTF-8" standalone="no"?>
<!DOCTYPE svg PUBLIC "-//W3C//DTD SVG 1.1//EN"
 "http://www.w3.org/Graphics/SVG/1.1/DTD/svg11.dtd">
<!-- Generated by graphviz version 2.43.0 (0)
 -->
<!-- Title: MONinput/ic Pages: 1 -->
<svg width="4018pt" height="99pt"
 viewBox="0.00 0.00 4018.00 99.00" xmlns="http://www.w3.org/2000/svg" xmlns:xlink="http://www.w3.org/1999/xlink">
<g id="graph0" class="graph" transform="scale(1 1) rotate(0) translate(4 95)">
<title>MONinput/ic</title>
<polygon fill="white" stroke="transparent" points="-4,4 -4,-95 4014,-95 4014,4 -4,4"/>
<g id="clust1" class="cluster">
<title>cluster0</title>
<path fill="#fff9dd" stroke="#fff9dd" d="M12,-8C12,-8 3998,-8 3998,-8 4004,-8 4010,-14 4010,-20 4010,-20 4010,-71 4010,-71 4010,-77 4004,-83 3998,-83 3998,-83 12,-83 12,-83 6,-83 0,-77 0,-71 0,-71 0,-20 0,-20 0,-14 6,-8 12,-8"/>
<text text-anchor="middle" x="2005" y="-67.8" font-family="Times,serif" font-size="14.00">((((((((((((((((((r1?|r1)|r1)|(r1r1))|(r1r1))|((r7r1r1)|(((r7r1r1)|(((r1r7r1)|(r1(r7r1)|(r1r7)))|((r1r7r1)|(r1(r7r1)|((r7r1)|(r1r7))))))|((r7r1r1)|(((r1r7r1)|(r1(r7r1)|(r1r7)))|(((r1r7r1)|((r1(r7r1)|(r1r7))|((r1r7r1)|(r1r1r7))))|((r1r7r1)|((r1(r7r1)|((r7r1)|(r1r7)))|((r1r7r1)|((r1(r7r1)|(r1r7))|((r1r7r1)|(r1r1r7))))))))))))|r1)|((r7r1)|((r7r1)|(r1r7))))|((r7r5r1)|((r7r5r1)|((r7(r5r1)|(r1r5))|((r7r5r1)|((r7r1r5)|(r1r7r5)))))))|((r7r5r1r1)|((r7r5r1r1)|((r7(r5r1r1)|(r1r5r1))|((r7r5r1r1)|((r7r1r5r1)|(r1r7r5r1)))))))|r1)|((r7r1)|((r7r1)|(r1r7))))|r1)|((r7r1)|(r1r7)))|r7)|(r7r5))|(r7r5r1))|r7)|(r7r5))|(r7r5r1)</text>
</g>
<!-- M0S0 -->
<g id="node1" class="node">
<title>M0S0</title>
<path fill="#ffffff" stroke="black" d="M2020,-52C2020,-52 1990,-52 1990,-52 1984,-52 1978,-46 1978,-40 1978,-40 1978,-28 1978,-28 1978,-22 1984,-16 1990,-16 1990,-16 2020,-16 2020,-16 2026,-16 2032,-22 2032,-28 2032,-28 2032,-40 2032,-40 2032,-46 2026,-52 2020,-52"/>
<text text-anchor="middle" x="2005" y="-30.3" font-family="Times,serif" font-size="14.00">0</text>
</g>
</g>
</svg>
