<?xml version="1.0" encoding="UTF-8" standalone="no"?>
<!DOCTYPE svg PUBLIC "-//W3C//DTD SVG 1.1//EN"
 "http://www.w3.org/Graphics/SVG/1.1/DTD/svg11.dtd">
<!-- Generated by graphviz version 2.43.0 (0)
 -->
<!-- Title: MONinput/ic Pages: 1 -->
<svg width="3997pt" height="99pt"
 viewBox="0.00 0.00 3997.00 99.00" xmlns="http://www.w3.org/2000/svg" xmlns:xlink="http://www.w3.org/1999/xlink">
<g id="graph0" class="graph" transform="scale(1 1) rotate(0) translate(4 95)">
<title>MONinput/ic</title>
<polygon fill="white" stroke="transparent" points="-4,4 -4,-95 3993,-95 3993,4 -4,4"/>
<g id="clust1" class="cluster">
<title>cluster0</title>
<path fill="#fff9dd" stroke="#fff9dd" d="M12,-8C12,-8 3977,-8 3977,-8 3983,-8 3989,-14 3989,-20 3989,-20 3989,-71 3989,-71 3989,-77 3983,-83 3977,-83 3977,-83 12,-83 12,-83 6,-83 0,-77 0,-71 0,-71 0,-20 0,-20 0,-14 6,-8 12,-8"/>
<text text-anchor="middle" x="1994.5" y="-67.8" font-family="Times,serif" font-size="14.00">((((((((((((((((((r1?|r1))|(r1r1))|(r1r1))|((r7r1r1)|(((r7r1r1)|(((r1r7r1)|(r1(r7r1)|(r1r7)))|((r1r7r1)|(r1(r7r1)|((r7r1)|(r1r7))))))|((r7r1r1)|(((r1r7r1)|(r1(r7r1)|(r1r7)))|(((r1r7r1)|((r1(r7r1)|(r1r7))|((r1r7r1)|(r1r1r7))))|((r1r7r1)|((r1(r7r1)|((r7r1)|(r1r7)))|((r1r7r1)|((r1(r7r1)|(r1r7))|((r1r7r1)|(r1r1r7))))))))))))|r1)|((r7r1)|((r7r1)|(r1r7))))|((r7r5r1)|((r7r5r1)|((r7(r5r1)|(r1r5))|((r7r5r1)|((r7r1r5)|(r1r7r5)))))))|((r7r5r1r1)|((r7r5r1r1)|((r7(r5r1r1)|(r1r5r1))|((r7r5r1r1)|((r7r1r5r1)|(r1r7r5r1)))))))|r1)|((r7r1)|((r7r1)|(r1r7))))|r1)|((r7r1)|(r1r7)))|r7)|(r7r5))|(r7r5r1))|r7)|(r7r5))|(r7r5r1)</text>
</g>
<!-- M0S0 -->
<g id="node1" class="node">
<title>M0S0</title>
<path fill="#ffffff" stroke="black" d="M2009,-52C2009,-52 1979,-52 1979,-52 1973,-52 1967,-46 1967,-40 1967,-40 1967,-28 1967,-28 1967,-22 1973,-16 1979,-16 1979,-16 2009,-16 2009,-16 2015,-16 2021,-22 2021,-28 2021,-28 2021,-40 2021,-40 2021,-46 2015,-52 2009,-52"/>
<text text-anchor="middle" x="1994" y="-30.3" font-family="Times,serif" font-size="14.00">0</text>
</g>
</g>
</svg>
