<?xml version="1.0" encoding="UTF-8" standalone="no"?>
<!DOCTYPE svg PUBLIC "-//W3C//DTD SVG 1.1//EN"
 "http://www.w3.org/Graphics/SVG/1.1/DTD/svg11.dtd">
<!-- Generated by graphviz version 2.43.0 (0)
 -->
<!-- Title: input/icp Pages: 1 -->
<svg width="846pt" height="487pt"
 viewBox="0.00 0.00 846.00 487.38" xmlns="http://www.w3.org/2000/svg" xmlns:xlink="http://www.w3.org/1999/xlink">
<g id="graph0" class="graph" transform="scale(1 1) rotate(0) translate(4 483.38)">
<title>input/icp</title>
<polygon fill="white" stroke="transparent" points="-4,4 -4,-483.38 842,-483.38 842,4 -4,4"/>
<g id="clust1" class="cluster">
<title>cluster1</title>
<path fill="#ffeeee" stroke="#ffeeee" d="M241,-8C241,-8 489,-8 489,-8 495,-8 501,-14 501,-20 501,-20 501,-206.19 501,-206.19 501,-212.19 495,-218.19 489,-218.19 489,-218.19 241,-218.19 241,-218.19 235,-218.19 229,-212.19 229,-206.19 229,-206.19 229,-20 229,-20 229,-14 235,-8 241,-8"/>
</g>
<g id="clust2" class="cluster">
<title>cluster2</title>
<path fill="#ffeeee" stroke="#ffeeee" d="M666,-257.19C666,-257.19 818,-257.19 818,-257.19 824,-257.19 830,-263.19 830,-269.19 830,-269.19 830,-459.38 830,-459.38 830,-465.38 824,-471.38 818,-471.38 818,-471.38 666,-471.38 666,-471.38 660,-471.38 654,-465.38 654,-459.38 654,-459.38 654,-269.19 654,-269.19 654,-263.19 660,-257.19 666,-257.19"/>
</g>
<g id="clust3" class="cluster">
<title>cluster3</title>
<path fill="#ffeeee" stroke="#ffeeee" d="M521,-130.59C521,-130.59 634,-130.59 634,-130.59 640,-130.59 646,-136.59 646,-142.59 646,-142.59 646,-332.78 646,-332.78 646,-338.78 640,-344.78 634,-344.78 634,-344.78 521,-344.78 521,-344.78 515,-344.78 509,-338.78 509,-332.78 509,-332.78 509,-142.59 509,-142.59 509,-136.59 515,-130.59 521,-130.59"/>
</g>
<g id="clust4" class="cluster">
<title>cluster4</title>
<path fill="#ffeeee" stroke="#ffeeee" d="M20,-130.59C20,-130.59 209,-130.59 209,-130.59 215,-130.59 221,-136.59 221,-142.59 221,-142.59 221,-332.78 221,-332.78 221,-338.78 215,-344.78 209,-344.78 209,-344.78 20,-344.78 20,-344.78 14,-344.78 8,-338.78 8,-332.78 8,-332.78 8,-142.59 8,-142.59 8,-136.59 14,-130.59 20,-130.59"/>
</g>
<!-- C1_0 -->
<g id="node1" class="node">
<title>C1_0</title>
<ellipse fill="white" stroke="black" cx="334" cy="-172.39" rx="33.62" ry="33.62"/>
<ellipse fill="none" stroke="black" cx="334" cy="-172.39" rx="37.6" ry="37.6"/>
<text text-anchor="middle" x="334" y="-168.69" font-family="Times,serif" font-size="14.00">C1_0</text>
</g>
<!-- C1_1 -->
<g id="node2" class="node">
<title>C1_1</title>
<ellipse fill="white" stroke="black" cx="357" cy="-49.8" rx="33.6" ry="33.6"/>
<text text-anchor="middle" x="357" y="-46.1" font-family="Times,serif" font-size="14.00">C1_1</text>
</g>
<!-- C1_0&#45;&gt;C1_1 -->
<g id="edge1" class="edge">
<title>C1_0&#45;&gt;C1_1</title>
<path fill="none" stroke="black" d="M298.93,-157.96C271.92,-145.44 241.46,-125.18 256,-101.59 268.77,-80.87 292.87,-68.31 314.32,-60.86"/>
<polygon fill="black" stroke="black" points="315.48,-64.16 323.95,-57.79 313.35,-57.49 315.48,-64.16"/>
<text text-anchor="middle" x="264" y="-105.39" font-family="Times,serif" font-size="14.00">t1</text>
</g>
<!-- C1_0&#45;&gt;C1_1 -->
<g id="edge2" class="edge">
<title>C1_0&#45;&gt;C1_1</title>
<path fill="none" stroke="black" d="M306.64,-145.97C296,-132.93 287.87,-116.65 295,-101.59 300.35,-90.29 309.58,-80.67 319.31,-72.94"/>
<polygon fill="black" stroke="black" points="321.55,-75.64 327.53,-66.89 317.4,-70 321.55,-75.64"/>
<text text-anchor="middle" x="303" y="-105.39" font-family="Times,serif" font-size="14.00">t2</text>
</g>
<!-- C1_0&#45;&gt;C1_1 -->
<g id="edge4" class="edge">
<title>C1_0&#45;&gt;C1_1</title>
<path fill="none" stroke="black" d="M331.1,-134.49C331.03,-123.78 331.72,-112.14 334,-101.59 334.88,-97.5 336.13,-93.33 337.58,-89.24"/>
<polygon fill="black" stroke="black" points="340.86,-90.47 341.3,-79.88 334.35,-87.89 340.86,-90.47"/>
<text text-anchor="middle" x="346.5" y="-105.39" font-family="Times,serif" font-size="14.00">t13</text>
</g>
<!-- C1_0&#45;&gt;C1_1 -->
<g id="edge5" class="edge">
<title>C1_0&#45;&gt;C1_1</title>
<path fill="none" stroke="black" d="M351.58,-138.86C354.65,-131.71 357.38,-124.05 359,-116.59 360.59,-109.3 361.23,-101.45 361.31,-93.79"/>
<polygon fill="black" stroke="black" points="364.81,-93.48 361.11,-83.55 357.81,-93.61 364.81,-93.48"/>
<text text-anchor="middle" x="372.5" y="-105.39" font-family="Times,serif" font-size="14.00">t15</text>
</g>
<!-- C1_0&#45;&gt;C1_1 -->
<g id="edge6" class="edge">
<title>C1_0&#45;&gt;C1_1</title>
<path fill="none" stroke="black" d="M364.33,-149.28C374.12,-140.35 383.78,-129.17 389,-116.59 393.48,-105.8 390.61,-94.26 385.08,-83.91"/>
<polygon fill="black" stroke="black" points="387.91,-81.82 379.67,-75.17 381.96,-85.51 387.91,-81.82"/>
<text text-anchor="middle" x="403.5" y="-105.39" font-family="Times,serif" font-size="14.00">t17</text>
</g>
<!-- C4_0 -->
<g id="node7" class="node">
<title>C4_0</title>
<ellipse fill="white" stroke="black" cx="175" cy="-298.99" rx="33.62" ry="33.62"/>
<ellipse fill="none" stroke="black" cx="175" cy="-298.99" rx="37.6" ry="37.6"/>
<text text-anchor="middle" x="175" y="-295.29" font-family="Times,serif" font-size="14.00">C4_0</text>
</g>
<!-- C1_0&#45;&gt;C4_0 -->
<g id="edge25" class="edge">
<title>C1_0&#45;&gt;C4_0</title>
<path fill="none" stroke="black" d="M254.43,-218.18C249.79,-221.43 245.28,-224.78 241,-228.19 236.76,-231.57 232.53,-235.22 228.37,-239.01"/>
<polygon fill="black" stroke="black" points="225.87,-236.57 221,-245.97 230.67,-241.66 225.87,-236.57"/>
<text text-anchor="middle" x="259.5" y="-231.99" font-family="Times,serif" font-size="14.00">L8{}</text>
</g>
<!-- C1_1&#45;&gt;C1_0 -->
<g id="edge3" class="edge">
<title>C1_1&#45;&gt;C1_0</title>
<path fill="none" stroke="black" d="M389.77,-58.34C425.05,-68.14 473.77,-87.49 455,-116.59 438.76,-141.77 407.85,-155.51 381.33,-162.93"/>
<polygon fill="black" stroke="black" points="380.24,-159.6 371.43,-165.47 381.98,-166.37 380.24,-159.6"/>
<text text-anchor="middle" x="467" y="-105.39" font-family="Times,serif" font-size="14.00">t3</text>
</g>
<!-- C2_0 -->
<g id="node3" class="node">
<title>C2_0</title>
<ellipse fill="white" stroke="black" cx="700" cy="-425.58" rx="33.62" ry="33.62"/>
<ellipse fill="none" stroke="black" cx="700" cy="-425.58" rx="37.6" ry="37.6"/>
<text text-anchor="middle" x="700" y="-421.88" font-family="Times,serif" font-size="14.00">C2_0</text>
</g>
<!-- C2_0&#45;&gt;C1_0 -->
<g id="edge21" class="edge">
<title>C2_0&#45;&gt;C1_0</title>
<path fill="none" stroke="black" d="M654,-421.76C579.81,-416.3 438.25,-401.91 401,-369.78 357.59,-332.35 342.26,-265.58 336.87,-220.41"/>
<polygon fill="black" stroke="black" points="343.33,-225.63 335.79,-218.19 337.04,-228.71 343.33,-225.63"/>
<text text-anchor="middle" x="396.5" y="-295.29" font-family="Times,serif" font-size="14.00">L3{}</text>
</g>
<!-- C2_1 -->
<g id="node4" class="node">
<title>C2_1</title>
<ellipse fill="white" stroke="black" cx="719" cy="-298.99" rx="33.6" ry="33.6"/>
<text text-anchor="middle" x="719" y="-295.29" font-family="Times,serif" font-size="14.00">C2_1</text>
</g>
<!-- C2_0&#45;&gt;C2_1 -->
<g id="edge8" class="edge">
<title>C2_0&#45;&gt;C2_1</title>
<path fill="none" stroke="black" d="M683.14,-391.41C679.29,-379.77 677.29,-366.65 681,-354.78 683.36,-347.25 687.16,-339.84 691.46,-333.02"/>
<polygon fill="black" stroke="black" points="694.37,-334.97 697.11,-324.74 688.58,-331.03 694.37,-334.97"/>
<text text-anchor="middle" x="689" y="-358.58" font-family="Times,serif" font-size="14.00">t5</text>
</g>
<!-- C2_0&#45;&gt;C2_1 -->
<g id="edge9" class="edge">
<title>C2_0&#45;&gt;C2_1</title>
<path fill="none" stroke="black" d="M705.6,-387.87C707.77,-373.64 710.27,-357.25 712.51,-342.51"/>
<polygon fill="black" stroke="black" points="715.98,-343.03 714.02,-332.62 709.06,-341.98 715.98,-343.03"/>
<text text-anchor="middle" x="722.5" y="-358.58" font-family="Times,serif" font-size="14.00">t12</text>
</g>
<!-- C3_0 -->
<g id="node5" class="node">
<title>C3_0</title>
<ellipse fill="white" stroke="black" cx="555" cy="-298.99" rx="33.62" ry="33.62"/>
<ellipse fill="none" stroke="black" cx="555" cy="-298.99" rx="37.6" ry="37.6"/>
<text text-anchor="middle" x="555" y="-295.29" font-family="Times,serif" font-size="14.00">C3_0</text>
</g>
<!-- C2_0&#45;&gt;C3_0 -->
<g id="edge20" class="edge">
<title>C2_0&#45;&gt;C3_0</title>
<path fill="none" stroke="black" d="M654,-385.06C641.58,-374.38 627.95,-362.67 614.88,-351.44"/>
<polygon fill="black" stroke="black" points="617,-348.64 607.13,-344.78 612.43,-353.95 617,-348.64"/>
<text text-anchor="middle" x="654.5" y="-358.58" font-family="Times,serif" font-size="14.00">L2{}</text>
</g>
<!-- C2_0&#45;&gt;C4_0 -->
<g id="edge26" class="edge">
<title>C2_0&#45;&gt;C4_0</title>
<path fill="none" stroke="black" d="M654,-422.38C554.96,-417.08 324.77,-401.64 254,-369.78 243.57,-365.09 233.52,-358.52 224.29,-351.29"/>
<polygon fill="black" stroke="black" points="226.35,-348.44 216.41,-344.78 221.89,-353.84 226.35,-348.44"/>
<text text-anchor="middle" x="272.5" y="-358.58" font-family="Times,serif" font-size="14.00">L9{}</text>
</g>
<!-- C2_1&#45;&gt;C2_0 -->
<g id="edge7" class="edge">
<title>C2_1&#45;&gt;C2_0</title>
<path fill="none" stroke="black" d="M738.36,-327.11C745.19,-340 750.06,-355.66 745,-369.78 742.32,-377.28 738.12,-384.49 733.34,-391.07"/>
<polygon fill="black" stroke="black" points="730.48,-389.03 727.04,-399.05 735.98,-393.37 730.48,-389.03"/>
<text text-anchor="middle" x="774.5" y="-358.58" font-family="Times,serif" font-size="14.00">t4O1R1</text>
</g>
<!-- C3_0&#45;&gt;C1_0 -->
<g id="edge19" class="edge">
<title>C3_0&#45;&gt;C1_0</title>
<path fill="none" stroke="black" d="M509,-272.05C483.92,-257.91 452.02,-239.93 422.34,-223.2"/>
<polygon fill="black" stroke="black" points="423.88,-220.05 413.45,-218.18 420.44,-226.14 423.88,-220.05"/>
<text text-anchor="middle" x="475.5" y="-231.99" font-family="Times,serif" font-size="14.00">L1{}</text>
</g>
<!-- C3_1 -->
<g id="node6" class="node">
<title>C3_1</title>
<ellipse fill="white" stroke="black" cx="570" cy="-172.39" rx="33.6" ry="33.6"/>
<text text-anchor="middle" x="570" y="-168.69" font-family="Times,serif" font-size="14.00">C3_1</text>
</g>
<!-- C3_0&#45;&gt;C3_1 -->
<g id="edge11" class="edge">
<title>C3_0&#45;&gt;C3_1</title>
<path fill="none" stroke="black" d="M538.48,-264.92C534.66,-253.29 532.59,-240.14 536,-228.19 537.92,-221.46 540.92,-214.75 544.38,-208.46"/>
<polygon fill="black" stroke="black" points="547.56,-209.95 549.67,-199.57 541.55,-206.37 547.56,-209.95"/>
<text text-anchor="middle" x="544" y="-231.99" font-family="Times,serif" font-size="14.00">t7</text>
</g>
<!-- C3_0&#45;&gt;C3_1 -->
<g id="edge13" class="edge">
<title>C3_0&#45;&gt;C3_1</title>
<path fill="none" stroke="black" d="M559.42,-261.28C561.12,-247.18 563.07,-230.97 564.83,-216.34"/>
<polygon fill="black" stroke="black" points="568.35,-216.37 566.07,-206.02 561.4,-215.53 568.35,-216.37"/>
<text text-anchor="middle" x="575.5" y="-231.99" font-family="Times,serif" font-size="14.00">t11</text>
</g>
<!-- C3_0&#45;&gt;C4_0 -->
<g id="edge27" class="edge">
<title>C3_0&#45;&gt;C4_0</title>
<path fill="none" stroke="black" d="M509,-332.32C491.69,-342.96 471.27,-353.37 451,-358.78 375.22,-379.01 286.37,-350.61 230.38,-326.45"/>
<polygon fill="black" stroke="black" points="231.56,-323.15 221,-322.31 228.74,-329.55 231.56,-323.15"/>
<text text-anchor="middle" x="428" y="-358.58" font-family="Times,serif" font-size="14.00">L10{}</text>
</g>
<!-- C3_1&#45;&gt;C3_0 -->
<g id="edge10" class="edge">
<title>C3_1&#45;&gt;C3_0</title>
<path fill="none" stroke="black" d="M590.92,-198.94C599.08,-212.02 605.33,-228.29 600,-243.19 597.32,-250.69 593.12,-257.89 588.34,-264.48"/>
<polygon fill="black" stroke="black" points="585.48,-262.44 582.04,-272.46 590.98,-266.77 585.48,-262.44"/>
<text text-anchor="middle" x="609" y="-231.99" font-family="Times,serif" font-size="14.00">t6</text>
</g>
<!-- C3_1&#45;&gt;C3_1 -->
<g id="edge12" class="edge">
<title>C3_1&#45;&gt;C3_1</title>
<path fill="none" stroke="black" d="M601.87,-184.01C612.89,-184.14 621.8,-180.26 621.8,-172.39 621.8,-167.23 617.96,-163.78 612.21,-162.06"/>
<polygon fill="black" stroke="black" points="612.22,-158.53 601.87,-160.77 611.36,-165.48 612.22,-158.53"/>
<text text-anchor="middle" x="629.8" y="-168.69" font-family="Times,serif" font-size="14.00">t8</text>
</g>
<!-- C4_0&#45;&gt;C1_0 -->
<g id="edge22" class="edge">
<title>C4_0&#45;&gt;C1_0</title>
<path fill="none" stroke="black" d="M221,-280.05C241.03,-270.88 263.99,-258.42 282,-243.19 287.99,-238.12 293.69,-232.25 298.96,-226.09"/>
<polygon fill="black" stroke="black" points="301.8,-228.15 305.42,-218.19 296.38,-223.72 301.8,-228.15"/>
<text text-anchor="middle" x="313.5" y="-231.99" font-family="Times,serif" font-size="14.00">L5{}</text>
</g>
<!-- C4_0&#45;&gt;C2_0 -->
<g id="edge23" class="edge">
<title>C4_0&#45;&gt;C2_0</title>
<path fill="none" stroke="black" d="M221,-323.74C252.58,-339.09 295.87,-358.28 336,-369.78 446.44,-401.45 581.27,-415.66 651.77,-421.32"/>
<polygon fill="black" stroke="black" points="643.41,-422.02 654,-422.12 645.79,-415.43 643.41,-422.02"/>
<text text-anchor="middle" x="354.5" y="-358.58" font-family="Times,serif" font-size="14.00">L6{}</text>
</g>
<!-- C4_0&#45;&gt;C3_0 -->
<g id="edge24" class="edge">
<title>C4_0&#45;&gt;C3_0</title>
<path fill="none" stroke="black" d="M221,-313.89C297.08,-337.51 445.59,-378.87 494.5,-358.78 499.55,-356.71 504.41,-353.98 509.02,-350.84"/>
<polygon fill="black" stroke="black" points="511.18,-353.6 517.05,-344.78 506.96,-348.01 511.18,-353.6"/>
<text text-anchor="middle" x="476" y="-358.58" font-family="Times,serif" font-size="14.00">L7{}</text>
</g>
<!-- C4_1 -->
<g id="node8" class="node">
<title>C4_1</title>
<ellipse fill="white" stroke="black" cx="50" cy="-172.39" rx="33.6" ry="33.6"/>
<text text-anchor="middle" x="50" y="-168.69" font-family="Times,serif" font-size="14.00">C4_1</text>
</g>
<!-- C4_0&#45;&gt;C4_1 -->
<g id="edge14" class="edge">
<title>C4_0&#45;&gt;C4_1</title>
<path fill="none" stroke="black" d="M137.59,-293C107.72,-286.83 67.73,-273.18 48,-243.19 42.66,-235.07 40.86,-225.19 40.91,-215.45"/>
<polygon fill="black" stroke="black" points="44.4,-215.64 41.55,-205.43 37.42,-215.19 44.4,-215.64"/>
<text text-anchor="middle" x="56" y="-231.99" font-family="Times,serif" font-size="14.00">t9</text>
</g>
<!-- C4_0&#45;&gt;C4_1 -->
<g id="edge18" class="edge">
<title>C4_0&#45;&gt;C4_1</title>
<path fill="none" stroke="black" d="M140.11,-283.36C121.29,-274.07 98.75,-260.52 83,-243.19 75.41,-234.83 69.24,-224.42 64.38,-214.21"/>
<polygon fill="black" stroke="black" points="67.53,-212.68 60.28,-204.96 61.13,-215.52 67.53,-212.68"/>
<text text-anchor="middle" x="95.5" y="-231.99" font-family="Times,serif" font-size="14.00">t18</text>
</g>
<!-- C4_2 -->
<g id="node9" class="node">
<title>C4_2</title>
<ellipse fill="white" stroke="black" cx="179" cy="-172.39" rx="33.6" ry="33.6"/>
<text text-anchor="middle" x="179" y="-168.69" font-family="Times,serif" font-size="14.00">C4_2</text>
</g>
<!-- C4_0&#45;&gt;C4_2 -->
<g id="edge15" class="edge">
<title>C4_0&#45;&gt;C4_2</title>
<path fill="none" stroke="black" d="M176.19,-260.94C176.64,-246.97 177.15,-230.96 177.62,-216.49"/>
<polygon fill="black" stroke="black" points="181.12,-216.38 177.94,-206.27 174.13,-216.15 181.12,-216.38"/>
<text text-anchor="middle" x="189.5" y="-231.99" font-family="Times,serif" font-size="14.00">t10</text>
</g>
<!-- C4_1&#45;&gt;C4_0 -->
<g id="edge17" class="edge">
<title>C4_1&#45;&gt;C4_0</title>
<path fill="none" stroke="black" d="M75.62,-194.9C87.03,-204.76 100.46,-216.77 112,-228.19 122.84,-238.92 134.16,-251.11 144.17,-262.27"/>
<polygon fill="black" stroke="black" points="141.6,-264.66 150.86,-269.81 146.83,-260.01 141.6,-264.66"/>
<text text-anchor="middle" x="138.5" y="-231.99" font-family="Times,serif" font-size="14.00">t16</text>
</g>
<!-- C4_1&#45;&gt;C4_1 -->
<g id="edge16" class="edge">
<title>C4_1&#45;&gt;C4_1</title>
<path fill="none" stroke="black" d="M81.87,-184.01C92.89,-184.14 101.8,-180.26 101.8,-172.39 101.8,-167.23 97.96,-163.78 92.21,-162.06"/>
<polygon fill="black" stroke="black" points="92.22,-158.53 81.87,-160.77 91.36,-165.48 92.22,-158.53"/>
<text text-anchor="middle" x="114.3" y="-168.69" font-family="Times,serif" font-size="14.00">t14</text>
</g>
</g>
</svg>
