<?xml version="1.0" encoding="UTF-8" standalone="no"?>
<!DOCTYPE svg PUBLIC "-//W3C//DTD SVG 1.1//EN"
 "http://www.w3.org/Graphics/SVG/1.1/DTD/svg11.dtd">
<!-- Generated by graphviz version 2.43.0 (0)
 -->
<!-- Title: input/icp Pages: 1 -->
<svg width="816pt" height="495pt"
 viewBox="0.00 0.00 816.00 495.00" xmlns="http://www.w3.org/2000/svg" xmlns:xlink="http://www.w3.org/1999/xlink">
<g id="graph0" class="graph" transform="scale(1 1) rotate(0) translate(4 491)">
<title>input/icp</title>
<polygon fill="white" stroke="transparent" points="-4,4 -4,-491 812,-491 812,4 -4,4"/>
<g id="clust1" class="cluster">
<title>cluster0</title>
<path fill="#ffeeee" stroke="#ffeeee" d="M222,-8C222,-8 470,-8 470,-8 476,-8 482,-14 482,-20 482,-20 482,-189 482,-189 482,-195 476,-201 470,-201 470,-201 222,-201 222,-201 216,-201 210,-195 210,-189 210,-189 210,-20 210,-20 210,-14 216,-8 222,-8"/>
<text text-anchor="middle" x="346" y="-185.8" font-family="Times,serif" font-size="14.00">C1</text>
</g>
<g id="clust2" class="cluster">
<title>cluster1</title>
<path fill="#ffeeee" stroke="#ffeeee" d="M647,-238C647,-238 788,-238 788,-238 794,-238 800,-244 800,-250 800,-250 800,-467 800,-467 800,-473 794,-479 788,-479 788,-479 647,-479 647,-479 641,-479 635,-473 635,-467 635,-467 635,-250 635,-250 635,-244 641,-238 647,-238"/>
<text text-anchor="middle" x="717.5" y="-463.8" font-family="Times,serif" font-size="14.00">C2</text>
</g>
<g id="clust3" class="cluster">
<title>cluster2</title>
<path fill="#ffeeee" stroke="#ffeeee" d="M502,-99C502,-99 615,-99 615,-99 621,-99 627,-105 627,-111 627,-111 627,-328 627,-328 627,-334 621,-340 615,-340 615,-340 502,-340 502,-340 496,-340 490,-334 490,-328 490,-328 490,-111 490,-111 490,-105 496,-99 502,-99"/>
<text text-anchor="middle" x="558.5" y="-324.8" font-family="Times,serif" font-size="14.00">C3</text>
</g>
<g id="clust4" class="cluster">
<title>cluster3</title>
<path fill="#ffeeee" stroke="#ffeeee" d="M20,-99C20,-99 190,-99 190,-99 196,-99 202,-105 202,-111 202,-111 202,-328 202,-328 202,-334 196,-340 190,-340 190,-340 20,-340 20,-340 14,-340 8,-334 8,-328 8,-328 8,-111 8,-111 8,-105 14,-99 20,-99"/>
<text text-anchor="middle" x="105" y="-324.8" font-family="Times,serif" font-size="14.00">C4</text>
</g>
<!-- C0s0 -->
<g id="node1" class="node">
<title>C0s0</title>
<ellipse fill="white" stroke="black" cx="318" cy="-125" rx="18" ry="18"/>
<ellipse fill="none" stroke="black" cx="318" cy="-125" rx="22" ry="22"/>
<text text-anchor="middle" x="318" y="-121.3" font-family="Times,serif" font-size="14.00">0</text>
</g>
<!-- C0s1 -->
<g id="node2" class="node">
<title>C0s1</title>
<ellipse fill="white" stroke="black" cx="338" cy="-34" rx="18" ry="18"/>
<text text-anchor="middle" x="338" y="-30.3" font-family="Times,serif" font-size="14.00">1</text>
</g>
<!-- C0s0&#45;&gt;C0s1 -->
<g id="edge1" class="edge">
<title>C0s0&#45;&gt;C0s1</title>
<path fill="none" stroke="black" d="M296.65,-119.23C267.1,-111.6 219.26,-94.92 237,-70 253.33,-47.06 285.79,-39.02 309.52,-36.27"/>
<polygon fill="black" stroke="black" points="310.08,-39.74 319.72,-35.35 309.45,-32.76 310.08,-39.74"/>
<text text-anchor="middle" x="245" y="-73.8" font-family="Times,serif" font-size="14.00">t1</text>
</g>
<!-- C0s0&#45;&gt;C0s1 -->
<g id="edge2" class="edge">
<title>C0s0&#45;&gt;C0s1</title>
<path fill="none" stroke="black" d="M299.5,-113.04C284.3,-102.55 266.66,-86 276,-70 283.6,-56.99 298.02,-48.43 311.05,-43.04"/>
<polygon fill="black" stroke="black" points="312.43,-46.26 320.6,-39.51 310,-39.69 312.43,-46.26"/>
<text text-anchor="middle" x="284" y="-73.8" font-family="Times,serif" font-size="14.00">t2</text>
</g>
<!-- C0s0&#45;&gt;C0s1 -->
<g id="edge4" class="edge">
<title>C0s0&#45;&gt;C0s1</title>
<path fill="none" stroke="black" d="M313.59,-103.35C312.22,-93.13 311.8,-80.7 315,-70 316.35,-65.49 318.49,-61.02 320.93,-56.86"/>
<polygon fill="black" stroke="black" points="323.96,-58.63 326.57,-48.36 318.13,-54.76 323.96,-58.63"/>
<text text-anchor="middle" x="327.5" y="-73.8" font-family="Times,serif" font-size="14.00">t13</text>
</g>
<!-- C0s0&#45;&gt;C0s1 -->
<g id="edge5" class="edge">
<title>C0s0&#45;&gt;C0s1</title>
<path fill="none" stroke="black" d="M330.35,-106.58C334.24,-100.11 338.03,-92.52 340,-85 341.92,-77.69 342.3,-69.57 341.97,-62.04"/>
<polygon fill="black" stroke="black" points="345.45,-61.6 341.12,-51.93 338.47,-62.19 345.45,-61.6"/>
<text text-anchor="middle" x="354.5" y="-73.8" font-family="Times,serif" font-size="14.00">t15</text>
</g>
<!-- C0s0&#45;&gt;C0s1 -->
<g id="edge6" class="edge">
<title>C0s0&#45;&gt;C0s1</title>
<path fill="none" stroke="black" d="M337.93,-115.18C349.89,-108.71 364.09,-98.66 371,-85 376.78,-73.58 369.37,-61.58 360.12,-52.2"/>
<polygon fill="black" stroke="black" points="362.28,-49.43 352.52,-45.3 357.57,-54.61 362.28,-49.43"/>
<text text-anchor="middle" x="385.5" y="-73.8" font-family="Times,serif" font-size="14.00">t17</text>
</g>
<!-- C3s0 -->
<g id="node7" class="node">
<title>C3s0</title>
<ellipse fill="white" stroke="black" cx="172" cy="-264" rx="18" ry="18"/>
<ellipse fill="none" stroke="black" cx="172" cy="-264" rx="22" ry="22"/>
<text text-anchor="middle" x="172" y="-260.3" font-family="Times,serif" font-size="14.00">0</text>
</g>
<!-- C0s0&#45;&gt;C3s0 -->
<g id="edge25" class="edge">
<title>C0s0&#45;&gt;C3s0</title>
<path fill="none" stroke="black" d="M238.08,-201C228.08,-210.38 218.26,-219.59 209.37,-227.93"/>
<polygon fill="black" stroke="black" points="206.9,-225.46 202,-234.85 211.69,-230.56 206.9,-225.46"/>
<text text-anchor="middle" x="236.5" y="-212.8" font-family="Times,serif" font-size="14.00">L8</text>
</g>
<!-- C0s1&#45;&gt;C0s0 -->
<g id="edge3" class="edge">
<title>C0s1&#45;&gt;C0s0</title>
<path fill="none" stroke="black" d="M355.76,-37.02C389.54,-41.6 457.82,-54.81 436,-85 416.61,-111.83 378.09,-120.51 350.33,-123.15"/>
<polygon fill="black" stroke="black" points="349.99,-119.67 340.27,-123.9 350.51,-126.65 349.99,-119.67"/>
<text text-anchor="middle" x="448" y="-73.8" font-family="Times,serif" font-size="14.00">t3</text>
</g>
<!-- C1s0 -->
<g id="node3" class="node">
<title>C1s0</title>
<ellipse fill="white" stroke="black" cx="665" cy="-403" rx="18" ry="18"/>
<ellipse fill="none" stroke="black" cx="665" cy="-403" rx="22" ry="22"/>
<text text-anchor="middle" x="665" y="-399.3" font-family="Times,serif" font-size="14.00">0</text>
</g>
<!-- C1s0&#45;&gt;C0s0 -->
<g id="edge21" class="edge">
<title>C1s0&#45;&gt;C0s0</title>
<path fill="none" stroke="black" d="M635,-401.86C570.39,-400.94 420.91,-395.28 384,-363 341.09,-325.48 324.99,-262.68 319.4,-211.14"/>
<polygon fill="black" stroke="black" points="322.86,-210.61 318.41,-201 315.89,-211.29 322.86,-210.61"/>
<text text-anchor="middle" x="371.5" y="-260.3" font-family="Times,serif" font-size="14.00">L3</text>
</g>
<!-- C1s1 -->
<g id="node4" class="node">
<title>C1s1</title>
<ellipse fill="white" stroke="black" cx="700" cy="-264" rx="18" ry="18"/>
<text text-anchor="middle" x="700" y="-260.3" font-family="Times,serif" font-size="14.00">1</text>
</g>
<!-- C1s0&#45;&gt;C1s1 -->
<g id="edge8" class="edge">
<title>C1s0&#45;&gt;C1s1</title>
<path fill="none" stroke="black" d="M661.27,-381.28C660.09,-371.14 659.64,-358.83 662,-348 666.63,-326.77 677.2,-304.48 686.02,-288.35"/>
<polygon fill="black" stroke="black" points="689.08,-290.04 690.95,-279.61 682.98,-286.6 689.08,-290.04"/>
<text text-anchor="middle" x="670" y="-351.8" font-family="Times,serif" font-size="14.00">t5</text>
</g>
<!-- C1s0&#45;&gt;C1s1 -->
<g id="edge9" class="edge">
<title>C1s0&#45;&gt;C1s1</title>
<path fill="none" stroke="black" d="M672.14,-381.88C674.16,-375.85 676.28,-369.19 678,-363 684.65,-339.08 690.71,-311.44 694.78,-291.63"/>
<polygon fill="black" stroke="black" points="698.22,-292.27 696.77,-281.77 691.36,-290.88 698.22,-292.27"/>
<text text-anchor="middle" x="693.5" y="-351.8" font-family="Times,serif" font-size="14.00">t12</text>
</g>
<!-- C2s0 -->
<g id="node5" class="node">
<title>C2s0</title>
<ellipse fill="white" stroke="black" cx="520" cy="-264" rx="18" ry="18"/>
<ellipse fill="none" stroke="black" cx="520" cy="-264" rx="22" ry="22"/>
<text text-anchor="middle" x="520" y="-260.3" font-family="Times,serif" font-size="14.00">0</text>
</g>
<!-- C1s0&#45;&gt;C2s0 -->
<g id="edge20" class="edge">
<title>C1s0&#45;&gt;C2s0</title>
<path fill="none" stroke="black" d="M635,-373.66C626.57,-365.69 616.96,-356.61 606.96,-347.16"/>
<polygon fill="black" stroke="black" points="609.05,-344.32 599.38,-340 604.24,-349.41 609.05,-344.32"/>
<text text-anchor="middle" x="631.5" y="-351.8" font-family="Times,serif" font-size="14.00">L2</text>
</g>
<!-- C1s0&#45;&gt;C3s0 -->
<g id="edge26" class="edge">
<title>C1s0&#45;&gt;C3s0</title>
<path fill="none" stroke="black" d="M635,-401.65C554.21,-400.31 333.79,-393.85 269,-363 245.82,-351.96 225.04,-332.98 208.72,-314.64"/>
<polygon fill="black" stroke="black" points="211.18,-312.13 202,-306.84 205.88,-316.7 211.18,-312.13"/>
<text text-anchor="middle" x="278.5" y="-351.8" font-family="Times,serif" font-size="14.00">L9</text>
</g>
<!-- C1s1&#45;&gt;C1s0 -->
<g id="edge7" class="edge">
<title>C1s1&#45;&gt;C1s0</title>
<path fill="none" stroke="black" d="M709.96,-279.1C722.6,-298.87 741.05,-335.52 726,-363 719.28,-375.27 706.88,-384.24 695.01,-390.46"/>
<polygon fill="black" stroke="black" points="693.25,-387.42 685.72,-394.87 696.25,-393.74 693.25,-387.42"/>
<text text-anchor="middle" x="753" y="-351.8" font-family="Times,serif" font-size="14.00">t4O1a</text>
</g>
<!-- C2s0&#45;&gt;C0s0 -->
<g id="edge19" class="edge">
<title>C2s0&#45;&gt;C0s0</title>
<path fill="none" stroke="black" d="M490,-242.66C475.32,-232.7 456.6,-220 436.93,-206.66"/>
<polygon fill="black" stroke="black" points="438.82,-203.71 428.58,-201 434.89,-209.51 438.82,-203.71"/>
<text text-anchor="middle" x="469.5" y="-212.8" font-family="Times,serif" font-size="14.00">L1</text>
</g>
<!-- C2s1 -->
<g id="node6" class="node">
<title>C2s1</title>
<ellipse fill="white" stroke="black" cx="555" cy="-125" rx="18" ry="18"/>
<text text-anchor="middle" x="555" y="-121.3" font-family="Times,serif" font-size="14.00">1</text>
</g>
<!-- C2s0&#45;&gt;C2s1 -->
<g id="edge11" class="edge">
<title>C2s0&#45;&gt;C2s1</title>
<path fill="none" stroke="black" d="M516.27,-242.28C515.09,-232.14 514.64,-219.83 517,-209 521.63,-187.77 532.2,-165.48 541.02,-149.35"/>
<polygon fill="black" stroke="black" points="544.08,-151.04 545.95,-140.61 537.98,-147.6 544.08,-151.04"/>
<text text-anchor="middle" x="525" y="-212.8" font-family="Times,serif" font-size="14.00">t7</text>
</g>
<!-- C2s0&#45;&gt;C2s1 -->
<g id="edge13" class="edge">
<title>C2s0&#45;&gt;C2s1</title>
<path fill="none" stroke="black" d="M527.14,-242.88C529.16,-236.85 531.28,-230.19 533,-224 539.65,-200.08 545.71,-172.44 549.78,-152.63"/>
<polygon fill="black" stroke="black" points="553.22,-153.27 551.77,-142.77 546.36,-151.88 553.22,-153.27"/>
<text text-anchor="middle" x="548.5" y="-212.8" font-family="Times,serif" font-size="14.00">t11</text>
</g>
<!-- C2s0&#45;&gt;C3s0 -->
<g id="edge27" class="edge">
<title>C2s0&#45;&gt;C3s0</title>
<path fill="none" stroke="black" d="M490,-286.06C462.84,-304.57 420.93,-329.61 380,-340 319.27,-355.42 251.56,-320.4 210.37,-292.92"/>
<polygon fill="black" stroke="black" points="212.23,-289.95 202,-287.19 208.27,-295.72 212.23,-289.95"/>
<text text-anchor="middle" x="402" y="-351.8" font-family="Times,serif" font-size="14.00">L10</text>
</g>
<!-- C2s1&#45;&gt;C2s0 -->
<g id="edge10" class="edge">
<title>C2s1&#45;&gt;C2s0</title>
<path fill="none" stroke="black" d="M564.96,-140.1C577.6,-159.87 596.05,-196.52 581,-224 574.28,-236.27 561.88,-245.24 550.01,-251.46"/>
<polygon fill="black" stroke="black" points="548.25,-248.42 540.72,-255.87 551.25,-254.74 548.25,-248.42"/>
<text text-anchor="middle" x="594" y="-212.8" font-family="Times,serif" font-size="14.00">t6</text>
</g>
<!-- C2s1&#45;&gt;C2s1 -->
<g id="edge12" class="edge">
<title>C2s1&#45;&gt;C2s1</title>
<path fill="none" stroke="black" d="M571.29,-133.02C581.39,-134.95 591,-132.28 591,-125 591,-120.34 587.06,-117.57 581.57,-116.68"/>
<polygon fill="black" stroke="black" points="581.18,-113.19 571.29,-116.98 581.39,-120.19 581.18,-113.19"/>
<text text-anchor="middle" x="599" y="-121.3" font-family="Times,serif" font-size="14.00">t8</text>
</g>
<!-- C3s0&#45;&gt;C0s0 -->
<g id="edge22" class="edge">
<title>C3s0&#45;&gt;C0s0</title>
<path fill="none" stroke="black" d="M202,-253.84C219.21,-247.48 240.41,-237.69 256,-224 261.15,-219.47 266.03,-214.42 270.62,-209.05"/>
<polygon fill="black" stroke="black" points="273.57,-210.97 277.13,-201 268.12,-206.58 273.57,-210.97"/>
<text text-anchor="middle" x="278.5" y="-212.8" font-family="Times,serif" font-size="14.00">L5</text>
</g>
<!-- C3s0&#45;&gt;C1s0 -->
<g id="edge23" class="edge">
<title>C3s0&#45;&gt;C1s0</title>
<path fill="none" stroke="black" d="M202,-290.36C231.15,-313.47 277.69,-346.45 324,-363 380.56,-383.21 559.49,-395.78 633,-400.2"/>
<polygon fill="black" stroke="black" points="624.42,-401.31 635,-400.8 626.41,-394.6 624.42,-401.31"/>
<text text-anchor="middle" x="333.5" y="-351.8" font-family="Times,serif" font-size="14.00">L6</text>
</g>
<!-- C3s0&#45;&gt;C2s0 -->
<g id="edge24" class="edge">
<title>C3s0&#45;&gt;C2s0</title>
<path fill="none" stroke="black" d="M202,-287.19C241.89,-315.16 314.95,-356.52 380,-340 416.93,-330.62 454.67,-309.32 481.64,-291.65"/>
<polygon fill="black" stroke="black" points="483.63,-294.53 490,-286.06 479.74,-288.71 483.63,-294.53"/>
<text text-anchor="middle" x="439" y="-351.8" font-family="Times,serif" font-size="14.00">L7</text>
</g>
<!-- C3s1 -->
<g id="node8" class="node">
<title>C3s1</title>
<ellipse fill="white" stroke="black" cx="72" cy="-125" rx="18" ry="18"/>
<text text-anchor="middle" x="72" y="-121.3" font-family="Times,serif" font-size="14.00">1</text>
</g>
<!-- C3s0&#45;&gt;C3s1 -->
<g id="edge14" class="edge">
<title>C3s0&#45;&gt;C3s1</title>
<path fill="none" stroke="black" d="M150.26,-260.01C115.26,-254.69 48.9,-242.4 35,-224 17.2,-200.42 36.89,-167.31 53.65,-146.26"/>
<polygon fill="black" stroke="black" points="56.36,-148.48 60.08,-138.56 50.98,-143.99 56.36,-148.48"/>
<text text-anchor="middle" x="43" y="-212.8" font-family="Times,serif" font-size="14.00">t9</text>
</g>
<!-- C3s0&#45;&gt;C3s1 -->
<g id="edge18" class="edge">
<title>C3s0&#45;&gt;C3s1</title>
<path fill="none" stroke="black" d="M151.08,-256.21C135.45,-250.12 114.68,-239.69 102,-224 85.54,-203.64 78.09,-174.31 74.73,-153.05"/>
<polygon fill="black" stroke="black" points="78.19,-152.47 73.36,-143.04 71.25,-153.43 78.19,-152.47"/>
<text text-anchor="middle" x="114.5" y="-212.8" font-family="Times,serif" font-size="14.00">t18</text>
</g>
<!-- C3s2 -->
<g id="node9" class="node">
<title>C3s2</title>
<ellipse fill="white" stroke="black" cx="169" cy="-125" rx="18" ry="18"/>
<text text-anchor="middle" x="169" y="-121.3" font-family="Times,serif" font-size="14.00">2</text>
</g>
<!-- C3s0&#45;&gt;C3s2 -->
<g id="edge15" class="edge">
<title>C3s0&#45;&gt;C3s2</title>
<path fill="none" stroke="black" d="M171.54,-241.89C171.02,-218.12 170.17,-179.41 169.6,-153.34"/>
<polygon fill="black" stroke="black" points="173.09,-152.94 169.37,-143.02 166.09,-153.09 173.09,-152.94"/>
<text text-anchor="middle" x="183.5" y="-212.8" font-family="Times,serif" font-size="14.00">t10</text>
</g>
<!-- C3s1&#45;&gt;C3s0 -->
<g id="edge17" class="edge">
<title>C3s1&#45;&gt;C3s0</title>
<path fill="none" stroke="black" d="M81.8,-140.47C94.95,-159.76 119.18,-194.85 141,-224 144.5,-228.67 148.31,-233.59 152.02,-238.31"/>
<polygon fill="black" stroke="black" points="149.54,-240.82 158.51,-246.47 155.02,-236.46 149.54,-240.82"/>
<text text-anchor="middle" x="153.5" y="-212.8" font-family="Times,serif" font-size="14.00">t16</text>
</g>
<!-- C3s1&#45;&gt;C3s1 -->
<g id="edge16" class="edge">
<title>C3s1&#45;&gt;C3s1</title>
<path fill="none" stroke="black" d="M88.29,-133.02C98.39,-134.95 108,-132.28 108,-125 108,-120.34 104.06,-117.57 98.57,-116.68"/>
<polygon fill="black" stroke="black" points="98.18,-113.19 88.29,-116.98 98.39,-120.19 98.18,-113.19"/>
<text text-anchor="middle" x="120.5" y="-121.3" font-family="Times,serif" font-size="14.00">t14</text>
</g>
</g>
</svg>
