<?xml version="1.0" encoding="UTF-8" standalone="no"?>
<!DOCTYPE svg PUBLIC "-//W3C//DTD SVG 1.1//EN"
 "http://www.w3.org/Graphics/SVG/1.1/DTD/svg11.dtd">
<!-- Generated by graphviz version 2.43.0 (0)
 -->
<!-- Title: input/r Pages: 1 -->
<svg width="297pt" height="361pt"
 viewBox="0.00 0.00 297.00 360.78" xmlns="http://www.w3.org/2000/svg" xmlns:xlink="http://www.w3.org/1999/xlink">
<g id="graph0" class="graph" transform="scale(1 1) rotate(0) translate(4 356.78)">
<title>input/r</title>
<polygon fill="white" stroke="transparent" points="-4,4 -4,-356.78 293,-356.78 293,4 -4,4"/>
<g id="clust1" class="cluster">
<title>cluster1</title>
<path fill="#ffeeee" stroke="#ffeeee" d="M20,-130.59C20,-130.59 104,-130.59 104,-130.59 110,-130.59 116,-136.59 116,-142.59 116,-142.59 116,-332.78 116,-332.78 116,-338.78 110,-344.78 104,-344.78 104,-344.78 20,-344.78 20,-344.78 14,-344.78 8,-338.78 8,-332.78 8,-332.78 8,-142.59 8,-142.59 8,-136.59 14,-130.59 20,-130.59"/>
</g>
<g id="clust2" class="cluster">
<title>cluster2</title>
<path fill="#ffeeee" stroke="#ffeeee" d="M146,-8C146,-8 269,-8 269,-8 275,-8 281,-14 281,-20 281,-20 281,-206.19 281,-206.19 281,-212.19 275,-218.19 269,-218.19 269,-218.19 146,-218.19 146,-218.19 140,-218.19 134,-212.19 134,-206.19 134,-206.19 134,-20 134,-20 134,-14 140,-8 146,-8"/>
</g>
<!-- C1_0 -->
<g id="node1" class="node">
<title>C1_0</title>
<ellipse fill="white" stroke="black" cx="70" cy="-298.99" rx="33.62" ry="33.62"/>
<ellipse fill="none" stroke="black" cx="70" cy="-298.99" rx="37.6" ry="37.6"/>
<text text-anchor="middle" x="70" y="-295.29" font-family="Times,serif" font-size="14.00">C1_0</text>
</g>
<!-- C1_1 -->
<g id="node2" class="node">
<title>C1_1</title>
<ellipse fill="white" stroke="black" cx="62" cy="-172.39" rx="33.6" ry="33.6"/>
<text text-anchor="middle" x="62" y="-168.69" font-family="Times,serif" font-size="14.00">C1_1</text>
</g>
<!-- C1_0&#45;&gt;C1_1 -->
<g id="edge1" class="edge">
<title>C1_0&#45;&gt;C1_1</title>
<path fill="none" stroke="black" d="M47.07,-268.77C42.12,-260.89 37.6,-252.07 35,-243.19 31.76,-232.1 34.03,-220.29 38.37,-209.6"/>
<polygon fill="black" stroke="black" points="41.55,-211.07 42.64,-200.54 35.21,-208.09 41.55,-211.07"/>
<text text-anchor="middle" x="52.5" y="-231.99" font-family="Times,serif" font-size="14.00">t1R1</text>
</g>
<!-- C2_0 -->
<g id="node3" class="node">
<title>C2_0</title>
<ellipse fill="white" stroke="black" cx="185" cy="-172.39" rx="33.62" ry="33.62"/>
<ellipse fill="none" stroke="black" cx="185" cy="-172.39" rx="37.6" ry="37.6"/>
<text text-anchor="middle" x="185" y="-168.69" font-family="Times,serif" font-size="14.00">C2_0</text>
</g>
<!-- C1_0&#45;&gt;C2_0 -->
<g id="edge7" class="edge">
<title>C1_0&#45;&gt;C2_0</title>
<path fill="none" stroke="black" d="M116,-241.52C119.99,-236.95 124.03,-232.46 128,-228.19 128.86,-227.26 129.74,-226.33 130.62,-225.39"/>
<polygon fill="black" stroke="black" points="133.15,-227.81 137.57,-218.19 128.11,-222.95 133.15,-227.81"/>
<text text-anchor="middle" x="146.5" y="-231.99" font-family="Times,serif" font-size="14.00">L2{}</text>
</g>
<!-- C1_1&#45;&gt;C1_0 -->
<g id="edge2" class="edge">
<title>C1_1&#45;&gt;C1_0</title>
<path fill="none" stroke="black" d="M67.52,-205.76C68.55,-213.11 69.47,-220.9 70,-228.19 70.53,-235.5 70.81,-243.25 70.93,-250.83"/>
<polygon fill="black" stroke="black" points="67.43,-251.03 71,-261 74.43,-250.98 67.43,-251.03"/>
<text text-anchor="middle" x="79" y="-231.99" font-family="Times,serif" font-size="14.00">t2</text>
</g>
<!-- C2_0&#45;&gt;C1_0 -->
<g id="edge6" class="edge">
<title>C2_0&#45;&gt;C1_0</title>
<path fill="none" stroke="black" d="M180.56,-218.19C178.13,-227.08 174.48,-235.91 169,-243.19 157.8,-258.06 141.32,-269.44 125.01,-277.86"/>
<polygon fill="black" stroke="black" points="123.46,-274.72 116,-282.24 126.52,-281.02 123.46,-274.72"/>
<text text-anchor="middle" x="195.5" y="-231.99" font-family="Times,serif" font-size="14.00">L1{}</text>
</g>
<!-- C2_0&#45;&gt;C2_0 -->
<g id="edge4" class="edge">
<title>C2_0&#45;&gt;C2_0</title>
<path fill="none" stroke="black" d="M221.22,-184C232.21,-183.71 240.8,-179.84 240.8,-172.39 240.8,-167.5 237.1,-164.16 231.45,-162.35"/>
<polygon fill="black" stroke="black" points="231.64,-158.84 221.22,-160.78 230.58,-165.76 231.64,-158.84"/>
<text text-anchor="middle" x="248.8" y="-168.69" font-family="Times,serif" font-size="14.00">t4</text>
</g>
<!-- C2_1 -->
<g id="node4" class="node">
<title>C2_1</title>
<ellipse fill="white" stroke="black" cx="207" cy="-49.8" rx="33.6" ry="33.6"/>
<text text-anchor="middle" x="207" y="-46.1" font-family="Times,serif" font-size="14.00">C2_1</text>
</g>
<!-- C2_0&#45;&gt;C2_1 -->
<g id="edge5" class="edge">
<title>C2_0&#45;&gt;C2_1</title>
<path fill="none" stroke="black" d="M162.57,-141.81C155.88,-129.37 151.61,-114.76 157,-101.59 160.58,-92.85 166.48,-84.8 172.99,-77.81"/>
<polygon fill="black" stroke="black" points="175.57,-80.18 180.21,-70.66 170.64,-75.21 175.57,-80.18"/>
<text text-anchor="middle" x="184.5" y="-105.39" font-family="Times,serif" font-size="14.00">t5O1R3</text>
</g>
<!-- C2_1&#45;&gt;C2_0 -->
<g id="edge3" class="edge">
<title>C2_1&#45;&gt;C2_0</title>
<path fill="none" stroke="black" d="M216.34,-82.56C218.23,-93.46 218.88,-105.67 216,-116.59 214.68,-121.62 212.78,-126.67 210.56,-131.55"/>
<polygon fill="black" stroke="black" points="207.32,-130.2 205.97,-140.71 213.58,-133.34 207.32,-130.2"/>
<text text-anchor="middle" x="234.5" y="-105.39" font-family="Times,serif" font-size="14.00">t3R2</text>
</g>
</g>
</svg>
