<?xml version="1.0" encoding="UTF-8" standalone="no"?>
<!DOCTYPE svg PUBLIC "-//W3C//DTD SVG 1.1//EN"
 "http://www.w3.org/Graphics/SVG/1.1/DTD/svg11.dtd">
<!-- Generated by graphviz version 2.43.0 (0)
 -->
<!-- Title: input/r Pages: 1 -->
<svg width="263pt" height="310pt"
 viewBox="0.00 0.00 263.00 310.00" xmlns="http://www.w3.org/2000/svg" xmlns:xlink="http://www.w3.org/1999/xlink">
<g id="graph0" class="graph" transform="scale(1 1) rotate(0) translate(4 306)">
<title>input/r</title>
<polygon fill="white" stroke="transparent" points="-4,4 -4,-306 259,-306 259,4 -4,4"/>
<g id="clust1" class="cluster">
<title>cluster0</title>
<path fill="#ffeeee" stroke="#ffeeee" d="M20,-99C20,-99 93,-99 93,-99 99,-99 105,-105 105,-111 105,-111 105,-282 105,-282 105,-288 99,-294 93,-294 93,-294 20,-294 20,-294 14,-294 8,-288 8,-282 8,-282 8,-111 8,-111 8,-105 14,-99 20,-99"/>
<text text-anchor="middle" x="56.5" y="-278.8" font-family="Times,serif" font-size="14.00">C1</text>
</g>
<g id="clust2" class="cluster">
<title>cluster1</title>
<path fill="#ffeeee" stroke="#ffeeee" d="M134,-8C134,-8 235,-8 235,-8 241,-8 247,-14 247,-20 247,-20 247,-166 247,-166 247,-172 241,-178 235,-178 235,-178 134,-178 134,-178 128,-178 122,-172 122,-166 122,-166 122,-20 122,-20 122,-14 128,-8 134,-8"/>
<text text-anchor="middle" x="184.5" y="-162.8" font-family="Times,serif" font-size="14.00">C2</text>
</g>
<!-- C0s0 -->
<g id="node1" class="node">
<title>C0s0</title>
<ellipse fill="white" stroke="black" cx="75" cy="-241" rx="18" ry="18"/>
<ellipse fill="none" stroke="black" cx="75" cy="-241" rx="22" ry="22"/>
<text text-anchor="middle" x="75" y="-237.3" font-family="Times,serif" font-size="14.00">0</text>
</g>
<!-- C0s1 -->
<g id="node2" class="node">
<title>C0s1</title>
<ellipse fill="white" stroke="black" cx="56" cy="-125" rx="18" ry="18"/>
<text text-anchor="middle" x="56" y="-121.3" font-family="Times,serif" font-size="14.00">1</text>
</g>
<!-- C0s0&#45;&gt;C0s1 -->
<g id="edge1" class="edge">
<title>C0s0&#45;&gt;C0s1</title>
<path fill="none" stroke="black" d="M56.96,-227.75C48.59,-220.96 39.52,-211.72 35,-201 27.98,-184.34 34.02,-164.62 41.39,-149.59"/>
<polygon fill="black" stroke="black" points="44.65,-150.93 46.31,-140.46 38.49,-147.61 44.65,-150.93"/>
<text text-anchor="middle" x="47" y="-189.8" font-family="Times,serif" font-size="14.00">t1a</text>
</g>
<!-- C1s0 -->
<g id="node3" class="node">
<title>C1s0</title>
<ellipse fill="white" stroke="black" cx="157" cy="-125" rx="18" ry="18"/>
<ellipse fill="none" stroke="black" cx="157" cy="-125" rx="22" ry="22"/>
<text text-anchor="middle" x="157" y="-121.3" font-family="Times,serif" font-size="14.00">0</text>
</g>
<!-- C0s0&#45;&gt;C1s0 -->
<g id="edge7" class="edge">
<title>C0s0&#45;&gt;C1s0</title>
<path fill="none" stroke="black" d="M105,-198.29C108.56,-193.35 112.23,-188.24 115.91,-183.13"/>
<polygon fill="black" stroke="black" points="119,-184.82 122,-174.66 113.32,-180.73 119,-184.82"/>
<text text-anchor="middle" x="123.5" y="-189.8" font-family="Times,serif" font-size="14.00">L2</text>
</g>
<!-- C0s1&#45;&gt;C0s0 -->
<g id="edge2" class="edge">
<title>C0s1&#45;&gt;C0s0</title>
<path fill="none" stroke="black" d="M58.84,-143.06C61.74,-160.42 66.29,-187.73 69.82,-208.94"/>
<polygon fill="black" stroke="black" points="66.42,-209.8 71.52,-219.09 73.32,-208.65 66.42,-209.8"/>
<text text-anchor="middle" x="77" y="-189.8" font-family="Times,serif" font-size="14.00">t2</text>
</g>
<!-- C1s0&#45;&gt;C0s0 -->
<g id="edge6" class="edge">
<title>C1s0&#45;&gt;C0s0</title>
<path fill="none" stroke="black" d="M150.99,-178C148.47,-186.19 144.93,-194.19 140,-201 133.32,-210.23 123.72,-217.68 113.95,-223.49"/>
<polygon fill="black" stroke="black" points="112.1,-220.51 105,-228.38 115.45,-226.66 112.1,-220.51"/>
<text text-anchor="middle" x="157.5" y="-189.8" font-family="Times,serif" font-size="14.00">L1</text>
</g>
<!-- C1s0&#45;&gt;C1s0 -->
<g id="edge4" class="edge">
<title>C1s0&#45;&gt;C1s0</title>
<path fill="none" stroke="black" d="M177.58,-133.37C187.84,-134.53 197,-131.74 197,-125 197,-120.68 193.24,-117.99 187.84,-116.91"/>
<polygon fill="black" stroke="black" points="187.67,-113.41 177.58,-116.63 187.48,-120.4 187.67,-113.41"/>
<text text-anchor="middle" x="205" y="-121.3" font-family="Times,serif" font-size="14.00">t4</text>
</g>
<!-- C1s1 -->
<g id="node4" class="node">
<title>C1s1</title>
<ellipse fill="white" stroke="black" cx="181" cy="-34" rx="18" ry="18"/>
<text text-anchor="middle" x="181" y="-30.3" font-family="Times,serif" font-size="14.00">1</text>
</g>
<!-- C1s0&#45;&gt;C1s1 -->
<g id="edge5" class="edge">
<title>C1s0&#45;&gt;C1s1</title>
<path fill="none" stroke="black" d="M147.31,-105.24C143.17,-94.61 140.25,-81.24 145,-70 147.92,-63.09 152.94,-56.88 158.32,-51.67"/>
<polygon fill="black" stroke="black" points="160.99,-53.98 166.26,-44.79 156.41,-48.69 160.99,-53.98"/>
<text text-anchor="middle" x="166.5" y="-73.8" font-family="Times,serif" font-size="14.00">t5O1c</text>
</g>
<!-- C1s1&#45;&gt;C1s0 -->
<g id="edge3" class="edge">
<title>C1s1&#45;&gt;C1s0</title>
<path fill="none" stroke="black" d="M188.83,-50.22C192.95,-60.31 196.32,-73.71 192,-85 189.51,-91.51 185.37,-97.61 180.8,-102.97"/>
<polygon fill="black" stroke="black" points="178.25,-100.58 173.94,-110.25 183.34,-105.38 178.25,-100.58"/>
<text text-anchor="middle" x="206.5" y="-73.8" font-family="Times,serif" font-size="14.00">t3b</text>
</g>
</g>
</svg>
