<?xml version="1.0" encoding="UTF-8" standalone="no"?>
<!DOCTYPE svg PUBLIC "-//W3C//DTD SVG 1.1//EN"
 "http://www.w3.org/Graphics/SVG/1.1/DTD/svg11.dtd">
<!-- Generated by graphviz version 2.43.0 (0)
 -->
<!-- Title: input/r Pages: 1 -->
<svg width="265pt" height="361pt"
 viewBox="0.00 0.00 265.00 360.78" xmlns="http://www.w3.org/2000/svg" xmlns:xlink="http://www.w3.org/1999/xlink">
<g id="graph0" class="graph" transform="scale(1 1) rotate(0) translate(4 356.78)">
<title>input/r</title>
<polygon fill="white" stroke="transparent" points="-4,4 -4,-356.78 261,-356.78 261,4 -4,4"/>
<g id="clust1" class="cluster">
<title>cluster1</title>
<path fill="#ffeeee" stroke="#ffeeee" d="M20,-130.59C20,-130.59 93,-130.59 93,-130.59 99,-130.59 105,-136.59 105,-142.59 105,-142.59 105,-332.78 105,-332.78 105,-338.78 99,-344.78 93,-344.78 93,-344.78 20,-344.78 20,-344.78 14,-344.78 8,-338.78 8,-332.78 8,-332.78 8,-142.59 8,-142.59 8,-136.59 14,-130.59 20,-130.59"/>
</g>
<g id="clust2" class="cluster">
<title>cluster2</title>
<path fill="#ffeeee" stroke="#ffeeee" d="M135,-8C135,-8 237,-8 237,-8 243,-8 249,-14 249,-20 249,-20 249,-206.19 249,-206.19 249,-212.19 243,-218.19 237,-218.19 237,-218.19 135,-218.19 135,-218.19 129,-218.19 123,-212.19 123,-206.19 123,-206.19 123,-20 123,-20 123,-14 129,-8 135,-8"/>
</g>
<!-- C1_0 -->
<g id="node1" class="node">
<title>C1_0</title>
<ellipse fill="white" stroke="black" cx="59" cy="-298.99" rx="33.62" ry="33.62"/>
<ellipse fill="none" stroke="black" cx="59" cy="-298.99" rx="37.6" ry="37.6"/>
<text text-anchor="middle" x="59" y="-295.29" font-family="Times,serif" font-size="14.00">C1_0</text>
</g>
<!-- C1_1 -->
<g id="node2" class="node">
<title>C1_1</title>
<ellipse fill="white" stroke="black" cx="56" cy="-172.39" rx="33.6" ry="33.6"/>
<text text-anchor="middle" x="56" y="-168.69" font-family="Times,serif" font-size="14.00">C1_1</text>
</g>
<!-- C1_0&#45;&gt;C1_1 -->
<g id="edge1" class="edge">
<title>C1_0&#45;&gt;C1_1</title>
<path fill="none" stroke="black" d="M42,-265.1C39.1,-258.04 36.53,-250.51 35,-243.19 32.88,-233.06 34.26,-222.29 37.11,-212.31"/>
<polygon fill="black" stroke="black" points="40.49,-213.24 40.38,-202.65 33.86,-211 40.49,-213.24"/>
<text text-anchor="middle" x="47" y="-231.99" font-family="Times,serif" font-size="14.00">t1a</text>
</g>
<!-- C2_0 -->
<g id="node3" class="node">
<title>C2_0</title>
<ellipse fill="white" stroke="black" cx="169" cy="-172.39" rx="33.62" ry="33.62"/>
<ellipse fill="none" stroke="black" cx="169" cy="-172.39" rx="37.6" ry="37.6"/>
<text text-anchor="middle" x="169" y="-168.69" font-family="Times,serif" font-size="14.00">C2_0</text>
</g>
<!-- C1_0&#45;&gt;C2_0 -->
<g id="edge7" class="edge">
<title>C1_0&#45;&gt;C2_0</title>
<path fill="none" stroke="black" d="M105,-241.96C109.02,-237.27 113.06,-232.63 117,-228.19 117.73,-227.37 118.46,-226.54 119.21,-225.71"/>
<polygon fill="black" stroke="black" points="121.91,-227.94 126.04,-218.19 116.73,-223.24 121.91,-227.94"/>
<text text-anchor="middle" x="135.5" y="-231.99" font-family="Times,serif" font-size="14.00">L2{}</text>
</g>
<!-- C1_1&#45;&gt;C1_0 -->
<g id="edge2" class="edge">
<title>C1_1&#45;&gt;C1_0</title>
<path fill="none" stroke="black" d="M58.1,-206.41C58.48,-213.59 58.81,-221.14 59,-228.19 59.2,-235.52 59.31,-243.28 59.35,-250.86"/>
<polygon fill="black" stroke="black" points="55.85,-251.04 59.38,-261.03 62.85,-251.02 55.85,-251.04"/>
<text text-anchor="middle" x="68" y="-231.99" font-family="Times,serif" font-size="14.00">t2</text>
</g>
<!-- C2_0&#45;&gt;C1_0 -->
<g id="edge6" class="edge">
<title>C2_0&#45;&gt;C1_0</title>
<path fill="none" stroke="black" d="M168.04,-218.19C166.23,-227.05 163.13,-235.86 158,-243.19 147.21,-258.6 130.65,-270.14 114.13,-278.56"/>
<polygon fill="black" stroke="black" points="112.51,-275.46 105,-282.92 115.53,-281.77 112.51,-275.46"/>
<text text-anchor="middle" x="183.5" y="-231.99" font-family="Times,serif" font-size="14.00">L1{}</text>
</g>
<!-- C2_0&#45;&gt;C2_0 -->
<g id="edge4" class="edge">
<title>C2_0&#45;&gt;C2_0</title>
<path fill="none" stroke="black" d="M205.22,-184C216.21,-183.71 224.8,-179.84 224.8,-172.39 224.8,-167.5 221.1,-164.16 215.45,-162.35"/>
<polygon fill="black" stroke="black" points="215.64,-158.84 205.22,-160.78 214.58,-165.76 215.64,-158.84"/>
<text text-anchor="middle" x="232.8" y="-168.69" font-family="Times,serif" font-size="14.00">t4</text>
</g>
<!-- C2_1 -->
<g id="node4" class="node">
<title>C2_1</title>
<ellipse fill="white" stroke="black" cx="186" cy="-49.8" rx="33.6" ry="33.6"/>
<text text-anchor="middle" x="186" y="-46.1" font-family="Times,serif" font-size="14.00">C2_1</text>
</g>
<!-- C2_0&#45;&gt;C2_1 -->
<g id="edge5" class="edge">
<title>C2_0&#45;&gt;C2_1</title>
<path fill="none" stroke="black" d="M149.56,-139.7C144.58,-127.74 141.7,-114.01 146,-101.59 148.32,-94.9 151.93,-88.41 156.05,-82.44"/>
<polygon fill="black" stroke="black" points="159.12,-84.19 162.37,-74.1 153.54,-79.96 159.12,-84.19"/>
<text text-anchor="middle" x="167.5" y="-105.39" font-family="Times,serif" font-size="14.00">t5O1c</text>
</g>
<!-- C2_1&#45;&gt;C2_0 -->
<g id="edge3" class="edge">
<title>C2_1&#45;&gt;C2_0</title>
<path fill="none" stroke="black" d="M193.39,-82.79C194.83,-93.6 195.28,-105.69 193,-116.59 192.14,-120.71 190.95,-124.9 189.56,-129.03"/>
<polygon fill="black" stroke="black" points="186.24,-127.91 186,-138.5 192.79,-130.37 186.24,-127.91"/>
<text text-anchor="middle" x="206.5" y="-105.39" font-family="Times,serif" font-size="14.00">t3b</text>
</g>
</g>
</svg>
