<?xml version="1.0" encoding="UTF-8" standalone="no"?>
<!DOCTYPE svg PUBLIC "-//W3C//DTD SVG 1.1//EN"
 "http://www.w3.org/Graphics/SVG/1.1/DTD/svg11.dtd">
<!-- Generated by graphviz version 2.43.0 (0)
 -->
<!-- Title: EXPinput/r Pages: 1 -->
<svg width="851pt" height="529pt"
 viewBox="0.00 0.00 851.00 529.00" xmlns="http://www.w3.org/2000/svg" xmlns:xlink="http://www.w3.org/1999/xlink">
<g id="graph0" class="graph" transform="scale(1 1) rotate(0) translate(4 525)">
<title>EXPinput/r</title>
<polygon fill="white" stroke="transparent" points="-4,4 -4,-525 847,-525 847,4 -4,4"/>
<g id="clust1" class="cluster">
<title>cluster0</title>
<path fill="#eaffee" stroke="#eaffee" d="M377,-314C377,-314 465,-314 465,-314 471,-314 477,-320 477,-326 477,-326 477,-501 477,-501 477,-507 471,-513 465,-513 465,-513 377,-513 377,-513 371,-513 365,-507 365,-501 365,-501 365,-326 365,-326 365,-320 371,-314 377,-314"/>
<text text-anchor="middle" x="421" y="-497.8" font-family="Times,serif" font-size="14.00" fill="#b2ccbb">C0</text>
</g>
<g id="clust2" class="cluster">
<title>cluster1</title>
<path fill="#eaffee" stroke="#eaffee" d="M20,-8C20,-8 332,-8 332,-8 338,-8 344,-14 344,-20 344,-20 344,-269 344,-269 344,-275 338,-281 332,-281 332,-281 20,-281 20,-281 14,-281 8,-275 8,-269 8,-269 8,-20 8,-20 8,-14 14,-8 20,-8"/>
<text text-anchor="middle" x="176" y="-265.8" font-family="Times,serif" font-size="14.00" fill="#b2ccbb">C1</text>
</g>
<g id="clust3" class="cluster">
<title>cluster2</title>
<path fill="#eaffee" stroke="#eaffee" d="M640,-8C640,-8 823,-8 823,-8 829,-8 835,-14 835,-20 835,-20 835,-385 835,-385 835,-391 829,-397 823,-397 823,-397 640,-397 640,-397 634,-397 628,-391 628,-385 628,-385 628,-20 628,-20 628,-14 634,-8 640,-8"/>
<text text-anchor="middle" x="731.5" y="-381.8" font-family="Times,serif" font-size="14.00" fill="#b2ccbb">C2</text>
</g>
<!-- C0S0 -->
<g id="node1" class="node">
<title>C0S0</title>
<polygon fill="white" stroke="black" points="431,-452.54 431,-467.46 415.18,-478 392.82,-478 377,-467.46 377,-452.54 392.82,-442 415.18,-442 431,-452.54"/>
<polygon fill="none" stroke="black" points="435,-450.4 435,-469.6 416.39,-482 391.61,-482 373,-469.6 373,-450.4 391.61,-438 416.39,-438 435,-450.4"/>
<text text-anchor="middle" x="404" y="-456.3" font-family="Times,serif" font-size="14.00">0</text>
</g>
<!-- C0S0&#45;&gt;C0S0 -->
<g id="edge2" class="edge">
<title>C0S0&#45;&gt;C0S0</title>
<path fill="none" stroke="darkgray" d="M435.1,-468.62C445.09,-468.53 453,-465.66 453,-460 453,-456.46 449.91,-454.01 445.15,-452.65"/>
<polygon fill="darkgray" stroke="darkgray" points="445.46,-449.16 435.1,-451.38 444.58,-456.11 445.46,-449.16"/>
<text text-anchor="middle" x="461" y="-456.3" font-family="Times,serif" font-size="14.00" fill="darkgray">t4</text>
</g>
<!-- C0S1 -->
<g id="node2" class="node">
<title>C0S1</title>
<polygon fill="white" stroke="black" points="431,-336.54 431,-351.46 415.18,-362 392.82,-362 377,-351.46 377,-336.54 392.82,-326 415.18,-326 431,-336.54"/>
<polygon fill="none" stroke="black" points="435,-334.4 435,-353.6 416.39,-366 391.61,-366 373,-353.6 373,-334.4 391.61,-322 416.39,-322 435,-334.4"/>
<text text-anchor="middle" x="404" y="-340.3" font-family="Times,serif" font-size="14.00">1</text>
</g>
<!-- C0S0&#45;&gt;C0S1 -->
<g id="edge1" class="edge">
<title>C0S0&#45;&gt;C0S1</title>
<path fill="none" stroke="darkgray" d="M400.11,-437.61C399.24,-431.91 398.44,-425.74 398,-420 396.9,-405.61 397.87,-389.68 399.32,-376.21"/>
<polygon fill="darkgray" stroke="darkgray" points="402.83,-376.36 400.56,-366.01 395.88,-375.51 402.83,-376.36"/>
<text text-anchor="middle" x="410" y="-408.8" font-family="Times,serif" font-size="14.00" fill="darkgray">t1a</text>
</g>
<!-- C2S3 -->
<g id="node7" class="node">
<title>C2S3</title>
<polygon fill="white" stroke="black" points="707,-336.54 707,-351.46 691.18,-362 668.82,-362 653,-351.46 653,-336.54 668.82,-326 691.18,-326 707,-336.54"/>
<polygon fill="none" stroke="black" points="711,-334.4 711,-353.6 692.39,-366 667.61,-366 649,-353.6 649,-334.4 667.61,-322 692.39,-322 711,-334.4"/>
<text text-anchor="middle" x="680" y="-340.3" font-family="Times,serif" font-size="14.00">3</text>
</g>
<!-- C0S0&#45;&gt;C2S3 -->
<g id="edge21" class="edge">
<title>C0S0&#45;&gt;C2S3</title>
<path fill="none" stroke="black" stroke-dasharray="5,2" d="M431.22,-447.76C481,-427.2 586.75,-383.52 643,-360.28"/>
<polygon fill="black" stroke="black" points="652.58,-356.33 645.05,-364.3 647.96,-358.24 643.33,-360.14 643.33,-360.14 643.33,-360.14 647.96,-358.24 641.62,-355.99 652.58,-356.33 652.58,-356.33"/>
<text text-anchor="middle" x="561" y="-408.8" font-family="Times,serif" font-size="14.00">O1c aa*</text>
</g>
<!-- C0S1&#45;&gt;C0S0 -->
<g id="edge3" class="edge">
<title>C0S1&#45;&gt;C0S0</title>
<path fill="none" stroke="darkgray" d="M414.34,-366.29C420.34,-381.27 425.99,-401.82 422,-420 421.39,-422.8 420.55,-425.64 419.57,-428.44"/>
<polygon fill="darkgray" stroke="darkgray" points="416.32,-427.14 415.82,-437.72 422.81,-429.76 416.32,-427.14"/>
<text text-anchor="middle" x="431" y="-408.8" font-family="Times,serif" font-size="14.00" fill="darkgray">t2</text>
</g>
<!-- C0S1&#45;&gt;C0S1 -->
<g id="edge4" class="edge">
<title>C0S1&#45;&gt;C0S1</title>
<path fill="none" stroke="darkgray" d="M435.1,-352.62C445.09,-352.53 453,-349.66 453,-344 453,-340.46 449.91,-338.01 445.15,-336.65"/>
<polygon fill="darkgray" stroke="darkgray" points="445.46,-333.16 435.1,-335.38 444.58,-340.11 445.46,-333.16"/>
<text text-anchor="middle" x="461" y="-340.3" font-family="Times,serif" font-size="14.00" fill="darkgray">t4</text>
</g>
<!-- C1S2 -->
<g id="node3" class="node">
<title>C1S2</title>
<polygon fill="white" stroke="black" points="227,-220.54 227,-235.46 211.18,-246 188.82,-246 173,-235.46 173,-220.54 188.82,-210 211.18,-210 227,-220.54"/>
<polygon fill="none" stroke="black" points="231,-218.4 231,-237.6 212.39,-250 187.61,-250 169,-237.6 169,-218.4 187.61,-206 212.39,-206 231,-218.4"/>
<text text-anchor="middle" x="200" y="-224.3" font-family="Times,serif" font-size="14.00">2</text>
</g>
<!-- C0S1&#45;&gt;C1S2 -->
<g id="edge22" class="edge">
<title>C0S1&#45;&gt;C1S2</title>
<path fill="none" stroke="black" stroke-dasharray="5,2" d="M379.8,-329.48C343.3,-309.08 274.07,-270.39 232.98,-247.43"/>
<polygon fill="black" stroke="black" points="224.17,-242.51 235.1,-243.46 228.54,-244.95 232.9,-247.39 232.9,-247.39 232.9,-247.39 228.54,-244.95 230.71,-251.31 224.17,-242.51 224.17,-242.51"/>
<text text-anchor="middle" x="360" y="-292.8" font-family="Times,serif" font-size="14.00">O1c aa*</text>
</g>
<!-- C1S1 -->
<g id="node4" class="node">
<title>C1S1</title>
<polygon fill="white" stroke="black" points="253,-125.54 253,-140.46 237.18,-151 214.82,-151 199,-140.46 199,-125.54 214.82,-115 237.18,-115 253,-125.54"/>
<polygon fill="none" stroke="black" points="257,-123.4 257,-142.6 238.39,-155 213.61,-155 195,-142.6 195,-123.4 213.61,-111 238.39,-111 257,-123.4"/>
<text text-anchor="middle" x="226" y="-129.3" font-family="Times,serif" font-size="14.00">1</text>
</g>
<!-- C1S2&#45;&gt;C1S1 -->
<g id="edge6" class="edge">
<title>C1S2&#45;&gt;C1S1</title>
<path fill="none" stroke="darkgray" d="M231.18,-222.2C251.4,-217.3 276.26,-207.49 289,-188 299.29,-172.25 282.68,-158.51 263.94,-148.84"/>
<polygon fill="darkgray" stroke="darkgray" points="265.21,-145.56 254.68,-144.42 262.2,-151.88 265.21,-145.56"/>
<text text-anchor="middle" x="304.5" y="-176.8" font-family="Times,serif" font-size="14.00" fill="darkgray">t3b</text>
</g>
<!-- C1S3 -->
<g id="node6" class="node">
<title>C1S3</title>
<polygon fill="white" stroke="black" points="108,-125.54 108,-140.46 92.18,-151 69.82,-151 54,-140.46 54,-125.54 69.82,-115 92.18,-115 108,-125.54"/>
<polygon fill="none" stroke="black" points="112,-123.4 112,-142.6 93.39,-155 68.61,-155 50,-142.6 50,-123.4 68.61,-111 93.39,-111 112,-123.4"/>
<text text-anchor="middle" x="81" y="-129.3" font-family="Times,serif" font-size="14.00">3</text>
</g>
<!-- C1S2&#45;&gt;C1S3 -->
<g id="edge5" class="edge">
<title>C1S2&#45;&gt;C1S3</title>
<path fill="none" stroke="darkgray" d="M168.65,-223.43C144.83,-219.06 113.03,-209.39 94,-188 88.35,-181.65 85.05,-173.27 83.15,-165.01"/>
<polygon fill="darkgray" stroke="darkgray" points="86.6,-164.41 81.46,-155.14 79.7,-165.59 86.6,-164.41"/>
<text text-anchor="middle" x="102" y="-176.8" font-family="Times,serif" font-size="14.00" fill="darkgray">t2</text>
</g>
<!-- C1S1&#45;&gt;C1S2 -->
<g id="edge23" class="edge">
<title>C1S1&#45;&gt;C1S2</title>
<path fill="none" stroke="black" stroke-dasharray="5,2" d="M194.85,-135.78C169.26,-139.08 134.48,-148.19 117,-173 102.52,-193.56 131.68,-208.25 159.34,-217.07"/>
<polygon fill="black" stroke="black" points="168.98,-219.95 158.11,-221.4 164.19,-218.52 159.4,-217.09 159.4,-217.09 159.4,-217.09 164.19,-218.52 160.68,-212.78 168.98,-219.95 168.98,-219.95"/>
<text text-anchor="middle" x="201" y="-176.8" font-family="Times,serif" font-size="14.00">O1c (a*aba*a|(ab))|ba*a</text>
</g>
<!-- C1S1&#45;&gt;C1S1 -->
<g id="edge8" class="edge">
<title>C1S1&#45;&gt;C1S1</title>
<path fill="none" stroke="darkgray" d="M257.1,-141.62C267.09,-141.53 275,-138.66 275,-133 275,-129.46 271.91,-127.01 267.15,-125.65"/>
<polygon fill="darkgray" stroke="darkgray" points="267.46,-122.16 257.1,-124.38 266.58,-129.11 267.46,-122.16"/>
<text text-anchor="middle" x="283" y="-129.3" font-family="Times,serif" font-size="14.00" fill="darkgray">t4</text>
</g>
<!-- C1S0 -->
<g id="node5" class="node">
<title>C1S0</title>
<polygon fill="white" stroke="black" points="252,-30.54 252,-45.46 236.18,-56 213.82,-56 198,-45.46 198,-30.54 213.82,-20 236.18,-20 252,-30.54"/>
<polygon fill="none" stroke="black" points="256,-28.4 256,-47.6 237.39,-60 212.61,-60 194,-47.6 194,-28.4 212.61,-16 237.39,-16 256,-28.4"/>
<text text-anchor="middle" x="225" y="-34.3" font-family="Times,serif" font-size="14.00">0</text>
</g>
<!-- C1S1&#45;&gt;C1S0 -->
<g id="edge7" class="edge">
<title>C1S1&#45;&gt;C1S0</title>
<path fill="none" stroke="darkgray" d="M213.52,-110.78C210.84,-105.18 208.39,-99.02 207,-93 205.22,-85.3 206.31,-77.14 208.65,-69.56"/>
<polygon fill="darkgray" stroke="darkgray" points="212,-70.61 212.31,-60.02 205.46,-68.11 212,-70.61"/>
<text text-anchor="middle" x="215" y="-81.8" font-family="Times,serif" font-size="14.00" fill="darkgray">t2</text>
</g>
<!-- C1S0&#45;&gt;C1S1 -->
<g id="edge9" class="edge">
<title>C1S0&#45;&gt;C1S1</title>
<path fill="none" stroke="darkgray" d="M225.23,-60.02C225.35,-72.01 225.52,-87.28 225.66,-100.66"/>
<polygon fill="darkgray" stroke="darkgray" points="222.17,-100.94 225.77,-110.9 229.17,-100.86 222.17,-100.94"/>
<text text-anchor="middle" x="237" y="-81.8" font-family="Times,serif" font-size="14.00" fill="darkgray">t1a</text>
</g>
<!-- C1S0&#45;&gt;C1S0 -->
<g id="edge10" class="edge">
<title>C1S0&#45;&gt;C1S0</title>
<path fill="none" stroke="darkgray" d="M256.1,-46.62C266.09,-46.53 274,-43.66 274,-38 274,-34.46 270.91,-32.01 266.15,-30.65"/>
<polygon fill="darkgray" stroke="darkgray" points="266.46,-27.16 256.1,-29.38 265.58,-34.11 266.46,-27.16"/>
<text text-anchor="middle" x="282" y="-34.3" font-family="Times,serif" font-size="14.00" fill="darkgray">t4</text>
</g>
<!-- C1S0&#45;&gt;C2S3 -->
<g id="edge24" class="edge">
<title>C1S0&#45;&gt;C2S3</title>
<path fill="none" stroke="black" stroke-dasharray="5,2" d="M252.63,-50.11C302.31,-70.71 409.1,-117.77 490,-173 554.91,-217.32 621.19,-281.95 655.7,-317.39"/>
<polygon fill="black" stroke="black" points="662.98,-324.91 652.79,-320.85 659.5,-321.31 656.02,-317.72 656.02,-317.72 656.02,-317.72 659.5,-321.31 659.26,-314.59 662.98,-324.91 662.98,-324.91"/>
<text text-anchor="middle" x="568.5" y="-176.8" font-family="Times,serif" font-size="14.00">O1c (a*aba*)|ba*</text>
</g>
<!-- C1S3&#45;&gt;C1S2 -->
<g id="edge11" class="edge">
<title>C1S3&#45;&gt;C1S2</title>
<path fill="none" stroke="darkgray" d="M64.3,-152.21C56.21,-163.28 49.85,-177.3 58,-188 70.22,-204.03 121.26,-215.11 158.66,-221.25"/>
<polygon fill="darkgray" stroke="darkgray" points="158.38,-224.75 168.8,-222.86 159.47,-217.84 158.38,-224.75"/>
<text text-anchor="middle" x="70" y="-176.8" font-family="Times,serif" font-size="14.00" fill="darkgray">t1a</text>
</g>
<!-- C1S3&#45;&gt;C1S0 -->
<g id="edge12" class="edge">
<title>C1S3&#45;&gt;C1S0</title>
<path fill="none" stroke="darkgray" d="M103.5,-117.47C127.81,-101.77 166.7,-76.65 193.91,-59.08"/>
<polygon fill="darkgray" stroke="darkgray" points="196.16,-61.79 202.66,-53.43 192.36,-55.91 196.16,-61.79"/>
<text text-anchor="middle" x="173.5" y="-81.8" font-family="Times,serif" font-size="14.00" fill="darkgray">t3b</text>
</g>
<!-- C2S2 -->
<g id="node9" class="node">
<title>C2S2</title>
<polygon fill="white" stroke="black" points="694,-220.54 694,-235.46 678.18,-246 655.82,-246 640,-235.46 640,-220.54 655.82,-210 678.18,-210 694,-220.54"/>
<polygon fill="none" stroke="black" points="698,-218.4 698,-237.6 679.39,-250 654.61,-250 636,-237.6 636,-218.4 654.61,-206 679.39,-206 698,-218.4"/>
<text text-anchor="middle" x="667" y="-224.3" font-family="Times,serif" font-size="14.00">2</text>
</g>
<!-- C2S3&#45;&gt;C2S2 -->
<g id="edge13" class="edge">
<title>C2S3&#45;&gt;C2S2</title>
<path fill="none" stroke="darkgray" d="M677.59,-321.82C675.61,-304.47 672.78,-279.66 670.54,-260.05"/>
<polygon fill="darkgray" stroke="darkgray" points="674.01,-259.6 669.4,-250.06 667.06,-260.39 674.01,-259.6"/>
<text text-anchor="middle" x="687" y="-292.8" font-family="Times,serif" font-size="14.00" fill="darkgray">t1a</text>
</g>
<!-- C2S0 -->
<g id="node10" class="node">
<title>C2S0</title>
<polygon fill="white" stroke="black" points="763,-30.54 763,-45.46 747.18,-56 724.82,-56 709,-45.46 709,-30.54 724.82,-20 747.18,-20 763,-30.54"/>
<polygon fill="none" stroke="black" points="767,-28.4 767,-47.6 748.39,-60 723.61,-60 705,-47.6 705,-28.4 723.61,-16 748.39,-16 767,-28.4"/>
<text text-anchor="middle" x="736" y="-34.3" font-family="Times,serif" font-size="14.00">0</text>
</g>
<!-- C2S3&#45;&gt;C2S0 -->
<g id="edge14" class="edge">
<title>C2S3&#45;&gt;C2S0</title>
<path fill="none" stroke="darkgray" d="M693.87,-322.64C697.3,-316.83 700.67,-310.34 703,-304 718.05,-263.09 711.76,-249.33 707,-206 705.39,-191.31 695.1,-185.48 703,-173 712.99,-157.21 731.01,-170.79 741,-155 757.01,-129.7 752.76,-94.71 746.37,-69.79"/>
<polygon fill="darkgray" stroke="darkgray" points="749.72,-68.79 743.65,-60.11 742.98,-70.69 749.72,-68.79"/>
<text text-anchor="middle" x="715.5" y="-176.8" font-family="Times,serif" font-size="14.00" fill="darkgray">t3b</text>
</g>
<!-- C2S1 -->
<g id="node8" class="node">
<title>C2S1</title>
<polygon fill="white" stroke="black" points="694,-125.54 694,-140.46 678.18,-151 655.82,-151 640,-140.46 640,-125.54 655.82,-115 678.18,-115 694,-125.54"/>
<polygon fill="none" stroke="black" points="698,-123.4 698,-142.6 679.39,-155 654.61,-155 636,-142.6 636,-123.4 654.61,-111 679.39,-111 698,-123.4"/>
<text text-anchor="middle" x="667" y="-129.3" font-family="Times,serif" font-size="14.00">1</text>
</g>
<!-- C2S1&#45;&gt;C1S2 -->
<g id="edge26" class="edge">
<title>C2S1&#45;&gt;C1S2</title>
<path fill="none" stroke="black" stroke-dasharray="5,2" d="M635.6,-135.49C579.51,-138.71 458.73,-148.13 360,-173 341.99,-177.54 338.51,-181.82 321,-188 294.14,-197.49 263.61,-207.32 239.93,-214.74"/>
<polygon fill="black" stroke="black" points="230.24,-217.76 238.45,-210.49 235.01,-216.27 239.79,-214.79 239.79,-214.79 239.79,-214.79 235.01,-216.27 241.13,-219.08 230.24,-217.76 230.24,-217.76"/>
<text text-anchor="middle" x="425" y="-176.8" font-family="Times,serif" font-size="14.00">O1c a+ba*a|(a+b)</text>
</g>
<!-- C2S1&#45;&gt;C2S1 -->
<g id="edge16" class="edge">
<title>C2S1&#45;&gt;C2S1</title>
<path fill="none" stroke="darkgray" d="M698.1,-141.62C708.09,-141.53 716,-138.66 716,-133 716,-129.46 712.91,-127.01 708.15,-125.65"/>
<polygon fill="darkgray" stroke="darkgray" points="708.46,-122.16 698.1,-124.38 707.58,-129.11 708.46,-122.16"/>
<text text-anchor="middle" x="724" y="-129.3" font-family="Times,serif" font-size="14.00" fill="darkgray">t4</text>
</g>
<!-- C2S1&#45;&gt;C2S0 -->
<g id="edge15" class="edge">
<title>C2S1&#45;&gt;C2S0</title>
<path fill="none" stroke="darkgray" d="M668.06,-110.82C669.45,-100.22 672.49,-87.63 679,-78 684.68,-69.6 692.84,-62.49 701.21,-56.74"/>
<polygon fill="darkgray" stroke="darkgray" points="703.33,-59.54 709.91,-51.24 699.59,-53.62 703.33,-59.54"/>
<text text-anchor="middle" x="687" y="-81.8" font-family="Times,serif" font-size="14.00" fill="darkgray">t2</text>
</g>
<!-- C2S2&#45;&gt;C2S3 -->
<g id="edge17" class="edge">
<title>C2S2&#45;&gt;C2S3</title>
<path fill="none" stroke="darkgray" d="M657.69,-250.01C652.24,-265.23 647.43,-286.17 653,-304 654.27,-308.07 656.13,-312.08 658.29,-315.91"/>
<polygon fill="darkgray" stroke="darkgray" points="655.39,-317.87 663.74,-324.39 661.28,-314.09 655.39,-317.87"/>
<text text-anchor="middle" x="661" y="-292.8" font-family="Times,serif" font-size="14.00" fill="darkgray">t2</text>
</g>
<!-- C2S2&#45;&gt;C2S1 -->
<g id="edge18" class="edge">
<title>C2S2&#45;&gt;C2S1</title>
<path fill="none" stroke="darkgray" d="M658.59,-205.84C655.61,-195.93 653.36,-183.92 655,-173 655.4,-170.33 655.95,-167.6 656.59,-164.87"/>
<polygon fill="darkgray" stroke="darkgray" points="659.97,-165.76 659.23,-155.19 653.22,-163.92 659.97,-165.76"/>
<text text-anchor="middle" x="667.5" y="-176.8" font-family="Times,serif" font-size="14.00" fill="darkgray">t3b</text>
</g>
<!-- C2S0&#45;&gt;C2S3 -->
<g id="edge25" class="edge">
<title>C2S0&#45;&gt;C2S3</title>
<path fill="none" stroke="black" stroke-dasharray="5,2" d="M747.82,-60.28C750.37,-65.88 752.69,-72.03 754,-78 761.35,-111.45 756.4,-121.18 751,-155 740.16,-222.82 740.62,-242.52 710,-304 707.93,-308.16 705.39,-312.3 702.67,-316.26"/>
<polygon fill="black" stroke="black" points="696.54,-324.55 698.86,-313.83 699.51,-320.53 702.48,-316.51 702.48,-316.51 702.48,-316.51 699.51,-320.53 706.1,-319.19 696.54,-324.55 696.54,-324.55"/>
<text text-anchor="middle" x="786.5" y="-176.8" font-family="Times,serif" font-size="14.00">O1c a+ba*</text>
</g>
<!-- C2S0&#45;&gt;C2S1 -->
<g id="edge19" class="edge">
<title>C2S0&#45;&gt;C2S1</title>
<path fill="none" stroke="darkgray" d="M721.39,-58.69C711.6,-71.88 698.58,-89.44 687.73,-104.06"/>
<polygon fill="darkgray" stroke="darkgray" points="684.78,-102.16 681.63,-112.28 690.4,-106.33 684.78,-102.16"/>
<text text-anchor="middle" x="717" y="-81.8" font-family="Times,serif" font-size="14.00" fill="darkgray">t1a</text>
</g>
<!-- C2S0&#45;&gt;C2S0 -->
<g id="edge20" class="edge">
<title>C2S0&#45;&gt;C2S0</title>
<path fill="none" stroke="darkgray" d="M767.1,-46.62C777.09,-46.53 785,-43.66 785,-38 785,-34.46 781.91,-32.01 777.15,-30.65"/>
<polygon fill="darkgray" stroke="darkgray" points="777.46,-27.16 767.1,-29.38 776.58,-34.11 777.46,-27.16"/>
<text text-anchor="middle" x="793" y="-34.3" font-family="Times,serif" font-size="14.00" fill="darkgray">t4</text>
</g>
</g>
</svg>
