<?xml version="1.0" encoding="UTF-8" standalone="no"?>
<!DOCTYPE svg PUBLIC "-//W3C//DTD SVG 1.1//EN"
 "http://www.w3.org/Graphics/SVG/1.1/DTD/svg11.dtd">
<!-- Generated by graphviz version 2.43.0 (0)
 -->
<!-- Title: EXPinput/r Pages: 1 -->
<svg width="1363pt" height="513pt"
 viewBox="0.00 0.00 1363.00 513.00" xmlns="http://www.w3.org/2000/svg" xmlns:xlink="http://www.w3.org/1999/xlink">
<g id="graph0" class="graph" transform="scale(1 1) rotate(0) translate(4 509)">
<title>EXPinput/r</title>
<polygon fill="white" stroke="transparent" points="-4,4 -4,-509 1359,-509 1359,4 -4,4"/>
<g id="clust1" class="cluster">
<title>cluster0</title>
<path fill="#eaffee" stroke="#eaffee" d="M617,-306C617,-306 705,-306 705,-306 711,-306 717,-312 717,-318 717,-318 717,-485 717,-485 717,-491 711,-497 705,-497 705,-497 617,-497 617,-497 611,-497 605,-491 605,-485 605,-485 605,-318 605,-318 605,-312 611,-306 617,-306"/>
<text text-anchor="middle" x="661" y="-481.8" font-family="Times,serif" font-size="14.00" fill="#b2ccbb">C0</text>
</g>
<g id="clust2" class="cluster">
<title>cluster1</title>
<path fill="#eaffee" stroke="#eaffee" d="M20,-8C20,-8 521,-8 521,-8 527,-8 533,-14 533,-20 533,-20 533,-261 533,-261 533,-267 527,-273 521,-273 521,-273 20,-273 20,-273 14,-273 8,-267 8,-261 8,-261 8,-20 8,-20 8,-14 14,-8 20,-8"/>
<text text-anchor="middle" x="270.5" y="-257.8" font-family="Times,serif" font-size="14.00" fill="#b2ccbb">C1</text>
</g>
<g id="clust3" class="cluster">
<title>cluster2</title>
<path fill="#eaffee" stroke="#eaffee" d="M1049,-8C1049,-8 1335,-8 1335,-8 1341,-8 1347,-14 1347,-20 1347,-20 1347,-377 1347,-377 1347,-383 1341,-389 1335,-389 1335,-389 1049,-389 1049,-389 1043,-389 1037,-383 1037,-377 1037,-377 1037,-20 1037,-20 1037,-14 1043,-8 1049,-8"/>
<text text-anchor="middle" x="1192" y="-373.8" font-family="Times,serif" font-size="14.00" fill="#b2ccbb">C2</text>
</g>
<!-- C0S0 -->
<g id="node1" class="node">
<title>C0S0</title>
<polygon fill="white" stroke="black" points="675,-440.54 675,-455.46 659.18,-466 636.82,-466 621,-455.46 621,-440.54 636.82,-430 659.18,-430 675,-440.54"/>
<text text-anchor="middle" x="648" y="-444.3" font-family="Times,serif" font-size="14.00">0</text>
</g>
<!-- C0S0&#45;&gt;C0S0 -->
<g id="edge2" class="edge">
<title>C0S0&#45;&gt;C0S0</title>
<path fill="none" stroke="darkgray" d="M674.79,-455.86C684.78,-456.12 693,-453.5 693,-448 693,-444.56 689.79,-442.25 684.94,-441.07"/>
<polygon fill="darkgray" stroke="darkgray" points="685.07,-437.56 674.79,-440.14 684.44,-444.53 685.07,-437.56"/>
<text text-anchor="middle" x="701" y="-444.3" font-family="Times,serif" font-size="14.00" fill="darkgray">t4</text>
</g>
<!-- C0S1 -->
<g id="node2" class="node">
<title>C0S1</title>
<polygon fill="white" stroke="black" points="671,-328.54 671,-343.46 655.18,-354 632.82,-354 617,-343.46 617,-328.54 632.82,-318 655.18,-318 671,-328.54"/>
<polygon fill="none" stroke="black" points="675,-326.4 675,-345.6 656.39,-358 631.61,-358 613,-345.6 613,-326.4 631.61,-314 656.39,-314 675,-326.4"/>
<text text-anchor="middle" x="644" y="-332.3" font-family="Times,serif" font-size="14.00">1</text>
</g>
<!-- C0S0&#45;&gt;C0S1 -->
<g id="edge1" class="edge">
<title>C0S0&#45;&gt;C0S1</title>
<path fill="none" stroke="darkgray" d="M639.67,-429.95C637.36,-424.36 635.16,-418.04 634,-412 631.23,-397.61 632.77,-381.52 635.4,-367.94"/>
<polygon fill="darkgray" stroke="darkgray" points="638.83,-368.64 637.56,-358.12 631.99,-367.13 638.83,-368.64"/>
<text text-anchor="middle" x="651.5" y="-400.8" font-family="Times,serif" font-size="14.00" fill="darkgray">t1R1</text>
</g>
<!-- C2S3 -->
<g id="node7" class="node">
<title>C2S3</title>
<polygon fill="white" stroke="black" points="1116,-328.54 1116,-343.46 1100.18,-354 1077.82,-354 1062,-343.46 1062,-328.54 1077.82,-318 1100.18,-318 1116,-328.54"/>
<polygon fill="none" stroke="black" points="1120,-326.4 1120,-345.6 1101.39,-358 1076.61,-358 1058,-345.6 1058,-326.4 1076.61,-314 1101.39,-314 1120,-326.4"/>
<text text-anchor="middle" x="1089" y="-332.3" font-family="Times,serif" font-size="14.00">3</text>
</g>
<!-- C0S0&#45;&gt;C2S3 -->
<g id="edge21" class="edge">
<title>C0S0&#45;&gt;C2S3</title>
<path fill="none" stroke="black" stroke-dasharray="5,2" d="M674.92,-440.28C749.47,-421.69 958.95,-369.44 1048.05,-347.21"/>
<polygon fill="black" stroke="black" points="1057.81,-344.78 1049.19,-351.57 1052.95,-345.99 1048.1,-347.2 1048.1,-347.2 1048.1,-347.2 1052.95,-345.99 1047.01,-342.83 1057.81,-344.78 1057.81,-344.78"/>
<text text-anchor="middle" x="884" y="-400.8" font-family="Times,serif" font-size="14.00">O1R3 r1r1?</text>
</g>
<!-- C0S1&#45;&gt;C0S0 -->
<g id="edge3" class="edge">
<title>C0S1&#45;&gt;C0S0</title>
<path fill="none" stroke="darkgray" d="M657.73,-357.52C666.06,-372.49 674.17,-393.35 669,-412 668.11,-415.21 666.84,-418.42 665.36,-421.52"/>
<polygon fill="darkgray" stroke="darkgray" points="662.23,-419.96 660.45,-430.4 668.35,-423.35 662.23,-419.96"/>
<text text-anchor="middle" x="678" y="-400.8" font-family="Times,serif" font-size="14.00" fill="darkgray">t2</text>
</g>
<!-- C0S1&#45;&gt;C0S1 -->
<g id="edge4" class="edge">
<title>C0S1&#45;&gt;C0S1</title>
<path fill="none" stroke="darkgray" d="M675.1,-344.62C685.09,-344.53 693,-341.66 693,-336 693,-332.46 689.91,-330.01 685.15,-328.65"/>
<polygon fill="darkgray" stroke="darkgray" points="685.46,-325.16 675.1,-327.38 684.58,-332.11 685.46,-325.16"/>
<text text-anchor="middle" x="701" y="-332.3" font-family="Times,serif" font-size="14.00" fill="darkgray">t4</text>
</g>
<!-- C1S2 -->
<g id="node3" class="node">
<title>C1S2</title>
<polygon fill="white" stroke="black" points="304,-212.54 304,-227.46 288.18,-238 265.82,-238 250,-227.46 250,-212.54 265.82,-202 288.18,-202 304,-212.54"/>
<polygon fill="none" stroke="black" points="308,-210.4 308,-229.6 289.39,-242 264.61,-242 246,-229.6 246,-210.4 264.61,-198 289.39,-198 308,-210.4"/>
<text text-anchor="middle" x="277" y="-216.3" font-family="Times,serif" font-size="14.00">2</text>
</g>
<!-- C0S1&#45;&gt;C1S2 -->
<g id="edge22" class="edge">
<title>C0S1&#45;&gt;C1S2</title>
<path fill="none" stroke="black" stroke-dasharray="5,2" d="M613.97,-325.67C548.16,-305.23 391.21,-256.48 317.08,-233.45"/>
<polygon fill="black" stroke="black" points="307.19,-230.38 318.08,-229.05 311.97,-231.86 316.74,-233.34 316.74,-233.34 316.74,-233.34 311.97,-231.86 315.41,-237.64 307.19,-230.38 307.19,-230.38"/>
<text text-anchor="middle" x="559.5" y="-284.8" font-family="Times,serif" font-size="14.00">O1R3 r1r1?*</text>
</g>
<!-- C1S1 -->
<g id="node4" class="node">
<title>C1S1</title>
<polygon fill="white" stroke="black" points="417,-117.54 417,-132.46 401.18,-143 378.82,-143 363,-132.46 363,-117.54 378.82,-107 401.18,-107 417,-117.54"/>
<polygon fill="none" stroke="black" points="421,-115.4 421,-134.6 402.39,-147 377.61,-147 359,-134.6 359,-115.4 377.61,-103 402.39,-103 421,-115.4"/>
<text text-anchor="middle" x="390" y="-121.3" font-family="Times,serif" font-size="14.00">1</text>
</g>
<!-- C1S2&#45;&gt;C1S1 -->
<g id="edge6" class="edge">
<title>C1S2&#45;&gt;C1S1</title>
<path fill="none" stroke="darkgray" d="M308.36,-217.26C357.27,-213.82 448.2,-204.25 468,-180 482.94,-161.71 456.67,-146.96 430.67,-137.53"/>
<polygon fill="darkgray" stroke="darkgray" points="431.77,-134.21 421.18,-134.3 429.52,-140.84 431.77,-134.21"/>
<text text-anchor="middle" x="489.5" y="-168.8" font-family="Times,serif" font-size="14.00" fill="darkgray">t3R2</text>
</g>
<!-- C1S3 -->
<g id="node6" class="node">
<title>C1S3</title>
<polygon fill="white" stroke="black" points="119,-117.54 119,-132.46 103.18,-143 80.82,-143 65,-132.46 65,-117.54 80.82,-107 103.18,-107 119,-117.54"/>
<polygon fill="none" stroke="black" points="123,-115.4 123,-134.6 104.39,-147 79.61,-147 61,-134.6 61,-115.4 79.61,-103 104.39,-103 123,-115.4"/>
<text text-anchor="middle" x="92" y="-121.3" font-family="Times,serif" font-size="14.00">3</text>
</g>
<!-- C1S2&#45;&gt;C1S3 -->
<g id="edge5" class="edge">
<title>C1S2&#45;&gt;C1S3</title>
<path fill="none" stroke="darkgray" d="M245.92,-216.25C200.84,-211.6 120.54,-200.61 101,-180 95.19,-173.87 92.33,-165.49 91.07,-157.16"/>
<polygon fill="darkgray" stroke="darkgray" points="94.55,-156.85 90.24,-147.18 87.58,-157.43 94.55,-156.85"/>
<text text-anchor="middle" x="109" y="-168.8" font-family="Times,serif" font-size="14.00" fill="darkgray">t2</text>
</g>
<!-- C1S1&#45;&gt;C1S2 -->
<g id="edge23" class="edge">
<title>C1S1&#45;&gt;C1S2</title>
<path fill="none" stroke="black" stroke-dasharray="5,2" d="M358.9,-125.8C296.08,-126.12 157.5,-130.78 128,-165 95.93,-202.2 181.02,-213.77 235.48,-217.38"/>
<polygon fill="black" stroke="black" points="245.59,-217.98 235.34,-221.88 240.6,-217.68 235.61,-217.38 235.61,-217.38 235.61,-217.38 240.6,-217.68 235.87,-212.89 245.59,-217.98 245.59,-217.98"/>
<text text-anchor="middle" x="296" y="-168.8" font-family="Times,serif" font-size="14.00">O1R3 (r1*((r1r2)|r2r1?*r1)|(r1r2)|((r2r1?*r1)|r)</text>
</g>
<!-- C1S1&#45;&gt;C1S1 -->
<g id="edge8" class="edge">
<title>C1S1&#45;&gt;C1S1</title>
<path fill="none" stroke="darkgray" d="M421.1,-133.62C431.09,-133.53 439,-130.66 439,-125 439,-121.46 435.91,-119.01 431.15,-117.65"/>
<polygon fill="darkgray" stroke="darkgray" points="431.46,-114.16 421.1,-116.38 430.58,-121.11 431.46,-114.16"/>
<text text-anchor="middle" x="447" y="-121.3" font-family="Times,serif" font-size="14.00" fill="darkgray">t4</text>
</g>
<!-- C1S0 -->
<g id="node5" class="node">
<title>C1S0</title>
<polygon fill="white" stroke="black" points="405,-26.54 405,-41.46 389.18,-52 366.82,-52 351,-41.46 351,-26.54 366.82,-16 389.18,-16 405,-26.54"/>
<text text-anchor="middle" x="378" y="-30.3" font-family="Times,serif" font-size="14.00">0</text>
</g>
<!-- C1S1&#45;&gt;C1S0 -->
<g id="edge7" class="edge">
<title>C1S1&#45;&gt;C1S0</title>
<path fill="none" stroke="darkgray" d="M372.27,-106.05C367.32,-99.88 362.59,-92.6 360,-85 357.33,-77.14 358.76,-68.63 361.74,-60.89"/>
<polygon fill="darkgray" stroke="darkgray" points="365.01,-62.15 366.15,-51.61 358.69,-59.14 365.01,-62.15"/>
<text text-anchor="middle" x="368" y="-73.8" font-family="Times,serif" font-size="14.00" fill="darkgray">t2</text>
</g>
<!-- C1S0&#45;&gt;C1S1 -->
<g id="edge9" class="edge">
<title>C1S0&#45;&gt;C1S1</title>
<path fill="none" stroke="darkgray" d="M380.3,-52.07C381.86,-63.61 383.96,-79.18 385.81,-92.89"/>
<polygon fill="darkgray" stroke="darkgray" points="382.35,-93.47 387.16,-102.91 389.29,-92.53 382.35,-93.47"/>
<text text-anchor="middle" x="401.5" y="-73.8" font-family="Times,serif" font-size="14.00" fill="darkgray">t1R1</text>
</g>
<!-- C1S0&#45;&gt;C1S0 -->
<g id="edge10" class="edge">
<title>C1S0&#45;&gt;C1S0</title>
<path fill="none" stroke="darkgray" d="M404.79,-41.86C414.78,-42.12 423,-39.5 423,-34 423,-30.56 419.79,-28.25 414.94,-27.07"/>
<polygon fill="darkgray" stroke="darkgray" points="415.07,-23.56 404.79,-26.14 414.44,-30.53 415.07,-23.56"/>
<text text-anchor="middle" x="431" y="-30.3" font-family="Times,serif" font-size="14.00" fill="darkgray">t4</text>
</g>
<!-- C1S0&#45;&gt;C2S3 -->
<g id="edge24" class="edge">
<title>C1S0&#45;&gt;C2S3</title>
<path fill="none" stroke="black" stroke-dasharray="5,2" d="M405.38,-41.13C473.64,-56.9 656.19,-102.1 799,-165 898.97,-209.03 1007.78,-279.55 1059.06,-314.29"/>
<polygon fill="black" stroke="black" points="1067.37,-319.95 1056.57,-318.04 1063.24,-317.13 1059.11,-314.32 1059.11,-314.32 1059.11,-314.32 1063.24,-317.13 1061.64,-310.6 1067.37,-319.95 1067.37,-319.95"/>
<text text-anchor="middle" x="939.5" y="-168.8" font-family="Times,serif" font-size="14.00">O1R3 (r1*(r1r2)|r2r1?*)|(r2r1?</text>
</g>
<!-- C1S3&#45;&gt;C1S2 -->
<g id="edge11" class="edge">
<title>C1S3&#45;&gt;C1S2</title>
<path fill="none" stroke="darkgray" d="M70.35,-141.24C57.14,-152.38 44.62,-167.64 55,-180 77.62,-206.94 177.99,-215.28 235.72,-217.85"/>
<polygon fill="darkgray" stroke="darkgray" points="235.85,-221.36 245.98,-218.27 236.13,-214.37 235.85,-221.36"/>
<text text-anchor="middle" x="72.5" y="-168.8" font-family="Times,serif" font-size="14.00" fill="darkgray">t1R1</text>
</g>
<!-- C1S3&#45;&gt;C1S0 -->
<g id="edge12" class="edge">
<title>C1S3&#45;&gt;C1S0</title>
<path fill="none" stroke="darkgray" d="M122.07,-114.64C175.51,-98.01 286.72,-63.4 343.31,-45.79"/>
<polygon fill="darkgray" stroke="darkgray" points="344.38,-49.13 352.89,-42.81 342.3,-42.44 344.38,-49.13"/>
<text text-anchor="middle" x="277.5" y="-73.8" font-family="Times,serif" font-size="14.00" fill="darkgray">t3R2</text>
</g>
<!-- C2S2 -->
<g id="node9" class="node">
<title>C2S2</title>
<polygon fill="white" stroke="black" points="1103,-212.54 1103,-227.46 1087.18,-238 1064.82,-238 1049,-227.46 1049,-212.54 1064.82,-202 1087.18,-202 1103,-212.54"/>
<polygon fill="none" stroke="black" points="1107,-210.4 1107,-229.6 1088.39,-242 1063.61,-242 1045,-229.6 1045,-210.4 1063.61,-198 1088.39,-198 1107,-210.4"/>
<text text-anchor="middle" x="1076" y="-216.3" font-family="Times,serif" font-size="14.00">2</text>
</g>
<!-- C2S3&#45;&gt;C2S2 -->
<g id="edge13" class="edge">
<title>C2S3&#45;&gt;C2S2</title>
<path fill="none" stroke="darkgray" d="M1086.59,-313.82C1084.61,-296.47 1081.78,-271.66 1079.54,-252.05"/>
<polygon fill="darkgray" stroke="darkgray" points="1083.01,-251.6 1078.4,-242.06 1076.06,-252.39 1083.01,-251.6"/>
<text text-anchor="middle" x="1101.5" y="-284.8" font-family="Times,serif" font-size="14.00" fill="darkgray">t1R1</text>
</g>
<!-- C2S0 -->
<g id="node10" class="node">
<title>C2S0</title>
<polygon fill="white" stroke="black" points="1166,-26.54 1166,-41.46 1150.18,-52 1127.82,-52 1112,-41.46 1112,-26.54 1127.82,-16 1150.18,-16 1166,-26.54"/>
<text text-anchor="middle" x="1139" y="-30.3" font-family="Times,serif" font-size="14.00">0</text>
</g>
<!-- C2S3&#45;&gt;C2S0 -->
<g id="edge14" class="edge">
<title>C2S3&#45;&gt;C2S0</title>
<path fill="none" stroke="darkgray" d="M1108.34,-318.19C1114.2,-311.89 1119.91,-304.24 1123,-296 1133.21,-268.74 1108.05,-190.55 1122,-165 1129.09,-152.02 1142.7,-159.87 1150,-147 1164.84,-120.83 1157.85,-85.61 1149.92,-61.71"/>
<polygon fill="darkgray" stroke="darkgray" points="1153.18,-60.45 1146.52,-52.21 1146.59,-62.81 1153.18,-60.45"/>
<text text-anchor="middle" x="1139.5" y="-168.8" font-family="Times,serif" font-size="14.00" fill="darkgray">t3R2</text>
</g>
<!-- C2S1 -->
<g id="node8" class="node">
<title>C2S1</title>
<polygon fill="white" stroke="black" points="1103,-117.54 1103,-132.46 1087.18,-143 1064.82,-143 1049,-132.46 1049,-117.54 1064.82,-107 1087.18,-107 1103,-117.54"/>
<polygon fill="none" stroke="black" points="1107,-115.4 1107,-134.6 1088.39,-147 1063.61,-147 1045,-134.6 1045,-115.4 1063.61,-103 1088.39,-103 1107,-115.4"/>
<text text-anchor="middle" x="1076" y="-121.3" font-family="Times,serif" font-size="14.00">1</text>
</g>
<!-- C2S1&#45;&gt;C1S2 -->
<g id="edge26" class="edge">
<title>C2S1&#45;&gt;C1S2</title>
<path fill="none" stroke="black" stroke-dasharray="5,2" d="M1044.8,-127.07C946.53,-130.65 644.36,-143.18 549,-165 531.3,-169.05 528.5,-175.15 511,-180 444.77,-198.37 365.45,-209.36 318.25,-214.79"/>
<polygon fill="black" stroke="black" points="308.11,-215.93 317.55,-210.34 313.08,-215.37 318.05,-214.81 318.05,-214.81 318.05,-214.81 313.08,-215.37 318.55,-219.28 308.11,-215.93 308.11,-215.93"/>
<text text-anchor="middle" x="674" y="-168.8" font-family="Times,serif" font-size="14.00">O1R3 ((r1r1*r2)|r2r1?*r1)|(r1r1*r2</text>
</g>
<!-- C2S1&#45;&gt;C2S1 -->
<g id="edge16" class="edge">
<title>C2S1&#45;&gt;C2S1</title>
<path fill="none" stroke="darkgray" d="M1107.1,-133.62C1117.09,-133.53 1125,-130.66 1125,-125 1125,-121.46 1121.91,-119.01 1117.15,-117.65"/>
<polygon fill="darkgray" stroke="darkgray" points="1117.46,-114.16 1107.1,-116.38 1116.58,-121.11 1117.46,-114.16"/>
<text text-anchor="middle" x="1133" y="-121.3" font-family="Times,serif" font-size="14.00" fill="darkgray">t4</text>
</g>
<!-- C2S1&#45;&gt;C2S0 -->
<g id="edge15" class="edge">
<title>C2S1&#45;&gt;C2S0</title>
<path fill="none" stroke="darkgray" d="M1073.17,-102.85C1072.79,-92.26 1074.01,-79.67 1080,-70 1085.89,-60.49 1095.41,-53.24 1105.1,-47.88"/>
<polygon fill="darkgray" stroke="darkgray" points="1106.92,-50.88 1114.32,-43.31 1103.81,-44.61 1106.92,-50.88"/>
<text text-anchor="middle" x="1088" y="-73.8" font-family="Times,serif" font-size="14.00" fill="darkgray">t2</text>
</g>
<!-- C2S2&#45;&gt;C2S3 -->
<g id="edge17" class="edge">
<title>C2S2&#45;&gt;C2S3</title>
<path fill="none" stroke="darkgray" d="M1066.69,-242.01C1061.24,-257.23 1056.43,-278.17 1062,-296 1063.27,-300.07 1065.13,-304.08 1067.29,-307.91"/>
<polygon fill="darkgray" stroke="darkgray" points="1064.39,-309.87 1072.74,-316.39 1070.28,-306.09 1064.39,-309.87"/>
<text text-anchor="middle" x="1070" y="-284.8" font-family="Times,serif" font-size="14.00" fill="darkgray">t2</text>
</g>
<!-- C2S2&#45;&gt;C2S1 -->
<g id="edge18" class="edge">
<title>C2S2&#45;&gt;C2S1</title>
<path fill="none" stroke="darkgray" d="M1067.59,-197.84C1064.61,-187.93 1062.36,-175.92 1064,-165 1064.4,-162.33 1064.95,-159.6 1065.59,-156.87"/>
<polygon fill="darkgray" stroke="darkgray" points="1068.97,-157.76 1068.23,-147.19 1062.22,-155.92 1068.97,-157.76"/>
<text text-anchor="middle" x="1081.5" y="-168.8" font-family="Times,serif" font-size="14.00" fill="darkgray">t3R2</text>
</g>
<!-- C2S0&#45;&gt;C2S3 -->
<g id="edge25" class="edge">
<title>C2S0&#45;&gt;C2S3</title>
<path fill="none" stroke="black" stroke-dasharray="5,2" d="M1150.86,-51.67C1154.17,-57.23 1157.31,-63.64 1159,-70 1171.55,-117.26 1164.24,-131.64 1157,-180 1149.14,-232.45 1155.24,-249.91 1129,-296 1125.79,-301.64 1121.52,-307 1116.97,-311.84"/>
<polygon fill="black" stroke="black" points="1109.7,-318.97 1113.68,-308.76 1113.27,-315.47 1116.83,-311.97 1116.83,-311.97 1116.83,-311.97 1113.27,-315.47 1119.99,-315.18 1109.7,-318.97 1109.7,-318.97"/>
<text text-anchor="middle" x="1239" y="-168.8" font-family="Times,serif" font-size="14.00">O1R3 (r1r1*r2)|r2r1?*</text>
</g>
<!-- C2S0&#45;&gt;C2S1 -->
<g id="edge19" class="edge">
<title>C2S0&#45;&gt;C2S1</title>
<path fill="none" stroke="darkgray" d="M1127.09,-51.83C1118.43,-64.06 1106.5,-80.92 1096.34,-95.26"/>
<polygon fill="darkgray" stroke="darkgray" points="1093.22,-93.62 1090.3,-103.8 1098.93,-97.66 1093.22,-93.62"/>
<text text-anchor="middle" x="1130.5" y="-73.8" font-family="Times,serif" font-size="14.00" fill="darkgray">t1R1</text>
</g>
<!-- C2S0&#45;&gt;C2S0 -->
<g id="edge20" class="edge">
<title>C2S0&#45;&gt;C2S0</title>
<path fill="none" stroke="darkgray" d="M1165.79,-41.86C1175.78,-42.12 1184,-39.5 1184,-34 1184,-30.56 1180.79,-28.25 1175.94,-27.07"/>
<polygon fill="darkgray" stroke="darkgray" points="1176.07,-23.56 1165.79,-26.14 1175.44,-30.53 1176.07,-23.56"/>
<text text-anchor="middle" x="1192" y="-30.3" font-family="Times,serif" font-size="14.00" fill="darkgray">t4</text>
</g>
</g>
</svg>
