<?xml version="1.0" encoding="UTF-8" standalone="no"?>
<!DOCTYPE svg PUBLIC "-//W3C//DTD SVG 1.1//EN"
 "http://www.w3.org/Graphics/SVG/1.1/DTD/svg11.dtd">
<!-- Generated by graphviz version 2.43.0 (0)
 -->
<!-- Title: EXPinput/r Pages: 1 -->
<svg width="1376pt" height="529pt"
 viewBox="0.00 0.00 1376.00 529.00" xmlns="http://www.w3.org/2000/svg" xmlns:xlink="http://www.w3.org/1999/xlink">
<g id="graph0" class="graph" transform="scale(1 1) rotate(0) translate(4 525)">
<title>EXPinput/r</title>
<polygon fill="white" stroke="transparent" points="-4,4 -4,-525 1372,-525 1372,4 -4,4"/>
<g id="clust1" class="cluster">
<title>cluster0</title>
<path fill="#eaffee" stroke="#eaffee" d="M625,-314C625,-314 713,-314 713,-314 719,-314 725,-320 725,-326 725,-326 725,-501 725,-501 725,-507 719,-513 713,-513 713,-513 625,-513 625,-513 619,-513 613,-507 613,-501 613,-501 613,-326 613,-326 613,-320 619,-314 625,-314"/>
<text text-anchor="middle" x="669" y="-497.8" font-family="Times,serif" font-size="14.00" fill="#b2ccbb">C0</text>
</g>
<g id="clust2" class="cluster">
<title>cluster1</title>
<path fill="#eaffee" stroke="#eaffee" d="M20,-8C20,-8 526,-8 526,-8 532,-8 538,-14 538,-20 538,-20 538,-269 538,-269 538,-275 532,-281 526,-281 526,-281 20,-281 20,-281 14,-281 8,-275 8,-269 8,-269 8,-20 8,-20 8,-14 14,-8 20,-8"/>
<text text-anchor="middle" x="273" y="-265.8" font-family="Times,serif" font-size="14.00" fill="#b2ccbb">C1</text>
</g>
<g id="clust3" class="cluster">
<title>cluster2</title>
<path fill="#eaffee" stroke="#eaffee" d="M1062,-8C1062,-8 1348,-8 1348,-8 1354,-8 1360,-14 1360,-20 1360,-20 1360,-385 1360,-385 1360,-391 1354,-397 1348,-397 1348,-397 1062,-397 1062,-397 1056,-397 1050,-391 1050,-385 1050,-385 1050,-20 1050,-20 1050,-14 1056,-8 1062,-8"/>
<text text-anchor="middle" x="1205" y="-381.8" font-family="Times,serif" font-size="14.00" fill="#b2ccbb">C2</text>
</g>
<!-- C0S0 -->
<g id="node1" class="node">
<title>C0S0</title>
<polygon fill="white" stroke="black" points="679,-452.54 679,-467.46 663.18,-478 640.82,-478 625,-467.46 625,-452.54 640.82,-442 663.18,-442 679,-452.54"/>
<polygon fill="none" stroke="black" points="683,-450.4 683,-469.6 664.39,-482 639.61,-482 621,-469.6 621,-450.4 639.61,-438 664.39,-438 683,-450.4"/>
<text text-anchor="middle" x="652" y="-456.3" font-family="Times,serif" font-size="14.00">0</text>
</g>
<!-- C0S0&#45;&gt;C0S0 -->
<g id="edge2" class="edge">
<title>C0S0&#45;&gt;C0S0</title>
<path fill="none" stroke="darkgray" d="M683.1,-468.62C693.09,-468.53 701,-465.66 701,-460 701,-456.46 697.91,-454.01 693.15,-452.65"/>
<polygon fill="darkgray" stroke="darkgray" points="693.46,-449.16 683.1,-451.38 692.58,-456.11 693.46,-449.16"/>
<text text-anchor="middle" x="709" y="-456.3" font-family="Times,serif" font-size="14.00" fill="darkgray">t4</text>
</g>
<!-- C0S1 -->
<g id="node2" class="node">
<title>C0S1</title>
<polygon fill="white" stroke="black" points="679,-336.54 679,-351.46 663.18,-362 640.82,-362 625,-351.46 625,-336.54 640.82,-326 663.18,-326 679,-336.54"/>
<polygon fill="none" stroke="black" points="683,-334.4 683,-353.6 664.39,-366 639.61,-366 621,-353.6 621,-334.4 639.61,-322 664.39,-322 683,-334.4"/>
<text text-anchor="middle" x="652" y="-340.3" font-family="Times,serif" font-size="14.00">1</text>
</g>
<!-- C0S0&#45;&gt;C0S1 -->
<g id="edge1" class="edge">
<title>C0S0&#45;&gt;C0S1</title>
<path fill="none" stroke="darkgray" d="M645.52,-437.73C644.06,-432.03 642.73,-425.83 642,-420 640.18,-405.6 641.8,-389.67 644.22,-376.2"/>
<polygon fill="darkgray" stroke="darkgray" points="647.73,-376.5 646.28,-366 640.87,-375.11 647.73,-376.5"/>
<text text-anchor="middle" x="659.5" y="-408.8" font-family="Times,serif" font-size="14.00" fill="darkgray">t1R1</text>
</g>
<!-- C2S3 -->
<g id="node7" class="node">
<title>C2S3</title>
<polygon fill="white" stroke="black" points="1129,-336.54 1129,-351.46 1113.18,-362 1090.82,-362 1075,-351.46 1075,-336.54 1090.82,-326 1113.18,-326 1129,-336.54"/>
<polygon fill="none" stroke="black" points="1133,-334.4 1133,-353.6 1114.39,-366 1089.61,-366 1071,-353.6 1071,-334.4 1089.61,-322 1114.39,-322 1133,-334.4"/>
<text text-anchor="middle" x="1102" y="-340.3" font-family="Times,serif" font-size="14.00">3</text>
</g>
<!-- C0S0&#45;&gt;C2S3 -->
<g id="edge21" class="edge">
<title>C0S0&#45;&gt;C2S3</title>
<path fill="none" stroke="black" stroke-dasharray="5,2" d="M683.29,-451.07C762.74,-430.95 972.29,-377.86 1061.19,-355.34"/>
<polygon fill="black" stroke="black" points="1070.92,-352.87 1062.33,-359.69 1066.07,-354.1 1061.23,-355.33 1061.23,-355.33 1061.23,-355.33 1066.07,-354.1 1060.12,-350.97 1070.92,-352.87 1070.92,-352.87"/>
<text text-anchor="middle" x="908.5" y="-408.8" font-family="Times,serif" font-size="14.00">O1R3 r1r1?*</text>
</g>
<!-- C0S1&#45;&gt;C0S0 -->
<g id="edge3" class="edge">
<title>C0S1&#45;&gt;C0S0</title>
<path fill="none" stroke="darkgray" d="M665.72,-365.25C674.19,-380.27 682.48,-401.3 677,-420 675.89,-423.8 674.28,-427.58 672.4,-431.21"/>
<polygon fill="darkgray" stroke="darkgray" points="669.38,-429.44 667.34,-439.83 675.42,-432.98 669.38,-429.44"/>
<text text-anchor="middle" x="686" y="-408.8" font-family="Times,serif" font-size="14.00" fill="darkgray">t2</text>
</g>
<!-- C0S1&#45;&gt;C0S1 -->
<g id="edge4" class="edge">
<title>C0S1&#45;&gt;C0S1</title>
<path fill="none" stroke="darkgray" d="M683.1,-352.62C693.09,-352.53 701,-349.66 701,-344 701,-340.46 697.91,-338.01 693.15,-336.65"/>
<polygon fill="darkgray" stroke="darkgray" points="693.46,-333.16 683.1,-335.38 692.58,-340.11 693.46,-333.16"/>
<text text-anchor="middle" x="709" y="-340.3" font-family="Times,serif" font-size="14.00" fill="darkgray">t4</text>
</g>
<!-- C1S2 -->
<g id="node3" class="node">
<title>C1S2</title>
<polygon fill="white" stroke="black" points="306,-220.54 306,-235.46 290.18,-246 267.82,-246 252,-235.46 252,-220.54 267.82,-210 290.18,-210 306,-220.54"/>
<polygon fill="none" stroke="black" points="310,-218.4 310,-237.6 291.39,-250 266.61,-250 248,-237.6 248,-218.4 266.61,-206 291.39,-206 310,-218.4"/>
<text text-anchor="middle" x="279" y="-224.3" font-family="Times,serif" font-size="14.00">2</text>
</g>
<!-- C0S1&#45;&gt;C1S2 -->
<g id="edge22" class="edge">
<title>C0S1&#45;&gt;C1S2</title>
<path fill="none" stroke="black" stroke-dasharray="5,2" d="M621.79,-333.77C554.82,-313.3 393.87,-264.11 318.8,-241.17"/>
<polygon fill="black" stroke="black" points="309.23,-238.24 320.11,-236.86 314.01,-239.7 318.79,-241.16 318.79,-241.16 318.79,-241.16 314.01,-239.7 317.48,-245.47 309.23,-238.24 309.23,-238.24"/>
<text text-anchor="middle" x="565.5" y="-292.8" font-family="Times,serif" font-size="14.00">O1R3 r1r1?*</text>
</g>
<!-- C1S1 -->
<g id="node4" class="node">
<title>C1S1</title>
<polygon fill="white" stroke="black" points="421,-125.54 421,-140.46 405.18,-151 382.82,-151 367,-140.46 367,-125.54 382.82,-115 405.18,-115 421,-125.54"/>
<polygon fill="none" stroke="black" points="425,-123.4 425,-142.6 406.39,-155 381.61,-155 363,-142.6 363,-123.4 381.61,-111 406.39,-111 425,-123.4"/>
<text text-anchor="middle" x="394" y="-129.3" font-family="Times,serif" font-size="14.00">1</text>
</g>
<!-- C1S2&#45;&gt;C1S1 -->
<g id="edge6" class="edge">
<title>C1S2&#45;&gt;C1S1</title>
<path fill="none" stroke="darkgray" d="M310.04,-225.39C359.52,-222.11 452.76,-212.72 473,-188 488.19,-169.46 461.16,-154.66 434.68,-145.28"/>
<polygon fill="darkgray" stroke="darkgray" points="435.62,-141.91 425.03,-142.07 433.41,-148.55 435.62,-141.91"/>
<text text-anchor="middle" x="494.5" y="-176.8" font-family="Times,serif" font-size="14.00" fill="darkgray">t3R2</text>
</g>
<!-- C1S3 -->
<g id="node6" class="node">
<title>C1S3</title>
<polygon fill="white" stroke="black" points="119,-125.54 119,-140.46 103.18,-151 80.82,-151 65,-140.46 65,-125.54 80.82,-115 103.18,-115 119,-125.54"/>
<polygon fill="none" stroke="black" points="123,-123.4 123,-142.6 104.39,-155 79.61,-155 61,-142.6 61,-123.4 79.61,-111 104.39,-111 123,-123.4"/>
<text text-anchor="middle" x="92" y="-129.3" font-family="Times,serif" font-size="14.00">3</text>
</g>
<!-- C1S2&#45;&gt;C1S3 -->
<g id="edge5" class="edge">
<title>C1S2&#45;&gt;C1S3</title>
<path fill="none" stroke="darkgray" d="M247.95,-224.34C202.43,-219.77 120.84,-208.86 101,-188 95.18,-181.88 92.32,-173.5 91.06,-165.17"/>
<polygon fill="darkgray" stroke="darkgray" points="94.54,-164.86 90.23,-155.19 87.57,-165.44 94.54,-164.86"/>
<text text-anchor="middle" x="109" y="-176.8" font-family="Times,serif" font-size="14.00" fill="darkgray">t2</text>
</g>
<!-- C1S1&#45;&gt;C1S2 -->
<g id="edge23" class="edge">
<title>C1S1&#45;&gt;C1S2</title>
<path fill="none" stroke="black" stroke-dasharray="5,2" d="M362.92,-133.72C299.37,-133.87 158.06,-138.21 128,-173 95.42,-210.7 182.19,-222.08 237.36,-225.52"/>
<polygon fill="black" stroke="black" points="247.59,-226.09 237.36,-230.02 242.6,-225.81 237.61,-225.53 237.61,-225.53 237.61,-225.53 242.6,-225.81 237.86,-221.04 247.59,-226.09 247.59,-226.09"/>
<text text-anchor="middle" x="298.5" y="-176.8" font-family="Times,serif" font-size="14.00">O1R3 (r1*((r1r2)|rr1?*r1)|(r1r2))|((r2r1?*r1)|r2)</text>
</g>
<!-- C1S1&#45;&gt;C1S1 -->
<g id="edge8" class="edge">
<title>C1S1&#45;&gt;C1S1</title>
<path fill="none" stroke="darkgray" d="M425.1,-141.62C435.09,-141.53 443,-138.66 443,-133 443,-129.46 439.91,-127.01 435.15,-125.65"/>
<polygon fill="darkgray" stroke="darkgray" points="435.46,-122.16 425.1,-124.38 434.58,-129.11 435.46,-122.16"/>
<text text-anchor="middle" x="451" y="-129.3" font-family="Times,serif" font-size="14.00" fill="darkgray">t4</text>
</g>
<!-- C1S0 -->
<g id="node5" class="node">
<title>C1S0</title>
<polygon fill="white" stroke="black" points="409,-30.54 409,-45.46 393.18,-56 370.82,-56 355,-45.46 355,-30.54 370.82,-20 393.18,-20 409,-30.54"/>
<polygon fill="none" stroke="black" points="413,-28.4 413,-47.6 394.39,-60 369.61,-60 351,-47.6 351,-28.4 369.61,-16 394.39,-16 413,-28.4"/>
<text text-anchor="middle" x="382" y="-34.3" font-family="Times,serif" font-size="14.00">0</text>
</g>
<!-- C1S1&#45;&gt;C1S0 -->
<g id="edge7" class="edge">
<title>C1S1&#45;&gt;C1S0</title>
<path fill="none" stroke="darkgray" d="M376.27,-114.05C371.32,-107.88 366.59,-100.6 364,-93 361.36,-85.24 362.32,-76.83 364.83,-69.02"/>
<polygon fill="darkgray" stroke="darkgray" points="368.16,-70.12 368.67,-59.53 361.67,-67.49 368.16,-70.12"/>
<text text-anchor="middle" x="372" y="-81.8" font-family="Times,serif" font-size="14.00" fill="darkgray">t2</text>
</g>
<!-- C1S0&#45;&gt;C1S1 -->
<g id="edge9" class="edge">
<title>C1S0&#45;&gt;C1S1</title>
<path fill="none" stroke="darkgray" d="M384.71,-60.02C386.26,-72.01 388.23,-87.28 389.96,-100.66"/>
<polygon fill="darkgray" stroke="darkgray" points="386.53,-101.43 391.28,-110.9 393.47,-100.53 386.53,-101.43"/>
<text text-anchor="middle" x="405.5" y="-81.8" font-family="Times,serif" font-size="14.00" fill="darkgray">t1R1</text>
</g>
<!-- C1S0&#45;&gt;C1S0 -->
<g id="edge10" class="edge">
<title>C1S0&#45;&gt;C1S0</title>
<path fill="none" stroke="darkgray" d="M413.1,-46.62C423.09,-46.53 431,-43.66 431,-38 431,-34.46 427.91,-32.01 423.15,-30.65"/>
<polygon fill="darkgray" stroke="darkgray" points="423.46,-27.16 413.1,-29.38 422.58,-34.11 423.46,-27.16"/>
<text text-anchor="middle" x="439" y="-34.3" font-family="Times,serif" font-size="14.00" fill="darkgray">t4</text>
</g>
<!-- C1S0&#45;&gt;C2S3 -->
<g id="edge24" class="edge">
<title>C1S0&#45;&gt;C2S3</title>
<path fill="none" stroke="black" stroke-dasharray="5,2" d="M413.14,-46.24C484.81,-63.46 666.26,-110.12 809,-173 909.74,-217.37 1019.8,-287.74 1071.7,-322.36"/>
<polygon fill="black" stroke="black" points="1080.11,-328 1069.29,-326.17 1075.95,-325.22 1071.8,-322.43 1071.8,-322.43 1071.8,-322.43 1075.95,-325.22 1074.31,-318.7 1080.11,-328 1080.11,-328"/>
<text text-anchor="middle" x="952" y="-176.8" font-family="Times,serif" font-size="14.00">O1R3 (r1*(r1r2)|rr1?*)|(r2r1?*)</text>
</g>
<!-- C1S3&#45;&gt;C1S2 -->
<g id="edge11" class="edge">
<title>C1S3&#45;&gt;C1S2</title>
<path fill="none" stroke="darkgray" d="M70.34,-149.24C57.13,-160.39 44.61,-175.65 55,-188 77.84,-215.16 179.1,-223.41 237.36,-225.91"/>
<polygon fill="darkgray" stroke="darkgray" points="237.57,-229.42 247.7,-226.31 237.85,-222.43 237.57,-229.42"/>
<text text-anchor="middle" x="72.5" y="-176.8" font-family="Times,serif" font-size="14.00" fill="darkgray">t1R1</text>
</g>
<!-- C1S3&#45;&gt;C1S0 -->
<g id="edge12" class="edge">
<title>C1S3&#45;&gt;C1S0</title>
<path fill="none" stroke="darkgray" d="M121.67,-122.48C174.21,-105.64 283.6,-70.56 342.46,-51.68"/>
<polygon fill="darkgray" stroke="darkgray" points="343.7,-54.96 352.15,-48.57 341.56,-48.29 343.7,-54.96"/>
<text text-anchor="middle" x="271.5" y="-81.8" font-family="Times,serif" font-size="14.00" fill="darkgray">t3R2</text>
</g>
<!-- C2S2 -->
<g id="node9" class="node">
<title>C2S2</title>
<polygon fill="white" stroke="black" points="1116,-220.54 1116,-235.46 1100.18,-246 1077.82,-246 1062,-235.46 1062,-220.54 1077.82,-210 1100.18,-210 1116,-220.54"/>
<polygon fill="none" stroke="black" points="1120,-218.4 1120,-237.6 1101.39,-250 1076.61,-250 1058,-237.6 1058,-218.4 1076.61,-206 1101.39,-206 1120,-218.4"/>
<text text-anchor="middle" x="1089" y="-224.3" font-family="Times,serif" font-size="14.00">2</text>
</g>
<!-- C2S3&#45;&gt;C2S2 -->
<g id="edge13" class="edge">
<title>C2S3&#45;&gt;C2S2</title>
<path fill="none" stroke="darkgray" d="M1099.59,-321.82C1097.61,-304.47 1094.78,-279.66 1092.54,-260.05"/>
<polygon fill="darkgray" stroke="darkgray" points="1096.01,-259.6 1091.4,-250.06 1089.06,-260.39 1096.01,-259.6"/>
<text text-anchor="middle" x="1114.5" y="-292.8" font-family="Times,serif" font-size="14.00" fill="darkgray">t1R1</text>
</g>
<!-- C2S0 -->
<g id="node10" class="node">
<title>C2S0</title>
<polygon fill="white" stroke="black" points="1179,-30.54 1179,-45.46 1163.18,-56 1140.82,-56 1125,-45.46 1125,-30.54 1140.82,-20 1163.18,-20 1179,-30.54"/>
<polygon fill="none" stroke="black" points="1183,-28.4 1183,-47.6 1164.39,-60 1139.61,-60 1121,-47.6 1121,-28.4 1139.61,-16 1164.39,-16 1183,-28.4"/>
<text text-anchor="middle" x="1152" y="-34.3" font-family="Times,serif" font-size="14.00">0</text>
</g>
<!-- C2S3&#45;&gt;C2S0 -->
<g id="edge14" class="edge">
<title>C2S3&#45;&gt;C2S0</title>
<path fill="none" stroke="darkgray" d="M1121.34,-326.19C1127.2,-319.89 1132.91,-312.24 1136,-304 1146.21,-276.74 1121.05,-198.55 1135,-173 1142.09,-160.02 1155.91,-167.98 1163,-155 1177.31,-128.78 1171.46,-94.22 1163.93,-69.66"/>
<polygon fill="darkgray" stroke="darkgray" points="1167.24,-68.52 1160.78,-60.12 1160.6,-70.72 1167.24,-68.52"/>
<text text-anchor="middle" x="1152.5" y="-176.8" font-family="Times,serif" font-size="14.00" fill="darkgray">t3R2</text>
</g>
<!-- C2S1 -->
<g id="node8" class="node">
<title>C2S1</title>
<polygon fill="white" stroke="black" points="1116,-125.54 1116,-140.46 1100.18,-151 1077.82,-151 1062,-140.46 1062,-125.54 1077.82,-115 1100.18,-115 1116,-125.54"/>
<polygon fill="none" stroke="black" points="1120,-123.4 1120,-142.6 1101.39,-155 1076.61,-155 1058,-142.6 1058,-123.4 1076.61,-111 1101.39,-111 1120,-123.4"/>
<text text-anchor="middle" x="1089" y="-129.3" font-family="Times,serif" font-size="14.00">1</text>
</g>
<!-- C2S1&#45;&gt;C1S2 -->
<g id="edge26" class="edge">
<title>C2S1&#45;&gt;C1S2</title>
<path fill="none" stroke="black" stroke-dasharray="5,2" d="M1057.67,-135.04C958.29,-138.53 650.92,-150.88 554,-173 536.3,-177.04 533.5,-183.17 516,-188 448.6,-206.62 367.8,-217.58 320.08,-222.93"/>
<polygon fill="black" stroke="black" points="310.13,-224.01 319.58,-218.45 315.1,-223.47 320.07,-222.93 320.07,-222.93 320.07,-222.93 315.1,-223.47 320.56,-227.4 310.13,-224.01 310.13,-224.01"/>
<text text-anchor="middle" x="681.5" y="-176.8" font-family="Times,serif" font-size="14.00">O1R3 ((r1r1*r2)|r2r1?*r1)|(r1r1*r2)</text>
</g>
<!-- C2S1&#45;&gt;C2S1 -->
<g id="edge16" class="edge">
<title>C2S1&#45;&gt;C2S1</title>
<path fill="none" stroke="darkgray" d="M1120.1,-141.62C1130.09,-141.53 1138,-138.66 1138,-133 1138,-129.46 1134.91,-127.01 1130.15,-125.65"/>
<polygon fill="darkgray" stroke="darkgray" points="1130.46,-122.16 1120.1,-124.38 1129.58,-129.11 1130.46,-122.16"/>
<text text-anchor="middle" x="1146" y="-129.3" font-family="Times,serif" font-size="14.00" fill="darkgray">t4</text>
</g>
<!-- C2S1&#45;&gt;C2S0 -->
<g id="edge15" class="edge">
<title>C2S1&#45;&gt;C2S0</title>
<path fill="none" stroke="darkgray" d="M1086.36,-110.97C1086.04,-100.41 1087.25,-87.81 1093,-78 1098.46,-68.69 1107.13,-61.17 1116.15,-55.32"/>
<polygon fill="darkgray" stroke="darkgray" points="1117.99,-58.3 1124.83,-50.21 1114.43,-52.27 1117.99,-58.3"/>
<text text-anchor="middle" x="1101" y="-81.8" font-family="Times,serif" font-size="14.00" fill="darkgray">t2</text>
</g>
<!-- C2S2&#45;&gt;C2S3 -->
<g id="edge17" class="edge">
<title>C2S2&#45;&gt;C2S3</title>
<path fill="none" stroke="darkgray" d="M1079.69,-250.01C1074.24,-265.23 1069.43,-286.17 1075,-304 1076.27,-308.07 1078.13,-312.08 1080.29,-315.91"/>
<polygon fill="darkgray" stroke="darkgray" points="1077.39,-317.87 1085.74,-324.39 1083.28,-314.09 1077.39,-317.87"/>
<text text-anchor="middle" x="1083" y="-292.8" font-family="Times,serif" font-size="14.00" fill="darkgray">t2</text>
</g>
<!-- C2S2&#45;&gt;C2S1 -->
<g id="edge18" class="edge">
<title>C2S2&#45;&gt;C2S1</title>
<path fill="none" stroke="darkgray" d="M1080.59,-205.84C1077.61,-195.93 1075.36,-183.92 1077,-173 1077.4,-170.33 1077.95,-167.6 1078.59,-164.87"/>
<polygon fill="darkgray" stroke="darkgray" points="1081.97,-165.76 1081.23,-155.19 1075.22,-163.92 1081.97,-165.76"/>
<text text-anchor="middle" x="1094.5" y="-176.8" font-family="Times,serif" font-size="14.00" fill="darkgray">t3R2</text>
</g>
<!-- C2S0&#45;&gt;C2S3 -->
<g id="edge25" class="edge">
<title>C2S0&#45;&gt;C2S3</title>
<path fill="none" stroke="black" stroke-dasharray="5,2" d="M1164.92,-59.74C1167.83,-65.45 1170.5,-71.79 1172,-78 1183.48,-125.53 1177.24,-139.64 1170,-188 1162.14,-240.45 1168.24,-257.91 1142,-304 1138.79,-309.64 1134.52,-315 1129.97,-319.84"/>
<polygon fill="black" stroke="black" points="1122.7,-326.97 1126.68,-316.76 1126.27,-323.47 1129.83,-319.97 1129.83,-319.97 1129.83,-319.97 1126.27,-323.47 1132.99,-323.18 1122.7,-326.97 1122.7,-326.97"/>
<text text-anchor="middle" x="1252" y="-176.8" font-family="Times,serif" font-size="14.00">O1R3 (r1r1*r2)|r2r1?*</text>
</g>
<!-- C2S0&#45;&gt;C2S1 -->
<g id="edge19" class="edge">
<title>C2S0&#45;&gt;C2S1</title>
<path fill="none" stroke="darkgray" d="M1138.14,-59.46C1129.41,-72.35 1118.01,-89.17 1108.39,-103.38"/>
<polygon fill="darkgray" stroke="darkgray" points="1105.38,-101.58 1102.67,-111.82 1111.18,-105.5 1105.38,-101.58"/>
<text text-anchor="middle" x="1141.5" y="-81.8" font-family="Times,serif" font-size="14.00" fill="darkgray">t1R1</text>
</g>
<!-- C2S0&#45;&gt;C2S0 -->
<g id="edge20" class="edge">
<title>C2S0&#45;&gt;C2S0</title>
<path fill="none" stroke="darkgray" d="M1183.1,-46.62C1193.09,-46.53 1201,-43.66 1201,-38 1201,-34.46 1197.91,-32.01 1193.15,-30.65"/>
<polygon fill="darkgray" stroke="darkgray" points="1193.46,-27.16 1183.1,-29.38 1192.58,-34.11 1193.46,-27.16"/>
<text text-anchor="middle" x="1209" y="-34.3" font-family="Times,serif" font-size="14.00" fill="darkgray">t4</text>
</g>
</g>
</svg>
