<?xml version="1.0" encoding="UTF-8" standalone="no"?>
<!DOCTYPE svg PUBLIC "-//W3C//DTD SVG 1.1//EN"
 "http://www.w3.org/Graphics/SVG/1.1/DTD/svg11.dtd">
<!-- Generated by graphviz version 2.43.0 (0)
 -->
<!-- Title: EXPinput/r Pages: 1 -->
<svg width="1394pt" height="513pt"
 viewBox="0.00 0.00 1394.00 513.00" xmlns="http://www.w3.org/2000/svg" xmlns:xlink="http://www.w3.org/1999/xlink">
<g id="graph0" class="graph" transform="scale(1 1) rotate(0) translate(4 509)">
<title>EXPinput/r</title>
<polygon fill="white" stroke="transparent" points="-4,4 -4,-509 1390,-509 1390,4 -4,4"/>
<g id="clust1" class="cluster">
<title>cluster0</title>
<path fill="#eaffee" stroke="#eaffee" d="M635,-306C635,-306 723,-306 723,-306 729,-306 735,-312 735,-318 735,-318 735,-485 735,-485 735,-491 729,-497 723,-497 723,-497 635,-497 635,-497 629,-497 623,-491 623,-485 623,-485 623,-318 623,-318 623,-312 629,-306 635,-306"/>
<text text-anchor="middle" x="679" y="-481.8" font-family="Times,serif" font-size="14.00" fill="#b2ccbb">C0</text>
</g>
<g id="clust2" class="cluster">
<title>cluster1</title>
<path fill="#eaffee" stroke="#eaffee" d="M20,-8C20,-8 535,-8 535,-8 541,-8 547,-14 547,-20 547,-20 547,-261 547,-261 547,-267 541,-273 535,-273 535,-273 20,-273 20,-273 14,-273 8,-267 8,-261 8,-261 8,-20 8,-20 8,-14 14,-8 20,-8"/>
<text text-anchor="middle" x="277.5" y="-257.8" font-family="Times,serif" font-size="14.00" fill="#b2ccbb">C1</text>
</g>
<g id="clust3" class="cluster">
<title>cluster2</title>
<path fill="#eaffee" stroke="#eaffee" d="M1080,-8C1080,-8 1366,-8 1366,-8 1372,-8 1378,-14 1378,-20 1378,-20 1378,-377 1378,-377 1378,-383 1372,-389 1366,-389 1366,-389 1080,-389 1080,-389 1074,-389 1068,-383 1068,-377 1068,-377 1068,-20 1068,-20 1068,-14 1074,-8 1080,-8"/>
<text text-anchor="middle" x="1223" y="-373.8" font-family="Times,serif" font-size="14.00" fill="#b2ccbb">C2</text>
</g>
<!-- C0S0 -->
<g id="node1" class="node">
<title>C0S0</title>
<polygon fill="white" stroke="black" points="693,-440.54 693,-455.46 677.18,-466 654.82,-466 639,-455.46 639,-440.54 654.82,-430 677.18,-430 693,-440.54"/>
<text text-anchor="middle" x="666" y="-444.3" font-family="Times,serif" font-size="14.00">0</text>
</g>
<!-- C0S0&#45;&gt;C0S0 -->
<g id="edge2" class="edge">
<title>C0S0&#45;&gt;C0S0</title>
<path fill="none" stroke="darkgray" d="M692.79,-455.86C702.78,-456.12 711,-453.5 711,-448 711,-444.56 707.79,-442.25 702.94,-441.07"/>
<polygon fill="darkgray" stroke="darkgray" points="703.07,-437.56 692.79,-440.14 702.44,-444.53 703.07,-437.56"/>
<text text-anchor="middle" x="719" y="-444.3" font-family="Times,serif" font-size="14.00" fill="darkgray">t4</text>
</g>
<!-- C0S1 -->
<g id="node2" class="node">
<title>C0S1</title>
<polygon fill="white" stroke="black" points="689,-328.54 689,-343.46 673.18,-354 650.82,-354 635,-343.46 635,-328.54 650.82,-318 673.18,-318 689,-328.54"/>
<polygon fill="none" stroke="black" points="693,-326.4 693,-345.6 674.39,-358 649.61,-358 631,-345.6 631,-326.4 649.61,-314 674.39,-314 693,-326.4"/>
<text text-anchor="middle" x="662" y="-332.3" font-family="Times,serif" font-size="14.00">1</text>
</g>
<!-- C0S0&#45;&gt;C0S1 -->
<g id="edge1" class="edge">
<title>C0S0&#45;&gt;C0S1</title>
<path fill="none" stroke="darkgray" d="M657.67,-429.95C655.36,-424.36 653.16,-418.04 652,-412 649.23,-397.61 650.77,-381.52 653.4,-367.94"/>
<polygon fill="darkgray" stroke="darkgray" points="656.83,-368.64 655.56,-358.12 649.99,-367.13 656.83,-368.64"/>
<text text-anchor="middle" x="669.5" y="-400.8" font-family="Times,serif" font-size="14.00" fill="darkgray">t1R1</text>
</g>
<!-- C2S3 -->
<g id="node7" class="node">
<title>C2S3</title>
<polygon fill="white" stroke="black" points="1147,-328.54 1147,-343.46 1131.18,-354 1108.82,-354 1093,-343.46 1093,-328.54 1108.82,-318 1131.18,-318 1147,-328.54"/>
<polygon fill="none" stroke="black" points="1151,-326.4 1151,-345.6 1132.39,-358 1107.61,-358 1089,-345.6 1089,-326.4 1107.61,-314 1132.39,-314 1151,-326.4"/>
<text text-anchor="middle" x="1120" y="-332.3" font-family="Times,serif" font-size="14.00">3</text>
</g>
<!-- C0S0&#45;&gt;C2S3 -->
<g id="edge21" class="edge">
<title>C0S0&#45;&gt;C2S3</title>
<path fill="none" stroke="black" stroke-dasharray="5,2" d="M693.04,-440.45C769.51,-421.92 987.65,-369.07 1078.99,-346.94"/>
<polygon fill="black" stroke="black" points="1088.97,-344.52 1080.31,-351.25 1084.11,-345.69 1079.25,-346.87 1079.25,-346.87 1079.25,-346.87 1084.11,-345.69 1078.19,-342.5 1088.97,-344.52 1088.97,-344.52"/>
<text text-anchor="middle" x="910.5" y="-400.8" font-family="Times,serif" font-size="14.00">O1R3 r1r1?*</text>
</g>
<!-- C0S1&#45;&gt;C0S0 -->
<g id="edge3" class="edge">
<title>C0S1&#45;&gt;C0S0</title>
<path fill="none" stroke="darkgray" d="M675.73,-357.52C684.06,-372.49 692.17,-393.35 687,-412 686.11,-415.21 684.84,-418.42 683.36,-421.52"/>
<polygon fill="darkgray" stroke="darkgray" points="680.23,-419.96 678.45,-430.4 686.35,-423.35 680.23,-419.96"/>
<text text-anchor="middle" x="696" y="-400.8" font-family="Times,serif" font-size="14.00" fill="darkgray">t2</text>
</g>
<!-- C0S1&#45;&gt;C0S1 -->
<g id="edge4" class="edge">
<title>C0S1&#45;&gt;C0S1</title>
<path fill="none" stroke="darkgray" d="M693.1,-344.62C703.09,-344.53 711,-341.66 711,-336 711,-332.46 707.91,-330.01 703.15,-328.65"/>
<polygon fill="darkgray" stroke="darkgray" points="703.46,-325.16 693.1,-327.38 702.58,-332.11 703.46,-325.16"/>
<text text-anchor="middle" x="719" y="-332.3" font-family="Times,serif" font-size="14.00" fill="darkgray">t4</text>
</g>
<!-- C1S2 -->
<g id="node3" class="node">
<title>C1S2</title>
<polygon fill="white" stroke="black" points="309,-212.54 309,-227.46 293.18,-238 270.82,-238 255,-227.46 255,-212.54 270.82,-202 293.18,-202 309,-212.54"/>
<polygon fill="none" stroke="black" points="313,-210.4 313,-229.6 294.39,-242 269.61,-242 251,-229.6 251,-210.4 269.61,-198 294.39,-198 313,-210.4"/>
<text text-anchor="middle" x="282" y="-216.3" font-family="Times,serif" font-size="14.00">2</text>
</g>
<!-- C0S1&#45;&gt;C1S2 -->
<g id="edge22" class="edge">
<title>C0S1&#45;&gt;C1S2</title>
<path fill="none" stroke="black" stroke-dasharray="5,2" d="M631.55,-325.86C563.37,-305.41 398.46,-255.94 322.07,-233.02"/>
<polygon fill="black" stroke="black" points="312.34,-230.1 323.21,-228.66 317.12,-231.54 321.91,-232.97 321.91,-232.97 321.91,-232.97 317.12,-231.54 320.62,-237.28 312.34,-230.1 312.34,-230.1"/>
<text text-anchor="middle" x="573.5" y="-284.8" font-family="Times,serif" font-size="14.00">O1R3 r1r1?*</text>
</g>
<!-- C1S1 -->
<g id="node4" class="node">
<title>C1S1</title>
<polygon fill="white" stroke="black" points="427,-117.54 427,-132.46 411.18,-143 388.82,-143 373,-132.46 373,-117.54 388.82,-107 411.18,-107 427,-117.54"/>
<polygon fill="none" stroke="black" points="431,-115.4 431,-134.6 412.39,-147 387.61,-147 369,-134.6 369,-115.4 387.61,-103 412.39,-103 431,-115.4"/>
<text text-anchor="middle" x="400" y="-121.3" font-family="Times,serif" font-size="14.00">1</text>
</g>
<!-- C1S2&#45;&gt;C1S1 -->
<g id="edge6" class="edge">
<title>C1S2&#45;&gt;C1S1</title>
<path fill="none" stroke="darkgray" d="M313.17,-217.59C363.95,-214.57 460.97,-205.53 482,-180 497.9,-160.7 468.65,-145.79 440.77,-136.57"/>
<polygon fill="darkgray" stroke="darkgray" points="441.63,-133.17 431.05,-133.55 439.56,-139.86 441.63,-133.17"/>
<text text-anchor="middle" x="503.5" y="-168.8" font-family="Times,serif" font-size="14.00" fill="darkgray">t3R2</text>
</g>
<!-- C1S3 -->
<g id="node6" class="node">
<title>C1S3</title>
<polygon fill="white" stroke="black" points="119,-117.54 119,-132.46 103.18,-143 80.82,-143 65,-132.46 65,-117.54 80.82,-107 103.18,-107 119,-117.54"/>
<polygon fill="none" stroke="black" points="123,-115.4 123,-134.6 104.39,-147 79.61,-147 61,-134.6 61,-115.4 79.61,-103 104.39,-103 123,-115.4"/>
<text text-anchor="middle" x="92" y="-121.3" font-family="Times,serif" font-size="14.00">3</text>
</g>
<!-- C1S2&#45;&gt;C1S3 -->
<g id="edge5" class="edge">
<title>C1S2&#45;&gt;C1S3</title>
<path fill="none" stroke="darkgray" d="M250.81,-216.45C204.61,-212.01 121.25,-201.22 101,-180 95.17,-173.89 92.3,-165.51 91.04,-157.18"/>
<polygon fill="darkgray" stroke="darkgray" points="94.53,-156.87 90.22,-147.2 87.55,-157.45 94.53,-156.87"/>
<text text-anchor="middle" x="109" y="-168.8" font-family="Times,serif" font-size="14.00" fill="darkgray">t2</text>
</g>
<!-- C1S1&#45;&gt;C1S2 -->
<g id="edge23" class="edge">
<title>C1S1&#45;&gt;C1S2</title>
<path fill="none" stroke="black" stroke-dasharray="5,2" d="M368.71,-125.6C303.99,-125.52 158.86,-129.4 128,-165 94.54,-203.59 184.58,-214.61 240.77,-217.75"/>
<polygon fill="black" stroke="black" points="250.83,-218.25 240.62,-222.25 245.84,-218 240.84,-217.76 240.84,-217.76 240.84,-217.76 245.84,-218 241.07,-213.26 250.83,-218.25 250.83,-218.25"/>
<text text-anchor="middle" x="303" y="-168.8" font-family="Times,serif" font-size="14.00">O1R3 (r1*((r1r2)|r2r1?*r1)|(r1r2))|((r2r1?*r1)|r2)</text>
</g>
<!-- C1S1&#45;&gt;C1S1 -->
<g id="edge8" class="edge">
<title>C1S1&#45;&gt;C1S1</title>
<path fill="none" stroke="darkgray" d="M431.1,-133.62C441.09,-133.53 449,-130.66 449,-125 449,-121.46 445.91,-119.01 441.15,-117.65"/>
<polygon fill="darkgray" stroke="darkgray" points="441.46,-114.16 431.1,-116.38 440.58,-121.11 441.46,-114.16"/>
<text text-anchor="middle" x="457" y="-121.3" font-family="Times,serif" font-size="14.00" fill="darkgray">t4</text>
</g>
<!-- C1S0 -->
<g id="node5" class="node">
<title>C1S0</title>
<polygon fill="white" stroke="black" points="415,-26.54 415,-41.46 399.18,-52 376.82,-52 361,-41.46 361,-26.54 376.82,-16 399.18,-16 415,-26.54"/>
<text text-anchor="middle" x="388" y="-30.3" font-family="Times,serif" font-size="14.00">0</text>
</g>
<!-- C1S1&#45;&gt;C1S0 -->
<g id="edge7" class="edge">
<title>C1S1&#45;&gt;C1S0</title>
<path fill="none" stroke="darkgray" d="M382.27,-106.05C377.32,-99.88 372.59,-92.6 370,-85 367.33,-77.14 368.76,-68.63 371.74,-60.89"/>
<polygon fill="darkgray" stroke="darkgray" points="375.01,-62.15 376.15,-51.61 368.69,-59.14 375.01,-62.15"/>
<text text-anchor="middle" x="378" y="-73.8" font-family="Times,serif" font-size="14.00" fill="darkgray">t2</text>
</g>
<!-- C1S0&#45;&gt;C1S1 -->
<g id="edge9" class="edge">
<title>C1S0&#45;&gt;C1S1</title>
<path fill="none" stroke="darkgray" d="M390.3,-52.07C391.86,-63.61 393.96,-79.18 395.81,-92.89"/>
<polygon fill="darkgray" stroke="darkgray" points="392.35,-93.47 397.16,-102.91 399.29,-92.53 392.35,-93.47"/>
<text text-anchor="middle" x="411.5" y="-73.8" font-family="Times,serif" font-size="14.00" fill="darkgray">t1R1</text>
</g>
<!-- C1S0&#45;&gt;C1S0 -->
<g id="edge10" class="edge">
<title>C1S0&#45;&gt;C1S0</title>
<path fill="none" stroke="darkgray" d="M414.79,-41.86C424.78,-42.12 433,-39.5 433,-34 433,-30.56 429.79,-28.25 424.94,-27.07"/>
<polygon fill="darkgray" stroke="darkgray" points="425.07,-23.56 414.79,-26.14 424.44,-30.53 425.07,-23.56"/>
<text text-anchor="middle" x="441" y="-30.3" font-family="Times,serif" font-size="14.00" fill="darkgray">t4</text>
</g>
<!-- C1S0&#45;&gt;C2S3 -->
<g id="edge24" class="edge">
<title>C1S0&#45;&gt;C2S3</title>
<path fill="none" stroke="black" stroke-dasharray="5,2" d="M415.14,-41.01C484.12,-56.76 671.12,-102.35 818,-165 921.85,-209.29 1035.71,-279.99 1089.12,-314.59"/>
<polygon fill="black" stroke="black" points="1097.76,-320.21 1086.93,-318.53 1093.57,-317.49 1089.38,-314.76 1089.38,-314.76 1089.38,-314.76 1093.57,-317.49 1091.84,-310.99 1097.76,-320.21 1097.76,-320.21"/>
<text text-anchor="middle" x="965.5" y="-168.8" font-family="Times,serif" font-size="14.00">O1R3 (r1*(r1r2)|r2r1?*)|(r2r1?*)</text>
</g>
<!-- C1S3&#45;&gt;C1S2 -->
<g id="edge11" class="edge">
<title>C1S3&#45;&gt;C1S2</title>
<path fill="none" stroke="darkgray" d="M70.62,-141.01C57.3,-152.18 44.53,-167.57 55,-180 78.28,-207.62 181.74,-215.68 240.63,-218.03"/>
<polygon fill="darkgray" stroke="darkgray" points="240.61,-221.53 250.73,-218.4 240.86,-214.54 240.61,-221.53"/>
<text text-anchor="middle" x="72.5" y="-168.8" font-family="Times,serif" font-size="14.00" fill="darkgray">t1R1</text>
</g>
<!-- C1S3&#45;&gt;C1S0 -->
<g id="edge12" class="edge">
<title>C1S3&#45;&gt;C1S0</title>
<path fill="none" stroke="darkgray" d="M122.29,-114.89C177.47,-98.3 294.09,-63.24 352.75,-45.6"/>
<polygon fill="darkgray" stroke="darkgray" points="354.09,-48.85 362.66,-42.62 352.08,-42.15 354.09,-48.85"/>
<text text-anchor="middle" x="283.5" y="-73.8" font-family="Times,serif" font-size="14.00" fill="darkgray">t3R2</text>
</g>
<!-- C2S2 -->
<g id="node9" class="node">
<title>C2S2</title>
<polygon fill="white" stroke="black" points="1134,-212.54 1134,-227.46 1118.18,-238 1095.82,-238 1080,-227.46 1080,-212.54 1095.82,-202 1118.18,-202 1134,-212.54"/>
<polygon fill="none" stroke="black" points="1138,-210.4 1138,-229.6 1119.39,-242 1094.61,-242 1076,-229.6 1076,-210.4 1094.61,-198 1119.39,-198 1138,-210.4"/>
<text text-anchor="middle" x="1107" y="-216.3" font-family="Times,serif" font-size="14.00">2</text>
</g>
<!-- C2S3&#45;&gt;C2S2 -->
<g id="edge13" class="edge">
<title>C2S3&#45;&gt;C2S2</title>
<path fill="none" stroke="darkgray" d="M1117.59,-313.82C1115.61,-296.47 1112.78,-271.66 1110.54,-252.05"/>
<polygon fill="darkgray" stroke="darkgray" points="1114.01,-251.6 1109.4,-242.06 1107.06,-252.39 1114.01,-251.6"/>
<text text-anchor="middle" x="1132.5" y="-284.8" font-family="Times,serif" font-size="14.00" fill="darkgray">t1R1</text>
</g>
<!-- C2S0 -->
<g id="node10" class="node">
<title>C2S0</title>
<polygon fill="white" stroke="black" points="1197,-26.54 1197,-41.46 1181.18,-52 1158.82,-52 1143,-41.46 1143,-26.54 1158.82,-16 1181.18,-16 1197,-26.54"/>
<text text-anchor="middle" x="1170" y="-30.3" font-family="Times,serif" font-size="14.00">0</text>
</g>
<!-- C2S3&#45;&gt;C2S0 -->
<g id="edge14" class="edge">
<title>C2S3&#45;&gt;C2S0</title>
<path fill="none" stroke="darkgray" d="M1139.34,-318.19C1145.2,-311.89 1150.91,-304.24 1154,-296 1164.21,-268.74 1139.05,-190.55 1153,-165 1160.09,-152.02 1173.7,-159.87 1181,-147 1195.84,-120.83 1188.85,-85.61 1180.92,-61.71"/>
<polygon fill="darkgray" stroke="darkgray" points="1184.18,-60.45 1177.52,-52.21 1177.59,-62.81 1184.18,-60.45"/>
<text text-anchor="middle" x="1170.5" y="-168.8" font-family="Times,serif" font-size="14.00" fill="darkgray">t3R2</text>
</g>
<!-- C2S1 -->
<g id="node8" class="node">
<title>C2S1</title>
<polygon fill="white" stroke="black" points="1134,-117.54 1134,-132.46 1118.18,-143 1095.82,-143 1080,-132.46 1080,-117.54 1095.82,-107 1118.18,-107 1134,-117.54"/>
<polygon fill="none" stroke="black" points="1138,-115.4 1138,-134.6 1119.39,-147 1094.61,-147 1076,-134.6 1076,-115.4 1094.61,-103 1119.39,-103 1138,-115.4"/>
<text text-anchor="middle" x="1107" y="-121.3" font-family="Times,serif" font-size="14.00">1</text>
</g>
<!-- C2S1&#45;&gt;C1S2 -->
<g id="edge26" class="edge">
<title>C2S1&#45;&gt;C1S2</title>
<path fill="none" stroke="black" stroke-dasharray="5,2" d="M1075.85,-126.99C975.56,-130.37 661.79,-142.52 563,-165 545.3,-169.03 542.51,-175.2 525,-180 455.51,-199.05 372.13,-209.92 323.31,-215.13"/>
<polygon fill="black" stroke="black" points="313.14,-216.18 322.63,-210.68 318.12,-215.67 323.09,-215.15 323.09,-215.15 323.09,-215.15 318.12,-215.67 323.56,-219.63 313.14,-216.18 313.14,-216.18"/>
<text text-anchor="middle" x="690.5" y="-168.8" font-family="Times,serif" font-size="14.00">O1R3 ((r1r1*r2)|r2r1?*r1)|(r1r1*r2)</text>
</g>
<!-- C2S1&#45;&gt;C2S1 -->
<g id="edge16" class="edge">
<title>C2S1&#45;&gt;C2S1</title>
<path fill="none" stroke="darkgray" d="M1138.1,-133.62C1148.09,-133.53 1156,-130.66 1156,-125 1156,-121.46 1152.91,-119.01 1148.15,-117.65"/>
<polygon fill="darkgray" stroke="darkgray" points="1148.46,-114.16 1138.1,-116.38 1147.58,-121.11 1148.46,-114.16"/>
<text text-anchor="middle" x="1164" y="-121.3" font-family="Times,serif" font-size="14.00" fill="darkgray">t4</text>
</g>
<!-- C2S1&#45;&gt;C2S0 -->
<g id="edge15" class="edge">
<title>C2S1&#45;&gt;C2S0</title>
<path fill="none" stroke="darkgray" d="M1104.17,-102.85C1103.79,-92.26 1105.01,-79.67 1111,-70 1116.89,-60.49 1126.41,-53.24 1136.1,-47.88"/>
<polygon fill="darkgray" stroke="darkgray" points="1137.92,-50.88 1145.32,-43.31 1134.81,-44.61 1137.92,-50.88"/>
<text text-anchor="middle" x="1119" y="-73.8" font-family="Times,serif" font-size="14.00" fill="darkgray">t2</text>
</g>
<!-- C2S2&#45;&gt;C2S3 -->
<g id="edge17" class="edge">
<title>C2S2&#45;&gt;C2S3</title>
<path fill="none" stroke="darkgray" d="M1097.69,-242.01C1092.24,-257.23 1087.43,-278.17 1093,-296 1094.27,-300.07 1096.13,-304.08 1098.29,-307.91"/>
<polygon fill="darkgray" stroke="darkgray" points="1095.39,-309.87 1103.74,-316.39 1101.28,-306.09 1095.39,-309.87"/>
<text text-anchor="middle" x="1101" y="-284.8" font-family="Times,serif" font-size="14.00" fill="darkgray">t2</text>
</g>
<!-- C2S2&#45;&gt;C2S1 -->
<g id="edge18" class="edge">
<title>C2S2&#45;&gt;C2S1</title>
<path fill="none" stroke="darkgray" d="M1098.59,-197.84C1095.61,-187.93 1093.36,-175.92 1095,-165 1095.4,-162.33 1095.95,-159.6 1096.59,-156.87"/>
<polygon fill="darkgray" stroke="darkgray" points="1099.97,-157.76 1099.23,-147.19 1093.22,-155.92 1099.97,-157.76"/>
<text text-anchor="middle" x="1112.5" y="-168.8" font-family="Times,serif" font-size="14.00" fill="darkgray">t3R2</text>
</g>
<!-- C2S0&#45;&gt;C2S3 -->
<g id="edge25" class="edge">
<title>C2S0&#45;&gt;C2S3</title>
<path fill="none" stroke="black" stroke-dasharray="5,2" d="M1181.86,-51.67C1185.17,-57.23 1188.31,-63.64 1190,-70 1202.55,-117.26 1195.24,-131.64 1188,-180 1180.14,-232.45 1186.24,-249.91 1160,-296 1156.79,-301.64 1152.52,-307 1147.97,-311.84"/>
<polygon fill="black" stroke="black" points="1140.7,-318.97 1144.68,-308.76 1144.27,-315.47 1147.83,-311.97 1147.83,-311.97 1147.83,-311.97 1144.27,-315.47 1150.99,-315.18 1140.7,-318.97 1140.7,-318.97"/>
<text text-anchor="middle" x="1270" y="-168.8" font-family="Times,serif" font-size="14.00">O1R3 (r1r1*r2)|r2r1?*</text>
</g>
<!-- C2S0&#45;&gt;C2S1 -->
<g id="edge19" class="edge">
<title>C2S0&#45;&gt;C2S1</title>
<path fill="none" stroke="darkgray" d="M1158.09,-51.83C1149.43,-64.06 1137.5,-80.92 1127.34,-95.26"/>
<polygon fill="darkgray" stroke="darkgray" points="1124.22,-93.62 1121.3,-103.8 1129.93,-97.66 1124.22,-93.62"/>
<text text-anchor="middle" x="1161.5" y="-73.8" font-family="Times,serif" font-size="14.00" fill="darkgray">t1R1</text>
</g>
<!-- C2S0&#45;&gt;C2S0 -->
<g id="edge20" class="edge">
<title>C2S0&#45;&gt;C2S0</title>
<path fill="none" stroke="darkgray" d="M1196.79,-41.86C1206.78,-42.12 1215,-39.5 1215,-34 1215,-30.56 1211.79,-28.25 1206.94,-27.07"/>
<polygon fill="darkgray" stroke="darkgray" points="1207.07,-23.56 1196.79,-26.14 1206.44,-30.53 1207.07,-23.56"/>
<text text-anchor="middle" x="1223" y="-30.3" font-family="Times,serif" font-size="14.00" fill="darkgray">t4</text>
</g>
</g>
</svg>
