<?xml version="1.0" encoding="UTF-8" standalone="no"?>
<!DOCTYPE svg PUBLIC "-//W3C//DTD SVG 1.1//EN"
 "http://www.w3.org/Graphics/SVG/1.1/DTD/svg11.dtd">
<!-- Generated by graphviz version 2.43.0 (0)
 -->
<!-- Title: EXPinput/r Pages: 1 -->
<svg width="1394pt" height="464pt"
 viewBox="0.00 0.00 1394.00 464.00" xmlns="http://www.w3.org/2000/svg" xmlns:xlink="http://www.w3.org/1999/xlink">
<g id="graph0" class="graph" transform="scale(1 1) rotate(0) translate(4 460)">
<title>EXPinput/r</title>
<polygon fill="white" stroke="transparent" points="-4,4 -4,-460 1390,-460 1390,4 -4,4"/>
<g id="clust1" class="cluster">
<title>cluster1</title>
<path fill="#eaffee" stroke="#eaffee" d="M625,-293C625,-293 737,-293 737,-293 743,-293 749,-299 749,-305 749,-305 749,-436 749,-436 749,-442 743,-448 737,-448 737,-448 625,-448 625,-448 619,-448 613,-442 613,-436 613,-436 613,-305 613,-305 613,-299 619,-293 625,-293"/>
</g>
<g id="clust2" class="cluster">
<title>cluster2</title>
<path fill="#eaffee" stroke="#eaffee" d="M20,-8C20,-8 535,-8 535,-8 541,-8 547,-14 547,-20 547,-20 547,-246 547,-246 547,-252 541,-258 535,-258 535,-258 20,-258 20,-258 14,-258 8,-252 8,-246 8,-246 8,-20 8,-20 8,-14 14,-8 20,-8"/>
</g>
<g id="clust3" class="cluster">
<title>cluster3</title>
<path fill="#eaffee" stroke="#eaffee" d="M1080,-8C1080,-8 1366,-8 1366,-8 1372,-8 1378,-14 1378,-20 1378,-20 1378,-341 1378,-341 1378,-347 1372,-353 1366,-353 1366,-353 1080,-353 1080,-353 1074,-353 1068,-347 1068,-341 1068,-341 1068,-20 1068,-20 1068,-14 1074,-8 1080,-8"/>
</g>
<!-- C1S0 -->
<g id="node1" class="node">
<title>C1S0</title>
<polygon fill="white" stroke="black" points="702.87,-410.54 702.87,-425.46 680.1,-436 647.9,-436 625.13,-425.46 625.13,-410.54 647.9,-400 680.1,-400 702.87,-410.54"/>
<polygon fill="none" stroke="black" points="706.89,-407.99 706.89,-428.01 680.99,-440 647.01,-440 621.11,-428.01 621.11,-407.99 647.01,-396 680.99,-396 706.89,-407.99"/>
<text text-anchor="middle" x="664" y="-414.3" font-family="Times,serif" font-size="14.00">C1S0</text>
</g>
<!-- C1S0&#45;&gt;C1S0 -->
<g id="edge2" class="edge">
<title>C1S0&#45;&gt;C1S0</title>
<path fill="none" stroke="darkgray" d="M706.82,-426.47C717.09,-425.81 724.69,-422.99 724.69,-418 724.69,-414.88 721.72,-412.61 716.99,-411.18"/>
<polygon fill="darkgray" stroke="darkgray" points="717.25,-407.68 706.82,-409.53 716.13,-414.59 717.25,-407.68"/>
<text text-anchor="middle" x="732.69" y="-414.3" font-family="Times,serif" font-size="14.00" fill="darkgray">t4</text>
</g>
<!-- C1S1 -->
<g id="node2" class="node">
<title>C1S1</title>
<polygon fill="white" stroke="black" points="702.87,-315.54 702.87,-330.46 680.1,-341 647.9,-341 625.13,-330.46 625.13,-315.54 647.9,-305 680.1,-305 702.87,-315.54"/>
<polygon fill="none" stroke="black" points="706.89,-312.99 706.89,-333.01 680.99,-345 647.01,-345 621.11,-333.01 621.11,-312.99 647.01,-301 680.99,-301 706.89,-312.99"/>
<text text-anchor="middle" x="664" y="-319.3" font-family="Times,serif" font-size="14.00">C1S1</text>
</g>
<!-- C1S0&#45;&gt;C1S1 -->
<g id="edge1" class="edge">
<title>C1S0&#45;&gt;C1S1</title>
<path fill="none" stroke="darkgray" d="M655.59,-395.84C652.61,-385.93 650.36,-373.92 652,-363 652.4,-360.33 652.95,-357.6 653.59,-354.87"/>
<polygon fill="darkgray" stroke="darkgray" points="656.97,-355.76 656.23,-345.19 650.22,-353.92 656.97,-355.76"/>
<text text-anchor="middle" x="669.5" y="-366.8" font-family="Times,serif" font-size="14.00" fill="darkgray">t1R1</text>
</g>
<!-- C3S3 -->
<g id="node7" class="node">
<title>C3S3</title>
<polygon fill="white" stroke="black" points="1167.87,-315.54 1167.87,-330.46 1145.1,-341 1112.9,-341 1090.13,-330.46 1090.13,-315.54 1112.9,-305 1145.1,-305 1167.87,-315.54"/>
<polygon fill="none" stroke="black" points="1171.89,-312.99 1171.89,-333.01 1145.99,-345 1112.01,-345 1086.11,-333.01 1086.11,-312.99 1112.01,-301 1145.99,-301 1171.89,-312.99"/>
<text text-anchor="middle" x="1129" y="-319.3" font-family="Times,serif" font-size="14.00">C3S3</text>
</g>
<!-- C1S0&#45;&gt;C3S3 -->
<g id="edge21" class="edge">
<title>C1S0&#45;&gt;C3S3</title>
<path fill="none" stroke="black" stroke-dasharray="5,2" d="M706.91,-408.42C792.3,-391.34 983.23,-353.15 1076.16,-334.57"/>
<polygon fill="black" stroke="black" points="1086.19,-332.56 1077.27,-338.94 1081.29,-333.54 1076.39,-334.52 1076.39,-334.52 1076.39,-334.52 1081.29,-333.54 1075.5,-330.11 1086.19,-332.56 1086.19,-332.56"/>
<text text-anchor="middle" x="969.5" y="-366.8" font-family="Times,serif" font-size="14.00">O1R3 r1r1?*</text>
</g>
<!-- C1S1&#45;&gt;C1S0 -->
<g id="edge3" class="edge">
<title>C1S1&#45;&gt;C1S0</title>
<path fill="none" stroke="darkgray" d="M680.2,-345.07C685.83,-354.86 690.06,-366.79 687,-378 686.22,-380.84 685.18,-383.69 683.97,-386.48"/>
<polygon fill="darkgray" stroke="darkgray" points="680.72,-385.15 679.32,-395.65 686.96,-388.31 680.72,-385.15"/>
<text text-anchor="middle" x="696" y="-366.8" font-family="Times,serif" font-size="14.00" fill="darkgray">t2</text>
</g>
<!-- C1S1&#45;&gt;C1S1 -->
<g id="edge4" class="edge">
<title>C1S1&#45;&gt;C1S1</title>
<path fill="none" stroke="darkgray" d="M706.82,-331.47C717.09,-330.81 724.69,-327.99 724.69,-323 724.69,-319.88 721.72,-317.61 716.99,-316.18"/>
<polygon fill="darkgray" stroke="darkgray" points="717.25,-312.68 706.82,-314.53 716.13,-319.59 717.25,-312.68"/>
<text text-anchor="middle" x="732.69" y="-319.3" font-family="Times,serif" font-size="14.00" fill="darkgray">t4</text>
</g>
<!-- C2S2 -->
<g id="node3" class="node">
<title>C2S2</title>
<polygon fill="white" stroke="black" points="320.87,-220.54 320.87,-235.46 298.1,-246 265.9,-246 243.13,-235.46 243.13,-220.54 265.9,-210 298.1,-210 320.87,-220.54"/>
<polygon fill="none" stroke="black" points="324.89,-217.99 324.89,-238.01 298.99,-250 265.01,-250 239.11,-238.01 239.11,-217.99 265.01,-206 298.99,-206 324.89,-217.99"/>
<text text-anchor="middle" x="282" y="-224.3" font-family="Times,serif" font-size="14.00">C2S2</text>
</g>
<!-- C1S1&#45;&gt;C2S2 -->
<g id="edge22" class="edge">
<title>C1S1&#45;&gt;C2S2</title>
<path fill="none" stroke="black" stroke-dasharray="5,2" d="M623.12,-312.05C552.85,-294.94 409.33,-260 332.77,-241.36"/>
<polygon fill="black" stroke="black" points="322.88,-238.95 333.66,-236.94 327.73,-240.13 332.59,-241.32 332.59,-241.32 332.59,-241.32 327.73,-240.13 331.53,-245.69 322.88,-238.95 322.88,-238.95"/>
<text text-anchor="middle" x="540.5" y="-271.8" font-family="Times,serif" font-size="14.00">O1R3 r1r1?*</text>
</g>
<!-- C2S1 -->
<g id="node4" class="node">
<title>C2S1</title>
<polygon fill="white" stroke="black" points="367.87,-125.54 367.87,-140.46 345.1,-151 312.9,-151 290.13,-140.46 290.13,-125.54 312.9,-115 345.1,-115 367.87,-125.54"/>
<polygon fill="none" stroke="black" points="371.89,-122.99 371.89,-143.01 345.99,-155 312.01,-155 286.11,-143.01 286.11,-122.99 312.01,-111 345.99,-111 371.89,-122.99"/>
<text text-anchor="middle" x="329" y="-129.3" font-family="Times,serif" font-size="14.00">C2S1</text>
</g>
<!-- C2S2&#45;&gt;C2S1 -->
<g id="edge6" class="edge">
<title>C2S2&#45;&gt;C2S1</title>
<path fill="none" stroke="darkgray" d="M324.85,-224.84C377.56,-221.18 462.49,-211.69 482,-188 512.01,-151.57 437.18,-139.69 381.9,-135.84"/>
<polygon fill="darkgray" stroke="darkgray" points="382.03,-132.34 371.83,-135.21 381.6,-139.33 382.03,-132.34"/>
<text text-anchor="middle" x="505.5" y="-176.8" font-family="Times,serif" font-size="14.00" fill="darkgray">t3R2</text>
</g>
<!-- C2S3 -->
<g id="node6" class="node">
<title>C2S3</title>
<polygon fill="white" stroke="black" points="130.87,-125.54 130.87,-140.46 108.1,-151 75.9,-151 53.13,-140.46 53.13,-125.54 75.9,-115 108.1,-115 130.87,-125.54"/>
<polygon fill="none" stroke="black" points="134.89,-122.99 134.89,-143.01 108.99,-155 75.01,-155 49.11,-143.01 49.11,-122.99 75.01,-111 108.99,-111 134.89,-122.99"/>
<text text-anchor="middle" x="92" y="-129.3" font-family="Times,serif" font-size="14.00">C2S3</text>
</g>
<!-- C2S2&#45;&gt;C2S3 -->
<g id="edge5" class="edge">
<title>C2S2&#45;&gt;C2S3</title>
<path fill="none" stroke="darkgray" d="M239.02,-223.13C191.95,-217.98 120.65,-207.22 102,-188 96.1,-181.92 93.09,-173.55 91.68,-165.22"/>
<polygon fill="darkgray" stroke="darkgray" points="95.15,-164.82 90.66,-155.23 88.19,-165.53 95.15,-164.82"/>
<text text-anchor="middle" x="110" y="-176.8" font-family="Times,serif" font-size="14.00" fill="darkgray">t2</text>
</g>
<!-- C2S1&#45;&gt;C2S2 -->
<g id="edge23" class="edge">
<title>C2S1&#45;&gt;C2S2</title>
<path fill="none" stroke="black" stroke-dasharray="5,2" d="M285.94,-136.13C232.97,-139.75 147.62,-149.21 128,-173 97.8,-209.63 173.12,-221.44 228.76,-225.23"/>
<polygon fill="black" stroke="black" points="238.89,-225.85 228.63,-229.73 233.9,-225.55 228.91,-225.24 228.91,-225.24 228.91,-225.24 233.9,-225.55 229.18,-220.75 238.89,-225.85 238.89,-225.85"/>
<text text-anchor="middle" x="303" y="-176.8" font-family="Times,serif" font-size="14.00">O1R3 (r1*((r1r2)|r2r1?*r1)|(r1r2))|((r2r1?*r1)|r2)</text>
</g>
<!-- C2S1&#45;&gt;C2S1 -->
<g id="edge8" class="edge">
<title>C2S1&#45;&gt;C2S1</title>
<path fill="none" stroke="darkgray" d="M371.82,-141.47C382.09,-140.81 389.69,-137.99 389.69,-133 389.69,-129.88 386.72,-127.61 381.99,-126.18"/>
<polygon fill="darkgray" stroke="darkgray" points="382.25,-122.68 371.82,-124.53 381.13,-129.59 382.25,-122.68"/>
<text text-anchor="middle" x="397.69" y="-129.3" font-family="Times,serif" font-size="14.00" fill="darkgray">t4</text>
</g>
<!-- C2S0 -->
<g id="node5" class="node">
<title>C2S0</title>
<polygon fill="white" stroke="black" points="366.87,-30.54 366.87,-45.46 344.1,-56 311.9,-56 289.13,-45.46 289.13,-30.54 311.9,-20 344.1,-20 366.87,-30.54"/>
<polygon fill="none" stroke="black" points="370.89,-27.99 370.89,-48.01 344.99,-60 311.01,-60 285.11,-48.01 285.11,-27.99 311.01,-16 344.99,-16 370.89,-27.99"/>
<text text-anchor="middle" x="328" y="-34.3" font-family="Times,serif" font-size="14.00">C2S0</text>
</g>
<!-- C2S1&#45;&gt;C2S0 -->
<g id="edge7" class="edge">
<title>C2S1&#45;&gt;C2S0</title>
<path fill="none" stroke="darkgray" d="M316.52,-110.78C313.84,-105.18 311.39,-99.02 310,-93 308.22,-85.3 309.31,-77.14 311.65,-69.56"/>
<polygon fill="darkgray" stroke="darkgray" points="315,-70.61 315.31,-60.02 308.46,-68.11 315,-70.61"/>
<text text-anchor="middle" x="318" y="-81.8" font-family="Times,serif" font-size="14.00" fill="darkgray">t2</text>
</g>
<!-- C2S0&#45;&gt;C2S1 -->
<g id="edge9" class="edge">
<title>C2S0&#45;&gt;C2S1</title>
<path fill="none" stroke="darkgray" d="M328.23,-60.02C328.35,-72.01 328.52,-87.28 328.66,-100.66"/>
<polygon fill="darkgray" stroke="darkgray" points="325.17,-100.94 328.77,-110.9 332.17,-100.86 325.17,-100.94"/>
<text text-anchor="middle" x="345.5" y="-81.8" font-family="Times,serif" font-size="14.00" fill="darkgray">t1R1</text>
</g>
<!-- C2S0&#45;&gt;C2S0 -->
<g id="edge10" class="edge">
<title>C2S0&#45;&gt;C2S0</title>
<path fill="none" stroke="darkgray" d="M370.82,-46.47C381.09,-45.81 388.69,-42.99 388.69,-38 388.69,-34.88 385.72,-32.61 380.99,-31.18"/>
<polygon fill="darkgray" stroke="darkgray" points="381.25,-27.68 370.82,-29.53 380.13,-34.59 381.25,-27.68"/>
<text text-anchor="middle" x="396.69" y="-34.3" font-family="Times,serif" font-size="14.00" fill="darkgray">t4</text>
</g>
<!-- C2S0&#45;&gt;C3S3 -->
<g id="edge24" class="edge">
<title>C2S0&#45;&gt;C3S3</title>
<path fill="none" stroke="black" stroke-dasharray="5,2" d="M370.76,-47.97C456.9,-66.62 656.86,-112.92 818,-173 920.03,-211.04 1034.06,-270.23 1091.54,-301.33"/>
<polygon fill="black" stroke="black" points="1100.6,-306.25 1089.67,-305.43 1096.21,-303.86 1091.81,-301.47 1091.81,-301.47 1091.81,-301.47 1096.21,-303.86 1093.96,-297.52 1100.6,-306.25 1100.6,-306.25"/>
<text text-anchor="middle" x="969.5" y="-176.8" font-family="Times,serif" font-size="14.00">O1R3 (r1*(r1r2)|r2r1?*)|(r2r1?*)</text>
</g>
<!-- C2S3&#45;&gt;C2S2 -->
<g id="edge11" class="edge">
<title>C2S3&#45;&gt;C2S2</title>
<path fill="none" stroke="darkgray" d="M67.56,-151.66C55.47,-162.53 45.33,-176.53 55,-188 76.8,-213.87 168.96,-222.58 228.94,-225.51"/>
<polygon fill="darkgray" stroke="darkgray" points="228.86,-229.01 239,-225.96 229.17,-222.02 228.86,-229.01"/>
<text text-anchor="middle" x="72.5" y="-176.8" font-family="Times,serif" font-size="14.00" fill="darkgray">t1R1</text>
</g>
<!-- C2S3&#45;&gt;C2S0 -->
<g id="edge12" class="edge">
<title>C2S3&#45;&gt;C2S0</title>
<path fill="none" stroke="darkgray" d="M125.81,-118.68C167.7,-102.17 239.11,-74.03 284.89,-55.99"/>
<polygon fill="darkgray" stroke="darkgray" points="286.23,-59.22 294.25,-52.3 283.66,-52.71 286.23,-59.22"/>
<text text-anchor="middle" x="241.5" y="-81.8" font-family="Times,serif" font-size="14.00" fill="darkgray">t3R2</text>
</g>
<!-- C3S2 -->
<g id="node9" class="node">
<title>C3S2</title>
<polygon fill="white" stroke="black" points="1157.87,-220.54 1157.87,-235.46 1135.1,-246 1102.9,-246 1080.13,-235.46 1080.13,-220.54 1102.9,-210 1135.1,-210 1157.87,-220.54"/>
<polygon fill="none" stroke="black" points="1161.89,-217.99 1161.89,-238.01 1135.99,-250 1102.01,-250 1076.11,-238.01 1076.11,-217.99 1102.01,-206 1135.99,-206 1161.89,-217.99"/>
<text text-anchor="middle" x="1119" y="-224.3" font-family="Times,serif" font-size="14.00">C3S2</text>
</g>
<!-- C3S3&#45;&gt;C3S2 -->
<g id="edge13" class="edge">
<title>C3S3&#45;&gt;C3S2</title>
<path fill="none" stroke="darkgray" d="M1126.73,-300.9C1125.44,-288.89 1123.8,-273.62 1122.36,-260.24"/>
<polygon fill="darkgray" stroke="darkgray" points="1125.81,-259.59 1121.26,-250.02 1118.85,-260.34 1125.81,-259.59"/>
<text text-anchor="middle" x="1141.5" y="-271.8" font-family="Times,serif" font-size="14.00" fill="darkgray">t1R1</text>
</g>
<!-- C3S0 -->
<g id="node10" class="node">
<title>C3S0</title>
<polygon fill="white" stroke="black" points="1232.87,-30.54 1232.87,-45.46 1210.1,-56 1177.9,-56 1155.13,-45.46 1155.13,-30.54 1177.9,-20 1210.1,-20 1232.87,-30.54"/>
<polygon fill="none" stroke="black" points="1236.89,-27.99 1236.89,-48.01 1210.99,-60 1177.01,-60 1151.11,-48.01 1151.11,-27.99 1177.01,-16 1210.99,-16 1236.89,-27.99"/>
<text text-anchor="middle" x="1194" y="-34.3" font-family="Times,serif" font-size="14.00">C3S0</text>
</g>
<!-- C3S3&#45;&gt;C3S0 -->
<g id="edge14" class="edge">
<title>C3S3&#45;&gt;C3S0</title>
<path fill="none" stroke="darkgray" d="M1149.05,-302.15C1154.12,-296.34 1159.21,-289.73 1163,-283 1168.73,-272.84 1169.2,-269.53 1171,-258 1174.56,-235.17 1179.84,-227.35 1171,-206 1166.67,-195.55 1157.33,-198.45 1153,-188 1150.45,-181.84 1149.13,-178.43 1153,-173 1167.19,-153.08 1190.81,-174.92 1205,-155 1222.51,-130.41 1215.87,-95.09 1207.29,-69.89"/>
<polygon fill="darkgray" stroke="darkgray" points="1210.55,-68.62 1203.82,-60.44 1203.98,-71.03 1210.55,-68.62"/>
<text text-anchor="middle" x="1170.5" y="-176.8" font-family="Times,serif" font-size="14.00" fill="darkgray">t3R2</text>
</g>
<!-- C3S1 -->
<g id="node8" class="node">
<title>C3S1</title>
<polygon fill="white" stroke="black" points="1157.87,-125.54 1157.87,-140.46 1135.1,-151 1102.9,-151 1080.13,-140.46 1080.13,-125.54 1102.9,-115 1135.1,-115 1157.87,-125.54"/>
<polygon fill="none" stroke="black" points="1161.89,-122.99 1161.89,-143.01 1135.99,-155 1102.01,-155 1076.11,-143.01 1076.11,-122.99 1102.01,-111 1135.99,-111 1161.89,-122.99"/>
<text text-anchor="middle" x="1119" y="-129.3" font-family="Times,serif" font-size="14.00">C3S1</text>
</g>
<!-- C3S1&#45;&gt;C2S2 -->
<g id="edge26" class="edge">
<title>C3S1&#45;&gt;C2S2</title>
<path fill="none" stroke="black" stroke-dasharray="5,2" d="M1075.99,-135.22C963.1,-138.7 660.34,-149.96 563,-173 546.13,-176.99 543.68,-183.27 527,-188 462.07,-206.41 384.83,-216.9 334.68,-222.26"/>
<polygon fill="black" stroke="black" points="324.71,-223.3 334.19,-217.79 329.68,-222.78 334.66,-222.26 334.66,-222.26 334.66,-222.26 329.68,-222.78 335.12,-226.74 324.71,-223.3 324.71,-223.3"/>
<text text-anchor="middle" x="690.5" y="-176.8" font-family="Times,serif" font-size="14.00">O1R3 ((r1r1*r2)|r2r1?*r1)|(r1r1*r2)</text>
</g>
<!-- C3S1&#45;&gt;C3S1 -->
<g id="edge16" class="edge">
<title>C3S1&#45;&gt;C3S1</title>
<path fill="none" stroke="darkgray" d="M1161.82,-141.47C1172.09,-140.81 1179.69,-137.99 1179.69,-133 1179.69,-129.88 1176.72,-127.61 1171.99,-126.18"/>
<polygon fill="darkgray" stroke="darkgray" points="1172.25,-122.68 1161.82,-124.53 1171.13,-129.59 1172.25,-122.68"/>
<text text-anchor="middle" x="1187.69" y="-129.3" font-family="Times,serif" font-size="14.00" fill="darkgray">t4</text>
</g>
<!-- C3S1&#45;&gt;C3S0 -->
<g id="edge15" class="edge">
<title>C3S1&#45;&gt;C3S0</title>
<path fill="none" stroke="darkgray" d="M1120.32,-110.96C1121.86,-100.27 1125.14,-87.56 1132,-78 1137.5,-70.34 1145.02,-63.84 1152.92,-58.48"/>
<polygon fill="darkgray" stroke="darkgray" points="1154.93,-61.36 1161.58,-53.11 1151.23,-55.41 1154.93,-61.36"/>
<text text-anchor="middle" x="1140" y="-81.8" font-family="Times,serif" font-size="14.00" fill="darkgray">t2</text>
</g>
<!-- C3S2&#45;&gt;C3S3 -->
<g id="edge17" class="edge">
<title>C3S2&#45;&gt;C3S3</title>
<path fill="none" stroke="darkgray" d="M1106.93,-250.05C1102.69,-260.04 1099.71,-272.14 1103,-283 1103.91,-286.02 1105.15,-289.02 1106.58,-291.93"/>
<polygon fill="darkgray" stroke="darkgray" points="1103.7,-293.94 1111.71,-300.88 1109.77,-290.46 1103.7,-293.94"/>
<text text-anchor="middle" x="1111" y="-271.8" font-family="Times,serif" font-size="14.00" fill="darkgray">t2</text>
</g>
<!-- C3S2&#45;&gt;C3S1 -->
<g id="edge18" class="edge">
<title>C3S2&#45;&gt;C3S1</title>
<path fill="none" stroke="darkgray" d="M1103.02,-205.72C1099.73,-200.22 1096.73,-194.12 1095,-188 1092.74,-180 1094.31,-171.65 1097.52,-163.98"/>
<polygon fill="darkgray" stroke="darkgray" points="1100.66,-165.52 1102.1,-155.02 1094.43,-162.34 1100.66,-165.52"/>
<text text-anchor="middle" x="1112.5" y="-176.8" font-family="Times,serif" font-size="14.00" fill="darkgray">t3R2</text>
</g>
<!-- C3S0&#45;&gt;C3S3 -->
<g id="edge25" class="edge">
<title>C3S0&#45;&gt;C3S3</title>
<path fill="none" stroke="black" stroke-dasharray="5,2" d="M1208.43,-60.01C1211.54,-65.62 1214.38,-71.83 1216,-78 1224.69,-111.1 1220.91,-121.29 1215,-155 1204.61,-214.25 1203.8,-232.57 1171,-283 1167.88,-287.8 1164.04,-292.41 1159.97,-296.67"/>
<polygon fill="black" stroke="black" points="1152.48,-303.94 1156.52,-293.74 1156.07,-300.46 1159.65,-296.97 1159.65,-296.97 1159.65,-296.97 1156.07,-300.46 1162.79,-300.2 1152.48,-303.94 1152.48,-303.94"/>
<text text-anchor="middle" x="1291" y="-176.8" font-family="Times,serif" font-size="14.00">O1R3 (r1r1*r2)|r2r1?*</text>
</g>
<!-- C3S0&#45;&gt;C3S1 -->
<g id="edge19" class="edge">
<title>C3S0&#45;&gt;C3S1</title>
<path fill="none" stroke="darkgray" d="M1177.05,-60.02C1166.8,-72.73 1153.59,-89.11 1142.36,-103.03"/>
<polygon fill="darkgray" stroke="darkgray" points="1139.57,-100.92 1136.02,-110.9 1145.02,-105.31 1139.57,-100.92"/>
<text text-anchor="middle" x="1177.5" y="-81.8" font-family="Times,serif" font-size="14.00" fill="darkgray">t1R1</text>
</g>
<!-- C3S0&#45;&gt;C3S0 -->
<g id="edge20" class="edge">
<title>C3S0&#45;&gt;C3S0</title>
<path fill="none" stroke="darkgray" d="M1236.82,-46.47C1247.09,-45.81 1254.69,-42.99 1254.69,-38 1254.69,-34.88 1251.72,-32.61 1246.99,-31.18"/>
<polygon fill="darkgray" stroke="darkgray" points="1247.25,-27.68 1236.82,-29.53 1246.13,-34.59 1247.25,-27.68"/>
<text text-anchor="middle" x="1262.69" y="-34.3" font-family="Times,serif" font-size="14.00" fill="darkgray">t4</text>
</g>
</g>
</svg>
