<?xml version="1.0" encoding="UTF-8" standalone="no"?>
<!DOCTYPE svg PUBLIC "-//W3C//DTD SVG 1.1//EN"
 "http://www.w3.org/Graphics/SVG/1.1/DTD/svg11.dtd">
<!-- Generated by graphviz version 2.43.0 (0)
 -->
<!-- Title: MONinput/r Pages: 1 -->
<svg width="9380pt" height="180pt"
 viewBox="0.00 0.00 9380.00 179.72" xmlns="http://www.w3.org/2000/svg" xmlns:xlink="http://www.w3.org/1999/xlink">
<g id="graph0" class="graph" transform="scale(1 1) rotate(0) translate(4 175.72)">
<title>MONinput/r</title>
<polygon fill="white" stroke="transparent" points="-4,4 -4,-175.72 9376,-175.72 9376,4 -4,4"/>
<g id="clust1" class="cluster">
<title>cluster0</title>
<path fill="#fff9dd" stroke="#fff9dd" d="M20,-47.46C20,-47.46 66,-47.46 66,-47.46 72,-47.46 78,-53.46 78,-59.46 78,-59.46 78,-110.46 78,-110.46 78,-116.46 72,-122.46 66,-122.46 66,-122.46 20,-122.46 20,-122.46 14,-122.46 8,-116.46 8,-110.46 8,-110.46 8,-59.46 8,-59.46 8,-53.46 14,-47.46 20,-47.46"/>
<text text-anchor="middle" x="43" y="-107.26" font-family="Times,serif" font-size="14.00">aa*</text>
</g>
<g id="clust2" class="cluster">
<title>cluster1</title>
<path fill="#fff9dd" stroke="#fff9dd" d="M184,-18.46C184,-18.46 570,-18.46 570,-18.46 576,-18.46 582,-24.46 582,-30.46 582,-30.46 582,-135.46 582,-135.46 582,-141.46 576,-147.46 570,-147.46 570,-147.46 184,-147.46 184,-147.46 178,-147.46 172,-141.46 172,-135.46 172,-135.46 172,-30.46 172,-30.46 172,-24.46 178,-18.46 184,-18.46"/>
<text text-anchor="middle" x="377" y="-132.26" font-family="Times,serif" font-size="14.00">(aa*c(a*ba)|(a*ab)a*|(a*ba)|(a*ab)a*|(a*b))|(aa*ca+ba*a)</text>
</g>
<g id="clust3" class="cluster">
<title>cluster2</title>
<path fill="#fff9dd" stroke="#fff9dd" d="M960,-8.46C960,-8.46 1834,-8.46 1834,-8.46 1840,-8.46 1846,-14.46 1846,-20.46 1846,-20.46 1846,-125.46 1846,-125.46 1846,-131.46 1840,-137.46 1834,-137.46 1834,-137.46 960,-137.46 960,-137.46 954,-137.46 948,-131.46 948,-125.46 948,-125.46 948,-20.46 948,-20.46 948,-14.46 954,-8.46 960,-8.46"/>
<text text-anchor="middle" x="1397" y="-122.26" font-family="Times,serif" font-size="14.00">((aa*c(a*ba)|(a*ab)a*c)|(aa*ca+ba*ac)(a*ba)|(a*ab)a*|(a*ba)|(a*ab)a*|(a*b))|((aa*c(a*ba)|(a*ab)a*|(a*b)c)|(aa*ca+ba*c)a+ba*a)</text>
</g>
<g id="clust4" class="cluster">
<title>cluster3</title>
<path fill="#fff9dd" stroke="#fff9dd" d="M2453,-8.46C2453,-8.46 4303,-8.46 4303,-8.46 4309,-8.46 4315,-14.46 4315,-20.46 4315,-20.46 4315,-125.46 4315,-125.46 4315,-131.46 4309,-137.46 4303,-137.46 4303,-137.46 2453,-137.46 2453,-137.46 2447,-137.46 2441,-131.46 2441,-125.46 2441,-125.46 2441,-20.46 2441,-20.46 2441,-14.46 2447,-8.46 2453,-8.46"/>
<text text-anchor="middle" x="3378" y="-122.26" font-family="Times,serif" font-size="14.00">(((aa*c(a*ba)|(a*ab)a*c)|(aa*ca+ba*ac)(a*ba)|(a*ab)a*c)|((aa*c(a*ba)|(a*ab)a*|(a*b)c)|(aa*ca+ba*c)a+ba*ac)(a*ba)|(a*ab)a*|(a*ba)|(a*ab)a*|(a*b))|(((aa*c(a*ba)|(a*ab)a*c)|(aa*ca+ba*ac)(a*ba)|(a*ab)a*|(a*b)c)|((aa*c(a*ba)|(a*ab)a*|(a*b)c)|(aa*ca+ba*c)a+ba*c)a+ba*a)</text>
</g>
<g id="clust5" class="cluster">
<title>cluster4</title>
<path fill="#fff9dd" stroke="#fff9dd" d="M5410,-8.46C5410,-8.46 9360,-8.46 9360,-8.46 9366,-8.46 9372,-14.46 9372,-20.46 9372,-20.46 9372,-125.46 9372,-125.46 9372,-131.46 9366,-137.46 9360,-137.46 9360,-137.46 5410,-137.46 5410,-137.46 5404,-137.46 5398,-131.46 5398,-125.46 5398,-125.46 5398,-20.46 5398,-20.46 5398,-14.46 5404,-8.46 5410,-8.46"/>
<text text-anchor="middle" x="7385" y="-122.26" font-family="Times,serif" font-size="14.00">((((aa*c(a*ba)|(a*ab)a*c)|(aa*ca+ba*ac)(a*ba)|(a*ab)a*c)|((aa*c(a*ba)|(a*ab)a*|(a*b)c)|(aa*ca+ba*c)a+ba*ac)(a*ba)|(a*ab)a*c)|(((aa*c(a*ba)|(a*ab)a*c)|(aa*ca+ba*ac)(a*ba)|(a*ab)a*|(a*b)c)|((aa*c(a*ba)|(a*ab)a*|(a*b)c)|(aa*ca+ba*c)a+ba*c)a+ba*ac)(a*a)?|a*|(a*ba)|(a*ab)a*|(a*b)|(a*ba)|(a*ab)a*)|((((aa*c(a*ba)|(a*ab)a*c)|(aa*ca+ba*ac)(a*ba)|(a*ab)a*c)|((aa*c(a*ba)|(a*ab)a*|(a*b)c)|(aa*ca+ba*c)a+ba*ac)(a*ba)|(a*ab)a*|(a*b)c)|(((aa*c(a*ba)|(a*ab)a*c)|(aa*ca+ba*ac)(a*ba)|(a*ab)a*|(a*b)c)|((aa*c(a*ba)|(a*ab)a*|(a*b)c)|(aa*ca+ba*c)a+ba*c)a+ba*c)a+?|a+ba*a|a+ba*)</text>
</g>
<!-- M0S0 -->
<g id="node1" class="node">
<title>M0S0</title>
<path fill="#ffffff" stroke="black" d="M58,-91.46C58,-91.46 28,-91.46 28,-91.46 22,-91.46 16,-85.46 16,-79.46 16,-79.46 16,-67.46 16,-67.46 16,-61.46 22,-55.46 28,-55.46 28,-55.46 58,-55.46 58,-55.46 64,-55.46 70,-61.46 70,-67.46 70,-67.46 70,-79.46 70,-79.46 70,-85.46 64,-91.46 58,-91.46"/>
<text text-anchor="middle" x="43" y="-69.76" font-family="Times,serif" font-size="14.00">0</text>
</g>
<!-- M1S1 -->
<g id="node2" class="node">
<title>M1S1</title>
<path fill="#ffffff" stroke="black" d="M392,-116.46C392,-116.46 362,-116.46 362,-116.46 356,-116.46 350,-110.46 350,-104.46 350,-104.46 350,-92.46 350,-92.46 350,-86.46 356,-80.46 362,-80.46 362,-80.46 392,-80.46 392,-80.46 398,-80.46 404,-86.46 404,-92.46 404,-92.46 404,-104.46 404,-104.46 404,-110.46 398,-116.46 392,-116.46"/>
<text text-anchor="middle" x="377" y="-94.76" font-family="Times,serif" font-size="14.00">1</text>
</g>
<!-- M0S0&#45;&gt;M1S1 -->
<g id="edge1" class="edge">
<title>M0S0&#45;&gt;M1S1</title>
<path fill="none" stroke="black" d="M70.05,-75.42C128.82,-79.85 271.82,-90.62 339.43,-95.71"/>
<polygon fill="black" stroke="black" points="339.38,-99.21 349.61,-96.47 339.9,-92.23 339.38,-99.21"/>
<text text-anchor="middle" x="125" y="-85.26" font-family="Times,serif" font-size="14.00">(aa*, aa*c)</text>
</g>
<!-- M1S2 -->
<g id="node3" class="node">
<title>M1S2</title>
<path fill="#ffffff" stroke="black" d="M392,-62.46C392,-62.46 362,-62.46 362,-62.46 356,-62.46 350,-56.46 350,-50.46 350,-50.46 350,-38.46 350,-38.46 350,-32.46 356,-26.46 362,-26.46 362,-26.46 392,-26.46 392,-26.46 398,-26.46 404,-32.46 404,-38.46 404,-38.46 404,-50.46 404,-50.46 404,-56.46 398,-62.46 392,-62.46"/>
<text text-anchor="middle" x="377" y="-40.76" font-family="Times,serif" font-size="14.00">2</text>
</g>
<!-- M0S0&#45;&gt;M1S2 -->
<g id="edge2" class="edge">
<title>M0S0&#45;&gt;M1S2</title>
<path fill="none" stroke="black" d="M70.15,-62.48C75.94,-60.47 82.1,-58.64 88,-57.46 177.04,-39.7 284.51,-40.58 339.57,-42.6"/>
<polygon fill="black" stroke="black" points="339.73,-46.11 349.87,-43.02 340.02,-39.12 339.73,-46.11"/>
<text text-anchor="middle" x="125" y="-61.26" font-family="Times,serif" font-size="14.00">(aa*, aa*c)</text>
</g>
<!-- M2S1 -->
<g id="node4" class="node">
<title>M2S1</title>
<path fill="#ffffff" stroke="black" d="M1412,-106.46C1412,-106.46 1382,-106.46 1382,-106.46 1376,-106.46 1370,-100.46 1370,-94.46 1370,-94.46 1370,-82.46 1370,-82.46 1370,-76.46 1376,-70.46 1382,-70.46 1382,-70.46 1412,-70.46 1412,-70.46 1418,-70.46 1424,-76.46 1424,-82.46 1424,-82.46 1424,-94.46 1424,-94.46 1424,-100.46 1418,-106.46 1412,-106.46"/>
<text text-anchor="middle" x="1397" y="-84.76" font-family="Times,serif" font-size="14.00">1</text>
</g>
<!-- M1S1&#45;&gt;M2S1 -->
<g id="edge3" class="edge">
<title>M1S1&#45;&gt;M2S1</title>
<path fill="none" stroke="black" d="M404.02,-99.75C444.29,-101.67 524.16,-105.19 592,-106.46 745.75,-109.33 784.25,-109.48 938,-106.46 1095.1,-103.38 1282.34,-94.34 1359.75,-90.37"/>
<polygon fill="black" stroke="black" points="1360.13,-93.86 1369.93,-89.84 1359.77,-86.86 1360.13,-93.86"/>
<text text-anchor="middle" x="765" y="-112.26" font-family="Times,serif" font-size="14.00">((a*ba)|(a*ab)a*, aa*c(a*ba)|(a*ab)a*c)</text>
</g>
<!-- M2S2 -->
<g id="node5" class="node">
<title>M2S2</title>
<path fill="#ffffff" stroke="black" d="M1412,-52.46C1412,-52.46 1382,-52.46 1382,-52.46 1376,-52.46 1370,-46.46 1370,-40.46 1370,-40.46 1370,-28.46 1370,-28.46 1370,-22.46 1376,-16.46 1382,-16.46 1382,-16.46 1412,-16.46 1412,-16.46 1418,-16.46 1424,-22.46 1424,-28.46 1424,-28.46 1424,-40.46 1424,-40.46 1424,-46.46 1418,-52.46 1412,-52.46"/>
<text text-anchor="middle" x="1397" y="-30.76" font-family="Times,serif" font-size="14.00">2</text>
</g>
<!-- M1S1&#45;&gt;M2S2 -->
<g id="edge4" class="edge">
<title>M1S1&#45;&gt;M2S2</title>
<path fill="none" stroke="black" d="M404.09,-97.11C514.14,-91.41 934.8,-69.56 938,-68.46 943.13,-66.69 942.88,-63.25 948,-61.46 1093.46,-10.75 1281.44,-22.26 1359.51,-30.13"/>
<polygon fill="black" stroke="black" points="1359.47,-33.65 1369.78,-31.21 1360.2,-26.69 1359.47,-33.65"/>
<text text-anchor="middle" x="765" y="-90.26" font-family="Times,serif" font-size="14.00">((a*ba)|(a*ab)a*|(a*b), aa*c(a*ba)|(a*ab)a*|(a*b)c)</text>
</g>
<!-- M1S2&#45;&gt;M2S1 -->
<g id="edge6" class="edge">
<title>M1S2&#45;&gt;M2S1</title>
<path fill="none" stroke="black" d="M404.09,-42.67C500.76,-36.37 838.05,-17.49 938,-53.46 943.36,-55.39 942.69,-59.42 948,-61.46 1091.94,-116.87 1281.12,-102.74 1359.53,-93.47"/>
<polygon fill="black" stroke="black" points="1360.35,-96.9 1369.84,-92.21 1359.49,-89.95 1360.35,-96.9"/>
<text text-anchor="middle" x="765" y="-57.26" font-family="Times,serif" font-size="14.00">(a+ba*a, aa*ca+ba*ac)</text>
</g>
<!-- M1S2&#45;&gt;M2S2 -->
<g id="edge5" class="edge">
<title>M1S2&#45;&gt;M2S2</title>
<path fill="none" stroke="black" d="M404.24,-39.74C444.48,-32.77 523.92,-20.05 592,-15.46 887.88,4.5 1246.24,-21.74 1359.73,-31.26"/>
<polygon fill="black" stroke="black" points="1359.67,-34.77 1369.93,-32.13 1360.27,-27.79 1359.67,-34.77"/>
<text text-anchor="middle" x="765" y="-19.26" font-family="Times,serif" font-size="14.00">(a+ba*, aa*ca+ba*c)</text>
</g>
<!-- M3S1 -->
<g id="node6" class="node">
<title>M3S1</title>
<path fill="#ffffff" stroke="black" d="M3393,-106.46C3393,-106.46 3363,-106.46 3363,-106.46 3357,-106.46 3351,-100.46 3351,-94.46 3351,-94.46 3351,-82.46 3351,-82.46 3351,-76.46 3357,-70.46 3363,-70.46 3363,-70.46 3393,-70.46 3393,-70.46 3399,-70.46 3405,-76.46 3405,-82.46 3405,-82.46 3405,-94.46 3405,-94.46 3405,-100.46 3399,-106.46 3393,-106.46"/>
<text text-anchor="middle" x="3378" y="-84.76" font-family="Times,serif" font-size="14.00">1</text>
</g>
<!-- M2S1&#45;&gt;M3S1 -->
<g id="edge7" class="edge">
<title>M2S1&#45;&gt;M3S1</title>
<path fill="none" stroke="black" d="M1424.08,-89.08C1494.01,-90.69 1691.59,-95.03 1856,-96.46 2449.28,-101.64 3172.77,-91.57 3340.92,-89.02"/>
<polygon fill="black" stroke="black" points="3341.02,-92.52 3350.96,-88.87 3340.91,-85.52 3341.02,-92.52"/>
<text text-anchor="middle" x="2143.5" y="-101.26" font-family="Times,serif" font-size="14.00">((a*ba)|(a*ab)a*, (aa*c(a*ba)|(a*ab)a*c)|(aa*ca+ba*ac)(a*ba)|(a*ab)a*c)</text>
</g>
<!-- M3S2 -->
<g id="node7" class="node">
<title>M3S2</title>
<path fill="#ffffff" stroke="black" d="M3393,-52.46C3393,-52.46 3363,-52.46 3363,-52.46 3357,-52.46 3351,-46.46 3351,-40.46 3351,-40.46 3351,-28.46 3351,-28.46 3351,-22.46 3357,-16.46 3363,-16.46 3363,-16.46 3393,-16.46 3393,-16.46 3399,-16.46 3405,-22.46 3405,-28.46 3405,-28.46 3405,-40.46 3405,-40.46 3405,-46.46 3399,-52.46 3393,-52.46"/>
<text text-anchor="middle" x="3378" y="-30.76" font-family="Times,serif" font-size="14.00">2</text>
</g>
<!-- M2S1&#45;&gt;M3S2 -->
<g id="edge8" class="edge">
<title>M2S1&#45;&gt;M3S2</title>
<path fill="none" stroke="black" d="M1424.11,-87.75C1637.37,-81.93 3091.17,-42.26 3340.61,-35.45"/>
<polygon fill="black" stroke="black" points="3341.03,-38.94 3350.93,-35.17 3340.84,-31.95 3341.03,-38.94"/>
<text text-anchor="middle" x="2143.5" y="-79.26" font-family="Times,serif" font-size="14.00">((a*ba)|(a*ab)a*|(a*b), (aa*c(a*ba)|(a*ab)a*c)|(aa*ca+ba*ac)(a*ba)|(a*ab)a*|(a*b)c)</text>
</g>
<!-- M2S2&#45;&gt;M3S1 -->
<g id="edge10" class="edge">
<title>M2S2&#45;&gt;M3S1</title>
<path fill="none" stroke="black" d="M1424.12,-33.87C1580.45,-30.43 2387.02,-14.07 2431,-41.46 2439.44,-46.71 2432.62,-56.11 2441,-61.46 2739.84,-252.17 3208.74,-137.57 3341.13,-99.42"/>
<polygon fill="black" stroke="black" points="3342.16,-102.76 3350.78,-96.6 3340.2,-96.04 3342.16,-102.76"/>
<text text-anchor="middle" x="2143.5" y="-45.26" font-family="Times,serif" font-size="14.00">(a+ba*a, (aa*c(a*ba)|(a*ab)a*|(a*b)c)|(aa*ca+ba*c)a+ba*ac)</text>
</g>
<!-- M2S2&#45;&gt;M3S2 -->
<g id="edge9" class="edge">
<title>M2S2&#45;&gt;M3S2</title>
<path fill="none" stroke="black" d="M1424.05,-32.23C1493.92,-26.38 1691.36,-10.67 1856,-5.46 2449.11,13.3 3172.73,-23.21 3340.91,-32.42"/>
<polygon fill="black" stroke="black" points="3340.78,-35.92 3350.95,-32.98 3341.16,-28.93 3340.78,-35.92"/>
<text text-anchor="middle" x="2143.5" y="-9.26" font-family="Times,serif" font-size="14.00">(a+ba*, (aa*c(a*ba)|(a*ab)a*|(a*b)c)|(aa*ca+ba*c)a+ba*c)</text>
</g>
<!-- M4S1 -->
<g id="node8" class="node">
<title>M4S1</title>
<path fill="#ffffff" stroke="black" d="M7400,-106.46C7400,-106.46 7370,-106.46 7370,-106.46 7364,-106.46 7358,-100.46 7358,-94.46 7358,-94.46 7358,-82.46 7358,-82.46 7358,-76.46 7364,-70.46 7370,-70.46 7370,-70.46 7400,-70.46 7400,-70.46 7406,-70.46 7412,-76.46 7412,-82.46 7412,-82.46 7412,-94.46 7412,-94.46 7412,-100.46 7406,-106.46 7400,-106.46"/>
<text text-anchor="middle" x="7385" y="-84.76" font-family="Times,serif" font-size="14.00">1</text>
</g>
<!-- M3S1&#45;&gt;M4S1 -->
<g id="edge11" class="edge">
<title>M3S1&#45;&gt;M4S1</title>
<path fill="none" stroke="black" d="M3405.33,-88.77C3516.74,-90.04 3960.39,-94.92 4325,-96.46 5567.78,-101.72 7094.6,-90.68 7347.69,-88.74"/>
<polygon fill="black" stroke="black" points="7347.83,-92.24 7357.8,-88.67 7347.77,-85.24 7347.83,-92.24"/>
<text text-anchor="middle" x="4856.5" y="-101.26" font-family="Times,serif" font-size="14.00">((a*ba)|(a*ab)a*, ((aa*c(a*ba)|(a*ab)a*c)|(aa*ca+ba*ac)(a*ba)|(a*ab)a*c)|((aa*c(a*ba)|(a*ab)a*|(a*b)c)|(aa*ca+ba*c)a+ba*ac)(a*ba)|(a*ab)a*c)</text>
</g>
<!-- M4S2 -->
<g id="node9" class="node">
<title>M4S2</title>
<path fill="#ffffff" stroke="black" d="M7400,-52.46C7400,-52.46 7370,-52.46 7370,-52.46 7364,-52.46 7358,-46.46 7358,-40.46 7358,-40.46 7358,-28.46 7358,-28.46 7358,-22.46 7364,-16.46 7370,-16.46 7370,-16.46 7400,-16.46 7400,-16.46 7406,-16.46 7412,-22.46 7412,-28.46 7412,-28.46 7412,-40.46 7412,-40.46 7412,-46.46 7406,-52.46 7400,-52.46"/>
<text text-anchor="middle" x="7385" y="-30.76" font-family="Times,serif" font-size="14.00">2</text>
</g>
<!-- M3S1&#45;&gt;M4S2 -->
<g id="edge12" class="edge">
<title>M3S1&#45;&gt;M4S2</title>
<path fill="none" stroke="black" d="M3405.1,-88.11C3729.13,-83.74 6967.59,-40.08 7347.65,-34.95"/>
<polygon fill="black" stroke="black" points="7347.86,-38.45 7357.81,-34.81 7347.76,-31.45 7347.86,-38.45"/>
<text text-anchor="middle" x="4856.5" y="-79.26" font-family="Times,serif" font-size="14.00">((a*ba)|(a*ab)a*|(a*b), ((aa*c(a*ba)|(a*ab)a*c)|(aa*ca+ba*ac)(a*ba)|(a*ab)a*c)|((aa*c(a*ba)|(a*ab)a*|(a*b)c)|(aa*ca+ba*c)a+ba*ac)(a*ba)|(a*ab)a*|(a*b)c)</text>
</g>
<!-- M3S2&#45;&gt;M4S1 -->
<g id="edge14" class="edge">
<title>M3S2&#45;&gt;M4S1</title>
<path fill="none" stroke="black" d="M3405.26,-34.19C3638.2,-31.83 5343.55,-15.5 5388,-42.46 5396.16,-47.41 5389.86,-56.47 5398,-61.46 5740.9,-271.67 7108.02,-121.19 7347.96,-92.83"/>
<polygon fill="black" stroke="black" points="7348.39,-96.3 7357.9,-91.64 7347.56,-89.35 7348.39,-96.3"/>
<text text-anchor="middle" x="4856.5" y="-46.26" font-family="Times,serif" font-size="14.00">(a+ba*a, ((aa*c(a*ba)|(a*ab)a*c)|(aa*ca+ba*ac)(a*ba)|(a*ab)a*|(a*b)c)|((aa*c(a*ba)|(a*ab)a*|(a*b)c)|(aa*ca+ba*c)a+ba*c)a+ba*ac)</text>
</g>
<!-- M3S2&#45;&gt;M4S2 -->
<g id="edge13" class="edge">
<title>M3S2&#45;&gt;M4S2</title>
<path fill="none" stroke="black" d="M3405.33,-33.36C3516.71,-28.75 3960.27,-11.05 4325,-5.46 5567.7,13.58 7094.58,-26.42 7347.68,-33.43"/>
<polygon fill="black" stroke="black" points="7347.7,-36.94 7357.8,-33.72 7347.9,-29.94 7347.7,-36.94"/>
<text text-anchor="middle" x="4856.5" y="-9.26" font-family="Times,serif" font-size="14.00">(a+ba*, ((aa*c(a*ba)|(a*ab)a*c)|(aa*ca+ba*ac)(a*ba)|(a*ab)a*|(a*b)c)|((aa*c(a*ba)|(a*ab)a*|(a*b)c)|(aa*ca+ba*c)a+ba*c)a+ba*c)</text>
</g>
</g>
</svg>
