<?xml version="1.0" encoding="UTF-8" standalone="no"?>
<!DOCTYPE svg PUBLIC "-//W3C//DTD SVG 1.1//EN"
 "http://www.w3.org/Graphics/SVG/1.1/DTD/svg11.dtd">
<!-- Generated by graphviz version 2.43.0 (0)
 -->
<!-- Title: MONinput/r Pages: 1 -->
<svg width="6388pt" height="364pt"
 viewBox="0.00 0.00 6388.00 363.50" xmlns="http://www.w3.org/2000/svg" xmlns:xlink="http://www.w3.org/1999/xlink">
<g id="graph0" class="graph" transform="scale(1 1) rotate(0) translate(4 359.5)">
<title>MONinput/r</title>
<polygon fill="white" stroke="transparent" points="-4,4 -4,-359.5 6384,-359.5 6384,4 -4,4"/>
<g id="clust1" class="cluster">
<title>cluster0</title>
<path fill="#fff9dd" stroke="#fff9dd" d="M20,-60.5C20,-60.5 66,-60.5 66,-60.5 72,-60.5 78,-66.5 78,-72.5 78,-72.5 78,-123.5 78,-123.5 78,-129.5 72,-135.5 66,-135.5 66,-135.5 20,-135.5 20,-135.5 14,-135.5 8,-129.5 8,-123.5 8,-123.5 8,-72.5 8,-72.5 8,-66.5 14,-60.5 20,-60.5"/>
<text text-anchor="middle" x="43" y="-120.3" font-family="Times,serif" font-size="14.00">aa*</text>
</g>
<g id="clust2" class="cluster">
<title>cluster1</title>
<path fill="#fff9dd" stroke="#fff9dd" d="M184,-31.5C184,-31.5 663,-31.5 663,-31.5 669,-31.5 675,-37.5 675,-43.5 675,-43.5 675,-148.5 675,-148.5 675,-154.5 669,-160.5 663,-160.5 663,-160.5 184,-160.5 184,-160.5 178,-160.5 172,-154.5 172,-148.5 172,-148.5 172,-43.5 172,-43.5 172,-37.5 178,-31.5 184,-31.5"/>
<text text-anchor="middle" x="423.5" y="-145.3" font-family="Times,serif" font-size="14.00">(aa*c(a*ab)|(a*ba)a*|(a*ab)|(a*ba)a*|(a*b))|(aa*ca+ba*|a+ba*a|(a+b))</text>
</g>
<g id="clust3" class="cluster">
<title>cluster2</title>
<path fill="#fff9dd" stroke="#fff9dd" d="M1053,-40.5C1053,-40.5 1744,-40.5 1744,-40.5 1750,-40.5 1756,-46.5 1756,-52.5 1756,-52.5 1756,-172.5 1756,-172.5 1756,-178.5 1750,-184.5 1744,-184.5 1744,-184.5 1053,-184.5 1053,-184.5 1047,-184.5 1041,-178.5 1041,-172.5 1041,-172.5 1041,-52.5 1041,-52.5 1041,-46.5 1047,-40.5 1053,-40.5"/>
<text text-anchor="middle" x="1398.5" y="-169.3" font-family="Times,serif" font-size="14.00">((aa*c(a*ab)|(a*ba)a*c)|(aa*ca+ba*a|(a+b)c)(a*ab)|(a*ba)a*|(a*ab)|(a*ba)a*|(a*b))|((aa*c(a*ab)|(a*ba</text>
<text text-anchor="middle" x="1398.5" y="-154.3" font-family="Times,serif" font-size="14.00">)a*|(a*b)c)|(aa*ca+ba*c)a+ba*|a+ba*a|(a+b))</text>
</g>
<g id="clust4" class="cluster">
<title>cluster3</title>
<path fill="#fff9dd" stroke="#fff9dd" d="M2407,-51.5C2407,-51.5 3109,-51.5 3109,-51.5 3115,-51.5 3121,-57.5 3121,-63.5 3121,-63.5 3121,-198.5 3121,-198.5 3121,-204.5 3115,-210.5 3109,-210.5 3109,-210.5 2407,-210.5 2407,-210.5 2401,-210.5 2395,-204.5 2395,-198.5 2395,-198.5 2395,-63.5 2395,-63.5 2395,-57.5 2401,-51.5 2407,-51.5"/>
<text text-anchor="middle" x="2758" y="-195.3" font-family="Times,serif" font-size="14.00">(((aa*c(a*ab)|(a*ba)a*c)|(aa*ca+ba*a|(a+b)c)(a*ab)|(a*ba)a*c)|((aa*c(a*ab)|(a*ba)a*|(a*b)c)|(aa*ca+b</text>
<text text-anchor="middle" x="2758" y="-180.3" font-family="Times,serif" font-size="14.00">a*c)a+ba*a|(a+b)c)(a*ab)|(a*ba)a*|(a*ab)|(a*ba)a*|(a*b))|(((aa*c(a*ab)|(a*ba)a*c)|(aa*ca+ba*a|(a+b)c</text>
<text text-anchor="middle" x="2758" y="-165.3" font-family="Times,serif" font-size="14.00">)(a*ab)|(a*ba)a*|(a*b)c)|((aa*c(a*ab)|(a*ba)a*|(a*b)c)|(aa*ca+ba*c)a+ba*c)a+ba*|a+ba*a|(a+b))</text>
</g>
<g id="clust5" class="cluster">
<title>cluster4</title>
<path fill="#fff9dd" stroke="#fff9dd" d="M4019,-86.5C4019,-86.5 4732,-86.5 4732,-86.5 4738,-86.5 4744,-92.5 4744,-98.5 4744,-98.5 4744,-278.5 4744,-278.5 4744,-284.5 4738,-290.5 4732,-290.5 4732,-290.5 4019,-290.5 4019,-290.5 4013,-290.5 4007,-284.5 4007,-278.5 4007,-278.5 4007,-98.5 4007,-98.5 4007,-92.5 4013,-86.5 4019,-86.5"/>
<text text-anchor="middle" x="4375.5" y="-275.3" font-family="Times,serif" font-size="14.00">((((aa*c(a*ab)|(a*ba)a*c)|(aa*ca+ba*a|(a+b)c)(a*ab)|(a*ba)a*c)|((aa*c(a*ab)|(a*ba)a*|(a*b)c)|(aa*ca+</text>
<text text-anchor="middle" x="4375.5" y="-260.3" font-family="Times,serif" font-size="14.00">ba*c)a+ba*a|(a+b)c)(a*ab)|(a*ba)a*c)|(((aa*c(a*ab)|(a*ba)a*c)|(aa*ca+ba*a|(a+b)c)(a*ab)|(a*ba)a*|(a*</text>
<text text-anchor="middle" x="4375.5" y="-245.3" font-family="Times,serif" font-size="14.00">b)c)|((aa*c(a*ab)|(a*ba)a*|(a*b)c)|(aa*ca+ba*c)a+ba*c)a+ba*a|(a+b)c)(a*ab)|(a*ba)a*|(a*ab)|(a*ba)a*|</text>
<text text-anchor="middle" x="4375.5" y="-230.3" font-family="Times,serif" font-size="14.00">(a*b))|((((aa*c(a*ab)|(a*ba)a*c)|(aa*ca+ba*a|(a+b)c)(a*ab)|(a*ba)a*c)|((aa*c(a*ab)|(a*ba)a*|(a*b)c)|</text>
<text text-anchor="middle" x="4375.5" y="-215.3" font-family="Times,serif" font-size="14.00">(aa*ca+ba*c)a+ba*a|(a+b)c)(a*ab)|(a*ba)a*|(a*b)c)|(((aa*c(a*ab)|(a*ba)a*c)|(aa*ca+ba*a|(a+b)c)(a*ab)</text>
<text text-anchor="middle" x="4375.5" y="-200.3" font-family="Times,serif" font-size="14.00">|(a*ba)a*|(a*b)c)|((aa*c(a*ab)|(a*ba)a*|(a*b)c)|(aa*ca+ba*c)a+ba*c)a+ba*c)a+ba*|a+ba*a|(a+b))</text>
</g>
<g id="clust6" class="cluster">
<title>cluster5</title>
<path fill="#fff9dd" stroke="#fff9dd" d="M5639,-38.5C5639,-38.5 6368,-38.5 6368,-38.5 6374,-38.5 6380,-44.5 6380,-50.5 6380,-50.5 6380,-335.5 6380,-335.5 6380,-341.5 6374,-347.5 6368,-347.5 6368,-347.5 5639,-347.5 5639,-347.5 5633,-347.5 5627,-341.5 5627,-335.5 5627,-335.5 5627,-50.5 5627,-50.5 5627,-44.5 5633,-38.5 5639,-38.5"/>
<text text-anchor="middle" x="6003.5" y="-332.3" font-family="Times,serif" font-size="14.00">(((((aa*c(a*ab)|(a*ba)a*c)|(aa*ca+ba*a|(a+b)c)(a*ab)|(a*ba)a*c)|((aa*c(a*ab)|(a*ba)a*|(a*b)c)|(aa*ca</text>
<text text-anchor="middle" x="6003.5" y="-317.3" font-family="Times,serif" font-size="14.00">+ba*c)a+ba*a|(a+b)c)(a*ab)|(a*ba)a*c)|(((aa*c(a*ab)|(a*ba)a*c)|(aa*ca+ba*a|(a+b)c)(a*ab)|(a*ba)a*|(a</text>
<text text-anchor="middle" x="6003.5" y="-302.3" font-family="Times,serif" font-size="14.00">*b)c)|((aa*c(a*ab)|(a*ba)a*|(a*b)c)|(aa*ca+ba*c)a+ba*c)a+ba*a|(a+b)c)(a*ab)|(a*ba)a*c)|((((aa*c(a*ab</text>
<text text-anchor="middle" x="6003.5" y="-287.3" font-family="Times,serif" font-size="14.00">)|(a*ba)a*c)|(aa*ca+ba*a|(a+b)c)(a*ab)|(a*ba)a*c)|((aa*c(a*ab)|(a*ba)a*|(a*b)c)|(aa*ca+ba*c)a+ba*a|(</text>
<text text-anchor="middle" x="6003.5" y="-272.3" font-family="Times,serif" font-size="14.00">a+b)c)(a*ab)|(a*ba)a*|(a*b)c)|(((aa*c(a*ab)|(a*ba)a*c)|(aa*ca+ba*a|(a+b)c)(a*ab)|(a*ba)a*|(a*b)c)|((</text>
<text text-anchor="middle" x="6003.5" y="-257.3" font-family="Times,serif" font-size="14.00">aa*c(a*ab)|(a*ba)a*|(a*b)c)|(aa*ca+ba*c)a+ba*c)a+ba*c)a+ba*a|(a+b)c)(a*a)?|a*|(a*ab)|(a*ba)a*|(a*b)|</text>
<text text-anchor="middle" x="6003.5" y="-242.3" font-family="Times,serif" font-size="14.00">(a*ab)|(a*ba)a*)|(((((aa*c(a*ab)|(a*ba)a*c)|(aa*ca+ba*a|(a+b)c)(a*ab)|(a*ba)a*c)|((aa*c(a*ab)|(a*ba)</text>
<text text-anchor="middle" x="6003.5" y="-227.3" font-family="Times,serif" font-size="14.00">a*|(a*b)c)|(aa*ca+ba*c)a+ba*a|(a+b)c)(a*ab)|(a*ba)a*c)|(((aa*c(a*ab)|(a*ba)a*c)|(aa*ca+ba*a|(a+b)c)(</text>
<text text-anchor="middle" x="6003.5" y="-212.3" font-family="Times,serif" font-size="14.00">a*ab)|(a*ba)a*|(a*b)c)|((aa*c(a*ab)|(a*ba)a*|(a*b)c)|(aa*ca+ba*c)a+ba*c)a+ba*a|(a+b)c)(a*ab)|(a*ba)a</text>
<text text-anchor="middle" x="6003.5" y="-197.3" font-family="Times,serif" font-size="14.00">*|(a*b)c)|((((aa*c(a*ab)|(a*ba)a*c)|(aa*ca+ba*a|(a+b)c)(a*ab)|(a*ba)a*c)|((aa*c(a*ab)|(a*ba)a*|(a*b)</text>
<text text-anchor="middle" x="6003.5" y="-182.3" font-family="Times,serif" font-size="14.00">c)|(aa*ca+ba*c)a+ba*a|(a+b)c)(a*ab)|(a*ba)a*|(a*b)c)|(((aa*c(a*ab)|(a*ba)a*c)|(aa*ca+ba*a|(a+b)c)(a*</text>
<text text-anchor="middle" x="6003.5" y="-167.3" font-family="Times,serif" font-size="14.00">ab)|(a*ba)a*|(a*b)c)|((aa*c(a*ab)|(a*ba)a*|(a*b)c)|(aa*ca+ba*c)a+ba*c)a+ba*c)a+ba*c)a+?|a+ba*a|(a+b)</text>
<text text-anchor="middle" x="6003.5" y="-152.3" font-family="Times,serif" font-size="14.00">|a+ba*)</text>
</g>
<!-- M0S0 -->
<g id="node1" class="node">
<title>M0S0</title>
<path fill="#ffffff" stroke="black" d="M58,-104.5C58,-104.5 28,-104.5 28,-104.5 22,-104.5 16,-98.5 16,-92.5 16,-92.5 16,-80.5 16,-80.5 16,-74.5 22,-68.5 28,-68.5 28,-68.5 58,-68.5 58,-68.5 64,-68.5 70,-74.5 70,-80.5 70,-80.5 70,-92.5 70,-92.5 70,-98.5 64,-104.5 58,-104.5"/>
<text text-anchor="middle" x="43" y="-82.8" font-family="Times,serif" font-size="14.00">0</text>
</g>
<!-- M1S1 -->
<g id="node2" class="node">
<title>M1S1</title>
<path fill="#ffffff" stroke="black" d="M438,-129.5C438,-129.5 408,-129.5 408,-129.5 402,-129.5 396,-123.5 396,-117.5 396,-117.5 396,-105.5 396,-105.5 396,-99.5 402,-93.5 408,-93.5 408,-93.5 438,-93.5 438,-93.5 444,-93.5 450,-99.5 450,-105.5 450,-105.5 450,-117.5 450,-117.5 450,-123.5 444,-129.5 438,-129.5"/>
<text text-anchor="middle" x="423" y="-107.8" font-family="Times,serif" font-size="14.00">1</text>
</g>
<!-- M0S0&#45;&gt;M1S1 -->
<g id="edge1" class="edge">
<title>M0S0&#45;&gt;M1S1</title>
<path fill="none" stroke="black" d="M70.28,-88.24C136.48,-92.62 310.2,-104.11 385.89,-109.12"/>
<polygon fill="black" stroke="black" points="385.68,-112.61 395.89,-109.78 386.15,-105.62 385.68,-112.61"/>
<text text-anchor="middle" x="125" y="-97.3" font-family="Times,serif" font-size="14.00">(aa*, aa*c)</text>
</g>
<!-- M1S2 -->
<g id="node3" class="node">
<title>M1S2</title>
<path fill="#ffffff" stroke="black" d="M438,-75.5C438,-75.5 408,-75.5 408,-75.5 402,-75.5 396,-69.5 396,-63.5 396,-63.5 396,-51.5 396,-51.5 396,-45.5 402,-39.5 408,-39.5 408,-39.5 438,-39.5 438,-39.5 444,-39.5 450,-45.5 450,-51.5 450,-51.5 450,-63.5 450,-63.5 450,-69.5 444,-75.5 438,-75.5"/>
<text text-anchor="middle" x="423" y="-53.8" font-family="Times,serif" font-size="14.00">2</text>
</g>
<!-- M0S0&#45;&gt;M1S2 -->
<g id="edge2" class="edge">
<title>M0S0&#45;&gt;M1S2</title>
<path fill="none" stroke="black" d="M70.15,-75.5C75.93,-73.49 82.1,-71.66 88,-70.5 194.58,-49.58 323.86,-52.3 385.67,-55.28"/>
<polygon fill="black" stroke="black" points="385.53,-58.78 395.7,-55.8 385.89,-51.79 385.53,-58.78"/>
<text text-anchor="middle" x="125" y="-74.3" font-family="Times,serif" font-size="14.00">(aa*, aa*c)</text>
</g>
<!-- M2S1 -->
<g id="node4" class="node">
<title>M2S1</title>
<path fill="#ffffff" stroke="black" d="M1413,-138.5C1413,-138.5 1383,-138.5 1383,-138.5 1377,-138.5 1371,-132.5 1371,-126.5 1371,-126.5 1371,-114.5 1371,-114.5 1371,-108.5 1377,-102.5 1383,-102.5 1383,-102.5 1413,-102.5 1413,-102.5 1419,-102.5 1425,-108.5 1425,-114.5 1425,-114.5 1425,-126.5 1425,-126.5 1425,-132.5 1419,-138.5 1413,-138.5"/>
<text text-anchor="middle" x="1398" y="-116.8" font-family="Times,serif" font-size="14.00">1</text>
</g>
<!-- M1S1&#45;&gt;M2S1 -->
<g id="edge3" class="edge">
<title>M1S1&#45;&gt;M2S1</title>
<path fill="none" stroke="black" d="M450.3,-112.56C497.36,-114.41 599.1,-118.13 685,-119.5 944,-123.65 1256.06,-121.68 1360.77,-120.83"/>
<polygon fill="black" stroke="black" points="1360.84,-124.33 1370.81,-120.74 1360.78,-117.33 1360.84,-124.33"/>
<text text-anchor="middle" x="858" y="-125.3" font-family="Times,serif" font-size="14.00">((a*ab)|(a*ba)a*, aa*c(a*ab)|(a*ba)a*c)</text>
</g>
<!-- M2S2 -->
<g id="node5" class="node">
<title>M2S2</title>
<path fill="#ffffff" stroke="black" d="M1413,-84.5C1413,-84.5 1383,-84.5 1383,-84.5 1377,-84.5 1371,-78.5 1371,-72.5 1371,-72.5 1371,-60.5 1371,-60.5 1371,-54.5 1377,-48.5 1383,-48.5 1383,-48.5 1413,-48.5 1413,-48.5 1419,-48.5 1425,-54.5 1425,-60.5 1425,-60.5 1425,-72.5 1425,-72.5 1425,-78.5 1419,-84.5 1413,-84.5"/>
<text text-anchor="middle" x="1398" y="-62.8" font-family="Times,serif" font-size="14.00">2</text>
</g>
<!-- M1S1&#45;&gt;M2S2 -->
<g id="edge4" class="edge">
<title>M1S1&#45;&gt;M2S2</title>
<path fill="none" stroke="black" d="M450.03,-110.3C584.89,-104.06 1204.03,-75.43 1360.83,-68.18"/>
<polygon fill="black" stroke="black" points="1361.07,-71.67 1370.89,-67.71 1360.74,-64.68 1361.07,-71.67"/>
<text text-anchor="middle" x="858" y="-102.3" font-family="Times,serif" font-size="14.00">((a*ab)|(a*ba)a*|(a*b), aa*c(a*ab)|(a*ba)a*|(a*b)c)</text>
</g>
<!-- M1S2&#45;&gt;M2S1 -->
<g id="edge6" class="edge">
<title>M1S2&#45;&gt;M2S1</title>
<path fill="none" stroke="black" d="M450.02,-56.07C560.03,-50.24 983.46,-30.2 1031,-64.5 1042.06,-72.48 1030.21,-85.17 1041,-93.5 1135.98,-166.8 1290.86,-144.69 1360.75,-129.55"/>
<polygon fill="black" stroke="black" points="1361.83,-132.89 1370.82,-127.29 1360.3,-126.06 1361.83,-132.89"/>
<text text-anchor="middle" x="858" y="-68.3" font-family="Times,serif" font-size="14.00">(a+ba*a|(a+b), aa*ca+ba*a|(a+b)c)</text>
</g>
<!-- M1S2&#45;&gt;M2S2 -->
<g id="edge5" class="edge">
<title>M1S2&#45;&gt;M2S2</title>
<path fill="none" stroke="black" d="M450.22,-53.62C497.17,-46.88 598.74,-33.28 685,-28.5 838.54,-20 877.43,-20.55 1031,-28.5 1152.17,-34.78 1295,-52.66 1360.66,-61.47"/>
<polygon fill="black" stroke="black" points="1360.51,-64.98 1370.89,-62.85 1361.45,-58.04 1360.51,-64.98"/>
<text text-anchor="middle" x="858" y="-32.3" font-family="Times,serif" font-size="14.00">(a+ba*, aa*ca+ba*c)</text>
</g>
<!-- M3S1 -->
<g id="node6" class="node">
<title>M3S1</title>
<path fill="#ffffff" stroke="black" d="M2773,-149.5C2773,-149.5 2743,-149.5 2743,-149.5 2737,-149.5 2731,-143.5 2731,-137.5 2731,-137.5 2731,-125.5 2731,-125.5 2731,-119.5 2737,-113.5 2743,-113.5 2743,-113.5 2773,-113.5 2773,-113.5 2779,-113.5 2785,-119.5 2785,-125.5 2785,-125.5 2785,-137.5 2785,-137.5 2785,-143.5 2779,-149.5 2773,-149.5"/>
<text text-anchor="middle" x="2758" y="-127.8" font-family="Times,serif" font-size="14.00">1</text>
</g>
<!-- M2S1&#45;&gt;M3S1 -->
<g id="edge7" class="edge">
<title>M2S1&#45;&gt;M3S1</title>
<path fill="none" stroke="black" d="M1425.25,-121.25C1485.48,-122.91 1638.23,-126.92 1766,-128.5 2139.15,-133.14 2591.39,-132.07 2720.83,-131.64"/>
<polygon fill="black" stroke="black" points="2720.98,-135.14 2730.97,-131.6 2720.96,-128.14 2720.98,-135.14"/>
<text text-anchor="middle" x="2075.5" y="-135.3" font-family="Times,serif" font-size="14.00">((a*ab)|(a*ba)a*, (aa*c(a*ab)|(a*ba)a*c)|(aa*ca+ba*a|(a+b)c)(a*ab)|(a*ba)a*c)</text>
</g>
<!-- M3S2 -->
<g id="node7" class="node">
<title>M3S2</title>
<path fill="#ffffff" stroke="black" d="M2773,-95.5C2773,-95.5 2743,-95.5 2743,-95.5 2737,-95.5 2731,-89.5 2731,-83.5 2731,-83.5 2731,-71.5 2731,-71.5 2731,-65.5 2737,-59.5 2743,-59.5 2743,-59.5 2773,-59.5 2773,-59.5 2779,-59.5 2785,-65.5 2785,-71.5 2785,-71.5 2785,-83.5 2785,-83.5 2785,-89.5 2779,-95.5 2773,-95.5"/>
<text text-anchor="middle" x="2758" y="-73.8" font-family="Times,serif" font-size="14.00">2</text>
</g>
<!-- M2S1&#45;&gt;M3S2 -->
<g id="edge8" class="edge">
<title>M2S1&#45;&gt;M3S2</title>
<path fill="none" stroke="black" d="M1425.35,-119.71C1572.24,-115.28 2286.79,-93.71 2385,-90.5 2507.98,-86.48 2653.8,-81.25 2720.46,-78.84"/>
<polygon fill="black" stroke="black" points="2720.98,-82.32 2730.84,-78.46 2720.72,-75.32 2720.98,-82.32"/>
<text text-anchor="middle" x="2075.5" y="-112.3" font-family="Times,serif" font-size="14.00">((a*ab)|(a*ba)a*|(a*b), (aa*c(a*ab)|(a*ba)a*c)|(aa*ca+ba*a|(a+b)c)(a*ab)|(a*ba)a*|(a*b)c)</text>
</g>
<!-- M2S2&#45;&gt;M3S1 -->
<g id="edge10" class="edge">
<title>M2S2&#45;&gt;M3S1</title>
<path fill="none" stroke="black" d="M1425.22,-65.76C1577.77,-61.58 2345.46,-42.02 2385,-71.5 2397.28,-80.67 2383.04,-94.92 2395,-104.5 2490.63,-181.13 2649.82,-156.93 2720.86,-140.86"/>
<polygon fill="black" stroke="black" points="2721.74,-144.25 2730.68,-138.56 2720.14,-137.44 2721.74,-144.25"/>
<text text-anchor="middle" x="2075.5" y="-75.3" font-family="Times,serif" font-size="14.00">(a+ba*a|(a+b), (aa*c(a*ab)|(a*ba)a*|(a*b)c)|(aa*ca+ba*c)a+ba*a|(a+b)c)</text>
</g>
<!-- M2S2&#45;&gt;M3S2 -->
<g id="edge9" class="edge">
<title>M2S2&#45;&gt;M3S2</title>
<path fill="none" stroke="black" d="M1425.21,-63.72C1485.36,-57.48 1637.95,-42.55 1766,-37.5 2040.9,-26.66 2110.28,-22.78 2385,-37.5 2508.75,-44.14 2654.67,-63.1 2720.98,-72.33"/>
<polygon fill="black" stroke="black" points="2720.53,-75.8 2730.92,-73.73 2721.5,-68.87 2720.53,-75.8"/>
<text text-anchor="middle" x="2075.5" y="-41.3" font-family="Times,serif" font-size="14.00">(a+ba*, (aa*c(a*ab)|(a*ba)a*|(a*b)c)|(aa*ca+ba*c)a+ba*c)</text>
</g>
<!-- M4S1 -->
<g id="node8" class="node">
<title>M4S1</title>
<path fill="#ffffff" stroke="black" d="M4390,-184.5C4390,-184.5 4360,-184.5 4360,-184.5 4354,-184.5 4348,-178.5 4348,-172.5 4348,-172.5 4348,-160.5 4348,-160.5 4348,-154.5 4354,-148.5 4360,-148.5 4360,-148.5 4390,-148.5 4390,-148.5 4396,-148.5 4402,-154.5 4402,-160.5 4402,-160.5 4402,-172.5 4402,-172.5 4402,-178.5 4396,-184.5 4390,-184.5"/>
<text text-anchor="middle" x="4375" y="-162.8" font-family="Times,serif" font-size="14.00">1</text>
</g>
<!-- M3S1&#45;&gt;M4S1 -->
<g id="edge11" class="edge">
<title>M3S1&#45;&gt;M4S1</title>
<path fill="none" stroke="black" d="M2785.12,-134.2C2845.77,-140.32 3000.9,-155.13 3131,-160.5 3607.45,-180.2 4187.49,-170.36 4337.31,-167.3"/>
<polygon fill="black" stroke="black" points="4337.82,-170.79 4347.74,-167.09 4337.67,-163.8 4337.82,-170.79"/>
<text text-anchor="middle" x="3564" y="-190.3" font-family="Times,serif" font-size="14.00">((a*ab)|(a*ba)a*, ((aa*c(a*ab)|(a*ba)a*c)|(aa*ca+ba*a|(a+b)c)(a*ab)|(a*ba)a*c)|((aa*c(a*ab)|(a*ba)a*|(a*b)c)|(aa*ca+ba</text>
<text text-anchor="middle" x="3564" y="-175.3" font-family="Times,serif" font-size="14.00">*c)a+ba*a|(a+b)c)(a*ab)|(a*ba)a*c)</text>
</g>
<!-- M4S2 -->
<g id="node9" class="node">
<title>M4S2</title>
<path fill="#ffffff" stroke="black" d="M4390,-130.5C4390,-130.5 4360,-130.5 4360,-130.5 4354,-130.5 4348,-124.5 4348,-118.5 4348,-118.5 4348,-106.5 4348,-106.5 4348,-100.5 4354,-94.5 4360,-94.5 4360,-94.5 4390,-94.5 4390,-94.5 4396,-94.5 4402,-100.5 4402,-106.5 4402,-106.5 4402,-118.5 4402,-118.5 4402,-124.5 4396,-130.5 4390,-130.5"/>
<text text-anchor="middle" x="4375" y="-108.8" font-family="Times,serif" font-size="14.00">2</text>
</g>
<!-- M3S1&#45;&gt;M4S2 -->
<g id="edge12" class="edge">
<title>M3S1&#45;&gt;M4S2</title>
<path fill="none" stroke="black" d="M2785.02,-131.2C2972.74,-128.99 4118.75,-115.51 4337.82,-112.93"/>
<polygon fill="black" stroke="black" points="4337.87,-116.43 4347.83,-112.81 4337.79,-109.43 4337.87,-116.43"/>
<text text-anchor="middle" x="3564" y="-145.3" font-family="Times,serif" font-size="14.00">((a*ab)|(a*ba)a*|(a*b), ((aa*c(a*ab)|(a*ba)a*c)|(aa*ca+ba*a|(a+b)c)(a*ab)|(a*ba)a*c)|((aa*c(a*ab)|(a*ba)a*|(a*b)c)|(aa*ca+ba</text>
<text text-anchor="middle" x="3564" y="-130.3" font-family="Times,serif" font-size="14.00">*c)a+ba*a|(a+b)c)(a*ab)|(a*ba)a*|(a*b)c)</text>
</g>
<!-- M3S2&#45;&gt;M4S1 -->
<g id="edge14" class="edge">
<title>M3S2&#45;&gt;M4S1</title>
<path fill="none" stroke="black" d="M2785.18,-76.67C2959.68,-71.2 3949.07,-42.08 3997,-82.5 4016.66,-99.08 3987.92,-122.25 4007,-139.5 4099.58,-223.24 4264.63,-194.88 4337.59,-176.76"/>
<polygon fill="black" stroke="black" points="4338.85,-180.05 4347.67,-174.18 4337.12,-173.27 4338.85,-180.05"/>
<text text-anchor="middle" x="3564" y="-101.3" font-family="Times,serif" font-size="14.00">(a+ba*a|(a+b), ((aa*c(a*ab)|(a*ba)a*c)|(aa*ca+ba*a|(a+b)c)(a*ab)|(a*ba)a*|(a*b)c)|((aa*c(a*ab)|(a*ba)a*|(a*b)c)|(aa</text>
<text text-anchor="middle" x="3564" y="-86.3" font-family="Times,serif" font-size="14.00">*ca+ba*c)a+ba*c)a+ba*a|(a+b)c)</text>
</g>
<!-- M3S2&#45;&gt;M4S2 -->
<g id="edge13" class="edge">
<title>M3S2&#45;&gt;M4S2</title>
<path fill="none" stroke="black" d="M2785.03,-72.69C2845.5,-61.78 3000.28,-35.42 3131,-26.5 3515,-0.3 3614.53,16.57 3997,-26.5 4124.28,-40.84 4271.24,-81.57 4337.86,-101.4"/>
<polygon fill="black" stroke="black" points="4337.26,-104.87 4347.84,-104.39 4339.27,-98.17 4337.26,-104.87"/>
<text text-anchor="middle" x="3564" y="-45.3" font-family="Times,serif" font-size="14.00">(a+ba*, ((aa*c(a*ab)|(a*ba)a*c)|(aa*ca+ba*a|(a+b)c)(a*ab)|(a*ba)a*|(a*b)c)|((aa*c(a*ab)|(a*ba)a*|(a*b)c)|(aa</text>
<text text-anchor="middle" x="3564" y="-30.3" font-family="Times,serif" font-size="14.00">*ca+ba*c)a+ba*c)a+ba*c)</text>
</g>
<!-- M5S1 -->
<g id="node10" class="node">
<title>M5S1</title>
<path fill="#ffffff" stroke="black" d="M6018,-136.5C6018,-136.5 5988,-136.5 5988,-136.5 5982,-136.5 5976,-130.5 5976,-124.5 5976,-124.5 5976,-112.5 5976,-112.5 5976,-106.5 5982,-100.5 5988,-100.5 5988,-100.5 6018,-100.5 6018,-100.5 6024,-100.5 6030,-106.5 6030,-112.5 6030,-112.5 6030,-124.5 6030,-124.5 6030,-130.5 6024,-136.5 6018,-136.5"/>
<text text-anchor="middle" x="6003" y="-114.8" font-family="Times,serif" font-size="14.00">1</text>
</g>
<!-- M4S1&#45;&gt;M5S1 -->
<g id="edge15" class="edge">
<title>M4S1&#45;&gt;M5S1</title>
<path fill="none" stroke="black" d="M4402.45,-171.51C4463.88,-182.85 4621.13,-210.23 4754,-219.5 5136.63,-246.2 5236.6,-268.57 5617,-219.5 5748.35,-202.56 5898.82,-154.38 5966.16,-131.23"/>
<polygon fill="black" stroke="black" points="5967.56,-134.45 5975.86,-127.87 5965.26,-127.83 5967.56,-134.45"/>
<text text-anchor="middle" x="5185.5" y="-281.3" font-family="Times,serif" font-size="14.00">((a*ab)|(a*ba)a*, (((aa*c(a*ab)|(a*ba)a*c)|(aa*ca+ba*a|(a+b)c)(a*ab)|(a*ba)a*c)|((aa*c(a*ab)|(a*ba)a*|(a*b)c)|(aa*ca+b</text>
<text text-anchor="middle" x="5185.5" y="-266.3" font-family="Times,serif" font-size="14.00">a*c)a+ba*a|(a+b)c)(a*ab)|(a*ba)a*c)|(((aa*c(a*ab)|(a*ba)a*c)|(aa*ca+ba*a|(a+b)c)(a*ab)|(a*ba)a*|(a*b</text>
<text text-anchor="middle" x="5185.5" y="-251.3" font-family="Times,serif" font-size="14.00">)c)|((aa*c(a*ab)|(a*ba)a*|(a*b)c)|(aa*ca+ba*c)a+ba*c)a+ba*a|(a+b)c)(a*ab)|(a*ba)a*c)</text>
</g>
<!-- M5S2 -->
<g id="node11" class="node">
<title>M5S2</title>
<path fill="#ffffff" stroke="black" d="M6018,-82.5C6018,-82.5 5988,-82.5 5988,-82.5 5982,-82.5 5976,-76.5 5976,-70.5 5976,-70.5 5976,-58.5 5976,-58.5 5976,-52.5 5982,-46.5 5988,-46.5 5988,-46.5 6018,-46.5 6018,-46.5 6024,-46.5 6030,-52.5 6030,-58.5 6030,-58.5 6030,-70.5 6030,-70.5 6030,-76.5 6024,-82.5 6018,-82.5"/>
<text text-anchor="middle" x="6003" y="-60.8" font-family="Times,serif" font-size="14.00">2</text>
</g>
<!-- M4S1&#45;&gt;M5S2 -->
<g id="edge16" class="edge">
<title>M4S1&#45;&gt;M5S2</title>
<path fill="none" stroke="black" d="M4402.24,-166.65C4579.28,-167.58 5593.12,-171.98 5617,-151.5 5637.52,-133.9 5607.01,-109.71 5627,-91.5 5721.71,-5.24 5891.62,-35.38 5965.75,-54.14"/>
<polygon fill="black" stroke="black" points="5965,-57.56 5975.56,-56.7 5966.76,-50.79 5965,-57.56"/>
<text text-anchor="middle" x="5185.5" y="-201.3" font-family="Times,serif" font-size="14.00">((a*ab)|(a*ba)a*|(a*b), (((aa*c(a*ab)|(a*ba)a*c)|(aa*ca+ba*a|(a+b)c)(a*ab)|(a*ba)a*c)|((aa*c(a*ab)|(a*ba)a*|(a*b)c)|(aa*ca+b</text>
<text text-anchor="middle" x="5185.5" y="-186.3" font-family="Times,serif" font-size="14.00">a*c)a+ba*a|(a+b)c)(a*ab)|(a*ba)a*c)|(((aa*c(a*ab)|(a*ba)a*c)|(aa*ca+ba*a|(a+b)c)(a*ab)|(a*ba)a*|(a*b</text>
<text text-anchor="middle" x="5185.5" y="-171.3" font-family="Times,serif" font-size="14.00">)c)|((aa*c(a*ab)|(a*ba)a*|(a*b)c)|(aa*ca+ba*c)a+ba*c)a+ba*a|(a+b)c)(a*ab)|(a*ba)a*|(a*b)c)</text>
</g>
<!-- M4S2&#45;&gt;M5S1 -->
<g id="edge18" class="edge">
<title>M4S2&#45;&gt;M5S1</title>
<path fill="none" stroke="black" d="M4402.12,-111.95C4463.51,-110.67 4621.75,-107.55 4754,-106.5 5137.54,-103.46 5233.49,-100.53 5617,-106.5 5745.21,-108.5 5897.34,-114.24 5965.64,-116.99"/>
<polygon fill="black" stroke="black" points="5965.73,-120.5 5975.86,-117.41 5966.02,-113.5 5965.73,-120.5"/>
<text text-anchor="middle" x="5185.5" y="-140.3" font-family="Times,serif" font-size="14.00">(a+ba*a|(a+b), (((aa*c(a*ab)|(a*ba)a*c)|(aa*ca+ba*a|(a+b)c)(a*ab)|(a*ba)a*c)|((aa*c(a*ab)|(a*ba)a*|(a*b)c)|(aa*ca+b</text>
<text text-anchor="middle" x="5185.5" y="-125.3" font-family="Times,serif" font-size="14.00">a*c)a+ba*a|(a+b)c)(a*ab)|(a*ba)a*|(a*b)c)|(((aa*c(a*ab)|(a*ba)a*c)|(aa*ca+ba*a|(a+b)c)(a*ab)|(a*ba)a</text>
<text text-anchor="middle" x="5185.5" y="-110.3" font-family="Times,serif" font-size="14.00">*|(a*b)c)|((aa*c(a*ab)|(a*ba)a*|(a*b)c)|(aa*ca+ba*c)a+ba*c)a+ba*c)a+ba*a|(a+b)c)</text>
</g>
<!-- M4S2&#45;&gt;M5S2 -->
<g id="edge17" class="edge">
<title>M4S2&#45;&gt;M5S2</title>
<path fill="none" stroke="black" d="M4402.41,-106.93C4463.78,-94.31 4620.9,-63.83 4754,-53.5 5231.83,-16.44 5815.63,-51.64 5965.56,-61.89"/>
<polygon fill="black" stroke="black" points="5965.38,-65.39 5975.6,-62.59 5965.86,-58.41 5965.38,-65.39"/>
<text text-anchor="middle" x="5185.5" y="-87.3" font-family="Times,serif" font-size="14.00">(a+ba*, (((aa*c(a*ab)|(a*ba)a*c)|(aa*ca+ba*a|(a+b)c)(a*ab)|(a*ba)a*c)|((aa*c(a*ab)|(a*ba)a*|(a*b)c)|(aa*ca+b</text>
<text text-anchor="middle" x="5185.5" y="-72.3" font-family="Times,serif" font-size="14.00">a*c)a+ba*a|(a+b)c)(a*ab)|(a*ba)a*|(a*b)c)|(((aa*c(a*ab)|(a*ba)a*c)|(aa*ca+ba*a|(a+b)c)(a*ab)|(a*ba)a</text>
<text text-anchor="middle" x="5185.5" y="-57.3" font-family="Times,serif" font-size="14.00">*|(a*b)c)|((aa*c(a*ab)|(a*ba)a*|(a*b)c)|(aa*ca+ba*c)a+ba*c)a+ba*c)a+ba*c)</text>
</g>
</g>
</svg>
