<?xml version="1.0" encoding="UTF-8" standalone="no"?>
<!DOCTYPE svg PUBLIC "-//W3C//DTD SVG 1.1//EN"
 "http://www.w3.org/Graphics/SVG/1.1/DTD/svg11.dtd">
<!-- Generated by graphviz version 2.43.0 (0)
 -->
<!-- Title: MONinput/r Pages: 1 -->
<svg width="4105pt" height="154pt"
 viewBox="0.00 0.00 4105.00 154.09" xmlns="http://www.w3.org/2000/svg" xmlns:xlink="http://www.w3.org/1999/xlink">
<g id="graph0" class="graph" transform="scale(1 1) rotate(0) translate(4 150.09)">
<title>MONinput/r</title>
<polygon fill="white" stroke="transparent" points="-4,4 -4,-150.09 4101,-150.09 4101,4 -4,4"/>
<g id="clust1" class="cluster">
<title>cluster0</title>
<path fill="#fff9dd" stroke="#fff9dd" d="M20,-28.09C20,-28.09 66,-28.09 66,-28.09 72,-28.09 78,-34.09 78,-40.09 78,-40.09 78,-91.09 78,-91.09 78,-97.09 72,-103.09 66,-103.09 66,-103.09 20,-103.09 20,-103.09 14,-103.09 8,-97.09 8,-91.09 8,-91.09 8,-40.09 8,-40.09 8,-34.09 14,-28.09 20,-28.09"/>
<text text-anchor="middle" x="43" y="-87.89" font-family="Times,serif" font-size="14.00">r1r1?</text>
</g>
<g id="clust2" class="cluster">
<title>cluster1</title>
<path fill="#fff9dd" stroke="#fff9dd" d="M224,-9.09C224,-9.09 1180,-9.09 1180,-9.09 1186,-9.09 1192,-15.09 1192,-21.09 1192,-21.09 1192,-126.09 1192,-126.09 1192,-132.09 1186,-138.09 1180,-138.09 1180,-138.09 224,-138.09 224,-138.09 218,-138.09 212,-132.09 212,-126.09 212,-126.09 212,-21.09 212,-21.09 212,-15.09 218,-9.09 224,-9.09"/>
<text text-anchor="middle" x="702" y="-122.89" font-family="Times,serif" font-size="14.00">(r1r1?r3((r1r1*r2)|r2r1?)|(((r1r1*r2)|r2r1?*r1)|(r1r1*r2))|(r1r1?r3((r1*((r1r2)|r2r1?*r1)|(r1r2)|((r2r1?*r1)|r))|((r1*(r1r2)|r2r1?*)|(r2r1?))</text>
</g>
<g id="clust3" class="cluster">
<title>cluster2</title>
<path fill="#fff9dd" stroke="#fff9dd" d="M1897,-9.09C1897,-9.09 4085,-9.09 4085,-9.09 4091,-9.09 4097,-15.09 4097,-21.09 4097,-21.09 4097,-126.09 4097,-126.09 4097,-132.09 4091,-138.09 4085,-138.09 4085,-138.09 1897,-138.09 1897,-138.09 1891,-138.09 1885,-132.09 1885,-126.09 1885,-126.09 1885,-21.09 1885,-21.09 1885,-15.09 1891,-9.09 1897,-9.09"/>
<text text-anchor="middle" x="2991" y="-122.89" font-family="Times,serif" font-size="14.00">((r1r1?r3(r1r1*r2)|r2r1?r3)|(r1r1?r3(r1*(r1r2)|r2r1?*)|(r2r1?r3)(((r1r1*)|(((r1r1*r2)|r2r1?*r1)|(r1r1*r2))|(r1r1*))|((r1r1*r2)|r2r1?*)|((r1r1?r3((r1r1*r2)|r2r1?*r1)|(r1r1*r2r3)|(r1r1?r3(r1*((r1r2)|r2r1?*r1)|(r1r2)|((r2r1?*r1)|r)r3)(((r1*r1)|((r1*((r1r2)|r2r1?*r1)|(r1r2)|((r2r1?*r1)|r)))|((r1*(r1r2)|r2r1?*)|(r2r1?))|r1*)</text>
</g>
<!-- M0S0 -->
<g id="node1" class="node">
<title>M0S0</title>
<path fill="#ffffff" stroke="black" d="M58,-72.09C58,-72.09 28,-72.09 28,-72.09 22,-72.09 16,-66.09 16,-60.09 16,-60.09 16,-48.09 16,-48.09 16,-42.09 22,-36.09 28,-36.09 28,-36.09 58,-36.09 58,-36.09 64,-36.09 70,-42.09 70,-48.09 70,-48.09 70,-60.09 70,-60.09 70,-66.09 64,-72.09 58,-72.09"/>
<text text-anchor="middle" x="43" y="-50.39" font-family="Times,serif" font-size="14.00">0</text>
</g>
<!-- M1S2 -->
<g id="node2" class="node">
<title>M1S2</title>
<path fill="#ffffff" stroke="black" d="M717,-107.09C717,-107.09 687,-107.09 687,-107.09 681,-107.09 675,-101.09 675,-95.09 675,-95.09 675,-83.09 675,-83.09 675,-77.09 681,-71.09 687,-71.09 687,-71.09 717,-71.09 717,-71.09 723,-71.09 729,-77.09 729,-83.09 729,-83.09 729,-95.09 729,-95.09 729,-101.09 723,-107.09 717,-107.09"/>
<text text-anchor="middle" x="702" y="-85.39" font-family="Times,serif" font-size="14.00">2</text>
</g>
<!-- M0S0&#45;&gt;M1S2 -->
<g id="edge1" class="edge">
<title>M0S0&#45;&gt;M1S2</title>
<path fill="none" stroke="black" d="M70.41,-60.2C76.18,-61.34 82.27,-62.39 88,-63.09 305.6,-89.79 569.54,-90.36 664.65,-89.56"/>
<polygon fill="black" stroke="black" points="664.92,-93.06 674.89,-89.47 664.85,-86.06 664.92,-93.06"/>
<text text-anchor="middle" x="145" y="-76.89" font-family="Times,serif" font-size="14.00">(r1r1?, r1r1?r3)</text>
</g>
<!-- M1S1 -->
<g id="node3" class="node">
<title>M1S1</title>
<path fill="#ffffff" stroke="black" d="M717,-53.09C717,-53.09 687,-53.09 687,-53.09 681,-53.09 675,-47.09 675,-41.09 675,-41.09 675,-29.09 675,-29.09 675,-23.09 681,-17.09 687,-17.09 687,-17.09 717,-17.09 717,-17.09 723,-17.09 729,-23.09 729,-29.09 729,-29.09 729,-41.09 729,-41.09 729,-47.09 723,-53.09 717,-53.09"/>
<text text-anchor="middle" x="702" y="-31.39" font-family="Times,serif" font-size="14.00">1</text>
</g>
<!-- M0S0&#45;&gt;M1S1 -->
<g id="edge2" class="edge">
<title>M0S0&#45;&gt;M1S1</title>
<path fill="none" stroke="black" d="M70.01,-50.04C75.91,-49.27 82.16,-48.55 88,-48.09 306.42,-30.94 569.86,-32.96 664.75,-34.42"/>
<polygon fill="black" stroke="black" points="664.9,-37.92 674.96,-34.58 665.01,-30.92 664.9,-37.92"/>
<text text-anchor="middle" x="145" y="-51.89" font-family="Times,serif" font-size="14.00">(r1r1?, r1r1?r3)</text>
</g>
<!-- M2S2 -->
<g id="node4" class="node">
<title>M2S2</title>
<path fill="#ffffff" stroke="black" d="M3006,-107.09C3006,-107.09 2976,-107.09 2976,-107.09 2970,-107.09 2964,-101.09 2964,-95.09 2964,-95.09 2964,-83.09 2964,-83.09 2964,-77.09 2970,-71.09 2976,-71.09 2976,-71.09 3006,-71.09 3006,-71.09 3012,-71.09 3018,-77.09 3018,-83.09 3018,-83.09 3018,-95.09 3018,-95.09 3018,-101.09 3012,-107.09 3006,-107.09"/>
<text text-anchor="middle" x="2991" y="-85.39" font-family="Times,serif" font-size="14.00">2</text>
</g>
<!-- M1S2&#45;&gt;M2S2 -->
<g id="edge3" class="edge">
<title>M1S2&#45;&gt;M2S2</title>
<path fill="none" stroke="black" d="M729.24,-89.66C803.44,-91.24 1021.14,-95.64 1202,-97.09 1906.91,-102.74 2768.19,-92.07 2953.72,-89.59"/>
<polygon fill="black" stroke="black" points="2953.8,-93.09 2963.75,-89.46 2953.7,-86.09 2953.8,-93.09"/>
<text text-anchor="middle" x="1538.5" y="-101.89" font-family="Times,serif" font-size="14.00">((r1r1*r2)|r2r1?, r1r1?r3(r1r1*r2)|r2r1?r3)</text>
</g>
<!-- M2S1 -->
<g id="node5" class="node">
<title>M2S1</title>
<path fill="#ffffff" stroke="black" d="M3006,-53.09C3006,-53.09 2976,-53.09 2976,-53.09 2970,-53.09 2964,-47.09 2964,-41.09 2964,-41.09 2964,-29.09 2964,-29.09 2964,-23.09 2970,-17.09 2976,-17.09 2976,-17.09 3006,-17.09 3006,-17.09 3012,-17.09 3018,-23.09 3018,-29.09 3018,-29.09 3018,-41.09 3018,-41.09 3018,-47.09 3012,-53.09 3006,-53.09"/>
<text text-anchor="middle" x="2991" y="-31.39" font-family="Times,serif" font-size="14.00">1</text>
</g>
<!-- M1S2&#45;&gt;M2S1 -->
<g id="edge4" class="edge">
<title>M1S2&#45;&gt;M2S1</title>
<path fill="none" stroke="black" d="M729.08,-88.48C961.88,-82.98 2681.16,-42.38 2953.66,-35.95"/>
<polygon fill="black" stroke="black" points="2953.89,-39.45 2963.8,-35.71 2953.72,-32.45 2953.89,-39.45"/>
<text text-anchor="middle" x="1538.5" y="-79.89" font-family="Times,serif" font-size="14.00">(((r1r1*r2)|r2r1?*r1)|(r1r1*r2, r1r1?r3((r1r1*r2)|r2r1?*r1)|(r1r1*r2r3)</text>
</g>
<!-- M1S1&#45;&gt;M2S2 -->
<g id="edge6" class="edge">
<title>M1S1&#45;&gt;M2S2</title>
<path fill="none" stroke="black" d="M729.27,-34.51C898.03,-30.87 1824.45,-12.34 1875,-43.09 1883.15,-48.05 1876.89,-57.06 1885,-62.09 2068.58,-176.01 2784.1,-110.42 2953.77,-92.97"/>
<polygon fill="black" stroke="black" points="2954.34,-96.43 2963.92,-91.91 2953.62,-89.46 2954.34,-96.43"/>
<text text-anchor="middle" x="1538.5" y="-46.89" font-family="Times,serif" font-size="14.00">((r1*(r1r2)|r2r1?*)|(r2r1?, r1r1?r3(r1*(r1r2)|r2r1?*)|(r2r1?r3)</text>
</g>
<!-- M1S1&#45;&gt;M2S1 -->
<g id="edge5" class="edge">
<title>M1S1&#45;&gt;M2S1</title>
<path fill="none" stroke="black" d="M729.22,-33.03C803.36,-27.32 1020.93,-11.35 1202,-6.09 1906.73,14.37 2768.15,-24.29 2953.71,-33.28"/>
<polygon fill="black" stroke="black" points="2953.59,-36.78 2963.75,-33.77 2953.93,-29.79 2953.59,-36.78"/>
<text text-anchor="middle" x="1538.5" y="-9.89" font-family="Times,serif" font-size="14.00">((r1*((r1r2)|r2r1?*r1)|(r1r2)|((r2r1?*r1)|r), r1r1?r3(r1*((r1r2)|r2r1?*r1)|(r1r2)|((r2r1?*r1)|r)r3)</text>
</g>
</g>
</svg>
