<?xml version="1.0" encoding="UTF-8" standalone="no"?>
<!DOCTYPE svg PUBLIC "-//W3C//DTD SVG 1.1//EN"
 "http://www.w3.org/Graphics/SVG/1.1/DTD/svg11.dtd">
<!-- Generated by graphviz version 2.43.0 (0)
 -->
<!-- Title: MONinput/r Pages: 1 -->
<svg width="4307pt" height="154pt"
 viewBox="0.00 0.00 4307.00 154.06" xmlns="http://www.w3.org/2000/svg" xmlns:xlink="http://www.w3.org/1999/xlink">
<g id="graph0" class="graph" transform="scale(1 1) rotate(0) translate(4 150.06)">
<title>MONinput/r</title>
<polygon fill="white" stroke="transparent" points="-4,4 -4,-150.06 4303,-150.06 4303,4 -4,4"/>
<g id="clust1" class="cluster">
<title>cluster0</title>
<path fill="#fff9dd" stroke="#fff9dd" d="M20,-28.06C20,-28.06 66,-28.06 66,-28.06 72,-28.06 78,-34.06 78,-40.06 78,-40.06 78,-91.06 78,-91.06 78,-97.06 72,-103.06 66,-103.06 66,-103.06 20,-103.06 20,-103.06 14,-103.06 8,-97.06 8,-91.06 8,-91.06 8,-40.06 8,-40.06 8,-34.06 14,-28.06 20,-28.06"/>
<text text-anchor="middle" x="43" y="-87.86" font-family="Times,serif" font-size="14.00">r1r1?*</text>
</g>
<g id="clust2" class="cluster">
<title>cluster1</title>
<path fill="#fff9dd" stroke="#fff9dd" d="M237,-9.06C237,-9.06 1245,-9.06 1245,-9.06 1251,-9.06 1257,-15.06 1257,-21.06 1257,-21.06 1257,-126.06 1257,-126.06 1257,-132.06 1251,-138.06 1245,-138.06 1245,-138.06 237,-138.06 237,-138.06 231,-138.06 225,-132.06 225,-126.06 225,-126.06 225,-21.06 225,-21.06 225,-15.06 231,-9.06 237,-9.06"/>
<text text-anchor="middle" x="741" y="-122.86" font-family="Times,serif" font-size="14.00">(r1r1?*r3((r1r1*r2)|r2r1?*)|(((r1r1*r2)|r2r1?*r1)|(r1r1*r2)))|(r1r1?*r3((r1*((r1r2)|r2r1?*r1)|(r1r2))|((r2r1?*r1)|r2))|((r1*(r1r2)|r2r1?*)|(r2r1?*)))</text>
</g>
<g id="clust3" class="cluster">
<title>cluster2</title>
<path fill="#fff9dd" stroke="#fff9dd" d="M1997,-9.06C1997,-9.06 4287,-9.06 4287,-9.06 4293,-9.06 4299,-15.06 4299,-21.06 4299,-21.06 4299,-126.06 4299,-126.06 4299,-132.06 4293,-138.06 4287,-138.06 4287,-138.06 1997,-138.06 1997,-138.06 1991,-138.06 1985,-132.06 1985,-126.06 1985,-126.06 1985,-21.06 1985,-21.06 1985,-15.06 1991,-9.06 1997,-9.06"/>
<text text-anchor="middle" x="3142" y="-122.86" font-family="Times,serif" font-size="14.00">((r1r1?*r3(r1r1*r2)|r2r1?*r3)|(r1r1?*r3(r1*(r1r2)|r2r1?*)|(r2r1?*)r3)(((r1r1*)|(((r1r1*r2)|r2r1?*r1)|(r1r1*r2)))|(r1r1*))|((r1r1*r2)|r2r1?*))|((r1r1?*r3((r1r1*r2)|r2r1?*r1)|(r1r1*r2)r3)|(r1r1?*r3(r1*((r1r2)|r2r1?*r1)|(r1r2))|((r2r1?*r1)|r2)r3)(((r1*r1)|((r1*((r1r2)|r2r1?*r1)|(r1r2))|((r2r1?*r1)|r2)))|((r1*(r1r2)|r2r1?*)|(r2r1?*)))|r1*)</text>
</g>
<!-- M0S0 -->
<g id="node1" class="node">
<title>M0S0</title>
<path fill="#ffffff" stroke="black" d="M58,-72.06C58,-72.06 28,-72.06 28,-72.06 22,-72.06 16,-66.06 16,-60.06 16,-60.06 16,-48.06 16,-48.06 16,-42.06 22,-36.06 28,-36.06 28,-36.06 58,-36.06 58,-36.06 64,-36.06 70,-42.06 70,-48.06 70,-48.06 70,-60.06 70,-60.06 70,-66.06 64,-72.06 58,-72.06"/>
<text text-anchor="middle" x="43" y="-50.36" font-family="Times,serif" font-size="14.00">0</text>
</g>
<!-- M1S2 -->
<g id="node2" class="node">
<title>M1S2</title>
<path fill="#ffffff" stroke="black" d="M756,-107.06C756,-107.06 726,-107.06 726,-107.06 720,-107.06 714,-101.06 714,-95.06 714,-95.06 714,-83.06 714,-83.06 714,-77.06 720,-71.06 726,-71.06 726,-71.06 756,-71.06 756,-71.06 762,-71.06 768,-77.06 768,-83.06 768,-83.06 768,-95.06 768,-95.06 768,-101.06 762,-107.06 756,-107.06"/>
<text text-anchor="middle" x="741" y="-85.36" font-family="Times,serif" font-size="14.00">2</text>
</g>
<!-- M0S0&#45;&gt;M1S2 -->
<g id="edge1" class="edge">
<title>M0S0&#45;&gt;M1S2</title>
<path fill="none" stroke="black" d="M70.41,-60.18C76.18,-61.32 82.27,-62.36 88,-63.06 321.29,-91.38 604.61,-90.88 703.7,-89.67"/>
<polygon fill="black" stroke="black" points="703.84,-93.16 713.79,-89.53 703.75,-86.16 703.84,-93.16"/>
<text text-anchor="middle" x="151.5" y="-78.86" font-family="Times,serif" font-size="14.00">(r1r1?*, r1r1?*r3)</text>
</g>
<!-- M1S1 -->
<g id="node3" class="node">
<title>M1S1</title>
<path fill="#ffffff" stroke="black" d="M756,-53.06C756,-53.06 726,-53.06 726,-53.06 720,-53.06 714,-47.06 714,-41.06 714,-41.06 714,-29.06 714,-29.06 714,-23.06 720,-17.06 726,-17.06 726,-17.06 756,-17.06 756,-17.06 762,-17.06 768,-23.06 768,-29.06 768,-29.06 768,-41.06 768,-41.06 768,-47.06 762,-53.06 756,-53.06"/>
<text text-anchor="middle" x="741" y="-31.36" font-family="Times,serif" font-size="14.00">1</text>
</g>
<!-- M0S0&#45;&gt;M1S1 -->
<g id="edge2" class="edge">
<title>M0S0&#45;&gt;M1S1</title>
<path fill="none" stroke="black" d="M70,-50.01C75.91,-49.23 82.16,-48.51 88,-48.06 322.15,-29.82 604.94,-32.61 703.8,-34.32"/>
<polygon fill="black" stroke="black" points="703.8,-37.82 713.86,-34.5 703.92,-30.82 703.8,-37.82"/>
<text text-anchor="middle" x="151.5" y="-51.86" font-family="Times,serif" font-size="14.00">(r1r1?*, r1r1?*r3)</text>
</g>
<!-- M2S2 -->
<g id="node4" class="node">
<title>M2S2</title>
<path fill="#ffffff" stroke="black" d="M3157,-107.06C3157,-107.06 3127,-107.06 3127,-107.06 3121,-107.06 3115,-101.06 3115,-95.06 3115,-95.06 3115,-83.06 3115,-83.06 3115,-77.06 3121,-71.06 3127,-71.06 3127,-71.06 3157,-71.06 3157,-71.06 3163,-71.06 3169,-77.06 3169,-83.06 3169,-83.06 3169,-95.06 3169,-95.06 3169,-101.06 3163,-107.06 3157,-107.06"/>
<text text-anchor="middle" x="3142" y="-85.36" font-family="Times,serif" font-size="14.00">2</text>
</g>
<!-- M1S2&#45;&gt;M2S2 -->
<g id="edge3" class="edge">
<title>M1S2&#45;&gt;M2S2</title>
<path fill="none" stroke="black" d="M768.22,-89.6C844.93,-91.15 1075.58,-95.6 1267,-97.06 2008.18,-102.71 2914.3,-91.97 3104.81,-89.53"/>
<polygon fill="black" stroke="black" points="3104.89,-93.03 3114.85,-89.41 3104.8,-86.03 3104.89,-93.03"/>
<text text-anchor="middle" x="1621" y="-101.86" font-family="Times,serif" font-size="14.00">((r1r1*r2)|r2r1?*, r1r1?*r3(r1r1*r2)|r2r1?*r3)</text>
</g>
<!-- M2S1 -->
<g id="node5" class="node">
<title>M2S1</title>
<path fill="#ffffff" stroke="black" d="M3157,-53.06C3157,-53.06 3127,-53.06 3127,-53.06 3121,-53.06 3115,-47.06 3115,-41.06 3115,-41.06 3115,-29.06 3115,-29.06 3115,-23.06 3121,-17.06 3127,-17.06 3127,-17.06 3157,-17.06 3157,-17.06 3163,-17.06 3169,-23.06 3169,-29.06 3169,-29.06 3169,-41.06 3169,-41.06 3169,-47.06 3163,-53.06 3157,-53.06"/>
<text text-anchor="middle" x="3142" y="-31.36" font-family="Times,serif" font-size="14.00">1</text>
</g>
<!-- M1S2&#45;&gt;M2S1 -->
<g id="edge4" class="edge">
<title>M1S2&#45;&gt;M2S1</title>
<path fill="none" stroke="black" d="M768.12,-88.47C1008.01,-83.07 2825.44,-42.16 3104.96,-35.87"/>
<polygon fill="black" stroke="black" points="3105.06,-39.37 3114.97,-35.65 3104.9,-32.37 3105.06,-39.37"/>
<text text-anchor="middle" x="1621" y="-79.86" font-family="Times,serif" font-size="14.00">(((r1r1*r2)|r2r1?*r1)|(r1r1*r2), r1r1?*r3((r1r1*r2)|r2r1?*r1)|(r1r1*r2)r3)</text>
</g>
<!-- M1S1&#45;&gt;M2S2 -->
<g id="edge6" class="edge">
<title>M1S1&#45;&gt;M2S2</title>
<path fill="none" stroke="black" d="M768.22,-34.47C941.93,-30.65 1921.67,-10.63 1975,-43.06 1983.15,-48.02 1976.89,-57.03 1985,-62.06 2177.72,-181.5 2930.37,-111.18 3104.77,-92.99"/>
<polygon fill="black" stroke="black" points="3105.15,-96.47 3114.73,-91.94 3104.42,-89.5 3105.15,-96.47"/>
<text text-anchor="middle" x="1621" y="-46.86" font-family="Times,serif" font-size="14.00">((r1*(r1r2)|r2r1?*)|(r2r1?*), r1r1?*r3(r1*(r1r2)|r2r1?*)|(r2r1?*)r3)</text>
</g>
<!-- M1S1&#45;&gt;M2S1 -->
<g id="edge5" class="edge">
<title>M1S1&#45;&gt;M2S1</title>
<path fill="none" stroke="black" d="M768.2,-33.1C844.86,-27.47 1075.37,-11.35 1267,-6.06 2008.01,14.39 2914.26,-24.52 3104.81,-33.34"/>
<polygon fill="black" stroke="black" points="3104.69,-36.84 3114.84,-33.81 3105.02,-29.85 3104.69,-36.84"/>
<text text-anchor="middle" x="1621" y="-9.86" font-family="Times,serif" font-size="14.00">((r1*((r1r2)|r2r1?*r1)|(r1r2))|((r2r1?*r1)|r2), r1r1?*r3(r1*((r1r2)|r2r1?*r1)|(r1r2))|((r2r1?*r1)|r2)r3)</text>
</g>
</g>
</svg>
