<?xml version="1.0" encoding="UTF-8" standalone="no"?>
<!DOCTYPE svg PUBLIC "-//W3C//DTD SVG 1.1//EN"
 "http://www.w3.org/Graphics/SVG/1.1/DTD/svg11.dtd">
<!-- Generated by graphviz version 2.43.0 (0)
 -->
<!-- Title: MONinput/r Pages: 1 -->
<svg width="40437pt" height="288pt"
 viewBox="0.00 0.00 40437.00 287.92" xmlns="http://www.w3.org/2000/svg" xmlns:xlink="http://www.w3.org/1999/xlink">
<g id="graph0" class="graph" transform="scale(1 1) rotate(0) translate(4 283.92)">
<title>MONinput/r</title>
<polygon fill="white" stroke="transparent" points="-4,4 -4,-283.92 40433,-283.92 40433,4 -4,4"/>
<g id="clust1" class="cluster">
<title>cluster0</title>
<path fill="#fff9dd" stroke="#fff9dd" d="M20,-27.39C20,-27.39 66,-27.39 66,-27.39 72,-27.39 78,-33.39 78,-39.39 78,-39.39 78,-90.39 78,-90.39 78,-96.39 72,-102.39 66,-102.39 66,-102.39 20,-102.39 20,-102.39 14,-102.39 8,-96.39 8,-90.39 8,-90.39 8,-39.39 8,-39.39 8,-33.39 14,-27.39 20,-27.39"/>
<text text-anchor="middle" x="43" y="-87.19" font-family="Times,serif" font-size="14.00">aa*</text>
</g>
<g id="clust2" class="cluster">
<title>cluster1</title>
<path fill="#fff9dd" stroke="#fff9dd" d="M184,-8.39C184,-8.39 645,-8.39 645,-8.39 651,-8.39 657,-14.39 657,-20.39 657,-20.39 657,-125.39 657,-125.39 657,-131.39 651,-137.39 645,-137.39 645,-137.39 184,-137.39 184,-137.39 178,-137.39 172,-131.39 172,-125.39 172,-125.39 172,-20.39 172,-20.39 172,-14.39 178,-8.39 184,-8.39"/>
<text text-anchor="middle" x="414.5" y="-122.19" font-family="Times,serif" font-size="14.00">(aa*ca+ba*|a+ba*a|(a+b))|(aa*c((a*aba*a|(ab))|ba*a)|(a*aba*)|ba*)</text>
</g>
<g id="clust3" class="cluster">
<title>cluster2</title>
<path fill="#fff9dd" stroke="#fff9dd" d="M1017,-8.39C1017,-8.39 1983,-8.39 1983,-8.39 1989,-8.39 1995,-14.39 1995,-20.39 1995,-20.39 1995,-125.39 1995,-125.39 1995,-131.39 1989,-137.39 1983,-137.39 1983,-137.39 1017,-137.39 1017,-137.39 1011,-137.39 1005,-131.39 1005,-125.39 1005,-125.39 1005,-20.39 1005,-20.39 1005,-14.39 1011,-8.39 1017,-8.39"/>
<text text-anchor="middle" x="1500" y="-122.19" font-family="Times,serif" font-size="14.00">((aa*ca+ba*c)|(aa*c(a*aba*)|ba*c)a+ba*|a+ba*a|(a+b))|((aa*ca+ba*a|(a+b)c)|(aa*c(a*aba*a|(ab))|ba*ac)((a*aba*a|(ab))|ba*a)|(a*aba*)|ba*)</text>
</g>
<g id="clust4" class="cluster">
<title>cluster3</title>
<path fill="#fff9dd" stroke="#fff9dd" d="M2658,-8.39C2658,-8.39 4634,-8.39 4634,-8.39 4640,-8.39 4646,-14.39 4646,-20.39 4646,-20.39 4646,-125.39 4646,-125.39 4646,-131.39 4640,-137.39 4634,-137.39 4634,-137.39 2658,-137.39 2658,-137.39 2652,-137.39 2646,-131.39 2646,-125.39 2646,-125.39 2646,-20.39 2646,-20.39 2646,-14.39 2652,-8.39 2658,-8.39"/>
<text text-anchor="middle" x="3646" y="-122.19" font-family="Times,serif" font-size="14.00">(((aa*ca+ba*c)|(aa*c(a*aba*)|ba*c)a+ba*c)|((aa*ca+ba*a|(a+b)c)|(aa*c(a*aba*a|(ab))|ba*ac)(a*aba*)|ba*c)a+ba*|a+ba*a|(a+b))|(((aa*ca+ba*c)|(aa*c(a*aba*)|ba*c)a+ba*a|(a+b)c)|((aa*ca+ba*a|(a+b)c)|(aa*c(a*aba*a|(ab))|ba*ac)(a*aba*a|(ab))|ba*ac)((a*aba*a|(ab))|ba*a)|(a*aba*)|ba*)</text>
</g>
<g id="clust5" class="cluster">
<title>cluster4</title>
<path fill="#fff9dd" stroke="#fff9dd" d="M5814,-8.39C5814,-8.39 9809,-8.39 9809,-8.39 9815,-8.39 9821,-14.39 9821,-20.39 9821,-20.39 9821,-125.39 9821,-125.39 9821,-131.39 9815,-137.39 9809,-137.39 9809,-137.39 5814,-137.39 5814,-137.39 5808,-137.39 5802,-131.39 5802,-125.39 5802,-125.39 5802,-20.39 5802,-20.39 5802,-14.39 5808,-8.39 5814,-8.39"/>
<text text-anchor="middle" x="7811.5" y="-122.19" font-family="Times,serif" font-size="14.00">((((aa*ca+ba*c)|(aa*c(a*aba*)|ba*c)a+ba*c)|((aa*ca+ba*a|(a+b)c)|(aa*c(a*aba*a|(ab))|ba*ac)(a*aba*)|ba*c)a+ba*c)|(((aa*ca+ba*c)|(aa*c(a*aba*)|ba*c)a+ba*a|(a+b)c)|((aa*ca+ba*a|(a+b)c)|(aa*c(a*aba*a|(ab))|ba*ac)(a*aba*a|(ab))|ba*ac)(a*aba*)|ba*c)a+ba*|a+ba*a|(a+b))|((((aa*ca+ba*c)|(aa*c(a*aba*)|ba*c)a+ba*c)|((aa*ca+ba*a|(a+b)c)|(aa*c(a*aba*a|(ab))|ba*ac)(a*aba*)|ba*c)a+ba*a|(a+b)c)|(((aa*ca+ba*c)|(aa*c(a*aba*)|ba*c)a+ba*a|(a+b)c)|((aa*ca+ba*a|(a+b)c)|(aa*c(a*aba*a|(ab))|ba*ac)(a*aba*a|(ab))|ba*ac)(a*aba*a|(ab))|ba*ac)((a*aba*a|(ab))|ba*a)|(a*aba*)|ba*)</text>
</g>
<g id="clust6" class="cluster">
<title>cluster5</title>
<path fill="#fff9dd" stroke="#fff9dd" d="M11999,-8.39C11999,-8.39 20032,-8.39 20032,-8.39 20038,-8.39 20044,-14.39 20044,-20.39 20044,-20.39 20044,-125.39 20044,-125.39 20044,-131.39 20038,-137.39 20032,-137.39 20032,-137.39 11999,-137.39 11999,-137.39 11993,-137.39 11987,-131.39 11987,-125.39 11987,-125.39 11987,-20.39 11987,-20.39 11987,-14.39 11993,-8.39 11999,-8.39"/>
<text text-anchor="middle" x="16015.5" y="-122.19" font-family="Times,serif" font-size="14.00">(((((aa*ca+ba*c)|(aa*c(a*aba*)|ba*c)a+ba*c)|((aa*ca+ba*a|(a+b)c)|(aa*c(a*aba*a|(ab))|ba*ac)(a*aba*)|ba*c)a+ba*c)|(((aa*ca+ba*c)|(aa*c(a*aba*)|ba*c)a+ba*a|(a+b)c)|((aa*ca+ba*a|(a+b)c)|(aa*c(a*aba*a|(ab))|ba*ac)(a*aba*a|(ab))|ba*ac)(a*aba*)|ba*c)a+ba*c)|((((aa*ca+ba*c)|(aa*c(a*aba*)|ba*c)a+ba*c)|((aa*ca+ba*a|(a+b)c)|(aa*c(a*aba*a|(ab))|ba*ac)(a*aba*)|ba*c)a+ba*a|(a+b)c)|(((aa*ca+ba*c)|(aa*c(a*aba*)|ba*c)a+ba*a|(a+b)c)|((aa*ca+ba*a|(a+b)c)|(aa*c(a*aba*a|(ab))|ba*ac)(a*aba*a|(ab))|ba*ac)(a*aba*a|(ab))|ba*ac)(a*aba*)|ba*c)a+ba*|a+ba*a|(a+b))|(((((aa*ca+ba*c)|(aa*c(a*aba*)|ba*c)a+ba*c)|((aa*ca+ba*a|(a+b)c)|(aa*c(a*aba*a|(ab))|ba*ac)(a*aba*)|ba*c)a+ba*c)|(((aa*ca+ba*c)|(aa*c(a*aba*)|ba*c)a+ba*a|(a+b)c)|((aa*ca+ba*a|(a+b)c)|(aa*c(a*aba*a|(ab))|ba*ac)(a*aba*a|(ab))|ba*ac)(a*aba*)|ba*c)a+ba*a|(a+b)c)|((((aa*ca+ba*c)|(aa*c(a*aba*)|ba*c)a+ba*c)|((aa*ca+ba*a|(a+b)c)|(aa*c(a*aba*a|(ab))|ba*ac)(a*aba*)|ba*c)a+ba*a|(a+b)c)|(((aa*ca+ba*c)|(aa*c(a*aba*)|ba*c)a+ba*a|(a+b)c)|((aa*ca+ba*a|(a+b)c)|(aa*c(a*aba*a|(ab))|ba*ac)(a*aba*a|(ab))|ba*ac)(a*aba*a|(ab))|ba*ac)(a*aba*a|(ab))|ba*ac)((a*aba*a|(ab))|ba*a)|(a*aba*)|ba*)</text>
</g>
<g id="clust7" class="cluster">
<title>cluster6</title>
<path fill="#fff9dd" stroke="#fff9dd" d="M24241,-8.39C24241,-8.39 40417,-8.39 40417,-8.39 40423,-8.39 40429,-14.39 40429,-20.39 40429,-20.39 40429,-125.39 40429,-125.39 40429,-131.39 40423,-137.39 40417,-137.39 40417,-137.39 24241,-137.39 24241,-137.39 24235,-137.39 24229,-131.39 24229,-125.39 24229,-125.39 24229,-20.39 24229,-20.39 24229,-14.39 24235,-8.39 24241,-8.39"/>
<text text-anchor="middle" x="32329" y="-122.19" font-family="Times,serif" font-size="14.00">((((((aa*ca+ba*c)|(aa*c(a*aba*)|ba*c)a+ba*c)|((aa*ca+ba*a|(a+b)c)|(aa*c(a*aba*a|(ab))|ba*ac)(a*aba*)|ba*c)a+ba*c)|(((aa*ca+ba*c)|(aa*c(a*aba*)|ba*c)a+ba*a|(a+b)c)|((aa*ca+ba*a|(a+b)c)|(aa*c(a*aba*a|(ab))|ba*ac)(a*aba*a|(ab))|ba*ac)(a*aba*)|ba*c)a+ba*c)|((((aa*ca+ba*c)|(aa*c(a*aba*)|ba*c)a+ba*c)|((aa*ca+ba*a|(a+b)c)|(aa*c(a*aba*a|(ab))|ba*ac)(a*aba*)|ba*c)a+ba*a|(a+b)c)|(((aa*ca+ba*c)|(aa*c(a*aba*)|ba*c)a+ba*a|(a+b)c)|((aa*ca+ba*a|(a+b)c)|(aa*c(a*aba*a|(ab))|ba*ac)(a*aba*a|(ab))|ba*ac)(a*aba*a|(ab))|ba*ac)(a*aba*)|ba*c)a+ba*c)|(((((aa*ca+ba*c)|(aa*c(a*aba*)|ba*c)a+ba*c)|((aa*ca+ba*a|(a+b)c)|(aa*c(a*aba*a|(ab))|ba*ac)(a*aba*)|ba*c)a+ba*c)|(((aa*ca+ba*c)|(aa*c(a*aba*)|ba*c)a+ba*a|(a+b)c)|((aa*ca+ba*a|(a+b)c)|(aa*c(a*aba*a|(ab))|ba*ac)(a*aba*a|(ab))|ba*ac)(a*aba*)|ba*c)a+ba*a|(a+b)c)|((((aa*ca+ba*c)|(aa*c(a*aba*)|ba*c)a+ba*c)|((aa*ca+ba*a|(a+b)c)|(aa*c(a*aba*a|(ab))|ba*ac)(a*aba*)|ba*c)a+ba*a|(a+b)c)|(((aa*ca+ba*c)|(aa*c(a*aba*)|ba*c)a+ba*a|(a+b)c)|((aa*ca+ba*a|(a+b)c)|(aa*c(a*aba*a|(ab))|ba*ac)(a*aba*a|(ab))|ba*ac)(a*aba*a|(ab))|ba*ac)(a*aba*a|(ab))|ba*ac)(a*aba*)|ba*c)a+?|a+ba*a|(a+b)|a+ba*)|((((((aa*ca+ba*c)|(aa*c(a*aba*)|ba*c)a+ba*c)|((aa*ca+ba*a|(a+b)c)|(aa*c(a*aba*a|(ab))|ba*ac)(a*aba*)|ba*c)a+ba*c)|(((aa*ca+ba*c)|(aa*c(a*aba*)|ba*c)a+ba*a|(a+b)c)|((aa*ca+ba*a|(a+b)c)|(aa*c(a*aba*a|(ab))|ba*ac)(a*aba*a|(ab))|ba*ac)(a*aba*)|ba*c)a+ba*c)|((((aa*ca+ba*c)|(aa*c(a*aba*)|ba*c)a+ba*c)|((aa*ca+ba*a|(a+b)c)|(aa*c(a*aba*a|(ab))|ba*ac)(a*aba*)|ba*c)a+ba*a|(a+b)c)|(((aa*ca+ba*c)|(aa*c(a*aba*)|ba*c)a+ba*a|(a+b)c)|((aa*ca+ba*a|(a+b)c)|(aa*c(a*aba*a|(ab))|ba*ac)(a*aba*a|(ab))|ba*ac)(a*aba*a|(ab))|ba*ac)(a*aba*)|ba*c)a+ba*a|(a+b)c)|(((((aa*ca+ba*c)|(aa*c(a*aba*)|ba*c)a+ba*c)|((aa*ca+ba*a|(a+b)c)|(aa*c(a*aba*a|(ab))|ba*ac)(a*aba*)|ba*c)a+ba*c)|(((aa*ca+ba*c)|(aa*c(a*aba*)|ba*c)a+ba*a|(a+b)c)|((aa*ca+ba*a|(a+b)c)|(aa*c(a*aba*a|(ab))|ba*ac)(a*aba*a|(ab))|ba*ac)(a*aba*)|ba*c)a+ba*a|(a+b)c)|((((aa*ca+ba*c)|(aa*c(a*aba*)|ba*c)a+ba*c)|((aa*ca+ba*a|(a+b)c)|(aa*c(a*aba*a|(ab))|ba*ac)(a*aba*)|ba*c)a+ba*a|(a+b)c)|(((aa*ca+ba*c)|(aa*c(a*aba*)|ba*c)a+ba*a|(a+b)c)|((aa*ca+ba*a|(a+b)c)|(aa*c(a*aba*a|(ab))|ba*ac)(a*aba*a|(ab))|ba*ac)(a*aba*a|(ab))|ba*ac)(a*aba*a|(ab))|ba*ac)(a*aba*a|(ab))|ba*ac)(a*a)?|(a*aba*a|(ab))|ba*a|(a*aba*)|ba*)</text>
</g>
<!-- M0S0 -->
<g id="node1" class="node">
<title>M0S0</title>
<path fill="#ffffff" stroke="black" d="M58,-71.39C58,-71.39 28,-71.39 28,-71.39 22,-71.39 16,-65.39 16,-59.39 16,-59.39 16,-47.39 16,-47.39 16,-41.39 22,-35.39 28,-35.39 28,-35.39 58,-35.39 58,-35.39 64,-35.39 70,-41.39 70,-47.39 70,-47.39 70,-59.39 70,-59.39 70,-65.39 64,-71.39 58,-71.39"/>
<text text-anchor="middle" x="43" y="-49.69" font-family="Times,serif" font-size="14.00">0</text>
</g>
<!-- M1S2 -->
<g id="node2" class="node">
<title>M1S2</title>
<path fill="#ffffff" stroke="black" d="M429,-106.39C429,-106.39 399,-106.39 399,-106.39 393,-106.39 387,-100.39 387,-94.39 387,-94.39 387,-82.39 387,-82.39 387,-76.39 393,-70.39 399,-70.39 399,-70.39 429,-70.39 429,-70.39 435,-70.39 441,-76.39 441,-82.39 441,-82.39 441,-94.39 441,-94.39 441,-100.39 435,-106.39 429,-106.39"/>
<text text-anchor="middle" x="414" y="-84.69" font-family="Times,serif" font-size="14.00">2</text>
</g>
<!-- M0S0&#45;&gt;M1S2 -->
<g id="edge1" class="edge">
<title>M0S0&#45;&gt;M1S2</title>
<path fill="none" stroke="black" d="M70.43,-59.34C76.2,-60.48 82.29,-61.58 88,-62.39 192.15,-77.15 316.36,-84.18 376.62,-86.93"/>
<polygon fill="black" stroke="black" points="376.62,-90.43 386.76,-87.37 376.93,-83.44 376.62,-90.43"/>
<text text-anchor="middle" x="125" y="-74.19" font-family="Times,serif" font-size="14.00">(aa*, aa*c)</text>
</g>
<!-- M1S1 -->
<g id="node3" class="node">
<title>M1S1</title>
<path fill="#ffffff" stroke="black" d="M429,-52.39C429,-52.39 399,-52.39 399,-52.39 393,-52.39 387,-46.39 387,-40.39 387,-40.39 387,-28.39 387,-28.39 387,-22.39 393,-16.39 399,-16.39 399,-16.39 429,-16.39 429,-16.39 435,-16.39 441,-22.39 441,-28.39 441,-28.39 441,-40.39 441,-40.39 441,-46.39 435,-52.39 429,-52.39"/>
<text text-anchor="middle" x="414" y="-30.69" font-family="Times,serif" font-size="14.00">1</text>
</g>
<!-- M0S0&#45;&gt;M1S1 -->
<g id="edge2" class="edge">
<title>M0S0&#45;&gt;M1S1</title>
<path fill="none" stroke="black" d="M70.01,-49.42C75.91,-48.64 82.16,-47.9 88,-47.39 192.54,-38.19 316.57,-35.5 376.7,-34.71"/>
<polygon fill="black" stroke="black" points="376.87,-38.21 386.83,-34.59 376.79,-31.21 376.87,-38.21"/>
<text text-anchor="middle" x="125" y="-51.19" font-family="Times,serif" font-size="14.00">(aa*, aa*c)</text>
</g>
<!-- M2S2 -->
<g id="node4" class="node">
<title>M2S2</title>
<path fill="#ffffff" stroke="black" d="M1515,-106.39C1515,-106.39 1485,-106.39 1485,-106.39 1479,-106.39 1473,-100.39 1473,-94.39 1473,-94.39 1473,-82.39 1473,-82.39 1473,-76.39 1479,-70.39 1485,-70.39 1485,-70.39 1515,-70.39 1515,-70.39 1521,-70.39 1527,-76.39 1527,-82.39 1527,-82.39 1527,-94.39 1527,-94.39 1527,-100.39 1521,-106.39 1515,-106.39"/>
<text text-anchor="middle" x="1500" y="-84.69" font-family="Times,serif" font-size="14.00">2</text>
</g>
<!-- M1S2&#45;&gt;M2S2 -->
<g id="edge3" class="edge">
<title>M1S2&#45;&gt;M2S2</title>
<path fill="none" stroke="black" d="M441.11,-89.49C486.87,-91.36 584.5,-95.08 667,-96.39 974.78,-101.27 1346.66,-92.48 1462.66,-89.4"/>
<polygon fill="black" stroke="black" points="1462.87,-92.89 1472.77,-89.13 1462.68,-85.9 1462.87,-92.89"/>
<text text-anchor="middle" x="831" y="-101.19" font-family="Times,serif" font-size="14.00">(a+ba*, aa*ca+ba*c)</text>
</g>
<!-- M2S1 -->
<g id="node5" class="node">
<title>M2S1</title>
<path fill="#ffffff" stroke="black" d="M1515,-52.39C1515,-52.39 1485,-52.39 1485,-52.39 1479,-52.39 1473,-46.39 1473,-40.39 1473,-40.39 1473,-28.39 1473,-28.39 1473,-22.39 1479,-16.39 1485,-16.39 1485,-16.39 1515,-16.39 1515,-16.39 1521,-16.39 1527,-22.39 1527,-28.39 1527,-28.39 1527,-40.39 1527,-40.39 1527,-46.39 1521,-52.39 1515,-52.39"/>
<text text-anchor="middle" x="1500" y="-30.69" font-family="Times,serif" font-size="14.00">1</text>
</g>
<!-- M1S2&#45;&gt;M2S1 -->
<g id="edge4" class="edge">
<title>M1S2&#45;&gt;M2S1</title>
<path fill="none" stroke="black" d="M441.26,-87.08C586.71,-79.83 1293.11,-44.64 1462.46,-36.21"/>
<polygon fill="black" stroke="black" points="1462.79,-39.7 1472.6,-35.7 1462.44,-32.7 1462.79,-39.7"/>
<text text-anchor="middle" x="831" y="-79.19" font-family="Times,serif" font-size="14.00">(a+ba*a|(a+b), aa*ca+ba*a|(a+b)c)</text>
</g>
<!-- M1S1&#45;&gt;M2S2 -->
<g id="edge6" class="edge">
<title>M1S1&#45;&gt;M2S2</title>
<path fill="none" stroke="black" d="M441.2,-33.05C548.13,-27.81 948,-10.37 995,-40.39 1003.71,-45.95 996.41,-55.63 1005,-61.39 1149.83,-158.47 1375.59,-118.56 1462.87,-97.88"/>
<polygon fill="black" stroke="black" points="1463.92,-101.23 1472.81,-95.46 1462.27,-94.42 1463.92,-101.23"/>
<text text-anchor="middle" x="831" y="-44.19" font-family="Times,serif" font-size="14.00">((a*aba*)|ba*, aa*c(a*aba*)|ba*c)</text>
</g>
<!-- M1S1&#45;&gt;M2S1 -->
<g id="edge5" class="edge">
<title>M1S1&#45;&gt;M2S1</title>
<path fill="none" stroke="black" d="M441.03,-30.39C486.67,-23.62 584.12,-10.14 667,-5.39 974.49,12.25 1346.56,-19.57 1462.64,-30.73"/>
<polygon fill="black" stroke="black" points="1462.46,-34.23 1472.75,-31.71 1463.14,-27.26 1462.46,-34.23"/>
<text text-anchor="middle" x="831" y="-9.19" font-family="Times,serif" font-size="14.00">((a*aba*a|(ab))|ba*a, aa*c(a*aba*a|(ab))|ba*ac)</text>
</g>
<!-- M3S2 -->
<g id="node6" class="node">
<title>M3S2</title>
<path fill="#ffffff" stroke="black" d="M3661,-106.39C3661,-106.39 3631,-106.39 3631,-106.39 3625,-106.39 3619,-100.39 3619,-94.39 3619,-94.39 3619,-82.39 3619,-82.39 3619,-76.39 3625,-70.39 3631,-70.39 3631,-70.39 3661,-70.39 3661,-70.39 3667,-70.39 3673,-76.39 3673,-82.39 3673,-82.39 3673,-94.39 3673,-94.39 3673,-100.39 3667,-106.39 3661,-106.39"/>
<text text-anchor="middle" x="3646" y="-84.69" font-family="Times,serif" font-size="14.00">2</text>
</g>
<!-- M2S2&#45;&gt;M3S2 -->
<g id="edge7" class="edge">
<title>M2S2&#45;&gt;M3S2</title>
<path fill="none" stroke="black" d="M1527.23,-88.95C1601.92,-90.52 1822.11,-94.94 2005,-96.39 2648.13,-101.49 3433.16,-91.36 3608.96,-88.91"/>
<polygon fill="black" stroke="black" points="3609.01,-92.41 3618.96,-88.77 3608.91,-85.41 3609.01,-92.41"/>
<text text-anchor="middle" x="2320.5" y="-101.19" font-family="Times,serif" font-size="14.00">(a+ba*, (aa*ca+ba*c)|(aa*c(a*aba*)|ba*c)a+ba*c)</text>
</g>
<!-- M3S1 -->
<g id="node7" class="node">
<title>M3S1</title>
<path fill="#ffffff" stroke="black" d="M3661,-52.39C3661,-52.39 3631,-52.39 3631,-52.39 3625,-52.39 3619,-46.39 3619,-40.39 3619,-40.39 3619,-28.39 3619,-28.39 3619,-22.39 3625,-16.39 3631,-16.39 3631,-16.39 3661,-16.39 3661,-16.39 3667,-16.39 3673,-22.39 3673,-28.39 3673,-28.39 3673,-40.39 3673,-40.39 3673,-46.39 3667,-52.39 3661,-52.39"/>
<text text-anchor="middle" x="3646" y="-30.69" font-family="Times,serif" font-size="14.00">1</text>
</g>
<!-- M2S2&#45;&gt;M3S1 -->
<g id="edge8" class="edge">
<title>M2S2&#45;&gt;M3S1</title>
<path fill="none" stroke="black" d="M1527.33,-87.72C1752.16,-82.06 3346.95,-41.89 3608.69,-35.3"/>
<polygon fill="black" stroke="black" points="3608.89,-38.8 3618.8,-35.05 3608.72,-31.8 3608.89,-38.8"/>
<text text-anchor="middle" x="2320.5" y="-79.19" font-family="Times,serif" font-size="14.00">(a+ba*a|(a+b), (aa*ca+ba*c)|(aa*c(a*aba*)|ba*c)a+ba*a|(a+b)c)</text>
</g>
<!-- M2S1&#45;&gt;M3S2 -->
<g id="edge10" class="edge">
<title>M2S1&#45;&gt;M3S2</title>
<path fill="none" stroke="black" d="M1527.25,-33.74C1692.87,-29.76 2587.71,-9.72 2636,-40.39 2644.73,-45.93 2637.33,-55.75 2646,-61.39 2965.25,-269.05 3471.5,-140.44 3609.35,-99.56"/>
<polygon fill="black" stroke="black" points="3610.43,-102.89 3619,-96.66 3608.41,-96.18 3610.43,-102.89"/>
<text text-anchor="middle" x="2320.5" y="-44.19" font-family="Times,serif" font-size="14.00">((a*aba*)|ba*, (aa*ca+ba*a|(a+b)c)|(aa*c(a*aba*a|(ab))|ba*ac)(a*aba*)|ba*c)</text>
</g>
<!-- M2S1&#45;&gt;M3S1 -->
<g id="edge9" class="edge">
<title>M2S1&#45;&gt;M3S1</title>
<path fill="none" stroke="black" d="M1527.21,-32.35C1601.84,-26.65 1821.9,-10.65 2005,-5.39 2647.98,13.1 3433.13,-23.62 3608.95,-32.51"/>
<polygon fill="black" stroke="black" points="3608.79,-36.01 3618.96,-33.02 3609.15,-29.02 3608.79,-36.01"/>
<text text-anchor="middle" x="2320.5" y="-9.19" font-family="Times,serif" font-size="14.00">((a*aba*a|(ab))|ba*a, (aa*ca+ba*a|(a+b)c)|(aa*c(a*aba*a|(ab))|ba*ac)(a*aba*a|(ab))|ba*ac)</text>
</g>
<!-- M4S2 -->
<g id="node8" class="node">
<title>M4S2</title>
<path fill="#ffffff" stroke="black" d="M7826,-106.39C7826,-106.39 7796,-106.39 7796,-106.39 7790,-106.39 7784,-100.39 7784,-94.39 7784,-94.39 7784,-82.39 7784,-82.39 7784,-76.39 7790,-70.39 7796,-70.39 7796,-70.39 7826,-70.39 7826,-70.39 7832,-70.39 7838,-76.39 7838,-82.39 7838,-82.39 7838,-94.39 7838,-94.39 7838,-100.39 7832,-106.39 7826,-106.39"/>
<text text-anchor="middle" x="7811" y="-84.69" font-family="Times,serif" font-size="14.00">2</text>
</g>
<!-- M3S2&#45;&gt;M4S2 -->
<g id="edge11" class="edge">
<title>M3S2&#45;&gt;M4S2</title>
<path fill="none" stroke="black" d="M3673.11,-88.67C3788.59,-89.91 4264.92,-94.84 4656,-96.39 5938.73,-101.47 7514.92,-90.55 7773.38,-88.66"/>
<polygon fill="black" stroke="black" points="7773.72,-92.16 7783.7,-88.59 7773.67,-85.16 7773.72,-92.16"/>
<text text-anchor="middle" x="5224" y="-101.19" font-family="Times,serif" font-size="14.00">(a+ba*, ((aa*ca+ba*c)|(aa*c(a*aba*)|ba*c)a+ba*c)|((aa*ca+ba*a|(a+b)c)|(aa*c(a*aba*a|(ab))|ba*ac)(a*aba*)|ba*c)a+ba*c)</text>
</g>
<!-- M4S1 -->
<g id="node9" class="node">
<title>M4S1</title>
<path fill="#ffffff" stroke="black" d="M7826,-52.39C7826,-52.39 7796,-52.39 7796,-52.39 7790,-52.39 7784,-46.39 7784,-40.39 7784,-40.39 7784,-28.39 7784,-28.39 7784,-22.39 7790,-16.39 7796,-16.39 7796,-16.39 7826,-16.39 7826,-16.39 7832,-16.39 7838,-22.39 7838,-28.39 7838,-28.39 7838,-40.39 7838,-40.39 7838,-46.39 7832,-52.39 7826,-52.39"/>
<text text-anchor="middle" x="7811" y="-30.69" font-family="Times,serif" font-size="14.00">1</text>
</g>
<!-- M3S2&#45;&gt;M4S1 -->
<g id="edge12" class="edge">
<title>M3S2&#45;&gt;M4S1</title>
<path fill="none" stroke="black" d="M3673.04,-88.05C4004.01,-83.76 7384.9,-39.9 7773.63,-34.86"/>
<polygon fill="black" stroke="black" points="7773.81,-38.36 7783.76,-34.73 7773.72,-31.36 7773.81,-38.36"/>
<text text-anchor="middle" x="5224" y="-78.19" font-family="Times,serif" font-size="14.00">(a+ba*a|(a+b), ((aa*ca+ba*c)|(aa*c(a*aba*)|ba*c)a+ba*c)|((aa*ca+ba*a|(a+b)c)|(aa*c(a*aba*a|(ab))|ba*ac)(a*aba*)|ba*c)a+ba*a|(a+b)c)</text>
</g>
<!-- M3S1&#45;&gt;M4S2 -->
<g id="edge14" class="edge">
<title>M3S1&#45;&gt;M4S2</title>
<path fill="none" stroke="black" d="M3673.12,-34.09C3914.23,-31.41 5744.7,-12.05 5792,-41.39 5800.45,-46.63 5793.58,-56.11 5802,-61.39 6482.67,-488.42 7565.28,-168.43 7774.4,-100.37"/>
<polygon fill="black" stroke="black" points="7775.55,-103.68 7783.96,-97.24 7773.37,-97.02 7775.55,-103.68"/>
<text text-anchor="middle" x="5224" y="-45.19" font-family="Times,serif" font-size="14.00">((a*aba*)|ba*, ((aa*ca+ba*c)|(aa*c(a*aba*)|ba*c)a+ba*a|(a+b)c)|((aa*ca+ba*a|(a+b)c)|(aa*c(a*aba*a|(ab))|ba*ac)(a*aba*a|(ab))|ba*ac)(a*aba*)|ba*c)</text>
</g>
<!-- M3S1&#45;&gt;M4S1 -->
<g id="edge13" class="edge">
<title>M3S1&#45;&gt;M4S1</title>
<path fill="none" stroke="black" d="M3673.11,-33.36C3788.56,-28.88 4264.8,-11.01 4656,-5.39 5938.66,13.04 7514.91,-26.54 7773.38,-33.4"/>
<polygon fill="black" stroke="black" points="7773.6,-36.9 7783.69,-33.67 7773.79,-29.91 7773.6,-36.9"/>
<text text-anchor="middle" x="5224" y="-9.19" font-family="Times,serif" font-size="14.00">((a*aba*a|(ab))|ba*a, ((aa*ca+ba*c)|(aa*c(a*aba*)|ba*c)a+ba*a|(a+b)c)|((aa*ca+ba*a|(a+b)c)|(aa*c(a*aba*a|(ab))|ba*ac)(a*aba*a|(ab))|ba*ac)(a*aba*a|(ab))|ba*ac)</text>
</g>
<!-- M5S2 -->
<g id="node10" class="node">
<title>M5S2</title>
<path fill="#ffffff" stroke="black" d="M16030,-106.39C16030,-106.39 16000,-106.39 16000,-106.39 15994,-106.39 15988,-100.39 15988,-94.39 15988,-94.39 15988,-82.39 15988,-82.39 15988,-76.39 15994,-70.39 16000,-70.39 16000,-70.39 16030,-70.39 16030,-70.39 16036,-70.39 16042,-76.39 16042,-82.39 16042,-82.39 16042,-94.39 16042,-94.39 16042,-100.39 16036,-106.39 16030,-106.39"/>
<text text-anchor="middle" x="16015" y="-84.69" font-family="Times,serif" font-size="14.00">2</text>
</g>
<!-- M4S2&#45;&gt;M5S2 -->
<g id="edge15" class="edge">
<title>M4S2&#45;&gt;M5S2</title>
<path fill="none" stroke="black" d="M7838.19,-88.53C8011.74,-89.47 9014.28,-94.77 9831,-96.39 12413.98,-101.51 15603.93,-89.93 15977.73,-88.53"/>
<polygon fill="black" stroke="black" points="15977.98,-92.03 15987.97,-88.49 15977.95,-85.03 15977.98,-92.03"/>
<text text-anchor="middle" x="10904" y="-101.19" font-family="Times,serif" font-size="14.00">(a+ba*, (((aa*ca+ba*c)|(aa*c(a*aba*)|ba*c)a+ba*c)|((aa*ca+ba*a|(a+b)c)|(aa*c(a*aba*a|(ab))|ba*ac)(a*aba*)|ba*c)a+ba*c)|(((aa*ca+ba*c)|(aa*c(a*aba*)|ba*c)a+ba*a|(a+b)c)|((aa*ca+ba*a|(a+b)c)|(aa*c(a*aba*a|(ab))|ba*ac)(a*aba*a|(ab))|ba*ac)(a*aba*)|ba*c)a+ba*c)</text>
</g>
<!-- M5S1 -->
<g id="node11" class="node">
<title>M5S1</title>
<path fill="#ffffff" stroke="black" d="M16030,-52.39C16030,-52.39 16000,-52.39 16000,-52.39 15994,-52.39 15988,-46.39 15988,-40.39 15988,-40.39 15988,-28.39 15988,-28.39 15988,-22.39 15994,-16.39 16000,-16.39 16000,-16.39 16030,-16.39 16030,-16.39 16036,-16.39 16042,-22.39 16042,-28.39 16042,-28.39 16042,-40.39 16042,-40.39 16042,-46.39 16036,-52.39 16030,-52.39"/>
<text text-anchor="middle" x="16015" y="-30.69" font-family="Times,serif" font-size="14.00">1</text>
</g>
<!-- M4S2&#45;&gt;M5S1 -->
<g id="edge16" class="edge">
<title>M4S2&#45;&gt;M5S1</title>
<path fill="none" stroke="black" d="M7838.14,-88.22C8323.37,-85.02 15407.26,-38.38 15977.58,-34.63"/>
<polygon fill="black" stroke="black" points="15977.73,-38.13 15987.71,-34.56 15977.69,-31.13 15977.73,-38.13"/>
<text text-anchor="middle" x="10904" y="-78.19" font-family="Times,serif" font-size="14.00">(a+ba*a|(a+b), (((aa*ca+ba*c)|(aa*c(a*aba*)|ba*c)a+ba*c)|((aa*ca+ba*a|(a+b)c)|(aa*c(a*aba*a|(ab))|ba*ac)(a*aba*)|ba*c)a+ba*c)|(((aa*ca+ba*c)|(aa*c(a*aba*)|ba*c)a+ba*a|(a+b)c)|((aa*ca+ba*a|(a+b)c)|(aa*c(a*aba*a|(ab))|ba*ac)(a*aba*a|(ab))|ba*ac)(a*aba*)|ba*c)a+ba*a|(a+b)c)</text>
</g>
<!-- M4S1&#45;&gt;M5S2 -->
<g id="edge18" class="edge">
<title>M4S1&#45;&gt;M5S2</title>
<path fill="none" stroke="black" d="M7838.02,-34.24C8187.01,-32.32 11930.11,-12.35 11977,-41.39 11985.45,-46.62 11978.56,-56.13 11987,-61.39 12699.41,-504.99 15617.14,-140.33 15977.45,-93.24"/>
<polygon fill="black" stroke="black" points="15978.13,-96.68 15987.59,-91.91 15977.22,-89.74 15978.13,-96.68"/>
<text text-anchor="middle" x="10904" y="-45.19" font-family="Times,serif" font-size="14.00">((a*aba*)|ba*, (((aa*ca+ba*c)|(aa*c(a*aba*)|ba*c)a+ba*c)|((aa*ca+ba*a|(a+b)c)|(aa*c(a*aba*a|(ab))|ba*ac)(a*aba*)|ba*c)a+ba*a|(a+b)c)|(((aa*ca+ba*c)|(aa*c(a*aba*)|ba*c)a+ba*a|(a+b)c)|((aa*ca+ba*a|(a+b)c)|(aa*c(a*aba*a|(ab))|ba*ac)(a*aba*a|(ab))|ba*ac)(a*aba*a|(ab))|ba*ac)(a*aba*)|ba*c)</text>
</g>
<!-- M4S1&#45;&gt;M5S1 -->
<g id="edge17" class="edge">
<title>M4S1&#45;&gt;M5S1</title>
<path fill="none" stroke="black" d="M7838.18,-33.87C8011.73,-30.46 9014.22,-11.25 9831,-5.39 12413.94,13.16 15603.92,-28.78 15977.73,-33.89"/>
<polygon fill="black" stroke="black" points="15977.92,-37.39 15987.97,-34.03 15978.01,-30.39 15977.92,-37.39"/>
<text text-anchor="middle" x="10904" y="-9.19" font-family="Times,serif" font-size="14.00">((a*aba*a|(ab))|ba*a, (((aa*ca+ba*c)|(aa*c(a*aba*)|ba*c)a+ba*c)|((aa*ca+ba*a|(a+b)c)|(aa*c(a*aba*a|(ab))|ba*ac)(a*aba*)|ba*c)a+ba*a|(a+b)c)|(((aa*ca+ba*c)|(aa*c(a*aba*)|ba*c)a+ba*a|(a+b)c)|((aa*ca+ba*a|(a+b)c)|(aa*c(a*aba*a|(ab))|ba*ac)(a*aba*a|(ab))|ba*ac)(a*aba*a|(ab))|ba*ac)(a*aba*a|(ab))|ba*ac)</text>
</g>
<!-- M6S2 -->
<g id="node12" class="node">
<title>M6S2</title>
<path fill="#ffffff" stroke="black" d="M32344,-106.39C32344,-106.39 32314,-106.39 32314,-106.39 32308,-106.39 32302,-100.39 32302,-94.39 32302,-94.39 32302,-82.39 32302,-82.39 32302,-76.39 32308,-70.39 32314,-70.39 32314,-70.39 32344,-70.39 32344,-70.39 32350,-70.39 32356,-76.39 32356,-82.39 32356,-82.39 32356,-94.39 32356,-94.39 32356,-100.39 32350,-106.39 32344,-106.39"/>
<text text-anchor="middle" x="32329" y="-84.69" font-family="Times,serif" font-size="14.00">2</text>
</g>
<!-- M5S2&#45;&gt;M6S2 -->
<g id="edge19" class="edge">
<title>M5S2&#45;&gt;M6S2</title>
<path fill="none" stroke="black" d="M16042.03,-88.46C16296.83,-89.15 18372.37,-94.72 20054,-96.39 25276.06,-101.56 31747.86,-89.5 32291.3,-88.46"/>
<polygon fill="black" stroke="black" points="32291.68,-91.96 32301.68,-88.44 32291.67,-84.96 32291.68,-91.96"/>
<text text-anchor="middle" x="22136.5" y="-101.19" font-family="Times,serif" font-size="14.00">(a+ba*, ((((aa*ca+ba*c)|(aa*c(a*aba*)|ba*c)a+ba*c)|((aa*ca+ba*a|(a+b)c)|(aa*c(a*aba*a|(ab))|ba*ac)(a*aba*)|ba*c)a+ba*c)|(((aa*ca+ba*c)|(aa*c(a*aba*)|ba*c)a+ba*a|(a+b)c)|((aa*ca+ba*a|(a+b)c)|(aa*c(a*aba*a|(ab))|ba*ac)(a*aba*a|(ab))|ba*ac)(a*aba*)|ba*c)a+ba*c)|((((aa*ca+ba*c)|(aa*c(a*aba*)|ba*c)a+ba*c)|((aa*ca+ba*a|(a+b)c)|(aa*c(a*aba*a|(ab))|ba*ac)(a*aba*)|ba*c)a+ba*a|(a+b)c)|(((aa*ca+ba*c)|(aa*c(a*aba*)|ba*c)a+ba*a|(a+b)c)|((aa*ca+ba*a|(a+b)c)|(aa*c(a*aba*a|(ab))|ba*ac)(a*aba*a|(ab))|ba*ac)(a*aba*a|(ab))|ba*ac)(a*aba*)|ba*c)a+ba*c)</text>
</g>
<!-- M6S1 -->
<g id="node13" class="node">
<title>M6S1</title>
<path fill="#ffffff" stroke="black" d="M32344,-52.39C32344,-52.39 32314,-52.39 32314,-52.39 32308,-52.39 32302,-46.39 32302,-40.39 32302,-40.39 32302,-28.39 32302,-28.39 32302,-22.39 32308,-16.39 32314,-16.39 32314,-16.39 32344,-16.39 32344,-16.39 32350,-16.39 32356,-22.39 32356,-28.39 32356,-28.39 32356,-40.39 32356,-40.39 32356,-46.39 32350,-52.39 32344,-52.39"/>
<text text-anchor="middle" x="32329" y="-30.69" font-family="Times,serif" font-size="14.00">1</text>
</g>
<!-- M5S2&#45;&gt;M6S1 -->
<g id="edge20" class="edge">
<title>M5S2&#45;&gt;M6S1</title>
<path fill="none" stroke="black" d="M16042.19,-88.3C16747.39,-85.97 31465.42,-37.24 32291.83,-34.51"/>
<polygon fill="black" stroke="black" points="32291.97,-38.01 32301.96,-34.47 32291.95,-31.01 32291.97,-38.01"/>
<text text-anchor="middle" x="22136.5" y="-78.19" font-family="Times,serif" font-size="14.00">(a+ba*a|(a+b), ((((aa*ca+ba*c)|(aa*c(a*aba*)|ba*c)a+ba*c)|((aa*ca+ba*a|(a+b)c)|(aa*c(a*aba*a|(ab))|ba*ac)(a*aba*)|ba*c)a+ba*c)|(((aa*ca+ba*c)|(aa*c(a*aba*)|ba*c)a+ba*a|(a+b)c)|((aa*ca+ba*a|(a+b)c)|(aa*c(a*aba*a|(ab))|ba*ac)(a*aba*a|(ab))|ba*ac)(a*aba*)|ba*c)a+ba*c)|((((aa*ca+ba*c)|(aa*c(a*aba*)|ba*c)a+ba*c)|((aa*ca+ba*a|(a+b)c)|(aa*c(a*aba*a|(ab))|ba*ac)(a*aba*)|ba*c)a+ba*a|(a+b)c)|(((aa*ca+ba*c)|(aa*c(a*aba*)|ba*c)a+ba*a|(a+b)c)|((aa*ca+ba*a|(a+b)c)|(aa*c(a*aba*a|(ab))|ba*ac)(a*aba*a|(ab))|ba*ac)(a*aba*a|(ab))|ba*ac)(a*aba*)|ba*c)a+ba*a|(a+b)c)</text>
</g>
<!-- M5S1&#45;&gt;M6S2 -->
<g id="edge22" class="edge">
<title>M5S1&#45;&gt;M6S2</title>
<path fill="none" stroke="black" d="M16042.37,-34.31C16548.58,-32.92 24172.16,-12.41 24219,-41.39 24227.45,-46.62 24220.55,-56.15 24229,-61.39 24962.14,-516.19 31733.76,-123.75 32291.5,-90.58"/>
<polygon fill="black" stroke="black" points="32292,-94.05 32301.77,-89.97 32291.58,-87.07 32292,-94.05"/>
<text text-anchor="middle" x="22136.5" y="-45.19" font-family="Times,serif" font-size="14.00">((a*aba*)|ba*, ((((aa*ca+ba*c)|(aa*c(a*aba*)|ba*c)a+ba*c)|((aa*ca+ba*a|(a+b)c)|(aa*c(a*aba*a|(ab))|ba*ac)(a*aba*)|ba*c)a+ba*c)|(((aa*ca+ba*c)|(aa*c(a*aba*)|ba*c)a+ba*a|(a+b)c)|((aa*ca+ba*a|(a+b)c)|(aa*c(a*aba*a|(ab))|ba*ac)(a*aba*a|(ab))|ba*ac)(a*aba*)|ba*c)a+ba*a|(a+b)c)|((((aa*ca+ba*c)|(aa*c(a*aba*)|ba*c)a+ba*c)|((aa*ca+ba*a|(a+b)c)|(aa*c(a*aba*a|(ab))|ba*ac)(a*aba*)|ba*c)a+ba*a|(a+b)c)|(((aa*ca+ba*c)|(aa*c(a*aba*)|ba*c)a+ba*a|(a+b)c)|((aa*ca+ba*a|(a+b)c)|(aa*c(a*aba*a|(ab))|ba*ac)(a*aba*a|(ab))|ba*ac)(a*aba*a|(ab))|ba*ac)(a*aba*a|(ab))|ba*ac)(a*aba*)|ba*c)</text>
</g>
<!-- M5S1&#45;&gt;M6S1 -->
<g id="edge21" class="edge">
<title>M5S1&#45;&gt;M6S1</title>
<path fill="none" stroke="black" d="M16042.03,-34.13C16296.82,-31.61 18372.34,-11.43 20054,-5.39 25276.04,13.36 31747.86,-30.36 32291.3,-34.13"/>
<polygon fill="black" stroke="black" points="32291.65,-37.63 32301.68,-34.2 32291.7,-30.63 32291.65,-37.63"/>
<text text-anchor="middle" x="22136.5" y="-9.19" font-family="Times,serif" font-size="14.00">((a*aba*a|(ab))|ba*a, ((((aa*ca+ba*c)|(aa*c(a*aba*)|ba*c)a+ba*c)|((aa*ca+ba*a|(a+b)c)|(aa*c(a*aba*a|(ab))|ba*ac)(a*aba*)|ba*c)a+ba*c)|(((aa*ca+ba*c)|(aa*c(a*aba*)|ba*c)a+ba*a|(a+b)c)|((aa*ca+ba*a|(a+b)c)|(aa*c(a*aba*a|(ab))|ba*ac)(a*aba*a|(ab))|ba*ac)(a*aba*)|ba*c)a+ba*a|(a+b)c)|((((aa*ca+ba*c)|(aa*c(a*aba*)|ba*c)a+ba*c)|((aa*ca+ba*a|(a+b)c)|(aa*c(a*aba*a|(ab))|ba*ac)(a*aba*)|ba*c)a+ba*a|(a+b)c)|(((aa*ca+ba*c)|(aa*c(a*aba*)|ba*c)a+ba*a|(a+b)c)|((aa*ca+ba*a|(a+b)c)|(aa*c(a*aba*a|(ab))|ba*ac)(a*aba*a|(ab))|ba*ac)(a*aba*a|(ab))|ba*ac)(a*aba*a|(ab))|ba*ac)(a*aba*a|(ab))|ba*ac)</text>
</g>
</g>
</svg>
