<?xml version="1.0" encoding="UTF-8" standalone="no"?>
<!DOCTYPE svg PUBLIC "-//W3C//DTD SVG 1.1//EN"
 "http://www.w3.org/Graphics/SVG/1.1/DTD/svg11.dtd">
<!-- Generated by graphviz version 2.43.0 (0)
 -->
<!-- Title: EXPinput/r Pages: 1 -->
<svg width="755pt" height="540pt"
 viewBox="0.00 0.00 755.00 540.00" xmlns="http://www.w3.org/2000/svg" xmlns:xlink="http://www.w3.org/1999/xlink">
<g id="graph0" class="graph" transform="scale(1 1) rotate(0) translate(4 536)">
<title>EXPinput/r</title>
<polygon fill="white" stroke="transparent" points="-4,4 -4,-536 751,-536 751,4 -4,4"/>
<g id="clust1" class="cluster">
<title>cluster0</title>
<path fill="#eaffee" stroke="#eaffee" d="M224,-353C224,-353 297,-353 297,-353 303,-353 309,-359 309,-365 309,-365 309,-512 309,-512 309,-518 303,-524 297,-524 297,-524 224,-524 224,-524 218,-524 212,-518 212,-512 212,-512 212,-365 212,-365 212,-359 218,-353 224,-353"/>
<text text-anchor="middle" x="260.5" y="-508.8" font-family="Times,serif" font-size="14.00" fill="#b2ccbb">C0</text>
</g>
<g id="clust2" class="cluster">
<title>cluster1</title>
<path fill="#eaffee" stroke="#eaffee" d="M20,-8C20,-8 268,-8 268,-8 274,-8 280,-14 280,-20 280,-20 280,-308 280,-308 280,-314 274,-320 268,-320 268,-320 20,-320 20,-320 14,-320 8,-314 8,-308 8,-308 8,-20 8,-20 8,-14 14,-8 20,-8"/>
<text text-anchor="middle" x="144" y="-304.8" font-family="Times,serif" font-size="14.00" fill="#b2ccbb">C1</text>
</g>
<g id="clust3" class="cluster">
<title>cluster2</title>
<path fill="#eaffee" stroke="#eaffee" d="M539,-89C539,-89 727,-89 727,-89 733,-89 739,-95 739,-101 739,-101 739,-410 739,-410 739,-416 733,-422 727,-422 727,-422 539,-422 539,-422 533,-422 527,-416 527,-410 527,-410 527,-101 527,-101 527,-95 533,-89 539,-89"/>
<text text-anchor="middle" x="633" y="-406.8" font-family="Times,serif" font-size="14.00" fill="#b2ccbb">C2</text>
</g>
<!-- C0S0 -->
<g id="node1" class="node">
<title>C0S0</title>
<polygon fill="white" stroke="black" points="263,-473.44 263,-482.56 256.56,-489 247.44,-489 241,-482.56 241,-473.44 247.44,-467 256.56,-467 263,-473.44"/>
<polygon fill="none" stroke="black" points="267,-471.79 267,-484.21 258.21,-493 245.79,-493 237,-484.21 237,-471.79 245.79,-463 258.21,-463 267,-471.79"/>
</g>
<!-- C0S0&#45;&gt;C0S0 -->
<g id="edge1" class="edge">
<title>C0S0&#45;&gt;C0S0</title>
<path fill="none" stroke="darkgray" d="M266.59,-484.91C275.97,-486.71 285,-484.41 285,-478 285,-474.1 281.65,-471.72 276.91,-470.86"/>
<polygon fill="darkgray" stroke="darkgray" points="276.51,-467.37 266.59,-471.09 276.67,-474.37 276.51,-467.37"/>
<text text-anchor="middle" x="293" y="-474.3" font-family="Times,serif" font-size="14.00" fill="darkgray">t4</text>
</g>
<!-- C0S1 -->
<g id="node2" class="node">
<title>C0S1</title>
<polygon fill="white" stroke="black" points="249,-371.44 249,-380.56 242.56,-387 233.44,-387 227,-380.56 227,-371.44 233.44,-365 242.56,-365 249,-371.44"/>
<polygon fill="none" stroke="black" points="253,-369.79 253,-382.21 244.21,-391 231.79,-391 223,-382.21 223,-369.79 231.79,-361 244.21,-361 253,-369.79"/>
</g>
<!-- C0S0&#45;&gt;C0S1 -->
<g id="edge2" class="edge">
<title>C0S0&#45;&gt;C0S1</title>
<path fill="none" stroke="darkgray" d="M245.14,-463.33C242.71,-457.79 240.26,-451.23 239,-445 236.1,-430.72 235.76,-414.4 236.19,-401.33"/>
<polygon fill="darkgray" stroke="darkgray" points="239.7,-401.39 236.7,-391.23 232.7,-401.04 239.7,-401.39"/>
<text text-anchor="middle" x="251" y="-433.8" font-family="Times,serif" font-size="14.00" fill="darkgray">t1a</text>
</g>
<!-- C2S0 -->
<g id="node7" class="node">
<title>C2S0</title>
<polygon fill="white" stroke="black" points="583,-371.44 583,-380.56 576.56,-387 567.44,-387 561,-380.56 561,-371.44 567.44,-365 576.56,-365 583,-371.44"/>
<polygon fill="none" stroke="black" points="587,-369.79 587,-382.21 578.21,-391 565.79,-391 557,-382.21 557,-369.79 565.79,-361 578.21,-361 587,-369.79"/>
</g>
<!-- C0S0&#45;&gt;C2S0 -->
<g id="edge25" class="edge">
<title>C0S0&#45;&gt;C2S0</title>
<path fill="none" stroke="black" stroke-dasharray="5,2" d="M267.01,-472.31C317.8,-456.44 483.67,-404.6 547.06,-384.79"/>
<polygon fill="black" stroke="black" points="556.66,-381.8 548.45,-389.07 551.88,-383.29 547.11,-384.78 547.11,-384.78 547.11,-384.78 551.88,-383.29 545.77,-380.48 556.66,-381.8 556.66,-381.8"/>
<text text-anchor="middle" x="422.5" y="-433.8" font-family="Times,serif" font-size="14.00">O1 c aa*</text>
</g>
<!-- C0S1&#45;&gt;C0S0 -->
<g id="edge4" class="edge">
<title>C0S1&#45;&gt;C0S0</title>
<path fill="none" stroke="darkgray" d="M245.84,-389.49C251.87,-399.89 259.71,-415.31 263,-430 264.71,-437.65 263.71,-445.98 261.74,-453.47"/>
<polygon fill="darkgray" stroke="darkgray" points="258.4,-452.44 258.63,-463.03 265.05,-454.61 258.4,-452.44"/>
<text text-anchor="middle" x="271" y="-433.8" font-family="Times,serif" font-size="14.00" fill="darkgray">t2</text>
</g>
<!-- C0S1&#45;&gt;C0S1 -->
<g id="edge3" class="edge">
<title>C0S1&#45;&gt;C0S1</title>
<path fill="none" stroke="darkgray" d="M252.59,-382.91C261.97,-384.71 271,-382.41 271,-376 271,-372.1 267.65,-369.72 262.91,-368.86"/>
<polygon fill="darkgray" stroke="darkgray" points="262.51,-365.37 252.59,-369.09 262.67,-372.37 262.51,-365.37"/>
<text text-anchor="middle" x="279" y="-372.3" font-family="Times,serif" font-size="14.00" fill="darkgray">t4</text>
</g>
<!-- C1S0 -->
<g id="node3" class="node">
<title>C1S0</title>
<polygon fill="white" stroke="black" points="136,-269.44 136,-278.56 129.56,-285 120.44,-285 114,-278.56 114,-269.44 120.44,-263 129.56,-263 136,-269.44"/>
<polygon fill="none" stroke="black" points="140,-267.79 140,-280.21 131.21,-289 118.79,-289 110,-280.21 110,-267.79 118.79,-259 131.21,-259 140,-267.79"/>
</g>
<!-- C0S1&#45;&gt;C1S0 -->
<g id="edge22" class="edge">
<title>C0S1&#45;&gt;C1S0</title>
<path fill="none" stroke="black" stroke-dasharray="5,2" d="M227.17,-365.41C207.89,-348.36 167.45,-312.57 143.64,-291.49"/>
<polygon fill="black" stroke="black" points="135.97,-284.71 146.44,-287.96 139.71,-288.02 143.46,-291.33 143.46,-291.33 143.46,-291.33 139.71,-288.02 140.47,-294.7 135.97,-284.71 135.97,-284.71"/>
<text text-anchor="middle" x="231.5" y="-331.8" font-family="Times,serif" font-size="14.00">O1 c aa*</text>
</g>
<!-- C1S1 -->
<g id="node4" class="node">
<title>C1S1</title>
<polygon fill="white" stroke="black" points="156,-188.44 156,-197.56 149.56,-204 140.44,-204 134,-197.56 134,-188.44 140.44,-182 149.56,-182 156,-188.44"/>
<polygon fill="none" stroke="black" points="160,-186.79 160,-199.21 151.21,-208 138.79,-208 130,-199.21 130,-186.79 138.79,-178 151.21,-178 160,-186.79"/>
</g>
<!-- C1S0&#45;&gt;C1S1 -->
<g id="edge6" class="edge">
<title>C1S0&#45;&gt;C1S1</title>
<path fill="none" stroke="darkgray" d="M115.73,-261.99C108.79,-252.35 101.4,-238.04 107,-226 110.45,-218.58 116.56,-212.27 122.89,-207.26"/>
<polygon fill="darkgray" stroke="darkgray" points="125.26,-209.87 131.42,-201.25 121.23,-204.14 125.26,-209.87"/>
<text text-anchor="middle" x="115" y="-229.8" font-family="Times,serif" font-size="14.00" fill="darkgray">t2</text>
</g>
<!-- C1S3 -->
<g id="node6" class="node">
<title>C1S3</title>
<polygon fill="white" stroke="black" points="105,-26.44 105,-35.56 98.56,-42 89.44,-42 83,-35.56 83,-26.44 89.44,-20 98.56,-20 105,-26.44"/>
<polygon fill="none" stroke="black" points="109,-24.79 109,-37.21 100.21,-46 87.79,-46 79,-37.21 79,-24.79 87.79,-16 100.21,-16 109,-24.79"/>
</g>
<!-- C1S0&#45;&gt;C1S3 -->
<g id="edge5" class="edge">
<title>C1S0&#45;&gt;C1S3</title>
<path fill="none" stroke="darkgray" d="M111,-266.15C100.61,-260.52 86.62,-251.74 77,-241 49.94,-210.8 44.61,-199.4 35,-160 24.89,-118.53 55.95,-74.15 76.77,-50.07"/>
<polygon fill="darkgray" stroke="darkgray" points="79.54,-52.22 83.62,-42.44 74.34,-47.54 79.54,-52.22"/>
<text text-anchor="middle" x="47.5" y="-148.8" font-family="Times,serif" font-size="14.00" fill="darkgray">t3b</text>
</g>
<!-- C1S1&#45;&gt;C1S0 -->
<g id="edge8" class="edge">
<title>C1S1&#45;&gt;C1S0</title>
<path fill="none" stroke="darkgray" d="M141.46,-208C138.59,-219.31 134.49,-235.5 131.11,-248.88"/>
<polygon fill="darkgray" stroke="darkgray" points="127.64,-248.32 128.58,-258.88 134.42,-250.04 127.64,-248.32"/>
<text text-anchor="middle" x="149" y="-229.8" font-family="Times,serif" font-size="14.00" fill="darkgray">t1a</text>
</g>
<!-- C1S2 -->
<g id="node5" class="node">
<title>C1S2</title>
<polygon fill="white" stroke="black" points="225,-107.44 225,-116.56 218.56,-123 209.44,-123 203,-116.56 203,-107.44 209.44,-101 218.56,-101 225,-107.44"/>
<polygon fill="none" stroke="black" points="229,-105.79 229,-118.21 220.21,-127 207.79,-127 199,-118.21 199,-105.79 207.79,-97 220.21,-97 229,-105.79"/>
</g>
<!-- C1S1&#45;&gt;C1S2 -->
<g id="edge7" class="edge">
<title>C1S1&#45;&gt;C1S2</title>
<path fill="none" stroke="darkgray" d="M160.2,-190.85C179.06,-188.51 210.49,-181.43 225,-160 230,-152.62 228.94,-143.26 226,-134.83"/>
<polygon fill="darkgray" stroke="darkgray" points="229.15,-133.31 221.93,-125.55 222.74,-136.12 229.15,-133.31"/>
<text text-anchor="middle" x="240.5" y="-148.8" font-family="Times,serif" font-size="14.00" fill="darkgray">t3b</text>
</g>
<!-- C1S2&#45;&gt;C1S2 -->
<g id="edge9" class="edge">
<title>C1S2&#45;&gt;C1S2</title>
<path fill="none" stroke="darkgray" d="M228.59,-118.91C237.97,-120.71 247,-118.41 247,-112 247,-108.1 243.65,-105.72 238.91,-104.86"/>
<polygon fill="darkgray" stroke="darkgray" points="238.51,-101.37 228.59,-105.09 238.67,-108.37 238.51,-101.37"/>
<text text-anchor="middle" x="255" y="-108.3" font-family="Times,serif" font-size="14.00" fill="darkgray">t4</text>
</g>
<!-- C1S2&#45;&gt;C1S3 -->
<g id="edge10" class="edge">
<title>C1S2&#45;&gt;C1S3</title>
<path fill="none" stroke="darkgray" d="M200.67,-103.73C189.39,-97.47 172.89,-88.03 159,-79 143.44,-68.89 126.47,-56.57 113.77,-47.08"/>
<polygon fill="darkgray" stroke="darkgray" points="115.83,-44.24 105.73,-41.02 111.61,-49.84 115.83,-44.24"/>
<text text-anchor="middle" x="171" y="-67.8" font-family="Times,serif" font-size="14.00" fill="darkgray">t1a</text>
</g>
<!-- C1S2&#45;&gt;C2S0 -->
<g id="edge24" class="edge">
<title>C1S2&#45;&gt;C2S0</title>
<path fill="none" stroke="black" stroke-dasharray="5,2" d="M225.86,-121.46C234.59,-127.79 246.7,-136.73 257,-145 307.86,-185.83 315.96,-201.68 368,-241 431.89,-289.28 512.62,-339.3 550.51,-362.18"/>
<polygon fill="black" stroke="black" points="559.19,-367.4 548.3,-366.1 554.9,-364.82 550.62,-362.25 550.62,-362.25 550.62,-362.25 554.9,-364.82 552.94,-358.39 559.19,-367.4 559.19,-367.4"/>
<text text-anchor="middle" x="458.5" y="-229.8" font-family="Times,serif" font-size="14.00">O1 c (a*ab)|(a*ba)a*|(a*b)</text>
</g>
<!-- C1S3&#45;&gt;C1S0 -->
<g id="edge21" class="edge">
<title>C1S3&#45;&gt;C1S0</title>
<path fill="none" stroke="black" stroke-dasharray="5,2" d="M89.96,-46.23C83.78,-69.89 73.26,-118.78 79,-160 84.16,-197.07 85.72,-207.3 102,-241 104.1,-245.35 106.79,-249.73 109.58,-253.79"/>
<polygon fill="black" stroke="black" points="115.68,-262.05 106.12,-256.68 112.71,-258.03 109.74,-254.01 109.74,-254.01 109.74,-254.01 112.71,-258.03 113.36,-251.34 115.68,-262.05 115.68,-262.05"/>
<text text-anchor="middle" x="150" y="-148.8" font-family="Times,serif" font-size="14.00">O1 c (a*ab)|(a*ba)a*</text>
</g>
<!-- C1S3&#45;&gt;C1S2 -->
<g id="edge12" class="edge">
<title>C1S3&#45;&gt;C1S2</title>
<path fill="none" stroke="darkgray" d="M109.29,-34.44C128.26,-38.1 160.8,-46.54 183,-64 191.13,-70.39 197.83,-79.52 202.9,-88.04"/>
<polygon fill="darkgray" stroke="darkgray" points="199.87,-89.79 207.74,-96.88 206,-86.43 199.87,-89.79"/>
<text text-anchor="middle" x="204" y="-67.8" font-family="Times,serif" font-size="14.00" fill="darkgray">t2</text>
</g>
<!-- C1S3&#45;&gt;C1S3 -->
<g id="edge11" class="edge">
<title>C1S3&#45;&gt;C1S3</title>
<path fill="none" stroke="darkgray" d="M108.59,-37.91C117.97,-39.71 127,-37.41 127,-31 127,-27.1 123.65,-24.72 118.91,-23.86"/>
<polygon fill="darkgray" stroke="darkgray" points="118.51,-20.37 108.59,-24.09 118.67,-27.37 118.51,-20.37"/>
<text text-anchor="middle" x="135" y="-27.3" font-family="Times,serif" font-size="14.00" fill="darkgray">t4</text>
</g>
<!-- C2S1 -->
<g id="node8" class="node">
<title>C2S1</title>
<polygon fill="white" stroke="black" points="564,-269.44 564,-278.56 557.56,-285 548.44,-285 542,-278.56 542,-269.44 548.44,-263 557.56,-263 564,-269.44"/>
<polygon fill="none" stroke="black" points="568,-267.79 568,-280.21 559.21,-289 546.79,-289 538,-280.21 538,-267.79 546.79,-259 559.21,-259 568,-267.79"/>
</g>
<!-- C2S0&#45;&gt;C2S1 -->
<g id="edge14" class="edge">
<title>C2S0&#45;&gt;C2S1</title>
<path fill="none" stroke="darkgray" d="M572.38,-360.91C572.39,-351.52 571.95,-338.93 570,-328 568.25,-318.19 565.15,-307.67 562.07,-298.62"/>
<polygon fill="darkgray" stroke="darkgray" points="565.34,-297.37 558.68,-289.13 558.75,-299.73 565.34,-297.37"/>
<text text-anchor="middle" x="583" y="-331.8" font-family="Times,serif" font-size="14.00" fill="darkgray">t1a</text>
</g>
<!-- C2S3 -->
<g id="node10" class="node">
<title>C2S3</title>
<polygon fill="white" stroke="black" points="618,-107.44 618,-116.56 611.56,-123 602.44,-123 596,-116.56 596,-107.44 602.44,-101 611.56,-101 618,-107.44"/>
<polygon fill="none" stroke="black" points="622,-105.79 622,-118.21 613.21,-127 600.79,-127 592,-118.21 592,-105.79 600.79,-97 613.21,-97 622,-105.79"/>
</g>
<!-- C2S0&#45;&gt;C2S3 -->
<g id="edge13" class="edge">
<title>C2S0&#45;&gt;C2S3</title>
<path fill="none" stroke="darkgray" d="M583.02,-365.52C588.94,-359.7 595.69,-351.7 599,-343 617.48,-294.38 589.4,-276.47 602,-226 604.17,-217.32 608.85,-216.68 611,-208 616.12,-187.29 611.78,-181.34 612,-160 612.07,-153.33 612.52,-151.65 612,-145 611.81,-142.54 611.54,-139.98 611.22,-137.44"/>
<polygon fill="darkgray" stroke="darkgray" points="614.64,-136.66 609.72,-127.28 607.72,-137.69 614.64,-136.66"/>
<text text-anchor="middle" x="614.5" y="-229.8" font-family="Times,serif" font-size="14.00" fill="darkgray">t3b</text>
</g>
<!-- C2S1&#45;&gt;C2S0 -->
<g id="edge16" class="edge">
<title>C2S1&#45;&gt;C2S0</title>
<path fill="none" stroke="darkgray" d="M549.63,-289.16C546.93,-303.17 544.43,-325.06 550,-343 551.41,-347.54 553.71,-352.01 556.31,-356.1"/>
<polygon fill="darkgray" stroke="darkgray" points="553.55,-358.26 562.23,-364.33 559.23,-354.17 553.55,-358.26"/>
<text text-anchor="middle" x="558" y="-331.8" font-family="Times,serif" font-size="14.00" fill="darkgray">t2</text>
</g>
<!-- C2S2 -->
<g id="node9" class="node">
<title>C2S2</title>
<polygon fill="white" stroke="black" points="564,-188.44 564,-197.56 557.56,-204 548.44,-204 542,-197.56 542,-188.44 548.44,-182 557.56,-182 564,-188.44"/>
<polygon fill="none" stroke="black" points="568,-186.79 568,-199.21 559.21,-208 546.79,-208 538,-199.21 538,-186.79 546.79,-178 559.21,-178 568,-186.79"/>
</g>
<!-- C2S1&#45;&gt;C2S2 -->
<g id="edge15" class="edge">
<title>C2S1&#45;&gt;C2S2</title>
<path fill="none" stroke="darkgray" d="M553,-258.88C553,-247.64 553,-231.66 553,-218.37"/>
<polygon fill="darkgray" stroke="darkgray" points="556.5,-218 553,-208 549.5,-218 556.5,-218"/>
<text text-anchor="middle" x="565.5" y="-229.8" font-family="Times,serif" font-size="14.00" fill="darkgray">t3b</text>
</g>
<!-- C2S2&#45;&gt;C1S0 -->
<g id="edge26" class="edge">
<title>C2S2&#45;&gt;C1S0</title>
<path fill="none" stroke="black" stroke-dasharray="5,2" d="M537.91,-194.32C478.12,-195.74 258.06,-202.49 193,-226 182.81,-229.68 160.97,-245.38 144.78,-257.63"/>
<polygon fill="black" stroke="black" points="136.48,-263.99 141.68,-254.34 140.45,-260.95 144.42,-257.91 144.42,-257.91 144.42,-257.91 140.45,-260.95 147.15,-261.48 136.48,-263.99 136.48,-263.99"/>
<text text-anchor="middle" x="260" y="-229.8" font-family="Times,serif" font-size="14.00">O1 c a+ba*a|(a+b)</text>
</g>
<!-- C2S2&#45;&gt;C2S2 -->
<g id="edge17" class="edge">
<title>C2S2&#45;&gt;C2S2</title>
<path fill="none" stroke="darkgray" d="M567.59,-199.91C576.97,-201.71 586,-199.41 586,-193 586,-189.1 582.65,-186.72 577.91,-185.86"/>
<polygon fill="darkgray" stroke="darkgray" points="577.51,-182.37 567.59,-186.09 577.67,-189.37 577.51,-182.37"/>
<text text-anchor="middle" x="594" y="-189.3" font-family="Times,serif" font-size="14.00" fill="darkgray">t4</text>
</g>
<!-- C2S2&#45;&gt;C2S3 -->
<g id="edge18" class="edge">
<title>C2S2&#45;&gt;C2S3</title>
<path fill="none" stroke="darkgray" d="M549.91,-177.89C548.52,-168.02 548.28,-154.89 554,-145 560.26,-134.17 571.78,-126.58 582.49,-121.51"/>
<polygon fill="darkgray" stroke="darkgray" points="584.05,-124.65 591.92,-117.55 581.34,-118.2 584.05,-124.65"/>
<text text-anchor="middle" x="562" y="-148.8" font-family="Times,serif" font-size="14.00" fill="darkgray">t2</text>
</g>
<!-- C2S3&#45;&gt;C2S0 -->
<g id="edge23" class="edge">
<title>C2S3&#45;&gt;C2S0</title>
<path fill="none" stroke="black" stroke-dasharray="5,2" d="M612.04,-127.19C613.83,-132.69 615.72,-139.08 617,-145 620.65,-161.87 630.27,-208.89 627,-241 622.31,-287.05 628.57,-302.59 606,-343 602.44,-349.37 597.18,-355.22 591.85,-360.12"/>
<polygon fill="black" stroke="black" points="584.2,-366.59 588.94,-356.7 588.02,-363.36 591.84,-360.14 591.84,-360.14 591.84,-360.14 588.02,-363.36 594.74,-363.58 584.2,-366.59 584.2,-366.59"/>
<text text-anchor="middle" x="668" y="-229.8" font-family="Times,serif" font-size="14.00">O1 c a+ba*</text>
</g>
<!-- C2S3&#45;&gt;C2S2 -->
<g id="edge20" class="edge">
<title>C2S3&#45;&gt;C2S2</title>
<path fill="none" stroke="darkgray" d="M598.62,-125.26C590.24,-137.52 577.2,-156.6 567.2,-171.23"/>
<polygon fill="darkgray" stroke="darkgray" points="564.19,-169.43 561.44,-179.66 569.97,-173.38 564.19,-169.43"/>
<text text-anchor="middle" x="596" y="-148.8" font-family="Times,serif" font-size="14.00" fill="darkgray">t1a</text>
</g>
<!-- C2S3&#45;&gt;C2S3 -->
<g id="edge19" class="edge">
<title>C2S3&#45;&gt;C2S3</title>
<path fill="none" stroke="darkgray" d="M621.59,-118.91C630.97,-120.71 640,-118.41 640,-112 640,-108.1 636.65,-105.72 631.91,-104.86"/>
<polygon fill="darkgray" stroke="darkgray" points="631.51,-101.37 621.59,-105.09 631.67,-108.37 631.51,-101.37"/>
<text text-anchor="middle" x="648" y="-108.3" font-family="Times,serif" font-size="14.00" fill="darkgray">t4</text>
</g>
</g>
</svg>
