<?xml version="1.0" encoding="UTF-8" standalone="no"?>
<!DOCTYPE svg PUBLIC "-//W3C//DTD SVG 1.1//EN"
 "http://www.w3.org/Graphics/SVG/1.1/DTD/svg11.dtd">
<!-- Generated by graphviz version 2.43.0 (0)
 -->
<!-- Title: EXPinput/r Pages: 1 -->
<svg width="697pt" height="540pt"
 viewBox="0.00 0.00 697.00 540.00" xmlns="http://www.w3.org/2000/svg" xmlns:xlink="http://www.w3.org/1999/xlink">
<g id="graph0" class="graph" transform="scale(1 1) rotate(0) translate(4 536)">
<title>EXPinput/r</title>
<polygon fill="white" stroke="transparent" points="-4,4 -4,-536 693,-536 693,4 -4,4"/>
<g id="clust1" class="cluster">
<title>cluster0</title>
<path fill="#eaffee" stroke="#eaffee" d="M200,-353C200,-353 273,-353 273,-353 279,-353 285,-359 285,-365 285,-365 285,-512 285,-512 285,-518 279,-524 273,-524 273,-524 200,-524 200,-524 194,-524 188,-518 188,-512 188,-512 188,-365 188,-365 188,-359 194,-353 200,-353"/>
<text text-anchor="middle" x="236.5" y="-508.8" font-family="Times,serif" font-size="14.00" fill="#b2ccbb">C0</text>
</g>
<g id="clust2" class="cluster">
<title>cluster1</title>
<path fill="#eaffee" stroke="#eaffee" d="M20,-8C20,-8 264,-8 264,-8 270,-8 276,-14 276,-20 276,-20 276,-308 276,-308 276,-314 270,-320 264,-320 264,-320 20,-320 20,-320 14,-320 8,-314 8,-308 8,-308 8,-20 8,-20 8,-14 14,-8 20,-8"/>
<text text-anchor="middle" x="142" y="-304.8" font-family="Times,serif" font-size="14.00" fill="#b2ccbb">C1</text>
</g>
<g id="clust3" class="cluster">
<title>cluster2</title>
<path fill="#eaffee" stroke="#eaffee" d="M486,-89C486,-89 669,-89 669,-89 675,-89 681,-95 681,-101 681,-101 681,-410 681,-410 681,-416 675,-422 669,-422 669,-422 486,-422 486,-422 480,-422 474,-416 474,-410 474,-410 474,-101 474,-101 474,-95 480,-89 486,-89"/>
<text text-anchor="middle" x="577.5" y="-406.8" font-family="Times,serif" font-size="14.00" fill="#b2ccbb">C2</text>
</g>
<!-- C0S0 -->
<g id="node1" class="node">
<title>C0S0</title>
<polygon fill="white" stroke="black" points="239,-473.44 239,-482.56 232.56,-489 223.44,-489 217,-482.56 217,-473.44 223.44,-467 232.56,-467 239,-473.44"/>
<polygon fill="none" stroke="black" points="243,-471.79 243,-484.21 234.21,-493 221.79,-493 213,-484.21 213,-471.79 221.79,-463 234.21,-463 243,-471.79"/>
</g>
<!-- C0S0&#45;&gt;C0S0 -->
<g id="edge1" class="edge">
<title>C0S0&#45;&gt;C0S0</title>
<path fill="none" stroke="darkgray" d="M242.59,-484.91C251.97,-486.71 261,-484.41 261,-478 261,-474.1 257.65,-471.72 252.91,-470.86"/>
<polygon fill="darkgray" stroke="darkgray" points="252.51,-467.37 242.59,-471.09 252.67,-474.37 252.51,-467.37"/>
<text text-anchor="middle" x="269" y="-474.3" font-family="Times,serif" font-size="14.00" fill="darkgray">t4</text>
</g>
<!-- C0S1 -->
<g id="node2" class="node">
<title>C0S1</title>
<polygon fill="white" stroke="black" points="225,-371.44 225,-380.56 218.56,-387 209.44,-387 203,-380.56 203,-371.44 209.44,-365 218.56,-365 225,-371.44"/>
<polygon fill="none" stroke="black" points="229,-369.79 229,-382.21 220.21,-391 207.79,-391 199,-382.21 199,-369.79 207.79,-361 220.21,-361 229,-369.79"/>
</g>
<!-- C0S0&#45;&gt;C0S1 -->
<g id="edge2" class="edge">
<title>C0S0&#45;&gt;C0S1</title>
<path fill="none" stroke="darkgray" d="M221.14,-463.33C218.71,-457.79 216.26,-451.23 215,-445 212.1,-430.72 211.76,-414.4 212.19,-401.33"/>
<polygon fill="darkgray" stroke="darkgray" points="215.7,-401.39 212.7,-391.23 208.7,-401.04 215.7,-401.39"/>
<text text-anchor="middle" x="227" y="-433.8" font-family="Times,serif" font-size="14.00" fill="darkgray">t1a</text>
</g>
<!-- C2S0 -->
<g id="node7" class="node">
<title>C2S0</title>
<polygon fill="white" stroke="black" points="530,-371.44 530,-380.56 523.56,-387 514.44,-387 508,-380.56 508,-371.44 514.44,-365 523.56,-365 530,-371.44"/>
<polygon fill="none" stroke="black" points="534,-369.79 534,-382.21 525.21,-391 512.79,-391 504,-382.21 504,-369.79 512.79,-361 525.21,-361 534,-369.79"/>
</g>
<!-- C0S0&#45;&gt;C2S0 -->
<g id="edge25" class="edge">
<title>C0S0&#45;&gt;C2S0</title>
<path fill="none" stroke="black" stroke-dasharray="5,2" d="M243.24,-471.76C290.67,-455.46 436.04,-405.51 494.39,-385.46"/>
<polygon fill="black" stroke="black" points="503.92,-382.18 495.92,-389.69 499.19,-383.81 494.46,-385.43 494.46,-385.43 494.46,-385.43 499.19,-383.81 493,-381.18 503.92,-382.18 503.92,-382.18"/>
<text text-anchor="middle" x="384" y="-433.8" font-family="Times,serif" font-size="14.00">O1c aa*</text>
</g>
<!-- C0S1&#45;&gt;C0S0 -->
<g id="edge4" class="edge">
<title>C0S1&#45;&gt;C0S0</title>
<path fill="none" stroke="darkgray" d="M221.84,-389.49C227.87,-399.89 235.71,-415.31 239,-430 240.71,-437.65 239.71,-445.98 237.74,-453.47"/>
<polygon fill="darkgray" stroke="darkgray" points="234.4,-452.44 234.63,-463.03 241.05,-454.61 234.4,-452.44"/>
<text text-anchor="middle" x="247" y="-433.8" font-family="Times,serif" font-size="14.00" fill="darkgray">t2</text>
</g>
<!-- C0S1&#45;&gt;C0S1 -->
<g id="edge3" class="edge">
<title>C0S1&#45;&gt;C0S1</title>
<path fill="none" stroke="darkgray" d="M228.59,-382.91C237.97,-384.71 247,-382.41 247,-376 247,-372.1 243.65,-369.72 238.91,-368.86"/>
<polygon fill="darkgray" stroke="darkgray" points="238.51,-365.37 228.59,-369.09 238.67,-372.37 238.51,-365.37"/>
<text text-anchor="middle" x="255" y="-372.3" font-family="Times,serif" font-size="14.00" fill="darkgray">t4</text>
</g>
<!-- C1S0 -->
<g id="node3" class="node">
<title>C1S0</title>
<polygon fill="white" stroke="black" points="136,-269.44 136,-278.56 129.56,-285 120.44,-285 114,-278.56 114,-269.44 120.44,-263 129.56,-263 136,-269.44"/>
<polygon fill="none" stroke="black" points="140,-267.79 140,-280.21 131.21,-289 118.79,-289 110,-280.21 110,-267.79 118.79,-259 131.21,-259 140,-267.79"/>
</g>
<!-- C0S1&#45;&gt;C1S0 -->
<g id="edge22" class="edge">
<title>C0S1&#45;&gt;C1S0</title>
<path fill="none" stroke="black" stroke-dasharray="5,2" d="M204.48,-364.3C189.43,-347.4 159.98,-314.31 141.46,-293.5"/>
<polygon fill="black" stroke="black" points="134.73,-285.93 144.74,-290.41 138.05,-289.66 141.37,-293.4 141.37,-293.4 141.37,-293.4 138.05,-289.66 138.01,-296.39 134.73,-285.93 134.73,-285.93"/>
<text text-anchor="middle" x="213" y="-331.8" font-family="Times,serif" font-size="14.00">O1c aa*</text>
</g>
<!-- C1S1 -->
<g id="node4" class="node">
<title>C1S1</title>
<polygon fill="white" stroke="black" points="156,-188.44 156,-197.56 149.56,-204 140.44,-204 134,-197.56 134,-188.44 140.44,-182 149.56,-182 156,-188.44"/>
<polygon fill="none" stroke="black" points="160,-186.79 160,-199.21 151.21,-208 138.79,-208 130,-199.21 130,-186.79 138.79,-178 151.21,-178 160,-186.79"/>
</g>
<!-- C1S0&#45;&gt;C1S1 -->
<g id="edge6" class="edge">
<title>C1S0&#45;&gt;C1S1</title>
<path fill="none" stroke="darkgray" d="M115.73,-261.99C108.79,-252.35 101.4,-238.04 107,-226 110.45,-218.58 116.56,-212.27 122.89,-207.26"/>
<polygon fill="darkgray" stroke="darkgray" points="125.26,-209.87 131.42,-201.25 121.23,-204.14 125.26,-209.87"/>
<text text-anchor="middle" x="115" y="-229.8" font-family="Times,serif" font-size="14.00" fill="darkgray">t2</text>
</g>
<!-- C1S3 -->
<g id="node6" class="node">
<title>C1S3</title>
<polygon fill="white" stroke="black" points="105,-26.44 105,-35.56 98.56,-42 89.44,-42 83,-35.56 83,-26.44 89.44,-20 98.56,-20 105,-26.44"/>
<polygon fill="none" stroke="black" points="109,-24.79 109,-37.21 100.21,-46 87.79,-46 79,-37.21 79,-24.79 87.79,-16 100.21,-16 109,-24.79"/>
</g>
<!-- C1S0&#45;&gt;C1S3 -->
<g id="edge5" class="edge">
<title>C1S0&#45;&gt;C1S3</title>
<path fill="none" stroke="darkgray" d="M111,-266.15C100.61,-260.52 86.62,-251.74 77,-241 49.94,-210.8 44.61,-199.4 35,-160 24.89,-118.53 55.95,-74.15 76.77,-50.07"/>
<polygon fill="darkgray" stroke="darkgray" points="79.54,-52.22 83.62,-42.44 74.34,-47.54 79.54,-52.22"/>
<text text-anchor="middle" x="47.5" y="-148.8" font-family="Times,serif" font-size="14.00" fill="darkgray">t3b</text>
</g>
<!-- C1S1&#45;&gt;C1S0 -->
<g id="edge8" class="edge">
<title>C1S1&#45;&gt;C1S0</title>
<path fill="none" stroke="darkgray" d="M141.46,-208C138.59,-219.31 134.49,-235.5 131.11,-248.88"/>
<polygon fill="darkgray" stroke="darkgray" points="127.64,-248.32 128.58,-258.88 134.42,-250.04 127.64,-248.32"/>
<text text-anchor="middle" x="149" y="-229.8" font-family="Times,serif" font-size="14.00" fill="darkgray">t1a</text>
</g>
<!-- C1S2 -->
<g id="node5" class="node">
<title>C1S2</title>
<polygon fill="white" stroke="black" points="221,-107.44 221,-116.56 214.56,-123 205.44,-123 199,-116.56 199,-107.44 205.44,-101 214.56,-101 221,-107.44"/>
<polygon fill="none" stroke="black" points="225,-105.79 225,-118.21 216.21,-127 203.79,-127 195,-118.21 195,-105.79 203.79,-97 216.21,-97 225,-105.79"/>
</g>
<!-- C1S1&#45;&gt;C1S2 -->
<g id="edge7" class="edge">
<title>C1S1&#45;&gt;C1S2</title>
<path fill="none" stroke="darkgray" d="M160.09,-190.5C178.1,-187.82 207.46,-180.39 221,-160 225.93,-152.57 224.86,-143.2 221.93,-134.79"/>
<polygon fill="darkgray" stroke="darkgray" points="225.1,-133.28 217.88,-125.52 218.68,-136.08 225.1,-133.28"/>
<text text-anchor="middle" x="236.5" y="-148.8" font-family="Times,serif" font-size="14.00" fill="darkgray">t3b</text>
</g>
<!-- C1S2&#45;&gt;C1S2 -->
<g id="edge9" class="edge">
<title>C1S2&#45;&gt;C1S2</title>
<path fill="none" stroke="darkgray" d="M224.59,-118.91C233.97,-120.71 243,-118.41 243,-112 243,-108.1 239.65,-105.72 234.91,-104.86"/>
<polygon fill="darkgray" stroke="darkgray" points="234.51,-101.37 224.59,-105.09 234.67,-108.37 234.51,-101.37"/>
<text text-anchor="middle" x="251" y="-108.3" font-family="Times,serif" font-size="14.00" fill="darkgray">t4</text>
</g>
<!-- C1S2&#45;&gt;C1S3 -->
<g id="edge10" class="edge">
<title>C1S2&#45;&gt;C1S3</title>
<path fill="none" stroke="darkgray" d="M196.87,-103.77C185.77,-97.54 169.57,-88.12 156,-79 141.39,-69.18 125.58,-57.17 113.58,-47.75"/>
<polygon fill="darkgray" stroke="darkgray" points="115.6,-44.89 105.59,-41.42 111.26,-50.37 115.6,-44.89"/>
<text text-anchor="middle" x="168" y="-67.8" font-family="Times,serif" font-size="14.00" fill="darkgray">t1a</text>
</g>
<!-- C1S2&#45;&gt;C2S0 -->
<g id="edge24" class="edge">
<title>C1S2&#45;&gt;C2S0</title>
<path fill="none" stroke="black" stroke-dasharray="5,2" d="M222.53,-120.72C231.61,-126.68 243.83,-135.48 253,-145 288.92,-182.29 282.17,-204.61 319,-241 374.91,-296.25 456.61,-342.64 496.03,-363.37"/>
<polygon fill="black" stroke="black" points="505.1,-368.08 494.15,-367.46 500.67,-365.77 496.23,-363.47 496.23,-363.47 496.23,-363.47 500.67,-365.77 498.3,-359.48 505.1,-368.08 505.1,-368.08"/>
<text text-anchor="middle" x="407.5" y="-229.8" font-family="Times,serif" font-size="14.00">O1c (a*ba)|(a*ab)a*|(a*b)</text>
</g>
<!-- C1S3&#45;&gt;C1S0 -->
<g id="edge21" class="edge">
<title>C1S3&#45;&gt;C1S0</title>
<path fill="none" stroke="black" stroke-dasharray="5,2" d="M89.96,-46.23C83.78,-69.89 73.26,-118.78 79,-160 84.16,-197.07 85.72,-207.3 102,-241 104.1,-245.35 106.79,-249.73 109.58,-253.79"/>
<polygon fill="black" stroke="black" points="115.68,-262.05 106.12,-256.68 112.71,-258.03 109.74,-254.01 109.74,-254.01 109.74,-254.01 112.71,-258.03 113.36,-251.34 115.68,-262.05 115.68,-262.05"/>
<text text-anchor="middle" x="148" y="-148.8" font-family="Times,serif" font-size="14.00">O1c (a*ba)|(a*ab)a*</text>
</g>
<!-- C1S3&#45;&gt;C1S2 -->
<g id="edge12" class="edge">
<title>C1S3&#45;&gt;C1S2</title>
<path fill="none" stroke="darkgray" d="M109.14,-34.58C127.56,-38.35 158.81,-46.88 180,-64 187.88,-70.36 194.33,-79.38 199.2,-87.81"/>
<polygon fill="darkgray" stroke="darkgray" points="196.25,-89.72 204.02,-96.91 202.44,-86.44 196.25,-89.72"/>
<text text-anchor="middle" x="201" y="-67.8" font-family="Times,serif" font-size="14.00" fill="darkgray">t2</text>
</g>
<!-- C1S3&#45;&gt;C1S3 -->
<g id="edge11" class="edge">
<title>C1S3&#45;&gt;C1S3</title>
<path fill="none" stroke="darkgray" d="M108.59,-37.91C117.97,-39.71 127,-37.41 127,-31 127,-27.1 123.65,-24.72 118.91,-23.86"/>
<polygon fill="darkgray" stroke="darkgray" points="118.51,-20.37 108.59,-24.09 118.67,-27.37 118.51,-20.37"/>
<text text-anchor="middle" x="135" y="-27.3" font-family="Times,serif" font-size="14.00" fill="darkgray">t4</text>
</g>
<!-- C2S1 -->
<g id="node8" class="node">
<title>C2S1</title>
<polygon fill="white" stroke="black" points="511,-269.44 511,-278.56 504.56,-285 495.44,-285 489,-278.56 489,-269.44 495.44,-263 504.56,-263 511,-269.44"/>
<polygon fill="none" stroke="black" points="515,-267.79 515,-280.21 506.21,-289 493.79,-289 485,-280.21 485,-267.79 493.79,-259 506.21,-259 515,-267.79"/>
</g>
<!-- C2S0&#45;&gt;C2S1 -->
<g id="edge14" class="edge">
<title>C2S0&#45;&gt;C2S1</title>
<path fill="none" stroke="darkgray" d="M519.38,-360.91C519.39,-351.52 518.95,-338.93 517,-328 515.25,-318.19 512.15,-307.67 509.07,-298.62"/>
<polygon fill="darkgray" stroke="darkgray" points="512.34,-297.37 505.68,-289.13 505.75,-299.73 512.34,-297.37"/>
<text text-anchor="middle" x="530" y="-331.8" font-family="Times,serif" font-size="14.00" fill="darkgray">t1a</text>
</g>
<!-- C2S3 -->
<g id="node10" class="node">
<title>C2S3</title>
<polygon fill="white" stroke="black" points="565,-107.44 565,-116.56 558.56,-123 549.44,-123 543,-116.56 543,-107.44 549.44,-101 558.56,-101 565,-107.44"/>
<polygon fill="none" stroke="black" points="569,-105.79 569,-118.21 560.21,-127 547.79,-127 539,-118.21 539,-105.79 547.79,-97 560.21,-97 569,-105.79"/>
</g>
<!-- C2S0&#45;&gt;C2S3 -->
<g id="edge13" class="edge">
<title>C2S0&#45;&gt;C2S3</title>
<path fill="none" stroke="darkgray" d="M530.02,-365.52C535.94,-359.7 542.69,-351.7 546,-343 564.48,-294.38 536.4,-276.47 549,-226 551.17,-217.32 555.85,-216.68 558,-208 563.12,-187.29 558.78,-181.34 559,-160 559.07,-153.33 559.52,-151.65 559,-145 558.81,-142.54 558.54,-139.98 558.22,-137.44"/>
<polygon fill="darkgray" stroke="darkgray" points="561.64,-136.66 556.72,-127.28 554.72,-137.69 561.64,-136.66"/>
<text text-anchor="middle" x="561.5" y="-229.8" font-family="Times,serif" font-size="14.00" fill="darkgray">t3b</text>
</g>
<!-- C2S1&#45;&gt;C2S0 -->
<g id="edge16" class="edge">
<title>C2S1&#45;&gt;C2S0</title>
<path fill="none" stroke="darkgray" d="M496.63,-289.16C493.93,-303.17 491.43,-325.06 497,-343 498.41,-347.54 500.71,-352.01 503.31,-356.1"/>
<polygon fill="darkgray" stroke="darkgray" points="500.55,-358.26 509.23,-364.33 506.23,-354.17 500.55,-358.26"/>
<text text-anchor="middle" x="505" y="-331.8" font-family="Times,serif" font-size="14.00" fill="darkgray">t2</text>
</g>
<!-- C2S2 -->
<g id="node9" class="node">
<title>C2S2</title>
<polygon fill="white" stroke="black" points="511,-188.44 511,-197.56 504.56,-204 495.44,-204 489,-197.56 489,-188.44 495.44,-182 504.56,-182 511,-188.44"/>
<polygon fill="none" stroke="black" points="515,-186.79 515,-199.21 506.21,-208 493.79,-208 485,-199.21 485,-186.79 493.79,-178 506.21,-178 515,-186.79"/>
</g>
<!-- C2S1&#45;&gt;C2S2 -->
<g id="edge15" class="edge">
<title>C2S1&#45;&gt;C2S2</title>
<path fill="none" stroke="darkgray" d="M500,-258.88C500,-247.64 500,-231.66 500,-218.37"/>
<polygon fill="darkgray" stroke="darkgray" points="503.5,-218 500,-208 496.5,-218 503.5,-218"/>
<text text-anchor="middle" x="512.5" y="-229.8" font-family="Times,serif" font-size="14.00" fill="darkgray">t3b</text>
</g>
<!-- C2S2&#45;&gt;C1S0 -->
<g id="edge26" class="edge">
<title>C2S2&#45;&gt;C1S0</title>
<path fill="none" stroke="black" stroke-dasharray="5,2" d="M484.97,-194.58C431.04,-196.82 247.66,-205.78 193,-226 182.84,-229.76 161,-245.44 144.8,-257.67"/>
<polygon fill="black" stroke="black" points="136.49,-264.01 141.71,-254.37 140.46,-260.98 144.44,-257.95 144.44,-257.95 144.44,-257.95 140.46,-260.98 147.17,-261.52 136.49,-264.01 136.49,-264.01"/>
<text text-anchor="middle" x="235.5" y="-229.8" font-family="Times,serif" font-size="14.00">O1c a+ba*a</text>
</g>
<!-- C2S2&#45;&gt;C2S2 -->
<g id="edge17" class="edge">
<title>C2S2&#45;&gt;C2S2</title>
<path fill="none" stroke="darkgray" d="M514.59,-199.91C523.97,-201.71 533,-199.41 533,-193 533,-189.1 529.65,-186.72 524.91,-185.86"/>
<polygon fill="darkgray" stroke="darkgray" points="524.51,-182.37 514.59,-186.09 524.67,-189.37 524.51,-182.37"/>
<text text-anchor="middle" x="541" y="-189.3" font-family="Times,serif" font-size="14.00" fill="darkgray">t4</text>
</g>
<!-- C2S2&#45;&gt;C2S3 -->
<g id="edge18" class="edge">
<title>C2S2&#45;&gt;C2S3</title>
<path fill="none" stroke="darkgray" d="M496.91,-177.89C495.52,-168.02 495.28,-154.89 501,-145 507.26,-134.17 518.78,-126.58 529.49,-121.51"/>
<polygon fill="darkgray" stroke="darkgray" points="531.05,-124.65 538.92,-117.55 528.34,-118.2 531.05,-124.65"/>
<text text-anchor="middle" x="509" y="-148.8" font-family="Times,serif" font-size="14.00" fill="darkgray">t2</text>
</g>
<!-- C2S3&#45;&gt;C2S0 -->
<g id="edge23" class="edge">
<title>C2S3&#45;&gt;C2S0</title>
<path fill="none" stroke="black" stroke-dasharray="5,2" d="M559.04,-127.19C560.83,-132.69 562.72,-139.08 564,-145 567.65,-161.87 577.27,-208.89 574,-241 569.31,-287.05 575.57,-302.59 553,-343 549.44,-349.37 544.18,-355.22 538.85,-360.12"/>
<polygon fill="black" stroke="black" points="531.2,-366.59 535.94,-356.7 535.02,-363.36 538.84,-360.14 538.84,-360.14 538.84,-360.14 535.02,-363.36 541.74,-363.58 531.2,-366.59 531.2,-366.59"/>
<text text-anchor="middle" x="612.5" y="-229.8" font-family="Times,serif" font-size="14.00">O1c a+ba*</text>
</g>
<!-- C2S3&#45;&gt;C2S2 -->
<g id="edge20" class="edge">
<title>C2S3&#45;&gt;C2S2</title>
<path fill="none" stroke="darkgray" d="M545.62,-125.26C537.24,-137.52 524.2,-156.6 514.2,-171.23"/>
<polygon fill="darkgray" stroke="darkgray" points="511.19,-169.43 508.44,-179.66 516.97,-173.38 511.19,-169.43"/>
<text text-anchor="middle" x="543" y="-148.8" font-family="Times,serif" font-size="14.00" fill="darkgray">t1a</text>
</g>
<!-- C2S3&#45;&gt;C2S3 -->
<g id="edge19" class="edge">
<title>C2S3&#45;&gt;C2S3</title>
<path fill="none" stroke="darkgray" d="M568.59,-118.91C577.97,-120.71 587,-118.41 587,-112 587,-108.1 583.65,-105.72 578.91,-104.86"/>
<polygon fill="darkgray" stroke="darkgray" points="578.51,-101.37 568.59,-105.09 578.67,-108.37 578.51,-101.37"/>
<text text-anchor="middle" x="595" y="-108.3" font-family="Times,serif" font-size="14.00" fill="darkgray">t4</text>
</g>
</g>
</svg>
