<?xml version="1.0" encoding="UTF-8" standalone="no"?>
<!DOCTYPE svg PUBLIC "-//W3C//DTD SVG 1.1//EN"
 "http://www.w3.org/Graphics/SVG/1.1/DTD/svg11.dtd">
<!-- Generated by graphviz version 2.43.0 (0)
 -->
<!-- Title: SCinput/r Pages: 1 -->
<svg width="230pt" height="305pt"
 viewBox="0.00 0.00 230.09 305.00" xmlns="http://www.w3.org/2000/svg" xmlns:xlink="http://www.w3.org/1999/xlink">
<g id="graph0" class="graph" transform="scale(1 1) rotate(0) translate(4 301)">
<title>SCinput/r</title>
<polygon fill="white" stroke="transparent" points="-4,4 -4,-301 226.09,-301 226.09,4 -4,4"/>
<!-- R00_Lee -->
<g id="node1" class="node">
<title>R00_Lee</title>
<ellipse fill="#ffeeee" stroke="black" cx="138.05" cy="-279" rx="50.09" ry="18"/>
<text text-anchor="middle" x="138.05" y="-275.3" font-family="Times,serif" font-size="14.00">R00_Lee</text>
</g>
<!-- R00_Lee&#45;&gt;R00_Lee -->
<g id="edge2" class="edge">
<title>R00_Lee&#45;&gt;R00_Lee</title>
<path fill="none" stroke="black" d="M183.2,-286.84C196.12,-286.54 206.09,-283.92 206.09,-279 206.09,-275.46 200.94,-273.12 193.25,-271.96"/>
<polygon fill="black" stroke="black" points="193.44,-268.47 183.2,-271.16 192.88,-275.45 193.44,-268.47"/>
<text text-anchor="middle" x="214.09" y="-275.3" font-family="Times,serif" font-size="14.00">t4</text>
</g>
<!-- R10_Lee -->
<g id="node2" class="node">
<title>R10_Lee</title>
<ellipse fill="#ffeeee" stroke="black" cx="50.05" cy="-192" rx="50.09" ry="18"/>
<text text-anchor="middle" x="50.05" y="-188.3" font-family="Times,serif" font-size="14.00">R10_Lee</text>
</g>
<!-- R00_Lee&#45;&gt;R10_Lee -->
<g id="edge3" class="edge">
<title>R00_Lee&#45;&gt;R10_Lee</title>
<path fill="none" stroke="black" d="M107.19,-264.59C96.74,-259 85.57,-251.74 77.05,-243 70.51,-236.3 65.11,-227.69 60.91,-219.52"/>
<polygon fill="black" stroke="black" points="63.96,-217.8 56.52,-210.26 57.64,-220.8 63.96,-217.8"/>
<text text-anchor="middle" x="89.05" y="-231.8" font-family="Times,serif" font-size="14.00">t1a</text>
</g>
<!-- R01_Lee -->
<g id="node4" class="node">
<title>R01_Lee</title>
<ellipse fill="#ffeeee" stroke="black" cx="142.05" cy="-18" rx="50.09" ry="18"/>
<text text-anchor="middle" x="142.05" y="-14.3" font-family="Times,serif" font-size="14.00">R01_Lee</text>
</g>
<!-- R00_Lee&#45;&gt;R01_Lee -->
<g id="edge1" class="edge">
<title>R00_Lee&#45;&gt;R01_Lee</title>
<path fill="none" stroke="black" d="M139.61,-260.97C140.8,-247.23 142.35,-227.39 143.05,-210 145.57,-147.38 143.82,-131.67 144.05,-69 144.07,-62.33 144.24,-60.66 144.05,-54 143.97,-51.44 143.87,-48.79 143.75,-46.13"/>
<polygon fill="black" stroke="black" points="147.24,-45.88 143.22,-36.08 140.25,-46.25 147.24,-45.88"/>
<text text-anchor="middle" x="165.55" y="-144.8" font-family="Times,serif" font-size="14.00">t5O1c</text>
</g>
<!-- R10_Lee&#45;&gt;R00_Lee -->
<g id="edge6" class="edge">
<title>R10_Lee&#45;&gt;R00_Lee</title>
<path fill="none" stroke="black" d="M74.91,-207.67C83.66,-213.43 93.24,-220.47 101.05,-228 108.66,-235.35 115.86,-244.39 121.86,-252.76"/>
<polygon fill="black" stroke="black" points="119.07,-254.89 127.63,-261.14 124.84,-250.92 119.07,-254.89"/>
<text text-anchor="middle" x="121.05" y="-231.8" font-family="Times,serif" font-size="14.00">t2</text>
</g>
<!-- R10_Lee&#45;&gt;R10_Lee -->
<g id="edge5" class="edge">
<title>R10_Lee&#45;&gt;R10_Lee</title>
<path fill="none" stroke="black" d="M95.2,-199.84C108.12,-199.54 118.09,-196.92 118.09,-192 118.09,-188.46 112.94,-186.12 105.25,-184.96"/>
<polygon fill="black" stroke="black" points="105.44,-181.47 95.2,-184.16 104.88,-188.45 105.44,-181.47"/>
<text text-anchor="middle" x="126.09" y="-188.3" font-family="Times,serif" font-size="14.00">t4</text>
</g>
<!-- R11_Lee -->
<g id="node3" class="node">
<title>R11_Lee</title>
<ellipse fill="#ffeeee" stroke="black" cx="84.05" cy="-105" rx="50.09" ry="18"/>
<text text-anchor="middle" x="84.05" y="-101.3" font-family="Times,serif" font-size="14.00">R11_Lee</text>
</g>
<!-- R10_Lee&#45;&gt;R11_Lee -->
<g id="edge4" class="edge">
<title>R10_Lee&#45;&gt;R11_Lee</title>
<path fill="none" stroke="black" d="M38.26,-174.22C32.79,-164.24 28.57,-151.51 34.05,-141 37.06,-135.2 41.53,-130.17 46.57,-125.86"/>
<polygon fill="black" stroke="black" points="48.92,-128.48 54.84,-119.7 44.74,-122.87 48.92,-128.48"/>
<text text-anchor="middle" x="55.55" y="-144.8" font-family="Times,serif" font-size="14.00">t5O1c</text>
</g>
<!-- R11_Lee&#45;&gt;R10_Lee -->
<g id="edge7" class="edge">
<title>R11_Lee&#45;&gt;R10_Lee</title>
<path fill="none" stroke="black" d="M83.81,-123.24C83.14,-133.16 81.39,-145.66 77.05,-156 75.56,-159.53 73.63,-163.02 71.48,-166.34"/>
<polygon fill="black" stroke="black" points="68.47,-164.53 65.44,-174.68 74.14,-168.63 68.47,-164.53"/>
<text text-anchor="middle" x="93.55" y="-144.8" font-family="Times,serif" font-size="14.00">t3b</text>
</g>
<!-- R11_Lee&#45;&gt;R01_Lee -->
<g id="edge8" class="edge">
<title>R11_Lee&#45;&gt;R01_Lee</title>
<path fill="none" stroke="black" d="M80.46,-86.7C79.27,-76.54 79.44,-63.79 85.05,-54 88.81,-47.42 94.37,-41.92 100.56,-37.37"/>
<polygon fill="black" stroke="black" points="102.76,-40.12 109.27,-31.76 98.97,-34.23 102.76,-40.12"/>
<text text-anchor="middle" x="93.05" y="-57.8" font-family="Times,serif" font-size="14.00">t2</text>
</g>
<!-- R01_Lee&#45;&gt;R00_Lee -->
<g id="edge9" class="edge">
<title>R01_Lee&#45;&gt;R00_Lee</title>
<path fill="none" stroke="black" d="M154.49,-35.84C171.77,-61.24 199.96,-111.16 191.05,-156 184.09,-190.99 166.23,-228.18 153.16,-252.17"/>
<polygon fill="black" stroke="black" points="150.05,-250.55 148.24,-260.99 156.17,-253.96 150.05,-250.55"/>
<text text-anchor="middle" x="204.55" y="-144.8" font-family="Times,serif" font-size="14.00">t3b</text>
</g>
<!-- R01_Lee&#45;&gt;R11_Lee -->
<g id="edge10" class="edge">
<title>R01_Lee&#45;&gt;R11_Lee</title>
<path fill="none" stroke="black" d="M130.61,-35.76C122.28,-47.97 110.83,-64.74 101.38,-78.6"/>
<polygon fill="black" stroke="black" points="98.25,-76.97 95.5,-87.21 104.03,-80.92 98.25,-76.97"/>
<text text-anchor="middle" x="128.05" y="-57.8" font-family="Times,serif" font-size="14.00">t1a</text>
</g>
</g>
</svg>
