<?xml version="1.0" encoding="UTF-8" standalone="no"?>
<!DOCTYPE svg PUBLIC "-//W3C//DTD SVG 1.1//EN"
 "http://www.w3.org/Graphics/SVG/1.1/DTD/svg11.dtd">
<!-- Generated by graphviz version 2.43.0 (0)
 -->
<!-- Title: SCinput/r Pages: 1 -->
<svg width="256pt" height="593pt"
 viewBox="0.00 0.00 256.05 593.36" xmlns="http://www.w3.org/2000/svg" xmlns:xlink="http://www.w3.org/1999/xlink">
<g id="graph0" class="graph" transform="scale(1 1) rotate(0) translate(4 589.36)">
<title>SCinput/r</title>
<polygon fill="white" stroke="transparent" points="-4,4 -4,-589.36 252.05,-589.36 252.05,4 -4,4"/>
<!-- R00_Lee -->
<g id="node1" class="node">
<title>R00_Lee</title>
<ellipse fill="none" stroke="black" cx="147.05" cy="-531.32" rx="50.09" ry="50.09"/>
<ellipse fill="none" stroke="black" cx="147.05" cy="-531.32" rx="54.09" ry="54.09"/>
<text text-anchor="middle" x="147.05" y="-527.62" font-family="Times,serif" font-size="14.00">R00_Lee</text>
</g>
<!-- R00_Lee&#45;&gt;R00_Lee -->
<g id="edge2" class="edge">
<title>R00_Lee&#45;&gt;R00_Lee</title>
<path fill="none" stroke="black" d="M199.5,-545.51C210.86,-544.12 219.09,-539.39 219.09,-531.32 219.09,-525.89 215.37,-521.98 209.49,-519.57"/>
<polygon fill="black" stroke="black" points="210.05,-516.1 199.5,-517.13 208.38,-522.9 210.05,-516.1"/>
<text text-anchor="middle" x="227.09" y="-527.62" font-family="Times,serif" font-size="14.00">t4</text>
</g>
<!-- R10_Lee -->
<g id="node2" class="node">
<title>R10_Lee</title>
<ellipse fill="none" stroke="black" cx="54.05" cy="-372.23" rx="50.09" ry="50.09"/>
<ellipse fill="none" stroke="black" cx="54.05" cy="-372.23" rx="54.09" ry="54.09"/>
<text text-anchor="middle" x="54.05" y="-368.53" font-family="Times,serif" font-size="14.00">R10_Lee</text>
</g>
<!-- R00_Lee&#45;&gt;R10_Lee -->
<g id="edge3" class="edge">
<title>R00_Lee&#45;&gt;R10_Lee</title>
<path fill="none" stroke="black" d="M105.32,-496.79C94.05,-485.89 82.84,-473.02 75.05,-459.27 70.9,-451.97 67.57,-443.86 64.9,-435.63"/>
<polygon fill="black" stroke="black" points="68.23,-434.55 62.04,-425.95 61.51,-436.53 68.23,-434.55"/>
<text text-anchor="middle" x="92.55" y="-448.07" font-family="Times,serif" font-size="14.00">t1R1</text>
</g>
<!-- R01_Lee -->
<g id="node4" class="node">
<title>R01_Lee</title>
<ellipse fill="none" stroke="black" cx="145.05" cy="-54.05" rx="50.09" ry="50.09"/>
<ellipse fill="none" stroke="black" cx="145.05" cy="-54.05" rx="54.09" ry="54.09"/>
<text text-anchor="middle" x="145.05" y="-50.35" font-family="Times,serif" font-size="14.00">R01_Lee</text>
</g>
<!-- R00_Lee&#45;&gt;R01_Lee -->
<g id="edge1" class="edge">
<title>R00_Lee&#45;&gt;R01_Lee</title>
<path fill="none" stroke="black" d="M149.34,-477.13C149.98,-460.81 150.61,-442.81 151.05,-426.27 154.37,-299.56 154.16,-267.85 155.05,-141.09 155.09,-134.42 155.51,-132.74 155.05,-126.09 154.86,-123.39 154.63,-120.63 154.37,-117.85"/>
<polygon fill="black" stroke="black" points="157.83,-117.3 153.3,-107.72 150.87,-118.04 157.83,-117.3"/>
<text text-anchor="middle" x="180.55" y="-288.98" font-family="Times,serif" font-size="14.00">t5O1R3</text>
</g>
<!-- R10_Lee&#45;&gt;R00_Lee -->
<g id="edge6" class="edge">
<title>R10_Lee&#45;&gt;R00_Lee</title>
<path fill="none" stroke="black" d="M88.82,-413.62C96.33,-423.31 103.86,-433.88 110.05,-444.27 115.1,-452.76 119.84,-462.07 124.12,-471.32"/>
<polygon fill="black" stroke="black" points="120.97,-472.84 128.26,-480.53 127.35,-469.98 120.97,-472.84"/>
<text text-anchor="middle" x="125.05" y="-448.07" font-family="Times,serif" font-size="14.00">t2</text>
</g>
<!-- R10_Lee&#45;&gt;R10_Lee -->
<g id="edge5" class="edge">
<title>R10_Lee&#45;&gt;R10_Lee</title>
<path fill="none" stroke="black" d="M106.5,-386.42C117.86,-385.03 126.09,-380.3 126.09,-372.23 126.09,-366.8 122.37,-362.89 116.49,-360.48"/>
<polygon fill="black" stroke="black" points="117.05,-357.01 106.5,-358.03 115.38,-363.81 117.05,-357.01"/>
<text text-anchor="middle" x="134.09" y="-368.53" font-family="Times,serif" font-size="14.00">t4</text>
</g>
<!-- R11_Lee -->
<g id="node3" class="node">
<title>R11_Lee</title>
<ellipse fill="none" stroke="black" cx="85.05" cy="-213.14" rx="50.09" ry="50.09"/>
<ellipse fill="none" stroke="black" cx="85.05" cy="-213.14" rx="54.09" ry="54.09"/>
<text text-anchor="middle" x="85.05" y="-209.44" font-family="Times,serif" font-size="14.00">R11_Lee</text>
</g>
<!-- R10_Lee&#45;&gt;R11_Lee -->
<g id="edge4" class="edge">
<title>R10_Lee&#45;&gt;R11_Lee</title>
<path fill="none" stroke="black" d="M24.71,-326.53C19.4,-313.21 16.96,-298.59 22.05,-285.18 25.81,-275.25 31.67,-265.82 38.33,-257.27"/>
<polygon fill="black" stroke="black" points="41.22,-259.28 44.92,-249.35 35.84,-254.8 41.22,-259.28"/>
<text text-anchor="middle" x="49.55" y="-288.98" font-family="Times,serif" font-size="14.00">t5O1R3</text>
</g>
<!-- R11_Lee&#45;&gt;R10_Lee -->
<g id="edge7" class="edge">
<title>R11_Lee&#45;&gt;R10_Lee</title>
<path fill="none" stroke="black" d="M81.96,-267.19C80.81,-278.17 79.22,-289.6 77.05,-300.18 76.3,-303.83 75.43,-307.54 74.47,-311.28"/>
<polygon fill="black" stroke="black" points="71.04,-310.57 71.77,-321.14 77.79,-312.42 71.04,-310.57"/>
<text text-anchor="middle" x="96.55" y="-288.98" font-family="Times,serif" font-size="14.00">t3R2</text>
</g>
<!-- R11_Lee&#45;&gt;R01_Lee -->
<g id="edge8" class="edge">
<title>R11_Lee&#45;&gt;R01_Lee</title>
<path fill="none" stroke="black" d="M76.7,-159.64C76.68,-148.3 78.07,-136.57 82.05,-126.09 85.81,-116.16 91.67,-106.73 98.33,-98.18"/>
<polygon fill="black" stroke="black" points="101.22,-100.18 104.92,-90.26 95.84,-95.71 101.22,-100.18"/>
<text text-anchor="middle" x="90.05" y="-129.89" font-family="Times,serif" font-size="14.00">t2</text>
</g>
<!-- R01_Lee&#45;&gt;R00_Lee -->
<g id="edge9" class="edge">
<title>R01_Lee&#45;&gt;R00_Lee</title>
<path fill="none" stroke="black" d="M164.3,-104.83C180.93,-150.82 203.58,-221.45 212.05,-285.18 220.78,-350.99 196.68,-424.32 175.39,-473.48"/>
<polygon fill="black" stroke="black" points="172.17,-472.11 171.32,-482.67 178.57,-474.95 172.17,-472.11"/>
<text text-anchor="middle" x="230.55" y="-288.98" font-family="Times,serif" font-size="14.00">t3R2</text>
</g>
<!-- R01_Lee&#45;&gt;R11_Lee -->
<g id="edge10" class="edge">
<title>R01_Lee&#45;&gt;R11_Lee</title>
<path fill="none" stroke="black" d="M126.08,-104.7C120.25,-119.95 113.78,-136.9 107.73,-152.74"/>
<polygon fill="black" stroke="black" points="104.33,-151.84 104.03,-162.43 110.87,-154.34 104.33,-151.84"/>
<text text-anchor="middle" x="133.55" y="-129.89" font-family="Times,serif" font-size="14.00">t1R1</text>
</g>
</g>
</svg>
