<?xml version="1.0" encoding="UTF-8" standalone="no"?>
<!DOCTYPE svg PUBLIC "-//W3C//DTD SVG 1.1//EN"
 "http://www.w3.org/Graphics/SVG/1.1/DTD/svg11.dtd">
<!-- Generated by graphviz version 2.43.0 (0)
 -->
<!-- Title: SCinput/r Pages: 1 -->
<svg width="249pt" height="305pt"
 viewBox="0.00 0.00 249.05 305.00" xmlns="http://www.w3.org/2000/svg" xmlns:xlink="http://www.w3.org/1999/xlink">
<g id="graph0" class="graph" transform="scale(1 1) rotate(0) translate(4 301)">
<title>SCinput/r</title>
<polygon fill="white" stroke="transparent" points="-4,4 -4,-301 245.05,-301 245.05,4 -4,4"/>
<!-- R00_Lee -->
<g id="node1" class="node">
<title>R00_Lee</title>
<ellipse fill="none" stroke="black" cx="140.05" cy="-279" rx="50.09" ry="18"/>
<text text-anchor="middle" x="140.05" y="-275.3" font-family="Times,serif" font-size="14.00">R00_Lee</text>
</g>
<!-- R00_Lee&#45;&gt;R00_Lee -->
<g id="edge2" class="edge">
<title>R00_Lee&#45;&gt;R00_Lee</title>
<path fill="none" stroke="black" d="M185.2,-286.84C198.12,-286.54 208.09,-283.92 208.09,-279 208.09,-275.46 202.94,-273.12 195.25,-271.96"/>
<polygon fill="black" stroke="black" points="195.44,-268.47 185.2,-271.16 194.88,-275.45 195.44,-268.47"/>
<text text-anchor="middle" x="216.09" y="-275.3" font-family="Times,serif" font-size="14.00">t4</text>
</g>
<!-- R10_Lee -->
<g id="node2" class="node">
<title>R10_Lee</title>
<ellipse fill="#ffeeee" stroke="black" cx="50.05" cy="-192" rx="50.09" ry="18"/>
<text text-anchor="middle" x="50.05" y="-188.3" font-family="Times,serif" font-size="14.00">R10_Lee</text>
</g>
<!-- R00_Lee&#45;&gt;R10_Lee -->
<g id="edge3" class="edge">
<title>R00_Lee&#45;&gt;R10_Lee</title>
<path fill="none" stroke="black" d="M103.51,-266.69C90.87,-261.24 77.52,-253.55 68.05,-243 62.17,-236.46 58.18,-227.87 55.48,-219.65"/>
<polygon fill="black" stroke="black" points="58.84,-218.67 52.78,-209.98 52.09,-220.55 58.84,-218.67"/>
<text text-anchor="middle" x="85.55" y="-231.8" font-family="Times,serif" font-size="14.00">t1R1</text>
</g>
<!-- R01_Lee -->
<g id="node4" class="node">
<title>R01_Lee</title>
<ellipse fill="#ffeeee" stroke="black" cx="137.05" cy="-18" rx="50.09" ry="18"/>
<text text-anchor="middle" x="137.05" y="-14.3" font-family="Times,serif" font-size="14.00">R01_Lee</text>
</g>
<!-- R00_Lee&#45;&gt;R01_Lee -->
<g id="edge1" class="edge">
<title>R00_Lee&#45;&gt;R01_Lee</title>
<path fill="none" stroke="black" d="M140.94,-260.94C142.74,-225.3 146.78,-140.34 148.05,-69 148.16,-62.33 149.06,-60.59 148.05,-54 147.63,-51.32 147.06,-48.56 146.38,-45.83"/>
<polygon fill="black" stroke="black" points="149.73,-44.83 143.59,-36.2 143.01,-46.78 149.73,-44.83"/>
<text text-anchor="middle" x="173.55" y="-144.8" font-family="Times,serif" font-size="14.00">t5O1R3</text>
</g>
<!-- R10_Lee&#45;&gt;R00_Lee -->
<g id="edge6" class="edge">
<title>R10_Lee&#45;&gt;R00_Lee</title>
<path fill="none" stroke="black" d="M75.92,-207.53C85.01,-213.27 94.96,-220.34 103.05,-228 110.72,-235.28 117.94,-244.31 123.93,-252.68"/>
<polygon fill="black" stroke="black" points="121.15,-254.81 129.69,-261.07 126.92,-250.85 121.15,-254.81"/>
<text text-anchor="middle" x="123.05" y="-231.8" font-family="Times,serif" font-size="14.00">t2</text>
</g>
<!-- R10_Lee&#45;&gt;R10_Lee -->
<g id="edge5" class="edge">
<title>R10_Lee&#45;&gt;R10_Lee</title>
<path fill="none" stroke="black" d="M95.2,-199.84C108.12,-199.54 118.09,-196.92 118.09,-192 118.09,-188.46 112.94,-186.12 105.25,-184.96"/>
<polygon fill="black" stroke="black" points="105.44,-181.47 95.2,-184.16 104.88,-188.45 105.44,-181.47"/>
<text text-anchor="middle" x="126.09" y="-188.3" font-family="Times,serif" font-size="14.00">t4</text>
</g>
<!-- R11_Lee -->
<g id="node3" class="node">
<title>R11_Lee</title>
<ellipse fill="#ffeeee" stroke="black" cx="79.05" cy="-105" rx="50.09" ry="18"/>
<text text-anchor="middle" x="79.05" y="-101.3" font-family="Times,serif" font-size="14.00">R11_Lee</text>
</g>
<!-- R10_Lee&#45;&gt;R11_Lee -->
<g id="edge4" class="edge">
<title>R10_Lee&#45;&gt;R11_Lee</title>
<path fill="none" stroke="black" d="M28.34,-175.64C17.44,-165.95 7.91,-153.03 15.05,-141 19.55,-133.41 26.35,-127.35 33.85,-122.56"/>
<polygon fill="black" stroke="black" points="35.88,-125.44 42.9,-117.5 32.46,-119.33 35.88,-125.44"/>
<text text-anchor="middle" x="42.55" y="-144.8" font-family="Times,serif" font-size="14.00">t5O1R3</text>
</g>
<!-- R11_Lee&#45;&gt;R10_Lee -->
<g id="edge7" class="edge">
<title>R11_Lee&#45;&gt;R10_Lee</title>
<path fill="none" stroke="black" d="M77.44,-123.04C76.15,-132.89 73.9,-145.39 70.05,-156 68.92,-159.09 67.54,-162.23 66.02,-165.29"/>
<polygon fill="black" stroke="black" points="62.93,-163.66 61.24,-174.12 69.08,-167 62.93,-163.66"/>
<text text-anchor="middle" x="91.55" y="-144.8" font-family="Times,serif" font-size="14.00">t3R2</text>
</g>
<!-- R11_Lee&#45;&gt;R01_Lee -->
<g id="edge8" class="edge">
<title>R11_Lee&#45;&gt;R01_Lee</title>
<path fill="none" stroke="black" d="M72.42,-86.69C69.67,-76.52 68.29,-63.77 74.05,-54 78.42,-46.56 85.02,-40.59 92.32,-35.83"/>
<polygon fill="black" stroke="black" points="94.18,-38.8 101.12,-30.79 90.7,-32.72 94.18,-38.8"/>
<text text-anchor="middle" x="82.05" y="-57.8" font-family="Times,serif" font-size="14.00">t2</text>
</g>
<!-- R01_Lee&#45;&gt;R00_Lee -->
<g id="edge9" class="edge">
<title>R01_Lee&#45;&gt;R00_Lee</title>
<path fill="none" stroke="black" d="M150.26,-35.5C167.16,-57.84 195.39,-99.68 205.05,-141 214.87,-183.05 185.42,-227.46 162.99,-253.94"/>
<polygon fill="black" stroke="black" points="160.27,-251.74 156.31,-261.56 165.53,-256.35 160.27,-251.74"/>
<text text-anchor="middle" x="223.55" y="-144.8" font-family="Times,serif" font-size="14.00">t3R2</text>
</g>
<!-- R01_Lee&#45;&gt;R11_Lee -->
<g id="edge10" class="edge">
<title>R01_Lee&#45;&gt;R11_Lee</title>
<path fill="none" stroke="black" d="M125.56,-35.73C121.59,-41.51 117.12,-48.04 113.05,-54 107.54,-62.06 101.55,-70.87 96.15,-78.81"/>
<polygon fill="black" stroke="black" points="93.09,-77.08 90.36,-87.32 98.88,-81.02 93.09,-77.08"/>
<text text-anchor="middle" x="130.55" y="-57.8" font-family="Times,serif" font-size="14.00">t1R1</text>
</g>
</g>
</svg>
