<?xml version="1.0" encoding="UTF-8" standalone="no"?>
<!DOCTYPE svg PUBLIC "-//W3C//DTD SVG 1.1//EN"
 "http://www.w3.org/Graphics/SVG/1.1/DTD/svg11.dtd">
<!-- Generated by graphviz version 2.43.0 (0)
 -->
<!-- Title: input/s2 Pages: 1 -->
<svg width="480pt" height="361pt"
 viewBox="0.00 0.00 480.00 360.78" xmlns="http://www.w3.org/2000/svg" xmlns:xlink="http://www.w3.org/1999/xlink">
<g id="graph0" class="graph" transform="scale(1 1) rotate(0) translate(4 356.78)">
<title>input/s2</title>
<polygon fill="white" stroke="transparent" points="-4,4 -4,-356.78 476,-356.78 476,4 -4,4"/>
<g id="clust1" class="cluster">
<title>cluster1</title>
<path fill="#ffeeee" stroke="#ffeeee" d="M20,-130.59C20,-130.59 141,-130.59 141,-130.59 147,-130.59 153,-136.59 153,-142.59 153,-142.59 153,-332.78 153,-332.78 153,-338.78 147,-344.78 141,-344.78 141,-344.78 20,-344.78 20,-344.78 14,-344.78 8,-338.78 8,-332.78 8,-332.78 8,-142.59 8,-142.59 8,-136.59 14,-130.59 20,-130.59"/>
</g>
<g id="clust2" class="cluster">
<title>cluster2</title>
<path fill="#ffeeee" stroke="#ffeeee" d="M173,-8C173,-8 452,-8 452,-8 458,-8 464,-14 464,-20 464,-20 464,-206.19 464,-206.19 464,-212.19 458,-218.19 452,-218.19 452,-218.19 173,-218.19 173,-218.19 167,-218.19 161,-212.19 161,-206.19 161,-206.19 161,-20 161,-20 161,-14 167,-8 173,-8"/>
</g>
<!-- C1_0 -->
<g id="node1" class="node">
<title>C1_0</title>
<ellipse fill="white" stroke="black" cx="54" cy="-298.99" rx="33.62" ry="33.62"/>
<ellipse fill="none" stroke="black" cx="54" cy="-298.99" rx="37.6" ry="37.6"/>
<text text-anchor="middle" x="54" y="-295.29" font-family="Times,serif" font-size="14.00">C1_0</text>
</g>
<!-- C1_0&#45;&gt;C1_0 -->
<g id="edge3" class="edge">
<title>C1_0&#45;&gt;C1_0</title>
<path fill="none" stroke="black" d="M90.22,-310.59C101.21,-310.3 109.8,-306.43 109.8,-298.99 109.8,-294.1 106.1,-290.75 100.45,-288.95"/>
<polygon fill="black" stroke="black" points="100.64,-285.43 90.22,-287.38 99.58,-292.35 100.64,-285.43"/>
<text text-anchor="middle" x="127.3" y="-295.29" font-family="Times,serif" font-size="14.00">t3R1</text>
</g>
<!-- C1_1 -->
<g id="node2" class="node">
<title>C1_1</title>
<ellipse fill="white" stroke="black" cx="54" cy="-172.39" rx="33.6" ry="33.6"/>
<text text-anchor="middle" x="54" y="-168.69" font-family="Times,serif" font-size="14.00">C1_1</text>
</g>
<!-- C1_0&#45;&gt;C1_1 -->
<g id="edge1" class="edge">
<title>C1_0&#45;&gt;C1_1</title>
<path fill="none" stroke="black" d="M45.7,-261.88C44.58,-255.68 43.6,-249.27 43,-243.19 42.1,-234.14 42.64,-224.48 43.87,-215.33"/>
<polygon fill="black" stroke="black" points="47.36,-215.69 45.5,-205.26 40.45,-214.57 47.36,-215.69"/>
<text text-anchor="middle" x="61" y="-231.99" font-family="Times,serif" font-size="14.00">t1O1</text>
</g>
<!-- C2_0 -->
<g id="node3" class="node">
<title>C2_0</title>
<ellipse fill="white" stroke="black" cx="246" cy="-172.39" rx="33.62" ry="33.62"/>
<ellipse fill="none" stroke="black" cx="246" cy="-172.39" rx="37.6" ry="37.6"/>
<text text-anchor="middle" x="246" y="-168.69" font-family="Times,serif" font-size="14.00">C2_0</text>
</g>
<!-- C1_0&#45;&gt;C2_0 -->
<g id="edge13" class="edge">
<title>C1_0&#45;&gt;C2_0</title>
<path fill="none" stroke="black" d="M153,-233.74C158.17,-230.38 163.34,-227.03 168.43,-223.73"/>
<polygon fill="black" stroke="black" points="170.49,-226.56 176.97,-218.18 166.68,-220.69 170.49,-226.56"/>
<text text-anchor="middle" x="179.5" y="-231.99" font-family="Times,serif" font-size="14.00">L1{}</text>
</g>
<!-- C1_1&#45;&gt;C1_0 -->
<g id="edge2" class="edge">
<title>C1_1&#45;&gt;C1_0</title>
<path fill="none" stroke="black" d="M70.04,-202.45C73.72,-210.54 77.11,-219.5 79,-228.19 81.05,-237.62 79.75,-247.51 76.9,-256.78"/>
<polygon fill="black" stroke="black" points="73.61,-255.59 73.43,-266.18 80.18,-258.01 73.61,-255.59"/>
<text text-anchor="middle" x="99" y="-231.99" font-family="Times,serif" font-size="14.00">t2O1</text>
</g>
<!-- C1_1&#45;&gt;C1_1 -->
<g id="edge4" class="edge">
<title>C1_1&#45;&gt;C1_1</title>
<path fill="none" stroke="black" d="M85.87,-184.01C96.89,-184.14 105.8,-180.26 105.8,-172.39 105.8,-167.23 101.96,-163.78 96.21,-162.06"/>
<polygon fill="black" stroke="black" points="96.22,-158.53 85.87,-160.77 95.36,-165.48 96.22,-158.53"/>
<text text-anchor="middle" x="123.3" y="-168.69" font-family="Times,serif" font-size="14.00">t4R2</text>
</g>
<!-- C2_0&#45;&gt;C2_0 -->
<g id="edge7" class="edge">
<title>C2_0&#45;&gt;C2_0</title>
<path fill="none" stroke="black" d="M283.55,-178.17C293.89,-177.89 301.8,-175.96 301.8,-172.39 301.8,-170.16 298.71,-168.57 293.87,-167.62"/>
<polygon fill="black" stroke="black" points="293.84,-164.1 283.55,-166.61 293.16,-171.07 293.84,-164.1"/>
<text text-anchor="middle" x="319.3" y="-168.69" font-family="Times,serif" font-size="14.00">t7R3</text>
</g>
<!-- C2_0&#45;&gt;C2_0 -->
<g id="edge9" class="edge">
<title>C2_0&#45;&gt;C2_0</title>
<path fill="none" stroke="black" d="M282.68,-182.99C308.96,-185.98 336.8,-182.44 336.8,-172.39 336.8,-163.64 315.68,-159.83 292.86,-160.96"/>
<polygon fill="black" stroke="black" points="292.37,-157.49 282.68,-161.79 292.94,-164.47 292.37,-157.49"/>
<text text-anchor="middle" x="354.8" y="-168.69" font-family="Times,serif" font-size="14.00">t9O2</text>
</g>
<!-- C2_1 -->
<g id="node4" class="node">
<title>C2_1</title>
<ellipse fill="white" stroke="black" cx="276" cy="-49.8" rx="33.6" ry="33.6"/>
<text text-anchor="middle" x="276" y="-46.1" font-family="Times,serif" font-size="14.00">C2_1</text>
</g>
<!-- C2_0&#45;&gt;C2_1 -->
<g id="edge5" class="edge">
<title>C2_0&#45;&gt;C2_1</title>
<path fill="none" stroke="black" d="M213.46,-152.58C194.83,-139.23 177.13,-120.42 188,-101.59 198.05,-84.19 216.58,-72.22 234.05,-64.29"/>
<polygon fill="black" stroke="black" points="235.72,-67.39 243.59,-60.29 233.01,-60.93 235.72,-67.39"/>
<text text-anchor="middle" x="206" y="-105.39" font-family="Times,serif" font-size="14.00">t5O2</text>
</g>
<!-- C2_0&#45;&gt;C2_1 -->
<g id="edge11" class="edge">
<title>C2_0&#45;&gt;C2_1</title>
<path fill="none" stroke="black" d="M239.96,-134.97C239.34,-124.05 239.86,-112.18 243,-101.59 244.67,-95.97 247.17,-90.39 250.07,-85.1"/>
<polygon fill="black" stroke="black" points="253.08,-86.88 255.24,-76.51 247.08,-83.27 253.08,-86.88"/>
<text text-anchor="middle" x="275" y="-105.39" font-family="Times,serif" font-size="14.00">t11O2R5</text>
</g>
<!-- C2_1&#45;&gt;C2_0 -->
<g id="edge6" class="edge">
<title>C2_1&#45;&gt;C2_0</title>
<path fill="none" stroke="black" d="M299.96,-73.94C309.89,-86.41 317.71,-102.16 311,-116.59 305.6,-128.21 296.39,-138.25 286.57,-146.44"/>
<polygon fill="black" stroke="black" points="284.38,-143.72 278.63,-152.62 288.68,-149.24 284.38,-143.72"/>
<text text-anchor="middle" x="331" y="-105.39" font-family="Times,serif" font-size="14.00">t6O2</text>
</g>
<!-- C2_1&#45;&gt;C2_0 -->
<g id="edge12" class="edge">
<title>C2_1&#45;&gt;C2_0</title>
<path fill="none" stroke="black" d="M307.58,-61.92C334.76,-73.38 367.49,-92.89 353,-116.59 339.77,-138.23 314.99,-151.67 292.61,-159.83"/>
<polygon fill="black" stroke="black" points="291.23,-156.6 282.87,-163.11 293.47,-163.23 291.23,-156.6"/>
<text text-anchor="middle" x="388" y="-105.39" font-family="Times,serif" font-size="14.00">t12O2R6</text>
</g>
<!-- C2_1&#45;&gt;C2_1 -->
<g id="edge8" class="edge">
<title>C2_1&#45;&gt;C2_1</title>
<path fill="none" stroke="black" d="M309.38,-55.23C319.7,-55.12 327.8,-53.31 327.8,-49.8 327.8,-47.55 324.47,-46 319.37,-45.14"/>
<polygon fill="black" stroke="black" points="319.62,-41.65 309.38,-44.36 319.08,-48.63 319.62,-41.65"/>
<text text-anchor="middle" x="345.3" y="-46.1" font-family="Times,serif" font-size="14.00">t8R4</text>
</g>
<!-- C2_1&#45;&gt;C2_1 -->
<g id="edge10" class="edge">
<title>C2_1&#45;&gt;C2_1</title>
<path fill="none" stroke="black" d="M308.69,-59.44C334.45,-62.7 362.8,-59.48 362.8,-49.8 362.8,-41.36 341.29,-37.83 318.72,-39.21"/>
<polygon fill="black" stroke="black" points="318.32,-35.73 308.69,-40.15 318.97,-42.7 318.32,-35.73"/>
<text text-anchor="middle" x="385.3" y="-46.1" font-family="Times,serif" font-size="14.00">t10O2</text>
</g>
</g>
</svg>
