<?xml version="1.0" encoding="UTF-8" standalone="no"?>
<!DOCTYPE svg PUBLIC "-//W3C//DTD SVG 1.1//EN"
 "http://www.w3.org/Graphics/SVG/1.1/DTD/svg11.dtd">
<!-- Generated by graphviz version 2.43.0 (0)
 -->
<!-- Title: input/s2 Pages: 1 -->
<svg width="443pt" height="310pt"
 viewBox="0.00 0.00 443.00 310.00" xmlns="http://www.w3.org/2000/svg" xmlns:xlink="http://www.w3.org/1999/xlink">
<g id="graph0" class="graph" transform="scale(1 1) rotate(0) translate(4 306)">
<title>input/s2</title>
<polygon fill="white" stroke="transparent" points="-4,4 -4,-306 439,-306 439,4 -4,4"/>
<g id="clust1" class="cluster">
<title>cluster0</title>
<path fill="#ffeeee" stroke="#ffeeee" d="M20,-99C20,-99 125,-99 125,-99 131,-99 137,-105 137,-111 137,-111 137,-282 137,-282 137,-288 131,-294 125,-294 125,-294 20,-294 20,-294 14,-294 8,-288 8,-282 8,-282 8,-111 8,-111 8,-105 14,-99 20,-99"/>
<text text-anchor="middle" x="72.5" y="-278.8" font-family="Times,serif" font-size="14.00">C1</text>
</g>
<g id="clust2" class="cluster">
<title>cluster1</title>
<path fill="#ffeeee" stroke="#ffeeee" d="M157,-8C157,-8 415,-8 415,-8 421,-8 427,-14 427,-20 427,-20 427,-166 427,-166 427,-172 421,-178 415,-178 415,-178 157,-178 157,-178 151,-178 145,-172 145,-166 145,-166 145,-20 145,-20 145,-14 151,-8 157,-8"/>
<text text-anchor="middle" x="286" y="-162.8" font-family="Times,serif" font-size="14.00">C2</text>
</g>
<!-- C0s0 -->
<g id="node1" class="node">
<title>C0s0</title>
<ellipse fill="white" stroke="black" cx="65" cy="-241" rx="18" ry="18"/>
<ellipse fill="none" stroke="black" cx="65" cy="-241" rx="22" ry="22"/>
<text text-anchor="middle" x="65" y="-237.3" font-family="Times,serif" font-size="14.00">0</text>
</g>
<!-- C0s0&#45;&gt;C0s0 -->
<g id="edge3" class="edge">
<title>C0s0&#45;&gt;C0s0</title>
<path fill="none" stroke="black" d="M85.58,-249.37C95.84,-250.53 105,-247.74 105,-241 105,-236.68 101.24,-233.99 95.84,-232.91"/>
<polygon fill="black" stroke="black" points="95.67,-229.41 85.58,-232.63 95.48,-236.4 95.67,-229.41"/>
<text text-anchor="middle" x="117" y="-237.3" font-family="Times,serif" font-size="14.00">t3a</text>
</g>
<!-- C0s1 -->
<g id="node2" class="node">
<title>C0s1</title>
<ellipse fill="white" stroke="black" cx="51" cy="-125" rx="18" ry="18"/>
<text text-anchor="middle" x="51" y="-121.3" font-family="Times,serif" font-size="14.00">1</text>
</g>
<!-- C0s0&#45;&gt;C0s1 -->
<g id="edge1" class="edge">
<title>C0s0&#45;&gt;C0s1</title>
<path fill="none" stroke="black" d="M49.49,-224.72C43.77,-218.04 37.97,-209.73 35,-201 29.43,-184.61 33.64,-165.53 39.14,-150.71"/>
<polygon fill="black" stroke="black" points="42.47,-151.8 43.04,-141.22 36,-149.14 42.47,-151.8"/>
<text text-anchor="middle" x="53" y="-189.8" font-family="Times,serif" font-size="14.00">t1O1</text>
</g>
<!-- C1s0 -->
<g id="node3" class="node">
<title>C1s0</title>
<ellipse fill="white" stroke="black" cx="230" cy="-125" rx="18" ry="18"/>
<ellipse fill="none" stroke="black" cx="230" cy="-125" rx="22" ry="22"/>
<text text-anchor="middle" x="230" y="-121.3" font-family="Times,serif" font-size="14.00">0</text>
</g>
<!-- C0s0&#45;&gt;C1s0 -->
<g id="edge13" class="edge">
<title>C0s0&#45;&gt;C1s0</title>
<path fill="none" stroke="black" d="M137,-190.26C140.06,-188.14 143.15,-186.01 146.23,-183.87"/>
<polygon fill="black" stroke="black" points="148.5,-186.56 154.74,-178 144.52,-180.8 148.5,-186.56"/>
<text text-anchor="middle" x="152.5" y="-189.8" font-family="Times,serif" font-size="14.00">L1</text>
</g>
<!-- C0s1&#45;&gt;C0s0 -->
<g id="edge2" class="edge">
<title>C0s1&#45;&gt;C0s0</title>
<path fill="none" stroke="black" d="M57.78,-141.69C62.54,-153.6 68.48,-170.5 71,-186 72.07,-192.58 71.51,-194.35 71,-201 70.8,-203.57 70.54,-206.23 70.22,-208.89"/>
<polygon fill="black" stroke="black" points="66.72,-208.63 68.83,-219.02 73.66,-209.59 66.72,-208.63"/>
<text text-anchor="middle" x="90" y="-189.8" font-family="Times,serif" font-size="14.00">t2O1</text>
</g>
<!-- C0s1&#45;&gt;C0s1 -->
<g id="edge4" class="edge">
<title>C0s1&#45;&gt;C0s1</title>
<path fill="none" stroke="black" d="M67.29,-133.02C77.39,-134.95 87,-132.28 87,-125 87,-120.34 83.06,-117.57 77.57,-116.68"/>
<polygon fill="black" stroke="black" points="77.18,-113.19 67.29,-116.98 77.39,-120.19 77.18,-113.19"/>
<text text-anchor="middle" x="99.5" y="-121.3" font-family="Times,serif" font-size="14.00">t4b</text>
</g>
<!-- C1s0&#45;&gt;C1s0 -->
<g id="edge7" class="edge">
<title>C1s0&#45;&gt;C1s0</title>
<path fill="none" stroke="black" d="M251.81,-129.25C261.56,-129.65 270,-128.23 270,-125 270,-122.98 266.7,-121.67 261.85,-121.07"/>
<polygon fill="black" stroke="black" points="261.91,-117.57 251.81,-120.75 261.69,-124.56 261.91,-117.57"/>
<text text-anchor="middle" x="280" y="-121.3" font-family="Times,serif" font-size="14.00">t7j</text>
</g>
<!-- C1s0&#45;&gt;C1s0 -->
<g id="edge9" class="edge">
<title>C1s0&#45;&gt;C1s0</title>
<path fill="none" stroke="black" d="M250.93,-132.15C269.67,-135.51 290,-133.13 290,-125 290,-118.33 276.32,-115.53 261.06,-116.6"/>
<polygon fill="black" stroke="black" points="260.42,-113.15 250.93,-117.85 261.28,-120.09 260.42,-113.15"/>
<text text-anchor="middle" x="308" y="-121.3" font-family="Times,serif" font-size="14.00">t9O2</text>
</g>
<!-- C1s1 -->
<g id="node4" class="node">
<title>C1s1</title>
<ellipse fill="white" stroke="black" cx="263" cy="-34" rx="18" ry="18"/>
<text text-anchor="middle" x="263" y="-30.3" font-family="Times,serif" font-size="14.00">1</text>
</g>
<!-- C1s0&#45;&gt;C1s1 -->
<g id="edge5" class="edge">
<title>C1s0&#45;&gt;C1s1</title>
<path fill="none" stroke="black" d="M209.51,-116C187.98,-106.35 158.91,-89.05 172,-70 186.02,-49.59 213.73,-41.08 234.91,-37.53"/>
<polygon fill="black" stroke="black" points="235.56,-40.97 244.98,-36.12 234.6,-34.04 235.56,-40.97"/>
<text text-anchor="middle" x="190" y="-73.8" font-family="Times,serif" font-size="14.00">t5O2</text>
</g>
<!-- C1s0&#45;&gt;C1s1 -->
<g id="edge11" class="edge">
<title>C1s0&#45;&gt;C1s1</title>
<path fill="none" stroke="black" d="M224.69,-103.52C223.01,-93.1 222.58,-80.47 227,-70 229.92,-63.09 234.94,-56.88 240.32,-51.67"/>
<polygon fill="black" stroke="black" points="242.99,-53.98 248.26,-44.79 238.41,-48.69 242.99,-53.98"/>
<text text-anchor="middle" x="251.5" y="-73.8" font-family="Times,serif" font-size="14.00">t11O2l</text>
</g>
<!-- C1s1&#45;&gt;C1s0 -->
<g id="edge6" class="edge">
<title>C1s1&#45;&gt;C1s0</title>
<path fill="none" stroke="black" d="M273.51,-48.95C279.86,-59.2 285.71,-73.3 280,-85 275.25,-94.72 266.79,-102.72 258.15,-108.9"/>
<polygon fill="black" stroke="black" points="256.08,-106.07 249.6,-114.45 259.89,-111.94 256.08,-106.07"/>
<text text-anchor="middle" x="300" y="-73.8" font-family="Times,serif" font-size="14.00">t6O2</text>
</g>
<!-- C1s1&#45;&gt;C1s0 -->
<g id="edge12" class="edge">
<title>C1s1&#45;&gt;C1s0</title>
<path fill="none" stroke="black" d="M279.77,-40.55C301.52,-48.68 335.2,-65.07 322,-85 308.66,-105.14 282.63,-114.91 261.64,-119.63"/>
<polygon fill="black" stroke="black" points="260.96,-116.2 251.83,-121.56 262.31,-123.06 260.96,-116.2"/>
<text text-anchor="middle" x="353" y="-73.8" font-family="Times,serif" font-size="14.00">t12O2m</text>
</g>
<!-- C1s1&#45;&gt;C1s1 -->
<g id="edge8" class="edge">
<title>C1s1&#45;&gt;C1s1</title>
<path fill="none" stroke="black" d="M280.78,-37.78C290.31,-38.42 299,-37.16 299,-34 299,-32.08 295.77,-30.86 291.1,-30.34"/>
<polygon fill="black" stroke="black" points="290.82,-26.84 280.78,-30.22 290.74,-33.84 290.82,-26.84"/>
<text text-anchor="middle" x="311" y="-30.3" font-family="Times,serif" font-size="14.00">t8k</text>
</g>
<!-- C1s1&#45;&gt;C1s1 -->
<g id="edge10" class="edge">
<title>C1s1&#45;&gt;C1s1</title>
<path fill="none" stroke="black" d="M280.27,-39.97C299.62,-43.82 323,-41.83 323,-34 323,-27.51 306.97,-25.03 290.47,-26.56"/>
<polygon fill="black" stroke="black" points="289.67,-23.14 280.27,-28.03 290.67,-30.07 289.67,-23.14"/>
<text text-anchor="middle" x="345.5" y="-30.3" font-family="Times,serif" font-size="14.00">t10O2</text>
</g>
</g>
</svg>
