<?xml version="1.0" encoding="UTF-8" standalone="no"?>
<!DOCTYPE svg PUBLIC "-//W3C//DTD SVG 1.1//EN"
 "http://www.w3.org/Graphics/SVG/1.1/DTD/svg11.dtd">
<!-- Generated by graphviz version 2.43.0 (0)
 -->
<!-- Title: input/s2 Pages: 1 -->
<svg width="448pt" height="361pt"
 viewBox="0.00 0.00 448.00 360.78" xmlns="http://www.w3.org/2000/svg" xmlns:xlink="http://www.w3.org/1999/xlink">
<g id="graph0" class="graph" transform="scale(1 1) rotate(0) translate(4 356.78)">
<title>input/s2</title>
<polygon fill="white" stroke="transparent" points="-4,4 -4,-356.78 444,-356.78 444,4 -4,4"/>
<g id="clust1" class="cluster">
<title>cluster1</title>
<path fill="#ffeeee" stroke="#ffeeee" d="M20,-130.59C20,-130.59 130,-130.59 130,-130.59 136,-130.59 142,-136.59 142,-142.59 142,-142.59 142,-332.78 142,-332.78 142,-338.78 136,-344.78 130,-344.78 130,-344.78 20,-344.78 20,-344.78 14,-344.78 8,-338.78 8,-332.78 8,-332.78 8,-142.59 8,-142.59 8,-136.59 14,-130.59 20,-130.59"/>
</g>
<g id="clust2" class="cluster">
<title>cluster2</title>
<path fill="#ffeeee" stroke="#ffeeee" d="M162,-8C162,-8 420,-8 420,-8 426,-8 432,-14 432,-20 432,-20 432,-206.19 432,-206.19 432,-212.19 426,-218.19 420,-218.19 420,-218.19 162,-218.19 162,-218.19 156,-218.19 150,-212.19 150,-206.19 150,-206.19 150,-20 150,-20 150,-14 156,-8 162,-8"/>
</g>
<!-- C1_0 -->
<g id="node1" class="node">
<title>C1_0</title>
<ellipse fill="white" stroke="black" cx="54" cy="-298.99" rx="33.62" ry="33.62"/>
<ellipse fill="none" stroke="black" cx="54" cy="-298.99" rx="37.6" ry="37.6"/>
<text text-anchor="middle" x="54" y="-295.29" font-family="Times,serif" font-size="14.00">C1_0</text>
</g>
<!-- C1_0&#45;&gt;C1_0 -->
<g id="edge3" class="edge">
<title>C1_0&#45;&gt;C1_0</title>
<path fill="none" stroke="black" d="M90.22,-310.59C101.21,-310.3 109.8,-306.43 109.8,-298.99 109.8,-294.1 106.1,-290.75 100.45,-288.95"/>
<polygon fill="black" stroke="black" points="100.64,-285.43 90.22,-287.38 99.58,-292.35 100.64,-285.43"/>
<text text-anchor="middle" x="121.8" y="-295.29" font-family="Times,serif" font-size="14.00">t3a</text>
</g>
<!-- C1_1 -->
<g id="node2" class="node">
<title>C1_1</title>
<ellipse fill="white" stroke="black" cx="53" cy="-172.39" rx="33.6" ry="33.6"/>
<text text-anchor="middle" x="53" y="-168.69" font-family="Times,serif" font-size="14.00">C1_1</text>
</g>
<!-- C1_0&#45;&gt;C1_1 -->
<g id="edge1" class="edge">
<title>C1_0&#45;&gt;C1_1</title>
<path fill="none" stroke="black" d="M41.52,-263.27C39.64,-256.68 38,-249.79 37,-243.19 35.56,-233.71 36.44,-223.61 38.38,-214.12"/>
<polygon fill="black" stroke="black" points="41.85,-214.67 40.83,-204.12 35.05,-213 41.85,-214.67"/>
<text text-anchor="middle" x="55" y="-231.99" font-family="Times,serif" font-size="14.00">t1O1</text>
</g>
<!-- C2_0 -->
<g id="node3" class="node">
<title>C2_0</title>
<ellipse fill="white" stroke="black" cx="235" cy="-172.39" rx="33.62" ry="33.62"/>
<ellipse fill="none" stroke="black" cx="235" cy="-172.39" rx="37.6" ry="37.6"/>
<text text-anchor="middle" x="235" y="-168.69" font-family="Times,serif" font-size="14.00">C2_0</text>
</g>
<!-- C1_0&#45;&gt;C2_0 -->
<g id="edge13" class="edge">
<title>C1_0&#45;&gt;C2_0</title>
<path fill="none" stroke="black" d="M142,-237.41C148.58,-232.88 155.18,-228.33 161.67,-223.87"/>
<polygon fill="black" stroke="black" points="163.68,-226.74 169.93,-218.18 159.71,-220.97 163.68,-226.74"/>
<text text-anchor="middle" x="173.5" y="-231.99" font-family="Times,serif" font-size="14.00">L1{}</text>
</g>
<!-- C1_1&#45;&gt;C1_0 -->
<g id="edge2" class="edge">
<title>C1_1&#45;&gt;C1_0</title>
<path fill="none" stroke="black" d="M66.15,-203.59C68.98,-211.45 71.55,-220.01 73,-228.19 74.51,-236.72 73.82,-245.72 72.02,-254.33"/>
<polygon fill="black" stroke="black" points="68.58,-253.63 69.45,-264.18 75.36,-255.39 68.58,-253.63"/>
<text text-anchor="middle" x="92" y="-231.99" font-family="Times,serif" font-size="14.00">t2O1</text>
</g>
<!-- C1_1&#45;&gt;C1_1 -->
<g id="edge4" class="edge">
<title>C1_1&#45;&gt;C1_1</title>
<path fill="none" stroke="black" d="M84.87,-184.01C95.89,-184.14 104.8,-180.26 104.8,-172.39 104.8,-167.23 100.96,-163.78 95.21,-162.06"/>
<polygon fill="black" stroke="black" points="95.22,-158.53 84.87,-160.77 94.36,-165.48 95.22,-158.53"/>
<text text-anchor="middle" x="117.3" y="-168.69" font-family="Times,serif" font-size="14.00">t4b</text>
</g>
<!-- C2_0&#45;&gt;C2_0 -->
<g id="edge7" class="edge">
<title>C2_0&#45;&gt;C2_0</title>
<path fill="none" stroke="black" d="M272.55,-178.17C282.89,-177.89 290.8,-175.96 290.8,-172.39 290.8,-170.16 287.71,-168.57 282.87,-167.62"/>
<polygon fill="black" stroke="black" points="282.84,-164.1 272.55,-166.61 282.16,-171.07 282.84,-164.1"/>
<text text-anchor="middle" x="300.8" y="-168.69" font-family="Times,serif" font-size="14.00">t7j</text>
</g>
<!-- C2_0&#45;&gt;C2_0 -->
<g id="edge9" class="edge">
<title>C2_0&#45;&gt;C2_0</title>
<path fill="none" stroke="black" d="M271.37,-183.46C291.79,-185.53 310.8,-181.84 310.8,-172.39 310.8,-164.57 297.76,-160.69 281.68,-160.77"/>
<polygon fill="black" stroke="black" points="281.16,-157.29 271.37,-161.32 281.54,-164.28 281.16,-157.29"/>
<text text-anchor="middle" x="328.8" y="-168.69" font-family="Times,serif" font-size="14.00">t9O2</text>
</g>
<!-- C2_1 -->
<g id="node4" class="node">
<title>C2_1</title>
<ellipse fill="white" stroke="black" cx="260" cy="-49.8" rx="33.6" ry="33.6"/>
<text text-anchor="middle" x="260" y="-46.1" font-family="Times,serif" font-size="14.00">C2_1</text>
</g>
<!-- C2_0&#45;&gt;C2_1 -->
<g id="edge5" class="edge">
<title>C2_0&#45;&gt;C2_1</title>
<path fill="none" stroke="black" d="M202.62,-152.66C184.06,-139.36 166.37,-120.56 177,-101.59 186.11,-85.33 202.79,-73.65 218.82,-65.62"/>
<polygon fill="black" stroke="black" points="220.52,-68.69 228.12,-61.31 217.57,-62.34 220.52,-68.69"/>
<text text-anchor="middle" x="195" y="-105.39" font-family="Times,serif" font-size="14.00">t5O2</text>
</g>
<!-- C2_0&#45;&gt;C2_1 -->
<g id="edge11" class="edge">
<title>C2_0&#45;&gt;C2_1</title>
<path fill="none" stroke="black" d="M229.42,-134.74C228.84,-123.93 229.28,-112.17 232,-101.59 233.22,-96.85 234.99,-92.07 237.06,-87.44"/>
<polygon fill="black" stroke="black" points="240.32,-88.73 241.63,-78.21 234.05,-85.62 240.32,-88.73"/>
<text text-anchor="middle" x="256.5" y="-105.39" font-family="Times,serif" font-size="14.00">t11O2l</text>
</g>
<!-- C2_1&#45;&gt;C2_0 -->
<g id="edge6" class="edge">
<title>C2_1&#45;&gt;C2_0</title>
<path fill="none" stroke="black" d="M279.53,-77.72C285.78,-89.64 289.95,-103.83 285,-116.59 281.75,-124.97 276.57,-132.84 270.74,-139.87"/>
<polygon fill="black" stroke="black" points="267.77,-137.94 263.68,-147.71 272.97,-142.62 267.77,-137.94"/>
<text text-anchor="middle" x="305" y="-105.39" font-family="Times,serif" font-size="14.00">t6O2</text>
</g>
<!-- C2_1&#45;&gt;C2_0 -->
<g id="edge12" class="edge">
<title>C2_1&#45;&gt;C2_0</title>
<path fill="none" stroke="black" d="M290.71,-64.12C313.67,-76.15 339.16,-95.19 327,-116.59 316.75,-134.62 297.97,-147.35 280.03,-155.96"/>
<polygon fill="black" stroke="black" points="278.48,-152.82 270.78,-160.1 281.33,-159.21 278.48,-152.82"/>
<text text-anchor="middle" x="359" y="-105.39" font-family="Times,serif" font-size="14.00">t12O2m</text>
</g>
<!-- C2_1&#45;&gt;C2_1 -->
<g id="edge8" class="edge">
<title>C2_1&#45;&gt;C2_1</title>
<path fill="none" stroke="black" d="M293.38,-55.23C303.7,-55.12 311.8,-53.31 311.8,-49.8 311.8,-47.55 308.47,-46 303.37,-45.14"/>
<polygon fill="black" stroke="black" points="303.62,-41.65 293.38,-44.36 303.08,-48.63 303.62,-41.65"/>
<text text-anchor="middle" x="323.8" y="-46.1" font-family="Times,serif" font-size="14.00">t8k</text>
</g>
<!-- C2_1&#45;&gt;C2_1 -->
<g id="edge10" class="edge">
<title>C2_1&#45;&gt;C2_1</title>
<path fill="none" stroke="black" d="M292.63,-59.81C314.24,-62.42 335.8,-59.09 335.8,-49.8 335.8,-41.96 320.45,-38.36 302.67,-38.99"/>
<polygon fill="black" stroke="black" points="302.32,-35.51 292.63,-39.78 302.87,-42.49 302.32,-35.51"/>
<text text-anchor="middle" x="358.3" y="-46.1" font-family="Times,serif" font-size="14.00">t10O2</text>
</g>
</g>
</svg>
