<?xml version="1.0" encoding="UTF-8" standalone="no"?>
<!DOCTYPE svg PUBLIC "-//W3C//DTD SVG 1.1//EN"
 "http://www.w3.org/Graphics/SVG/1.1/DTD/svg11.dtd">
<!-- Generated by graphviz version 2.43.0 (0)
 -->
<!-- Title: EXPinput/s2 Pages: 1 -->
<svg width="708pt" height="526pt"
 viewBox="0.00 0.00 707.51 526.00" xmlns="http://www.w3.org/2000/svg" xmlns:xlink="http://www.w3.org/1999/xlink">
<g id="graph0" class="graph" transform="scale(1 1) rotate(0) translate(4 522)">
<title>EXPinput/s2</title>
<polygon fill="white" stroke="transparent" points="-4,4 -4,-522 703.51,-522 703.51,4 -4,4"/>
<g id="clust1" class="cluster">
<title>cluster0</title>
<path fill="#eaffee" stroke="#eaffee" d="M157.51,-211C157.51,-211 248.51,-211 248.51,-211 254.51,-211 260.51,-217 260.51,-223 260.51,-223 260.51,-390 260.51,-390 260.51,-396 254.51,-402 248.51,-402 248.51,-402 157.51,-402 157.51,-402 151.51,-402 145.51,-396 145.51,-390 145.51,-390 145.51,-223 145.51,-223 145.51,-217 151.51,-211 157.51,-211"/>
<text text-anchor="middle" x="203.01" y="-386.8" font-family="Times,serif" font-size="14.00" fill="#b2ccbb">C0</text>
</g>
<g id="clust2" class="cluster">
<title>cluster1</title>
<path fill="#eaffee" stroke="#eaffee" d="M47.51,-319C47.51,-319 125.51,-319 125.51,-319 131.51,-319 137.51,-325 137.51,-331 137.51,-331 137.51,-498 137.51,-498 137.51,-504 131.51,-510 125.51,-510 125.51,-510 47.51,-510 47.51,-510 41.51,-510 35.51,-504 35.51,-498 35.51,-498 35.51,-331 35.51,-331 35.51,-325 41.51,-319 47.51,-319"/>
<text text-anchor="middle" x="86.51" y="-494.8" font-family="Times,serif" font-size="14.00" fill="#b2ccbb">C1</text>
</g>
<g id="clust3" class="cluster">
<title>cluster2</title>
<path fill="#eaffee" stroke="#eaffee" d="M370.51,-211C370.51,-211 462.51,-211 462.51,-211 468.51,-211 474.51,-217 474.51,-223 474.51,-223 474.51,-390 474.51,-390 474.51,-396 468.51,-402 462.51,-402 462.51,-402 370.51,-402 370.51,-402 364.51,-402 358.51,-396 358.51,-390 358.51,-390 358.51,-223 358.51,-223 358.51,-217 364.51,-211 370.51,-211"/>
<text text-anchor="middle" x="416.51" y="-386.8" font-family="Times,serif" font-size="14.00" fill="#b2ccbb">C2</text>
</g>
<g id="clust4" class="cluster">
<title>cluster3</title>
<path fill="#eaffee" stroke="#eaffee" d="M494.51,-319C494.51,-319 575.51,-319 575.51,-319 581.51,-319 587.51,-325 587.51,-331 587.51,-331 587.51,-498 587.51,-498 587.51,-504 581.51,-510 575.51,-510 575.51,-510 494.51,-510 494.51,-510 488.51,-510 482.51,-504 482.51,-498 482.51,-498 482.51,-331 482.51,-331 482.51,-325 488.51,-319 494.51,-319"/>
<text text-anchor="middle" x="535.01" y="-494.8" font-family="Times,serif" font-size="14.00" fill="#b2ccbb">C3</text>
</g>
<g id="clust5" class="cluster">
<title>cluster4</title>
<path fill="#eaffee" stroke="#eaffee" d="M160.51,-8C160.51,-8 241.51,-8 241.51,-8 247.51,-8 253.51,-14 253.51,-20 253.51,-20 253.51,-166 253.51,-166 253.51,-172 247.51,-178 241.51,-178 241.51,-178 160.51,-178 160.51,-178 154.51,-178 148.51,-172 148.51,-166 148.51,-166 148.51,-20 148.51,-20 148.51,-14 154.51,-8 160.51,-8"/>
<text text-anchor="middle" x="201.01" y="-162.8" font-family="Times,serif" font-size="14.00" fill="#b2ccbb">C4</text>
</g>
<g id="clust6" class="cluster">
<title>cluster5</title>
<path fill="#eaffee" stroke="#eaffee" d="M527.51,-211C527.51,-211 573.51,-211 573.51,-211 579.51,-211 585.51,-217 585.51,-223 585.51,-223 585.51,-274 585.51,-274 585.51,-280 579.51,-286 573.51,-286 573.51,-286 527.51,-286 527.51,-286 521.51,-286 515.51,-280 515.51,-274 515.51,-274 515.51,-223 515.51,-223 515.51,-217 521.51,-211 527.51,-211"/>
<text text-anchor="middle" x="550.51" y="-270.8" font-family="Times,serif" font-size="14.00" fill="#b2ccbb">C5</text>
</g>
<g id="clust7" class="cluster">
<title>cluster6</title>
<path fill="#eaffee" stroke="#eaffee" d="M376.51,-8C376.51,-8 454.51,-8 454.51,-8 460.51,-8 466.51,-14 466.51,-20 466.51,-20 466.51,-166 466.51,-166 466.51,-172 460.51,-178 454.51,-178 454.51,-178 376.51,-178 376.51,-178 370.51,-178 364.51,-172 364.51,-166 364.51,-166 364.51,-20 364.51,-20 364.51,-14 370.51,-8 376.51,-8"/>
<text text-anchor="middle" x="415.51" y="-162.8" font-family="Times,serif" font-size="14.00" fill="#b2ccbb">C6</text>
</g>
<g id="clust8" class="cluster">
<title>cluster7</title>
<path fill="#eaffee" stroke="#eaffee" d="M54.51,-211C54.51,-211 100.51,-211 100.51,-211 106.51,-211 112.51,-217 112.51,-223 112.51,-223 112.51,-274 112.51,-274 112.51,-280 106.51,-286 100.51,-286 100.51,-286 54.51,-286 54.51,-286 48.51,-286 42.51,-280 42.51,-274 42.51,-274 42.51,-223 42.51,-223 42.51,-217 48.51,-211 54.51,-211"/>
<text text-anchor="middle" x="77.51" y="-270.8" font-family="Times,serif" font-size="14.00" fill="#b2ccbb">C7</text>
</g>
<!-- C0S0 -->
<g id="node1" class="node">
<title>C0S0</title>
<polygon fill="white" stroke="black" points="211.51,-341.54 211.51,-356.46 195.7,-367 173.33,-367 157.51,-356.46 157.51,-341.54 173.33,-331 195.7,-331 211.51,-341.54"/>
<polygon fill="none" stroke="black" points="215.51,-339.4 215.51,-358.6 196.91,-371 172.12,-371 153.51,-358.6 153.51,-339.4 172.12,-327 196.91,-327 215.51,-339.4"/>
<text text-anchor="middle" x="184.51" y="-345.3" font-family="Times,serif" font-size="14.00">0</text>
</g>
<!-- C0S7 -->
<g id="node2" class="node">
<title>C0S7</title>
<polygon fill="white" stroke="black" points="245.51,-229.54 245.51,-244.46 229.7,-255 207.33,-255 191.51,-244.46 191.51,-229.54 207.33,-219 229.7,-219 245.51,-229.54"/>
<text text-anchor="middle" x="218.51" y="-233.3" font-family="Times,serif" font-size="14.00">7</text>
</g>
<!-- C0S0&#45;&gt;C0S7 -->
<g id="edge1" class="edge">
<title>C0S0&#45;&gt;C0S7</title>
<path fill="none" stroke="darkgray" d="M174.39,-326.88C170.91,-316.77 168.72,-304.58 172.51,-294 177.2,-280.91 186.4,-268.69 195.36,-259.03"/>
<polygon fill="darkgray" stroke="darkgray" points="197.89,-261.45 202.39,-251.86 192.89,-256.55 197.89,-261.45"/>
<text text-anchor="middle" x="184.51" y="-297.8" font-family="Times,serif" font-size="14.00" fill="darkgray">t3a</text>
</g>
<!-- C1S1 -->
<g id="node3" class="node">
<title>C1S1</title>
<polygon fill="white" stroke="black" points="129.51,-453.54 129.51,-468.46 113.7,-479 91.33,-479 75.51,-468.46 75.51,-453.54 91.33,-443 113.7,-443 129.51,-453.54"/>
<text text-anchor="middle" x="102.51" y="-457.3" font-family="Times,serif" font-size="14.00">1</text>
</g>
<!-- C0S0&#45;&gt;C1S1 -->
<g id="edge11" class="edge">
<title>C0S0&#45;&gt;C1S1</title>
<path fill="none" stroke="black" stroke-dasharray="5,2" d="M169.72,-369.85C156.09,-388.13 135.81,-415.33 121.09,-435.07"/>
<polygon fill="black" stroke="black" points="114.97,-443.29 117.34,-432.59 117.95,-439.28 120.94,-435.28 120.94,-435.28 120.94,-435.28 117.95,-439.28 124.55,-437.97 114.97,-443.29 114.97,-443.29"/>
<text text-anchor="middle" x="155.01" y="-413.8" font-family="Times,serif" font-size="14.00">O1 ε</text>
</g>
<!-- C0S7&#45;&gt;C0S0 -->
<g id="edge13" class="edge">
<title>C0S7&#45;&gt;C0S0</title>
<path fill="none" stroke="black" stroke-dasharray="5,2" d="M213.2,-255.17C208.09,-271.71 200.24,-297.11 194.05,-317.16"/>
<polygon fill="black" stroke="black" points="191.07,-326.79 189.72,-315.91 192.54,-322.01 194.02,-317.24 194.02,-317.24 194.02,-317.24 192.54,-322.01 198.32,-318.57 191.07,-326.79 191.07,-326.79"/>
<text text-anchor="middle" x="216.51" y="-297.8" font-family="Times,serif" font-size="14.00">O2 a</text>
</g>
<!-- C4S4 -->
<g id="node9" class="node">
<title>C4S4</title>
<polygon fill="white" stroke="black" points="241.51,-117.54 241.51,-132.46 225.7,-143 203.33,-143 187.51,-132.46 187.51,-117.54 203.33,-107 225.7,-107 241.51,-117.54"/>
<polygon fill="none" stroke="black" points="245.51,-115.4 245.51,-134.6 226.91,-147 202.12,-147 183.51,-134.6 183.51,-115.4 202.12,-103 226.91,-103 245.51,-115.4"/>
<text text-anchor="middle" x="214.51" y="-121.3" font-family="Times,serif" font-size="14.00">4</text>
</g>
<!-- C0S7&#45;&gt;C4S4 -->
<g id="edge12" class="edge">
<title>C0S7&#45;&gt;C4S4</title>
<path fill="none" stroke="black" stroke-dasharray="5,2" d="M217.89,-218.81C217.29,-202.42 216.38,-177.35 215.65,-157.39"/>
<polygon fill="black" stroke="black" points="215.28,-147.21 220.14,-157.04 215.47,-152.21 215.65,-157.2 215.65,-157.2 215.65,-157.2 215.47,-152.21 211.15,-157.37 215.28,-147.21 215.28,-147.21"/>
<text text-anchor="middle" x="235.51" y="-189.8" font-family="Times,serif" font-size="14.00">O2l a</text>
</g>
<!-- C1S6 -->
<g id="node4" class="node">
<title>C1S6</title>
<polygon fill="white" stroke="black" points="101.51,-341.54 101.51,-356.46 85.7,-367 63.33,-367 47.51,-356.46 47.51,-341.54 63.33,-331 85.7,-331 101.51,-341.54"/>
<polygon fill="none" stroke="black" points="105.51,-339.4 105.51,-358.6 86.91,-371 62.12,-371 43.51,-358.6 43.51,-339.4 62.12,-327 86.91,-327 105.51,-339.4"/>
<text text-anchor="middle" x="74.51" y="-345.3" font-family="Times,serif" font-size="14.00">6</text>
</g>
<!-- C1S1&#45;&gt;C1S6 -->
<g id="edge2" class="edge">
<title>C1S1&#45;&gt;C1S6</title>
<path fill="none" stroke="darkgray" d="M82.84,-448.17C74.97,-442.29 66.78,-434.41 62.51,-425 56.29,-411.28 58.01,-394.86 61.82,-380.89"/>
<polygon fill="darkgray" stroke="darkgray" points="65.2,-381.82 64.89,-371.23 58.53,-379.7 65.2,-381.82"/>
<text text-anchor="middle" x="72.51" y="-413.8" font-family="Times,serif" font-size="14.00" fill="darkgray">t7j</text>
</g>
<!-- C2S2 -->
<g id="node5" class="node">
<title>C2S2</title>
<polygon fill="white" stroke="black" points="441.51,-341.54 441.51,-356.46 425.7,-367 403.33,-367 387.51,-356.46 387.51,-341.54 403.33,-331 425.7,-331 441.51,-341.54"/>
<polygon fill="none" stroke="black" points="445.51,-339.4 445.51,-358.6 426.91,-371 402.12,-371 383.51,-358.6 383.51,-339.4 402.12,-327 426.91,-327 445.51,-339.4"/>
<text text-anchor="middle" x="414.51" y="-345.3" font-family="Times,serif" font-size="14.00">2</text>
</g>
<!-- C1S1&#45;&gt;C2S2 -->
<g id="edge14" class="edge">
<title>C1S1&#45;&gt;C2S2</title>
<path fill="none" stroke="black" stroke-dasharray="5,2" d="M123.96,-449.51C150.94,-436.46 195.89,-415.25 213.51,-410 235.5,-403.45 242.25,-407.56 264.51,-402 303.79,-392.19 347.38,-376.52 377.4,-364.94"/>
<polygon fill="black" stroke="black" points="387.04,-361.19 379.36,-369.01 382.38,-363 377.72,-364.82 377.72,-364.82 377.72,-364.82 382.38,-363 376.09,-360.62 387.04,-361.19 387.04,-361.19"/>
<text text-anchor="middle" x="257.51" y="-413.8" font-family="Times,serif" font-size="14.00">O2 (j(bj)*b)?</text>
</g>
<!-- C1S6&#45;&gt;C1S1 -->
<g id="edge3" class="edge">
<title>C1S6&#45;&gt;C1S1</title>
<path fill="none" stroke="darkgray" d="M79.91,-371.21C84.39,-388.8 90.78,-413.92 95.63,-432.95"/>
<polygon fill="darkgray" stroke="darkgray" points="92.28,-433.98 98.14,-442.81 99.06,-432.26 92.28,-433.98"/>
<text text-anchor="middle" x="105.01" y="-413.8" font-family="Times,serif" font-size="14.00" fill="darkgray">t4b</text>
</g>
<!-- C7S7 -->
<g id="node14" class="node">
<title>C7S7</title>
<polygon fill="white" stroke="black" points="104.51,-229.54 104.51,-244.46 88.7,-255 66.33,-255 50.51,-244.46 50.51,-229.54 66.33,-219 88.7,-219 104.51,-229.54"/>
<text text-anchor="middle" x="77.51" y="-233.3" font-family="Times,serif" font-size="14.00">7</text>
</g>
<!-- C1S6&#45;&gt;C7S7 -->
<g id="edge15" class="edge">
<title>C1S6&#45;&gt;C7S7</title>
<path fill="none" stroke="black" stroke-dasharray="5,2" d="M43.72,-339.19C19.61,-330.49 -8.2,-315.37 2.51,-294 11.64,-275.78 29.82,-261.98 46,-252.63"/>
<polygon fill="black" stroke="black" points="55.2,-247.64 48.55,-256.36 50.81,-250.03 46.41,-252.41 46.41,-252.41 46.41,-252.41 50.81,-250.03 44.27,-248.45 55.2,-247.64 55.2,-247.64"/>
<text text-anchor="middle" x="33.01" y="-297.8" font-family="Times,serif" font-size="14.00">O1 j(bj)*</text>
</g>
<!-- C2S5 -->
<g id="node6" class="node">
<title>C2S5</title>
<polygon fill="white" stroke="black" points="459.51,-229.54 459.51,-244.46 443.7,-255 421.33,-255 405.51,-244.46 405.51,-229.54 421.33,-219 443.7,-219 459.51,-229.54"/>
<text text-anchor="middle" x="432.51" y="-233.3" font-family="Times,serif" font-size="14.00">5</text>
</g>
<!-- C2S2&#45;&gt;C2S5 -->
<g id="edge4" class="edge">
<title>C2S2&#45;&gt;C2S5</title>
<path fill="none" stroke="darkgray" d="M396.52,-330.6C388.1,-320.3 380.85,-306.8 385.51,-294 390.31,-280.82 399.72,-268.59 408.86,-258.94"/>
<polygon fill="darkgray" stroke="darkgray" points="411.43,-261.32 416.05,-251.79 406.49,-256.36 411.43,-261.32"/>
<text text-anchor="middle" x="398.01" y="-297.8" font-family="Times,serif" font-size="14.00" fill="darkgray">t4b</text>
</g>
<!-- C3S3 -->
<g id="node7" class="node">
<title>C3S3</title>
<polygon fill="white" stroke="black" points="544.51,-453.54 544.51,-468.46 528.7,-479 506.33,-479 490.51,-468.46 490.51,-453.54 506.33,-443 528.7,-443 544.51,-453.54"/>
<text text-anchor="middle" x="517.51" y="-457.3" font-family="Times,serif" font-size="14.00">3</text>
</g>
<!-- C2S2&#45;&gt;C3S3 -->
<g id="edge16" class="edge">
<title>C2S2&#45;&gt;C3S3</title>
<path fill="none" stroke="black" stroke-dasharray="5,2" d="M427.56,-370.68C438.09,-386.5 453.84,-408.35 470.51,-425 476.48,-430.96 483.52,-436.74 490.31,-441.82"/>
<polygon fill="black" stroke="black" points="498.67,-447.85 487.93,-445.65 494.61,-444.92 490.56,-442 490.56,-442 490.56,-442 494.61,-444.92 493.19,-438.35 498.67,-447.85 498.67,-447.85"/>
<text text-anchor="middle" x="487.01" y="-413.8" font-family="Times,serif" font-size="14.00">O1 ε</text>
</g>
<!-- C2S5&#45;&gt;C2S2 -->
<g id="edge18" class="edge">
<title>C2S5&#45;&gt;C2S2</title>
<path fill="none" stroke="black" stroke-dasharray="5,2" d="M429.7,-255.17C427.01,-271.64 422.88,-296.87 419.6,-316.88"/>
<polygon fill="black" stroke="black" points="417.98,-326.79 415.16,-316.2 418.79,-321.86 419.6,-316.92 419.6,-316.92 419.6,-316.92 418.79,-321.86 424.04,-317.65 417.98,-326.79 417.98,-326.79"/>
<text text-anchor="middle" x="439.51" y="-297.8" font-family="Times,serif" font-size="14.00">O2 b</text>
</g>
<!-- C6S6 -->
<g id="node12" class="node">
<title>C6S6</title>
<polygon fill="white" stroke="black" points="454.51,-117.54 454.51,-132.46 438.7,-143 416.33,-143 400.51,-132.46 400.51,-117.54 416.33,-107 438.7,-107 454.51,-117.54"/>
<polygon fill="none" stroke="black" points="458.51,-115.4 458.51,-134.6 439.91,-147 415.12,-147 396.51,-134.6 396.51,-115.4 415.12,-103 439.91,-103 458.51,-115.4"/>
<text text-anchor="middle" x="427.51" y="-121.3" font-family="Times,serif" font-size="14.00">6</text>
</g>
<!-- C2S5&#45;&gt;C6S6 -->
<g id="edge17" class="edge">
<title>C2S5&#45;&gt;C6S6</title>
<path fill="none" stroke="black" stroke-dasharray="5,2" d="M448.1,-221.8C453.42,-215.94 458.73,-208.72 461.51,-201 463.77,-194.73 463.21,-192.45 461.51,-186 458.62,-175.03 453.21,-163.97 447.55,-154.38"/>
<polygon fill="black" stroke="black" points="442.11,-145.69 451.23,-151.78 444.76,-149.93 447.42,-154.16 447.42,-154.16 447.42,-154.16 444.76,-149.93 443.6,-156.55 442.11,-145.69 442.11,-145.69"/>
<text text-anchor="middle" x="486.51" y="-189.8" font-family="Times,serif" font-size="14.00">O2m b</text>
</g>
<!-- C3S3&#45;&gt;C0S0 -->
<g id="edge19" class="edge">
<title>C3S3&#45;&gt;C0S0</title>
<path fill="none" stroke="black" stroke-dasharray="5,2" d="M490.27,-455.56C458.45,-450.02 404.44,-439.46 359.51,-425 309.33,-408.84 253.74,-383.7 218.97,-367.05"/>
<polygon fill="black" stroke="black" points="209.73,-362.59 220.7,-362.89 214.24,-364.76 218.74,-366.94 218.74,-366.94 218.74,-366.94 214.24,-364.76 216.78,-370.99 209.73,-362.59 209.73,-362.59"/>
<text text-anchor="middle" x="406.51" y="-413.8" font-family="Times,serif" font-size="14.00">O2 (k(ak)*a)?</text>
</g>
<!-- C3S4 -->
<g id="node8" class="node">
<title>C3S4</title>
<polygon fill="white" stroke="black" points="575.51,-341.54 575.51,-356.46 559.7,-367 537.33,-367 521.51,-356.46 521.51,-341.54 537.33,-331 559.7,-331 575.51,-341.54"/>
<polygon fill="none" stroke="black" points="579.51,-339.4 579.51,-358.6 560.91,-371 536.12,-371 517.51,-358.6 517.51,-339.4 536.12,-327 560.91,-327 579.51,-339.4"/>
<text text-anchor="middle" x="548.51" y="-345.3" font-family="Times,serif" font-size="14.00">4</text>
</g>
<!-- C3S3&#45;&gt;C3S4 -->
<g id="edge5" class="edge">
<title>C3S3&#45;&gt;C3S4</title>
<path fill="none" stroke="darkgray" d="M510.98,-442.63C508.25,-432.9 506.36,-420.62 509.51,-410 513.01,-398.21 519.63,-386.56 526.44,-376.72"/>
<polygon fill="darkgray" stroke="darkgray" points="529.33,-378.7 532.4,-368.56 523.67,-374.57 529.33,-378.7"/>
<text text-anchor="middle" x="521.51" y="-413.8" font-family="Times,serif" font-size="14.00" fill="darkgray">t8k</text>
</g>
<!-- C3S4&#45;&gt;C3S3 -->
<g id="edge6" class="edge">
<title>C3S4&#45;&gt;C3S3</title>
<path fill="none" stroke="darkgray" d="M545.64,-371.02C543.24,-386.24 539.28,-407.19 533.51,-425 532.61,-427.8 531.54,-430.67 530.39,-433.51"/>
<polygon fill="darkgray" stroke="darkgray" points="527.1,-432.3 526.3,-442.87 533.51,-435.11 527.1,-432.3"/>
<text text-anchor="middle" x="549.51" y="-413.8" font-family="Times,serif" font-size="14.00" fill="darkgray">t3a</text>
</g>
<!-- C5S5 -->
<g id="node11" class="node">
<title>C5S5</title>
<polygon fill="white" stroke="black" points="577.51,-229.54 577.51,-244.46 561.7,-255 539.33,-255 523.51,-244.46 523.51,-229.54 539.33,-219 561.7,-219 577.51,-229.54"/>
<text text-anchor="middle" x="550.51" y="-233.3" font-family="Times,serif" font-size="14.00">5</text>
</g>
<!-- C3S4&#45;&gt;C5S5 -->
<g id="edge20" class="edge">
<title>C3S4&#45;&gt;C5S5</title>
<path fill="none" stroke="black" stroke-dasharray="5,2" d="M548.9,-326.79C549.22,-309.28 549.67,-284.3 550.02,-265.3"/>
<polygon fill="black" stroke="black" points="550.2,-255.17 554.52,-265.25 550.11,-260.17 550.02,-265.17 550.02,-265.17 550.02,-265.17 550.11,-260.17 545.52,-265.09 550.2,-255.17 550.2,-255.17"/>
<text text-anchor="middle" x="582.01" y="-297.8" font-family="Times,serif" font-size="14.00">O1 k(ak)*</text>
</g>
<!-- C4S3 -->
<g id="node10" class="node">
<title>C4S3</title>
<polygon fill="white" stroke="black" points="210.51,-26.54 210.51,-41.46 194.7,-52 172.33,-52 156.51,-41.46 156.51,-26.54 172.33,-16 194.7,-16 210.51,-26.54"/>
<text text-anchor="middle" x="183.51" y="-30.3" font-family="Times,serif" font-size="14.00">3</text>
</g>
<!-- C4S4&#45;&gt;C4S3 -->
<g id="edge7" class="edge">
<title>C4S4&#45;&gt;C4S3</title>
<path fill="none" stroke="darkgray" d="M193.21,-108.44C186.2,-102.05 179.25,-94.02 175.51,-85 172.55,-77.85 172.57,-69.71 173.87,-62.1"/>
<polygon fill="darkgray" stroke="darkgray" points="177.32,-62.75 176.28,-52.2 170.52,-61.09 177.32,-62.75"/>
<text text-anchor="middle" x="187.51" y="-73.8" font-family="Times,serif" font-size="14.00" fill="darkgray">t3a</text>
</g>
<!-- C4S4&#45;&gt;C5S5 -->
<g id="edge21" class="edge">
<title>C4S4&#45;&gt;C5S5</title>
<path fill="none" stroke="black" stroke-dasharray="5,2" d="M240.76,-137.97C269.49,-150.45 317.24,-169.36 360.51,-178 394.12,-184.71 484.43,-169.59 514.51,-186 524.37,-191.38 532.2,-200.76 538,-209.95"/>
<polygon fill="black" stroke="black" points="543.13,-218.92 534.26,-212.47 540.65,-214.58 538.17,-210.24 538.17,-210.24 538.17,-210.24 540.65,-214.58 542.08,-208.01 543.13,-218.92 543.13,-218.92"/>
<text text-anchor="middle" x="577.51" y="-189.8" font-family="Times,serif" font-size="14.00">O1 (a(ka)*k)?</text>
</g>
<!-- C4S3&#45;&gt;C0S0 -->
<g id="edge22" class="edge">
<title>C4S3&#45;&gt;C0S0</title>
<path fill="none" stroke="black" stroke-dasharray="5,2" d="M175.3,-52.18C172.86,-57.77 170.35,-64.06 168.51,-70 162.71,-88.74 140.72,-151.27 145.51,-201 150.2,-249.67 151.49,-262.47 166.51,-309 167.41,-311.79 168.46,-314.65 169.6,-317.49"/>
<polygon fill="black" stroke="black" points="173.66,-326.91 165.57,-319.51 171.68,-322.32 169.7,-317.73 169.7,-317.73 169.7,-317.73 171.68,-322.32 173.83,-315.95 173.66,-326.91 173.66,-326.91"/>
<text text-anchor="middle" x="179.01" y="-189.8" font-family="Times,serif" font-size="14.00">O2 a(ka)*</text>
</g>
<!-- C4S3&#45;&gt;C4S4 -->
<g id="edge8" class="edge">
<title>C4S3&#45;&gt;C4S4</title>
<path fill="none" stroke="darkgray" d="M192.04,-52.22C194.63,-57.81 197.36,-64.1 199.51,-70 202.23,-77.44 204.73,-85.6 206.88,-93.28"/>
<polygon fill="darkgray" stroke="darkgray" points="203.52,-94.24 209.5,-102.99 210.28,-92.42 203.52,-94.24"/>
<text text-anchor="middle" x="215.51" y="-73.8" font-family="Times,serif" font-size="14.00" fill="darkgray">t8k</text>
</g>
<!-- C5S5&#45;&gt;C2S2 -->
<g id="edge24" class="edge">
<title>C5S5&#45;&gt;C2S2</title>
<path fill="none" stroke="black" stroke-dasharray="5,2" d="M533.79,-251.52C511.07,-269.9 470.14,-303.01 442.65,-325.25"/>
<polygon fill="black" stroke="black" points="434.58,-331.77 439.52,-321.98 438.47,-328.62 442.35,-325.48 442.35,-325.48 442.35,-325.48 438.47,-328.62 445.18,-328.98 434.58,-331.77 434.58,-331.77"/>
<text text-anchor="middle" x="494.01" y="-297.8" font-family="Times,serif" font-size="14.00">O2 ε</text>
</g>
<!-- C5S5&#45;&gt;C6S6 -->
<g id="edge23" class="edge">
<title>C5S5&#45;&gt;C6S6</title>
<path fill="none" stroke="black" stroke-dasharray="5,2" d="M577.68,-232.58C613.71,-226.91 670.46,-213.37 649.51,-186 627.65,-157.44 526.59,-139.36 468.64,-131.16"/>
<polygon fill="black" stroke="black" points="458.7,-129.78 469.22,-126.69 463.65,-130.47 468.6,-131.15 468.6,-131.15 468.6,-131.15 463.65,-130.47 467.99,-135.61 458.7,-129.78 458.7,-129.78"/>
<text text-anchor="middle" x="676.51" y="-189.8" font-family="Times,serif" font-size="14.00">O2m ε</text>
</g>
<!-- C6S1 -->
<g id="node13" class="node">
<title>C6S1</title>
<polygon fill="white" stroke="black" points="426.51,-26.54 426.51,-41.46 410.7,-52 388.33,-52 372.51,-41.46 372.51,-26.54 388.33,-16 410.7,-16 426.51,-26.54"/>
<text text-anchor="middle" x="399.51" y="-30.3" font-family="Times,serif" font-size="14.00">1</text>
</g>
<!-- C6S6&#45;&gt;C6S1 -->
<g id="edge9" class="edge">
<title>C6S6&#45;&gt;C6S1</title>
<path fill="none" stroke="darkgray" d="M407.44,-107.76C401.09,-101.41 394.87,-93.58 391.51,-85 388.7,-77.8 388.76,-69.64 390.06,-62.03"/>
<polygon fill="darkgray" stroke="darkgray" points="393.5,-62.68 392.44,-52.14 386.7,-61.04 393.5,-62.68"/>
<text text-anchor="middle" x="404.01" y="-73.8" font-family="Times,serif" font-size="14.00" fill="darkgray">t4b</text>
</g>
<!-- C6S6&#45;&gt;C7S7 -->
<g id="edge25" class="edge">
<title>C6S6&#45;&gt;C7S7</title>
<path fill="none" stroke="black" stroke-dasharray="5,2" d="M410.1,-144.26C389.73,-165.42 357.83,-197.82 350.51,-201 307.87,-219.54 186.99,-201.3 141.51,-211 130.37,-213.38 118.64,-217.46 108.3,-221.64"/>
<polygon fill="black" stroke="black" points="98.89,-225.63 106.34,-217.59 103.49,-223.68 108.1,-221.73 108.1,-221.73 108.1,-221.73 103.49,-223.68 109.85,-225.87 98.89,-225.63 98.89,-225.63"/>
<text text-anchor="middle" x="411.51" y="-189.8" font-family="Times,serif" font-size="14.00">O1 (b(jb)*j)?</text>
</g>
<!-- C6S1&#45;&gt;C2S2 -->
<g id="edge26" class="edge">
<title>C6S1&#45;&gt;C2S2</title>
<path fill="none" stroke="black" stroke-dasharray="5,2" d="M380.21,-46.64C340.7,-72.1 256.34,-135.67 281.51,-201 302.18,-254.66 352.52,-300.89 385,-326.53"/>
<polygon fill="black" stroke="black" points="393.24,-332.9 382.58,-330.35 389.29,-329.85 385.33,-326.79 385.33,-326.79 385.33,-326.79 389.29,-329.85 388.08,-323.23 393.24,-332.9 393.24,-332.9"/>
<text text-anchor="middle" x="314.01" y="-189.8" font-family="Times,serif" font-size="14.00">O2 b(jb)*</text>
</g>
<!-- C6S1&#45;&gt;C6S6 -->
<g id="edge10" class="edge">
<title>C6S1&#45;&gt;C6S6</title>
<path fill="none" stroke="darkgray" d="M408.87,-52.08C411.64,-57.67 414.48,-63.99 416.51,-70 418.98,-77.29 420.98,-85.33 422.57,-92.93"/>
<polygon fill="darkgray" stroke="darkgray" points="419.16,-93.74 424.48,-102.91 426.04,-92.43 419.16,-93.74"/>
<text text-anchor="middle" x="430.51" y="-73.8" font-family="Times,serif" font-size="14.00" fill="darkgray">t7j</text>
</g>
<!-- C7S7&#45;&gt;C0S0 -->
<g id="edge28" class="edge">
<title>C7S7&#45;&gt;C0S0</title>
<path fill="none" stroke="black" stroke-dasharray="5,2" d="M74.49,-255.29C72.75,-271.34 73.09,-294.84 86.51,-309 103.6,-327.03 118.5,-309.63 141.51,-319 146.39,-320.99 151.29,-323.58 155.93,-326.4"/>
<polygon fill="black" stroke="black" points="164.5,-332 153.67,-330.29 160.31,-329.26 156.13,-326.52 156.13,-326.52 156.13,-326.52 160.31,-329.26 158.59,-322.76 164.5,-332 164.5,-332"/>
<text text-anchor="middle" x="103.01" y="-297.8" font-family="Times,serif" font-size="14.00">O2 ε</text>
</g>
<!-- C7S7&#45;&gt;C4S4 -->
<g id="edge27" class="edge">
<title>C7S7&#45;&gt;C4S4</title>
<path fill="none" stroke="black" stroke-dasharray="5,2" d="M71.63,-218.92C69.19,-208.58 68.19,-195.58 74.51,-186 96.25,-153.03 140.27,-138.11 173.18,-131.4"/>
<polygon fill="black" stroke="black" points="183.43,-129.5 174.42,-135.75 178.51,-130.41 173.59,-131.32 173.59,-131.32 173.59,-131.32 178.51,-130.41 172.77,-126.9 183.43,-129.5 183.43,-129.5"/>
<text text-anchor="middle" x="93.01" y="-189.8" font-family="Times,serif" font-size="14.00">O2l ε</text>
</g>
</g>
</svg>
