<?xml version="1.0" encoding="UTF-8" standalone="no"?>
<!DOCTYPE svg PUBLIC "-//W3C//DTD SVG 1.1//EN"
 "http://www.w3.org/Graphics/SVG/1.1/DTD/svg11.dtd">
<!-- Generated by graphviz version 2.43.0 (0)
 -->
<!-- Title: EXPinput/s2 Pages: 1 -->
<svg width="896pt" height="424pt"
 viewBox="0.00 0.00 895.67 424.00" xmlns="http://www.w3.org/2000/svg" xmlns:xlink="http://www.w3.org/1999/xlink">
<g id="graph0" class="graph" transform="scale(1 1) rotate(0) translate(4 420)">
<title>EXPinput/s2</title>
<polygon fill="white" stroke="transparent" points="-4,4 -4,-420 891.67,-420 891.67,4 -4,4"/>
<g id="clust1" class="cluster">
<title>cluster1</title>
<path fill="#eaffee" stroke="#eaffee" d="M183.67,-182C183.67,-182 292.67,-182 292.67,-182 298.67,-182 304.67,-188 304.67,-194 304.67,-194 304.67,-309 304.67,-309 304.67,-315 298.67,-321 292.67,-321 292.67,-321 183.67,-321 183.67,-321 177.67,-321 171.67,-315 171.67,-309 171.67,-309 171.67,-194 171.67,-194 171.67,-188 177.67,-182 183.67,-182"/>
</g>
<g id="clust2" class="cluster">
<title>cluster2</title>
<path fill="#eaffee" stroke="#eaffee" d="M48.67,-269C48.67,-269 151.67,-269 151.67,-269 157.67,-269 163.67,-275 163.67,-281 163.67,-281 163.67,-396 163.67,-396 163.67,-402 157.67,-408 151.67,-408 151.67,-408 48.67,-408 48.67,-408 42.67,-408 36.67,-402 36.67,-396 36.67,-396 36.67,-281 36.67,-281 36.67,-275 42.67,-269 48.67,-269"/>
</g>
<g id="clust3" class="cluster">
<title>cluster3</title>
<path fill="#eaffee" stroke="#eaffee" d="M491.67,-182C491.67,-182 600.67,-182 600.67,-182 606.67,-182 612.67,-188 612.67,-194 612.67,-194 612.67,-309 612.67,-309 612.67,-315 606.67,-321 600.67,-321 600.67,-321 491.67,-321 491.67,-321 485.67,-321 479.67,-315 479.67,-309 479.67,-309 479.67,-194 479.67,-194 479.67,-188 485.67,-182 491.67,-182"/>
</g>
<g id="clust4" class="cluster">
<title>cluster4</title>
<path fill="#eaffee" stroke="#eaffee" d="M632.67,-269C632.67,-269 735.67,-269 735.67,-269 741.67,-269 747.67,-275 747.67,-281 747.67,-281 747.67,-396 747.67,-396 747.67,-402 741.67,-408 735.67,-408 735.67,-408 632.67,-408 632.67,-408 626.67,-408 620.67,-402 620.67,-396 620.67,-396 620.67,-281 620.67,-281 620.67,-275 626.67,-269 632.67,-269"/>
</g>
<g id="clust5" class="cluster">
<title>cluster5</title>
<path fill="#eaffee" stroke="#eaffee" d="M193.67,-8C193.67,-8 296.67,-8 296.67,-8 302.67,-8 308.67,-14 308.67,-20 308.67,-20 308.67,-135 308.67,-135 308.67,-141 302.67,-147 296.67,-147 296.67,-147 193.67,-147 193.67,-147 187.67,-147 181.67,-141 181.67,-135 181.67,-135 181.67,-20 181.67,-20 181.67,-14 187.67,-8 193.67,-8"/>
</g>
<g id="clust6" class="cluster">
<title>cluster6</title>
<path fill="#eaffee" stroke="#eaffee" d="M671.67,-182C671.67,-182 735.67,-182 735.67,-182 741.67,-182 747.67,-188 747.67,-194 747.67,-194 747.67,-222 747.67,-222 747.67,-228 741.67,-234 735.67,-234 735.67,-234 671.67,-234 671.67,-234 665.67,-234 659.67,-228 659.67,-222 659.67,-222 659.67,-194 659.67,-194 659.67,-188 665.67,-182 671.67,-182"/>
</g>
<g id="clust7" class="cluster">
<title>cluster7</title>
<path fill="#eaffee" stroke="#eaffee" d="M475.67,-8C475.67,-8 578.67,-8 578.67,-8 584.67,-8 590.67,-14 590.67,-20 590.67,-20 590.67,-135 590.67,-135 590.67,-141 584.67,-147 578.67,-147 578.67,-147 475.67,-147 475.67,-147 469.67,-147 463.67,-141 463.67,-135 463.67,-135 463.67,-20 463.67,-20 463.67,-14 469.67,-8 475.67,-8"/>
</g>
<g id="clust8" class="cluster">
<title>cluster8</title>
<path fill="#eaffee" stroke="#eaffee" d="M62.67,-182C62.67,-182 126.67,-182 126.67,-182 132.67,-182 138.67,-188 138.67,-194 138.67,-194 138.67,-222 138.67,-222 138.67,-228 132.67,-234 126.67,-234 126.67,-234 62.67,-234 62.67,-234 56.67,-234 50.67,-228 50.67,-222 50.67,-222 50.67,-194 50.67,-194 50.67,-188 56.67,-182 62.67,-182"/>
</g>
<!-- C1S0 -->
<g id="node1" class="node">
<title>C1S0</title>
<ellipse fill="white" stroke="black" cx="215.67" cy="-295" rx="36" ry="18"/>
<text text-anchor="middle" x="215.67" y="-291.3" font-family="Times,serif" font-size="14.00">C1S0</text>
</g>
<!-- C1S7 -->
<g id="node2" class="node">
<title>C1S7</title>
<ellipse fill="white" stroke="black" cx="255.67" cy="-208" rx="36" ry="18"/>
<text text-anchor="middle" x="255.67" y="-204.3" font-family="Times,serif" font-size="14.00">C1S7</text>
</g>
<!-- C1S0&#45;&gt;C1S7 -->
<g id="edge1" class="edge">
<title>C1S0&#45;&gt;C1S7</title>
<path fill="none" stroke="darkgray" d="M203.41,-277.61C197.46,-267.53 192.76,-254.56 198.67,-244 203.29,-235.74 210.75,-229.19 218.76,-224.1"/>
<polygon fill="darkgray" stroke="darkgray" points="220.58,-227.09 227.58,-219.14 217.15,-220.99 220.58,-227.09"/>
<text text-anchor="middle" x="216.17" y="-247.8" font-family="Times,serif" font-size="14.00" fill="darkgray">t3R1</text>
</g>
<!-- C2S1 -->
<g id="node3" class="node">
<title>C2S1</title>
<ellipse fill="white" stroke="black" cx="119.67" cy="-382" rx="36" ry="18"/>
<text text-anchor="middle" x="119.67" y="-378.3" font-family="Times,serif" font-size="14.00">C2S1</text>
</g>
<!-- C1S0&#45;&gt;C2S1 -->
<g id="edge11" class="edge">
<title>C1S0&#45;&gt;C2S1</title>
<path fill="none" stroke="black" stroke-dasharray="5,2" d="M198.65,-311.06C183.68,-324.32 161.69,-343.79 144.71,-358.83"/>
<polygon fill="black" stroke="black" points="136.83,-365.8 141.33,-355.81 140.57,-362.49 144.32,-359.17 144.32,-359.17 144.32,-359.17 140.57,-362.49 147.3,-362.54 136.83,-365.8 136.83,-365.8"/>
<text text-anchor="middle" x="189.17" y="-334.8" font-family="Times,serif" font-size="14.00">O1 ε</text>
</g>
<!-- C1S7&#45;&gt;C1S0 -->
<g id="edge13" class="edge">
<title>C1S7&#45;&gt;C1S0</title>
<path fill="none" stroke="black" stroke-dasharray="5,2" d="M248.58,-225.78C244.39,-235.54 238.89,-248.04 233.67,-259 232.23,-262.02 230.68,-265.17 229.11,-268.28"/>
<polygon fill="black" stroke="black" points="224.48,-277.37 225.02,-266.42 226.75,-272.91 229.02,-268.46 229.02,-268.46 229.02,-268.46 226.75,-272.91 233.03,-270.51 224.48,-277.37 224.48,-277.37"/>
<text text-anchor="middle" x="260.17" y="-247.8" font-family="Times,serif" font-size="14.00">O2 r1</text>
</g>
<!-- C5S4 -->
<g id="node9" class="node">
<title>C5S4</title>
<ellipse fill="white" stroke="black" cx="264.67" cy="-121" rx="36" ry="18"/>
<text text-anchor="middle" x="264.67" y="-117.3" font-family="Times,serif" font-size="14.00">C5S4</text>
</g>
<!-- C1S7&#45;&gt;C5S4 -->
<g id="edge12" class="edge">
<title>C1S7&#45;&gt;C5S4</title>
<path fill="none" stroke="black" stroke-dasharray="5,2" d="M257.49,-189.8C258.72,-178.16 260.37,-162.55 261.78,-149.24"/>
<polygon fill="black" stroke="black" points="262.85,-139.18 266.27,-149.59 262.32,-144.15 261.79,-149.12 261.79,-149.12 261.79,-149.12 262.32,-144.15 257.32,-148.65 262.85,-139.18 262.85,-139.18"/>
<text text-anchor="middle" x="291.17" y="-160.8" font-family="Times,serif" font-size="14.00">O2R5 r1</text>
</g>
<!-- C2S6 -->
<g id="node4" class="node">
<title>C2S6</title>
<ellipse fill="white" stroke="black" cx="80.67" cy="-295" rx="36" ry="18"/>
<text text-anchor="middle" x="80.67" y="-291.3" font-family="Times,serif" font-size="14.00">C2S6</text>
</g>
<!-- C2S1&#45;&gt;C2S6 -->
<g id="edge2" class="edge">
<title>C2S1&#45;&gt;C2S6</title>
<path fill="none" stroke="darkgray" d="M91.76,-370.6C80.98,-365.04 69.78,-357.03 63.67,-346 59.45,-338.39 60.69,-329.56 63.93,-321.45"/>
<polygon fill="darkgray" stroke="darkgray" points="67.12,-322.89 68.43,-312.38 60.85,-319.78 67.12,-322.89"/>
<text text-anchor="middle" x="81.17" y="-334.8" font-family="Times,serif" font-size="14.00" fill="darkgray">t7R3</text>
</g>
<!-- C3S2 -->
<g id="node5" class="node">
<title>C3S2</title>
<ellipse fill="white" stroke="black" cx="540.67" cy="-295" rx="36" ry="18"/>
<text text-anchor="middle" x="540.67" y="-291.3" font-family="Times,serif" font-size="14.00">C3S2</text>
</g>
<!-- C2S1&#45;&gt;C3S2 -->
<g id="edge14" class="edge">
<title>C2S1&#45;&gt;C3S2</title>
<path fill="none" stroke="black" stroke-dasharray="5,2" d="M147.16,-370.33C184.53,-355.84 247.04,-331.65 249.67,-331 272.98,-325.21 420.28,-308.91 495.94,-300.76"/>
<polygon fill="black" stroke="black" points="506.12,-299.67 496.65,-305.21 501.14,-300.2 496.17,-300.74 496.17,-300.74 496.17,-300.74 501.14,-300.2 495.69,-296.26 506.12,-299.67 506.12,-299.67"/>
<text text-anchor="middle" x="311.67" y="-334.8" font-family="Times,serif" font-size="14.00">O2 (r3(r2r3)*r2)?</text>
</g>
<!-- C2S6&#45;&gt;C2S1 -->
<g id="edge3" class="edge">
<title>C2S6&#45;&gt;C2S1</title>
<path fill="none" stroke="darkgray" d="M89.54,-312.6C92.54,-318.38 95.84,-324.93 98.67,-331 102.25,-338.68 105.91,-347.14 109.14,-354.88"/>
<polygon fill="darkgray" stroke="darkgray" points="105.94,-356.28 112.99,-364.19 112.41,-353.61 105.94,-356.28"/>
<text text-anchor="middle" x="122.17" y="-334.8" font-family="Times,serif" font-size="14.00" fill="darkgray">t4R2</text>
</g>
<!-- C8S7 -->
<g id="node14" class="node">
<title>C8S7</title>
<ellipse fill="white" stroke="black" cx="94.67" cy="-208" rx="36" ry="18"/>
<text text-anchor="middle" x="94.67" y="-204.3" font-family="Times,serif" font-size="14.00">C8S7</text>
</g>
<!-- C2S6&#45;&gt;C8S7 -->
<g id="edge15" class="edge">
<title>C2S6&#45;&gt;C8S7</title>
<path fill="none" stroke="black" stroke-dasharray="5,2" d="M48.93,-286.68C21.87,-278.85 -10.55,-264.69 3.67,-244 14.16,-228.72 32.33,-220.11 49.68,-215.26"/>
<polygon fill="black" stroke="black" points="59.74,-212.81 51.09,-219.55 54.89,-213.99 50.03,-215.17 50.03,-215.17 50.03,-215.17 54.89,-213.99 48.96,-210.8 59.74,-212.81 59.74,-212.81"/>
<text text-anchor="middle" x="48.67" y="-247.8" font-family="Times,serif" font-size="14.00">O1 r3(r2r3)*</text>
</g>
<!-- C3S5 -->
<g id="node6" class="node">
<title>C3S5</title>
<ellipse fill="white" stroke="black" cx="563.67" cy="-208" rx="36" ry="18"/>
<text text-anchor="middle" x="563.67" y="-204.3" font-family="Times,serif" font-size="14.00">C3S5</text>
</g>
<!-- C3S2&#45;&gt;C3S5 -->
<g id="edge4" class="edge">
<title>C3S2&#45;&gt;C3S5</title>
<path fill="none" stroke="darkgray" d="M520.66,-279.55C509.73,-269.79 499.7,-256.46 506.67,-244 511.29,-235.74 518.75,-229.19 526.76,-224.1"/>
<polygon fill="darkgray" stroke="darkgray" points="528.58,-227.09 535.58,-219.14 525.15,-220.99 528.58,-227.09"/>
<text text-anchor="middle" x="524.17" y="-247.8" font-family="Times,serif" font-size="14.00" fill="darkgray">t4R2</text>
</g>
<!-- C4S3 -->
<g id="node7" class="node">
<title>C4S3</title>
<ellipse fill="white" stroke="black" cx="664.67" cy="-382" rx="36" ry="18"/>
<text text-anchor="middle" x="664.67" y="-378.3" font-family="Times,serif" font-size="14.00">C4S3</text>
</g>
<!-- C3S2&#45;&gt;C4S3 -->
<g id="edge16" class="edge">
<title>C3S2&#45;&gt;C4S3</title>
<path fill="none" stroke="black" stroke-dasharray="5,2" d="M559.11,-310.47C572.39,-320.71 590.85,-334.6 607.67,-346 615.94,-351.61 625.1,-357.41 633.6,-362.63"/>
<polygon fill="black" stroke="black" points="642.17,-367.83 631.29,-366.49 637.9,-365.23 633.62,-362.64 633.62,-362.64 633.62,-362.64 637.9,-365.23 635.96,-358.79 642.17,-367.83 642.17,-367.83"/>
<text text-anchor="middle" x="624.17" y="-334.8" font-family="Times,serif" font-size="14.00">O1 ε</text>
</g>
<!-- C3S5&#45;&gt;C3S2 -->
<g id="edge18" class="edge">
<title>C3S5&#45;&gt;C3S2</title>
<path fill="none" stroke="black" stroke-dasharray="5,2" d="M559.1,-225.89C555.92,-237.64 551.61,-253.57 547.96,-267.06"/>
<polygon fill="black" stroke="black" points="545.32,-276.8 543.59,-265.97 546.63,-271.97 547.93,-267.15 547.93,-267.15 547.93,-267.15 546.63,-271.97 552.28,-268.32 545.32,-276.8 545.32,-276.8"/>
<text text-anchor="middle" x="573.17" y="-247.8" font-family="Times,serif" font-size="14.00">O2 r2</text>
</g>
<!-- C7S6 -->
<g id="node12" class="node">
<title>C7S6</title>
<ellipse fill="white" stroke="black" cx="546.67" cy="-121" rx="36" ry="18"/>
<text text-anchor="middle" x="546.67" y="-117.3" font-family="Times,serif" font-size="14.00">C7S6</text>
</g>
<!-- C3S5&#45;&gt;C7S6 -->
<g id="edge17" class="edge">
<title>C3S5&#45;&gt;C7S6</title>
<path fill="none" stroke="black" stroke-dasharray="5,2" d="M583.99,-192.73C595.14,-183.04 605.44,-169.72 598.67,-157 594.78,-149.71 588.63,-143.66 581.89,-138.76"/>
<polygon fill="black" stroke="black" points="573.17,-133.17 584.02,-134.78 577.38,-135.87 581.59,-138.57 581.59,-138.57 581.59,-138.57 577.38,-135.87 579.16,-142.35 573.17,-133.17 573.17,-133.17"/>
<text text-anchor="middle" x="631.17" y="-160.8" font-family="Times,serif" font-size="14.00">O2R6 r2</text>
</g>
<!-- C4S3&#45;&gt;C1S0 -->
<g id="edge19" class="edge">
<title>C4S3&#45;&gt;C1S0</title>
<path fill="none" stroke="black" stroke-dasharray="5,2" d="M631.06,-375.66C590.23,-369.08 519.28,-357.38 458.67,-346 387.92,-332.72 305.99,-315.47 257.62,-305.09"/>
<polygon fill="black" stroke="black" points="247.83,-302.99 258.55,-300.69 252.72,-304.04 257.6,-305.09 257.6,-305.09 257.6,-305.09 252.72,-304.04 256.66,-309.49 247.83,-302.99 247.83,-302.99"/>
<text text-anchor="middle" x="520.67" y="-334.8" font-family="Times,serif" font-size="14.00">O2 (r4(r1r4)*r1)?</text>
</g>
<!-- C4S4 -->
<g id="node8" class="node">
<title>C4S4</title>
<ellipse fill="white" stroke="black" cx="703.67" cy="-295" rx="36" ry="18"/>
<text text-anchor="middle" x="703.67" y="-291.3" font-family="Times,serif" font-size="14.00">C4S4</text>
</g>
<!-- C4S3&#45;&gt;C4S4 -->
<g id="edge5" class="edge">
<title>C4S3&#45;&gt;C4S4</title>
<path fill="none" stroke="darkgray" d="M652.43,-364.62C646.5,-354.55 641.8,-341.59 647.67,-331 652.06,-323.07 659.08,-316.7 666.69,-311.69"/>
<polygon fill="darkgray" stroke="darkgray" points="668.88,-314.46 675.76,-306.4 665.36,-308.41 668.88,-314.46"/>
<text text-anchor="middle" x="665.17" y="-334.8" font-family="Times,serif" font-size="14.00" fill="darkgray">t8R4</text>
</g>
<!-- C4S4&#45;&gt;C4S3 -->
<g id="edge6" class="edge">
<title>C4S4&#45;&gt;C4S3</title>
<path fill="none" stroke="darkgray" d="M696.99,-312.81C693.01,-322.58 687.76,-335.08 682.67,-346 681.25,-349.03 679.72,-352.19 678.16,-355.31"/>
<polygon fill="darkgray" stroke="darkgray" points="674.96,-353.9 673.54,-364.4 681.19,-357.07 674.96,-353.9"/>
<text text-anchor="middle" x="706.17" y="-334.8" font-family="Times,serif" font-size="14.00" fill="darkgray">t3R1</text>
</g>
<!-- C6S5 -->
<g id="node11" class="node">
<title>C6S5</title>
<ellipse fill="white" stroke="black" cx="703.67" cy="-208" rx="36" ry="18"/>
<text text-anchor="middle" x="703.67" y="-204.3" font-family="Times,serif" font-size="14.00">C6S5</text>
</g>
<!-- C4S4&#45;&gt;C6S5 -->
<g id="edge20" class="edge">
<title>C4S4&#45;&gt;C6S5</title>
<path fill="none" stroke="black" stroke-dasharray="5,2" d="M703.67,-276.8C703.67,-265.16 703.67,-249.55 703.67,-236.24"/>
<polygon fill="black" stroke="black" points="703.67,-226.18 708.17,-236.18 703.67,-231.18 703.67,-236.18 703.67,-236.18 703.67,-236.18 703.67,-231.18 699.17,-236.18 703.67,-226.18 703.67,-226.18"/>
<text text-anchor="middle" x="748.67" y="-247.8" font-family="Times,serif" font-size="14.00">O1 r4(r1r4)*</text>
</g>
<!-- C5S3 -->
<g id="node10" class="node">
<title>C5S3</title>
<ellipse fill="white" stroke="black" cx="225.67" cy="-34" rx="36" ry="18"/>
<text text-anchor="middle" x="225.67" y="-30.3" font-family="Times,serif" font-size="14.00">C5S3</text>
</g>
<!-- C5S4&#45;&gt;C5S3 -->
<g id="edge7" class="edge">
<title>C5S4&#45;&gt;C5S3</title>
<path fill="none" stroke="darkgray" d="M236.76,-109.6C225.98,-104.04 214.78,-96.03 208.67,-85 204.45,-77.39 205.69,-68.56 208.93,-60.45"/>
<polygon fill="darkgray" stroke="darkgray" points="212.12,-61.89 213.43,-51.38 205.85,-58.78 212.12,-61.89"/>
<text text-anchor="middle" x="226.17" y="-73.8" font-family="Times,serif" font-size="14.00" fill="darkgray">t3R1</text>
</g>
<!-- C5S4&#45;&gt;C6S5 -->
<g id="edge21" class="edge">
<title>C5S4&#45;&gt;C6S5</title>
<path fill="none" stroke="black" stroke-dasharray="5,2" d="M298.4,-127.15C337.2,-132.88 402.89,-141.99 459.67,-147 482.49,-149.01 645.39,-146.32 665.67,-157 676.05,-162.47 684.42,-172.17 690.63,-181.59"/>
<polygon fill="black" stroke="black" points="695.92,-190.38 686.91,-184.13 693.34,-186.09 690.76,-181.81 690.76,-181.81 690.76,-181.81 693.34,-186.09 694.62,-179.49 695.92,-190.38 695.92,-190.38"/>
<text text-anchor="middle" x="743.67" y="-160.8" font-family="Times,serif" font-size="14.00">O1 (r1(r4r1)*r4)?</text>
</g>
<!-- C5S3&#45;&gt;C1S0 -->
<g id="edge22" class="edge">
<title>C5S3&#45;&gt;C1S0</title>
<path fill="none" stroke="black" stroke-dasharray="5,2" d="M213.49,-51.3C209.47,-57.06 205.14,-63.67 201.67,-70 181.46,-106.84 173.06,-115.83 164.67,-157 156.33,-197.89 179.74,-242.76 197.55,-269.64"/>
<polygon fill="black" stroke="black" points="203.33,-278.03 193.95,-272.35 200.49,-273.92 197.66,-269.8 197.66,-269.8 197.66,-269.8 200.49,-273.92 201.37,-267.25 203.33,-278.03 203.33,-278.03"/>
<text text-anchor="middle" x="209.67" y="-160.8" font-family="Times,serif" font-size="14.00">O2 r1(r4r1)*</text>
</g>
<!-- C5S3&#45;&gt;C5S4 -->
<g id="edge8" class="edge">
<title>C5S3&#45;&gt;C5S4</title>
<path fill="none" stroke="darkgray" d="M234.54,-51.6C237.54,-57.38 240.84,-63.93 243.67,-70 247.25,-77.68 250.91,-86.14 254.14,-93.88"/>
<polygon fill="darkgray" stroke="darkgray" points="250.94,-95.28 257.99,-103.19 257.41,-92.61 250.94,-95.28"/>
<text text-anchor="middle" x="267.17" y="-73.8" font-family="Times,serif" font-size="14.00" fill="darkgray">t8R4</text>
</g>
<!-- C6S5&#45;&gt;C3S2 -->
<g id="edge24" class="edge">
<title>C6S5&#45;&gt;C3S2</title>
<path fill="none" stroke="black" stroke-dasharray="5,2" d="M679.78,-221.46C651.85,-236.02 605.43,-260.23 573.96,-276.64"/>
<polygon fill="black" stroke="black" points="564.72,-281.46 571.5,-272.84 569.15,-279.15 573.58,-276.83 573.58,-276.83 573.58,-276.83 569.15,-279.15 575.66,-280.82 564.72,-281.46 564.72,-281.46"/>
<text text-anchor="middle" x="648.17" y="-247.8" font-family="Times,serif" font-size="14.00">O2 ε</text>
</g>
<!-- C6S5&#45;&gt;C7S6 -->
<g id="edge23" class="edge">
<title>C6S5&#45;&gt;C7S6</title>
<path fill="none" stroke="black" stroke-dasharray="5,2" d="M738.97,-204.68C785.25,-200.37 857.49,-188.48 829.67,-157 814.22,-139.53 668.25,-128.82 592.23,-124.38"/>
<polygon fill="black" stroke="black" points="581.98,-123.79 592.22,-119.87 586.98,-124.08 591.97,-124.36 591.97,-124.36 591.97,-124.36 586.98,-124.08 591.71,-128.86 581.98,-123.79 581.98,-123.79"/>
<text text-anchor="middle" x="861.67" y="-160.8" font-family="Times,serif" font-size="14.00">O2R6 ε</text>
</g>
<!-- C7S1 -->
<g id="node13" class="node">
<title>C7S1</title>
<ellipse fill="white" stroke="black" cx="507.67" cy="-34" rx="36" ry="18"/>
<text text-anchor="middle" x="507.67" y="-30.3" font-family="Times,serif" font-size="14.00">C7S1</text>
</g>
<!-- C7S6&#45;&gt;C7S1 -->
<g id="edge9" class="edge">
<title>C7S6&#45;&gt;C7S1</title>
<path fill="none" stroke="darkgray" d="M518.76,-109.6C507.98,-104.04 496.78,-96.03 490.67,-85 486.45,-77.39 487.69,-68.56 490.93,-60.45"/>
<polygon fill="darkgray" stroke="darkgray" points="494.12,-61.89 495.43,-51.38 487.85,-58.78 494.12,-61.89"/>
<text text-anchor="middle" x="508.17" y="-73.8" font-family="Times,serif" font-size="14.00" fill="darkgray">t4R2</text>
</g>
<!-- C7S6&#45;&gt;C8S7 -->
<g id="edge25" class="edge">
<title>C7S6&#45;&gt;C8S7</title>
<path fill="none" stroke="black" stroke-dasharray="5,2" d="M519.13,-132.81C504.33,-139.08 486.02,-147.59 470.67,-157 461.49,-162.62 461.77,-168.29 451.67,-172 392.38,-193.76 229.77,-170.53 167.67,-182 155.44,-184.26 142.48,-188.16 130.93,-192.23"/>
<polygon fill="black" stroke="black" points="121.2,-195.8 129.04,-188.13 125.89,-194.08 130.59,-192.35 130.59,-192.35 130.59,-192.35 125.89,-194.08 132.14,-196.58 121.2,-195.8 121.2,-195.8"/>
<text text-anchor="middle" x="532.67" y="-160.8" font-family="Times,serif" font-size="14.00">O1 (r2(r3r2)*r3)?</text>
</g>
<!-- C7S1&#45;&gt;C3S2 -->
<g id="edge26" class="edge">
<title>C7S1&#45;&gt;C3S2</title>
<path fill="none" stroke="black" stroke-dasharray="5,2" d="M479.05,-44.9C427.11,-64.59 325.55,-111.99 357.67,-172 388.07,-228.81 457.9,-263.73 501.97,-280.94"/>
<polygon fill="black" stroke="black" points="511.5,-284.54 500.55,-285.21 506.82,-282.77 502.15,-281.01 502.15,-281.01 502.15,-281.01 506.82,-282.77 503.74,-276.8 511.5,-284.54 511.5,-284.54"/>
<text text-anchor="middle" x="402.67" y="-160.8" font-family="Times,serif" font-size="14.00">O2 r2(r3r2)*</text>
</g>
<!-- C7S1&#45;&gt;C7S6 -->
<g id="edge10" class="edge">
<title>C7S1&#45;&gt;C7S6</title>
<path fill="none" stroke="darkgray" d="M516.54,-51.6C519.54,-57.38 522.84,-63.93 525.67,-70 529.25,-77.68 532.91,-86.14 536.14,-93.88"/>
<polygon fill="darkgray" stroke="darkgray" points="532.94,-95.28 539.99,-103.19 539.41,-92.61 532.94,-95.28"/>
<text text-anchor="middle" x="549.17" y="-73.8" font-family="Times,serif" font-size="14.00" fill="darkgray">t7R3</text>
</g>
<!-- C8S7&#45;&gt;C1S0 -->
<g id="edge28" class="edge">
<title>C8S7&#45;&gt;C1S0</title>
<path fill="none" stroke="black" stroke-dasharray="5,2" d="M98,-226.35C101.02,-237.33 106.6,-250.94 116.67,-259 134.7,-273.43 145.87,-261.36 167.67,-269 173.1,-270.9 178.68,-273.33 184.02,-275.91"/>
<polygon fill="black" stroke="black" points="193.31,-280.66 182.36,-280.12 188.86,-278.39 184.41,-276.11 184.41,-276.11 184.41,-276.11 188.86,-278.39 186.46,-272.1 193.31,-280.66 193.31,-280.66"/>
<text text-anchor="middle" x="133.17" y="-247.8" font-family="Times,serif" font-size="14.00">O2 ε</text>
</g>
<!-- C8S7&#45;&gt;C5S4 -->
<g id="edge27" class="edge">
<title>C8S7&#45;&gt;C5S4</title>
<path fill="none" stroke="black" stroke-dasharray="5,2" d="M87.29,-189.92C83.97,-179.32 82.25,-166.04 89.67,-157 105.74,-137.4 172.76,-128.55 219.03,-124.73"/>
<polygon fill="black" stroke="black" points="229.14,-123.94 219.52,-129.2 224.16,-124.33 219.17,-124.71 219.17,-124.71 219.17,-124.71 224.16,-124.33 218.82,-120.23 229.14,-123.94 229.14,-123.94"/>
<text text-anchor="middle" x="115.67" y="-160.8" font-family="Times,serif" font-size="14.00">O2R5 ε</text>
</g>
</g>
</svg>
