<?xml version="1.0" encoding="UTF-8" standalone="no"?>
<!DOCTYPE svg PUBLIC "-//W3C//DTD SVG 1.1//EN"
 "http://www.w3.org/Graphics/SVG/1.1/DTD/svg11.dtd">
<!-- Generated by graphviz version 2.43.0 (0)
 -->
<!-- Title: EXPinput/s2 Pages: 1 -->
<svg width="896pt" height="440pt"
 viewBox="0.00 0.00 895.89 440.00" xmlns="http://www.w3.org/2000/svg" xmlns:xlink="http://www.w3.org/1999/xlink">
<g id="graph0" class="graph" transform="scale(1 1) rotate(0) translate(4 436)">
<title>EXPinput/s2</title>
<polygon fill="white" stroke="transparent" points="-4,4 -4,-436 891.89,-436 891.89,4 -4,4"/>
<g id="clust1" class="cluster">
<title>cluster1</title>
<path fill="#eaffee" stroke="#eaffee" d="M183.89,-190C183.89,-190 292.89,-190 292.89,-190 298.89,-190 304.89,-196 304.89,-202 304.89,-202 304.89,-325 304.89,-325 304.89,-331 298.89,-337 292.89,-337 292.89,-337 183.89,-337 183.89,-337 177.89,-337 171.89,-331 171.89,-325 171.89,-325 171.89,-202 171.89,-202 171.89,-196 177.89,-190 183.89,-190"/>
</g>
<g id="clust2" class="cluster">
<title>cluster2</title>
<path fill="#eaffee" stroke="#eaffee" d="M48.89,-277C48.89,-277 151.89,-277 151.89,-277 157.89,-277 163.89,-283 163.89,-289 163.89,-289 163.89,-412 163.89,-412 163.89,-418 157.89,-424 151.89,-424 151.89,-424 48.89,-424 48.89,-424 42.89,-424 36.89,-418 36.89,-412 36.89,-412 36.89,-289 36.89,-289 36.89,-283 42.89,-277 48.89,-277"/>
</g>
<g id="clust3" class="cluster">
<title>cluster3</title>
<path fill="#eaffee" stroke="#eaffee" d="M497.89,-190C497.89,-190 606.89,-190 606.89,-190 612.89,-190 618.89,-196 618.89,-202 618.89,-202 618.89,-325 618.89,-325 618.89,-331 612.89,-337 606.89,-337 606.89,-337 497.89,-337 497.89,-337 491.89,-337 485.89,-331 485.89,-325 485.89,-325 485.89,-202 485.89,-202 485.89,-196 491.89,-190 497.89,-190"/>
</g>
<g id="clust4" class="cluster">
<title>cluster4</title>
<path fill="#eaffee" stroke="#eaffee" d="M638.89,-277C638.89,-277 741.89,-277 741.89,-277 747.89,-277 753.89,-283 753.89,-289 753.89,-289 753.89,-412 753.89,-412 753.89,-418 747.89,-424 741.89,-424 741.89,-424 638.89,-424 638.89,-424 632.89,-424 626.89,-418 626.89,-412 626.89,-412 626.89,-289 626.89,-289 626.89,-283 632.89,-277 638.89,-277"/>
</g>
<g id="clust5" class="cluster">
<title>cluster5</title>
<path fill="#eaffee" stroke="#eaffee" d="M197.89,-8C197.89,-8 300.89,-8 300.89,-8 306.89,-8 312.89,-14 312.89,-20 312.89,-20 312.89,-143 312.89,-143 312.89,-149 306.89,-155 300.89,-155 300.89,-155 197.89,-155 197.89,-155 191.89,-155 185.89,-149 185.89,-143 185.89,-143 185.89,-20 185.89,-20 185.89,-14 191.89,-8 197.89,-8"/>
</g>
<g id="clust6" class="cluster">
<title>cluster6</title>
<path fill="#eaffee" stroke="#eaffee" d="M668.89,-190C668.89,-190 738.89,-190 738.89,-190 744.89,-190 750.89,-196 750.89,-202 750.89,-202 750.89,-230 750.89,-230 750.89,-236 744.89,-242 738.89,-242 738.89,-242 668.89,-242 668.89,-242 662.89,-242 656.89,-236 656.89,-230 656.89,-230 656.89,-202 656.89,-202 656.89,-196 662.89,-190 668.89,-190"/>
</g>
<g id="clust7" class="cluster">
<title>cluster7</title>
<path fill="#eaffee" stroke="#eaffee" d="M482.89,-8C482.89,-8 585.89,-8 585.89,-8 591.89,-8 597.89,-14 597.89,-20 597.89,-20 597.89,-143 597.89,-143 597.89,-149 591.89,-155 585.89,-155 585.89,-155 482.89,-155 482.89,-155 476.89,-155 470.89,-149 470.89,-143 470.89,-143 470.89,-20 470.89,-20 470.89,-14 476.89,-8 482.89,-8"/>
</g>
<g id="clust8" class="cluster">
<title>cluster8</title>
<path fill="#eaffee" stroke="#eaffee" d="M57.89,-190C57.89,-190 127.89,-190 127.89,-190 133.89,-190 139.89,-196 139.89,-202 139.89,-202 139.89,-230 139.89,-230 139.89,-236 133.89,-242 127.89,-242 127.89,-242 57.89,-242 57.89,-242 51.89,-242 45.89,-236 45.89,-230 45.89,-230 45.89,-202 45.89,-202 45.89,-196 51.89,-190 57.89,-190"/>
</g>
<!-- C1S0 -->
<g id="node1" class="node">
<title>C1S0</title>
<polygon fill="white" stroke="black" points="261.76,-299.54 261.76,-314.46 238.99,-325 206.8,-325 184.03,-314.46 184.03,-299.54 206.8,-289 238.99,-289 261.76,-299.54"/>
<polygon fill="none" stroke="black" points="265.78,-296.99 265.78,-317.01 239.88,-329 205.91,-329 180.01,-317.01 180.01,-296.99 205.91,-285 239.88,-285 265.78,-296.99"/>
<text text-anchor="middle" x="222.89" y="-303.3" font-family="Times,serif" font-size="14.00">C1S0</text>
</g>
<!-- C1S7 -->
<g id="node2" class="node">
<title>C1S7</title>
<polygon fill="white" stroke="black" points="294.78,-208.54 294.78,-223.46 272,-234 239.79,-234 217.01,-223.46 217.01,-208.54 239.79,-198 272,-198 294.78,-208.54"/>
<text text-anchor="middle" x="255.89" y="-212.3" font-family="Times,serif" font-size="14.00">C1S7</text>
</g>
<!-- C1S0&#45;&gt;C1S7 -->
<g id="edge1" class="edge">
<title>C1S0&#45;&gt;C1S7</title>
<path fill="none" stroke="darkgray" d="M204.51,-285.31C197.7,-275.07 192.93,-262.65 198.89,-252 203.21,-244.28 210.01,-238.05 217.43,-233.12"/>
<polygon fill="darkgray" stroke="darkgray" points="219.46,-235.98 226.31,-227.9 215.91,-229.95 219.46,-235.98"/>
<text text-anchor="middle" x="216.39" y="-255.8" font-family="Times,serif" font-size="14.00" fill="darkgray">t3R1</text>
</g>
<!-- C2S1 -->
<g id="node3" class="node">
<title>C2S1</title>
<polygon fill="white" stroke="black" points="155.78,-390.54 155.78,-405.46 133,-416 100.79,-416 78.01,-405.46 78.01,-390.54 100.79,-380 133,-380 155.78,-390.54"/>
<text text-anchor="middle" x="116.89" y="-394.3" font-family="Times,serif" font-size="14.00">C2S1</text>
</g>
<!-- C1S0&#45;&gt;C2S1 -->
<g id="edge11" class="edge">
<title>C1S0&#45;&gt;C2S1</title>
<path fill="none" stroke="black" stroke-dasharray="5,2" d="M200.43,-326.86C183.79,-340.83 161.06,-359.92 143.5,-374.66"/>
<polygon fill="black" stroke="black" points="135.85,-381.09 140.61,-371.21 139.67,-377.87 143.5,-374.66 143.5,-374.66 143.5,-374.66 139.67,-377.87 146.4,-378.1 135.85,-381.09 135.85,-381.09"/>
<text text-anchor="middle" x="192.39" y="-350.8" font-family="Times,serif" font-size="14.00">O1 ε</text>
</g>
<!-- C1S7&#45;&gt;C1S0 -->
<g id="edge13" class="edge">
<title>C1S7&#45;&gt;C1S0</title>
<path fill="none" stroke="black" stroke-dasharray="5,2" d="M249.57,-234.07C245.25,-245.72 239.4,-261.49 234.28,-275.29"/>
<polygon fill="black" stroke="black" points="230.71,-284.91 229.97,-273.97 232.45,-280.22 234.19,-275.53 234.19,-275.53 234.19,-275.53 232.45,-280.22 238.41,-277.1 230.71,-284.91 230.71,-284.91"/>
<text text-anchor="middle" x="262.39" y="-255.8" font-family="Times,serif" font-size="14.00">O2 r1</text>
</g>
<!-- C5S4 -->
<g id="node9" class="node">
<title>C5S4</title>
<polygon fill="white" stroke="black" points="300.76,-117.54 300.76,-132.46 277.99,-143 245.8,-143 223.03,-132.46 223.03,-117.54 245.8,-107 277.99,-107 300.76,-117.54"/>
<polygon fill="none" stroke="black" points="304.78,-114.99 304.78,-135.01 278.88,-147 244.91,-147 219.01,-135.01 219.01,-114.99 244.91,-103 278.88,-103 304.78,-114.99"/>
<text text-anchor="middle" x="261.89" y="-121.3" font-family="Times,serif" font-size="14.00">C5S4</text>
</g>
<!-- C1S7&#45;&gt;C5S4 -->
<g id="edge12" class="edge">
<title>C1S7&#45;&gt;C5S4</title>
<path fill="none" stroke="black" stroke-dasharray="5,2" d="M257.05,-197.84C257.83,-186.33 258.87,-170.83 259.79,-157.18"/>
<polygon fill="black" stroke="black" points="260.47,-147.19 264.28,-157.47 260.13,-152.18 259.79,-157.17 259.79,-157.17 259.79,-157.17 260.13,-152.18 255.3,-156.87 260.47,-147.19 260.47,-147.19"/>
<text text-anchor="middle" x="289.39" y="-168.8" font-family="Times,serif" font-size="14.00">O2R5 r1</text>
</g>
<!-- C2S6 -->
<g id="node4" class="node">
<title>C2S6</title>
<polygon fill="white" stroke="black" points="126.76,-299.54 126.76,-314.46 103.99,-325 71.8,-325 49.03,-314.46 49.03,-299.54 71.8,-289 103.99,-289 126.76,-299.54"/>
<polygon fill="none" stroke="black" points="130.78,-296.99 130.78,-317.01 104.88,-329 70.91,-329 45.01,-317.01 45.01,-296.99 70.91,-285 104.88,-285 130.78,-296.99"/>
<text text-anchor="middle" x="87.89" y="-303.3" font-family="Times,serif" font-size="14.00">C2S6</text>
</g>
<!-- C2S1&#45;&gt;C2S6 -->
<g id="edge2" class="edge">
<title>C2S1&#45;&gt;C2S6</title>
<path fill="none" stroke="darkgray" d="M88.77,-385.32C79.09,-379.77 69.33,-372.1 63.89,-362 59.69,-354.19 61.07,-345.49 64.73,-337.4"/>
<polygon fill="darkgray" stroke="darkgray" points="67.82,-339.04 69.66,-328.61 61.72,-335.62 67.82,-339.04"/>
<text text-anchor="middle" x="81.39" y="-350.8" font-family="Times,serif" font-size="14.00" fill="darkgray">t7R3</text>
</g>
<!-- C3S2 -->
<g id="node5" class="node">
<title>C3S2</title>
<polygon fill="white" stroke="black" points="590.76,-299.54 590.76,-314.46 567.99,-325 535.8,-325 513.03,-314.46 513.03,-299.54 535.8,-289 567.99,-289 590.76,-299.54"/>
<polygon fill="none" stroke="black" points="594.78,-296.99 594.78,-317.01 568.88,-329 534.91,-329 509.01,-317.01 509.01,-296.99 534.91,-285 568.88,-285 594.78,-296.99"/>
<text text-anchor="middle" x="551.89" y="-303.3" font-family="Times,serif" font-size="14.00">C3S2</text>
</g>
<!-- C2S1&#45;&gt;C3S2 -->
<g id="edge14" class="edge">
<title>C2S1&#45;&gt;C3S2</title>
<path fill="none" stroke="black" stroke-dasharray="5,2" d="M146.73,-386.13C165.69,-379.22 190.73,-370.09 212.89,-362 231.12,-355.34 235.05,-351.62 253.89,-347 277.08,-341.31 419.45,-323.82 498.72,-314.31"/>
<polygon fill="black" stroke="black" points="509,-313.08 499.6,-318.74 504.03,-313.68 499.07,-314.27 499.07,-314.27 499.07,-314.27 504.03,-313.68 498.53,-309.8 509,-313.08 509,-313.08"/>
<text text-anchor="middle" x="315.89" y="-350.8" font-family="Times,serif" font-size="14.00">O2 (r3(r2r3)*r2)?</text>
</g>
<!-- C2S6&#45;&gt;C2S1 -->
<g id="edge3" class="edge">
<title>C2S6&#45;&gt;C2S1</title>
<path fill="none" stroke="darkgray" d="M94.8,-329.19C98.78,-341.41 103.82,-356.88 108.09,-369.97"/>
<polygon fill="darkgray" stroke="darkgray" points="104.88,-371.42 111.3,-379.84 111.53,-369.25 104.88,-371.42"/>
<text text-anchor="middle" x="122.39" y="-350.8" font-family="Times,serif" font-size="14.00" fill="darkgray">t4R2</text>
</g>
<!-- C8S7 -->
<g id="node14" class="node">
<title>C8S7</title>
<polygon fill="white" stroke="black" points="131.78,-208.54 131.78,-223.46 109,-234 76.79,-234 54.01,-223.46 54.01,-208.54 76.79,-198 109,-198 131.78,-208.54"/>
<text text-anchor="middle" x="92.89" y="-212.3" font-family="Times,serif" font-size="14.00">C8S7</text>
</g>
<!-- C2S6&#45;&gt;C8S7 -->
<g id="edge15" class="edge">
<title>C2S6&#45;&gt;C8S7</title>
<path fill="none" stroke="black" stroke-dasharray="5,2" d="M46.52,-296.15C18.77,-287.44 -10.31,-272.85 3.89,-252 13.26,-238.25 28.93,-229.9 44.53,-224.83"/>
<polygon fill="black" stroke="black" points="54.18,-222.08 45.8,-229.15 49.38,-223.45 44.57,-224.82 44.57,-224.82 44.57,-224.82 49.38,-223.45 43.33,-220.5 54.18,-222.08 54.18,-222.08"/>
<text text-anchor="middle" x="48.89" y="-255.8" font-family="Times,serif" font-size="14.00">O1 r3(r2r3)*</text>
</g>
<!-- C3S5 -->
<g id="node6" class="node">
<title>C3S5</title>
<polygon fill="white" stroke="black" points="608.78,-208.54 608.78,-223.46 586,-234 553.79,-234 531.01,-223.46 531.01,-208.54 553.79,-198 586,-198 608.78,-208.54"/>
<text text-anchor="middle" x="569.89" y="-212.3" font-family="Times,serif" font-size="14.00">C3S5</text>
</g>
<!-- C3S2&#45;&gt;C3S5 -->
<g id="edge4" class="edge">
<title>C3S2&#45;&gt;C3S5</title>
<path fill="none" stroke="darkgray" d="M526.7,-288.45C515.27,-278.21 505.72,-264.82 512.89,-252 517.21,-244.28 524.01,-238.05 531.43,-233.12"/>
<polygon fill="darkgray" stroke="darkgray" points="533.46,-235.98 540.31,-227.9 529.91,-229.95 533.46,-235.98"/>
<text text-anchor="middle" x="530.39" y="-255.8" font-family="Times,serif" font-size="14.00" fill="darkgray">t4R2</text>
</g>
<!-- C4S3 -->
<g id="node7" class="node">
<title>C4S3</title>
<polygon fill="white" stroke="black" points="712.78,-390.54 712.78,-405.46 690,-416 657.79,-416 635.01,-405.46 635.01,-390.54 657.79,-380 690,-380 712.78,-390.54"/>
<text text-anchor="middle" x="673.89" y="-394.3" font-family="Times,serif" font-size="14.00">C4S3</text>
</g>
<!-- C3S2&#45;&gt;C4S3 -->
<g id="edge16" class="edge">
<title>C3S2&#45;&gt;C4S3</title>
<path fill="none" stroke="black" stroke-dasharray="5,2" d="M572.32,-327.52C584.03,-338.27 599.28,-351.52 613.89,-362 622.11,-367.9 631.39,-373.68 640.14,-378.8"/>
<polygon fill="black" stroke="black" points="649.01,-383.87 638.09,-382.82 644.67,-381.39 640.33,-378.91 640.33,-378.91 640.33,-378.91 644.67,-381.39 642.56,-375 649.01,-383.87 649.01,-383.87"/>
<text text-anchor="middle" x="630.39" y="-350.8" font-family="Times,serif" font-size="14.00">O1 ε</text>
</g>
<!-- C3S5&#45;&gt;C3S2 -->
<g id="edge18" class="edge">
<title>C3S5&#45;&gt;C3S2</title>
<path fill="none" stroke="black" stroke-dasharray="5,2" d="M566.44,-234.07C564.11,-245.61 560.96,-261.18 558.19,-274.89"/>
<polygon fill="black" stroke="black" points="556.16,-284.91 553.73,-274.21 557.15,-280.01 558.14,-275.11 558.14,-275.11 558.14,-275.11 557.15,-280.01 562.55,-276 556.16,-284.91 556.16,-284.91"/>
<text text-anchor="middle" x="582.39" y="-255.8" font-family="Times,serif" font-size="14.00">O2 r2</text>
</g>
<!-- C7S6 -->
<g id="node12" class="node">
<title>C7S6</title>
<polygon fill="white" stroke="black" points="585.76,-117.54 585.76,-132.46 562.99,-143 530.8,-143 508.03,-132.46 508.03,-117.54 530.8,-107 562.99,-107 585.76,-117.54"/>
<polygon fill="none" stroke="black" points="589.78,-114.99 589.78,-135.01 563.88,-147 529.91,-147 504.01,-135.01 504.01,-114.99 529.91,-103 563.88,-103 589.78,-114.99"/>
<text text-anchor="middle" x="546.89" y="-121.3" font-family="Times,serif" font-size="14.00">C7S6</text>
</g>
<!-- C3S5&#45;&gt;C7S6 -->
<g id="edge17" class="edge">
<title>C3S5&#45;&gt;C7S6</title>
<path fill="none" stroke="black" stroke-dasharray="5,2" d="M588.7,-198.62C597.39,-188.99 604.64,-176.49 598.89,-165 595.56,-158.34 590.49,-152.52 584.8,-147.55"/>
<polygon fill="black" stroke="black" points="576.76,-141.31 587.42,-143.89 580.71,-144.37 584.66,-147.44 584.66,-147.44 584.66,-147.44 580.71,-144.37 581.9,-150.99 576.76,-141.31 576.76,-141.31"/>
<text text-anchor="middle" x="631.39" y="-168.8" font-family="Times,serif" font-size="14.00">O2R6 r2</text>
</g>
<!-- C4S3&#45;&gt;C1S0 -->
<g id="edge19" class="edge">
<title>C4S3&#45;&gt;C1S0</title>
<path fill="none" stroke="black" stroke-dasharray="5,2" d="M635.07,-390.98C593.58,-384.41 525.93,-373.32 467.89,-362 400.7,-348.9 323.67,-331.53 274.2,-320.07"/>
<polygon fill="black" stroke="black" points="264.38,-317.79 275.14,-315.67 269.25,-318.92 274.12,-320.05 274.12,-320.05 274.12,-320.05 269.25,-318.92 273.1,-324.44 264.38,-317.79 264.38,-317.79"/>
<text text-anchor="middle" x="529.89" y="-350.8" font-family="Times,serif" font-size="14.00">O2 (r4(r1r4)*r1)?</text>
</g>
<!-- C4S4 -->
<g id="node8" class="node">
<title>C4S4</title>
<polygon fill="white" stroke="black" points="741.76,-299.54 741.76,-314.46 718.99,-325 686.8,-325 664.03,-314.46 664.03,-299.54 686.8,-289 718.99,-289 741.76,-299.54"/>
<polygon fill="none" stroke="black" points="745.78,-296.99 745.78,-317.01 719.88,-329 685.91,-329 660.01,-317.01 660.01,-296.99 685.91,-285 719.88,-285 745.78,-296.99"/>
<text text-anchor="middle" x="702.89" y="-303.3" font-family="Times,serif" font-size="14.00">C4S4</text>
</g>
<!-- C4S3&#45;&gt;C4S4 -->
<g id="edge5" class="edge">
<title>C4S3&#45;&gt;C4S4</title>
<path fill="none" stroke="darkgray" d="M659.7,-379.62C653.54,-369.89 648.78,-357.61 653.89,-347 656.91,-340.75 661.47,-335.19 666.61,-330.37"/>
<polygon fill="darkgray" stroke="darkgray" points="669.01,-332.92 674.45,-323.83 664.53,-327.55 669.01,-332.92"/>
<text text-anchor="middle" x="671.39" y="-350.8" font-family="Times,serif" font-size="14.00" fill="darkgray">t8R4</text>
</g>
<!-- C4S4&#45;&gt;C4S3 -->
<g id="edge6" class="edge">
<title>C4S4&#45;&gt;C4S3</title>
<path fill="none" stroke="darkgray" d="M698.17,-329.25C695.74,-339.28 692.53,-351.37 688.89,-362 687.95,-364.76 686.89,-367.6 685.78,-370.42"/>
<polygon fill="darkgray" stroke="darkgray" points="682.5,-369.18 681.9,-379.76 688.97,-371.86 682.5,-369.18"/>
<text text-anchor="middle" x="710.39" y="-350.8" font-family="Times,serif" font-size="14.00" fill="darkgray">t3R1</text>
</g>
<!-- C6S5 -->
<g id="node11" class="node">
<title>C6S5</title>
<polygon fill="white" stroke="black" points="742.78,-208.54 742.78,-223.46 720,-234 687.79,-234 665.01,-223.46 665.01,-208.54 687.79,-198 720,-198 742.78,-208.54"/>
<text text-anchor="middle" x="703.89" y="-212.3" font-family="Times,serif" font-size="14.00">C6S5</text>
</g>
<!-- C4S4&#45;&gt;C6S5 -->
<g id="edge20" class="edge">
<title>C4S4&#45;&gt;C6S5</title>
<path fill="none" stroke="black" stroke-dasharray="5,2" d="M703.13,-284.91C703.27,-272.78 703.44,-257.41 703.59,-244.36"/>
<polygon fill="black" stroke="black" points="703.7,-234.07 708.09,-244.12 703.65,-239.07 703.59,-244.07 703.59,-244.07 703.59,-244.07 703.65,-239.07 699.09,-244.02 703.7,-234.07 703.7,-234.07"/>
<text text-anchor="middle" x="747.89" y="-255.8" font-family="Times,serif" font-size="14.00">O1 r4(r1r4)*</text>
</g>
<!-- C5S3 -->
<g id="node10" class="node">
<title>C5S3</title>
<polygon fill="white" stroke="black" points="271.78,-26.54 271.78,-41.46 249,-52 216.79,-52 194.01,-41.46 194.01,-26.54 216.79,-16 249,-16 271.78,-26.54"/>
<text text-anchor="middle" x="232.89" y="-30.3" font-family="Times,serif" font-size="14.00">C5S3</text>
</g>
<!-- C5S4&#45;&gt;C5S3 -->
<g id="edge7" class="edge">
<title>C5S4&#45;&gt;C5S3</title>
<path fill="none" stroke="darkgray" d="M233.45,-108.17C225.28,-102.07 217.38,-94.3 212.89,-85 209.26,-77.46 210.61,-69.07 213.92,-61.35"/>
<polygon fill="darkgray" stroke="darkgray" points="217.09,-62.85 218.7,-52.38 210.91,-59.55 217.09,-62.85"/>
<text text-anchor="middle" x="230.39" y="-73.8" font-family="Times,serif" font-size="14.00" fill="darkgray">t3R1</text>
</g>
<!-- C5S4&#45;&gt;C6S5 -->
<g id="edge21" class="edge">
<title>C5S4&#45;&gt;C6S5</title>
<path fill="none" stroke="black" stroke-dasharray="5,2" d="M304.95,-133.25C346.34,-139.94 410.72,-149.63 466.89,-155 488.93,-157.11 646.31,-154.67 665.89,-165 676.12,-170.4 684.4,-179.91 690.59,-189.2"/>
<polygon fill="black" stroke="black" points="695.87,-197.89 686.83,-191.69 693.28,-193.62 690.68,-189.35 690.68,-189.35 690.68,-189.35 693.28,-193.62 694.52,-187.01 695.87,-197.89 695.87,-197.89"/>
<text text-anchor="middle" x="743.89" y="-168.8" font-family="Times,serif" font-size="14.00">O1 (r1(r4r1)*r4)?</text>
</g>
<!-- C5S3&#45;&gt;C1S0 -->
<g id="edge22" class="edge">
<title>C5S3&#45;&gt;C1S0</title>
<path fill="none" stroke="black" stroke-dasharray="5,2" d="M218.29,-52.22C214.01,-57.71 209.5,-63.93 205.89,-70 182.29,-109.67 173.43,-119.83 163.89,-165 154.18,-211 169.71,-225.55 191.89,-267 193.77,-270.5 195.97,-274 198.32,-277.39"/>
<polygon fill="black" stroke="black" points="204.36,-285.52 194.78,-280.18 201.38,-281.5 198.39,-277.49 198.39,-277.49 198.39,-277.49 201.38,-281.5 202,-274.81 204.36,-285.52 204.36,-285.52"/>
<text text-anchor="middle" x="208.89" y="-168.8" font-family="Times,serif" font-size="14.00">O2 r1(r4r1)*</text>
</g>
<!-- C5S3&#45;&gt;C5S4 -->
<g id="edge8" class="edge">
<title>C5S3&#45;&gt;C5S4</title>
<path fill="none" stroke="darkgray" d="M240.9,-52.24C243.33,-57.84 245.88,-64.12 247.89,-70 250.39,-77.31 252.69,-85.3 254.68,-92.85"/>
<polygon fill="darkgray" stroke="darkgray" points="251.33,-93.91 257.17,-102.75 258.12,-92.2 251.33,-93.91"/>
<text text-anchor="middle" x="269.39" y="-73.8" font-family="Times,serif" font-size="14.00" fill="darkgray">t8R4</text>
</g>
<!-- C6S5&#45;&gt;C3S2 -->
<g id="edge24" class="edge">
<title>C6S5&#45;&gt;C3S2</title>
<path fill="none" stroke="black" stroke-dasharray="5,2" d="M680.19,-230.88C655.68,-245.23 617.09,-267.83 588.63,-284.49"/>
<polygon fill="black" stroke="black" points="579.77,-289.68 586.13,-280.74 584.09,-287.15 588.4,-284.62 588.4,-284.62 588.4,-284.62 584.09,-287.15 590.68,-288.51 579.77,-289.68 579.77,-289.68"/>
<text text-anchor="middle" x="657.39" y="-255.8" font-family="Times,serif" font-size="14.00">O2 ε</text>
</g>
<!-- C6S5&#45;&gt;C7S6 -->
<g id="edge23" class="edge">
<title>C6S5&#45;&gt;C7S6</title>
<path fill="none" stroke="black" stroke-dasharray="5,2" d="M742.68,-212.4C788.92,-207.87 856.8,-195.87 829.89,-165 800.7,-131.5 673.72,-125.79 600.15,-125.38"/>
<polygon fill="black" stroke="black" points="589.71,-125.35 599.72,-120.88 594.71,-125.37 599.71,-125.38 599.71,-125.38 599.71,-125.38 594.71,-125.37 599.69,-129.88 589.71,-125.35 589.71,-125.35"/>
<text text-anchor="middle" x="861.89" y="-168.8" font-family="Times,serif" font-size="14.00">O2R6 ε</text>
</g>
<!-- C7S1 -->
<g id="node13" class="node">
<title>C7S1</title>
<polygon fill="white" stroke="black" points="556.78,-26.54 556.78,-41.46 534,-52 501.79,-52 479.01,-41.46 479.01,-26.54 501.79,-16 534,-16 556.78,-26.54"/>
<text text-anchor="middle" x="517.89" y="-30.3" font-family="Times,serif" font-size="14.00">C7S1</text>
</g>
<!-- C7S6&#45;&gt;C7S1 -->
<g id="edge9" class="edge">
<title>C7S6&#45;&gt;C7S1</title>
<path fill="none" stroke="darkgray" d="M518.45,-108.17C510.28,-102.07 502.38,-94.3 497.89,-85 494.26,-77.46 495.61,-69.07 498.92,-61.35"/>
<polygon fill="darkgray" stroke="darkgray" points="502.09,-62.85 503.7,-52.38 495.91,-59.55 502.09,-62.85"/>
<text text-anchor="middle" x="515.39" y="-73.8" font-family="Times,serif" font-size="14.00" fill="darkgray">t4R2</text>
</g>
<!-- C7S6&#45;&gt;C8S7 -->
<g id="edge25" class="edge">
<title>C7S6&#45;&gt;C8S7</title>
<path fill="none" stroke="black" stroke-dasharray="5,2" d="M515.44,-140.43C501.45,-147.28 484.99,-155.94 470.89,-165 461.84,-170.82 461.99,-176.29 451.89,-180 392.61,-201.76 230.04,-178.79 167.89,-190 155.55,-192.23 142.46,-196.05 130.73,-200.05"/>
<polygon fill="black" stroke="black" points="121.24,-203.41 129.16,-195.83 125.95,-201.74 130.66,-200.07 130.66,-200.07 130.66,-200.07 125.95,-201.74 132.17,-204.31 121.24,-203.41 121.24,-203.41"/>
<text text-anchor="middle" x="532.89" y="-168.8" font-family="Times,serif" font-size="14.00">O1 (r2(r3r2)*r3)?</text>
</g>
<!-- C7S1&#45;&gt;C3S2 -->
<g id="edge26" class="edge">
<title>C7S1&#45;&gt;C3S2</title>
<path fill="none" stroke="black" stroke-dasharray="5,2" d="M487.32,-45.47C431.84,-66.29 323.37,-116.42 357.89,-180 388.93,-237.17 458.36,-272.44 505.17,-290.63"/>
<polygon fill="black" stroke="black" points="514.8,-294.26 503.85,-294.94 510.12,-292.49 505.44,-290.73 505.44,-290.73 505.44,-290.73 510.12,-292.49 507.02,-286.52 514.8,-294.26 514.8,-294.26"/>
<text text-anchor="middle" x="402.89" y="-168.8" font-family="Times,serif" font-size="14.00">O2 r2(r3r2)*</text>
</g>
<!-- C7S1&#45;&gt;C7S6 -->
<g id="edge10" class="edge">
<title>C7S1&#45;&gt;C7S6</title>
<path fill="none" stroke="darkgray" d="M525.9,-52.24C528.33,-57.84 530.88,-64.12 532.89,-70 535.39,-77.31 537.69,-85.3 539.68,-92.85"/>
<polygon fill="darkgray" stroke="darkgray" points="536.33,-93.91 542.17,-102.75 543.12,-92.2 536.33,-93.91"/>
<text text-anchor="middle" x="554.39" y="-73.8" font-family="Times,serif" font-size="14.00" fill="darkgray">t7R3</text>
</g>
<!-- C8S7&#45;&gt;C1S0 -->
<g id="edge28" class="edge">
<title>C8S7&#45;&gt;C1S0</title>
<path fill="none" stroke="black" stroke-dasharray="5,2" d="M96.94,-234.38C100.41,-245.38 106.54,-258.99 116.89,-267 135.16,-281.13 146.11,-269.31 167.89,-277 174.04,-279.17 180.35,-281.93 186.39,-284.88"/>
<polygon fill="black" stroke="black" points="195.63,-289.62 184.68,-289.06 191.18,-287.33 186.73,-285.05 186.73,-285.05 186.73,-285.05 191.18,-287.33 188.78,-281.05 195.63,-289.62 195.63,-289.62"/>
<text text-anchor="middle" x="133.39" y="-255.8" font-family="Times,serif" font-size="14.00">O2 ε</text>
</g>
<!-- C8S7&#45;&gt;C5S4 -->
<g id="edge27" class="edge">
<title>C8S7&#45;&gt;C5S4</title>
<path fill="none" stroke="black" stroke-dasharray="5,2" d="M86.55,-197.96C83.79,-187.38 82.62,-174.11 89.89,-165 104.61,-146.58 163.86,-136.21 208.75,-130.87"/>
<polygon fill="black" stroke="black" points="218.95,-129.71 209.52,-135.31 213.98,-130.27 209.01,-130.84 209.01,-130.84 209.01,-130.84 213.98,-130.27 208.5,-126.37 218.95,-129.71 218.95,-129.71"/>
<text text-anchor="middle" x="115.89" y="-168.8" font-family="Times,serif" font-size="14.00">O2R5 ε</text>
</g>
</g>
</svg>
