<?xml version="1.0" encoding="UTF-8" standalone="no"?>
<!DOCTYPE svg PUBLIC "-//W3C//DTD SVG 1.1//EN"
 "http://www.w3.org/Graphics/SVG/1.1/DTD/svg11.dtd">
<!-- Generated by graphviz version 2.43.0 (0)
 -->
<!-- Title: EXPinput/s2 Pages: 1 -->
<svg width="894pt" height="526pt"
 viewBox="0.00 0.00 894.20 526.00" xmlns="http://www.w3.org/2000/svg" xmlns:xlink="http://www.w3.org/1999/xlink">
<g id="graph0" class="graph" transform="scale(1 1) rotate(0) translate(4 522)">
<title>EXPinput/s2</title>
<polygon fill="white" stroke="transparent" points="-4,4 -4,-522 890.2,-522 890.2,4 -4,4"/>
<g id="clust1" class="cluster">
<title>cluster0</title>
<path fill="#eaffee" stroke="#eaffee" d="M193.2,-211C193.2,-211 302.2,-211 302.2,-211 308.2,-211 314.2,-217 314.2,-223 314.2,-223 314.2,-390 314.2,-390 314.2,-396 308.2,-402 302.2,-402 302.2,-402 193.2,-402 193.2,-402 187.2,-402 181.2,-396 181.2,-390 181.2,-390 181.2,-223 181.2,-223 181.2,-217 187.2,-211 193.2,-211"/>
<text text-anchor="middle" x="247.7" y="-386.8" font-family="Times,serif" font-size="14.00" fill="#b2ccbb">C0</text>
</g>
<g id="clust2" class="cluster">
<title>cluster1</title>
<path fill="#eaffee" stroke="#eaffee" d="M58.2,-319C58.2,-319 161.2,-319 161.2,-319 167.2,-319 173.2,-325 173.2,-331 173.2,-331 173.2,-498 173.2,-498 173.2,-504 167.2,-510 161.2,-510 161.2,-510 58.2,-510 58.2,-510 52.2,-510 46.2,-504 46.2,-498 46.2,-498 46.2,-331 46.2,-331 46.2,-325 52.2,-319 58.2,-319"/>
<text text-anchor="middle" x="109.7" y="-494.8" font-family="Times,serif" font-size="14.00" fill="#b2ccbb">C1</text>
</g>
<g id="clust3" class="cluster">
<title>cluster2</title>
<path fill="#eaffee" stroke="#eaffee" d="M478.2,-211C478.2,-211 587.2,-211 587.2,-211 593.2,-211 599.2,-217 599.2,-223 599.2,-223 599.2,-390 599.2,-390 599.2,-396 593.2,-402 587.2,-402 587.2,-402 478.2,-402 478.2,-402 472.2,-402 466.2,-396 466.2,-390 466.2,-390 466.2,-223 466.2,-223 466.2,-217 472.2,-211 478.2,-211"/>
<text text-anchor="middle" x="532.7" y="-386.8" font-family="Times,serif" font-size="14.00" fill="#b2ccbb">C2</text>
</g>
<g id="clust4" class="cluster">
<title>cluster3</title>
<path fill="#eaffee" stroke="#eaffee" d="M619.2,-319C619.2,-319 722.2,-319 722.2,-319 728.2,-319 734.2,-325 734.2,-331 734.2,-331 734.2,-498 734.2,-498 734.2,-504 728.2,-510 722.2,-510 722.2,-510 619.2,-510 619.2,-510 613.2,-510 607.2,-504 607.2,-498 607.2,-498 607.2,-331 607.2,-331 607.2,-325 613.2,-319 619.2,-319"/>
<text text-anchor="middle" x="670.7" y="-494.8" font-family="Times,serif" font-size="14.00" fill="#b2ccbb">C3</text>
</g>
<g id="clust5" class="cluster">
<title>cluster4</title>
<path fill="#eaffee" stroke="#eaffee" d="M193.2,-8C193.2,-8 296.2,-8 296.2,-8 302.2,-8 308.2,-14 308.2,-20 308.2,-20 308.2,-166 308.2,-166 308.2,-172 302.2,-178 296.2,-178 296.2,-178 193.2,-178 193.2,-178 187.2,-178 181.2,-172 181.2,-166 181.2,-166 181.2,-20 181.2,-20 181.2,-14 187.2,-8 193.2,-8"/>
<text text-anchor="middle" x="244.7" y="-162.8" font-family="Times,serif" font-size="14.00" fill="#b2ccbb">C4</text>
</g>
<g id="clust6" class="cluster">
<title>cluster5</title>
<path fill="#eaffee" stroke="#eaffee" d="M674.2,-211C674.2,-211 720.2,-211 720.2,-211 726.2,-211 732.2,-217 732.2,-223 732.2,-223 732.2,-274 732.2,-274 732.2,-280 726.2,-286 720.2,-286 720.2,-286 674.2,-286 674.2,-286 668.2,-286 662.2,-280 662.2,-274 662.2,-274 662.2,-223 662.2,-223 662.2,-217 668.2,-211 674.2,-211"/>
<text text-anchor="middle" x="697.2" y="-270.8" font-family="Times,serif" font-size="14.00" fill="#b2ccbb">C5</text>
</g>
<g id="clust7" class="cluster">
<title>cluster6</title>
<path fill="#eaffee" stroke="#eaffee" d="M474.2,-8C474.2,-8 577.2,-8 577.2,-8 583.2,-8 589.2,-14 589.2,-20 589.2,-20 589.2,-166 589.2,-166 589.2,-172 583.2,-178 577.2,-178 577.2,-178 474.2,-178 474.2,-178 468.2,-178 462.2,-172 462.2,-166 462.2,-166 462.2,-20 462.2,-20 462.2,-14 468.2,-8 474.2,-8"/>
<text text-anchor="middle" x="525.7" y="-162.8" font-family="Times,serif" font-size="14.00" fill="#b2ccbb">C6</text>
</g>
<g id="clust8" class="cluster">
<title>cluster7</title>
<path fill="#eaffee" stroke="#eaffee" d="M77.2,-211C77.2,-211 123.2,-211 123.2,-211 129.2,-211 135.2,-217 135.2,-223 135.2,-223 135.2,-274 135.2,-274 135.2,-280 129.2,-286 123.2,-286 123.2,-286 77.2,-286 77.2,-286 71.2,-286 65.2,-280 65.2,-274 65.2,-274 65.2,-223 65.2,-223 65.2,-217 71.2,-211 77.2,-211"/>
<text text-anchor="middle" x="100.2" y="-270.8" font-family="Times,serif" font-size="14.00" fill="#b2ccbb">C7</text>
</g>
<!-- C0S0 -->
<g id="node1" class="node">
<title>C0S0</title>
<polygon fill="white" stroke="black" points="247.2,-341.54 247.2,-356.46 231.39,-367 209.02,-367 193.2,-356.46 193.2,-341.54 209.02,-331 231.39,-331 247.2,-341.54"/>
<polygon fill="none" stroke="black" points="251.2,-339.4 251.2,-358.6 232.6,-371 207.81,-371 189.2,-358.6 189.2,-339.4 207.81,-327 232.6,-327 251.2,-339.4"/>
<text text-anchor="middle" x="220.2" y="-345.3" font-family="Times,serif" font-size="14.00">0</text>
</g>
<!-- C0S7 -->
<g id="node2" class="node">
<title>C0S7</title>
<polygon fill="white" stroke="black" points="292.2,-229.54 292.2,-244.46 276.39,-255 254.02,-255 238.2,-244.46 238.2,-229.54 254.02,-219 276.39,-219 292.2,-229.54"/>
<text text-anchor="middle" x="265.2" y="-233.3" font-family="Times,serif" font-size="14.00">7</text>
</g>
<!-- C0S0&#45;&gt;C0S7 -->
<g id="edge1" class="edge">
<title>C0S0&#45;&gt;C0S7</title>
<path fill="none" stroke="darkgray" d="M209.68,-326.95C206.03,-316.74 203.82,-304.45 208.2,-294 214.42,-279.18 226.69,-266.3 238.25,-256.64"/>
<polygon fill="darkgray" stroke="darkgray" points="240.75,-259.13 246.45,-250.2 236.43,-253.62 240.75,-259.13"/>
<text text-anchor="middle" x="225.7" y="-297.8" font-family="Times,serif" font-size="14.00" fill="darkgray">t3R1</text>
</g>
<!-- C1S1 -->
<g id="node3" class="node">
<title>C1S1</title>
<polygon fill="white" stroke="black" points="161.2,-453.54 161.2,-468.46 145.39,-479 123.02,-479 107.2,-468.46 107.2,-453.54 123.02,-443 145.39,-443 161.2,-453.54"/>
<text text-anchor="middle" x="134.2" y="-457.3" font-family="Times,serif" font-size="14.00">1</text>
</g>
<!-- C0S0&#45;&gt;C1S1 -->
<g id="edge11" class="edge">
<title>C0S0&#45;&gt;C1S1</title>
<path fill="none" stroke="black" stroke-dasharray="5,2" d="M205.14,-369.26C190.69,-387.75 168.81,-415.74 153.17,-435.74"/>
<polygon fill="black" stroke="black" points="146.89,-443.77 149.51,-433.12 149.97,-439.83 153.05,-435.89 153.05,-435.89 153.05,-435.89 149.97,-439.83 156.6,-438.66 146.89,-443.77 146.89,-443.77"/>
<text text-anchor="middle" x="187.7" y="-413.8" font-family="Times,serif" font-size="14.00">O1 ε</text>
</g>
<!-- C0S7&#45;&gt;C0S0 -->
<g id="edge13" class="edge">
<title>C0S7&#45;&gt;C0S0</title>
<path fill="none" stroke="black" stroke-dasharray="5,2" d="M261.11,-255.04C257.32,-269.68 251.09,-291.18 243.2,-309 241.79,-312.19 240.18,-315.44 238.48,-318.64"/>
<polygon fill="black" stroke="black" points="233.54,-327.42 234.52,-316.5 235.99,-323.07 238.44,-318.71 238.44,-318.71 238.44,-318.71 235.99,-323.07 242.36,-320.91 233.54,-327.42 233.54,-327.42"/>
<text text-anchor="middle" x="268.7" y="-297.8" font-family="Times,serif" font-size="14.00">O2 r1</text>
</g>
<!-- C4S4 -->
<g id="node9" class="node">
<title>C4S4</title>
<polygon fill="white" stroke="black" points="292.2,-117.54 292.2,-132.46 276.39,-143 254.02,-143 238.2,-132.46 238.2,-117.54 254.02,-107 276.39,-107 292.2,-117.54"/>
<polygon fill="none" stroke="black" points="296.2,-115.4 296.2,-134.6 277.6,-147 252.81,-147 234.2,-134.6 234.2,-115.4 252.81,-103 277.6,-103 296.2,-115.4"/>
<text text-anchor="middle" x="265.2" y="-121.3" font-family="Times,serif" font-size="14.00">4</text>
</g>
<!-- C0S7&#45;&gt;C4S4 -->
<g id="edge12" class="edge">
<title>C0S7&#45;&gt;C4S4</title>
<path fill="none" stroke="black" stroke-dasharray="5,2" d="M265.2,-218.81C265.2,-202.42 265.2,-177.35 265.2,-157.39"/>
<polygon fill="black" stroke="black" points="265.2,-147.21 269.7,-157.21 265.2,-152.21 265.2,-157.21 265.2,-157.21 265.2,-157.21 265.2,-152.21 260.7,-157.21 265.2,-147.21 265.2,-147.21"/>
<text text-anchor="middle" x="295.7" y="-189.8" font-family="Times,serif" font-size="14.00">O2R5 r1</text>
</g>
<!-- C1S6 -->
<g id="node4" class="node">
<title>C1S6</title>
<polygon fill="white" stroke="black" points="112.2,-341.54 112.2,-356.46 96.39,-367 74.02,-367 58.2,-356.46 58.2,-341.54 74.02,-331 96.39,-331 112.2,-341.54"/>
<polygon fill="none" stroke="black" points="116.2,-339.4 116.2,-358.6 97.6,-371 72.81,-371 54.2,-358.6 54.2,-339.4 72.81,-327 97.6,-327 116.2,-339.4"/>
<text text-anchor="middle" x="85.2" y="-345.3" font-family="Times,serif" font-size="14.00">6</text>
</g>
<!-- C1S1&#45;&gt;C1S6 -->
<g id="edge2" class="edge">
<title>C1S1&#45;&gt;C1S6</title>
<path fill="none" stroke="darkgray" d="M108.64,-452.26C95.57,-446.86 80.85,-438.21 73.2,-425 65.54,-411.78 67.28,-395.16 71.47,-380.93"/>
<polygon fill="darkgray" stroke="darkgray" points="74.92,-381.66 74.86,-371.07 68.3,-379.39 74.92,-381.66"/>
<text text-anchor="middle" x="90.7" y="-413.8" font-family="Times,serif" font-size="14.00" fill="darkgray">t7R3</text>
</g>
<!-- C2S2 -->
<g id="node5" class="node">
<title>C2S2</title>
<polygon fill="white" stroke="black" points="554.2,-341.54 554.2,-356.46 538.39,-367 516.02,-367 500.2,-356.46 500.2,-341.54 516.02,-331 538.39,-331 554.2,-341.54"/>
<polygon fill="none" stroke="black" points="558.2,-339.4 558.2,-358.6 539.6,-371 514.81,-371 496.2,-358.6 496.2,-339.4 514.81,-327 539.6,-327 558.2,-339.4"/>
<text text-anchor="middle" x="527.2" y="-345.3" font-family="Times,serif" font-size="14.00">2</text>
</g>
<!-- C1S1&#45;&gt;C2S2 -->
<g id="edge14" class="edge">
<title>C1S1&#45;&gt;C2S2</title>
<path fill="none" stroke="black" stroke-dasharray="5,2" d="M155.27,-449.16C178.76,-437.57 218.21,-419.56 254.2,-410 281.91,-402.64 290.02,-407.25 318.2,-402 377.29,-391 444.58,-373.31 486.47,-361.67"/>
<polygon fill="black" stroke="black" points="496.3,-358.92 487.88,-365.95 491.48,-360.27 486.67,-361.62 486.67,-361.62 486.67,-361.62 491.48,-360.27 485.45,-357.28 496.3,-358.92 496.3,-358.92"/>
<text text-anchor="middle" x="316.2" y="-413.8" font-family="Times,serif" font-size="14.00">O2 (r3(r2r3)*r2)?</text>
</g>
<!-- C1S6&#45;&gt;C1S1 -->
<g id="edge3" class="edge">
<title>C1S6&#45;&gt;C1S1</title>
<path fill="none" stroke="darkgray" d="M94.65,-371.21C102.56,-388.96 113.88,-414.38 122.39,-433.48"/>
<polygon fill="darkgray" stroke="darkgray" points="119.28,-435.1 126.55,-442.81 125.67,-432.25 119.28,-435.1"/>
<text text-anchor="middle" x="135.7" y="-413.8" font-family="Times,serif" font-size="14.00" fill="darkgray">t4R2</text>
</g>
<!-- C7S7 -->
<g id="node14" class="node">
<title>C7S7</title>
<polygon fill="white" stroke="black" points="127.2,-229.54 127.2,-244.46 111.39,-255 89.02,-255 73.2,-244.46 73.2,-229.54 89.02,-219 111.39,-219 127.2,-229.54"/>
<text text-anchor="middle" x="100.2" y="-233.3" font-family="Times,serif" font-size="14.00">7</text>
</g>
<!-- C1S6&#45;&gt;C7S7 -->
<g id="edge15" class="edge">
<title>C1S6&#45;&gt;C7S7</title>
<path fill="none" stroke="black" stroke-dasharray="5,2" d="M54.04,-341.03C25.45,-333 -10.52,-317.77 3.2,-294 16.27,-271.36 42.36,-257.06 64.19,-248.58"/>
<polygon fill="black" stroke="black" points="73.86,-245.08 65.98,-252.72 69.16,-246.78 64.45,-248.48 64.45,-248.48 64.45,-248.48 69.16,-246.78 62.92,-244.25 73.86,-245.08 73.86,-245.08"/>
<text text-anchor="middle" x="48.2" y="-297.8" font-family="Times,serif" font-size="14.00">O1 r3(r2r3)*</text>
</g>
<!-- C2S5 -->
<g id="node6" class="node">
<title>C2S5</title>
<polygon fill="white" stroke="black" points="577.2,-229.54 577.2,-244.46 561.39,-255 539.02,-255 523.2,-244.46 523.2,-229.54 539.02,-219 561.39,-219 577.2,-229.54"/>
<text text-anchor="middle" x="550.2" y="-233.3" font-family="Times,serif" font-size="14.00">5</text>
</g>
<!-- C2S2&#45;&gt;C2S5 -->
<g id="edge4" class="edge">
<title>C2S2&#45;&gt;C2S5</title>
<path fill="none" stroke="darkgray" d="M507.02,-331.76C496.76,-321.42 487.55,-307.49 493.2,-294 499.42,-279.18 511.69,-266.3 523.25,-256.64"/>
<polygon fill="darkgray" stroke="darkgray" points="525.75,-259.13 531.45,-250.2 521.43,-253.62 525.75,-259.13"/>
<text text-anchor="middle" x="510.7" y="-297.8" font-family="Times,serif" font-size="14.00" fill="darkgray">t4R2</text>
</g>
<!-- C3S3 -->
<g id="node7" class="node">
<title>C3S3</title>
<polygon fill="white" stroke="black" points="669.2,-453.54 669.2,-468.46 653.39,-479 631.02,-479 615.2,-468.46 615.2,-453.54 631.02,-443 653.39,-443 669.2,-453.54"/>
<text text-anchor="middle" x="642.2" y="-457.3" font-family="Times,serif" font-size="14.00">3</text>
</g>
<!-- C2S2&#45;&gt;C3S3 -->
<g id="edge16" class="edge">
<title>C2S2&#45;&gt;C3S3</title>
<path fill="none" stroke="black" stroke-dasharray="5,2" d="M542.43,-369.2C555.38,-385 574.92,-407.54 594.2,-425 600.54,-430.74 607.82,-436.44 614.75,-441.52"/>
<polygon fill="black" stroke="black" points="623.26,-447.57 612.5,-445.44 619.19,-444.67 615.11,-441.77 615.11,-441.77 615.11,-441.77 619.19,-444.67 617.72,-438.11 623.26,-447.57 623.26,-447.57"/>
<text text-anchor="middle" x="610.7" y="-413.8" font-family="Times,serif" font-size="14.00">O1 ε</text>
</g>
<!-- C2S5&#45;&gt;C2S2 -->
<g id="edge18" class="edge">
<title>C2S5&#45;&gt;C2S2</title>
<path fill="none" stroke="black" stroke-dasharray="5,2" d="M546.61,-255.17C543.17,-271.64 537.89,-296.87 533.71,-316.88"/>
<polygon fill="black" stroke="black" points="531.64,-326.79 529.28,-316.08 532.66,-321.9 533.68,-317 533.68,-317 533.68,-317 532.66,-321.9 538.09,-317.92 531.64,-326.79 531.64,-326.79"/>
<text text-anchor="middle" x="557.7" y="-297.8" font-family="Times,serif" font-size="14.00">O2 r2</text>
</g>
<!-- C6S6 -->
<g id="node12" class="node">
<title>C6S6</title>
<polygon fill="white" stroke="black" points="573.2,-117.54 573.2,-132.46 557.39,-143 535.02,-143 519.2,-132.46 519.2,-117.54 535.02,-107 557.39,-107 573.2,-117.54"/>
<polygon fill="none" stroke="black" points="577.2,-115.4 577.2,-134.6 558.6,-147 533.81,-147 515.2,-134.6 515.2,-115.4 533.81,-103 558.6,-103 577.2,-115.4"/>
<text text-anchor="middle" x="546.2" y="-121.3" font-family="Times,serif" font-size="14.00">6</text>
</g>
<!-- C2S5&#45;&gt;C6S6 -->
<g id="edge17" class="edge">
<title>C2S5&#45;&gt;C6S6</title>
<path fill="none" stroke="black" stroke-dasharray="5,2" d="M572.2,-225.91C582.06,-220.13 592.69,-211.85 598.2,-201 601.22,-195.06 600.53,-192.25 598.2,-186 593.06,-172.21 583.16,-159.48 573.36,-149.33"/>
<polygon fill="black" stroke="black" points="565.98,-142.1 576.27,-145.88 569.55,-145.6 573.12,-149.1 573.12,-149.1 573.12,-149.1 569.55,-145.6 569.97,-152.31 565.98,-142.1 565.98,-142.1"/>
<text text-anchor="middle" x="630.7" y="-189.8" font-family="Times,serif" font-size="14.00">O2R6 r2</text>
</g>
<!-- C3S3&#45;&gt;C0S0 -->
<g id="edge19" class="edge">
<title>C3S3&#45;&gt;C0S0</title>
<path fill="none" stroke="black" stroke-dasharray="5,2" d="M614.9,-456.12C577.78,-450.58 509.44,-439.46 452.2,-425 382.61,-407.42 303.43,-380.23 257.89,-363.87"/>
<polygon fill="black" stroke="black" points="248.43,-360.45 259.36,-359.61 253.13,-362.15 257.83,-363.85 257.83,-363.85 257.83,-363.85 253.13,-362.15 256.3,-368.08 248.43,-360.45 248.43,-360.45"/>
<text text-anchor="middle" x="514.2" y="-413.8" font-family="Times,serif" font-size="14.00">O2 (r4(r1r4)*r1)?</text>
</g>
<!-- C3S4 -->
<g id="node8" class="node">
<title>C3S4</title>
<polygon fill="white" stroke="black" points="718.2,-341.54 718.2,-356.46 702.39,-367 680.02,-367 664.2,-356.46 664.2,-341.54 680.02,-331 702.39,-331 718.2,-341.54"/>
<polygon fill="none" stroke="black" points="722.2,-339.4 722.2,-358.6 703.6,-371 678.81,-371 660.2,-358.6 660.2,-339.4 678.81,-327 703.6,-327 722.2,-339.4"/>
<text text-anchor="middle" x="691.2" y="-345.3" font-family="Times,serif" font-size="14.00">4</text>
</g>
<!-- C3S3&#45;&gt;C3S4 -->
<g id="edge5" class="edge">
<title>C3S3&#45;&gt;C3S4</title>
<path fill="none" stroke="darkgray" d="M635.07,-442.84C632.03,-432.95 630.03,-420.45 634.2,-410 640.09,-395.26 651.51,-382.06 662.6,-371.83"/>
<polygon fill="darkgray" stroke="darkgray" points="664.92,-374.44 670.15,-365.23 660.31,-369.17 664.92,-374.44"/>
<text text-anchor="middle" x="651.7" y="-413.8" font-family="Times,serif" font-size="14.00" fill="darkgray">t8R4</text>
</g>
<!-- C3S4&#45;&gt;C3S3 -->
<g id="edge6" class="edge">
<title>C3S4&#45;&gt;C3S3</title>
<path fill="none" stroke="darkgray" d="M687.2,-371.16C683.76,-386.63 677.95,-407.83 669.2,-425 667.24,-428.85 664.84,-432.69 662.28,-436.35"/>
<polygon fill="darkgray" stroke="darkgray" points="659.39,-434.37 656.18,-444.47 664.99,-438.58 659.39,-434.37"/>
<text text-anchor="middle" x="692.7" y="-413.8" font-family="Times,serif" font-size="14.00" fill="darkgray">t3R1</text>
</g>
<!-- C5S5 -->
<g id="node11" class="node">
<title>C5S5</title>
<polygon fill="white" stroke="black" points="724.2,-229.54 724.2,-244.46 708.39,-255 686.02,-255 670.2,-244.46 670.2,-229.54 686.02,-219 708.39,-219 724.2,-229.54"/>
<text text-anchor="middle" x="697.2" y="-233.3" font-family="Times,serif" font-size="14.00">5</text>
</g>
<!-- C3S4&#45;&gt;C5S5 -->
<g id="edge20" class="edge">
<title>C3S4&#45;&gt;C5S5</title>
<path fill="none" stroke="black" stroke-dasharray="5,2" d="M692.36,-326.79C693.31,-309.28 694.68,-284.3 695.71,-265.3"/>
<polygon fill="black" stroke="black" points="696.27,-255.17 700.21,-265.4 695.99,-260.16 695.72,-265.16 695.72,-265.16 695.72,-265.16 695.99,-260.16 691.23,-264.91 696.27,-255.17 696.27,-255.17"/>
<text text-anchor="middle" x="738.2" y="-297.8" font-family="Times,serif" font-size="14.00">O1 r4(r1r4)*</text>
</g>
<!-- C4S3 -->
<g id="node10" class="node">
<title>C4S3</title>
<polygon fill="white" stroke="black" points="243.2,-26.54 243.2,-41.46 227.39,-52 205.02,-52 189.2,-41.46 189.2,-26.54 205.02,-16 227.39,-16 243.2,-26.54"/>
<text text-anchor="middle" x="216.2" y="-30.3" font-family="Times,serif" font-size="14.00">3</text>
</g>
<!-- C4S4&#45;&gt;C4S3 -->
<g id="edge7" class="edge">
<title>C4S4&#45;&gt;C4S3</title>
<path fill="none" stroke="darkgray" d="M238.23,-112.64C226.79,-106.31 214.63,-97.2 208.2,-85 204.49,-77.97 204.4,-69.67 205.84,-61.88"/>
<polygon fill="darkgray" stroke="darkgray" points="209.26,-62.63 208.42,-52.07 202.49,-60.85 209.26,-62.63"/>
<text text-anchor="middle" x="225.7" y="-73.8" font-family="Times,serif" font-size="14.00" fill="darkgray">t3R1</text>
</g>
<!-- C4S4&#45;&gt;C5S5 -->
<g id="edge21" class="edge">
<title>C4S4&#45;&gt;C5S5</title>
<path fill="none" stroke="black" stroke-dasharray="5,2" d="M294.19,-136.01C331.58,-148.4 398.85,-168.97 458.2,-178 480.96,-181.46 645.23,-174.56 665.2,-186 674.59,-191.38 681.66,-200.76 686.74,-209.95"/>
<polygon fill="black" stroke="black" points="691.16,-218.92 682.7,-211.94 688.95,-214.44 686.74,-209.95 686.74,-209.95 686.74,-209.95 688.95,-214.44 690.78,-207.96 691.16,-218.92 691.16,-218.92"/>
<text text-anchor="middle" x="742.2" y="-189.8" font-family="Times,serif" font-size="14.00">O1 (r1(r4r1)*r4)?</text>
</g>
<!-- C4S3&#45;&gt;C0S0 -->
<g id="edge22" class="edge">
<title>C4S3&#45;&gt;C0S0</title>
<path fill="none" stroke="black" stroke-dasharray="5,2" d="M206.76,-52.14C191.44,-81.93 163.62,-145.38 171.2,-201 177.93,-250.36 183.55,-262.41 201.2,-309 202.29,-311.87 203.51,-314.81 204.79,-317.72"/>
<polygon fill="black" stroke="black" points="209.03,-326.85 200.74,-319.68 206.93,-322.32 204.82,-317.78 204.82,-317.78 204.82,-317.78 206.93,-322.32 208.9,-315.89 209.03,-326.85 209.03,-326.85"/>
<text text-anchor="middle" x="216.2" y="-189.8" font-family="Times,serif" font-size="14.00">O2 r1(r4r1)*</text>
</g>
<!-- C4S3&#45;&gt;C4S4 -->
<g id="edge8" class="edge">
<title>C4S3&#45;&gt;C4S4</title>
<path fill="none" stroke="darkgray" d="M229.8,-50.74C234.42,-56.55 239.38,-63.35 243.2,-70 247.39,-77.28 251.17,-85.51 254.38,-93.32"/>
<polygon fill="darkgray" stroke="darkgray" points="251.21,-94.83 258.11,-102.87 257.73,-92.28 251.21,-94.83"/>
<text text-anchor="middle" x="267.7" y="-73.8" font-family="Times,serif" font-size="14.00" fill="darkgray">t8R4</text>
</g>
<!-- C5S5&#45;&gt;C2S2 -->
<g id="edge24" class="edge">
<title>C5S5&#45;&gt;C2S2</title>
<path fill="none" stroke="black" stroke-dasharray="5,2" d="M678.46,-250.13C649.45,-268.9 593.35,-305.2 558.23,-327.93"/>
<polygon fill="black" stroke="black" points="549.78,-333.39 555.73,-324.18 553.97,-330.68 558.17,-327.96 558.17,-327.96 558.17,-327.96 553.97,-330.68 560.62,-331.74 549.78,-333.39 549.78,-333.39"/>
<text text-anchor="middle" x="622.7" y="-297.8" font-family="Times,serif" font-size="14.00">O2 ε</text>
</g>
<!-- C5S5&#45;&gt;C6S6 -->
<g id="edge23" class="edge">
<title>C5S5&#45;&gt;C6S6</title>
<path fill="none" stroke="black" stroke-dasharray="5,2" d="M724.48,-234.98C771.15,-232.25 858.59,-222.27 829.2,-186 799.28,-149.07 658.89,-133.95 587.75,-128.58"/>
<polygon fill="black" stroke="black" points="577.37,-127.82 587.66,-124.06 582.35,-128.19 587.34,-128.55 587.34,-128.55 587.34,-128.55 582.35,-128.19 587.01,-133.03 577.37,-127.82 577.37,-127.82"/>
<text text-anchor="middle" x="860.2" y="-189.8" font-family="Times,serif" font-size="14.00">O2R6 ε</text>
</g>
<!-- C6S1 -->
<g id="node13" class="node">
<title>C6S1</title>
<polygon fill="white" stroke="black" points="524.2,-26.54 524.2,-41.46 508.39,-52 486.02,-52 470.2,-41.46 470.2,-26.54 486.02,-16 508.39,-16 524.2,-26.54"/>
<text text-anchor="middle" x="497.2" y="-30.3" font-family="Times,serif" font-size="14.00">1</text>
</g>
<!-- C6S6&#45;&gt;C6S1 -->
<g id="edge9" class="edge">
<title>C6S6&#45;&gt;C6S1</title>
<path fill="none" stroke="darkgray" d="M519.23,-112.64C507.79,-106.31 495.63,-97.2 489.2,-85 485.49,-77.97 485.4,-69.67 486.84,-61.88"/>
<polygon fill="darkgray" stroke="darkgray" points="490.26,-62.63 489.42,-52.07 483.49,-60.85 490.26,-62.63"/>
<text text-anchor="middle" x="506.7" y="-73.8" font-family="Times,serif" font-size="14.00" fill="darkgray">t4R2</text>
</g>
<!-- C6S6&#45;&gt;C7S7 -->
<g id="edge25" class="edge">
<title>C6S6&#45;&gt;C7S7</title>
<path fill="none" stroke="black" stroke-dasharray="5,2" d="M526.07,-141.9C498.21,-163.91 451.27,-200.97 451.2,-201 394.02,-222.03 237.2,-200.38 177.2,-211 162.17,-213.66 146.03,-218.57 132.43,-223.33"/>
<polygon fill="black" stroke="black" points="123.02,-226.74 130.89,-219.1 127.72,-225.04 132.43,-223.33 132.43,-223.33 132.43,-223.33 127.72,-225.04 133.96,-227.56 123.02,-226.74 123.02,-226.74"/>
<text text-anchor="middle" x="531.2" y="-189.8" font-family="Times,serif" font-size="14.00">O1 (r2(r3r2)*r3)?</text>
</g>
<!-- C6S1&#45;&gt;C2S2 -->
<g id="edge26" class="edge">
<title>C6S1&#45;&gt;C2S2</title>
<path fill="none" stroke="black" stroke-dasharray="5,2" d="M475.88,-45.33C429.45,-69.37 325.77,-132.26 357.2,-201 385.04,-261.86 451.89,-307.16 492.98,-330.43"/>
<polygon fill="black" stroke="black" points="501.83,-335.33 490.9,-334.42 497.46,-332.9 493.08,-330.48 493.08,-330.48 493.08,-330.48 497.46,-332.9 495.26,-326.55 501.83,-335.33 501.83,-335.33"/>
<text text-anchor="middle" x="402.2" y="-189.8" font-family="Times,serif" font-size="14.00">O2 r2(r3r2)*</text>
</g>
<!-- C6S1&#45;&gt;C6S6 -->
<g id="edge10" class="edge">
<title>C6S1&#45;&gt;C6S6</title>
<path fill="none" stroke="darkgray" d="M510.8,-50.74C515.42,-56.55 520.38,-63.35 524.2,-70 528.39,-77.28 532.17,-85.51 535.38,-93.32"/>
<polygon fill="darkgray" stroke="darkgray" points="532.21,-94.83 539.11,-102.87 538.73,-92.28 532.21,-94.83"/>
<text text-anchor="middle" x="548.7" y="-73.8" font-family="Times,serif" font-size="14.00" fill="darkgray">t7R3</text>
</g>
<!-- C7S7&#45;&gt;C0S0 -->
<g id="edge28" class="edge">
<title>C7S7&#45;&gt;C0S0</title>
<path fill="none" stroke="black" stroke-dasharray="5,2" d="M99.05,-255.23C98.98,-271.47 101.67,-295.31 116.2,-309 136.19,-327.84 151.67,-308.86 177.2,-319 182.1,-320.94 187,-323.51 191.65,-326.32"/>
<polygon fill="black" stroke="black" points="200.22,-331.91 189.39,-330.22 196.04,-329.18 191.85,-326.45 191.85,-326.45 191.85,-326.45 196.04,-329.18 194.31,-322.68 200.22,-331.91 200.22,-331.91"/>
<text text-anchor="middle" x="132.7" y="-297.8" font-family="Times,serif" font-size="14.00">O2 ε</text>
</g>
<!-- C7S7&#45;&gt;C4S4 -->
<g id="edge27" class="edge">
<title>C7S7&#45;&gt;C4S4</title>
<path fill="none" stroke="black" stroke-dasharray="5,2" d="M90.15,-218.89C85.51,-208.54 82.37,-195.54 89.2,-186 119.68,-143.4 182.22,-130.7 223.94,-127.11"/>
<polygon fill="black" stroke="black" points="234.07,-126.38 224.42,-131.59 229.08,-126.74 224.09,-127.1 224.09,-127.1 224.09,-127.1 229.08,-126.74 223.77,-122.61 234.07,-126.38 234.07,-126.38"/>
<text text-anchor="middle" x="115.2" y="-189.8" font-family="Times,serif" font-size="14.00">O2R5 ε</text>
</g>
</g>
</svg>
