<?xml version="1.0" encoding="UTF-8" standalone="no"?>
<!DOCTYPE svg PUBLIC "-//W3C//DTD SVG 1.1//EN"
 "http://www.w3.org/Graphics/SVG/1.1/DTD/svg11.dtd">
<!-- Generated by graphviz version 2.43.0 (0)
 -->
<!-- Title: MONinput/s2 Pages: 1 -->
<svg width="1233pt" height="153pt"
 viewBox="0.00 0.00 1233.00 153.00" xmlns="http://www.w3.org/2000/svg" xmlns:xlink="http://www.w3.org/1999/xlink">
<g id="graph0" class="graph" transform="scale(1 1) rotate(0) translate(4 149)">
<title>MONinput/s2</title>
<polygon fill="white" stroke="transparent" points="-4,4 -4,-149 1229,-149 1229,4 -4,4"/>
<g id="clust1" class="cluster">
<title>cluster0</title>
<path fill="#fff9dd" stroke="#fff9dd" d="M20,-27C20,-27 66,-27 66,-27 72,-27 78,-33 78,-39 78,-39 78,-90 78,-90 78,-96 72,-102 66,-102 66,-102 20,-102 20,-102 14,-102 8,-96 8,-90 8,-90 8,-39 8,-39 8,-33 14,-27 20,-27"/>
<text text-anchor="middle" x="43" y="-86.8" font-family="Times,serif" font-size="14.00">r1</text>
</g>
<g id="clust2" class="cluster">
<title>cluster1</title>
<path fill="#fff9dd" stroke="#fff9dd" d="M162,-27C162,-27 208,-27 208,-27 214,-27 220,-33 220,-39 220,-39 220,-90 220,-90 220,-96 214,-102 208,-102 208,-102 162,-102 162,-102 156,-102 150,-96 150,-90 150,-90 150,-39 150,-39 150,-33 156,-27 162,-27"/>
<text text-anchor="middle" x="185" y="-86.8" font-family="Times,serif" font-size="14.00">r1</text>
</g>
<g id="clust3" class="cluster">
<title>cluster2</title>
<path fill="#fff9dd" stroke="#fff9dd" d="M295,-27C295,-27 368,-27 368,-27 374,-27 380,-33 380,-39 380,-39 380,-90 380,-90 380,-96 374,-102 368,-102 368,-102 295,-102 295,-102 289,-102 283,-96 283,-90 283,-90 283,-39 283,-39 283,-33 289,-27 295,-27"/>
<text text-anchor="middle" x="331.5" y="-86.8" font-family="Times,serif" font-size="14.00">r1r3(r2r3)*</text>
</g>
<g id="clust4" class="cluster">
<title>cluster3</title>
<path fill="#fff9dd" stroke="#fff9dd" d="M577,-27C577,-27 650,-27 650,-27 656,-27 662,-33 662,-39 662,-39 662,-90 662,-90 662,-96 656,-102 650,-102 650,-102 577,-102 577,-102 571,-102 565,-96 565,-90 565,-90 565,-39 565,-39 565,-33 571,-27 577,-27"/>
<text text-anchor="middle" x="613.5" y="-86.8" font-family="Times,serif" font-size="14.00">r1r3(r2r3)*</text>
</g>
<g id="clust5" class="cluster">
<title>cluster4</title>
<path fill="#fff9dd" stroke="#fff9dd" d="M818,-8C818,-8 1213,-8 1213,-8 1219,-8 1225,-14 1225,-20 1225,-20 1225,-125 1225,-125 1225,-131 1219,-137 1213,-137 1213,-137 818,-137 818,-137 812,-137 806,-131 806,-125 806,-125 806,-20 806,-20 806,-14 812,-8 818,-8"/>
<text text-anchor="middle" x="1015.5" y="-121.8" font-family="Times,serif" font-size="14.00">(r1r3(r2r3)*r5(r1(r4r1)*r4)?|(r1(r4r1)*))|(r1r3(r2r3)*r1?)</text>
</g>
<!-- M0S0 -->
<g id="node1" class="node">
<title>M0S0</title>
<path fill="#ffffff" stroke="black" d="M58,-71C58,-71 28,-71 28,-71 22,-71 16,-65 16,-59 16,-59 16,-47 16,-47 16,-41 22,-35 28,-35 28,-35 58,-35 58,-35 64,-35 70,-41 70,-47 70,-47 70,-59 70,-59 70,-65 64,-71 58,-71"/>
<text text-anchor="middle" x="43" y="-49.3" font-family="Times,serif" font-size="14.00">0</text>
</g>
<!-- M1S0 -->
<g id="node2" class="node">
<title>M1S0</title>
<path fill="#ffffff" stroke="black" d="M200,-71C200,-71 170,-71 170,-71 164,-71 158,-65 158,-59 158,-59 158,-47 158,-47 158,-41 164,-35 170,-35 170,-35 200,-35 200,-35 206,-35 212,-41 212,-47 212,-47 212,-59 212,-59 212,-65 206,-71 200,-71"/>
<text text-anchor="middle" x="185" y="-49.3" font-family="Times,serif" font-size="14.00">0</text>
</g>
<!-- M0S0&#45;&gt;M1S0 -->
<g id="edge1" class="edge">
<title>M0S0&#45;&gt;M1S0</title>
<path fill="none" stroke="black" d="M70,-53C91.77,-53 123.08,-53 147.38,-53"/>
<polygon fill="black" stroke="black" points="147.66,-56.5 157.66,-53 147.66,-49.5 147.66,-56.5"/>
<text text-anchor="middle" x="114" y="-56.8" font-family="Times,serif" font-size="14.00">(r1, r1)</text>
</g>
<!-- M2S1 -->
<g id="node3" class="node">
<title>M2S1</title>
<path fill="#ffffff" stroke="black" d="M346,-71C346,-71 316,-71 316,-71 310,-71 304,-65 304,-59 304,-59 304,-47 304,-47 304,-41 310,-35 316,-35 316,-35 346,-35 346,-35 352,-35 358,-41 358,-47 358,-47 358,-59 358,-59 358,-65 352,-71 346,-71"/>
<text text-anchor="middle" x="331" y="-49.3" font-family="Times,serif" font-size="14.00">1</text>
</g>
<!-- M1S0&#45;&gt;M2S1 -->
<g id="edge2" class="edge">
<title>M1S0&#45;&gt;M2S1</title>
<path fill="none" stroke="black" d="M212.08,-53C234.87,-53 268.21,-53 293.62,-53"/>
<polygon fill="black" stroke="black" points="293.63,-56.5 303.63,-53 293.63,-49.5 293.63,-56.5"/>
<text text-anchor="middle" x="251.5" y="-56.8" font-family="Times,serif" font-size="14.00">(ε, r1)</text>
</g>
<!-- M3S7 -->
<g id="node4" class="node">
<title>M3S7</title>
<path fill="#ffffff" stroke="black" d="M628,-71C628,-71 598,-71 598,-71 592,-71 586,-65 586,-59 586,-59 586,-47 586,-47 586,-41 592,-35 598,-35 598,-35 628,-35 628,-35 634,-35 640,-41 640,-47 640,-47 640,-59 640,-59 640,-65 634,-71 628,-71"/>
<text text-anchor="middle" x="613" y="-49.3" font-family="Times,serif" font-size="14.00">7</text>
</g>
<!-- M2S1&#45;&gt;M3S7 -->
<g id="edge3" class="edge">
<title>M2S1&#45;&gt;M3S7</title>
<path fill="none" stroke="black" d="M358.09,-53C408.32,-53 518.54,-53 575.82,-53"/>
<polygon fill="black" stroke="black" points="575.87,-56.5 585.87,-53 575.87,-49.5 575.87,-56.5"/>
<text text-anchor="middle" x="472.5" y="-56.8" font-family="Times,serif" font-size="14.00">(r3(r2r3)*, r1r3(r2r3)*)</text>
</g>
<!-- M4S4 -->
<g id="node5" class="node">
<title>M4S4</title>
<path fill="#ffffff" stroke="black" d="M1030,-106C1030,-106 1000,-106 1000,-106 994,-106 988,-100 988,-94 988,-94 988,-82 988,-82 988,-76 994,-70 1000,-70 1000,-70 1030,-70 1030,-70 1036,-70 1042,-76 1042,-82 1042,-82 1042,-94 1042,-94 1042,-100 1036,-106 1030,-106"/>
<text text-anchor="middle" x="1015" y="-84.3" font-family="Times,serif" font-size="14.00">4</text>
</g>
<!-- M3S7&#45;&gt;M4S4 -->
<g id="edge4" class="edge">
<title>M3S7&#45;&gt;M4S4</title>
<path fill="none" stroke="black" d="M640.22,-57.51C650.15,-59.1 661.57,-60.8 672,-62 783,-74.81 915.02,-82.81 977.61,-86.17"/>
<polygon fill="black" stroke="black" points="977.59,-89.67 987.76,-86.71 977.96,-82.68 977.59,-89.67"/>
<text text-anchor="middle" x="734" y="-76.8" font-family="Times,serif" font-size="14.00">(ε, r1r3(r2r3)*r5)</text>
</g>
<!-- M4S0 -->
<g id="node6" class="node">
<title>M4S0</title>
<path fill="#ffffff" stroke="black" d="M1030,-52C1030,-52 1000,-52 1000,-52 994,-52 988,-46 988,-40 988,-40 988,-28 988,-28 988,-22 994,-16 1000,-16 1000,-16 1030,-16 1030,-16 1036,-16 1042,-22 1042,-28 1042,-28 1042,-40 1042,-40 1042,-46 1036,-52 1030,-52"/>
<text text-anchor="middle" x="1015" y="-30.3" font-family="Times,serif" font-size="14.00">0</text>
</g>
<!-- M3S7&#45;&gt;M4S0 -->
<g id="edge5" class="edge">
<title>M3S7&#45;&gt;M4S0</title>
<path fill="none" stroke="black" d="M640.24,-49.92C650.18,-48.85 661.6,-47.73 672,-47 783.22,-39.14 915.14,-35.82 977.66,-34.6"/>
<polygon fill="black" stroke="black" points="977.86,-38.1 987.8,-34.41 977.73,-31.1 977.86,-38.1"/>
<text text-anchor="middle" x="734" y="-50.8" font-family="Times,serif" font-size="14.00">(ε, r1r3(r2r3)*)</text>
</g>
</g>
</svg>
