<?xml version="1.0" encoding="UTF-8" standalone="no"?>
<!DOCTYPE svg PUBLIC "-//W3C//DTD SVG 1.1//EN"
 "http://www.w3.org/Graphics/SVG/1.1/DTD/svg11.dtd">
<!-- Generated by graphviz version 2.43.0 (0)
 -->
<!-- Title: MONinput/s2 Pages: 1 -->
<svg width="670pt" height="99pt"
 viewBox="0.00 0.00 670.00 99.00" xmlns="http://www.w3.org/2000/svg" xmlns:xlink="http://www.w3.org/1999/xlink">
<g id="graph0" class="graph" transform="scale(1 1) rotate(0) translate(4 95)">
<title>MONinput/s2</title>
<polygon fill="white" stroke="transparent" points="-4,4 -4,-95 666,-95 666,4 -4,4"/>
<g id="clust1" class="cluster">
<title>cluster0</title>
<path fill="#fff9dd" stroke="#fff9dd" d="M20,-8C20,-8 66,-8 66,-8 72,-8 78,-14 78,-20 78,-20 78,-71 78,-71 78,-77 72,-83 66,-83 66,-83 20,-83 20,-83 14,-83 8,-77 8,-71 8,-71 8,-20 8,-20 8,-14 14,-8 20,-8"/>
<text text-anchor="middle" x="43" y="-67.8" font-family="Times,serif" font-size="14.00">r1</text>
</g>
<g id="clust2" class="cluster">
<title>cluster1</title>
<path fill="#fff9dd" stroke="#fff9dd" d="M162,-8C162,-8 208,-8 208,-8 214,-8 220,-14 220,-20 220,-20 220,-71 220,-71 220,-77 214,-83 208,-83 208,-83 162,-83 162,-83 156,-83 150,-77 150,-71 150,-71 150,-20 150,-20 150,-14 156,-8 162,-8"/>
<text text-anchor="middle" x="185" y="-67.8" font-family="Times,serif" font-size="14.00">r1</text>
</g>
<g id="clust3" class="cluster">
<title>cluster2</title>
<path fill="#fff9dd" stroke="#fff9dd" d="M295,-8C295,-8 368,-8 368,-8 374,-8 380,-14 380,-20 380,-20 380,-71 380,-71 380,-77 374,-83 368,-83 368,-83 295,-83 295,-83 289,-83 283,-77 283,-71 283,-71 283,-20 283,-20 283,-14 289,-8 295,-8"/>
<text text-anchor="middle" x="331.5" y="-67.8" font-family="Times,serif" font-size="14.00">r1r3(r2r3)*</text>
</g>
<g id="clust4" class="cluster">
<title>cluster3</title>
<path fill="#fff9dd" stroke="#fff9dd" d="M577,-8C577,-8 650,-8 650,-8 656,-8 662,-14 662,-20 662,-20 662,-71 662,-71 662,-77 656,-83 650,-83 650,-83 577,-83 577,-83 571,-83 565,-77 565,-71 565,-71 565,-20 565,-20 565,-14 571,-8 577,-8"/>
<text text-anchor="middle" x="613.5" y="-67.8" font-family="Times,serif" font-size="14.00">r1r3(r2r3)*</text>
</g>
<!-- M0S0 -->
<g id="node1" class="node">
<title>M0S0</title>
<path fill="#ffffff" stroke="black" d="M58,-52C58,-52 28,-52 28,-52 22,-52 16,-46 16,-40 16,-40 16,-28 16,-28 16,-22 22,-16 28,-16 28,-16 58,-16 58,-16 64,-16 70,-22 70,-28 70,-28 70,-40 70,-40 70,-46 64,-52 58,-52"/>
<text text-anchor="middle" x="43" y="-30.3" font-family="Times,serif" font-size="14.00">0</text>
</g>
<!-- M1S0 -->
<g id="node2" class="node">
<title>M1S0</title>
<path fill="#ffffff" stroke="black" d="M200,-52C200,-52 170,-52 170,-52 164,-52 158,-46 158,-40 158,-40 158,-28 158,-28 158,-22 164,-16 170,-16 170,-16 200,-16 200,-16 206,-16 212,-22 212,-28 212,-28 212,-40 212,-40 212,-46 206,-52 200,-52"/>
<text text-anchor="middle" x="185" y="-30.3" font-family="Times,serif" font-size="14.00">0</text>
</g>
<!-- M0S0&#45;&gt;M1S0 -->
<g id="edge1" class="edge">
<title>M0S0&#45;&gt;M1S0</title>
<path fill="none" stroke="black" d="M70,-34C91.77,-34 123.08,-34 147.38,-34"/>
<polygon fill="black" stroke="black" points="147.66,-37.5 157.66,-34 147.66,-30.5 147.66,-37.5"/>
<text text-anchor="middle" x="114" y="-37.8" font-family="Times,serif" font-size="14.00">(r1, r1)</text>
</g>
<!-- M2S2 -->
<g id="node3" class="node">
<title>M2S2</title>
<path fill="#ffffff" stroke="black" d="M346,-52C346,-52 316,-52 316,-52 310,-52 304,-46 304,-40 304,-40 304,-28 304,-28 304,-22 310,-16 316,-16 316,-16 346,-16 346,-16 352,-16 358,-22 358,-28 358,-28 358,-40 358,-40 358,-46 352,-52 346,-52"/>
<text text-anchor="middle" x="331" y="-30.3" font-family="Times,serif" font-size="14.00">2</text>
</g>
<!-- M1S0&#45;&gt;M2S2 -->
<g id="edge2" class="edge">
<title>M1S0&#45;&gt;M2S2</title>
<path fill="none" stroke="black" d="M212.08,-34C234.87,-34 268.21,-34 293.62,-34"/>
<polygon fill="black" stroke="black" points="293.63,-37.5 303.63,-34 293.63,-30.5 293.63,-37.5"/>
<text text-anchor="middle" x="251.5" y="-37.8" font-family="Times,serif" font-size="14.00">(ε, r1)</text>
</g>
<!-- M3S4 -->
<g id="node4" class="node">
<title>M3S4</title>
<path fill="#ffffff" stroke="black" d="M628,-52C628,-52 598,-52 598,-52 592,-52 586,-46 586,-40 586,-40 586,-28 586,-28 586,-22 592,-16 598,-16 598,-16 628,-16 628,-16 634,-16 640,-22 640,-28 640,-28 640,-40 640,-40 640,-46 634,-52 628,-52"/>
<text text-anchor="middle" x="613" y="-30.3" font-family="Times,serif" font-size="14.00">4</text>
</g>
<!-- M2S2&#45;&gt;M3S4 -->
<g id="edge3" class="edge">
<title>M2S2&#45;&gt;M3S4</title>
<path fill="none" stroke="black" d="M358.09,-34C408.32,-34 518.54,-34 575.82,-34"/>
<polygon fill="black" stroke="black" points="575.87,-37.5 585.87,-34 575.87,-30.5 575.87,-37.5"/>
<text text-anchor="middle" x="472.5" y="-37.8" font-family="Times,serif" font-size="14.00">(r3(r2r3)*, r1r3(r2r3)*)</text>
</g>
</g>
</svg>
