<?xml version="1.0" encoding="UTF-8" standalone="no"?>
<!DOCTYPE svg PUBLIC "-//W3C//DTD SVG 1.1//EN"
 "http://www.w3.org/Graphics/SVG/1.1/DTD/svg11.dtd">
<!-- Generated by graphviz version 2.43.0 (0)
 -->
<!-- Title: MONinput/s2 Pages: 1 -->
<svg width="757pt" height="153pt"
 viewBox="0.00 0.00 757.00 153.00" xmlns="http://www.w3.org/2000/svg" xmlns:xlink="http://www.w3.org/1999/xlink">
<g id="graph0" class="graph" transform="scale(1 1) rotate(0) translate(4 149)">
<title>MONinput/s2</title>
<polygon fill="white" stroke="transparent" points="-4,4 -4,-149 753,-149 753,4 -4,4"/>
<g id="clust1" class="cluster">
<title>cluster0</title>
<path fill="#fff9dd" stroke="#fff9dd" d="M20,-27C20,-27 66,-27 66,-27 72,-27 78,-33 78,-39 78,-39 78,-90 78,-90 78,-96 72,-102 66,-102 66,-102 20,-102 20,-102 14,-102 8,-96 8,-90 8,-90 8,-39 8,-39 8,-33 14,-27 20,-27"/>
<text text-anchor="middle" x="43" y="-86.8" font-family="Times,serif" font-size="14.00">a</text>
</g>
<g id="clust2" class="cluster">
<title>cluster1</title>
<path fill="#fff9dd" stroke="#fff9dd" d="M147,-27C147,-27 193,-27 193,-27 199,-27 205,-33 205,-39 205,-39 205,-90 205,-90 205,-96 199,-102 193,-102 193,-102 147,-102 147,-102 141,-102 135,-96 135,-90 135,-90 135,-39 135,-39 135,-33 141,-27 147,-27"/>
<text text-anchor="middle" x="170" y="-86.8" font-family="Times,serif" font-size="14.00">a</text>
</g>
<g id="clust3" class="cluster">
<title>cluster2</title>
<path fill="#fff9dd" stroke="#fff9dd" d="M273,-27C273,-27 319,-27 319,-27 325,-27 331,-33 331,-39 331,-39 331,-90 331,-90 331,-96 325,-102 319,-102 319,-102 273,-102 273,-102 267,-102 261,-96 261,-90 261,-90 261,-39 261,-39 261,-33 267,-27 273,-27"/>
<text text-anchor="middle" x="296" y="-86.8" font-family="Times,serif" font-size="14.00">aj(bj)*</text>
</g>
<g id="clust4" class="cluster">
<title>cluster3</title>
<path fill="#fff9dd" stroke="#fff9dd" d="M462,-27C462,-27 508,-27 508,-27 514,-27 520,-33 520,-39 520,-39 520,-90 520,-90 520,-96 514,-102 508,-102 508,-102 462,-102 462,-102 456,-102 450,-96 450,-90 450,-90 450,-39 450,-39 450,-33 456,-27 462,-27"/>
<text text-anchor="middle" x="485" y="-86.8" font-family="Times,serif" font-size="14.00">aj(bj)*</text>
</g>
<g id="clust5" class="cluster">
<title>cluster4</title>
<path fill="#fff9dd" stroke="#fff9dd" d="M628,-8C628,-8 737,-8 737,-8 743,-8 749,-14 749,-20 749,-20 749,-125 749,-125 749,-131 743,-137 737,-137 737,-137 628,-137 628,-137 622,-137 616,-131 616,-125 616,-125 616,-20 616,-20 616,-14 622,-8 628,-8"/>
<text text-anchor="middle" x="682.5" y="-121.8" font-family="Times,serif" font-size="14.00">aj(bj)*l(a(ka)*k)?</text>
</g>
<!-- M0S0 -->
<g id="node1" class="node">
<title>M0S0</title>
<path fill="#ffffff" stroke="black" d="M58,-71C58,-71 28,-71 28,-71 22,-71 16,-65 16,-59 16,-59 16,-47 16,-47 16,-41 22,-35 28,-35 28,-35 58,-35 58,-35 64,-35 70,-41 70,-47 70,-47 70,-59 70,-59 70,-65 64,-71 58,-71"/>
<text text-anchor="middle" x="43" y="-49.3" font-family="Times,serif" font-size="14.00">0</text>
</g>
<!-- M1S0 -->
<g id="node2" class="node">
<title>M1S0</title>
<path fill="#ffffff" stroke="black" d="M185,-71C185,-71 155,-71 155,-71 149,-71 143,-65 143,-59 143,-59 143,-47 143,-47 143,-41 149,-35 155,-35 155,-35 185,-35 185,-35 191,-35 197,-41 197,-47 197,-47 197,-59 197,-59 197,-65 191,-71 185,-71"/>
<text text-anchor="middle" x="170" y="-49.3" font-family="Times,serif" font-size="14.00">0</text>
</g>
<!-- M0S0&#45;&gt;M1S0 -->
<g id="edge1" class="edge">
<title>M0S0&#45;&gt;M1S0</title>
<path fill="none" stroke="black" d="M70.2,-53C88.37,-53 112.8,-53 132.82,-53"/>
<polygon fill="black" stroke="black" points="132.83,-56.5 142.83,-53 132.83,-49.5 132.83,-56.5"/>
<text text-anchor="middle" x="106.5" y="-56.8" font-family="Times,serif" font-size="14.00">(a, a)</text>
</g>
<!-- M2S1 -->
<g id="node3" class="node">
<title>M2S1</title>
<path fill="#ffffff" stroke="black" d="M311,-71C311,-71 281,-71 281,-71 275,-71 269,-65 269,-59 269,-59 269,-47 269,-47 269,-41 275,-35 281,-35 281,-35 311,-35 311,-35 317,-35 323,-41 323,-47 323,-47 323,-59 323,-59 323,-65 317,-71 311,-71"/>
<text text-anchor="middle" x="296" y="-49.3" font-family="Times,serif" font-size="14.00">1</text>
</g>
<!-- M1S0&#45;&gt;M2S1 -->
<g id="edge2" class="edge">
<title>M1S0&#45;&gt;M2S1</title>
<path fill="none" stroke="black" d="M197.3,-53C215.13,-53 238.95,-53 258.61,-53"/>
<polygon fill="black" stroke="black" points="258.74,-56.5 268.74,-53 258.74,-49.5 258.74,-56.5"/>
<text text-anchor="middle" x="233" y="-56.8" font-family="Times,serif" font-size="14.00">(ε, a)</text>
</g>
<!-- M3S7 -->
<g id="node4" class="node">
<title>M3S7</title>
<path fill="#ffffff" stroke="black" d="M500,-71C500,-71 470,-71 470,-71 464,-71 458,-65 458,-59 458,-59 458,-47 458,-47 458,-41 464,-35 470,-35 470,-35 500,-35 500,-35 506,-35 512,-41 512,-47 512,-47 512,-59 512,-59 512,-65 506,-71 500,-71"/>
<text text-anchor="middle" x="485" y="-49.3" font-family="Times,serif" font-size="14.00">7</text>
</g>
<!-- M2S1&#45;&gt;M3S7 -->
<g id="edge3" class="edge">
<title>M2S1&#45;&gt;M3S7</title>
<path fill="none" stroke="black" d="M323,-53C355.43,-53 411.04,-53 447.67,-53"/>
<polygon fill="black" stroke="black" points="447.92,-56.5 457.92,-53 447.92,-49.5 447.92,-56.5"/>
<text text-anchor="middle" x="390.5" y="-56.8" font-family="Times,serif" font-size="14.00">(j(bj)*, aj(bj)*)</text>
</g>
<!-- M4S4 -->
<g id="node5" class="node">
<title>M4S4</title>
<path fill="#ffffff" stroke="black" d="M697,-106C697,-106 667,-106 667,-106 661,-106 655,-100 655,-94 655,-94 655,-82 655,-82 655,-76 661,-70 667,-70 667,-70 697,-70 697,-70 703,-70 709,-76 709,-82 709,-82 709,-94 709,-94 709,-100 703,-106 697,-106"/>
<text text-anchor="middle" x="682" y="-84.3" font-family="Times,serif" font-size="14.00">4</text>
</g>
<!-- M3S7&#45;&gt;M4S4 -->
<g id="edge4" class="edge">
<title>M3S7&#45;&gt;M4S4</title>
<path fill="none" stroke="black" d="M512.03,-58.46C517.93,-59.66 524.18,-60.9 530,-62 569.05,-69.35 613.95,-76.98 644.57,-82.05"/>
<polygon fill="black" stroke="black" points="644.33,-85.56 654.77,-83.74 645.47,-78.66 644.33,-85.56"/>
<text text-anchor="middle" x="568" y="-78.8" font-family="Times,serif" font-size="14.00">(ε, aj(bj)*l)</text>
</g>
<!-- M4S0 -->
<g id="node6" class="node">
<title>M4S0</title>
<path fill="#ffffff" stroke="black" d="M697,-52C697,-52 667,-52 667,-52 661,-52 655,-46 655,-40 655,-40 655,-28 655,-28 655,-22 661,-16 667,-16 667,-16 697,-16 697,-16 703,-16 709,-22 709,-28 709,-28 709,-40 709,-40 709,-46 703,-52 697,-52"/>
<text text-anchor="middle" x="682" y="-30.3" font-family="Times,serif" font-size="14.00">0</text>
</g>
<!-- M3S7&#45;&gt;M4S0 -->
<g id="edge5" class="edge">
<title>M3S7&#45;&gt;M4S0</title>
<path fill="none" stroke="black" d="M512.03,-49.23C517.93,-48.44 524.18,-47.65 530,-47 569.07,-42.66 613.96,-38.96 644.57,-36.63"/>
<polygon fill="black" stroke="black" points="645.06,-40.1 654.77,-35.86 644.54,-33.12 645.06,-40.1"/>
<text text-anchor="middle" x="568" y="-50.8" font-family="Times,serif" font-size="14.00">(ε, aj(bj)*)</text>
</g>
</g>
</svg>
