<?xml version="1.0" encoding="UTF-8" standalone="no"?>
<!DOCTYPE svg PUBLIC "-//W3C//DTD SVG 1.1//EN"
 "http://www.w3.org/Graphics/SVG/1.1/DTD/svg11.dtd">
<!-- Generated by graphviz version 2.43.0 (0)
 -->
<!-- Title: MONinput/s2 Pages: 1 -->
<svg width="737pt" height="99pt"
 viewBox="0.00 0.00 736.77 99.00" xmlns="http://www.w3.org/2000/svg" xmlns:xlink="http://www.w3.org/1999/xlink">
<g id="graph0" class="graph" transform="scale(1 1) rotate(0) translate(4 95)">
<title>MONinput/s2</title>
<polygon fill="white" stroke="transparent" points="-4,4 -4,-95 732.77,-95 732.77,4 -4,4"/>
<g id="clust1" class="cluster">
<title>cluster0</title>
<path fill="#fff9dd" stroke="#fff9dd" d="M20,-8C20,-8 88.69,-8 88.69,-8 94.69,-8 100.69,-14 100.69,-20 100.69,-20 100.69,-71 100.69,-71 100.69,-77 94.69,-83 88.69,-83 88.69,-83 20,-83 20,-83 14,-83 8,-77 8,-71 8,-71 8,-20 8,-20 8,-14 14,-8 20,-8"/>
<text text-anchor="middle" x="54.35" y="-67.8" font-family="Times,serif" font-size="14.00">r1?</text>
</g>
<g id="clust2" class="cluster">
<title>cluster1</title>
<path fill="#fff9dd" stroke="#fff9dd" d="M184.69,-8C184.69,-8 253.39,-8 253.39,-8 259.39,-8 265.39,-14 265.39,-20 265.39,-20 265.39,-71 265.39,-71 265.39,-77 259.39,-83 253.39,-83 253.39,-83 184.69,-83 184.69,-83 178.69,-83 172.69,-77 172.69,-71 172.69,-71 172.69,-20 172.69,-20 172.69,-14 178.69,-8 184.69,-8"/>
<text text-anchor="middle" x="219.04" y="-67.8" font-family="Times,serif" font-size="14.00">(r1r1)?</text>
</g>
<g id="clust3" class="cluster">
<title>cluster2</title>
<path fill="#fff9dd" stroke="#fff9dd" d="M340.39,-8C340.39,-8 431.08,-8 431.08,-8 437.08,-8 443.08,-14 443.08,-20 443.08,-20 443.08,-71 443.08,-71 443.08,-77 437.08,-83 431.08,-83 431.08,-83 340.39,-83 340.39,-83 334.39,-83 328.39,-77 328.39,-71 328.39,-71 328.39,-20 328.39,-20 328.39,-14 334.39,-8 340.39,-8"/>
<text text-anchor="middle" x="385.73" y="-67.8" font-family="Times,serif" font-size="14.00">(r1r3(r2r3)*)?</text>
</g>
<g id="clust4" class="cluster">
<title>cluster3</title>
<path fill="#fff9dd" stroke="#fff9dd" d="M640.08,-8C640.08,-8 708.77,-8 708.77,-8 714.77,-8 720.77,-14 720.77,-20 720.77,-20 720.77,-71 720.77,-71 720.77,-77 714.77,-83 708.77,-83 708.77,-83 640.08,-83 640.08,-83 634.08,-83 628.08,-77 628.08,-71 628.08,-71 628.08,-20 628.08,-20 628.08,-14 634.08,-8 640.08,-8"/>
<text text-anchor="middle" x="674.43" y="-67.8" font-family="Times,serif" font-size="14.00">r3(r2r3)*</text>
</g>
<!-- M0S0 -->
<g id="node1" class="node">
<title>M0S0</title>
<ellipse fill="white" stroke="black" cx="54.35" cy="-34" rx="38.19" ry="18"/>
<text text-anchor="middle" x="54.35" y="-30.3" font-family="Times,serif" font-size="14.00">M0S0</text>
</g>
<!-- M1S0 -->
<g id="node2" class="node">
<title>M1S0</title>
<ellipse fill="white" stroke="black" cx="219.04" cy="-34" rx="38.19" ry="18"/>
<text text-anchor="middle" x="219.04" y="-30.3" font-family="Times,serif" font-size="14.00">M1S0</text>
</g>
<!-- M0S0&#45;&gt;M1S0 -->
<g id="edge1" class="edge">
<title>M0S0&#45;&gt;M1S0</title>
<path fill="none" stroke="black" d="M93.08,-34C116.08,-34 145.68,-34 170.3,-34"/>
<polygon fill="black" stroke="black" points="170.51,-37.5 180.51,-34 170.51,-30.5 170.51,-37.5"/>
<text text-anchor="middle" x="136.69" y="-37.8" font-family="Times,serif" font-size="14.00">(r1, r1)</text>
</g>
<!-- M2S1 -->
<g id="node3" class="node">
<title>M2S1</title>
<ellipse fill="white" stroke="black" cx="385.73" cy="-34" rx="38.19" ry="18"/>
<text text-anchor="middle" x="385.73" y="-30.3" font-family="Times,serif" font-size="14.00">M2S1</text>
</g>
<!-- M1S0&#45;&gt;M2S1 -->
<g id="edge2" class="edge">
<title>M1S0&#45;&gt;M2S1</title>
<path fill="none" stroke="black" d="M257.41,-34C281.02,-34 311.74,-34 337.09,-34"/>
<polygon fill="black" stroke="black" points="337.22,-37.5 347.22,-34 337.22,-30.5 337.22,-37.5"/>
<text text-anchor="middle" x="296.89" y="-37.8" font-family="Times,serif" font-size="14.00">(ε, r1)</text>
</g>
<!-- M3S7 -->
<g id="node4" class="node">
<title>M3S7</title>
<ellipse fill="white" stroke="black" cx="674.43" cy="-34" rx="38.19" ry="18"/>
<text text-anchor="middle" x="674.43" y="-30.3" font-family="Times,serif" font-size="14.00">M3S7</text>
</g>
<!-- M2S1&#45;&gt;M3S7 -->
<g id="edge3" class="edge">
<title>M2S1&#45;&gt;M3S7</title>
<path fill="none" stroke="black" d="M424.21,-34C475.94,-34 569.21,-34 625.81,-34"/>
<polygon fill="black" stroke="black" points="625.94,-37.5 635.94,-34 625.94,-30.5 625.94,-37.5"/>
<text text-anchor="middle" x="535.58" y="-37.8" font-family="Times,serif" font-size="14.00">(r3(r2r3)*, r1r3(r2r3)*)</text>
</g>
</g>
</svg>
