<?xml version="1.0" encoding="UTF-8" standalone="no"?>
<!DOCTYPE svg PUBLIC "-//W3C//DTD SVG 1.1//EN"
 "http://www.w3.org/Graphics/SVG/1.1/DTD/svg11.dtd">
<!-- Generated by graphviz version 2.43.0 (0)
 -->
<!-- Title: MONinput/s2 Pages: 1 -->
<svg width="3295pt" height="175pt"
 viewBox="0.00 0.00 3295.00 175.00" xmlns="http://www.w3.org/2000/svg" xmlns:xlink="http://www.w3.org/1999/xlink">
<g id="graph0" class="graph" transform="scale(1 1) rotate(0) translate(4 171)">
<title>MONinput/s2</title>
<polygon fill="white" stroke="transparent" points="-4,4 -4,-171 3291,-171 3291,4 -4,4"/>
<g id="clust1" class="cluster">
<title>cluster0</title>
<path fill="#fff9dd" stroke="#fff9dd" d="M20,-57C20,-57 66,-57 66,-57 72,-57 78,-63 78,-69 78,-69 78,-120 78,-120 78,-126 72,-132 66,-132 66,-132 20,-132 20,-132 14,-132 8,-126 8,-120 8,-120 8,-69 8,-69 8,-63 14,-57 20,-57"/>
<text text-anchor="middle" x="43" y="-116.8" font-family="Times,serif" font-size="14.00">a</text>
</g>
<g id="clust2" class="cluster">
<title>cluster1</title>
<path fill="#fff9dd" stroke="#fff9dd" d="M147,-57C147,-57 193,-57 193,-57 199,-57 205,-63 205,-69 205,-69 205,-120 205,-120 205,-126 199,-132 193,-132 193,-132 147,-132 147,-132 141,-132 135,-126 135,-120 135,-120 135,-69 135,-69 135,-63 141,-57 147,-57"/>
<text text-anchor="middle" x="170" y="-116.8" font-family="Times,serif" font-size="14.00">a</text>
</g>
<g id="clust3" class="cluster">
<title>cluster2</title>
<path fill="#fff9dd" stroke="#fff9dd" d="M273,-57C273,-57 319,-57 319,-57 325,-57 331,-63 331,-69 331,-69 331,-120 331,-120 331,-126 325,-132 319,-132 319,-132 273,-132 273,-132 267,-132 261,-126 261,-120 261,-120 261,-69 261,-69 261,-63 267,-57 273,-57"/>
<text text-anchor="middle" x="296" y="-116.8" font-family="Times,serif" font-size="14.00">aj(bj)*</text>
</g>
<g id="clust4" class="cluster">
<title>cluster3</title>
<path fill="#fff9dd" stroke="#fff9dd" d="M462,-57C462,-57 508,-57 508,-57 514,-57 520,-63 520,-69 520,-69 520,-120 520,-120 520,-126 514,-132 508,-132 508,-132 462,-132 462,-132 456,-132 450,-126 450,-120 450,-120 450,-69 450,-69 450,-63 456,-57 462,-57"/>
<text text-anchor="middle" x="485" y="-116.8" font-family="Times,serif" font-size="14.00">aj(bj)*</text>
</g>
<g id="clust5" class="cluster">
<title>cluster4</title>
<path fill="#fff9dd" stroke="#fff9dd" d="M628,-30C628,-30 788,-30 788,-30 794,-30 800,-36 800,-42 800,-42 800,-147 800,-147 800,-153 794,-159 788,-159 788,-159 628,-159 628,-159 622,-159 616,-153 616,-147 616,-147 616,-42 616,-42 616,-36 622,-30 628,-30"/>
<text text-anchor="middle" x="708" y="-143.8" font-family="Times,serif" font-size="14.00">(aj(bj)*la(ka)*)|(aj(bj)*a)</text>
</g>
<g id="clust6" class="cluster">
<title>cluster5</title>
<path fill="#fff9dd" stroke="#fff9dd" d="M984,-8C984,-8 1276,-8 1276,-8 1282,-8 1288,-14 1288,-20 1288,-20 1288,-125 1288,-125 1288,-131 1282,-137 1276,-137 1276,-137 984,-137 984,-137 978,-137 972,-131 972,-125 972,-125 972,-20 972,-20 972,-14 978,-8 984,-8"/>
<text text-anchor="middle" x="1130" y="-121.8" font-family="Times,serif" font-size="14.00">((aj(bj)*la(ka)*)|(aj(bj)*a)a)|(aj(bj)*ala(ka)*)</text>
</g>
<g id="clust7" class="cluster">
<title>cluster6</title>
<path fill="#fff9dd" stroke="#fff9dd" d="M1524,-27C1524,-27 1816,-27 1816,-27 1822,-27 1828,-33 1828,-39 1828,-39 1828,-90 1828,-90 1828,-96 1822,-102 1816,-102 1816,-102 1524,-102 1524,-102 1518,-102 1512,-96 1512,-90 1512,-90 1512,-39 1512,-39 1512,-33 1518,-27 1524,-27"/>
<text text-anchor="middle" x="1670" y="-86.8" font-family="Times,serif" font-size="14.00">((aj(bj)*la(ka)*)|(aj(bj)*a)a)|(aj(bj)*ala(ka)*)</text>
</g>
<g id="clust8" class="cluster">
<title>cluster7</title>
<path fill="#fff9dd" stroke="#fff9dd" d="M2187,-27C2187,-27 2514,-27 2514,-27 2520,-27 2526,-33 2526,-39 2526,-39 2526,-90 2526,-90 2526,-96 2520,-102 2514,-102 2514,-102 2187,-102 2187,-102 2181,-102 2175,-96 2175,-90 2175,-90 2175,-39 2175,-39 2175,-33 2181,-27 2187,-27"/>
<text text-anchor="middle" x="2350.5" y="-86.8" font-family="Times,serif" font-size="14.00">((aj(bj)*la(ka)*)|(aj(bj)*a)a)|(aj(bj)*ala(ka)*)j(bj)*</text>
</g>
<g id="clust9" class="cluster">
<title>cluster8</title>
<path fill="#fff9dd" stroke="#fff9dd" d="M2948,-27C2948,-27 3275,-27 3275,-27 3281,-27 3287,-33 3287,-39 3287,-39 3287,-90 3287,-90 3287,-96 3281,-102 3275,-102 3275,-102 2948,-102 2948,-102 2942,-102 2936,-96 2936,-90 2936,-90 2936,-39 2936,-39 2936,-33 2942,-27 2948,-27"/>
<text text-anchor="middle" x="3111.5" y="-86.8" font-family="Times,serif" font-size="14.00">((aj(bj)*la(ka)*)|(aj(bj)*a)a)|(aj(bj)*ala(ka)*)j(bj)*</text>
</g>
<!-- M0S0 -->
<g id="node1" class="node">
<title>M0S0</title>
<path fill="#ffffff" stroke="black" d="M58,-101C58,-101 28,-101 28,-101 22,-101 16,-95 16,-89 16,-89 16,-77 16,-77 16,-71 22,-65 28,-65 28,-65 58,-65 58,-65 64,-65 70,-71 70,-77 70,-77 70,-89 70,-89 70,-95 64,-101 58,-101"/>
<text text-anchor="middle" x="43" y="-79.3" font-family="Times,serif" font-size="14.00">0</text>
</g>
<!-- M1S0 -->
<g id="node2" class="node">
<title>M1S0</title>
<path fill="#ffffff" stroke="black" d="M185,-101C185,-101 155,-101 155,-101 149,-101 143,-95 143,-89 143,-89 143,-77 143,-77 143,-71 149,-65 155,-65 155,-65 185,-65 185,-65 191,-65 197,-71 197,-77 197,-77 197,-89 197,-89 197,-95 191,-101 185,-101"/>
<text text-anchor="middle" x="170" y="-79.3" font-family="Times,serif" font-size="14.00">0</text>
</g>
<!-- M0S0&#45;&gt;M1S0 -->
<g id="edge1" class="edge">
<title>M0S0&#45;&gt;M1S0</title>
<path fill="none" stroke="black" d="M70.2,-83C88.37,-83 112.8,-83 132.82,-83"/>
<polygon fill="black" stroke="black" points="132.83,-86.5 142.83,-83 132.83,-79.5 132.83,-86.5"/>
<text text-anchor="middle" x="106.5" y="-86.8" font-family="Times,serif" font-size="14.00">(a, a)</text>
</g>
<!-- M2S1 -->
<g id="node3" class="node">
<title>M2S1</title>
<path fill="#ffffff" stroke="black" d="M311,-101C311,-101 281,-101 281,-101 275,-101 269,-95 269,-89 269,-89 269,-77 269,-77 269,-71 275,-65 281,-65 281,-65 311,-65 311,-65 317,-65 323,-71 323,-77 323,-77 323,-89 323,-89 323,-95 317,-101 311,-101"/>
<text text-anchor="middle" x="296" y="-79.3" font-family="Times,serif" font-size="14.00">1</text>
</g>
<!-- M1S0&#45;&gt;M2S1 -->
<g id="edge2" class="edge">
<title>M1S0&#45;&gt;M2S1</title>
<path fill="none" stroke="black" d="M197.3,-83C215.13,-83 238.95,-83 258.61,-83"/>
<polygon fill="black" stroke="black" points="258.74,-86.5 268.74,-83 258.74,-79.5 258.74,-86.5"/>
<text text-anchor="middle" x="233" y="-86.8" font-family="Times,serif" font-size="14.00">(ε, a)</text>
</g>
<!-- M3S7 -->
<g id="node4" class="node">
<title>M3S7</title>
<path fill="#ffffff" stroke="black" d="M500,-101C500,-101 470,-101 470,-101 464,-101 458,-95 458,-89 458,-89 458,-77 458,-77 458,-71 464,-65 470,-65 470,-65 500,-65 500,-65 506,-65 512,-71 512,-77 512,-77 512,-89 512,-89 512,-95 506,-101 500,-101"/>
<text text-anchor="middle" x="485" y="-79.3" font-family="Times,serif" font-size="14.00">7</text>
</g>
<!-- M2S1&#45;&gt;M3S7 -->
<g id="edge3" class="edge">
<title>M2S1&#45;&gt;M3S7</title>
<path fill="none" stroke="black" d="M323,-83C355.43,-83 411.04,-83 447.67,-83"/>
<polygon fill="black" stroke="black" points="447.92,-86.5 457.92,-83 447.92,-79.5 447.92,-86.5"/>
<text text-anchor="middle" x="390.5" y="-86.8" font-family="Times,serif" font-size="14.00">(j(bj)*, aj(bj)*)</text>
</g>
<!-- M4S4 -->
<g id="node5" class="node">
<title>M4S4</title>
<path fill="#ffffff" stroke="black" d="M723,-128C723,-128 693,-128 693,-128 687,-128 681,-122 681,-116 681,-116 681,-104 681,-104 681,-98 687,-92 693,-92 693,-92 723,-92 723,-92 729,-92 735,-98 735,-104 735,-104 735,-116 735,-116 735,-122 729,-128 723,-128"/>
<text text-anchor="middle" x="708" y="-106.3" font-family="Times,serif" font-size="14.00">4</text>
</g>
<!-- M3S7&#45;&gt;M4S4 -->
<g id="edge4" class="edge">
<title>M3S7&#45;&gt;M4S4</title>
<path fill="none" stroke="black" d="M512.22,-86.2C551.6,-91.01 626.13,-100.12 670.7,-105.57"/>
<polygon fill="black" stroke="black" points="670.46,-109.06 680.81,-106.8 671.31,-102.11 670.46,-109.06"/>
<text text-anchor="middle" x="568" y="-100.8" font-family="Times,serif" font-size="14.00">(ε, aj(bj)*l)</text>
</g>
<!-- M4S0 -->
<g id="node6" class="node">
<title>M4S0</title>
<path fill="#ffffff" stroke="black" d="M723,-74C723,-74 693,-74 693,-74 687,-74 681,-68 681,-62 681,-62 681,-50 681,-50 681,-44 687,-38 693,-38 693,-38 723,-38 723,-38 729,-38 735,-44 735,-50 735,-50 735,-62 735,-62 735,-68 729,-74 723,-74"/>
<text text-anchor="middle" x="708" y="-52.3" font-family="Times,serif" font-size="14.00">0</text>
</g>
<!-- M3S7&#45;&gt;M4S0 -->
<g id="edge5" class="edge">
<title>M3S7&#45;&gt;M4S0</title>
<path fill="none" stroke="black" d="M512.26,-73.54C518.04,-71.77 524.18,-70.12 530,-69 578.19,-59.7 634.93,-56.94 670.93,-56.18"/>
<polygon fill="black" stroke="black" points="671.02,-59.68 680.95,-56.01 670.9,-52.68 671.02,-59.68"/>
<text text-anchor="middle" x="568" y="-72.8" font-family="Times,serif" font-size="14.00">(ε, aj(bj)*)</text>
</g>
<!-- M5S0 -->
<g id="node7" class="node">
<title>M5S0</title>
<path fill="#ffffff" stroke="black" d="M1145,-106C1145,-106 1115,-106 1115,-106 1109,-106 1103,-100 1103,-94 1103,-94 1103,-82 1103,-82 1103,-76 1109,-70 1115,-70 1115,-70 1145,-70 1145,-70 1151,-70 1157,-76 1157,-82 1157,-82 1157,-94 1157,-94 1157,-100 1151,-106 1145,-106"/>
<text text-anchor="middle" x="1130" y="-84.3" font-family="Times,serif" font-size="14.00">0</text>
</g>
<!-- M4S4&#45;&gt;M5S0 -->
<g id="edge6" class="edge">
<title>M4S4&#45;&gt;M5S0</title>
<path fill="none" stroke="black" d="M735.27,-108.62C807.53,-104.84 1009.38,-94.27 1092.51,-89.91"/>
<polygon fill="black" stroke="black" points="1092.93,-93.39 1102.74,-89.38 1092.57,-86.4 1092.93,-93.39"/>
<text text-anchor="middle" x="886" y="-107.8" font-family="Times,serif" font-size="14.00">(a(ka)*, aj(bj)*la(ka)*)</text>
</g>
<!-- M4S0&#45;&gt;M5S0 -->
<g id="edge8" class="edge">
<title>M4S0&#45;&gt;M5S0</title>
<path fill="none" stroke="black" d="M735.27,-58C807.61,-63.51 1009.79,-78.92 1092.76,-85.24"/>
<polygon fill="black" stroke="black" points="1092.5,-88.73 1102.74,-86 1093.03,-81.75 1092.5,-88.73"/>
<text text-anchor="middle" x="886" y="-77.8" font-family="Times,serif" font-size="14.00">(a, aj(bj)*a)</text>
</g>
<!-- M5S4 -->
<g id="node8" class="node">
<title>M5S4</title>
<path fill="#ffffff" stroke="black" d="M1145,-52C1145,-52 1115,-52 1115,-52 1109,-52 1103,-46 1103,-40 1103,-40 1103,-28 1103,-28 1103,-22 1109,-16 1115,-16 1115,-16 1145,-16 1145,-16 1151,-16 1157,-22 1157,-28 1157,-28 1157,-40 1157,-40 1157,-46 1151,-52 1145,-52"/>
<text text-anchor="middle" x="1130" y="-30.3" font-family="Times,serif" font-size="14.00">4</text>
</g>
<!-- M4S0&#45;&gt;M5S4 -->
<g id="edge7" class="edge">
<title>M4S0&#45;&gt;M5S4</title>
<path fill="none" stroke="black" d="M735.35,-49C755.6,-43.99 784.35,-37.68 810,-35 912.11,-24.34 1033.6,-28.59 1092.87,-31.75"/>
<polygon fill="black" stroke="black" points="1092.68,-35.25 1102.85,-32.3 1093.06,-28.26 1092.68,-35.25"/>
<text text-anchor="middle" x="886" y="-38.8" font-family="Times,serif" font-size="14.00">(a, aj(bj)*al)</text>
</g>
<!-- M6S0 -->
<g id="node9" class="node">
<title>M6S0</title>
<path fill="#ffffff" stroke="black" d="M1685,-71C1685,-71 1655,-71 1655,-71 1649,-71 1643,-65 1643,-59 1643,-59 1643,-47 1643,-47 1643,-41 1649,-35 1655,-35 1655,-35 1685,-35 1685,-35 1691,-35 1697,-41 1697,-47 1697,-47 1697,-59 1697,-59 1697,-65 1691,-71 1685,-71"/>
<text text-anchor="middle" x="1670" y="-49.3" font-family="Times,serif" font-size="14.00">0</text>
</g>
<!-- M5S0&#45;&gt;M6S0 -->
<g id="edge9" class="edge">
<title>M5S0&#45;&gt;M6S0</title>
<path fill="none" stroke="black" d="M1157.31,-86.29C1245.54,-80.55 1531.02,-61.98 1632.65,-55.36"/>
<polygon fill="black" stroke="black" points="1632.99,-58.85 1642.74,-54.71 1632.53,-51.87 1632.99,-58.85"/>
<text text-anchor="middle" x="1400" y="-79.8" font-family="Times,serif" font-size="14.00">(a, (aj(bj)*la(ka)*)|(aj(bj)*a)a)</text>
</g>
<!-- M5S4&#45;&gt;M6S0 -->
<g id="edge10" class="edge">
<title>M5S4&#45;&gt;M6S0</title>
<path fill="none" stroke="black" d="M1157.09,-34.91C1217.66,-37.01 1372.54,-42.41 1502,-47 1547,-48.6 1598.82,-50.46 1632.65,-51.68"/>
<polygon fill="black" stroke="black" points="1632.85,-55.19 1642.97,-52.06 1633.1,-48.2 1632.85,-55.19"/>
<text text-anchor="middle" x="1400" y="-50.8" font-family="Times,serif" font-size="14.00">(a(ka)*, aj(bj)*ala(ka)*)</text>
</g>
<!-- M7S1 -->
<g id="node10" class="node">
<title>M7S1</title>
<path fill="#ffffff" stroke="black" d="M2365,-71C2365,-71 2335,-71 2335,-71 2329,-71 2323,-65 2323,-59 2323,-59 2323,-47 2323,-47 2323,-41 2329,-35 2335,-35 2335,-35 2365,-35 2365,-35 2371,-35 2377,-41 2377,-47 2377,-47 2377,-59 2377,-59 2377,-65 2371,-71 2365,-71"/>
<text text-anchor="middle" x="2350" y="-49.3" font-family="Times,serif" font-size="14.00">1</text>
</g>
<!-- M6S0&#45;&gt;M7S1 -->
<g id="edge11" class="edge">
<title>M6S0&#45;&gt;M7S1</title>
<path fill="none" stroke="black" d="M1697.16,-53C1801.93,-53 2191.36,-53 2312.68,-53"/>
<polygon fill="black" stroke="black" points="2312.92,-56.5 2322.92,-53 2312.91,-49.5 2312.92,-56.5"/>
<text text-anchor="middle" x="2001.5" y="-56.8" font-family="Times,serif" font-size="14.00">(ε, ((aj(bj)*la(ka)*)|(aj(bj)*a)a)|(aj(bj)*ala(ka)*))</text>
</g>
<!-- M8S7 -->
<g id="node11" class="node">
<title>M8S7</title>
<path fill="#ffffff" stroke="black" d="M3126,-71C3126,-71 3096,-71 3096,-71 3090,-71 3084,-65 3084,-59 3084,-59 3084,-47 3084,-47 3084,-41 3090,-35 3096,-35 3096,-35 3126,-35 3126,-35 3132,-35 3138,-41 3138,-47 3138,-47 3138,-59 3138,-59 3138,-65 3132,-71 3126,-71"/>
<text text-anchor="middle" x="3111" y="-49.3" font-family="Times,serif" font-size="14.00">7</text>
</g>
<!-- M7S1&#45;&gt;M8S7 -->
<g id="edge12" class="edge">
<title>M7S1&#45;&gt;M8S7</title>
<path fill="none" stroke="black" d="M2377.13,-53C2490.71,-53 2941.8,-53 3073.64,-53"/>
<polygon fill="black" stroke="black" points="3073.98,-56.5 3083.98,-53 3073.98,-49.5 3073.98,-56.5"/>
<text text-anchor="middle" x="2731" y="-56.8" font-family="Times,serif" font-size="14.00">(j(bj)*, ((aj(bj)*la(ka)*)|(aj(bj)*a)a)|(aj(bj)*ala(ka)*)j(bj)*)</text>
</g>
</g>
</svg>
