<?xml version="1.0" encoding="UTF-8" standalone="no"?>
<!DOCTYPE svg PUBLIC "-//W3C//DTD SVG 1.1//EN"
 "http://www.w3.org/Graphics/SVG/1.1/DTD/svg11.dtd">
<!-- Generated by graphviz version 2.43.0 (0)
 -->
<!-- Title: EXPinput/s2 Pages: 1 -->
<svg width="398pt" height="473pt"
 viewBox="0.00 0.00 398.00 473.00" xmlns="http://www.w3.org/2000/svg" xmlns:xlink="http://www.w3.org/1999/xlink">
<g id="graph0" class="graph" transform="scale(1 1) rotate(0) translate(4 469)">
<title>EXPinput/s2</title>
<polygon fill="white" stroke="transparent" points="-4,4 -4,-469 394,-469 394,4 -4,4"/>
<g id="clust1" class="cluster">
<title>cluster0</title>
<path fill="#eaffee" stroke="#eaffee" d="M172,-204C172,-204 281,-204 281,-204 287,-204 293,-210 293,-216 293,-216 293,-351 293,-351 293,-357 287,-363 281,-363 281,-363 172,-363 172,-363 166,-363 160,-357 160,-351 160,-351 160,-216 160,-216 160,-210 166,-204 172,-204"/>
<text text-anchor="middle" x="226.5" y="-347.8" font-family="Times,serif" font-size="14.00" fill="#b2ccbb">C0</text>
</g>
<g id="clust2" class="cluster">
<title>cluster1</title>
<path fill="#eaffee" stroke="#eaffee" d="M178,-8C178,-8 281,-8 281,-8 287,-8 293,-14 293,-20 293,-20 293,-159 293,-159 293,-165 287,-171 281,-171 281,-171 178,-171 178,-171 172,-171 166,-165 166,-159 166,-159 166,-20 166,-20 166,-14 172,-8 178,-8"/>
<text text-anchor="middle" x="229.5" y="-155.8" font-family="Times,serif" font-size="14.00" fill="#b2ccbb">C1</text>
</g>
<g id="clust3" class="cluster">
<title>cluster2</title>
<path fill="#eaffee" stroke="#eaffee" d="M20,-298C20,-298 123,-298 123,-298 129,-298 135,-304 135,-310 135,-310 135,-445 135,-445 135,-451 129,-457 123,-457 123,-457 20,-457 20,-457 14,-457 8,-451 8,-445 8,-445 8,-310 8,-310 8,-304 14,-298 20,-298"/>
<text text-anchor="middle" x="71.5" y="-441.8" font-family="Times,serif" font-size="14.00" fill="#b2ccbb">C2</text>
</g>
<g id="clust4" class="cluster">
<title>cluster3</title>
<path fill="#eaffee" stroke="#eaffee" d="M38,-8C38,-8 52,-8 52,-8 58,-8 64,-14 64,-20 64,-20 64,-57 64,-57 64,-63 58,-69 52,-69 52,-69 38,-69 38,-69 32,-69 26,-63 26,-57 26,-57 26,-20 26,-20 26,-14 32,-8 38,-8"/>
<text text-anchor="middle" x="45" y="-53.8" font-family="Times,serif" font-size="14.00" fill="#b2ccbb">C3</text>
</g>
<g id="clust5" class="cluster">
<title>cluster4</title>
<path fill="#eaffee" stroke="#eaffee" d="M116,-204C116,-204 130,-204 130,-204 136,-204 142,-210 142,-216 142,-216 142,-253 142,-253 142,-259 136,-265 130,-265 130,-265 116,-265 116,-265 110,-265 104,-259 104,-253 104,-253 104,-216 104,-216 104,-210 110,-204 116,-204"/>
<text text-anchor="middle" x="123" y="-249.8" font-family="Times,serif" font-size="14.00" fill="#b2ccbb">C4</text>
</g>
<!-- C0S0 -->
<g id="node1" class="node">
<title>C0S0</title>
<polygon fill="white" stroke="black" points="197,-316.44 197,-325.56 190.56,-332 181.44,-332 175,-325.56 175,-316.44 181.44,-310 190.56,-310 197,-316.44"/>
</g>
<!-- C0S1 -->
<g id="node2" class="node">
<title>C0S1</title>
<polygon fill="white" stroke="black" points="209,-218.44 209,-227.56 202.56,-234 193.44,-234 187,-227.56 187,-218.44 193.44,-212 202.56,-212 209,-218.44"/>
</g>
<!-- C0S0&#45;&gt;C0S1 -->
<g id="edge1" class="edge">
<title>C0S0&#45;&gt;C0S1</title>
<path fill="none" stroke="darkgray" d="M185.63,-309.87C185.43,-300.33 185.46,-285.64 187,-273 188.18,-263.28 190.45,-252.65 192.61,-243.79"/>
<polygon fill="darkgray" stroke="darkgray" points="196.02,-244.59 195.13,-234.03 189.24,-242.84 196.02,-244.59"/>
<text text-anchor="middle" x="204.5" y="-276.8" font-family="Times,serif" font-size="14.00" fill="darkgray">t3R1</text>
</g>
<!-- C2S0 -->
<g id="node5" class="node">
<title>C2S0</title>
<ellipse fill="white" stroke="black" cx="92" cy="-415" rx="11" ry="11"/>
</g>
<!-- C0S0&#45;&gt;C2S0 -->
<g id="edge9" class="edge">
<title>C0S0&#45;&gt;C2S0</title>
<path fill="none" stroke="black" stroke-dasharray="5,2" d="M178.4,-329.44C162.76,-344.74 126.77,-379.97 106.52,-399.79"/>
<polygon fill="black" stroke="black" points="99.38,-406.78 103.38,-396.57 102.95,-403.28 106.52,-399.79 106.52,-399.79 106.52,-399.79 102.95,-403.28 109.67,-403 99.38,-406.78 99.38,-406.78"/>
<text text-anchor="middle" x="149.5" y="-374.8" font-family="Times,serif" font-size="14.00">O1 ε</text>
</g>
<!-- C0S1&#45;&gt;C0S0 -->
<g id="edge6" class="edge">
<title>C0S1&#45;&gt;C0S0</title>
<path fill="none" stroke="black" stroke-dasharray="5,2" d="M205.07,-232.01C214.98,-244.26 230.85,-268.3 222,-288 218.19,-296.47 210.91,-303.62 203.89,-308.99"/>
<polygon fill="black" stroke="black" points="195.41,-314.82 201.1,-305.45 199.53,-311.99 203.65,-309.16 203.65,-309.16 203.65,-309.16 199.53,-311.99 206.2,-312.87 195.41,-314.82 195.41,-314.82"/>
<text text-anchor="middle" x="244.5" y="-276.8" font-family="Times,serif" font-size="14.00">O2 r1</text>
</g>
<!-- C1S0 -->
<g id="node3" class="node">
<title>C1S0</title>
<polygon fill="white" stroke="black" points="203,-120.44 203,-129.56 196.56,-136 187.44,-136 181,-129.56 181,-120.44 187.44,-114 196.56,-114 203,-120.44"/>
<polygon fill="none" stroke="black" points="207,-118.79 207,-131.21 198.21,-140 185.79,-140 177,-131.21 177,-118.79 185.79,-110 198.21,-110 207,-118.79"/>
</g>
<!-- C0S1&#45;&gt;C1S0 -->
<g id="edge7" class="edge">
<title>C0S1&#45;&gt;C1S0</title>
<path fill="none" stroke="black" stroke-dasharray="5,2" d="M197.36,-211.73C196.45,-197.2 194.76,-170.21 193.52,-150.38"/>
<polygon fill="black" stroke="black" points="192.89,-140.23 198,-149.93 193.2,-145.22 193.51,-150.21 193.51,-150.21 193.51,-150.21 193.2,-145.22 189.02,-150.49 192.89,-140.23 192.89,-140.23"/>
<text text-anchor="middle" x="226.5" y="-182.8" font-family="Times,serif" font-size="14.00">O2R5 r1</text>
</g>
<!-- C1S1 -->
<g id="node4" class="node">
<title>C1S1</title>
<polygon fill="white" stroke="black" points="261,-22.44 261,-31.56 254.56,-38 245.44,-38 239,-31.56 239,-22.44 245.44,-16 254.56,-16 261,-22.44"/>
</g>
<!-- C1S0&#45;&gt;C1S1 -->
<g id="edge2" class="edge">
<title>C1S0&#45;&gt;C1S1</title>
<path fill="none" stroke="darkgray" d="M189.38,-109.74C188.28,-100.05 188.19,-87.19 193,-77 200.98,-60.1 217.87,-46.77 231.21,-38.31"/>
<polygon fill="darkgray" stroke="darkgray" points="233.3,-41.14 240.11,-33.02 229.73,-35.12 233.3,-41.14"/>
<text text-anchor="middle" x="210.5" y="-80.8" font-family="Times,serif" font-size="14.00" fill="darkgray">t3R1</text>
</g>
<!-- C3S0 -->
<g id="node7" class="node">
<title>C3S0</title>
<ellipse fill="white" stroke="black" cx="45" cy="-27" rx="11" ry="11"/>
</g>
<!-- C1S0&#45;&gt;C3S0 -->
<g id="edge10" class="edge">
<title>C1S0&#45;&gt;C3S0</title>
<path fill="none" stroke="black" stroke-dasharray="5,2" d="M176.94,-122.28C146.11,-118.45 77.35,-108.26 61,-92 49.59,-80.66 45.89,-62.49 44.87,-48.41"/>
<polygon fill="black" stroke="black" points="44.53,-38.2 49.36,-48.04 44.69,-43.2 44.86,-48.19 44.86,-48.19 44.86,-48.19 44.69,-43.2 40.36,-48.34 44.53,-38.2 44.53,-38.2"/>
<text text-anchor="middle" x="123" y="-80.8" font-family="Times,serif" font-size="14.00">O1 (r1(r4r1)*r4)?</text>
</g>
<!-- C1S1&#45;&gt;C0S0 -->
<g id="edge8" class="edge">
<title>C1S1&#45;&gt;C0S0</title>
<path fill="none" stroke="black" stroke-dasharray="5,2" d="M255.93,-36.92C261.84,-46.4 270.54,-62.05 274,-77 295.18,-168.38 323.06,-211.34 269,-288 255.02,-307.82 226.96,-315.37 207.35,-318.24"/>
<polygon fill="black" stroke="black" points="197.21,-319.42 206.62,-313.79 202.18,-318.84 207.14,-318.26 207.14,-318.26 207.14,-318.26 202.18,-318.84 207.67,-322.73 197.21,-319.42 197.21,-319.42"/>
<text text-anchor="middle" x="345" y="-182.8" font-family="Times,serif" font-size="14.00">O2 r1(r4r1)*</text>
</g>
<!-- C1S1&#45;&gt;C1S0 -->
<g id="edge3" class="edge">
<title>C1S1&#45;&gt;C1S0</title>
<path fill="none" stroke="darkgray" d="M248.16,-38.26C245.42,-51.53 239.33,-74.99 228,-92 223.76,-98.36 217.97,-104.26 212.26,-109.21"/>
<polygon fill="darkgray" stroke="darkgray" points="209.75,-106.74 204.16,-115.74 214.14,-112.19 209.75,-106.74"/>
<text text-anchor="middle" x="252.5" y="-80.8" font-family="Times,serif" font-size="14.00" fill="darkgray">t8R4</text>
</g>
<!-- C2S1 -->
<g id="node6" class="node">
<title>C2S1</title>
<polygon fill="white" stroke="black" points="45,-316.44 45,-325.56 38.56,-332 29.44,-332 23,-325.56 23,-316.44 29.44,-310 38.56,-310 45,-316.44"/>
<polygon fill="none" stroke="black" points="49,-314.79 49,-327.21 40.21,-336 27.79,-336 19,-327.21 19,-314.79 27.79,-306 40.21,-306 49,-314.79"/>
</g>
<!-- C2S0&#45;&gt;C2S1 -->
<g id="edge4" class="edge">
<title>C2S0&#45;&gt;C2S1</title>
<path fill="none" stroke="darkgray" d="M80.9,-412.11C67.39,-409.15 45.15,-402.02 35,-386 27.61,-374.34 27.16,-358.93 28.65,-346.15"/>
<polygon fill="darkgray" stroke="darkgray" points="32.12,-346.6 30.25,-336.17 25.21,-345.49 32.12,-346.6"/>
<text text-anchor="middle" x="52.5" y="-374.8" font-family="Times,serif" font-size="14.00" fill="darkgray">t7R3</text>
</g>
<!-- C2S1&#45;&gt;C2S0 -->
<g id="edge5" class="edge">
<title>C2S1&#45;&gt;C2S0</title>
<path fill="none" stroke="darkgray" d="M43.13,-333.32C50.75,-343.02 61.68,-357.53 70,-371 74.78,-378.74 79.46,-387.64 83.26,-395.33"/>
<polygon fill="darkgray" stroke="darkgray" points="80.21,-397.05 87.7,-404.54 86.51,-394.01 80.21,-397.05"/>
<text text-anchor="middle" x="94.5" y="-374.8" font-family="Times,serif" font-size="14.00" fill="darkgray">t4R2</text>
</g>
<!-- C4S0 -->
<g id="node8" class="node">
<title>C4S0</title>
<polygon fill="white" stroke="black" points="134,-218.44 134,-227.56 127.56,-234 118.44,-234 112,-227.56 112,-218.44 118.44,-212 127.56,-212 134,-218.44"/>
</g>
<!-- C2S1&#45;&gt;C4S0 -->
<g id="edge11" class="edge">
<title>C2S1&#45;&gt;C4S0</title>
<path fill="none" stroke="black" stroke-dasharray="5,2" d="M34.53,-305.68C35.53,-295.71 38.18,-282.55 45,-273 59.36,-252.89 84.8,-239.2 102.72,-231.51"/>
<polygon fill="black" stroke="black" points="112.02,-227.76 104.42,-235.68 107.38,-229.63 102.74,-231.5 102.74,-231.5 102.74,-231.5 107.38,-229.63 101.06,-227.33 112.02,-227.76 112.02,-227.76"/>
<text text-anchor="middle" x="90" y="-276.8" font-family="Times,serif" font-size="14.00">O1 r3(r2r3)*</text>
</g>
<!-- C4S0&#45;&gt;C0S0 -->
<g id="edge13" class="edge">
<title>C4S0&#45;&gt;C0S0</title>
<path fill="none" stroke="black" stroke-dasharray="5,2" d="M125.33,-234.3C128.71,-247.62 135.91,-271.13 148,-288 153.58,-295.79 161.47,-302.84 168.62,-308.34"/>
<polygon fill="black" stroke="black" points="177.05,-314.39 166.3,-312.21 172.99,-311.47 168.93,-308.56 168.93,-308.56 168.93,-308.56 172.99,-311.47 171.55,-304.9 177.05,-314.39 177.05,-314.39"/>
<text text-anchor="middle" x="164.5" y="-276.8" font-family="Times,serif" font-size="14.00">O2 ε</text>
</g>
<!-- C4S0&#45;&gt;C1S0 -->
<g id="edge12" class="edge">
<title>C4S0&#45;&gt;C1S0</title>
<path fill="none" stroke="black" stroke-dasharray="5,2" d="M125.44,-211.88C127.93,-202.79 132.37,-189.32 139,-179 148.08,-164.86 161.48,-151.51 172.53,-141.74"/>
<polygon fill="black" stroke="black" points="180.42,-135.01 175.73,-144.93 176.61,-138.26 172.81,-141.5 172.81,-141.5 172.81,-141.5 176.61,-138.26 169.89,-138.08 180.42,-135.01 180.42,-135.01"/>
<text text-anchor="middle" x="165" y="-182.8" font-family="Times,serif" font-size="14.00">O2R5 ε</text>
</g>
</g>
</svg>
