<?xml version="1.0" encoding="UTF-8" standalone="no"?>
<!DOCTYPE svg PUBLIC "-//W3C//DTD SVG 1.1//EN"
 "http://www.w3.org/Graphics/SVG/1.1/DTD/svg11.dtd">
<!-- Generated by graphviz version 2.43.0 (0)
 -->
<!-- Title: EXPinput/s2 Pages: 1 -->
<svg width="324pt" height="477pt"
 viewBox="0.00 0.00 324.00 477.00" xmlns="http://www.w3.org/2000/svg" xmlns:xlink="http://www.w3.org/1999/xlink">
<g id="graph0" class="graph" transform="scale(1 1) rotate(0) translate(4 473)">
<title>EXPinput/s2</title>
<polygon fill="white" stroke="transparent" points="-4,4 -4,-473 320,-473 320,4 -4,4"/>
<g id="clust1" class="cluster">
<title>cluster0</title>
<path fill="#eaffee" stroke="#eaffee" d="M145,-204C145,-204 236,-204 236,-204 242,-204 248,-210 248,-216 248,-216 248,-355 248,-355 248,-361 242,-367 236,-367 236,-367 145,-367 145,-367 139,-367 133,-361 133,-355 133,-355 133,-216 133,-216 133,-210 139,-204 145,-204"/>
<text text-anchor="middle" x="190.5" y="-351.8" font-family="Times,serif" font-size="14.00" fill="#b2ccbb">C0</text>
</g>
<g id="clust2" class="cluster">
<title>cluster1</title>
<path fill="#eaffee" stroke="#eaffee" d="M154,-8C154,-8 235,-8 235,-8 241,-8 247,-14 247,-20 247,-20 247,-159 247,-159 247,-165 241,-171 235,-171 235,-171 154,-171 154,-171 148,-171 142,-165 142,-159 142,-159 142,-20 142,-20 142,-14 148,-8 154,-8"/>
<text text-anchor="middle" x="194.5" y="-155.8" font-family="Times,serif" font-size="14.00" fill="#b2ccbb">C1</text>
</g>
<g id="clust3" class="cluster">
<title>cluster2</title>
<path fill="#eaffee" stroke="#eaffee" d="M20,-298C20,-298 98,-298 98,-298 104,-298 110,-304 110,-310 110,-310 110,-449 110,-449 110,-455 104,-461 98,-461 98,-461 20,-461 20,-461 14,-461 8,-455 8,-449 8,-449 8,-310 8,-310 8,-304 14,-298 20,-298"/>
<text text-anchor="middle" x="59" y="-445.8" font-family="Times,serif" font-size="14.00" fill="#b2ccbb">C2</text>
</g>
<g id="clust4" class="cluster">
<title>cluster3</title>
<path fill="#eaffee" stroke="#eaffee" d="M44,-8C44,-8 58,-8 58,-8 64,-8 70,-14 70,-20 70,-20 70,-57 70,-57 70,-63 64,-69 58,-69 58,-69 44,-69 44,-69 38,-69 32,-63 32,-57 32,-57 32,-20 32,-20 32,-14 38,-8 44,-8"/>
<text text-anchor="middle" x="51" y="-53.8" font-family="Times,serif" font-size="14.00" fill="#b2ccbb">C3</text>
</g>
<g id="clust5" class="cluster">
<title>cluster4</title>
<path fill="#eaffee" stroke="#eaffee" d="M96,-204C96,-204 110,-204 110,-204 116,-204 122,-210 122,-216 122,-216 122,-253 122,-253 122,-259 116,-265 110,-265 110,-265 96,-265 96,-265 90,-265 84,-259 84,-253 84,-253 84,-216 84,-216 84,-210 90,-204 96,-204"/>
<text text-anchor="middle" x="103" y="-249.8" font-family="Times,serif" font-size="14.00" fill="#b2ccbb">C4</text>
</g>
<!-- C0S0 -->
<g id="node1" class="node">
<title>C0S0</title>
<polygon fill="white" stroke="black" points="170,-316.44 170,-325.56 163.56,-332 154.44,-332 148,-325.56 148,-316.44 154.44,-310 163.56,-310 170,-316.44"/>
<polygon fill="none" stroke="black" points="174,-314.79 174,-327.21 165.21,-336 152.79,-336 144,-327.21 144,-314.79 152.79,-306 165.21,-306 174,-314.79"/>
</g>
<!-- C0S1 -->
<g id="node2" class="node">
<title>C0S1</title>
<polygon fill="white" stroke="black" points="177,-218.44 177,-227.56 170.56,-234 161.44,-234 155,-227.56 155,-218.44 161.44,-212 170.56,-212 177,-218.44"/>
</g>
<!-- C0S0&#45;&gt;C0S1 -->
<g id="edge1" class="edge">
<title>C0S0&#45;&gt;C0S1</title>
<path fill="none" stroke="darkgray" d="M158.93,-306C158.97,-296.64 159.21,-284.07 160,-273 160.68,-263.5 161.9,-253.02 163.06,-244.2"/>
<polygon fill="darkgray" stroke="darkgray" points="166.56,-244.49 164.46,-234.11 159.62,-243.53 166.56,-244.49"/>
<text text-anchor="middle" x="172" y="-276.8" font-family="Times,serif" font-size="14.00" fill="darkgray">t3a</text>
</g>
<!-- C2S0 -->
<g id="node5" class="node">
<title>C2S0</title>
<ellipse fill="white" stroke="black" cx="77" cy="-419" rx="11" ry="11"/>
</g>
<!-- C0S0&#45;&gt;C2S0 -->
<g id="edge9" class="edge">
<title>C0S0&#45;&gt;C2S0</title>
<path fill="none" stroke="black" stroke-dasharray="5,2" d="M149.47,-333.16C134.84,-350.28 106.83,-383.08 90.24,-402.5"/>
<polygon fill="black" stroke="black" points="83.71,-410.14 86.78,-399.62 86.96,-406.34 90.21,-402.54 90.21,-402.54 90.21,-402.54 86.96,-406.34 93.63,-405.46 83.71,-410.14 83.71,-410.14"/>
<text text-anchor="middle" x="129.5" y="-378.8" font-family="Times,serif" font-size="14.00">O1 ε</text>
</g>
<!-- C0S1&#45;&gt;C0S0 -->
<g id="edge6" class="edge">
<title>C0S1&#45;&gt;C0S0</title>
<path fill="none" stroke="black" stroke-dasharray="5,2" d="M171.86,-232.79C179.37,-245.22 190.69,-268.57 184,-288 182.24,-293.12 179.28,-298.04 176.01,-302.43"/>
<polygon fill="black" stroke="black" points="169.56,-310.12 172.54,-299.57 172.77,-306.29 175.99,-302.46 175.99,-302.46 175.99,-302.46 172.77,-306.29 179.43,-305.36 169.56,-310.12 169.56,-310.12"/>
<text text-anchor="middle" x="203" y="-276.8" font-family="Times,serif" font-size="14.00">O2 a</text>
</g>
<!-- C1S0 -->
<g id="node3" class="node">
<title>C1S0</title>
<polygon fill="white" stroke="black" points="177,-120.44 177,-129.56 170.56,-136 161.44,-136 155,-129.56 155,-120.44 161.44,-114 170.56,-114 177,-120.44"/>
<polygon fill="none" stroke="black" points="181,-118.79 181,-131.21 172.21,-140 159.79,-140 151,-131.21 151,-118.79 159.79,-110 172.21,-110 181,-118.79"/>
</g>
<!-- C0S1&#45;&gt;C1S0 -->
<g id="edge7" class="edge">
<title>C0S1&#45;&gt;C1S0</title>
<path fill="none" stroke="black" stroke-dasharray="5,2" d="M166,-211.73C166,-197.2 166,-170.21 166,-150.38"/>
<polygon fill="black" stroke="black" points="166,-140.23 170.5,-150.23 166,-145.23 166,-150.23 166,-150.23 166,-150.23 166,-145.23 161.5,-150.23 166,-140.23 166,-140.23"/>
<text text-anchor="middle" x="185" y="-182.8" font-family="Times,serif" font-size="14.00">O2l a</text>
</g>
<!-- C1S1 -->
<g id="node4" class="node">
<title>C1S1</title>
<polygon fill="white" stroke="black" points="226,-22.44 226,-31.56 219.56,-38 210.44,-38 204,-31.56 204,-22.44 210.44,-16 219.56,-16 226,-22.44"/>
</g>
<!-- C1S0&#45;&gt;C1S1 -->
<g id="edge2" class="edge">
<title>C1S0&#45;&gt;C1S1</title>
<path fill="none" stroke="darkgray" d="M164.47,-109.85C163.99,-100.2 164.51,-87.35 169,-77 175.3,-62.45 187.88,-49.53 198.3,-40.62"/>
<polygon fill="darkgray" stroke="darkgray" points="200.76,-43.13 206.35,-34.13 196.37,-37.68 200.76,-43.13"/>
<text text-anchor="middle" x="181" y="-80.8" font-family="Times,serif" font-size="14.00" fill="darkgray">t3a</text>
</g>
<!-- C3S0 -->
<g id="node7" class="node">
<title>C3S0</title>
<ellipse fill="white" stroke="black" cx="51" cy="-27" rx="11" ry="11"/>
</g>
<!-- C1S0&#45;&gt;C3S0 -->
<g id="edge10" class="edge">
<title>C1S0&#45;&gt;C3S0</title>
<path fill="none" stroke="black" stroke-dasharray="5,2" d="M150.87,-123.49C129.13,-121.92 89.2,-115.75 67,-92 56.02,-80.25 52.27,-62.13 51.12,-48.16"/>
<polygon fill="black" stroke="black" points="50.67,-38.06 55.61,-47.85 50.9,-43.05 51.12,-48.05 51.12,-48.05 51.12,-48.05 50.9,-43.05 46.62,-48.25 50.67,-38.06 50.67,-38.06"/>
<text text-anchor="middle" x="114" y="-80.8" font-family="Times,serif" font-size="14.00">O1 (a(ka)*k)?</text>
</g>
<!-- C1S1&#45;&gt;C0S0 -->
<g id="edge8" class="edge">
<title>C1S1&#45;&gt;C0S0</title>
<path fill="none" stroke="black" stroke-dasharray="5,2" d="M219.13,-38.25C233.37,-75.4 276.75,-205.13 224,-288 215.14,-301.92 198.3,-309.97 183.98,-314.52"/>
<polygon fill="black" stroke="black" points="174.14,-317.25 182.58,-310.24 178.96,-315.91 183.78,-314.58 183.78,-314.58 183.78,-314.58 178.96,-315.91 184.98,-318.91 174.14,-317.25 174.14,-317.25"/>
<text text-anchor="middle" x="282.5" y="-182.8" font-family="Times,serif" font-size="14.00">O2 a(ka)*</text>
</g>
<!-- C1S1&#45;&gt;C1S0 -->
<g id="edge3" class="edge">
<title>C1S1&#45;&gt;C1S0</title>
<path fill="none" stroke="darkgray" d="M212.78,-38.02C209.63,-51.04 203.09,-74.22 193,-92 190.25,-96.85 186.72,-101.68 183.12,-106.05"/>
<polygon fill="darkgray" stroke="darkgray" points="180.29,-103.97 176.32,-113.79 185.55,-108.59 180.29,-103.97"/>
<text text-anchor="middle" x="212" y="-80.8" font-family="Times,serif" font-size="14.00" fill="darkgray">t8k</text>
</g>
<!-- C2S1 -->
<g id="node6" class="node">
<title>C2S1</title>
<polygon fill="white" stroke="black" points="45,-316.44 45,-325.56 38.56,-332 29.44,-332 23,-325.56 23,-316.44 29.44,-310 38.56,-310 45,-316.44"/>
<polygon fill="none" stroke="black" points="49,-314.79 49,-327.21 40.21,-336 27.79,-336 19,-327.21 19,-314.79 27.79,-306 40.21,-306 49,-314.79"/>
</g>
<!-- C2S0&#45;&gt;C2S1 -->
<g id="edge4" class="edge">
<title>C2S0&#45;&gt;C2S1</title>
<path fill="none" stroke="darkgray" d="M66.92,-414.49C56.81,-410.37 41.79,-402.47 35,-390 27.83,-376.83 27.53,-359.98 29.04,-346.35"/>
<polygon fill="darkgray" stroke="darkgray" points="32.54,-346.65 30.55,-336.25 25.61,-345.62 32.54,-346.65"/>
<text text-anchor="middle" x="45" y="-378.8" font-family="Times,serif" font-size="14.00" fill="darkgray">t7j</text>
</g>
<!-- C2S1&#45;&gt;C2S0 -->
<g id="edge5" class="edge">
<title>C2S1&#45;&gt;C2S0</title>
<path fill="none" stroke="darkgray" d="M40.39,-336.27C47.94,-353.13 60.52,-381.21 68.79,-399.66"/>
<polygon fill="darkgray" stroke="darkgray" points="65.59,-401.1 72.88,-408.8 71.98,-398.24 65.59,-401.1"/>
<text text-anchor="middle" x="76.5" y="-378.8" font-family="Times,serif" font-size="14.00" fill="darkgray">t4b</text>
</g>
<!-- C4S0 -->
<g id="node8" class="node">
<title>C4S0</title>
<polygon fill="white" stroke="black" points="114,-218.44 114,-227.56 107.56,-234 98.44,-234 92,-227.56 92,-218.44 98.44,-212 107.56,-212 114,-218.44"/>
</g>
<!-- C2S1&#45;&gt;C4S0 -->
<g id="edge11" class="edge">
<title>C2S1&#45;&gt;C4S0</title>
<path fill="none" stroke="black" stroke-dasharray="5,2" d="M36.55,-305.59C38.75,-295.82 42.61,-282.94 49,-273 58.6,-258.07 73.89,-244.79 85.75,-235.83"/>
<polygon fill="black" stroke="black" points="94.01,-229.87 88.53,-239.38 89.95,-232.8 85.9,-235.73 85.9,-235.73 85.9,-235.73 89.95,-232.8 83.26,-232.08 94.01,-229.87 94.01,-229.87"/>
<text text-anchor="middle" x="79.5" y="-276.8" font-family="Times,serif" font-size="14.00">O1 j(bj)*</text>
</g>
<!-- C4S0&#45;&gt;C0S0 -->
<g id="edge13" class="edge">
<title>C4S0&#45;&gt;C0S0</title>
<path fill="none" stroke="black" stroke-dasharray="5,2" d="M104.23,-234.28C106.22,-247.58 111.06,-271.06 122,-288 126.31,-294.67 132.4,-300.74 138.41,-305.75"/>
<polygon fill="black" stroke="black" points="146.36,-311.89 135.7,-309.34 142.4,-308.84 138.45,-305.78 138.45,-305.78 138.45,-305.78 142.4,-308.84 141.2,-302.22 146.36,-311.89 146.36,-311.89"/>
<text text-anchor="middle" x="138.5" y="-276.8" font-family="Times,serif" font-size="14.00">O2 ε</text>
</g>
<!-- C4S0&#45;&gt;C1S0 -->
<g id="edge12" class="edge">
<title>C4S0&#45;&gt;C1S0</title>
<path fill="none" stroke="black" stroke-dasharray="5,2" d="M107.56,-211.8C111.69,-202.9 118.17,-189.76 125,-179 132.52,-167.15 142.06,-154.7 150.05,-144.84"/>
<polygon fill="black" stroke="black" points="156.57,-136.93 153.68,-147.51 153.39,-140.79 150.21,-144.64 150.21,-144.64 150.21,-144.64 153.39,-140.79 146.74,-141.78 156.57,-136.93 156.57,-136.93"/>
<text text-anchor="middle" x="143.5" y="-182.8" font-family="Times,serif" font-size="14.00">O2l ε</text>
</g>
</g>
</svg>
