<?xml version="1.0" encoding="UTF-8" standalone="no"?>
<!DOCTYPE svg PUBLIC "-//W3C//DTD SVG 1.1//EN"
 "http://www.w3.org/Graphics/SVG/1.1/DTD/svg11.dtd">
<!-- Generated by graphviz version 2.43.0 (0)
 -->
<!-- Title: SCinput/s2 Pages: 1 -->
<svg width="460pt" height="653pt"
 viewBox="0.00 0.00 460.00 653.00" xmlns="http://www.w3.org/2000/svg" xmlns:xlink="http://www.w3.org/1999/xlink">
<g id="graph0" class="graph" transform="scale(1 1) rotate(0) translate(4 649)">
<title>SCinput/s2</title>
<polygon fill="white" stroke="transparent" points="-4,4 -4,-649 456,-649 456,4 -4,4"/>
<!-- R00_Le -->
<g id="node1" class="node">
<title>R00_Le</title>
<ellipse fill="#ffeeee" stroke="black" cx="135" cy="-627" rx="44.69" ry="18"/>
<text text-anchor="middle" x="135" y="-623.3" font-family="Times,serif" font-size="14.00">R00_Le</text>
</g>
<!-- R10_L1 -->
<g id="node2" class="node">
<title>R10_L1</title>
<ellipse fill="#ffffff" stroke="black" cx="190" cy="-540" rx="45.49" ry="18"/>
<text text-anchor="middle" x="190" y="-536.3" font-family="Times,serif" font-size="14.00">R10_L1</text>
</g>
<!-- R00_Le&#45;&gt;R10_L1 -->
<g id="edge2" class="edge">
<title>R00_Le&#45;&gt;R10_L1</title>
<path fill="none" stroke="black" d="M145.87,-609.21C153.78,-596.98 164.63,-580.21 173.59,-566.36"/>
<polygon fill="black" stroke="black" points="176.66,-568.06 179.16,-557.76 170.79,-564.25 176.66,-568.06"/>
<text text-anchor="middle" x="183" y="-579.8" font-family="Times,serif" font-size="14.00">t1O1</text>
</g>
<!-- R00_L2 -->
<g id="node8" class="node">
<title>R00_L2</title>
<ellipse fill="#ffffff" stroke="black" cx="189" cy="-18" rx="45.49" ry="18"/>
<text text-anchor="middle" x="189" y="-14.3" font-family="Times,serif" font-size="14.00">R00_L2</text>
</g>
<!-- R00_Le&#45;&gt;R00_L2 -->
<g id="edge1" class="edge">
<title>R00_Le&#45;&gt;R00_L2</title>
<path fill="none" stroke="black" d="M95.23,-618.56C55.4,-608.53 0,-586.42 0,-541 0,-541 0,-541 0,-104 0,-44.9 77.83,-26.65 133.6,-21.15"/>
<polygon fill="black" stroke="black" points="134.07,-24.63 143.73,-20.27 133.46,-17.65 134.07,-24.63"/>
<text text-anchor="middle" x="17.5" y="-318.8" font-family="Times,serif" font-size="14.00">t3R1</text>
</g>
<!-- R11_Le -->
<g id="node3" class="node">
<title>R11_Le</title>
<ellipse fill="#ffeeee" stroke="black" cx="226" cy="-453" rx="44.69" ry="18"/>
<text text-anchor="middle" x="226" y="-449.3" font-family="Times,serif" font-size="14.00">R11_Le</text>
</g>
<!-- R10_L1&#45;&gt;R11_Le -->
<g id="edge4" class="edge">
<title>R10_L1&#45;&gt;R11_Le</title>
<path fill="none" stroke="black" d="M197.11,-522.21C202.16,-510.29 209.03,-494.06 214.81,-480.42"/>
<polygon fill="black" stroke="black" points="218.1,-481.62 218.78,-471.05 211.66,-478.89 218.1,-481.62"/>
<text text-anchor="middle" x="228" y="-492.8" font-family="Times,serif" font-size="14.00">t5O2</text>
</g>
<!-- R10_Le -->
<g id="node7" class="node">
<title>R10_Le</title>
<ellipse fill="#ffeeee" stroke="black" cx="226" cy="-105" rx="44.69" ry="18"/>
<text text-anchor="middle" x="226" y="-101.3" font-family="Times,serif" font-size="14.00">R10_Le</text>
</g>
<!-- R10_L1&#45;&gt;R10_Le -->
<g id="edge3" class="edge">
<title>R10_L1&#45;&gt;R10_Le</title>
<path fill="none" stroke="black" d="M234.14,-535.48C283.92,-528.82 358,-509.57 358,-454 358,-454 358,-454 358,-191 358,-150.09 312.63,-127.93 275.09,-116.6"/>
<polygon fill="black" stroke="black" points="275.82,-113.17 265.25,-113.82 273.92,-119.91 275.82,-113.17"/>
<text text-anchor="middle" x="375.5" y="-318.8" font-family="Times,serif" font-size="14.00">t7R3</text>
</g>
<!-- R01_L2 -->
<g id="node4" class="node">
<title>R01_L2</title>
<ellipse fill="#ffffff" stroke="black" cx="145" cy="-366" rx="45.49" ry="18"/>
<text text-anchor="middle" x="145" y="-362.3" font-family="Times,serif" font-size="14.00">R01_L2</text>
</g>
<!-- R11_Le&#45;&gt;R01_L2 -->
<g id="edge6" class="edge">
<title>R11_Le&#45;&gt;R01_L2</title>
<path fill="none" stroke="black" d="M204.9,-437.02C197.31,-431.17 188.92,-424.16 182,-417 174.65,-409.39 167.51,-400.28 161.49,-391.94"/>
<polygon fill="black" stroke="black" points="164.26,-389.8 155.66,-383.61 158.53,-393.81 164.26,-389.8"/>
<text text-anchor="middle" x="200" y="-405.8" font-family="Times,serif" font-size="14.00">t2O1</text>
</g>
<!-- R11_L1 -->
<g id="node6" class="node">
<title>R11_L1</title>
<ellipse fill="#ffffff" stroke="black" cx="233" cy="-192" rx="45.49" ry="18"/>
<text text-anchor="middle" x="233" y="-188.3" font-family="Times,serif" font-size="14.00">R11_L1</text>
</g>
<!-- R11_Le&#45;&gt;R11_L1 -->
<g id="edge5" class="edge">
<title>R11_Le&#45;&gt;R11_L1</title>
<path fill="none" stroke="black" d="M236.35,-435.21C239.64,-429.54 243.16,-423.09 246,-417 263.39,-379.65 270.78,-370.56 278,-330 285.15,-289.87 265,-245.38 249.39,-218.3"/>
<polygon fill="black" stroke="black" points="252.25,-216.26 244.11,-209.48 246.25,-219.86 252.25,-216.26"/>
<text text-anchor="middle" x="296.5" y="-318.8" font-family="Times,serif" font-size="14.00">t4R2</text>
</g>
<!-- R01_L2&#45;&gt;R00_Le -->
<g id="edge8" class="edge">
<title>R01_L2&#45;&gt;R00_Le</title>
<path fill="none" stroke="black" d="M124.6,-382.46C98.92,-403.34 56.09,-443.27 39,-489 21.75,-535.15 69.51,-580.29 103.7,-605.5"/>
<polygon fill="black" stroke="black" points="101.88,-608.5 112.05,-611.46 105.95,-602.8 101.88,-608.5"/>
<text text-anchor="middle" x="57" y="-492.8" font-family="Times,serif" font-size="14.00">t6O2</text>
</g>
<!-- R01_Le -->
<g id="node5" class="node">
<title>R01_Le</title>
<ellipse fill="#ffeeee" stroke="black" cx="153" cy="-279" rx="44.69" ry="18"/>
<text text-anchor="middle" x="153" y="-275.3" font-family="Times,serif" font-size="14.00">R01_Le</text>
</g>
<!-- R01_L2&#45;&gt;R01_Le -->
<g id="edge7" class="edge">
<title>R01_L2&#45;&gt;R01_Le</title>
<path fill="none" stroke="black" d="M127.67,-349.24C119.27,-339.62 111.97,-326.91 117,-315 118.89,-310.52 121.67,-306.33 124.86,-302.51"/>
<polygon fill="black" stroke="black" points="127.44,-304.88 131.83,-295.24 122.38,-300.04 127.44,-304.88"/>
<text text-anchor="middle" x="134.5" y="-318.8" font-family="Times,serif" font-size="14.00">t8R4</text>
</g>
<!-- R01_Le&#45;&gt;R01_L2 -->
<g id="edge9" class="edge">
<title>R01_Le&#45;&gt;R01_L2</title>
<path fill="none" stroke="black" d="M153.41,-297.17C153.45,-306.84 153.19,-319.12 152,-330 151.72,-332.59 151.34,-335.27 150.9,-337.94"/>
<polygon fill="black" stroke="black" points="147.42,-337.53 149.03,-348 154.3,-338.82 147.42,-337.53"/>
<text text-anchor="middle" x="170.5" y="-318.8" font-family="Times,serif" font-size="14.00">t3R1</text>
</g>
<!-- R01_Le&#45;&gt;R11_L1 -->
<g id="edge10" class="edge">
<title>R01_Le&#45;&gt;R11_L1</title>
<path fill="none" stroke="black" d="M160.48,-261.01C165.57,-250.7 173,-237.71 182,-228 187.12,-222.48 193.26,-217.35 199.48,-212.83"/>
<polygon fill="black" stroke="black" points="201.65,-215.58 207.92,-207.04 197.69,-209.81 201.65,-215.58"/>
<text text-anchor="middle" x="200" y="-231.8" font-family="Times,serif" font-size="14.00">t1O1</text>
</g>
<!-- R11_L1&#45;&gt;R11_Le -->
<g id="edge12" class="edge">
<title>R11_L1&#45;&gt;R11_Le</title>
<path fill="none" stroke="black" d="M232.37,-210.37C231.53,-234.03 230.02,-277.72 229,-315 227.96,-353 227.05,-396.94 226.51,-424.6"/>
<polygon fill="black" stroke="black" points="223.01,-424.63 226.32,-434.7 230.01,-424.77 223.01,-424.63"/>
<text text-anchor="middle" x="251.5" y="-318.8" font-family="Times,serif" font-size="14.00">t10O2</text>
</g>
<!-- R11_L1&#45;&gt;R10_Le -->
<g id="edge11" class="edge">
<title>R11_L1&#45;&gt;R10_Le</title>
<path fill="none" stroke="black" d="M231.58,-173.8C230.63,-162.16 229.34,-146.55 228.24,-133.24"/>
<polygon fill="black" stroke="black" points="231.72,-132.85 227.41,-123.18 224.75,-133.43 231.72,-132.85"/>
<text text-anchor="middle" x="261" y="-144.8" font-family="Times,serif" font-size="14.00">t12O2R6</text>
</g>
<!-- R10_Le&#45;&gt;R10_L1 -->
<g id="edge13" class="edge">
<title>R10_Le&#45;&gt;R10_L1</title>
<path fill="none" stroke="black" d="M192.3,-117.09C179.38,-122.65 165.29,-130.49 155,-141 136.15,-160.25 83.39,-278.78 76,-315 59.72,-394.76 127.71,-477.23 165.8,-516.11"/>
<polygon fill="black" stroke="black" points="163.43,-518.69 172.98,-523.28 168.38,-513.74 163.43,-518.69"/>
<text text-anchor="middle" x="93.5" y="-318.8" font-family="Times,serif" font-size="14.00">t4R2</text>
</g>
<!-- R10_Le&#45;&gt;R00_L2 -->
<g id="edge14" class="edge">
<title>R10_Le&#45;&gt;R00_L2</title>
<path fill="none" stroke="black" d="M218.69,-87.21C213.5,-75.29 206.44,-59.06 200.5,-45.42"/>
<polygon fill="black" stroke="black" points="203.62,-43.82 196.42,-36.05 197.2,-46.62 203.62,-43.82"/>
<text text-anchor="middle" x="227" y="-57.8" font-family="Times,serif" font-size="14.00">t2O1</text>
</g>
<!-- R00_L2&#45;&gt;R00_Le -->
<g id="edge16" class="edge">
<title>R00_L2&#45;&gt;R00_Le</title>
<path fill="none" stroke="black" d="M230.11,-25.72C295.52,-37.58 416,-64.76 416,-104 416,-541 416,-541 416,-541 416,-588.04 269.88,-611.44 188.38,-620.83"/>
<polygon fill="black" stroke="black" points="187.84,-617.37 178.29,-621.96 188.62,-624.33 187.84,-617.37"/>
<text text-anchor="middle" x="434" y="-318.8" font-family="Times,serif" font-size="14.00">t9O2</text>
</g>
<!-- R00_L2&#45;&gt;R01_Le -->
<g id="edge15" class="edge">
<title>R00_L2&#45;&gt;R01_Le</title>
<path fill="none" stroke="black" d="M184.53,-36C180.97,-49.72 175.96,-69.55 172,-87 166.58,-110.89 164.17,-116.71 161,-141 156.08,-178.75 154.18,-222.75 153.46,-250.49"/>
<polygon fill="black" stroke="black" points="149.95,-250.55 153.22,-260.62 156.95,-250.71 149.95,-250.55"/>
<text text-anchor="middle" x="193" y="-144.8" font-family="Times,serif" font-size="14.00">t11O2R5</text>
</g>
</g>
</svg>
