<?xml version="1.0" encoding="UTF-8" standalone="no"?>
<!DOCTYPE svg PUBLIC "-//W3C//DTD SVG 1.1//EN"
 "http://www.w3.org/Graphics/SVG/1.1/DTD/svg11.dtd">
<!-- Generated by graphviz version 2.43.0 (0)
 -->
<!-- Title: SCinput/s2 Pages: 1 -->
<svg width="314pt" height="1032pt"
 viewBox="0.00 0.00 313.79 1031.63" xmlns="http://www.w3.org/2000/svg" xmlns:xlink="http://www.w3.org/1999/xlink">
<g id="graph0" class="graph" transform="scale(1 1) rotate(0) translate(4 1027.63)">
<title>SCinput/s2</title>
<polygon fill="white" stroke="transparent" points="-4,4 -4,-1027.63 309.79,-1027.63 309.79,4 -4,4"/>
<!-- R00_Le_O0 -->
<g id="node1" class="node">
<title>R00_Le_O0</title>
<ellipse fill="none" stroke="black" cx="185.39" cy="-957.24" rx="62.3" ry="62.3"/>
<ellipse fill="none" stroke="black" cx="185.39" cy="-957.24" rx="66.29" ry="66.29"/>
<text text-anchor="middle" x="185.39" y="-953.54" font-family="Times,serif" font-size="14.00">R00_Le_O0</text>
</g>
<!-- R10_L1_O1 -->
<g id="node2" class="node">
<title>R10_L1_O1</title>
<ellipse fill="none" stroke="black" cx="185.39" cy="-776.8" rx="63.09" ry="63.09"/>
<text text-anchor="middle" x="185.39" y="-773.1" font-family="Times,serif" font-size="14.00">R10_L1_O1</text>
</g>
<!-- R00_Le_O0&#45;&gt;R10_L1_O1 -->
<g id="edge1" class="edge">
<title>R00_Le_O0&#45;&gt;R10_L1_O1</title>
<path fill="none" stroke="black" d="M185.39,-890.81C185.39,-877.57 185.39,-863.58 185.39,-850.12"/>
<polygon fill="black" stroke="black" points="188.89,-849.96 185.39,-839.96 181.89,-849.96 188.89,-849.96"/>
<text text-anchor="middle" x="203.39" y="-861.64" font-family="Times,serif" font-size="14.00">t1O1</text>
</g>
<!-- R11_Le_O2 -->
<g id="node3" class="node">
<title>R11_Le_O2</title>
<ellipse fill="none" stroke="black" cx="100.39" cy="-600.36" rx="62.29" ry="62.29"/>
<text text-anchor="middle" x="100.39" y="-596.66" font-family="Times,serif" font-size="14.00">R11_Le_O2</text>
</g>
<!-- R10_L1_O1&#45;&gt;R11_Le_O2 -->
<g id="edge3" class="edge">
<title>R10_L1_O1&#45;&gt;R11_Le_O2</title>
<path fill="none" stroke="black" d="M156.07,-720.89C151.74,-712.51 147.4,-703.93 143.39,-695.76 138.86,-686.5 134.21,-676.67 129.71,-666.98"/>
<polygon fill="black" stroke="black" points="132.83,-665.37 125.46,-657.76 126.47,-668.3 132.83,-665.37"/>
<text text-anchor="middle" x="161.39" y="-684.56" font-family="Times,serif" font-size="14.00">t5O2</text>
</g>
<!-- R10_Le_O1 -->
<g id="node8" class="node">
<title>R10_Le_O1</title>
<ellipse fill="none" stroke="black" cx="243.39" cy="-600.36" rx="62.29" ry="62.29"/>
<text text-anchor="middle" x="243.39" y="-596.66" font-family="Times,serif" font-size="14.00">R10_Le_O1</text>
</g>
<!-- R10_L1_O1&#45;&gt;R10_Le_O1 -->
<g id="edge2" class="edge">
<title>R10_L1_O1&#45;&gt;R10_Le_O1</title>
<path fill="none" stroke="black" d="M180.61,-713.81C181.27,-702.61 182.98,-691.18 186.39,-680.76 189.05,-672.64 192.87,-664.65 197.28,-657.05"/>
<polygon fill="black" stroke="black" points="200.4,-658.66 202.71,-648.32 194.46,-654.97 200.4,-658.66"/>
<text text-anchor="middle" x="203.89" y="-684.56" font-family="Times,serif" font-size="14.00">t7R3</text>
</g>
<!-- R11_L1_O2 -->
<g id="node4" class="node">
<title>R11_L1_O2</title>
<ellipse fill="none" stroke="black" cx="100.39" cy="-423.92" rx="63.09" ry="63.09"/>
<text text-anchor="middle" x="100.39" y="-420.22" font-family="Times,serif" font-size="14.00">R11_L1_O2</text>
</g>
<!-- R11_Le_O2&#45;&gt;R11_L1_O2 -->
<g id="edge4" class="edge">
<title>R11_Le_O2&#45;&gt;R11_L1_O2</title>
<path fill="none" stroke="black" d="M100.39,-537.86C100.39,-524.73 100.39,-510.74 100.39,-497.25"/>
<polygon fill="black" stroke="black" points="103.89,-497.04 100.39,-487.04 96.89,-497.04 103.89,-497.04"/>
<text text-anchor="middle" x="117.89" y="-508.77" font-family="Times,serif" font-size="14.00">t4R2</text>
</g>
<!-- R11_Le_O3 -->
<g id="node5" class="node">
<title>R11_Le_O3</title>
<ellipse fill="none" stroke="black" cx="66.39" cy="-243.48" rx="62.3" ry="62.3"/>
<ellipse fill="none" stroke="black" cx="66.39" cy="-243.48" rx="66.29" ry="66.29"/>
<text text-anchor="middle" x="66.39" y="-239.78" font-family="Times,serif" font-size="14.00">R11_Le_O3</text>
</g>
<!-- R11_L1_O2&#45;&gt;R11_Le_O3 -->
<g id="edge6" class="edge">
<title>R11_L1_O2&#45;&gt;R11_Le_O3</title>
<path fill="none" stroke="black" d="M88.69,-361.51C86.08,-347.8 83.28,-333.12 80.58,-318.95"/>
<polygon fill="black" stroke="black" points="83.95,-317.91 78.64,-308.74 77.07,-319.22 83.95,-317.91"/>
<text text-anchor="middle" x="107.89" y="-331.68" font-family="Times,serif" font-size="14.00">t10O2</text>
</g>
<!-- R10_Le_O3 -->
<g id="node6" class="node">
<title>R10_Le_O3</title>
<ellipse fill="none" stroke="black" cx="217.39" cy="-243.48" rx="62.3" ry="62.3"/>
<ellipse fill="none" stroke="black" cx="217.39" cy="-243.48" rx="66.29" ry="66.29"/>
<text text-anchor="middle" x="217.39" y="-239.78" font-family="Times,serif" font-size="14.00">R10_Le_O3</text>
</g>
<!-- R11_L1_O2&#45;&gt;R10_Le_O3 -->
<g id="edge5" class="edge">
<title>R11_L1_O2&#45;&gt;R10_Le_O3</title>
<path fill="none" stroke="black" d="M134.55,-370.83C147.47,-351.12 162.33,-328.47 175.85,-307.84"/>
<polygon fill="black" stroke="black" points="178.81,-309.72 181.36,-299.44 172.95,-305.88 178.81,-309.72"/>
<text text-anchor="middle" x="195.39" y="-331.68" font-family="Times,serif" font-size="14.00">t12O2R6</text>
</g>
<!-- R10_L1_O3 -->
<g id="node7" class="node">
<title>R10_L1_O3</title>
<ellipse fill="none" stroke="black" cx="217.39" cy="-63.04" rx="63.09" ry="63.09"/>
<text text-anchor="middle" x="217.39" y="-59.34" font-family="Times,serif" font-size="14.00">R10_L1_O3</text>
</g>
<!-- R10_Le_O3&#45;&gt;R10_L1_O3 -->
<g id="edge7" class="edge">
<title>R10_Le_O3&#45;&gt;R10_L1_O3</title>
<path fill="none" stroke="black" d="M191.41,-182.34C188.51,-169.81 187.27,-156.61 189.39,-144.09 190.09,-140.01 190.97,-135.86 191.98,-131.7"/>
<polygon fill="black" stroke="black" points="195.37,-132.59 194.58,-122.02 188.61,-130.78 195.37,-132.59"/>
<text text-anchor="middle" x="206.89" y="-147.89" font-family="Times,serif" font-size="14.00">t4R2</text>
</g>
<!-- R10_L1_O3&#45;&gt;R10_Le_O3 -->
<g id="edge8" class="edge">
<title>R10_L1_O3&#45;&gt;R10_Le_O3</title>
<path fill="none" stroke="black" d="M223.36,-126.06C223.78,-132.15 224.14,-138.24 224.39,-144.09 224.72,-151.58 224.73,-159.39 224.52,-167.19"/>
<polygon fill="black" stroke="black" points="221.02,-167.29 224.13,-177.41 228.01,-167.55 221.02,-167.29"/>
<text text-anchor="middle" x="241.89" y="-147.89" font-family="Times,serif" font-size="14.00">t7R3</text>
</g>
<!-- R10_Le_O1&#45;&gt;R10_L1_O1 -->
<g id="edge9" class="edge">
<title>R10_Le_O1&#45;&gt;R10_L1_O1</title>
<path fill="none" stroke="black" d="M231.15,-661.77C228.33,-673.17 225.06,-684.92 221.39,-695.76 219.79,-700.51 218,-705.36 216.11,-710.21"/>
<polygon fill="black" stroke="black" points="212.85,-708.92 212.35,-719.5 219.34,-711.54 212.85,-708.92"/>
<text text-anchor="middle" x="241.89" y="-684.56" font-family="Times,serif" font-size="14.00">t4R2</text>
</g>
</g>
</svg>
