<?xml version="1.0" encoding="UTF-8" standalone="no"?>
<!DOCTYPE svg PUBLIC "-//W3C//DTD SVG 1.1//EN"
 "http://www.w3.org/Graphics/SVG/1.1/DTD/svg11.dtd">
<!-- Generated by graphviz version 2.43.0 (0)
 -->
<!-- Title: SCinput/s2 Pages: 1 -->
<svg width="396pt" height="653pt"
 viewBox="0.00 0.00 396.00 653.00" xmlns="http://www.w3.org/2000/svg" xmlns:xlink="http://www.w3.org/1999/xlink">
<g id="graph0" class="graph" transform="scale(1 1) rotate(0) translate(4 649)">
<title>SCinput/s2</title>
<polygon fill="white" stroke="transparent" points="-4,4 -4,-649 392,-649 392,4 -4,4"/>
<!-- R00_Le -->
<g id="node1" class="node">
<title>R00_Le</title>
<ellipse fill="#ffeeee" stroke="black" cx="115" cy="-627" rx="44.69" ry="18"/>
<text text-anchor="middle" x="115" y="-623.3" font-family="Times,serif" font-size="14.00">R00_Le</text>
</g>
<!-- R10_L1 -->
<g id="node2" class="node">
<title>R10_L1</title>
<ellipse fill="#ffffff" stroke="black" cx="159" cy="-540" rx="45.49" ry="18"/>
<text text-anchor="middle" x="159" y="-536.3" font-family="Times,serif" font-size="14.00">R10_L1</text>
</g>
<!-- R00_Le&#45;&gt;R10_L1 -->
<g id="edge2" class="edge">
<title>R00_Le&#45;&gt;R10_L1</title>
<path fill="none" stroke="black" d="M123.69,-609.21C129.96,-597.1 138.54,-580.53 145.67,-566.76"/>
<polygon fill="black" stroke="black" points="148.84,-568.25 150.33,-557.76 142.62,-565.03 148.84,-568.25"/>
<text text-anchor="middle" x="157" y="-579.8" font-family="Times,serif" font-size="14.00">t1O1</text>
</g>
<!-- R00_L2 -->
<g id="node8" class="node">
<title>R00_L2</title>
<ellipse fill="#ffffff" stroke="black" cx="151" cy="-18" rx="45.49" ry="18"/>
<text text-anchor="middle" x="151" y="-14.3" font-family="Times,serif" font-size="14.00">R00_L2</text>
</g>
<!-- R00_Le&#45;&gt;R00_L2 -->
<g id="edge1" class="edge">
<title>R00_Le&#45;&gt;R00_L2</title>
<path fill="none" stroke="black" d="M79.24,-616.08C45.49,-604.29 0,-580.97 0,-541 0,-541 0,-541 0,-104 0,-57.53 54.98,-36.19 98.58,-26.58"/>
<polygon fill="black" stroke="black" points="99.44,-29.97 108.54,-24.54 98.04,-23.12 99.44,-29.97"/>
<text text-anchor="middle" x="12" y="-318.8" font-family="Times,serif" font-size="14.00">t3a</text>
</g>
<!-- R11_Le -->
<g id="node3" class="node">
<title>R11_Le</title>
<ellipse fill="#ffeeee" stroke="black" cx="188" cy="-453" rx="44.69" ry="18"/>
<text text-anchor="middle" x="188" y="-449.3" font-family="Times,serif" font-size="14.00">R11_Le</text>
</g>
<!-- R10_L1&#45;&gt;R11_Le -->
<g id="edge4" class="edge">
<title>R10_L1&#45;&gt;R11_Le</title>
<path fill="none" stroke="black" d="M164.87,-521.8C168.9,-509.97 174.34,-494.03 178.93,-480.58"/>
<polygon fill="black" stroke="black" points="182.32,-481.48 182.24,-470.89 175.7,-479.22 182.32,-481.48"/>
<text text-anchor="middle" x="193" y="-492.8" font-family="Times,serif" font-size="14.00">t5O2</text>
</g>
<!-- R10_Le -->
<g id="node7" class="node">
<title>R10_Le</title>
<ellipse fill="#ffeeee" stroke="black" cx="184" cy="-105" rx="44.69" ry="18"/>
<text text-anchor="middle" x="184" y="-101.3" font-family="Times,serif" font-size="14.00">R10_Le</text>
</g>
<!-- R10_L1&#45;&gt;R10_Le -->
<g id="edge3" class="edge">
<title>R10_L1&#45;&gt;R10_Le</title>
<path fill="none" stroke="black" d="M201.58,-533.29C245.93,-524.68 309,-503.69 309,-454 309,-454 309,-454 309,-191 309,-152.02 266.92,-129.66 231.59,-117.75"/>
<polygon fill="black" stroke="black" points="232.43,-114.35 221.84,-114.67 230.32,-121.02 232.43,-114.35"/>
<text text-anchor="middle" x="319" y="-318.8" font-family="Times,serif" font-size="14.00">t7j</text>
</g>
<!-- R01_L2 -->
<g id="node4" class="node">
<title>R01_L2</title>
<ellipse fill="#ffffff" stroke="black" cx="120" cy="-366" rx="45.49" ry="18"/>
<text text-anchor="middle" x="120" y="-362.3" font-family="Times,serif" font-size="14.00">R01_L2</text>
</g>
<!-- R11_Le&#45;&gt;R01_L2 -->
<g id="edge6" class="edge">
<title>R11_Le&#45;&gt;R01_L2</title>
<path fill="none" stroke="black" d="M165.09,-437.49C157.36,-431.79 149.15,-424.76 143,-417 137.43,-409.97 132.85,-401.38 129.29,-393.31"/>
<polygon fill="black" stroke="black" points="132.46,-391.82 125.45,-383.87 125.97,-394.45 132.46,-391.82"/>
<text text-anchor="middle" x="161" y="-405.8" font-family="Times,serif" font-size="14.00">t2O1</text>
</g>
<!-- R11_L1 -->
<g id="node6" class="node">
<title>R11_L1</title>
<ellipse fill="#ffffff" stroke="black" cx="188" cy="-192" rx="45.49" ry="18"/>
<text text-anchor="middle" x="188" y="-188.3" font-family="Times,serif" font-size="14.00">R11_L1</text>
</g>
<!-- R11_Le&#45;&gt;R11_L1 -->
<g id="edge5" class="edge">
<title>R11_Le&#45;&gt;R11_L1</title>
<path fill="none" stroke="black" d="M200.35,-435.68C217.9,-410.53 247.1,-360.47 239,-315 232.75,-279.88 215.3,-242.45 202.55,-218.45"/>
<polygon fill="black" stroke="black" points="205.61,-216.75 197.75,-209.64 199.46,-220.1 205.61,-216.75"/>
<text text-anchor="middle" x="252.5" y="-318.8" font-family="Times,serif" font-size="14.00">t4b</text>
</g>
<!-- R01_L2&#45;&gt;R00_Le -->
<g id="edge8" class="edge">
<title>R01_L2&#45;&gt;R00_Le</title>
<path fill="none" stroke="black" d="M104.66,-383.12C84.98,-405.03 51.85,-446.41 39,-489 25.91,-532.37 62.03,-577.3 88.86,-603.4"/>
<polygon fill="black" stroke="black" points="86.79,-606.26 96.48,-610.56 91.59,-601.16 86.79,-606.26"/>
<text text-anchor="middle" x="57" y="-492.8" font-family="Times,serif" font-size="14.00">t6O2</text>
</g>
<!-- R01_Le -->
<g id="node5" class="node">
<title>R01_Le</title>
<ellipse fill="#ffeeee" stroke="black" cx="120" cy="-279" rx="44.69" ry="18"/>
<text text-anchor="middle" x="120" y="-275.3" font-family="Times,serif" font-size="14.00">R01_Le</text>
</g>
<!-- R01_L2&#45;&gt;R01_Le -->
<g id="edge7" class="edge">
<title>R01_L2&#45;&gt;R01_Le</title>
<path fill="none" stroke="black" d="M106.48,-348.75C100.14,-339.16 94.64,-326.66 98,-315 98.93,-311.76 100.27,-308.53 101.82,-305.41"/>
<polygon fill="black" stroke="black" points="104.99,-306.93 106.96,-296.52 98.93,-303.42 104.99,-306.93"/>
<text text-anchor="middle" x="110" y="-318.8" font-family="Times,serif" font-size="14.00">t8k</text>
</g>
<!-- R01_Le&#45;&gt;R01_L2 -->
<g id="edge9" class="edge">
<title>R01_Le&#45;&gt;R01_L2</title>
<path fill="none" stroke="black" d="M121.27,-297.12C121.83,-306.77 122.31,-319.06 122,-330 121.93,-332.56 121.82,-335.21 121.7,-337.87"/>
<polygon fill="black" stroke="black" points="118.21,-337.75 121.17,-347.92 125.2,-338.12 118.21,-337.75"/>
<text text-anchor="middle" x="134" y="-318.8" font-family="Times,serif" font-size="14.00">t3a</text>
</g>
<!-- R01_Le&#45;&gt;R11_L1 -->
<g id="edge10" class="edge">
<title>R01_Le&#45;&gt;R11_L1</title>
<path fill="none" stroke="black" d="M125.45,-261.13C129.29,-250.87 135.16,-237.88 143,-228 146.95,-223.01 151.76,-218.32 156.75,-214.09"/>
<polygon fill="black" stroke="black" points="158.96,-216.81 164.62,-207.85 154.61,-211.32 158.96,-216.81"/>
<text text-anchor="middle" x="161" y="-231.8" font-family="Times,serif" font-size="14.00">t1O1</text>
</g>
<!-- R11_L1&#45;&gt;R11_Le -->
<g id="edge12" class="edge">
<title>R11_L1&#45;&gt;R11_Le</title>
<path fill="none" stroke="black" d="M188,-210.32C188,-254.38 188,-371.01 188,-424.49"/>
<polygon fill="black" stroke="black" points="184.5,-424.6 188,-434.6 191.5,-424.6 184.5,-424.6"/>
<text text-anchor="middle" x="210.5" y="-318.8" font-family="Times,serif" font-size="14.00">t10O2</text>
</g>
<!-- R11_L1&#45;&gt;R10_Le -->
<g id="edge11" class="edge">
<title>R11_L1&#45;&gt;R10_Le</title>
<path fill="none" stroke="black" d="M187.19,-173.8C186.64,-162.16 185.91,-146.55 185.28,-133.24"/>
<polygon fill="black" stroke="black" points="188.77,-133 184.81,-123.18 181.78,-133.33 188.77,-133"/>
<text text-anchor="middle" x="215" y="-144.8" font-family="Times,serif" font-size="14.00">t12O2m</text>
</g>
<!-- R10_Le&#45;&gt;R10_L1 -->
<g id="edge13" class="edge">
<title>R10_Le&#45;&gt;R10_L1</title>
<path fill="none" stroke="black" d="M144.01,-113.17C103.57,-122.99 47,-144.96 47,-191 47,-323.5 47,-323.5 47,-323.5 47,-400.53 104.03,-477.36 136.7,-515.05"/>
<polygon fill="black" stroke="black" points="134.41,-517.75 143.66,-522.91 139.66,-513.11 134.41,-517.75"/>
<text text-anchor="middle" x="59.5" y="-318.8" font-family="Times,serif" font-size="14.00">t4b</text>
</g>
<!-- R10_Le&#45;&gt;R00_L2 -->
<g id="edge14" class="edge">
<title>R10_Le&#45;&gt;R00_L2</title>
<path fill="none" stroke="black" d="M177.32,-86.8C172.73,-74.97 166.54,-59.03 161.32,-45.58"/>
<polygon fill="black" stroke="black" points="164.44,-43.94 157.56,-35.89 157.91,-46.47 164.44,-43.94"/>
<text text-anchor="middle" x="187" y="-57.8" font-family="Times,serif" font-size="14.00">t2O1</text>
</g>
<!-- R00_L2&#45;&gt;R00_Le -->
<g id="edge16" class="edge">
<title>R00_L2&#45;&gt;R00_Le</title>
<path fill="none" stroke="black" d="M196.61,-19.13C255.91,-21.98 352,-36.94 352,-104 352,-541 352,-541 352,-541 352,-580.16 235.89,-606.15 166.21,-618.21"/>
<polygon fill="black" stroke="black" points="165.56,-614.77 156.28,-619.89 166.73,-621.67 165.56,-614.77"/>
<text text-anchor="middle" x="370" y="-318.8" font-family="Times,serif" font-size="14.00">t9O2</text>
</g>
<!-- R00_L2&#45;&gt;R01_Le -->
<g id="edge15" class="edge">
<title>R00_L2&#45;&gt;R01_Le</title>
<path fill="none" stroke="black" d="M144.45,-36.04C139.54,-49.62 133.16,-69.24 130,-87 119.74,-144.73 118.88,-213.68 119.33,-250.92"/>
<polygon fill="black" stroke="black" points="115.83,-251.04 119.49,-260.98 122.83,-250.92 115.83,-251.04"/>
<text text-anchor="middle" x="147.5" y="-144.8" font-family="Times,serif" font-size="14.00">t11O2l</text>
</g>
</g>
</svg>
