<?xml version="1.0" encoding="UTF-8" standalone="no"?>
<!DOCTYPE svg PUBLIC "-//W3C//DTD SVG 1.1//EN"
 "http://www.w3.org/Graphics/SVG/1.1/DTD/svg11.dtd">
<!-- Generated by graphviz version 2.43.0 (0)
 -->
<!-- Title: SCinput/s2 Pages: 1 -->
<svg width="425pt" height="653pt"
 viewBox="0.00 0.00 425.00 653.00" xmlns="http://www.w3.org/2000/svg" xmlns:xlink="http://www.w3.org/1999/xlink">
<g id="graph0" class="graph" transform="scale(1 1) rotate(0) translate(4 649)">
<title>SCinput/s2</title>
<polygon fill="white" stroke="transparent" points="-4,4 -4,-649 421,-649 421,4 -4,4"/>
<!-- S6 -->
<g id="node1" class="node">
<title>S6</title>
<ellipse fill="#ffeeee" stroke="black" cx="290" cy="-627" rx="27" ry="18"/>
<text text-anchor="middle" x="290" y="-623.3" font-family="Times,serif" font-size="14.00">S6</text>
</g>
<!-- S1 -->
<g id="node2" class="node">
<title>S1</title>
<ellipse fill="#ffffff" stroke="black" cx="236" cy="-540" rx="27" ry="18"/>
<text text-anchor="middle" x="236" y="-536.3" font-family="Times,serif" font-size="14.00">S1</text>
</g>
<!-- S6&#45;&gt;S1 -->
<g id="edge1" class="edge">
<title>S6&#45;&gt;S1</title>
<path fill="none" stroke="black" d="M265.18,-619.32C251.02,-614.1 234.46,-605.27 226,-591 221.7,-583.75 221.98,-574.97 224.04,-566.8"/>
<polygon fill="black" stroke="black" points="227.37,-567.89 227.23,-557.29 220.73,-565.66 227.37,-567.89"/>
<text text-anchor="middle" x="238.5" y="-579.8" font-family="Times,serif" font-size="14.00">t4b</text>
</g>
<!-- S7 -->
<g id="node6" class="node">
<title>S7</title>
<ellipse fill="#ffffff" stroke="black" cx="238" cy="-192" rx="27" ry="18"/>
<text text-anchor="middle" x="238" y="-188.3" font-family="Times,serif" font-size="14.00">S7</text>
</g>
<!-- S6&#45;&gt;S7 -->
<g id="edge2" class="edge">
<title>S6&#45;&gt;S7</title>
<path fill="none" stroke="black" d="M295.7,-609.29C300.97,-592.3 308,-565.13 308,-541 308,-541 308,-541 308,-278 308,-249.9 284.92,-226.04 265.26,-210.82"/>
<polygon fill="black" stroke="black" points="267.26,-207.94 257.13,-204.84 263.11,-213.58 267.26,-207.94"/>
<text text-anchor="middle" x="326" y="-405.8" font-family="Times,serif" font-size="14.00">t2O1</text>
</g>
<!-- S1&#45;&gt;S6 -->
<g id="edge3" class="edge">
<title>S1&#45;&gt;S6</title>
<path fill="none" stroke="black" d="M246.11,-556.92C254.02,-569.36 265.15,-586.89 274.23,-601.18"/>
<polygon fill="black" stroke="black" points="271.53,-603.45 279.84,-610.01 277.43,-599.69 271.53,-603.45"/>
<text text-anchor="middle" x="276" y="-579.8" font-family="Times,serif" font-size="14.00">t7j</text>
</g>
<!-- S2 -->
<g id="node3" class="node">
<title>S2</title>
<ellipse fill="#ffeeee" stroke="black" cx="79" cy="-453" rx="27" ry="18"/>
<text text-anchor="middle" x="79" y="-449.3" font-family="Times,serif" font-size="14.00">S2</text>
</g>
<!-- S1&#45;&gt;S2 -->
<g id="edge4" class="edge">
<title>S1&#45;&gt;S2</title>
<path fill="none" stroke="black" d="M215.47,-527.89C188.21,-513.12 139.85,-486.95 108.63,-470.04"/>
<polygon fill="black" stroke="black" points="109.99,-466.8 99.53,-465.11 106.66,-472.95 109.99,-466.8"/>
<text text-anchor="middle" x="185" y="-492.8" font-family="Times,serif" font-size="14.00">t5O2</text>
</g>
<!-- S5 -->
<g id="node4" class="node">
<title>S5</title>
<ellipse fill="#ffffff" stroke="black" cx="105" cy="-18" rx="27" ry="18"/>
<text text-anchor="middle" x="105" y="-14.3" font-family="Times,serif" font-size="14.00">S5</text>
</g>
<!-- S2&#45;&gt;S5 -->
<g id="edge5" class="edge">
<title>S2&#45;&gt;S5</title>
<path fill="none" stroke="black" d="M58.24,-441.26C34.84,-427.49 0,-401.25 0,-367 0,-367 0,-367 0,-104 0,-66.65 40.64,-42.87 71.35,-30.24"/>
<polygon fill="black" stroke="black" points="72.86,-33.41 80.91,-26.52 70.32,-26.88 72.86,-33.41"/>
<text text-anchor="middle" x="12.5" y="-231.8" font-family="Times,serif" font-size="14.00">t4b</text>
</g>
<!-- S3 -->
<g id="node8" class="node">
<title>S3</title>
<ellipse fill="#ffffff" stroke="black" cx="136" cy="-366" rx="27" ry="18"/>
<text text-anchor="middle" x="136" y="-362.3" font-family="Times,serif" font-size="14.00">S3</text>
</g>
<!-- S2&#45;&gt;S3 -->
<g id="edge6" class="edge">
<title>S2&#45;&gt;S3</title>
<path fill="none" stroke="black" d="M89.72,-436.01C98.21,-423.35 110.21,-405.45 119.87,-391.06"/>
<polygon fill="black" stroke="black" points="122.86,-392.88 125.52,-382.63 117.04,-388.99 122.86,-392.88"/>
<text text-anchor="middle" x="129" y="-405.8" font-family="Times,serif" font-size="14.00">t2O1</text>
</g>
<!-- S5&#45;&gt;S6 -->
<g id="edge7" class="edge">
<title>S5&#45;&gt;S6</title>
<path fill="none" stroke="black" d="M131.7,-22.16C196.92,-30.63 359,-56.45 359,-104 359,-541 359,-541 359,-541 359,-568.94 336.25,-592.82 316.87,-608.09"/>
<polygon fill="black" stroke="black" points="314.76,-605.3 308.85,-614.09 318.96,-610.9 314.76,-605.3"/>
<text text-anchor="middle" x="388" y="-318.8" font-family="Times,serif" font-size="14.00">t12O2m</text>
</g>
<!-- S5&#45;&gt;S2 -->
<g id="edge8" class="edge">
<title>S5&#45;&gt;S2</title>
<path fill="none" stroke="black" d="M88.51,-32.47C71.68,-47.85 48,-74.68 48,-104 48,-367 48,-367 48,-367 48,-388.14 56.57,-410.55 64.7,-427.04"/>
<polygon fill="black" stroke="black" points="61.64,-428.76 69.36,-436.02 67.85,-425.53 61.64,-428.76"/>
<text text-anchor="middle" x="70.5" y="-231.8" font-family="Times,serif" font-size="14.00">t10O2</text>
</g>
<!-- S0 -->
<g id="node5" class="node">
<title>S0</title>
<ellipse fill="#ffeeee" stroke="black" cx="233" cy="-279" rx="27" ry="18"/>
<text text-anchor="middle" x="233" y="-275.3" font-family="Times,serif" font-size="14.00">S0</text>
</g>
<!-- S0&#45;&gt;S1 -->
<g id="edge10" class="edge">
<title>S0&#45;&gt;S1</title>
<path fill="none" stroke="black" d="M233.2,-297.32C233.71,-341.38 235.06,-458.01 235.68,-511.49"/>
<polygon fill="black" stroke="black" points="232.18,-511.65 235.8,-521.6 239.18,-511.56 232.18,-511.65"/>
<text text-anchor="middle" x="253" y="-405.8" font-family="Times,serif" font-size="14.00">t1O1</text>
</g>
<!-- S0&#45;&gt;S7 -->
<g id="edge9" class="edge">
<title>S0&#45;&gt;S7</title>
<path fill="none" stroke="black" d="M219.98,-262.95C213.12,-253.16 206.9,-240.03 211,-228 212.49,-223.63 214.77,-219.39 217.38,-215.44"/>
<polygon fill="black" stroke="black" points="220.24,-217.47 223.47,-207.37 214.65,-213.25 220.24,-217.47"/>
<text text-anchor="middle" x="223" y="-231.8" font-family="Times,serif" font-size="14.00">t3a</text>
</g>
<!-- S7&#45;&gt;S0 -->
<g id="edge12" class="edge">
<title>S7&#45;&gt;S0</title>
<path fill="none" stroke="black" d="M236.99,-210.18C236.31,-221.81 235.39,-237.42 234.6,-250.73"/>
<polygon fill="black" stroke="black" points="231.11,-250.61 234.01,-260.8 238.09,-251.02 231.11,-250.61"/>
<text text-anchor="middle" x="254" y="-231.8" font-family="Times,serif" font-size="14.00">t9O2</text>
</g>
<!-- S4 -->
<g id="node7" class="node">
<title>S4</title>
<ellipse fill="#ffeeee" stroke="black" cx="149" cy="-105" rx="27" ry="18"/>
<text text-anchor="middle" x="149" y="-101.3" font-family="Times,serif" font-size="14.00">S4</text>
</g>
<!-- S7&#45;&gt;S4 -->
<g id="edge11" class="edge">
<title>S7&#45;&gt;S4</title>
<path fill="none" stroke="black" d="M222.9,-176.58C208.75,-163.07 187.42,-142.7 171.31,-127.31"/>
<polygon fill="black" stroke="black" points="173.52,-124.58 163.87,-120.21 168.69,-129.64 173.52,-124.58"/>
<text text-anchor="middle" x="223.5" y="-144.8" font-family="Times,serif" font-size="14.00">t11O2l</text>
</g>
<!-- S4&#45;&gt;S5 -->
<g id="edge14" class="edge">
<title>S4&#45;&gt;S5</title>
<path fill="none" stroke="black" d="M140.52,-87.61C134.19,-75.38 125.42,-58.44 118.18,-44.46"/>
<polygon fill="black" stroke="black" points="121.16,-42.61 113.46,-35.34 114.95,-45.83 121.16,-42.61"/>
<text text-anchor="middle" x="148" y="-57.8" font-family="Times,serif" font-size="14.00">t1O1</text>
</g>
<!-- S4&#45;&gt;S3 -->
<g id="edge13" class="edge">
<title>S4&#45;&gt;S3</title>
<path fill="none" stroke="black" d="M143.15,-122.7C135.36,-145.95 121.96,-189.56 117,-228 112.04,-266.43 120.89,-310.85 128.1,-338.44"/>
<polygon fill="black" stroke="black" points="124.74,-339.42 130.75,-348.14 131.49,-337.57 124.74,-339.42"/>
<text text-anchor="middle" x="129" y="-231.8" font-family="Times,serif" font-size="14.00">t3a</text>
</g>
<!-- S3&#45;&gt;S0 -->
<g id="edge16" class="edge">
<title>S3&#45;&gt;S0</title>
<path fill="none" stroke="black" d="M152.02,-350.96C167.7,-337.22 191.76,-316.14 209.58,-300.52"/>
<polygon fill="black" stroke="black" points="212.07,-303 217.28,-293.77 207.45,-297.73 212.07,-303"/>
<text text-anchor="middle" x="209" y="-318.8" font-family="Times,serif" font-size="14.00">t6O2</text>
</g>
<!-- S3&#45;&gt;S4 -->
<g id="edge15" class="edge">
<title>S3&#45;&gt;S4</title>
<path fill="none" stroke="black" d="M137.56,-347.92C138.06,-342.22 138.58,-335.84 139,-330 144.53,-252.74 146.78,-233.43 149,-156 149.21,-148.65 149.28,-140.7 149.28,-133.34"/>
<polygon fill="black" stroke="black" points="152.78,-133.11 149.24,-123.13 145.78,-133.14 152.78,-133.11"/>
<text text-anchor="middle" x="159" y="-231.8" font-family="Times,serif" font-size="14.00">t8k</text>
</g>
</g>
</svg>
