<?xml version="1.0" encoding="UTF-8" standalone="no"?>
<!DOCTYPE svg PUBLIC "-//W3C//DTD SVG 1.1//EN"
 "http://www.w3.org/Graphics/SVG/1.1/DTD/svg11.dtd">
<!-- Generated by graphviz version 2.43.0 (0)
 -->
<!-- Title: SCinput/s2 Pages: 1 -->
<svg width="460pt" height="1112pt"
 viewBox="0.00 0.00 460.00 1111.74" xmlns="http://www.w3.org/2000/svg" xmlns:xlink="http://www.w3.org/1999/xlink">
<g id="graph0" class="graph" transform="scale(1 1) rotate(0) translate(4 1107.74)">
<title>SCinput/s2</title>
<polygon fill="white" stroke="transparent" points="-4,4 -4,-1107.74 456,-1107.74 456,4 -4,4"/>
<!-- R00_Le -->
<g id="node1" class="node">
<title>R00_Le</title>
<ellipse fill="none" stroke="black" cx="135" cy="-1058.89" rx="44.69" ry="44.69"/>
<text text-anchor="middle" x="135" y="-1055.19" font-family="Times,serif" font-size="14.00">R00_Le</text>
</g>
<!-- R10_L1 -->
<g id="node2" class="node">
<title>R10_L1</title>
<ellipse fill="none" stroke="black" cx="190" cy="-917.55" rx="45.49" ry="45.49"/>
<text text-anchor="middle" x="190" y="-913.85" font-family="Times,serif" font-size="14.00">R10_L1</text>
</g>
<!-- R00_Le&#45;&gt;R10_L1 -->
<g id="edge2" class="edge">
<title>R00_Le&#45;&gt;R10_L1</title>
<path fill="none" stroke="black" d="M151.2,-1016.84C157.03,-1002.08 163.67,-985.25 169.8,-969.73"/>
<polygon fill="black" stroke="black" points="173.11,-970.86 173.53,-960.27 166.6,-968.29 173.11,-970.86"/>
<text text-anchor="middle" x="182" y="-984.84" font-family="Times,serif" font-size="14.00">t1O1</text>
</g>
<!-- R00_L2 -->
<g id="node8" class="node">
<title>R00_L2</title>
<ellipse fill="none" stroke="black" cx="189" cy="-45.5" rx="45.49" ry="45.49"/>
<text text-anchor="middle" x="189" y="-41.8" font-family="Times,serif" font-size="14.00">R00_L2</text>
</g>
<!-- R00_Le&#45;&gt;R00_L2 -->
<g id="edge1" class="edge">
<title>R00_Le&#45;&gt;R00_L2</title>
<path fill="none" stroke="black" d="M94.86,-1038.03C55.07,-1015.18 0,-973.62 0,-918.55 0,-918.55 0,-918.55 0,-189.84 0,-121.46 79.5,-81.48 135.38,-61.83"/>
<polygon fill="black" stroke="black" points="136.82,-65.04 145.16,-58.51 134.57,-58.41 136.82,-65.04"/>
<text text-anchor="middle" x="17.5" y="-552.17" font-family="Times,serif" font-size="14.00">t3R1</text>
</g>
<!-- R11_Le -->
<g id="node3" class="node">
<title>R11_Le</title>
<ellipse fill="none" stroke="black" cx="226" cy="-772.21" rx="44.71" ry="44.71"/>
<ellipse fill="none" stroke="black" cx="226" cy="-772.21" rx="48.69" ry="48.69"/>
<text text-anchor="middle" x="226" y="-768.51" font-family="Times,serif" font-size="14.00">R11_Le</text>
</g>
<!-- R10_L1&#45;&gt;R11_Le -->
<g id="edge4" class="edge">
<title>R10_L1&#45;&gt;R11_Le</title>
<path fill="none" stroke="black" d="M200.9,-873.15C204.35,-859.43 208.21,-844.05 211.85,-829.56"/>
<polygon fill="black" stroke="black" points="215.28,-830.25 214.32,-819.69 208.49,-828.54 215.28,-830.25"/>
<text text-anchor="middle" x="227" y="-842.85" font-family="Times,serif" font-size="14.00">t5O2</text>
</g>
<!-- R10_Le -->
<g id="node7" class="node">
<title>R10_Le</title>
<ellipse fill="none" stroke="black" cx="228" cy="-190.84" rx="44.71" ry="44.71"/>
<ellipse fill="none" stroke="black" cx="228" cy="-190.84" rx="48.69" ry="48.69"/>
<text text-anchor="middle" x="228" y="-187.14" font-family="Times,serif" font-size="14.00">R10_Le</text>
</g>
<!-- R10_L1&#45;&gt;R10_Le -->
<g id="edge3" class="edge">
<title>R10_L1&#45;&gt;R10_Le</title>
<path fill="none" stroke="black" d="M232.83,-901.5C282.6,-880.95 358,-838.96 358,-773.21 358,-773.21 358,-773.21 358,-335.18 358,-286.04 315.56,-246.26 279.18,-221.18"/>
<polygon fill="black" stroke="black" points="280.83,-218.08 270.57,-215.44 276.94,-223.9 280.83,-218.08"/>
<text text-anchor="middle" x="375.5" y="-552.17" font-family="Times,serif" font-size="14.00">t7R3</text>
</g>
<!-- R01_L2 -->
<g id="node4" class="node">
<title>R01_L2</title>
<ellipse fill="none" stroke="black" cx="149" cy="-626.86" rx="45.49" ry="45.49"/>
<text text-anchor="middle" x="149" y="-623.16" font-family="Times,serif" font-size="14.00">R01_L2</text>
</g>
<!-- R11_Le&#45;&gt;R01_L2 -->
<g id="edge6" class="edge">
<title>R11_Le&#45;&gt;R01_L2</title>
<path fill="none" stroke="black" d="M198.01,-731.9C192.4,-723.34 186.78,-714.19 182,-705.36 177.46,-696.96 173.08,-687.8 169.09,-678.82"/>
<polygon fill="black" stroke="black" points="172.26,-677.34 165.07,-669.56 165.84,-680.13 172.26,-677.34"/>
<text text-anchor="middle" x="200" y="-694.16" font-family="Times,serif" font-size="14.00">t2O1</text>
</g>
<!-- R11_L1 -->
<g id="node6" class="node">
<title>R11_L1</title>
<ellipse fill="none" stroke="black" cx="233" cy="-336.18" rx="45.49" ry="45.49"/>
<text text-anchor="middle" x="233" y="-332.48" font-family="Times,serif" font-size="14.00">R11_L1</text>
</g>
<!-- R11_Le&#45;&gt;R11_L1 -->
<g id="edge5" class="edge">
<title>R11_Le&#45;&gt;R11_L1</title>
<path fill="none" stroke="black" d="M241.17,-725.63C254.13,-683.95 271.66,-620.3 278,-563.37 284.75,-502.75 267.53,-434.19 252.48,-388.6"/>
<polygon fill="black" stroke="black" points="255.74,-387.3 249.22,-378.95 249.11,-389.54 255.74,-387.3"/>
<text text-anchor="middle" x="296.5" y="-552.17" font-family="Times,serif" font-size="14.00">t4R2</text>
</g>
<!-- R01_L2&#45;&gt;R00_Le -->
<g id="edge8" class="edge">
<title>R01_L2&#45;&gt;R00_Le</title>
<path fill="none" stroke="black" d="M122.84,-664.57C95.73,-705.05 55.12,-773.2 39,-839.05 23.06,-904.17 65.49,-974.27 98.95,-1017.12"/>
<polygon fill="black" stroke="black" points="96.32,-1019.43 105.29,-1025.06 101.79,-1015.06 96.32,-1019.43"/>
<text text-anchor="middle" x="57" y="-842.85" font-family="Times,serif" font-size="14.00">t6O2</text>
</g>
<!-- R01_Le -->
<g id="node5" class="node">
<title>R01_Le</title>
<ellipse fill="none" stroke="black" cx="150" cy="-481.52" rx="44.71" ry="44.71"/>
<ellipse fill="none" stroke="black" cx="150" cy="-481.52" rx="48.69" ry="48.69"/>
<text text-anchor="middle" x="150" y="-477.82" font-family="Times,serif" font-size="14.00">R01_Le</text>
</g>
<!-- R01_L2&#45;&gt;R01_Le -->
<g id="edge7" class="edge">
<title>R01_L2&#45;&gt;R01_Le</title>
<path fill="none" stroke="black" d="M123.36,-588.82C117.48,-576.26 113.78,-561.97 117,-548.37 118.18,-543.36 119.81,-538.31 121.71,-533.34"/>
<polygon fill="black" stroke="black" points="125.02,-534.5 125.66,-523.92 118.56,-531.79 125.02,-534.5"/>
<text text-anchor="middle" x="134.5" y="-552.17" font-family="Times,serif" font-size="14.00">t8R4</text>
</g>
<!-- R01_Le&#45;&gt;R01_L2 -->
<g id="edge9" class="edge">
<title>R01_Le&#45;&gt;R01_L2</title>
<path fill="none" stroke="black" d="M151.96,-530.4C152.18,-541.24 152.26,-552.7 152,-563.37 151.94,-565.89 151.87,-568.46 151.78,-571.06"/>
<polygon fill="black" stroke="black" points="148.28,-571.03 151.41,-581.15 155.27,-571.29 148.28,-571.03"/>
<text text-anchor="middle" x="169.5" y="-552.17" font-family="Times,serif" font-size="14.00">t3R1</text>
</g>
<!-- R01_Le&#45;&gt;R11_L1 -->
<g id="edge10" class="edge">
<title>R01_Le&#45;&gt;R11_L1</title>
<path fill="none" stroke="black" d="M165.23,-434.89C169.93,-423.08 175.58,-410.61 182,-399.68 186.23,-392.47 191.26,-385.23 196.48,-378.36"/>
<polygon fill="black" stroke="black" points="199.24,-380.52 202.67,-370.49 193.73,-376.19 199.24,-380.52"/>
<text text-anchor="middle" x="200" y="-403.48" font-family="Times,serif" font-size="14.00">t1O1</text>
</g>
<!-- R11_L1&#45;&gt;R11_Le -->
<g id="edge12" class="edge">
<title>R11_L1&#45;&gt;R11_Le</title>
<path fill="none" stroke="black" d="M232.09,-381.68C231.23,-424.41 229.93,-490.8 229,-548.37 228.1,-604.18 227.26,-667.85 226.7,-712.8"/>
<polygon fill="black" stroke="black" points="223.2,-712.91 226.57,-722.95 230.2,-713 223.2,-712.91"/>
<text text-anchor="middle" x="251.5" y="-552.17" font-family="Times,serif" font-size="14.00">t10O2</text>
</g>
<!-- R11_L1&#45;&gt;R10_Le -->
<g id="edge11" class="edge">
<title>R11_L1&#45;&gt;R10_Le</title>
<path fill="none" stroke="black" d="M231.45,-290.61C231,-277.78 230.5,-263.58 230.03,-250.05"/>
<polygon fill="black" stroke="black" points="233.52,-249.73 229.68,-239.86 226.53,-249.98 233.52,-249.73"/>
<text text-anchor="middle" x="262" y="-261.48" font-family="Times,serif" font-size="14.00">t12O2R6</text>
</g>
<!-- R10_Le&#45;&gt;R10_L1 -->
<g id="edge13" class="edge">
<title>R10_Le&#45;&gt;R10_L1</title>
<path fill="none" stroke="black" d="M188.4,-220.03C175.7,-230.65 162.49,-243.6 153,-257.68 78.33,-368.53 85.18,-415.03 76,-548.37 67.79,-667.68 126.61,-799.85 162.86,-868.77"/>
<polygon fill="black" stroke="black" points="159.81,-870.49 167.6,-877.67 165.99,-867.2 159.81,-870.49"/>
<text text-anchor="middle" x="93.5" y="-552.17" font-family="Times,serif" font-size="14.00">t4R2</text>
</g>
<!-- R10_Le&#45;&gt;R00_L2 -->
<g id="edge14" class="edge">
<title>R10_Le&#45;&gt;R00_L2</title>
<path fill="none" stroke="black" d="M215.34,-143.3C211.54,-129.35 207.35,-113.95 203.45,-99.61"/>
<polygon fill="black" stroke="black" points="206.81,-98.62 200.81,-89.88 200.05,-100.45 206.81,-98.62"/>
<text text-anchor="middle" x="227" y="-112.79" font-family="Times,serif" font-size="14.00">t2O1</text>
</g>
<!-- R00_L2&#45;&gt;R00_Le -->
<g id="edge16" class="edge">
<title>R00_L2&#45;&gt;R00_Le</title>
<path fill="none" stroke="black" d="M233.85,-54.01C300,-67.95 416,-104.54 416,-189.84 416,-918.55 416,-918.55 416,-918.55 416,-1018.42 271.77,-1046.71 189.97,-1054.72"/>
<polygon fill="black" stroke="black" points="189.48,-1051.25 179.84,-1055.64 190.11,-1058.22 189.48,-1051.25"/>
<text text-anchor="middle" x="434" y="-552.17" font-family="Times,serif" font-size="14.00">t9O2</text>
</g>
<!-- R00_L2&#45;&gt;R01_Le -->
<g id="edge15" class="edge">
<title>R00_L2&#45;&gt;R01_Le</title>
<path fill="none" stroke="black" d="M179.12,-90.04C175.76,-106.27 172.28,-124.9 170,-141.99 156.92,-239.96 152.39,-355.03 150.83,-422.63"/>
<polygon fill="black" stroke="black" points="147.33,-422.58 150.61,-432.66 154.33,-422.73 147.33,-422.58"/>
<text text-anchor="middle" x="190" y="-261.48" font-family="Times,serif" font-size="14.00">t11O2R5</text>
</g>
</g>
</svg>
