<?xml version="1.0" encoding="UTF-8" standalone="no"?>
<!DOCTYPE svg PUBLIC "-//W3C//DTD SVG 1.1//EN"
 "http://www.w3.org/Graphics/SVG/1.1/DTD/svg11.dtd">
<!-- Generated by graphviz version 2.43.0 (0)
 -->
<!-- Title: gen/Seed549685727 Pages: 1 -->
<svg width="1403pt" height="606pt"
 viewBox="0.00 0.00 1403.00 605.97" xmlns="http://www.w3.org/2000/svg" xmlns:xlink="http://www.w3.org/1999/xlink">
<g id="graph0" class="graph" transform="scale(1 1) rotate(0) translate(4 601.97)">
<title>gen/Seed549685727</title>
<polygon fill="white" stroke="transparent" points="-4,4 -4,-601.97 1399,-601.97 1399,4 -4,4"/>
<g id="clust1" class="cluster">
<title>cluster0</title>
<path fill="#ffeeee" stroke="#ffeeee" d="M448,-8C448,-8 800,-8 800,-8 806,-8 812,-14 812,-20 812,-20 812,-324.78 812,-324.78 812,-330.78 806,-336.78 800,-336.78 800,-336.78 448,-336.78 448,-336.78 442,-336.78 436,-330.78 436,-324.78 436,-324.78 436,-20 436,-20 436,-14 442,-8 448,-8"/>
</g>
<g id="clust2" class="cluster">
<title>cluster1</title>
<path fill="#ffeeee" stroke="#ffeeee" d="M832,-8C832,-8 1104,-8 1104,-8 1110,-8 1116,-14 1116,-20 1116,-20 1116,-451.38 1116,-451.38 1116,-457.38 1110,-463.38 1104,-463.38 1104,-463.38 832,-463.38 832,-463.38 826,-463.38 820,-457.38 820,-451.38 820,-451.38 820,-20 820,-20 820,-14 826,-8 832,-8"/>
</g>
<g id="clust3" class="cluster">
<title>cluster2</title>
<path fill="#ffeeee" stroke="#ffeeee" d="M270,-126.59C270,-126.59 416,-126.59 416,-126.59 422,-126.59 428,-132.59 428,-138.59 428,-138.59 428,-451.38 428,-451.38 428,-457.38 422,-463.38 416,-463.38 416,-463.38 270,-463.38 270,-463.38 264,-463.38 258,-457.38 258,-451.38 258,-451.38 258,-138.59 258,-138.59 258,-132.59 264,-126.59 270,-126.59"/>
</g>
<g id="clust4" class="cluster">
<title>cluster3</title>
<path fill="#ffeeee" stroke="#ffeeee" d="M20,-249.19C20,-249.19 238,-249.19 238,-249.19 244,-249.19 250,-255.19 250,-261.19 250,-261.19 250,-577.97 250,-577.97 250,-583.97 244,-589.97 238,-589.97 238,-589.97 20,-589.97 20,-589.97 14,-589.97 8,-583.97 8,-577.97 8,-577.97 8,-261.19 8,-261.19 8,-255.19 14,-249.19 20,-249.19"/>
</g>
<g id="clust5" class="cluster">
<title>cluster4</title>
<path fill="#ffeeee" stroke="#ffeeee" d="M1136,-8C1136,-8 1375,-8 1375,-8 1381,-8 1387,-14 1387,-20 1387,-20 1387,-577.97 1387,-577.97 1387,-583.97 1381,-589.97 1375,-589.97 1375,-589.97 1136,-589.97 1136,-589.97 1130,-589.97 1124,-583.97 1124,-577.97 1124,-577.97 1124,-20 1124,-20 1124,-14 1130,-8 1136,-8"/>
</g>
<!-- C0_0 -->
<g id="node1" class="node">
<title>C0_0</title>
<ellipse fill="white" stroke="black" cx="603" cy="-290.99" rx="33.62" ry="33.62"/>
<ellipse fill="none" stroke="black" cx="603" cy="-290.99" rx="37.6" ry="37.6"/>
<text text-anchor="middle" x="603" y="-287.29" font-family="Times,serif" font-size="14.00">C0_0</text>
</g>
<!-- C0_0&#45;&gt;C0_0 -->
<g id="edge7" class="edge">
<title>C0_0&#45;&gt;C0_0</title>
<path fill="none" stroke="black" d="M639.22,-302.59C650.21,-302.3 658.8,-298.43 658.8,-290.99 658.8,-286.1 655.1,-282.75 649.45,-280.95"/>
<polygon fill="black" stroke="black" points="649.64,-277.43 639.22,-279.38 648.58,-284.35 649.64,-277.43"/>
<text text-anchor="middle" x="666.8" y="-287.29" font-family="Times,serif" font-size="14.00">t6</text>
</g>
<!-- C0_2 -->
<g id="node2" class="node">
<title>C0_2</title>
<ellipse fill="white" stroke="black" cx="478" cy="-168.39" rx="33.6" ry="33.6"/>
<text text-anchor="middle" x="478" y="-164.69" font-family="Times,serif" font-size="14.00">C0_2</text>
</g>
<!-- C0_0&#45;&gt;C0_2 -->
<g id="edge1" class="edge">
<title>C0_0&#45;&gt;C0_2</title>
<path fill="none" stroke="black" d="M570,-272.14C554.06,-262.53 535.33,-249.67 521,-235.19 512.76,-226.86 505.21,-216.72 498.81,-206.92"/>
<polygon fill="black" stroke="black" points="501.78,-205.06 493.5,-198.44 495.85,-208.78 501.78,-205.06"/>
<text text-anchor="middle" x="539" y="-223.99" font-family="Times,serif" font-size="14.00">t0O4</text>
</g>
<!-- C0_1 -->
<g id="node3" class="node">
<title>C0_1</title>
<ellipse fill="white" stroke="black" cx="564" cy="-168.39" rx="33.6" ry="33.6"/>
<text text-anchor="middle" x="564" y="-164.69" font-family="Times,serif" font-size="14.00">C0_1</text>
</g>
<!-- C0_0&#45;&gt;C0_1 -->
<g id="edge2" class="edge">
<title>C0_0&#45;&gt;C0_1</title>
<path fill="none" stroke="black" d="M578.81,-261.84C573.21,-253.75 568.01,-244.56 565,-235.19 562.67,-227.93 561.48,-219.98 561.01,-212.2"/>
<polygon fill="black" stroke="black" points="564.51,-212.04 560.75,-202.13 557.51,-212.22 564.51,-212.04"/>
<text text-anchor="middle" x="573" y="-223.99" font-family="Times,serif" font-size="14.00">t0</text>
</g>
<!-- C0_4 -->
<g id="node4" class="node">
<title>C0_4</title>
<ellipse fill="white" stroke="black" cx="770" cy="-168.39" rx="33.6" ry="33.6"/>
<text text-anchor="middle" x="770" y="-164.69" font-family="Times,serif" font-size="14.00">C0_4</text>
</g>
<!-- C0_0&#45;&gt;C0_4 -->
<g id="edge3" class="edge">
<title>C0_0&#45;&gt;C0_4</title>
<path fill="none" stroke="black" d="M634.45,-269.33C649.57,-259.24 667.88,-246.79 684,-235.19 701.25,-222.77 720.04,-208.49 735.64,-196.41"/>
<polygon fill="black" stroke="black" points="738.2,-198.85 743.95,-189.95 733.91,-193.32 738.2,-198.85"/>
<text text-anchor="middle" x="711" y="-223.99" font-family="Times,serif" font-size="14.00">t0</text>
</g>
<!-- C0_3 -->
<g id="node6" class="node">
<title>C0_3</title>
<ellipse fill="white" stroke="black" cx="650" cy="-168.39" rx="33.6" ry="33.6"/>
<text text-anchor="middle" x="650" y="-164.69" font-family="Times,serif" font-size="14.00">C0_3</text>
</g>
<!-- C0_0&#45;&gt;C0_3 -->
<g id="edge5" class="edge">
<title>C0_0&#45;&gt;C0_3</title>
<path fill="none" stroke="black" d="M626.1,-260.89C631.43,-252.94 636.53,-244.06 640,-235.19 642.81,-228 644.83,-220.09 646.29,-212.32"/>
<polygon fill="black" stroke="black" points="649.77,-212.69 647.89,-202.26 642.86,-211.58 649.77,-212.69"/>
<text text-anchor="middle" x="662" y="-223.99" font-family="Times,serif" font-size="14.00">t0O4</text>
</g>
<!-- C2_0 -->
<g id="node13" class="node">
<title>C2_0</title>
<ellipse fill="white" stroke="black" cx="382" cy="-417.58" rx="33.62" ry="33.62"/>
<ellipse fill="none" stroke="black" cx="382" cy="-417.58" rx="37.6" ry="37.6"/>
<text text-anchor="middle" x="382" y="-413.88" font-family="Times,serif" font-size="14.00">C2_0</text>
</g>
<!-- C0_0&#45;&gt;C2_0 -->
<g id="edge38" class="edge">
<title>C0_0&#45;&gt;C2_0</title>
<path fill="none" stroke="black" d="M523.55,-336.78C494.75,-353.01 462.9,-370.97 436.71,-385.74"/>
<polygon fill="black" stroke="black" points="434.99,-382.69 428,-390.65 438.43,-388.79 434.99,-382.69"/>
<text text-anchor="middle" x="523.5" y="-350.58" font-family="Times,serif" font-size="14.00">L0{}</text>
</g>
<!-- C0_5 -->
<g id="node5" class="node">
<title>C0_5</title>
<ellipse fill="white" stroke="black" cx="564" cy="-49.8" rx="33.6" ry="33.6"/>
<text text-anchor="middle" x="564" y="-46.1" font-family="Times,serif" font-size="14.00">C0_5</text>
</g>
<!-- C0_1&#45;&gt;C0_5 -->
<g id="edge4" class="edge">
<title>C0_1&#45;&gt;C0_5</title>
<path fill="none" stroke="black" d="M564,-134.29C564,-121.86 564,-107.54 564,-94.3"/>
<polygon fill="black" stroke="black" points="567.5,-93.98 564,-83.98 560.5,-93.98 567.5,-93.98"/>
<text text-anchor="middle" x="591.5" y="-105.39" font-family="Times,serif" font-size="14.00">t0O2R2</text>
</g>
<!-- C0_5&#45;&gt;C0_5 -->
<g id="edge6" class="edge">
<title>C0_5&#45;&gt;C0_5</title>
<path fill="none" stroke="black" d="M596.12,-60.67C607.03,-60.73 615.8,-57.1 615.8,-49.8 615.8,-45 612.02,-41.79 606.34,-40.17"/>
<polygon fill="black" stroke="black" points="606.47,-36.66 596.12,-38.92 605.62,-43.61 606.47,-36.66"/>
<text text-anchor="middle" x="633.8" y="-46.1" font-family="Times,serif" font-size="14.00">t5O3</text>
</g>
<!-- C0_3&#45;&gt;C0_0 -->
<g id="edge8" class="edge">
<title>C0_3&#45;&gt;C0_0</title>
<path fill="none" stroke="black" d="M623.21,-189.25C614.04,-197.66 604.88,-208.28 600,-220.19 596.99,-227.53 595.72,-235.67 595.49,-243.73"/>
<polygon fill="black" stroke="black" points="591.99,-243.9 595.7,-253.82 598.99,-243.75 591.99,-243.9"/>
<text text-anchor="middle" x="618" y="-223.99" font-family="Times,serif" font-size="14.00">t7O3</text>
</g>
<!-- C0_3&#45;&gt;C0_3 -->
<g id="edge9" class="edge">
<title>C0_3&#45;&gt;C0_3</title>
<path fill="none" stroke="black" d="M682.12,-179.27C693.03,-179.32 701.8,-175.7 701.8,-168.39 701.8,-163.6 698.02,-160.39 692.34,-158.76"/>
<polygon fill="black" stroke="black" points="692.47,-155.25 682.12,-157.52 691.62,-162.2 692.47,-155.25"/>
<text text-anchor="middle" x="709.8" y="-164.69" font-family="Times,serif" font-size="14.00">t8</text>
</g>
<!-- C1_0 -->
<g id="node7" class="node">
<title>C1_0</title>
<ellipse fill="white" stroke="black" cx="866" cy="-417.58" rx="33.62" ry="33.62"/>
<ellipse fill="none" stroke="black" cx="866" cy="-417.58" rx="37.6" ry="37.6"/>
<text text-anchor="middle" x="866" y="-413.88" font-family="Times,serif" font-size="14.00">C1_0</text>
</g>
<!-- C1_0&#45;&gt;C0_0 -->
<g id="edge41" class="edge">
<title>C1_0&#45;&gt;C0_0</title>
<path fill="none" stroke="black" d="M820,-394.71C791.03,-380.94 752.83,-362.81 719,-346.78 715.13,-344.95 711.19,-343.08 707.21,-341.2"/>
<polygon fill="black" stroke="black" points="708.4,-337.89 697.86,-336.78 705.41,-344.22 708.4,-337.89"/>
<text text-anchor="middle" x="765.5" y="-350.58" font-family="Times,serif" font-size="14.00">L3{}</text>
</g>
<!-- C1_4 -->
<g id="node8" class="node">
<title>C1_4</title>
<ellipse fill="white" stroke="black" cx="941" cy="-290.99" rx="33.6" ry="33.6"/>
<text text-anchor="middle" x="941" y="-287.29" font-family="Times,serif" font-size="14.00">C1_4</text>
</g>
<!-- C1_0&#45;&gt;C1_4 -->
<g id="edge10" class="edge">
<title>C1_0&#45;&gt;C1_4</title>
<path fill="none" stroke="black" d="M885.12,-384.82C895.32,-367.87 907.93,-346.92 918.59,-329.21"/>
<polygon fill="black" stroke="black" points="921.8,-330.66 923.96,-320.29 915.81,-327.05 921.8,-330.66"/>
<text text-anchor="middle" x="915" y="-350.58" font-family="Times,serif" font-size="14.00">t0</text>
</g>
<!-- C1_5 -->
<g id="node12" class="node">
<title>C1_5</title>
<ellipse fill="white" stroke="black" cx="1074" cy="-49.8" rx="33.6" ry="33.6"/>
<text text-anchor="middle" x="1074" y="-46.1" font-family="Times,serif" font-size="14.00">C1_5</text>
</g>
<!-- C1_0&#45;&gt;C1_5 -->
<g id="edge14" class="edge">
<title>C1_0&#45;&gt;C1_5</title>
<path fill="none" stroke="black" d="M898.55,-397.97C923.28,-383.05 957.45,-360.71 984,-336.78 991.25,-330.25 1093.66,-211.36 1097,-202.19 1110.26,-165.78 1100.97,-121.77 1090.5,-90.6"/>
<polygon fill="black" stroke="black" points="1093.73,-89.22 1087.09,-80.96 1087.13,-91.56 1093.73,-89.22"/>
<text text-anchor="middle" x="1100" y="-223.99" font-family="Times,serif" font-size="14.00">t0O2</text>
</g>
<!-- C1_0&#45;&gt;C2_0 -->
<g id="edge48" class="edge">
<title>C1_0&#45;&gt;C2_0</title>
<path fill="none" stroke="black" d="M820,-438.69C798.06,-447.83 771.15,-457.72 746,-463.38 653.55,-484.18 572.08,-487.9 521,-477.38 492.23,-471.45 462.08,-459.3 437.24,-447.48"/>
<polygon fill="black" stroke="black" points="438.52,-444.21 428,-442.99 435.46,-450.51 438.52,-444.21"/>
<text text-anchor="middle" x="544" y="-477.18" font-family="Times,serif" font-size="14.00">L10{}</text>
</g>
<!-- C1_3 -->
<g id="node9" class="node">
<title>C1_3</title>
<ellipse fill="white" stroke="black" cx="862" cy="-168.39" rx="33.6" ry="33.6"/>
<text text-anchor="middle" x="862" y="-164.69" font-family="Times,serif" font-size="14.00">C1_3</text>
</g>
<!-- C1_4&#45;&gt;C1_3 -->
<g id="edge11" class="edge">
<title>C1_4&#45;&gt;C1_3</title>
<path fill="none" stroke="black" d="M922.88,-262.32C911.91,-245.59 897.81,-224.06 885.94,-205.93"/>
<polygon fill="black" stroke="black" points="888.72,-203.79 880.31,-197.35 882.87,-207.63 888.72,-203.79"/>
<text text-anchor="middle" x="911" y="-223.99" font-family="Times,serif" font-size="14.00">t0</text>
</g>
<!-- C1_1 -->
<g id="node10" class="node">
<title>C1_1</title>
<ellipse fill="white" stroke="black" cx="1054" cy="-168.39" rx="33.6" ry="33.6"/>
<text text-anchor="middle" x="1054" y="-164.69" font-family="Times,serif" font-size="14.00">C1_1</text>
</g>
<!-- C1_4&#45;&gt;C1_1 -->
<g id="edge12" class="edge">
<title>C1_4&#45;&gt;C1_1</title>
<path fill="none" stroke="black" d="M963.87,-265.58C981.25,-247.03 1005.31,-221.35 1024.2,-201.19"/>
<polygon fill="black" stroke="black" points="1026.88,-203.45 1031.17,-193.76 1021.78,-198.66 1026.88,-203.45"/>
<text text-anchor="middle" x="1022" y="-223.99" font-family="Times,serif" font-size="14.00">t0O3</text>
</g>
<!-- C1_2 -->
<g id="node11" class="node">
<title>C1_2</title>
<ellipse fill="white" stroke="black" cx="954" cy="-49.8" rx="33.6" ry="33.6"/>
<text text-anchor="middle" x="954" y="-46.1" font-family="Times,serif" font-size="14.00">C1_2</text>
</g>
<!-- C1_4&#45;&gt;C1_2 -->
<g id="edge13" class="edge">
<title>C1_4&#45;&gt;C1_2</title>
<path fill="none" stroke="black" d="M942.78,-257.23C945.08,-214.88 949.1,-141.02 951.65,-94.09"/>
<polygon fill="black" stroke="black" points="955.15,-94.1 952.2,-83.93 948.16,-93.72 955.15,-94.1"/>
<text text-anchor="middle" x="967" y="-164.69" font-family="Times,serif" font-size="14.00">t0O2</text>
</g>
<!-- C1_3&#45;&gt;C1_3 -->
<g id="edge16" class="edge">
<title>C1_3&#45;&gt;C1_3</title>
<path fill="none" stroke="black" d="M894.12,-179.27C905.03,-179.32 913.8,-175.7 913.8,-168.39 913.8,-163.6 910.02,-160.39 904.34,-158.76"/>
<polygon fill="black" stroke="black" points="904.47,-155.25 894.12,-157.52 903.62,-162.2 904.47,-155.25"/>
<text text-anchor="middle" x="921.8" y="-164.69" font-family="Times,serif" font-size="14.00">t6</text>
</g>
<!-- C1_1&#45;&gt;C1_2 -->
<g id="edge18" class="edge">
<title>C1_1&#45;&gt;C1_2</title>
<path fill="none" stroke="black" d="M1032.3,-142.09C1017.62,-124.98 998.1,-102.21 982.21,-83.69"/>
<polygon fill="black" stroke="black" points="984.82,-81.36 975.66,-76.05 979.51,-85.92 984.82,-81.36"/>
<text text-anchor="middle" x="1017" y="-105.39" font-family="Times,serif" font-size="14.00">t8</text>
</g>
<!-- C1_1&#45;&gt;C1_5 -->
<g id="edge15" class="edge">
<title>C1_1&#45;&gt;C1_5</title>
<path fill="none" stroke="black" d="M1059.57,-134.91C1061.76,-122.13 1064.31,-107.28 1066.65,-93.64"/>
<polygon fill="black" stroke="black" points="1070.15,-93.95 1068.39,-83.51 1063.25,-92.77 1070.15,-93.95"/>
<text text-anchor="middle" x="1073" y="-105.39" font-family="Times,serif" font-size="14.00">t5</text>
</g>
<!-- C1_2&#45;&gt;C1_2 -->
<g id="edge17" class="edge">
<title>C1_2&#45;&gt;C1_2</title>
<path fill="none" stroke="black" d="M986.12,-60.67C997.03,-60.73 1005.8,-57.1 1005.8,-49.8 1005.8,-45 1002.02,-41.79 996.34,-40.17"/>
<polygon fill="black" stroke="black" points="996.47,-36.66 986.12,-38.92 995.62,-43.61 996.47,-36.66"/>
<text text-anchor="middle" x="1013.8" y="-46.1" font-family="Times,serif" font-size="14.00">t7</text>
</g>
<!-- C2_0&#45;&gt;C0_0 -->
<g id="edge43" class="edge">
<title>C2_0&#45;&gt;C0_0</title>
<path fill="none" stroke="black" d="M428,-408.46C462.73,-400.69 510.33,-386.41 546,-361.78 553.08,-356.89 559.75,-350.89 565.85,-344.46"/>
<polygon fill="black" stroke="black" points="568.68,-346.56 572.76,-336.78 563.47,-341.88 568.68,-346.56"/>
<text text-anchor="middle" x="580.5" y="-350.58" font-family="Times,serif" font-size="14.00">L5{}</text>
</g>
<!-- C2_2 -->
<g id="node14" class="node">
<title>C2_2</title>
<ellipse fill="white" stroke="black" cx="300" cy="-290.99" rx="33.6" ry="33.6"/>
<text text-anchor="middle" x="300" y="-287.29" font-family="Times,serif" font-size="14.00">C2_2</text>
</g>
<!-- C2_0&#45;&gt;C2_2 -->
<g id="edge19" class="edge">
<title>C2_0&#45;&gt;C2_2</title>
<path fill="none" stroke="black" d="M359.04,-387.15C352.99,-379.06 346.59,-370.19 341,-361.78 334.26,-351.64 327.39,-340.38 321.24,-329.9"/>
<polygon fill="black" stroke="black" points="324.1,-327.85 316.05,-320.95 318.04,-331.36 324.1,-327.85"/>
<text text-anchor="middle" x="349" y="-350.58" font-family="Times,serif" font-size="14.00">t0</text>
</g>
<!-- C2_1 -->
<g id="node15" class="node">
<title>C2_1</title>
<ellipse fill="white" stroke="black" cx="386" cy="-290.99" rx="33.6" ry="33.6"/>
<text text-anchor="middle" x="386" y="-287.29" font-family="Times,serif" font-size="14.00">C2_1</text>
</g>
<!-- C2_0&#45;&gt;C2_1 -->
<g id="edge20" class="edge">
<title>C2_0&#45;&gt;C2_1</title>
<path fill="none" stroke="black" d="M383.19,-379.53C383.64,-365.57 384.15,-349.56 384.62,-335.08"/>
<polygon fill="black" stroke="black" points="388.12,-334.97 384.94,-324.86 381.13,-334.75 388.12,-334.97"/>
<text text-anchor="middle" x="392" y="-350.58" font-family="Times,serif" font-size="14.00">t0</text>
</g>
<!-- C3_0 -->
<g id="node17" class="node">
<title>C3_0</title>
<ellipse fill="white" stroke="black" cx="204" cy="-544.17" rx="33.62" ry="33.62"/>
<ellipse fill="none" stroke="black" cx="204" cy="-544.17" rx="37.6" ry="37.6"/>
<text text-anchor="middle" x="204" y="-540.47" font-family="Times,serif" font-size="14.00">C3_0</text>
</g>
<!-- C2_0&#45;&gt;C3_0 -->
<g id="edge45" class="edge">
<title>C2_0&#45;&gt;C3_0</title>
<path fill="none" stroke="black" d="M349.9,-463.38C342.1,-472.38 333.31,-481.26 324,-488.38 304.67,-503.16 280.72,-515.11 259.31,-524.03"/>
<polygon fill="black" stroke="black" points="257.96,-520.8 250,-527.79 260.58,-527.29 257.96,-520.8"/>
<text text-anchor="middle" x="358.5" y="-477.18" font-family="Times,serif" font-size="14.00">L7{}</text>
</g>
<!-- C4_0 -->
<g id="node22" class="node">
<title>C4_0</title>
<ellipse fill="white" stroke="black" cx="1170" cy="-544.17" rx="33.62" ry="33.62"/>
<ellipse fill="none" stroke="black" cx="1170" cy="-544.17" rx="37.6" ry="37.6"/>
<text text-anchor="middle" x="1170" y="-540.47" font-family="Times,serif" font-size="14.00">C4_0</text>
</g>
<!-- C2_0&#45;&gt;C4_0 -->
<g id="edge46" class="edge">
<title>C2_0&#45;&gt;C4_0</title>
<path fill="none" stroke="black" d="M428,-459.06C443.51,-470.51 461.59,-481.67 480,-488.38 598.31,-531.44 985.22,-540.72 1121.76,-542.67"/>
<polygon fill="black" stroke="black" points="1113.8,-545.68 1124,-542.81 1114.23,-538.7 1113.8,-545.68"/>
<text text-anchor="middle" x="498.5" y="-477.18" font-family="Times,serif" font-size="14.00">L8{}</text>
</g>
<!-- C2_1&#45;&gt;C2_0 -->
<g id="edge22" class="edge">
<title>C2_1&#45;&gt;C2_0</title>
<path fill="none" stroke="black" d="M371.12,-321.45C367.78,-329.47 364.71,-338.29 363,-346.78 361.27,-355.37 361.89,-364.45 363.71,-373.13"/>
<polygon fill="black" stroke="black" points="360.4,-374.29 366.33,-383.07 367.17,-372.51 360.4,-374.29"/>
<text text-anchor="middle" x="371" y="-350.58" font-family="Times,serif" font-size="14.00">t3</text>
</g>
<!-- C2_3 -->
<g id="node16" class="node">
<title>C2_3</title>
<ellipse fill="white" stroke="black" cx="386" cy="-168.39" rx="33.6" ry="33.6"/>
<text text-anchor="middle" x="386" y="-164.69" font-family="Times,serif" font-size="14.00">C2_3</text>
</g>
<!-- C2_1&#45;&gt;C2_3 -->
<g id="edge21" class="edge">
<title>C2_1&#45;&gt;C2_3</title>
<path fill="none" stroke="black" d="M386,-257.03C386,-243.34 386,-227.26 386,-212.64"/>
<polygon fill="black" stroke="black" points="389.5,-212.3 386,-202.3 382.5,-212.3 389.5,-212.3"/>
<text text-anchor="middle" x="394" y="-223.99" font-family="Times,serif" font-size="14.00">t0</text>
</g>
<!-- C3_0&#45;&gt;C1_0 -->
<g id="edge44" class="edge">
<title>C3_0&#45;&gt;C1_0</title>
<path fill="none" stroke="black" d="M250,-540.73C344.62,-534.76 567.21,-515.89 746,-463.38 767.43,-457.08 790.52,-448.83 810.67,-441.12"/>
<polygon fill="black" stroke="black" points="811.94,-444.39 820,-437.51 809.41,-437.86 811.94,-444.39"/>
<text text-anchor="middle" x="721.5" y="-477.18" font-family="Times,serif" font-size="14.00">L6{}</text>
</g>
<!-- C3_0&#45;&gt;C2_0 -->
<g id="edge40" class="edge">
<title>C3_0&#45;&gt;C2_0</title>
<path fill="none" stroke="black" d="M250,-502.04C261.74,-492.23 274.57,-482.08 287,-473.38 289.1,-471.9 291.25,-470.43 293.42,-468.97"/>
<polygon fill="black" stroke="black" points="295.51,-471.79 301.95,-463.37 291.67,-465.93 295.51,-471.79"/>
<text text-anchor="middle" x="305.5" y="-477.18" font-family="Times,serif" font-size="14.00">L2{}</text>
</g>
<!-- C3_4 -->
<g id="node18" class="node">
<title>C3_4</title>
<ellipse fill="white" stroke="black" cx="50" cy="-417.58" rx="33.6" ry="33.6"/>
<text text-anchor="middle" x="50" y="-413.88" font-family="Times,serif" font-size="14.00">C3_4</text>
</g>
<!-- C3_0&#45;&gt;C3_4 -->
<g id="edge23" class="edge">
<title>C3_0&#45;&gt;C3_4</title>
<path fill="none" stroke="black" d="M168.82,-529.87C147.1,-520.49 119.56,-506.41 99,-488.38 88.53,-479.2 79.14,-467.35 71.45,-456.02"/>
<polygon fill="black" stroke="black" points="74.3,-453.99 65.91,-447.52 68.44,-457.81 74.3,-453.99"/>
<text text-anchor="middle" x="107" y="-477.18" font-family="Times,serif" font-size="14.00">t0</text>
</g>
<!-- C3_2 -->
<g id="node19" class="node">
<title>C3_2</title>
<ellipse fill="white" stroke="black" cx="208" cy="-417.58" rx="33.6" ry="33.6"/>
<text text-anchor="middle" x="208" y="-413.88" font-family="Times,serif" font-size="14.00">C3_2</text>
</g>
<!-- C3_0&#45;&gt;C3_2 -->
<g id="edge24" class="edge">
<title>C3_0&#45;&gt;C3_2</title>
<path fill="none" stroke="black" d="M201.8,-506.21C201.47,-495.6 201.42,-484.03 202,-473.38 202.21,-469.46 202.51,-465.39 202.87,-461.31"/>
<polygon fill="black" stroke="black" points="206.36,-461.56 203.83,-451.27 199.39,-460.89 206.36,-461.56"/>
<text text-anchor="middle" x="229.5" y="-477.18" font-family="Times,serif" font-size="14.00">t0O6R5</text>
</g>
<!-- C3_3 -->
<g id="node21" class="node">
<title>C3_3</title>
<ellipse fill="white" stroke="black" cx="198" cy="-290.99" rx="33.6" ry="33.6"/>
<text text-anchor="middle" x="198" y="-287.29" font-family="Times,serif" font-size="14.00">C3_3</text>
</g>
<!-- C3_0&#45;&gt;C3_3 -->
<g id="edge27" class="edge">
<title>C3_0&#45;&gt;C3_3</title>
<path fill="none" stroke="black" d="M173.99,-520.91C157.3,-506.57 138.1,-486.35 129,-463.38 115.32,-428.84 116.85,-414.89 129,-379.78 136.57,-357.9 152.1,-337.32 166.51,-321.59"/>
<polygon fill="black" stroke="black" points="169.11,-323.94 173.46,-314.28 164.03,-319.12 169.11,-323.94"/>
<text text-anchor="middle" x="147" y="-413.88" font-family="Times,serif" font-size="14.00">t4O4</text>
</g>
<!-- C3_1 -->
<g id="node20" class="node">
<title>C3_1</title>
<ellipse fill="white" stroke="black" cx="50" cy="-290.99" rx="33.6" ry="33.6"/>
<text text-anchor="middle" x="50" y="-287.29" font-family="Times,serif" font-size="14.00">C3_1</text>
</g>
<!-- C3_4&#45;&gt;C3_1 -->
<g id="edge25" class="edge">
<title>C3_4&#45;&gt;C3_1</title>
<path fill="none" stroke="black" d="M50,-383.52C50,-368.73 50,-351.11 50,-335.29"/>
<polygon fill="black" stroke="black" points="53.5,-335.2 50,-325.2 46.5,-335.2 53.5,-335.2"/>
<text text-anchor="middle" x="67.5" y="-350.58" font-family="Times,serif" font-size="14.00">t0R2</text>
</g>
<!-- C3_2&#45;&gt;C3_3 -->
<g id="edge26" class="edge">
<title>C3_2&#45;&gt;C3_3</title>
<path fill="none" stroke="black" d="M205.37,-383.84C204.18,-368.94 202.74,-351.1 201.46,-335.12"/>
<polygon fill="black" stroke="black" points="204.93,-334.62 200.64,-324.93 197.96,-335.18 204.93,-334.62"/>
<text text-anchor="middle" x="221" y="-350.58" font-family="Times,serif" font-size="14.00">t0O8</text>
</g>
<!-- C3_1&#45;&gt;C3_1 -->
<g id="edge28" class="edge">
<title>C3_1&#45;&gt;C3_1</title>
<path fill="none" stroke="black" d="M81.87,-302.61C92.89,-302.73 101.8,-298.86 101.8,-290.99 101.8,-285.82 97.96,-282.38 92.21,-280.65"/>
<polygon fill="black" stroke="black" points="92.22,-277.13 81.87,-279.36 91.36,-284.07 92.22,-277.13"/>
<text text-anchor="middle" x="119.8" y="-287.29" font-family="Times,serif" font-size="14.00">t5O7</text>
</g>
<!-- C4_0&#45;&gt;C0_0 -->
<g id="edge39" class="edge">
<title>C4_0&#45;&gt;C0_0</title>
<path fill="none" stroke="black" d="M1124,-542.06C1047.92,-538.48 892.98,-523.69 779,-463.38 724.56,-434.57 675.54,-383.73 643.14,-344.88"/>
<polygon fill="black" stroke="black" points="645.54,-342.28 636.49,-336.78 640.13,-346.73 645.54,-342.28"/>
<text text-anchor="middle" x="797.5" y="-413.88" font-family="Times,serif" font-size="14.00">L1{}</text>
</g>
<!-- C4_0&#45;&gt;C1_0 -->
<g id="edge47" class="edge">
<title>C4_0&#45;&gt;C1_0</title>
<path fill="none" stroke="black" d="M1124,-524.32C1087.03,-509.17 1033.4,-487.19 984.6,-467.19"/>
<polygon fill="black" stroke="black" points="985.88,-463.93 975.3,-463.37 983.22,-470.41 985.88,-463.93"/>
<text text-anchor="middle" x="1054.5" y="-477.18" font-family="Times,serif" font-size="14.00">L9{}</text>
</g>
<!-- C4_0&#45;&gt;C2_0 -->
<g id="edge42" class="edge">
<title>C4_0&#45;&gt;C2_0</title>
<path fill="none" stroke="black" d="M1124,-541.77C1028.71,-538.18 803.14,-526.08 618,-488.38 596.1,-483.92 591.4,-479.84 570,-473.38 525.62,-459.97 475.17,-445.3 437.71,-434.51"/>
<polygon fill="black" stroke="black" points="438.57,-431.12 428,-431.72 436.64,-437.85 438.57,-431.12"/>
<text text-anchor="middle" x="636.5" y="-477.18" font-family="Times,serif" font-size="14.00">L4{}</text>
</g>
<!-- C4_0&#45;&gt;C3_0 -->
<g id="edge49" class="edge">
<title>C4_0&#45;&gt;C3_0</title>
<path fill="none" stroke="black" d="M1124,-544.17C961.76,-544.17 417.1,-544.17 251.9,-544.17"/>
<polygon fill="black" stroke="black" points="260,-540.67 250,-544.17 260,-547.67 260,-540.67"/>
<text text-anchor="middle" x="687" y="-550.97" font-family="Times,serif" font-size="14.00">L11{}</text>
</g>
<!-- C4_2 -->
<g id="node23" class="node">
<title>C4_2</title>
<ellipse fill="white" stroke="black" cx="1263" cy="-168.39" rx="33.6" ry="33.6"/>
<text text-anchor="middle" x="1263" y="-164.69" font-family="Times,serif" font-size="14.00">C4_2</text>
</g>
<!-- C4_0&#45;&gt;C4_2 -->
<g id="edge29" class="edge">
<title>C4_0&#45;&gt;C4_2</title>
<path fill="none" stroke="black" d="M1204.88,-529.06C1231.38,-516.25 1265.92,-494.57 1282,-463.38 1289.8,-448.25 1291.75,-289.61 1280,-220.19 1279.42,-216.78 1278.66,-213.3 1277.77,-209.83"/>
<polygon fill="black" stroke="black" points="1281.12,-208.81 1274.99,-200.16 1274.39,-210.74 1281.12,-208.81"/>
<text text-anchor="middle" x="1296" y="-350.58" font-family="Times,serif" font-size="14.00">t0</text>
</g>
<!-- C4_5 -->
<g id="node24" class="node">
<title>C4_5</title>
<ellipse fill="white" stroke="black" cx="1345" cy="-417.58" rx="33.6" ry="33.6"/>
<text text-anchor="middle" x="1345" y="-413.88" font-family="Times,serif" font-size="14.00">C4_5</text>
</g>
<!-- C4_0&#45;&gt;C4_5 -->
<g id="edge30" class="edge">
<title>C4_0&#45;&gt;C4_5</title>
<path fill="none" stroke="black" d="M1206.31,-533.49C1233.44,-524.92 1270.28,-510.33 1297,-488.38 1307.68,-479.6 1317,-467.85 1324.5,-456.5"/>
<polygon fill="black" stroke="black" points="1327.52,-458.28 1329.88,-447.95 1321.59,-454.55 1327.52,-458.28"/>
<text text-anchor="middle" x="1329" y="-477.18" font-family="Times,serif" font-size="14.00">t0O8</text>
</g>
<!-- C4_1 -->
<g id="node26" class="node">
<title>C4_1</title>
<ellipse fill="white" stroke="black" cx="1166" cy="-417.58" rx="33.6" ry="33.6"/>
<text text-anchor="middle" x="1166" y="-413.88" font-family="Times,serif" font-size="14.00">C4_1</text>
</g>
<!-- C4_0&#45;&gt;C4_1 -->
<g id="edge32" class="edge">
<title>C4_0&#45;&gt;C4_1</title>
<path fill="none" stroke="black" d="M1168.81,-506.13C1168.36,-492.16 1167.85,-476.15 1167.38,-461.68"/>
<polygon fill="black" stroke="black" points="1170.87,-461.34 1167.06,-451.46 1163.88,-461.57 1170.87,-461.34"/>
<text text-anchor="middle" x="1176" y="-477.18" font-family="Times,serif" font-size="14.00">t0</text>
</g>
<!-- C4_2&#45;&gt;C4_2 -->
<g id="edge34" class="edge">
<title>C4_2&#45;&gt;C4_2</title>
<path fill="none" stroke="black" d="M1295.12,-179.27C1306.03,-179.32 1314.8,-175.7 1314.8,-168.39 1314.8,-163.6 1311.02,-160.39 1305.34,-158.76"/>
<polygon fill="black" stroke="black" points="1305.47,-155.25 1295.12,-157.52 1304.62,-162.2 1305.47,-155.25"/>
<text text-anchor="middle" x="1322.8" y="-164.69" font-family="Times,serif" font-size="14.00">t5</text>
</g>
<!-- C4_3 -->
<g id="node25" class="node">
<title>C4_3</title>
<ellipse fill="white" stroke="black" cx="1263" cy="-49.8" rx="33.6" ry="33.6"/>
<text text-anchor="middle" x="1263" y="-46.1" font-family="Times,serif" font-size="14.00">C4_3</text>
</g>
<!-- C4_2&#45;&gt;C4_3 -->
<g id="edge31" class="edge">
<title>C4_2&#45;&gt;C4_3</title>
<path fill="none" stroke="black" d="M1263,-134.29C1263,-121.86 1263,-107.54 1263,-94.3"/>
<polygon fill="black" stroke="black" points="1266.5,-93.98 1263,-83.98 1259.5,-93.98 1266.5,-93.98"/>
<text text-anchor="middle" x="1281" y="-105.39" font-family="Times,serif" font-size="14.00">t0O2</text>
</g>
<!-- C4_3&#45;&gt;C4_3 -->
<g id="edge35" class="edge">
<title>C4_3&#45;&gt;C4_3</title>
<path fill="none" stroke="black" d="M1295.12,-60.67C1306.03,-60.73 1314.8,-57.1 1314.8,-49.8 1314.8,-45 1311.02,-41.79 1305.34,-40.17"/>
<polygon fill="black" stroke="black" points="1305.47,-36.66 1295.12,-38.92 1304.62,-43.61 1305.47,-36.66"/>
<text text-anchor="middle" x="1342.3" y="-46.1" font-family="Times,serif" font-size="14.00">t6O9R4</text>
</g>
<!-- C4_1&#45;&gt;C4_1 -->
<g id="edge36" class="edge">
<title>C4_1&#45;&gt;C4_1</title>
<path fill="none" stroke="black" d="M1197.87,-429.2C1208.89,-429.32 1217.8,-425.45 1217.8,-417.58 1217.8,-412.41 1213.96,-408.97 1208.21,-407.25"/>
<polygon fill="black" stroke="black" points="1208.22,-403.72 1197.87,-405.96 1207.36,-410.67 1208.22,-403.72"/>
<text text-anchor="middle" x="1245.3" y="-413.88" font-family="Times,serif" font-size="14.00">t7O5R5</text>
</g>
<!-- C4_4 -->
<g id="node27" class="node">
<title>C4_4</title>
<ellipse fill="white" stroke="black" cx="1211" cy="-290.99" rx="33.6" ry="33.6"/>
<text text-anchor="middle" x="1211" y="-287.29" font-family="Times,serif" font-size="14.00">C4_4</text>
</g>
<!-- C4_1&#45;&gt;C4_4 -->
<g id="edge33" class="edge">
<title>C4_1&#45;&gt;C4_4</title>
<path fill="none" stroke="black" d="M1177.24,-385.46C1182.98,-369.55 1190.05,-349.99 1196.23,-332.88"/>
<polygon fill="black" stroke="black" points="1199.64,-333.73 1199.75,-323.14 1193.06,-331.36 1199.64,-333.73"/>
<text text-anchor="middle" x="1199" y="-350.58" font-family="Times,serif" font-size="14.00">t0</text>
</g>
<!-- C4_4&#45;&gt;C4_2 -->
<g id="edge37" class="edge">
<title>C4_4&#45;&gt;C4_2</title>
<path fill="none" stroke="black" d="M1224.12,-259.55C1230.71,-244.27 1238.78,-225.57 1245.85,-209.16"/>
<polygon fill="black" stroke="black" points="1249.14,-210.38 1249.88,-199.81 1242.71,-207.61 1249.14,-210.38"/>
<text text-anchor="middle" x="1258" y="-223.99" font-family="Times,serif" font-size="14.00">t8O9</text>
</g>
</g>
</svg>
