<?xml version="1.0" encoding="UTF-8" standalone="no"?>
<!DOCTYPE svg PUBLIC "-//W3C//DTD SVG 1.1//EN"
 "http://www.w3.org/Graphics/SVG/1.1/DTD/svg11.dtd">
<!-- Generated by graphviz version 2.43.0 (0)
 -->
<!-- Title: MONgen/Seed744556043 Pages: 1 -->
<svg width="32221pt" height="2412pt"
 viewBox="0.00 0.00 32221.00 2411.59" xmlns="http://www.w3.org/2000/svg" xmlns:xlink="http://www.w3.org/1999/xlink">
<g id="graph0" class="graph" transform="scale(1 1) rotate(0) translate(4 2407.59)">
<title>MONgen/Seed744556043</title>
<polygon fill="white" stroke="transparent" points="-4,4 -4,-2407.59 32217,-2407.59 32217,4 -4,4"/>
<g id="clust1" class="cluster">
<title>cluster0</title>
<path fill="#fff9dd" stroke="#fff9dd" d="M20,-934.59C20,-934.59 66,-934.59 66,-934.59 72,-934.59 78,-940.59 78,-946.59 78,-946.59 78,-997.59 78,-997.59 78,-1003.59 72,-1009.59 66,-1009.59 66,-1009.59 20,-1009.59 20,-1009.59 14,-1009.59 8,-1003.59 8,-997.59 8,-997.59 8,-946.59 8,-946.59 8,-940.59 14,-934.59 20,-934.59"/>
<text text-anchor="middle" x="43" y="-994.39" font-family="Times,serif" font-size="14.00">ε</text>
</g>
<g id="clust2" class="cluster">
<title>cluster1</title>
<path fill="#fff9dd" stroke="#fff9dd" d="M153,-934.59C153,-934.59 199,-934.59 199,-934.59 205,-934.59 211,-940.59 211,-946.59 211,-946.59 211,-997.59 211,-997.59 211,-1003.59 205,-1009.59 199,-1009.59 199,-1009.59 153,-1009.59 153,-1009.59 147,-1009.59 141,-1003.59 141,-997.59 141,-997.59 141,-946.59 141,-946.59 141,-940.59 147,-934.59 153,-934.59"/>
<text text-anchor="middle" x="176" y="-994.39" font-family="Times,serif" font-size="14.00">r1</text>
</g>
<g id="clust3" class="cluster">
<title>cluster2</title>
<path fill="#fff9dd" stroke="#fff9dd" d="M302,-934.59C302,-934.59 349,-934.59 349,-934.59 355,-934.59 361,-940.59 361,-946.59 361,-946.59 361,-997.59 361,-997.59 361,-1003.59 355,-1009.59 349,-1009.59 349,-1009.59 302,-1009.59 302,-1009.59 296,-1009.59 290,-1003.59 290,-997.59 290,-997.59 290,-946.59 290,-946.59 290,-940.59 296,-934.59 302,-934.59"/>
<text text-anchor="middle" x="325.5" y="-994.39" font-family="Times,serif" font-size="14.00">r1r2r2?</text>
</g>
<g id="clust4" class="cluster">
<title>cluster3</title>
<path fill="#fff9dd" stroke="#fff9dd" d="M492,-905.59C492,-905.59 966,-905.59 966,-905.59 972,-905.59 978,-911.59 978,-917.59 978,-917.59 978,-1022.59 978,-1022.59 978,-1028.59 972,-1034.59 966,-1034.59 966,-1034.59 492,-1034.59 492,-1034.59 486,-1034.59 480,-1028.59 480,-1022.59 480,-1022.59 480,-917.59 480,-917.59 480,-911.59 486,-905.59 492,-905.59"/>
<text text-anchor="middle" x="729" y="-1019.39" font-family="Times,serif" font-size="14.00">(r1r2r2(((r2?|r2)|((r2r1)|(r1r2)))|((r2r1)|(r1r2)))|r1)|(r1r2r2r2r1?|r1)</text>
</g>
<g id="clust5" class="cluster">
<title>cluster4</title>
<path fill="#fff9dd" stroke="#fff9dd" d="M1270,-835.59C1270,-835.59 3402,-835.59 3402,-835.59 3408,-835.59 3414,-841.59 3414,-847.59 3414,-847.59 3414,-1168.59 3414,-1168.59 3414,-1174.59 3408,-1180.59 3402,-1180.59 3402,-1180.59 1270,-1180.59 1270,-1180.59 1264,-1180.59 1258,-1174.59 1258,-1168.59 1258,-1168.59 1258,-847.59 1258,-847.59 1258,-841.59 1264,-835.59 1270,-835.59"/>
<text text-anchor="middle" x="2336" y="-1165.39" font-family="Times,serif" font-size="14.00">(((((r1r2r2r2(((((r2?|((r2r1)|(r1r2)))|((r2(r1r2)|(r2r1))|((r1r2r2)|((r1r2r2)|(r2(r2r1)|(r1r2))))))|(r2r2))|r1)|((r1r2)|(r2r1)))|r2)|(r1r2r2r2r1(r1?|(r1r1))|r1))|(r1r2r2r2r2(r1?|((r1r2)|(r2r1)))|r2))|((r1r2r2(r2r1)|(r1r2)r1)|(r1r2r2r2r1r1)r1?))|((r1r2r2(r2r1)|(r1r2)r2)|(r1r2r2r2r1r2)r2?))|(r1r2r2r1r2(r2?|(r2r2))|r2)</text>
</g>
<g id="clust6" class="cluster">
<title>cluster5</title>
<path fill="#fff9dd" stroke="#fff9dd" d="M4304,-768.59C4304,-768.59 11084,-768.59 11084,-768.59 11090,-768.59 11096,-774.59 11096,-780.59 11096,-780.59 11096,-1425.59 11096,-1425.59 11096,-1431.59 11090,-1437.59 11084,-1437.59 11084,-1437.59 4304,-1437.59 4304,-1437.59 4298,-1437.59 4292,-1431.59 4292,-1425.59 4292,-1425.59 4292,-780.59 4292,-780.59 4292,-774.59 4298,-768.59 4304,-768.59"/>
<text text-anchor="middle" x="7694" y="-1422.39" font-family="Times,serif" font-size="14.00">(((((((((((r1r2r2r2r2(((((((((r2?|r2)|((r2r1)|(r1r2)))|((r2r1)|(r1r2)))|((r2(r1r2)|(r2r1))|((r1r2r2)|((r1r2r2)|(r2(r2r1)|(r1r2))))))|((r2(r1r2)|(r2r1))|((r1r2r2)|((r1r2r2)|(r2(r2r1)|(r1r2))))))|(r2r2))|(r2r2))|r1)|((r1r2)|(r2r1)))|r2)|(r1r2r2r2r2r2((((r1?|r1)|((r1r2)|(r2r1)))|((r1r2)|(r2r1)))|r2)|r2))|((((r1r2r2r2(r2r1)|(r1r2)r2)|(r1r2r2r2r2r1r2))|((r1r2r2(r2r1)|(r1r2)r2)|(r1r2r2r2r1r2)r2))|(r1r2r2r1r2r2r2)r2?|r2))|((((r1r2r2r2(r2(r1r2)|(r2r1))|((r1r2r2)|((r1r2r2)|(r2(r2r1)|(r1r2))))r2)|(r1r2r2r2r2(r1r2)|(r2r1)r2))|((r1r2r2(r2r1)|(r1r2)r2)|(r1r2r2r2r1r2)r2r2))|(r1r2r2r1r2r2r2r2)))|(r1r2r2r2r2r2r2r1?|r1))|((r1r2r2r2r1r2)|(r1r2r2r1r2r2)(((r2?|r2)|(r2r2))|(r2r2))|r2))|((r1r2r2r2(r1r2)|(r2r1)r2)|(r1r2r2r1r2r2r2)r2?|r2))|(r1r2r2r2r2r2(((r2?|r2)|((r2r1)|(r1r2)))|((r2r1)|(r1r2)))|r1))|(r1r2r2r2r1r2((((r1?|r1)|(r1r1))|(r1r1))|r1)|r1))|(r1r2r2r2r1r1r2r1?|r1))|((r1r2r2r2r1r1r1r2)|((r1r2r2(r2r1)|(r1r2)r1)|(r1r2r2r2r1r1)r1r2)))|((r1r2r2r2r1r1r2)|((r1r2r2(r2r1)|(r1r2)r1)|(r1r2r2r2r1r1)r2)r1?|r1)</text>
</g>
<g id="clust7" class="cluster">
<title>cluster6</title>
<path fill="#fff9dd" stroke="#fff9dd" d="M12318,-698.59C12318,-698.59 32201,-698.59 32201,-698.59 32207,-698.59 32213,-704.59 32213,-710.59 32213,-710.59 32213,-1679.59 32213,-1679.59 32213,-1685.59 32207,-1691.59 32201,-1691.59 32201,-1691.59 12318,-1691.59 12318,-1691.59 12312,-1691.59 12306,-1685.59 12306,-1679.59 12306,-1679.59 12306,-710.59 12306,-710.59 12306,-704.59 12312,-698.59 12318,-698.59"/>
<text text-anchor="middle" x="22259.5" y="-1676.39" font-family="Times,serif" font-size="14.00">(((((((((((((((((r1r2r2r2r2r3(((((((r1r2)|(r2r1))?|((r2(r1r2)|(r2r1))|((r1r2r2)|((r1r2r2)|(r2(r2r1)|(r1r2))))))|(r2r2))|r2)|r1)|((r2r1)|(r1r2)))|r2)|((r1r2r2r2r2r2r1)|(r1r2r2r2r1r2r2)(((((((r1(r1r2)|(r2r1))|(((r1r2)|(r2r1)r1)|((r1r1r2)|(r2r1r1))))?|r2)|((r1r2)|(r2r1)))|r1)|(r1r1))|((r1r2)|(r2r1)))|r1))|(r1r2r2r2r2r2r3(r2?|r1)|((r1r2)|(r2r1))))|((((((r1r2r2r2r2(r2r1)|(r1r2)r1)|(r1r2r2r2r2r2r1r1))|((((r1r2r2r2(r2r1)|(r1r2)r2)|(r1r2r2r2r2r1r2))|((r1r2r2(r2r1)|(r1r2)r2)|(r1r2r2r2r1r2)r2))|(r1r2r2r1r2r2r2)r1))|((r1r2r2r2r1r2)|(r1r2r2r1r2r2)r2r1))|(r1r2r2r2r1r2r1r2))|((r1r2r2r2r1r1r2)|((r1r2r2(r2r1)|(r1r2)r1)|(r1r2r2r2r1r1)r2)r2)(((r1r2)|(r2r1))?|r2)|r1))|((((r1r2r2r2r2(r2r1)|(r1r2)r3)|(r1r2r2r2r2r2r1r3))|((((r1r2r2r2(r2r1)|(r1r2)r2)|(r1r2r2r2r2r1r2))|((r1r2r2(r2r1)|(r1r2)r2)|(r1r2r2r2r1r2)r2))|(r1r2r2r1r2r2r2)r3))|((r1r2r2r2r1r2)|(r1r2r2r1r2r2)r2r3)r2?))|((((((((r1r2r2r2r2(r2(r1r2)|(r2r1))|((r1r2r2)|((r1r2r2)|(r2(r2r1)|(r1r2))))r1)|(r1r2r2r2r2r2(r1r2)|(r2r1)r1))|((((r1r2r2r2(r2r1)|(r1r2)r2)|(r1r2r2r2r2r1r2))|((r1r2r2(r2r1)|(r1r2)r2)|(r1r2r2r2r1r2)r2))|(r1r2r2r1r2r2r2)r2r1))|((((r1r2r2r2(r2(r1r2)|(r2r1))|((r1r2r2)|((r1r2r2)|(r2(r2r1)|(r1r2))))r2)|(r1r2r2r2r2(r1r2)|(r2r1)r2))|((r1r2r2(r2r1)|(r1r2)r2)|(r1r2r2r2r1r2)r2r2))|(r1r2r2r1r2r2r2r2)r1))|(r1r2r2r2r2r2r2r1r1))|((r1r2r2r2r1r2)|(r1r2r2r1r2r2)r2r2r1))|((r1r2r2r2(r1r2)|(r2r1)r2)|(r1r2r2r1r2r2r2)r2r1))|(r1r2r2r2r2r2(r2r1)|(r1r2)r1)r1?))|((((((((r1r2r2r2r2(r2(r1r2)|(r2r1))|((r1r2r2)|((r1r2r2)|(r2(r2r1)|(r1r2))))r3)|(r1r2r2r2r2r2(r1r2)|(r2r1)r3))|((((r1r2r2r2(r2r1)|(r1r2)r2)|(r1r2r2r2r2r1r2))|((r1r2r2(r2r1)|(r1r2)r2)|(r1r2r2r2r1r2)r2))|(r1r2r2r1r2r2r2)r2r3))|((((r1r2r2r2(r2(r1r2)|(r2r1))|((r1r2r2)|((r1r2r2)|(r2(r2r1)|(r1r2))))r2)|(r1r2r2r2r2(r1r2)|(r2r1)r2))|((r1r2r2(r2r1)|(r1r2)r2)|(r1r2r2r2r1r2)r2r2))|(r1r2r2r1r2r2r2r2)r3))|(r1r2r2r2r2r2r2r1r3))|((r1r2r2r2r1r2)|(r1r2r2r1r2r2)r2r2r3))|((r1r2r2r2(r1r2)|(r2r1)r2)|(r1r2r2r1r2r2r2)r2r3))|(r1r2r2r2r2r2(r2r1)|(r1r2)r3)))|(r1r2r2r2r2r2r2r1((r1r1)?|r1)|r1))|(r1r2r2r2r2r2r2r3r1?))|((r1r2r2r2r2r1r3)|((r1r2r2r2r1r2)|(r1r2r2r1r2r2)r3)((r2r2)?|r2)|r2))|((((r1r2r2r2r2(r1r2)|(r2r1)r3)|((r1r2r2r2r1r2)|(r1r2r2r1r2r2)r2r3))|((r1r2r2r2(r1r2)|(r2r1)r2)|(r1r2r2r1r2r2r2)r3))|(r1r2r2r2r2r2r1r3)r2?))|(r1r2r2r2r2r2r3(r1?|((r2r1)|(r1r2)))|r2))|(r1r2r2r2r1r2r3((r1r1)?|r1)|r1))|((r1r2r2r2r1r2r1r2)|(r1r2r2r2r1r1r2r2)(r2?|r1)|((r1r2)|(r2r1))))|((r1r2r2r2r1r2r1r3)|(r1r2r2r2r1r1r2r3)r1?))|((((r1r2r2r2r1r2r1r1r2)|(r1r2r2r2r1r1r2r1r2))|((r1r2r2r2r1r1r1r2)|((r1r2r2(r2r1)|(r1r2)r1)|(r1r2r2r2r1r1)r1r2)r2))|((r1r2r2r2r1r1r2)|((r1r2r2(r2r1)|(r1r2)r1)|(r1r2r2r2r1r1)r2)r1r2)r2?))|((((r1r2r2r2r1r2r1r1r3)|(r1r2r2r2r1r1r2r1r3))|((r1r2r2r2r1r1r1r2)|((r1r2r2(r2r1)|(r1r2)r1)|(r1r2r2r2r1r1)r1r2)r3))|((r1r2r2r2r1r1r2)|((r1r2r2(r2r1)|(r1r2)r1)|(r1r2r2r2r1r1)r2)r1r3)))|((r1r2r2r2r1r2r1r3)|((r1r2r2r2r1r1r2)|((r1r2r2(r2r1)|(r1r2)r1)|(r1r2r2r2r1r1)r2)r3)r1?)</text>
</g>
<!-- M0S0 -->
<g id="node1" class="node">
<title>M0S0</title>
<path fill="#ffffff" stroke="black" d="M58,-978.59C58,-978.59 28,-978.59 28,-978.59 22,-978.59 16,-972.59 16,-966.59 16,-966.59 16,-954.59 16,-954.59 16,-948.59 22,-942.59 28,-942.59 28,-942.59 58,-942.59 58,-942.59 64,-942.59 70,-948.59 70,-954.59 70,-954.59 70,-966.59 70,-966.59 70,-972.59 64,-978.59 58,-978.59"/>
<text text-anchor="middle" x="43" y="-956.89" font-family="Times,serif" font-size="14.00">0</text>
</g>
<!-- M1S158 -->
<g id="node2" class="node">
<title>M1S158</title>
<path fill="#ffffff" stroke="black" d="M191,-978.59C191,-978.59 161,-978.59 161,-978.59 155,-978.59 149,-972.59 149,-966.59 149,-966.59 149,-954.59 149,-954.59 149,-948.59 155,-942.59 161,-942.59 161,-942.59 191,-942.59 191,-942.59 197,-942.59 203,-948.59 203,-954.59 203,-954.59 203,-966.59 203,-966.59 203,-972.59 197,-978.59 191,-978.59"/>
<text text-anchor="middle" x="176" y="-956.89" font-family="Times,serif" font-size="14.00">158</text>
</g>
<!-- M0S0&#45;&gt;M1S158 -->
<g id="edge1" class="edge">
<title>M0S0&#45;&gt;M1S158</title>
<path fill="none" stroke="black" d="M70.19,-960.59C89.83,-960.59 116.94,-960.59 138.67,-960.59"/>
<polygon fill="black" stroke="black" points="138.85,-964.09 148.85,-960.59 138.85,-957.09 138.85,-964.09"/>
<text text-anchor="middle" x="109.5" y="-964.39" font-family="Times,serif" font-size="14.00">(ε, r1)</text>
</g>
<!-- M2S159 -->
<g id="node3" class="node">
<title>M2S159</title>
<path fill="#ffffff" stroke="black" d="M340,-978.59C340,-978.59 310,-978.59 310,-978.59 304,-978.59 298,-972.59 298,-966.59 298,-966.59 298,-954.59 298,-954.59 298,-948.59 304,-942.59 310,-942.59 310,-942.59 340,-942.59 340,-942.59 346,-942.59 352,-948.59 352,-954.59 352,-954.59 352,-966.59 352,-966.59 352,-972.59 346,-978.59 340,-978.59"/>
<text text-anchor="middle" x="325" y="-956.89" font-family="Times,serif" font-size="14.00">159</text>
</g>
<!-- M1S158&#45;&gt;M2S159 -->
<g id="edge2" class="edge">
<title>M1S158&#45;&gt;M2S159</title>
<path fill="none" stroke="black" d="M203.28,-960.59C226.8,-960.59 261.5,-960.59 287.67,-960.59"/>
<polygon fill="black" stroke="black" points="287.95,-964.09 297.95,-960.59 287.95,-957.09 287.95,-964.09"/>
<text text-anchor="middle" x="250.5" y="-964.39" font-family="Times,serif" font-size="14.00">(ε, r1r2)</text>
</g>
<!-- M3S160 -->
<g id="node4" class="node">
<title>M3S160</title>
<path fill="#ffffff" stroke="black" d="M744,-1003.59C744,-1003.59 714,-1003.59 714,-1003.59 708,-1003.59 702,-997.59 702,-991.59 702,-991.59 702,-979.59 702,-979.59 702,-973.59 708,-967.59 714,-967.59 714,-967.59 744,-967.59 744,-967.59 750,-967.59 756,-973.59 756,-979.59 756,-979.59 756,-991.59 756,-991.59 756,-997.59 750,-1003.59 744,-1003.59"/>
<text text-anchor="middle" x="729" y="-981.89" font-family="Times,serif" font-size="14.00">160</text>
</g>
<!-- M2S159&#45;&gt;M3S160 -->
<g id="edge3" class="edge">
<title>M2S159&#45;&gt;M3S160</title>
<path fill="none" stroke="black" d="M352.07,-962.21C421.67,-966.54 612,-978.38 691.92,-983.35"/>
<polygon fill="black" stroke="black" points="691.79,-986.84 701.99,-983.97 692.23,-979.86 691.79,-986.84"/>
<text text-anchor="middle" x="420.5" y="-972.39" font-family="Times,serif" font-size="14.00">(ε, r1r2r2)</text>
</g>
<!-- M3S162 -->
<g id="node5" class="node">
<title>M3S162</title>
<path fill="#ffffff" stroke="black" d="M744,-949.59C744,-949.59 714,-949.59 714,-949.59 708,-949.59 702,-943.59 702,-937.59 702,-937.59 702,-925.59 702,-925.59 702,-919.59 708,-913.59 714,-913.59 714,-913.59 744,-913.59 744,-913.59 750,-913.59 756,-919.59 756,-925.59 756,-925.59 756,-937.59 756,-937.59 756,-943.59 750,-949.59 744,-949.59"/>
<text text-anchor="middle" x="729" y="-927.89" font-family="Times,serif" font-size="14.00">162</text>
</g>
<!-- M2S159&#45;&gt;M3S162 -->
<g id="edge4" class="edge">
<title>M2S159&#45;&gt;M3S162</title>
<path fill="none" stroke="black" d="M352.28,-949.74C358.33,-947.66 364.81,-945.77 371,-944.59 486.41,-922.51 626.52,-925.99 691.57,-929.29"/>
<polygon fill="black" stroke="black" points="691.54,-932.8 701.71,-929.84 691.92,-925.81 691.54,-932.8"/>
<text text-anchor="middle" x="420.5" y="-948.39" font-family="Times,serif" font-size="14.00">(r2, r1r2r2r2)</text>
</g>
<!-- M4S144 -->
<g id="node6" class="node">
<title>M4S144</title>
<path fill="#ffffff" stroke="black" d="M2351,-1149.59C2351,-1149.59 2321,-1149.59 2321,-1149.59 2315,-1149.59 2309,-1143.59 2309,-1137.59 2309,-1137.59 2309,-1125.59 2309,-1125.59 2309,-1119.59 2315,-1113.59 2321,-1113.59 2321,-1113.59 2351,-1113.59 2351,-1113.59 2357,-1113.59 2363,-1119.59 2363,-1125.59 2363,-1125.59 2363,-1137.59 2363,-1137.59 2363,-1143.59 2357,-1149.59 2351,-1149.59"/>
<text text-anchor="middle" x="2336" y="-1127.89" font-family="Times,serif" font-size="14.00">144</text>
</g>
<!-- M3S160&#45;&gt;M4S144 -->
<g id="edge5" class="edge">
<title>M3S160&#45;&gt;M4S144</title>
<path fill="none" stroke="black" d="M756.26,-999.01C801.97,-1021.64 899.75,-1066.87 988,-1086.59 1496.95,-1200.32 2140.69,-1150.13 2298.75,-1135.24"/>
<polygon fill="black" stroke="black" points="2299.25,-1138.7 2308.87,-1134.27 2298.58,-1131.74 2299.25,-1138.7"/>
<text text-anchor="middle" x="1118" y="-1132.39" font-family="Times,serif" font-size="14.00">(ε, r1r2r2r2)</text>
</g>
<!-- M4S163 -->
<g id="node7" class="node">
<title>M4S163</title>
<path fill="#ffffff" stroke="black" d="M2351,-879.59C2351,-879.59 2321,-879.59 2321,-879.59 2315,-879.59 2309,-873.59 2309,-867.59 2309,-867.59 2309,-855.59 2309,-855.59 2309,-849.59 2315,-843.59 2321,-843.59 2321,-843.59 2351,-843.59 2351,-843.59 2357,-843.59 2363,-849.59 2363,-855.59 2363,-855.59 2363,-867.59 2363,-867.59 2363,-873.59 2357,-879.59 2351,-879.59"/>
<text text-anchor="middle" x="2336" y="-857.89" font-family="Times,serif" font-size="14.00">163</text>
</g>
<!-- M3S160&#45;&gt;M4S163 -->
<g id="edge6" class="edge">
<title>M3S160&#45;&gt;M4S163</title>
<path fill="none" stroke="black" d="M756.14,-992.06C806.8,-1002.88 918.59,-1018.01 978,-958.59 992.54,-944.05 972.72,-880.35 988,-866.59 1038.04,-821.53 2088.8,-853.52 2298.7,-860.37"/>
<polygon fill="black" stroke="black" points="2298.77,-863.88 2308.88,-860.71 2299,-856.88 2298.77,-863.88"/>
<text text-anchor="middle" x="1118" y="-870.39" font-family="Times,serif" font-size="14.00">(r2, r1r2r2r2r1)</text>
</g>
<!-- M4S149 -->
<g id="node8" class="node">
<title>M4S149</title>
<path fill="#ffffff" stroke="black" d="M2351,-1041.59C2351,-1041.59 2321,-1041.59 2321,-1041.59 2315,-1041.59 2309,-1035.59 2309,-1029.59 2309,-1029.59 2309,-1017.59 2309,-1017.59 2309,-1011.59 2315,-1005.59 2321,-1005.59 2321,-1005.59 2351,-1005.59 2351,-1005.59 2357,-1005.59 2363,-1011.59 2363,-1017.59 2363,-1017.59 2363,-1029.59 2363,-1029.59 2363,-1035.59 2357,-1041.59 2351,-1041.59"/>
<text text-anchor="middle" x="2336" y="-1019.89" font-family="Times,serif" font-size="14.00">149</text>
</g>
<!-- M3S160&#45;&gt;M4S149 -->
<g id="edge7" class="edge">
<title>M3S160&#45;&gt;M4S149</title>
<path fill="none" stroke="black" d="M756.3,-989.33C802.88,-995.75 902.99,-1008.67 988,-1013.59 1507.79,-1043.65 2142.25,-1028.99 2298.81,-1024.66"/>
<polygon fill="black" stroke="black" points="2298.94,-1028.15 2308.84,-1024.37 2298.74,-1021.16 2298.94,-1028.15"/>
<text text-anchor="middle" x="1118" y="-1028.39" font-family="Times,serif" font-size="14.00">(r2, r1r2r2r2r2)</text>
</g>
<!-- M4S161 -->
<g id="node9" class="node">
<title>M4S161</title>
<path fill="#ffffff" stroke="black" d="M2351,-933.59C2351,-933.59 2321,-933.59 2321,-933.59 2315,-933.59 2309,-927.59 2309,-921.59 2309,-921.59 2309,-909.59 2309,-909.59 2309,-903.59 2315,-897.59 2321,-897.59 2321,-897.59 2351,-897.59 2351,-897.59 2357,-897.59 2363,-903.59 2363,-909.59 2363,-909.59 2363,-921.59 2363,-921.59 2363,-927.59 2357,-933.59 2351,-933.59"/>
<text text-anchor="middle" x="2336" y="-911.89" font-family="Times,serif" font-size="14.00">161</text>
</g>
<!-- M3S160&#45;&gt;M4S161 -->
<g id="edge8" class="edge">
<title>M3S160&#45;&gt;M4S161</title>
<path fill="none" stroke="black" d="M756.14,-990.05C804.41,-996.81 908.9,-1004.46 978,-958.59 985.62,-953.53 980.16,-945.3 988,-940.59 1045.7,-905.91 2089.23,-913.39 2298.6,-915.25"/>
<polygon fill="black" stroke="black" points="2298.72,-918.75 2308.75,-915.34 2298.79,-911.75 2298.72,-918.75"/>
<text text-anchor="middle" x="1118" y="-944.39" font-family="Times,serif" font-size="14.00">((r2r1)|(r1r2), r1r2r2(r2r1)|(r1r2)r1)</text>
</g>
<!-- M4S146 -->
<g id="node10" class="node">
<title>M4S146</title>
<path fill="#ffffff" stroke="black" d="M2351,-987.59C2351,-987.59 2321,-987.59 2321,-987.59 2315,-987.59 2309,-981.59 2309,-975.59 2309,-975.59 2309,-963.59 2309,-963.59 2309,-957.59 2315,-951.59 2321,-951.59 2321,-951.59 2351,-951.59 2351,-951.59 2357,-951.59 2363,-957.59 2363,-963.59 2363,-963.59 2363,-975.59 2363,-975.59 2363,-981.59 2357,-987.59 2351,-987.59"/>
<text text-anchor="middle" x="2336" y="-965.89" font-family="Times,serif" font-size="14.00">146</text>
</g>
<!-- M3S160&#45;&gt;M4S146 -->
<g id="edge9" class="edge">
<title>M3S160&#45;&gt;M4S146</title>
<path fill="none" stroke="black" d="M756.36,-986.68C803.05,-988.54 903.31,-992.28 988,-993.59 1508.66,-1001.66 2142.48,-977.54 2298.85,-971.12"/>
<polygon fill="black" stroke="black" points="2299.02,-974.61 2308.87,-970.7 2298.73,-967.62 2299.02,-974.61"/>
<text text-anchor="middle" x="1118" y="-998.39" font-family="Times,serif" font-size="14.00">((r2r1)|(r1r2), r1r2r2(r2r1)|(r1r2)r2)</text>
</g>
<!-- M4S145 -->
<g id="node11" class="node">
<title>M4S145</title>
<path fill="#ffffff" stroke="black" d="M2351,-1095.59C2351,-1095.59 2321,-1095.59 2321,-1095.59 2315,-1095.59 2309,-1089.59 2309,-1083.59 2309,-1083.59 2309,-1071.59 2309,-1071.59 2309,-1065.59 2315,-1059.59 2321,-1059.59 2321,-1059.59 2351,-1059.59 2351,-1059.59 2357,-1059.59 2363,-1065.59 2363,-1071.59 2363,-1071.59 2363,-1083.59 2363,-1083.59 2363,-1089.59 2357,-1095.59 2351,-1095.59"/>
<text text-anchor="middle" x="2336" y="-1073.89" font-family="Times,serif" font-size="14.00">145</text>
</g>
<!-- M3S160&#45;&gt;M4S145 -->
<g id="edge10" class="edge">
<title>M3S160&#45;&gt;M4S145</title>
<path fill="none" stroke="black" d="M756.07,-993.23C802.3,-1006.38 901.89,-1032.9 988,-1043.59 1504.84,-1107.76 2141.48,-1086.03 2298.66,-1079.28"/>
<polygon fill="black" stroke="black" points="2298.89,-1082.77 2308.73,-1078.84 2298.58,-1075.78 2298.89,-1082.77"/>
<text text-anchor="middle" x="1118" y="-1071.39" font-family="Times,serif" font-size="14.00">(r1, r1r2r2r1r2)</text>
</g>
<!-- M3S162&#45;&gt;M4S163 -->
<g id="edge11" class="edge">
<title>M3S162&#45;&gt;M4S163</title>
<path fill="none" stroke="black" d="M752.78,-913.48C795.72,-880.63 892.93,-812.32 988,-787.59 1493.68,-656.02 2141.01,-809.98 2299.04,-851.72"/>
<polygon fill="black" stroke="black" points="2298.17,-855.11 2308.73,-854.3 2299.97,-848.35 2298.17,-855.11"/>
<text text-anchor="middle" x="1118" y="-791.39" font-family="Times,serif" font-size="14.00">(ε, r1r2r2r2r1)</text>
</g>
<!-- M3S162&#45;&gt;M4S149 -->
<g id="edge12" class="edge">
<title>M3S162&#45;&gt;M4S149</title>
<path fill="none" stroke="black" d="M756.35,-934.22C803.02,-938.83 903.27,-948.55 988,-955.59 1016.87,-957.99 1224.23,-958.03 1248,-974.59 1256.81,-980.73 1249.04,-990.66 1258,-996.59 1346.27,-1055.01 2120.59,-1031.22 2298.62,-1024.94"/>
<polygon fill="black" stroke="black" points="2298.9,-1028.43 2308.77,-1024.57 2298.65,-1021.43 2298.9,-1028.43"/>
<text text-anchor="middle" x="1118" y="-978.39" font-family="Times,serif" font-size="14.00">(ε, r1r2r2r2r2)</text>
</g>
<!-- M3S162&#45;&gt;M4S161 -->
<g id="edge13" class="edge">
<title>M3S162&#45;&gt;M4S161</title>
<path fill="none" stroke="black" d="M756.05,-917C801.46,-892.49 898.78,-844.05 988,-826.59 1044.7,-815.49 1204.01,-789.13 1248,-826.59 1269.25,-844.69 1236.98,-870.23 1258,-888.59 1337.76,-958.26 2119.46,-925.78 2298.56,-917.37"/>
<polygon fill="black" stroke="black" points="2298.95,-920.86 2308.78,-916.89 2298.62,-913.87 2298.95,-920.86"/>
<text text-anchor="middle" x="1118" y="-830.39" font-family="Times,serif" font-size="14.00">(r1, r1r2r2r2r1r1)</text>
</g>
<!-- M3S162&#45;&gt;M4S146 -->
<g id="edge14" class="edge">
<title>M3S162&#45;&gt;M4S146</title>
<path fill="none" stroke="black" d="M756.29,-927.65C802.85,-920.89 902.94,-907.35 988,-902.59 1045.69,-899.36 1202.46,-867.03 1248,-902.59 1262.44,-913.87 1243.7,-931.13 1258,-942.59 1340.65,-1008.81 2120.12,-978.99 2298.68,-971.23"/>
<polygon fill="black" stroke="black" points="2299.02,-974.72 2308.86,-970.79 2298.72,-967.73 2299.02,-974.72"/>
<text text-anchor="middle" x="1118" y="-906.39" font-family="Times,serif" font-size="14.00">(r1, r1r2r2r2r1r2)</text>
</g>
<!-- M5S77 -->
<g id="node12" class="node">
<title>M5S77</title>
<path fill="#ffffff" stroke="black" d="M7709,-1352.59C7709,-1352.59 7679,-1352.59 7679,-1352.59 7673,-1352.59 7667,-1346.59 7667,-1340.59 7667,-1340.59 7667,-1328.59 7667,-1328.59 7667,-1322.59 7673,-1316.59 7679,-1316.59 7679,-1316.59 7709,-1316.59 7709,-1316.59 7715,-1316.59 7721,-1322.59 7721,-1328.59 7721,-1328.59 7721,-1340.59 7721,-1340.59 7721,-1346.59 7715,-1352.59 7709,-1352.59"/>
<text text-anchor="middle" x="7694" y="-1330.89" font-family="Times,serif" font-size="14.00">77</text>
</g>
<!-- M4S144&#45;&gt;M5S77 -->
<g id="edge15" class="edge">
<title>M4S144&#45;&gt;M5S77</title>
<path fill="none" stroke="black" d="M2363.3,-1142.06C2482.93,-1189.03 2988.66,-1380.73 3424,-1441.59 3471.21,-1448.19 4246.27,-1473.14 4282,-1441.59 4308.86,-1417.88 4265.23,-1385.41 4292,-1361.59 4358.22,-1302.66 7294.23,-1330.54 7656.47,-1334.21"/>
<polygon fill="black" stroke="black" points="7656.63,-1337.71 7666.67,-1334.32 7656.7,-1330.71 7656.63,-1337.71"/>
<text text-anchor="middle" x="3853" y="-1460.39" font-family="Times,serif" font-size="14.00">(ε, r1r2r2r2r2)</text>
</g>
<!-- M5S82 -->
<g id="node13" class="node">
<title>M5S82</title>
<path fill="#ffffff" stroke="black" d="M7709,-1136.59C7709,-1136.59 7679,-1136.59 7679,-1136.59 7673,-1136.59 7667,-1130.59 7667,-1124.59 7667,-1124.59 7667,-1112.59 7667,-1112.59 7667,-1106.59 7673,-1100.59 7679,-1100.59 7679,-1100.59 7709,-1100.59 7709,-1100.59 7715,-1100.59 7721,-1106.59 7721,-1112.59 7721,-1112.59 7721,-1124.59 7721,-1124.59 7721,-1130.59 7715,-1136.59 7709,-1136.59"/>
<text text-anchor="middle" x="7694" y="-1114.89" font-family="Times,serif" font-size="14.00">82</text>
</g>
<!-- M4S144&#45;&gt;M5S82 -->
<g id="edge16" class="edge">
<title>M4S144&#45;&gt;M5S82</title>
<path fill="none" stroke="black" d="M2363.03,-1134.54C2483.52,-1148.06 2999.25,-1204.04 3424,-1221.59 3471.63,-1223.56 4246.16,-1253.02 4282,-1221.59 4307.61,-1199.13 4266.48,-1168.16 4292,-1145.59 4358.41,-1086.88 7294.25,-1114.57 7656.48,-1118.21"/>
<polygon fill="black" stroke="black" points="7656.63,-1121.72 7666.67,-1118.32 7656.7,-1114.72 7656.63,-1121.72"/>
<text text-anchor="middle" x="3853" y="-1239.39" font-family="Times,serif" font-size="14.00">(r2, r1r2r2r2r2r2)</text>
</g>
<!-- M5S79 -->
<g id="node14" class="node">
<title>M5S79</title>
<path fill="#ffffff" stroke="black" d="M7709,-1028.59C7709,-1028.59 7679,-1028.59 7679,-1028.59 7673,-1028.59 7667,-1022.59 7667,-1016.59 7667,-1016.59 7667,-1004.59 7667,-1004.59 7667,-998.59 7673,-992.59 7679,-992.59 7679,-992.59 7709,-992.59 7709,-992.59 7715,-992.59 7721,-998.59 7721,-1004.59 7721,-1004.59 7721,-1016.59 7721,-1016.59 7721,-1022.59 7715,-1028.59 7709,-1028.59"/>
<text text-anchor="middle" x="7694" y="-1006.89" font-family="Times,serif" font-size="14.00">79</text>
</g>
<!-- M4S144&#45;&gt;M5S79 -->
<g id="edge17" class="edge">
<title>M4S144&#45;&gt;M5S79</title>
<path fill="none" stroke="black" d="M2363.2,-1139.32C2489.82,-1175.05 3047.29,-1313.89 3414,-1104.59 3421.28,-1100.43 3416.71,-1092.74 3424,-1088.59 3465.44,-1065.02 4243.9,-1098.25 4282,-1069.59 4293.91,-1060.63 4280.03,-1046.46 4292,-1037.59 4363.21,-984.8 7294.85,-1007.3 7656.53,-1010.28"/>
<polygon fill="black" stroke="black" points="7656.68,-1013.78 7666.71,-1010.37 7656.74,-1006.78 7656.68,-1013.78"/>
<text text-anchor="middle" x="3853" y="-1092.39" font-family="Times,serif" font-size="14.00">((r2r1)|(r1r2), r1r2r2r2(r2r1)|(r1r2)r2)</text>
</g>
<!-- M5S41 -->
<g id="node15" class="node">
<title>M5S41</title>
<path fill="#ffffff" stroke="black" d="M7709,-1082.59C7709,-1082.59 7679,-1082.59 7679,-1082.59 7673,-1082.59 7667,-1076.59 7667,-1070.59 7667,-1070.59 7667,-1058.59 7667,-1058.59 7667,-1052.59 7673,-1046.59 7679,-1046.59 7679,-1046.59 7709,-1046.59 7709,-1046.59 7715,-1046.59 7721,-1052.59 7721,-1058.59 7721,-1058.59 7721,-1070.59 7721,-1070.59 7721,-1076.59 7715,-1082.59 7709,-1082.59"/>
<text text-anchor="middle" x="7694" y="-1060.89" font-family="Times,serif" font-size="14.00">41</text>
</g>
<!-- M4S144&#45;&gt;M5S41 -->
<g id="edge18" class="edge">
<title>M4S144&#45;&gt;M5S41</title>
<path fill="none" stroke="black" d="M2363.08,-1132.05C2483.78,-1134.15 3000.31,-1142.86 3424,-1145.59 3471.67,-1145.9 4245.35,-1176.07 4282,-1145.59 4300.76,-1129.98 4273.3,-1107.27 4292,-1091.59 4359.92,-1034.63 7294.44,-1060.79 7656.49,-1064.23"/>
<polygon fill="black" stroke="black" points="7656.65,-1067.74 7666.68,-1064.33 7656.72,-1060.74 7656.65,-1067.74"/>
<text text-anchor="middle" x="3853" y="-1162.39" font-family="Times,serif" font-size="14.00">((r2(r1r2)|(r2r1))|((r1r2r2)|((r1r2r2)|(r2(r2r1)|(r1r2)))), r1r2r2r2(r2(r1r2)|(r2r1))|((r1r2r2)|((r1r2r2)|(r2(r2r1)|(r1r2))))r2)</text>
</g>
<!-- M5S44 -->
<g id="node16" class="node">
<title>M5S44</title>
<path fill="#ffffff" stroke="black" d="M7709,-1298.59C7709,-1298.59 7679,-1298.59 7679,-1298.59 7673,-1298.59 7667,-1292.59 7667,-1286.59 7667,-1286.59 7667,-1274.59 7667,-1274.59 7667,-1268.59 7673,-1262.59 7679,-1262.59 7679,-1262.59 7709,-1262.59 7709,-1262.59 7715,-1262.59 7721,-1268.59 7721,-1274.59 7721,-1274.59 7721,-1286.59 7721,-1286.59 7721,-1292.59 7715,-1298.59 7709,-1298.59"/>
<text text-anchor="middle" x="7694" y="-1276.89" font-family="Times,serif" font-size="14.00">44</text>
</g>
<!-- M4S144&#45;&gt;M5S44 -->
<g id="edge19" class="edge">
<title>M4S144&#45;&gt;M5S44</title>
<path fill="none" stroke="black" d="M2363.02,-1140.77C2482.44,-1182.37 2990.75,-1353.45 3424,-1407.59 3471.3,-1413.5 4246.66,-1439.57 4282,-1407.59 4298.56,-1392.6 4275.5,-1322.64 4292,-1307.59 4357.49,-1247.85 7294.14,-1276.44 7656.47,-1280.2"/>
<polygon fill="black" stroke="black" points="7656.63,-1283.7 7666.66,-1280.31 7656.7,-1276.7 7656.63,-1283.7"/>
<text text-anchor="middle" x="3853" y="-1426.39" font-family="Times,serif" font-size="14.00">(r2r2, r1r2r2r2r2r2r2)</text>
</g>
<!-- M5S78 -->
<g id="node17" class="node">
<title>M5S78</title>
<path fill="#ffffff" stroke="black" d="M7709,-1190.59C7709,-1190.59 7679,-1190.59 7679,-1190.59 7673,-1190.59 7667,-1184.59 7667,-1178.59 7667,-1178.59 7667,-1166.59 7667,-1166.59 7667,-1160.59 7673,-1154.59 7679,-1154.59 7679,-1154.59 7709,-1154.59 7709,-1154.59 7715,-1154.59 7721,-1160.59 7721,-1166.59 7721,-1166.59 7721,-1178.59 7721,-1178.59 7721,-1184.59 7715,-1190.59 7709,-1190.59"/>
<text text-anchor="middle" x="7694" y="-1168.89" font-family="Times,serif" font-size="14.00">78</text>
</g>
<!-- M4S144&#45;&gt;M5S78 -->
<g id="edge20" class="edge">
<title>M4S144&#45;&gt;M5S78</title>
<path fill="none" stroke="black" d="M2363.31,-1137.12C2484.02,-1162.17 2997.13,-1265.18 3424,-1297.59 3471.53,-1301.2 4246.63,-1329.54 4282,-1297.59 4298.25,-1282.92 4275.81,-1214.33 4292,-1199.59 4357.55,-1139.92 7294.15,-1168.45 7656.47,-1172.2"/>
<polygon fill="black" stroke="black" points="7656.63,-1175.71 7666.66,-1172.31 7656.7,-1168.71 7656.63,-1175.71"/>
<text text-anchor="middle" x="3853" y="-1316.39" font-family="Times,serif" font-size="14.00">(r1, r1r2r2r2r1r2)</text>
</g>
<!-- M5S40 -->
<g id="node18" class="node">
<title>M5S40</title>
<path fill="#ffffff" stroke="black" d="M7709,-1244.59C7709,-1244.59 7679,-1244.59 7679,-1244.59 7673,-1244.59 7667,-1238.59 7667,-1232.59 7667,-1232.59 7667,-1220.59 7667,-1220.59 7667,-1214.59 7673,-1208.59 7679,-1208.59 7679,-1208.59 7709,-1208.59 7709,-1208.59 7715,-1208.59 7721,-1214.59 7721,-1220.59 7721,-1220.59 7721,-1232.59 7721,-1232.59 7721,-1238.59 7715,-1244.59 7709,-1244.59"/>
<text text-anchor="middle" x="7694" y="-1222.89" font-family="Times,serif" font-size="14.00">40</text>
</g>
<!-- M4S144&#45;&gt;M5S40 -->
<g id="edge21" class="edge">
<title>M4S144&#45;&gt;M5S40</title>
<path fill="none" stroke="black" d="M2363.13,-1139.65C2483.01,-1176.14 2993.04,-1326.2 3424,-1373.59 3471.38,-1378.8 4246.92,-1405.87 4282,-1373.59 4301.69,-1355.47 4272.38,-1271.79 4292,-1253.59 4356.99,-1193.31 7294.08,-1222.38 7656.46,-1226.2"/>
<polygon fill="black" stroke="black" points="7656.62,-1229.7 7666.66,-1226.3 7656.69,-1222.7 7656.62,-1229.7"/>
<text text-anchor="middle" x="3853" y="-1392.39" font-family="Times,serif" font-size="14.00">((r1r2)|(r2r1), r1r2r2r2(r1r2)|(r2r1)r2)</text>
</g>
<!-- M5S39 -->
<g id="node19" class="node">
<title>M5S39</title>
<path fill="#ffffff" stroke="black" d="M7709,-1406.59C7709,-1406.59 7679,-1406.59 7679,-1406.59 7673,-1406.59 7667,-1400.59 7667,-1394.59 7667,-1394.59 7667,-1382.59 7667,-1382.59 7667,-1376.59 7673,-1370.59 7679,-1370.59 7679,-1370.59 7709,-1370.59 7709,-1370.59 7715,-1370.59 7721,-1376.59 7721,-1382.59 7721,-1382.59 7721,-1394.59 7721,-1394.59 7721,-1400.59 7715,-1406.59 7709,-1406.59"/>
<text text-anchor="middle" x="7694" y="-1384.89" font-family="Times,serif" font-size="14.00">39</text>
</g>
<!-- M4S144&#45;&gt;M5S39 -->
<g id="edge22" class="edge">
<title>M4S144&#45;&gt;M5S39</title>
<path fill="none" stroke="black" d="M2363.17,-1143.2C2482.22,-1195.29 2985.81,-1407.91 3424,-1475.59 5164.38,-1744.41 7350.84,-1439.4 7656.82,-1394.06"/>
<polygon fill="black" stroke="black" points="7657.54,-1397.5 7666.91,-1392.56 7656.51,-1390.57 7657.54,-1397.5"/>
<text text-anchor="middle" x="3853" y="-1567.39" font-family="Times,serif" font-size="14.00">(r2, r1r2r2r2r2r2)</text>
</g>
<!-- M5S121 -->
<g id="node20" class="node">
<title>M5S121</title>
<path fill="#ffffff" stroke="black" d="M7709,-866.59C7709,-866.59 7679,-866.59 7679,-866.59 7673,-866.59 7667,-860.59 7667,-854.59 7667,-854.59 7667,-842.59 7667,-842.59 7667,-836.59 7673,-830.59 7679,-830.59 7679,-830.59 7709,-830.59 7709,-830.59 7715,-830.59 7721,-836.59 7721,-842.59 7721,-842.59 7721,-854.59 7721,-854.59 7721,-860.59 7715,-866.59 7709,-866.59"/>
<text text-anchor="middle" x="7694" y="-844.89" font-family="Times,serif" font-size="14.00">121</text>
</g>
<!-- M4S163&#45;&gt;M5S121 -->
<g id="edge23" class="edge">
<title>M4S163&#45;&gt;M5S121</title>
<path fill="none" stroke="black" d="M2363.27,-855.36C2483.78,-827.14 2996.15,-711.12 3424,-674.59 3471.49,-670.53 4247.17,-642.05 4282,-674.59 4305.92,-696.94 4268.16,-799.14 4292,-821.59 4356.53,-882.36 7294.02,-852.86 7656.45,-848.99"/>
<polygon fill="black" stroke="black" points="7656.69,-852.49 7666.65,-848.88 7656.62,-845.49 7656.69,-852.49"/>
<text text-anchor="middle" x="3853" y="-678.39" font-family="Times,serif" font-size="14.00">(ε, r1r2r2r2r1r2)</text>
</g>
<!-- M5S122 -->
<g id="node21" class="node">
<title>M5S122</title>
<path fill="#ffffff" stroke="black" d="M7709,-812.59C7709,-812.59 7679,-812.59 7679,-812.59 7673,-812.59 7667,-806.59 7667,-800.59 7667,-800.59 7667,-788.59 7667,-788.59 7667,-782.59 7673,-776.59 7679,-776.59 7679,-776.59 7709,-776.59 7709,-776.59 7715,-776.59 7721,-782.59 7721,-788.59 7721,-788.59 7721,-800.59 7721,-800.59 7721,-806.59 7715,-812.59 7709,-812.59"/>
<text text-anchor="middle" x="7694" y="-790.89" font-family="Times,serif" font-size="14.00">122</text>
</g>
<!-- M4S163&#45;&gt;M5S122 -->
<g id="edge24" class="edge">
<title>M4S163&#45;&gt;M5S122</title>
<path fill="none" stroke="black" d="M2363.18,-854.23C2483.33,-820.9 2994.32,-683.83 3424,-640.59 5176.03,-464.29 7350.39,-747.49 7656.54,-789.5"/>
<polygon fill="black" stroke="black" points="7656.26,-792.99 7666.64,-790.89 7657.21,-786.05 7656.26,-792.99"/>
<text text-anchor="middle" x="3853" y="-644.39" font-family="Times,serif" font-size="14.00">(r1, r1r2r2r2r1r1r2)</text>
</g>
<!-- M5S119 -->
<g id="node22" class="node">
<title>M5S119</title>
<path fill="#ffffff" stroke="black" d="M7709,-920.59C7709,-920.59 7679,-920.59 7679,-920.59 7673,-920.59 7667,-914.59 7667,-908.59 7667,-908.59 7667,-896.59 7667,-896.59 7667,-890.59 7673,-884.59 7679,-884.59 7679,-884.59 7709,-884.59 7709,-884.59 7715,-884.59 7721,-890.59 7721,-896.59 7721,-896.59 7721,-908.59 7721,-908.59 7721,-914.59 7715,-920.59 7709,-920.59"/>
<text text-anchor="middle" x="7694" y="-898.89" font-family="Times,serif" font-size="14.00">119</text>
</g>
<!-- M4S163&#45;&gt;M5S119 -->
<g id="edge25" class="edge">
<title>M4S163&#45;&gt;M5S119</title>
<path fill="none" stroke="black" d="M2363.35,-856.62C2484.2,-834.13 2997.84,-741.66 3424,-712.59 3471.56,-709.35 4247.28,-679.93 4282,-712.59 4308.44,-737.45 4265.66,-850.62 4292,-875.59 4356.33,-936.58 7294,-906.89 7656.45,-902.99"/>
<polygon fill="black" stroke="black" points="7656.69,-906.49 7666.65,-902.88 7656.61,-899.49 7656.69,-906.49"/>
<text text-anchor="middle" x="3853" y="-716.39" font-family="Times,serif" font-size="14.00">(r1r1, r1r2r2r2r1r1r1r2)</text>
</g>
<!-- M5S118 -->
<g id="node23" class="node">
<title>M5S118</title>
<path fill="#ffffff" stroke="black" d="M7709,-974.59C7709,-974.59 7679,-974.59 7679,-974.59 7673,-974.59 7667,-968.59 7667,-962.59 7667,-962.59 7667,-950.59 7667,-950.59 7667,-944.59 7673,-938.59 7679,-938.59 7679,-938.59 7709,-938.59 7709,-938.59 7715,-938.59 7721,-944.59 7721,-950.59 7721,-950.59 7721,-962.59 7721,-962.59 7721,-968.59 7715,-974.59 7709,-974.59"/>
<text text-anchor="middle" x="7694" y="-952.89" font-family="Times,serif" font-size="14.00">118</text>
</g>
<!-- M4S163&#45;&gt;M5S118 -->
<g id="edge26" class="edge">
<title>M4S163&#45;&gt;M5S118</title>
<path fill="none" stroke="black" d="M2363.01,-858.17C2483.43,-842.56 2998.88,-777.88 3424,-757.59 3471.61,-755.32 4247.33,-724.88 4282,-757.59 4309.85,-783.87 4264.26,-903.2 4292,-929.59 4356.23,-990.68 7293.98,-960.9 7656.45,-956.99"/>
<polygon fill="black" stroke="black" points="7656.69,-960.49 7666.65,-956.88 7656.61,-953.49 7656.69,-960.49"/>
<text text-anchor="middle" x="3853" y="-761.39" font-family="Times,serif" font-size="14.00">(r1, r1r2r2r2r1r1r2)</text>
</g>
<!-- M4S149&#45;&gt;M5S82 -->
<g id="edge27" class="edge">
<title>M4S149&#45;&gt;M5S82</title>
<path fill="none" stroke="black" d="M2363.21,-1022.31C2520.22,-1014.87 3332.12,-980.05 3414,-1050.59 3433.49,-1067.38 3404.33,-1091.02 3424,-1107.59 3466.88,-1143.7 7244.82,-1121.36 7656.69,-1118.82"/>
<polygon fill="black" stroke="black" points="7656.87,-1122.32 7666.85,-1118.75 7656.83,-1115.32 7656.87,-1122.32"/>
<text text-anchor="middle" x="3853" y="-1129.39" font-family="Times,serif" font-size="14.00">(ε, r1r2r2r2r2r2)</text>
</g>
<!-- M4S149&#45;&gt;M5S79 -->
<g id="edge28" class="edge">
<title>M4S149&#45;&gt;M5S79</title>
<path fill="none" stroke="black" d="M2363.02,-1024.94C2519.81,-1032.8 3334.51,-1069.89 3414,-996.59 3429.44,-982.35 3408.38,-916.64 3424,-902.59 3441.72,-886.65 4264.14,-886.8 4282,-902.59 4309.18,-926.62 4264.92,-959.46 4292,-983.59 4358.18,-1042.57 7294.22,-1014.64 7656.47,-1010.97"/>
<polygon fill="black" stroke="black" points="7656.7,-1014.47 7666.67,-1010.86 7656.63,-1007.47 7656.7,-1014.47"/>
<text text-anchor="middle" x="3853" y="-906.39" font-family="Times,serif" font-size="14.00">(r1, r1r2r2r2r2r1r2)</text>
</g>
<!-- M4S149&#45;&gt;M5S41 -->
<g id="edge29" class="edge">
<title>M4S149&#45;&gt;M5S41</title>
<path fill="none" stroke="black" d="M2363.04,-1022.63C2580.63,-1014.79 4092.91,-962.93 4282,-1029.59 4287.37,-1031.48 4286.64,-1035.68 4292,-1037.59 4458.89,-1096.88 7300.81,-1068.74 7656.53,-1064.98"/>
<polygon fill="black" stroke="black" points="7656.59,-1068.48 7666.56,-1064.88 7656.52,-1061.48 7656.59,-1068.48"/>
<text text-anchor="middle" x="3853" y="-1033.39" font-family="Times,serif" font-size="14.00">((r1r2)|(r2r1), r1r2r2r2r2(r1r2)|(r2r1)r2)</text>
</g>
<!-- M4S149&#45;&gt;M5S44 -->
<g id="edge30" class="edge">
<title>M4S149&#45;&gt;M5S44</title>
<path fill="none" stroke="black" d="M2363.1,-1022.17C2520.32,-1013.85 3337.14,-974.53 3414,-1050.59 3436.21,-1072.56 3401.52,-1309.89 3424,-1331.59 3458.3,-1364.69 4242.34,-1358.03 4282,-1331.59 4291.61,-1325.18 4282.41,-1314.04 4292,-1307.59 4365.56,-1258.13 7295.14,-1277.71 7656.56,-1280.32"/>
<polygon fill="black" stroke="black" points="7656.7,-1283.82 7666.73,-1280.39 7656.75,-1276.82 7656.7,-1283.82"/>
<text text-anchor="middle" x="3853" y="-1357.39" font-family="Times,serif" font-size="14.00">(r2, r1r2r2r2r2r2r2)</text>
</g>
<!-- M4S161&#45;&gt;M5S119 -->
<g id="edge32" class="edge">
<title>M4S161&#45;&gt;M5S119</title>
<path fill="none" stroke="black" d="M2363.03,-916.94C2519.86,-924.84 3334.74,-962.15 3414,-888.59 3430.37,-873.4 3407.44,-803.58 3424,-788.59 3441.67,-772.6 4264.21,-772.73 4282,-788.59 4311.05,-814.49 4263.05,-849.57 4292,-875.59 4357.93,-934.84 7294.19,-906.67 7656.47,-902.97"/>
<polygon fill="black" stroke="black" points="7656.7,-906.47 7666.66,-902.87 7656.63,-899.47 7656.7,-906.47"/>
<text text-anchor="middle" x="3853" y="-792.39" font-family="Times,serif" font-size="14.00">(r1, (r1r2r2(r2r1)|(r1r2)r1)|(r1r2r2r2r1r1)r1r2)</text>
</g>
<!-- M4S161&#45;&gt;M5S118 -->
<g id="edge31" class="edge">
<title>M4S161&#45;&gt;M5S118</title>
<path fill="none" stroke="black" d="M2363.22,-916.89C2520.31,-924.41 3332.61,-959.69 3414,-888.59 3435.02,-870.23 3402.75,-844.69 3424,-826.59 3442.14,-811.14 4264.35,-810.57 4282,-826.59 4299.03,-842.05 4275.03,-914.07 4292,-929.59 4357.4,-989.42 7294.13,-960.75 7656.46,-956.98"/>
<polygon fill="black" stroke="black" points="7656.7,-960.48 7666.66,-956.87 7656.62,-953.48 7656.7,-960.48"/>
<text text-anchor="middle" x="3853" y="-830.39" font-family="Times,serif" font-size="14.00">(ε, (r1r2r2(r2r1)|(r1r2)r1)|(r1r2r2r2r1r1)r2)</text>
</g>
<!-- M4S146&#45;&gt;M5S79 -->
<g id="edge33" class="edge">
<title>M4S146&#45;&gt;M5S79</title>
<path fill="none" stroke="black" d="M2363.24,-970.91C2520.45,-978.57 3333.32,-1014.5 3414,-942.59 3437.79,-921.39 3399.95,-892.49 3424,-871.59 3459.98,-840.32 4246.83,-839.42 4282,-871.59 4300.44,-888.45 4273.63,-966.65 4292,-983.59 4357.17,-1043.68 7294.1,-1014.78 7656.46,-1010.98"/>
<polygon fill="black" stroke="black" points="7656.7,-1014.48 7666.66,-1010.87 7656.62,-1007.48 7656.7,-1014.48"/>
<text text-anchor="middle" x="3853" y="-875.39" font-family="Times,serif" font-size="14.00">(ε, (r1r2r2(r2r1)|(r1r2)r2)|(r1r2r2r2r1r2)r2)</text>
</g>
<!-- M4S146&#45;&gt;M5S41 -->
<g id="edge34" class="edge">
<title>M4S146&#45;&gt;M5S41</title>
<path fill="none" stroke="black" d="M2363.2,-969.22C2592.06,-966 4243.74,-943.97 4282,-976.59 4302.91,-994.41 4271.13,-1019.72 4292,-1037.59 4359.33,-1095.24 7294.37,-1068.48 7656.49,-1064.95"/>
<polygon fill="black" stroke="black" points="7656.71,-1068.45 7666.68,-1064.85 7656.64,-1061.45 7656.71,-1068.45"/>
<text text-anchor="middle" x="3853" y="-980.39" font-family="Times,serif" font-size="14.00">(r2, (r1r2r2(r2r1)|(r1r2)r2)|(r1r2r2r2r1r2)r2r2)</text>
</g>
<!-- M4S145&#45;&gt;M5S79 -->
<g id="edge36" class="edge">
<title>M4S145&#45;&gt;M5S79</title>
<path fill="none" stroke="black" d="M2363.04,-1078.95C2519.92,-1086.91 3335.07,-1124.5 3414,-1050.59 3431.92,-1033.81 3405.88,-957.14 3424,-940.59 3441.6,-924.52 4263.34,-925.77 4282,-940.59 4297.37,-952.79 4276.68,-971.33 4292,-983.59 4361.2,-1038.99 7294.6,-1014.2 7656.51,-1010.93"/>
<polygon fill="black" stroke="black" points="7656.72,-1014.43 7666.69,-1010.83 7656.66,-1007.43 7656.72,-1014.43"/>
<text text-anchor="middle" x="3853" y="-944.39" font-family="Times,serif" font-size="14.00">(r2, r1r2r2r1r2r2r2)</text>
</g>
<!-- M4S145&#45;&gt;M5S41 -->
<g id="edge37" class="edge">
<title>M4S145&#45;&gt;M5S41</title>
<path fill="none" stroke="black" d="M2363.08,-1076.83C2483.77,-1073.38 3000.26,-1059.07 3424,-1054.59 5183.64,-1035.98 7351.49,-1060.49 7656.66,-1064.15"/>
<polygon fill="black" stroke="black" points="7656.69,-1067.65 7666.73,-1064.27 7656.77,-1060.65 7656.69,-1067.65"/>
<text text-anchor="middle" x="3853" y="-1058.39" font-family="Times,serif" font-size="14.00">(r2r2, r1r2r2r1r2r2r2r2)</text>
</g>
<!-- M4S145&#45;&gt;M5S78 -->
<g id="edge35" class="edge">
<title>M4S145&#45;&gt;M5S78</title>
<path fill="none" stroke="black" d="M2363.25,-1076.26C2520.48,-1068.58 3333.46,-1032.53 3414,-1104.59 3438.41,-1126.42 3399.32,-1156.06 3424,-1177.59 3459.92,-1208.92 4234.33,-1177.62 4282,-1177.59 5674.33,-1176.57 7386.34,-1173.21 7656.4,-1172.66"/>
<polygon fill="black" stroke="black" points="7656.8,-1176.16 7666.8,-1172.64 7656.79,-1169.16 7656.8,-1176.16"/>
<text text-anchor="middle" x="3853" y="-1194.39" font-family="Times,serif" font-size="14.00">(ε, r1r2r2r1r2r2)</text>
</g>
<!-- M4S145&#45;&gt;M5S40 -->
<g id="edge38" class="edge">
<title>M4S145&#45;&gt;M5S40</title>
<path fill="none" stroke="black" d="M2363.07,-1076.2C2520.09,-1068.08 3335.97,-1029.73 3414,-1104.59 3438.11,-1127.72 3399.6,-1231.77 3424,-1254.59 3458.81,-1287.15 4234.39,-1256.96 4282,-1254.59 4286.46,-1254.37 4287.54,-1253.83 4292,-1253.59 5678.28,-1178.93 7386.92,-1218.63 7656.47,-1225.61"/>
<polygon fill="black" stroke="black" points="7656.76,-1229.12 7666.84,-1225.88 7656.94,-1222.12 7656.76,-1229.12"/>
<text text-anchor="middle" x="3853" y="-1273.39" font-family="Times,serif" font-size="14.00">(r2, r1r2r2r1r2r2r2)</text>
</g>
<!-- M6S59 -->
<g id="node24" class="node">
<title>M6S59</title>
<path fill="#ffffff" stroke="black" d="M22274,-1606.59C22274,-1606.59 22244,-1606.59 22244,-1606.59 22238,-1606.59 22232,-1600.59 22232,-1594.59 22232,-1594.59 22232,-1582.59 22232,-1582.59 22232,-1576.59 22238,-1570.59 22244,-1570.59 22244,-1570.59 22274,-1570.59 22274,-1570.59 22280,-1570.59 22286,-1576.59 22286,-1582.59 22286,-1582.59 22286,-1594.59 22286,-1594.59 22286,-1600.59 22280,-1606.59 22274,-1606.59"/>
<text text-anchor="middle" x="22259" y="-1584.89" font-family="Times,serif" font-size="14.00">59</text>
</g>
<!-- M5S77&#45;&gt;M6S59 -->
<g id="edge39" class="edge">
<title>M5S77&#45;&gt;M6S59</title>
<path fill="none" stroke="black" d="M7721.36,-1334.29C8034.47,-1330.73 11032.58,-1298.38 11096,-1361.59 11113.53,-1379.06 11088.4,-2235.19 11106,-2252.59 11129.5,-2275.83 12272.44,-2275.78 12296,-2252.59 12321.22,-2227.76 12280.81,-1640.45 12306,-1615.59 12400.88,-1521.93 21571.14,-1583.83 22221.67,-1588.34"/>
<polygon fill="black" stroke="black" points="22221.85,-1591.84 22231.87,-1588.41 22221.9,-1584.84 22221.85,-1591.84"/>
<text text-anchor="middle" x="11701" y="-2273.39" font-family="Times,serif" font-size="14.00">(ε, r1r2r2r2r2r3)</text>
</g>
<!-- M6S83 -->
<g id="node25" class="node">
<title>M6S83</title>
<path fill="#ffffff" stroke="black" d="M22274,-1120.59C22274,-1120.59 22244,-1120.59 22244,-1120.59 22238,-1120.59 22232,-1114.59 22232,-1108.59 22232,-1108.59 22232,-1096.59 22232,-1096.59 22232,-1090.59 22238,-1084.59 22244,-1084.59 22244,-1084.59 22274,-1084.59 22274,-1084.59 22280,-1084.59 22286,-1090.59 22286,-1096.59 22286,-1096.59 22286,-1108.59 22286,-1108.59 22286,-1114.59 22280,-1120.59 22274,-1120.59"/>
<text text-anchor="middle" x="22259" y="-1098.89" font-family="Times,serif" font-size="14.00">83</text>
</g>
<!-- M5S77&#45;&gt;M6S83 -->
<g id="edge40" class="edge">
<title>M5S77&#45;&gt;M6S83</title>
<path fill="none" stroke="black" d="M7721.36,-1334.89C8034.39,-1338.37 11031.85,-1370.05 11096,-1307.59 11119.02,-1285.17 11082.89,-1040.91 11106,-1018.59 11129.77,-995.62 12270.69,-997.33 12296,-1018.59 12315.7,-1035.13 12286.33,-1059.02 12306,-1075.59 12407.98,-1161.47 21571.65,-1106.8 22221.7,-1102.81"/>
<polygon fill="black" stroke="black" points="22221.92,-1106.31 22231.89,-1102.75 22221.87,-1099.31 22221.92,-1106.31"/>
<text text-anchor="middle" x="11701" y="-1022.39" font-family="Times,serif" font-size="14.00">(r2, r1r2r2r2r2r2r1)</text>
</g>
<!-- M6S66 -->
<g id="node26" class="node">
<title>M6S66</title>
<path fill="#ffffff" stroke="black" d="M22274,-1336.59C22274,-1336.59 22244,-1336.59 22244,-1336.59 22238,-1336.59 22232,-1330.59 22232,-1324.59 22232,-1324.59 22232,-1312.59 22232,-1312.59 22232,-1306.59 22238,-1300.59 22244,-1300.59 22244,-1300.59 22274,-1300.59 22274,-1300.59 22280,-1300.59 22286,-1306.59 22286,-1312.59 22286,-1312.59 22286,-1324.59 22286,-1324.59 22286,-1330.59 22280,-1336.59 22274,-1336.59"/>
<text text-anchor="middle" x="22259" y="-1314.89" font-family="Times,serif" font-size="14.00">66</text>
</g>
<!-- M5S77&#45;&gt;M6S66 -->
<g id="edge41" class="edge">
<title>M5S77&#45;&gt;M6S66</title>
<path fill="none" stroke="black" d="M7721.36,-1334.29C8034.4,-1330.8 11031.96,-1299.01 11096,-1361.59 11121.52,-1386.53 11080.38,-1657.75 11106,-1682.59 11129.73,-1705.6 12272.28,-1705.61 12296,-1682.59 12322.88,-1656.5 12279.16,-1371.72 12306,-1345.59 12401.53,-1252.6 21571.19,-1313.87 22221.67,-1318.34"/>
<polygon fill="black" stroke="black" points="22221.85,-1321.84 22231.88,-1318.41 22221.9,-1314.84 22221.85,-1321.84"/>
<text text-anchor="middle" x="11701" y="-1703.39" font-family="Times,serif" font-size="14.00">(r2, r1r2r2r2r2r2r3)</text>
</g>
<!-- M6S80 -->
<g id="node27" class="node">
<title>M6S80</title>
<path fill="#ffffff" stroke="black" d="M22274,-1066.59C22274,-1066.59 22244,-1066.59 22244,-1066.59 22238,-1066.59 22232,-1060.59 22232,-1054.59 22232,-1054.59 22232,-1042.59 22232,-1042.59 22232,-1036.59 22238,-1030.59 22244,-1030.59 22244,-1030.59 22274,-1030.59 22274,-1030.59 22280,-1030.59 22286,-1036.59 22286,-1042.59 22286,-1042.59 22286,-1054.59 22286,-1054.59 22286,-1060.59 22280,-1066.59 22274,-1066.59"/>
<text text-anchor="middle" x="22259" y="-1044.89" font-family="Times,serif" font-size="14.00">80</text>
</g>
<!-- M5S77&#45;&gt;M6S80 -->
<g id="edge42" class="edge">
<title>M5S77&#45;&gt;M6S80</title>
<path fill="none" stroke="black" d="M7721.36,-1334.89C8034.43,-1338.41 11032.21,-1370.42 11096,-1307.59 11113.1,-1290.74 11088.83,-892.37 11106,-875.59 11129.64,-852.49 12271.84,-853.03 12296,-875.59 12319.77,-897.79 12282.26,-999.36 12306,-1021.59 12403.32,-1112.71 21571.32,-1053.17 22221.68,-1048.83"/>
<polygon fill="black" stroke="black" points="22221.9,-1052.33 22231.88,-1048.77 22221.86,-1045.33 22221.9,-1052.33"/>
<text text-anchor="middle" x="11701" y="-879.39" font-family="Times,serif" font-size="14.00">((r2r1)|(r1r2), r1r2r2r2r2(r2r1)|(r1r2)r1)</text>
</g>
<!-- M6S61 -->
<g id="node28" class="node">
<title>M6S61</title>
<path fill="#ffffff" stroke="black" d="M22274,-1174.59C22274,-1174.59 22244,-1174.59 22244,-1174.59 22238,-1174.59 22232,-1168.59 22232,-1162.59 22232,-1162.59 22232,-1150.59 22232,-1150.59 22232,-1144.59 22238,-1138.59 22244,-1138.59 22244,-1138.59 22274,-1138.59 22274,-1138.59 22280,-1138.59 22286,-1144.59 22286,-1150.59 22286,-1150.59 22286,-1162.59 22286,-1162.59 22286,-1168.59 22280,-1174.59 22274,-1174.59"/>
<text text-anchor="middle" x="22259" y="-1152.89" font-family="Times,serif" font-size="14.00">61</text>
</g>
<!-- M5S77&#45;&gt;M6S61 -->
<g id="edge43" class="edge">
<title>M5S77&#45;&gt;M6S61</title>
<path fill="none" stroke="black" d="M7721.27,-1334.79C8033.33,-1337.06 11021.7,-1357.55 11096,-1307.59 11105.59,-1301.14 11096.44,-1290.08 11106,-1283.59 11160.72,-1246.48 12246.82,-1308.78 12296,-1264.59 12322.98,-1240.35 12278.86,-1207.65 12306,-1183.59 12405.76,-1095.15 21571.49,-1152.2 22221.69,-1156.36"/>
<polygon fill="black" stroke="black" points="22221.87,-1159.86 22231.89,-1156.42 22221.91,-1152.86 22221.87,-1159.86"/>
<text text-anchor="middle" x="11701" y="-1287.39" font-family="Times,serif" font-size="14.00">((r2r1)|(r1r2), r1r2r2r2r2(r2r1)|(r1r2)r3)</text>
</g>
<!-- M6S42 -->
<g id="node29" class="node">
<title>M6S42</title>
<path fill="#ffffff" stroke="black" d="M22274,-1282.59C22274,-1282.59 22244,-1282.59 22244,-1282.59 22238,-1282.59 22232,-1276.59 22232,-1270.59 22232,-1270.59 22232,-1258.59 22232,-1258.59 22232,-1252.59 22238,-1246.59 22244,-1246.59 22244,-1246.59 22274,-1246.59 22274,-1246.59 22280,-1246.59 22286,-1252.59 22286,-1258.59 22286,-1258.59 22286,-1270.59 22286,-1270.59 22286,-1276.59 22280,-1282.59 22274,-1282.59"/>
<text text-anchor="middle" x="22259" y="-1260.89" font-family="Times,serif" font-size="14.00">42</text>
</g>
<!-- M5S77&#45;&gt;M6S42 -->
<g id="edge44" class="edge">
<title>M5S77&#45;&gt;M6S42</title>
<path fill="none" stroke="black" d="M7721.35,-1334.3C8034.34,-1330.86 11031.41,-1299.58 11096,-1361.59 11112.45,-1377.38 11089.49,-1550.86 11106,-1566.59 11129.94,-1589.39 12272.21,-1589.53 12296,-1566.59 12318.01,-1545.37 12284.02,-1312.84 12306,-1291.59 12401.84,-1198.92 21571.21,-1259.9 22221.68,-1264.34"/>
<polygon fill="black" stroke="black" points="22221.85,-1267.84 22231.88,-1264.41 22221.9,-1260.84 22221.85,-1267.84"/>
<text text-anchor="middle" x="11701" y="-1587.39" font-family="Times,serif" font-size="14.00">((r2(r1r2)|(r2r1))|((r1r2r2)|((r1r2r2)|(r2(r2r1)|(r1r2)))), r1r2r2r2r2(r2(r1r2)|(r2r1))|((r1r2r2)|((r1r2r2)|(r2(r2r1)|(r1r2))))r1)</text>
</g>
<!-- M6S23 -->
<g id="node30" class="node">
<title>M6S23</title>
<path fill="#ffffff" stroke="black" d="M22274,-1228.59C22274,-1228.59 22244,-1228.59 22244,-1228.59 22238,-1228.59 22232,-1222.59 22232,-1216.59 22232,-1216.59 22232,-1204.59 22232,-1204.59 22232,-1198.59 22238,-1192.59 22244,-1192.59 22244,-1192.59 22274,-1192.59 22274,-1192.59 22280,-1192.59 22286,-1198.59 22286,-1204.59 22286,-1204.59 22286,-1216.59 22286,-1216.59 22286,-1222.59 22280,-1228.59 22274,-1228.59"/>
<text text-anchor="middle" x="22259" y="-1206.89" font-family="Times,serif" font-size="14.00">23</text>
</g>
<!-- M5S77&#45;&gt;M6S23 -->
<g id="edge45" class="edge">
<title>M5S77&#45;&gt;M6S23</title>
<path fill="none" stroke="black" d="M7721.02,-1334.52C8090.6,-1333.59 12272.89,-1322.56 12296,-1302.59 12318.12,-1283.48 12283.84,-1256.65 12306,-1237.59 12407.07,-1150.64 21571.58,-1206.3 22221.7,-1210.36"/>
<polygon fill="black" stroke="black" points="22221.87,-1213.86 22231.89,-1210.42 22221.91,-1206.86 22221.87,-1213.86"/>
<text text-anchor="middle" x="11701" y="-1323.39" font-family="Times,serif" font-size="14.00">((r2(r1r2)|(r2r1))|((r1r2r2)|((r1r2r2)|(r2(r2r1)|(r1r2)))), r1r2r2r2r2(r2(r1r2)|(r2r1))|((r1r2r2)|((r1r2r2)|(r2(r2r1)|(r1r2))))r3)</text>
</g>
<!-- M6S45 -->
<g id="node31" class="node">
<title>M6S45</title>
<path fill="#ffffff" stroke="black" d="M22274,-1444.59C22274,-1444.59 22244,-1444.59 22244,-1444.59 22238,-1444.59 22232,-1438.59 22232,-1432.59 22232,-1432.59 22232,-1420.59 22232,-1420.59 22232,-1414.59 22238,-1408.59 22244,-1408.59 22244,-1408.59 22274,-1408.59 22274,-1408.59 22280,-1408.59 22286,-1414.59 22286,-1420.59 22286,-1420.59 22286,-1432.59 22286,-1432.59 22286,-1438.59 22280,-1444.59 22274,-1444.59"/>
<text text-anchor="middle" x="22259" y="-1422.89" font-family="Times,serif" font-size="14.00">45</text>
</g>
<!-- M5S77&#45;&gt;M6S45 -->
<g id="edge46" class="edge">
<title>M5S77&#45;&gt;M6S45</title>
<path fill="none" stroke="black" d="M7721.36,-1334.29C8034.44,-1330.76 11032.32,-1298.65 11096,-1361.59 11116.19,-1381.55 11085.73,-1852.71 11106,-1872.59 11129.6,-1895.73 12272.35,-1895.68 12296,-1872.59 12312.66,-1856.32 12289.36,-1469.88 12306,-1453.59 12401.26,-1360.32 21571.17,-1421.85 22221.67,-1426.34"/>
<polygon fill="black" stroke="black" points="22221.85,-1429.84 22231.88,-1426.41 22221.9,-1422.84 22221.85,-1429.84"/>
<text text-anchor="middle" x="11701" y="-1893.39" font-family="Times,serif" font-size="14.00">(r2r2, r1r2r2r2r2r2r2r1)</text>
</g>
<!-- M6S28 -->
<g id="node32" class="node">
<title>M6S28</title>
<path fill="#ffffff" stroke="black" d="M22274,-1552.59C22274,-1552.59 22244,-1552.59 22244,-1552.59 22238,-1552.59 22232,-1546.59 22232,-1540.59 22232,-1540.59 22232,-1528.59 22232,-1528.59 22232,-1522.59 22238,-1516.59 22244,-1516.59 22244,-1516.59 22274,-1516.59 22274,-1516.59 22280,-1516.59 22286,-1522.59 22286,-1528.59 22286,-1528.59 22286,-1540.59 22286,-1540.59 22286,-1546.59 22280,-1552.59 22274,-1552.59"/>
<text text-anchor="middle" x="22259" y="-1530.89" font-family="Times,serif" font-size="14.00">28</text>
</g>
<!-- M5S77&#45;&gt;M6S28 -->
<g id="edge47" class="edge">
<title>M5S77&#45;&gt;M6S28</title>
<path fill="none" stroke="black" d="M7721.36,-1334.29C8034.46,-1330.74 11032.55,-1298.41 11096,-1361.59 11112.04,-1377.56 11089.89,-2160.68 11106,-2176.59 11129.52,-2199.82 12272.44,-2199.77 12296,-2176.59 12320.36,-2152.62 12281.67,-1585.59 12306,-1561.59 12400.91,-1467.96 21571.15,-1529.83 22221.67,-1534.34"/>
<polygon fill="black" stroke="black" points="22221.85,-1537.84 22231.87,-1534.41 22221.9,-1530.84 22221.85,-1537.84"/>
<text text-anchor="middle" x="11701" y="-2197.39" font-family="Times,serif" font-size="14.00">(r2r2, r1r2r2r2r2r2r2r3)</text>
</g>
<!-- M6S60 -->
<g id="node33" class="node">
<title>M6S60</title>
<path fill="#ffffff" stroke="black" d="M22274,-1390.59C22274,-1390.59 22244,-1390.59 22244,-1390.59 22238,-1390.59 22232,-1384.59 22232,-1378.59 22232,-1378.59 22232,-1366.59 22232,-1366.59 22232,-1360.59 22238,-1354.59 22244,-1354.59 22244,-1354.59 22274,-1354.59 22274,-1354.59 22280,-1354.59 22286,-1360.59 22286,-1366.59 22286,-1366.59 22286,-1378.59 22286,-1378.59 22286,-1384.59 22280,-1390.59 22274,-1390.59"/>
<text text-anchor="middle" x="22259" y="-1368.89" font-family="Times,serif" font-size="14.00">60</text>
</g>
<!-- M5S77&#45;&gt;M6S60 -->
<g id="edge48" class="edge">
<title>M5S77&#45;&gt;M6S60</title>
<path fill="none" stroke="black" d="M7721.36,-1334.29C8034.42,-1330.78 11032.14,-1298.82 11096,-1361.59 11111.73,-1377.06 11090.2,-1743.19 11106,-1758.59 11129.67,-1781.67 12272.3,-1781.64 12296,-1758.59 12324.61,-1730.77 12277.43,-1427.45 12306,-1399.59 12401.45,-1306.51 21571.18,-1367.87 22221.67,-1372.34"/>
<polygon fill="black" stroke="black" points="22221.85,-1375.84 22231.88,-1372.41 22221.9,-1368.84 22221.85,-1375.84"/>
<text text-anchor="middle" x="11701" y="-1779.39" font-family="Times,serif" font-size="14.00">(r1, r1r2r2r2r2r1r3)</text>
</g>
<!-- M6S22 -->
<g id="node34" class="node">
<title>M6S22</title>
<path fill="#ffffff" stroke="black" d="M22274,-1498.59C22274,-1498.59 22244,-1498.59 22244,-1498.59 22238,-1498.59 22232,-1492.59 22232,-1486.59 22232,-1486.59 22232,-1474.59 22232,-1474.59 22232,-1468.59 22238,-1462.59 22244,-1462.59 22244,-1462.59 22274,-1462.59 22274,-1462.59 22280,-1462.59 22286,-1468.59 22286,-1474.59 22286,-1474.59 22286,-1486.59 22286,-1486.59 22286,-1492.59 22280,-1498.59 22274,-1498.59"/>
<text text-anchor="middle" x="22259" y="-1476.89" font-family="Times,serif" font-size="14.00">22</text>
</g>
<!-- M5S77&#45;&gt;M6S22 -->
<g id="edge49" class="edge">
<title>M5S77&#45;&gt;M6S22</title>
<path fill="none" stroke="black" d="M7721.36,-1334.29C8034.45,-1330.75 11032.46,-1298.5 11096,-1361.59 11122.14,-1387.54 11079.76,-1998.74 11106,-2024.59 11129.55,-2047.79 12272.4,-2047.74 12296,-2024.59 12316.51,-2004.47 12285.52,-1527.73 12306,-1507.59 12401.05,-1414.11 21571.16,-1475.84 22221.67,-1480.34"/>
<polygon fill="black" stroke="black" points="22221.85,-1483.84 22231.87,-1480.41 22221.9,-1476.84 22221.85,-1483.84"/>
<text text-anchor="middle" x="11701" y="-2045.39" font-family="Times,serif" font-size="14.00">((r1r2)|(r2r1), r1r2r2r2r2(r1r2)|(r2r1)r3)</text>
</g>
<!-- M6S21 -->
<g id="node35" class="node">
<title>M6S21</title>
<path fill="#ffffff" stroke="black" d="M22274,-1660.59C22274,-1660.59 22244,-1660.59 22244,-1660.59 22238,-1660.59 22232,-1654.59 22232,-1648.59 22232,-1648.59 22232,-1636.59 22232,-1636.59 22232,-1630.59 22238,-1624.59 22244,-1624.59 22244,-1624.59 22274,-1624.59 22274,-1624.59 22280,-1624.59 22286,-1630.59 22286,-1636.59 22286,-1636.59 22286,-1648.59 22286,-1648.59 22286,-1654.59 22280,-1660.59 22274,-1660.59"/>
<text text-anchor="middle" x="22259" y="-1638.89" font-family="Times,serif" font-size="14.00">21</text>
</g>
<!-- M5S77&#45;&gt;M6S21 -->
<g id="edge50" class="edge">
<title>M5S77&#45;&gt;M6S21</title>
<path fill="none" stroke="black" d="M7721.36,-1334.29C8034.47,-1330.73 11032.6,-1298.37 11096,-1361.59 11114.23,-1379.77 11087.69,-2270.48 11106,-2288.59 11129.5,-2311.84 12262.96,-2289.66 12296,-2288.59 16520.76,-2151.75 21737.5,-1689.32 22221.59,-1645.87"/>
<polygon fill="black" stroke="black" points="22222.19,-1649.33 22231.84,-1644.95 22221.57,-1642.36 22222.19,-1649.33"/>
<text text-anchor="middle" x="11701" y="-2302.39" font-family="Times,serif" font-size="14.00">(r2, r1r2r2r2r2r2r3)</text>
</g>
<!-- M5S82&#45;&gt;M6S83 -->
<g id="edge51" class="edge">
<title>M5S82&#45;&gt;M6S83</title>
<path fill="none" stroke="black" d="M7721.35,-1118.89C8034.38,-1122.36 11031.73,-1153.93 11096,-1091.59 11116.75,-1071.46 11085.17,-851.64 11106,-831.59 11129.82,-808.67 12272.15,-808.7 12296,-831.59 12315.58,-850.38 12286.45,-1056.77 12306,-1075.59 12402.06,-1168.04 21571.23,-1107.27 22221.68,-1102.84"/>
<polygon fill="black" stroke="black" points="22221.9,-1106.34 22231.88,-1102.77 22221.85,-1099.34 22221.9,-1106.34"/>
<text text-anchor="middle" x="11701" y="-835.39" font-family="Times,serif" font-size="14.00">(ε, r1r2r2r2r2r2r1)</text>
</g>
<!-- M5S82&#45;&gt;M6S66 -->
<g id="edge52" class="edge">
<title>M5S82&#45;&gt;M6S66</title>
<path fill="none" stroke="black" d="M7721.36,-1118.29C8034.44,-1114.76 11032.3,-1082.66 11096,-1145.59 11115.61,-1164.96 11086.32,-1622.3 11106,-1641.59 11129.61,-1664.73 12272.23,-1664.57 12296,-1641.59 12319.66,-1618.72 12282.37,-1368.49 12306,-1345.59 12401.72,-1252.79 21571.2,-1313.89 22221.68,-1318.34"/>
<polygon fill="black" stroke="black" points="22221.85,-1321.84 22231.88,-1318.41 22221.9,-1314.84 22221.85,-1321.84"/>
<text text-anchor="middle" x="11701" y="-1662.39" font-family="Times,serif" font-size="14.00">(ε, r1r2r2r2r2r2r3)</text>
</g>
<!-- M5S82&#45;&gt;M6S80 -->
<g id="edge53" class="edge">
<title>M5S82&#45;&gt;M6S80</title>
<path fill="none" stroke="black" d="M7721.36,-1118.89C8034.42,-1122.4 11032.09,-1154.31 11096,-1091.59 11125.67,-1062.47 11076.22,-746.59 11106,-717.59 11129.68,-694.53 12272.25,-694.6 12296,-717.59 12320.29,-741.09 12281.74,-998.06 12306,-1021.59 12401.68,-1114.43 21571.2,-1053.3 22221.67,-1048.84"/>
<polygon fill="black" stroke="black" points="22221.9,-1052.34 22231.88,-1048.77 22221.85,-1045.34 22221.9,-1052.34"/>
<text text-anchor="middle" x="11701" y="-721.39" font-family="Times,serif" font-size="14.00">(r1, r1r2r2r2r2r2r1r1)</text>
</g>
<!-- M5S82&#45;&gt;M6S61 -->
<g id="edge54" class="edge">
<title>M5S82&#45;&gt;M6S61</title>
<path fill="none" stroke="black" d="M7721.35,-1118.88C8034.28,-1122.25 11030.77,-1152.93 11096,-1091.59 11119.37,-1069.61 11082.55,-969.47 11106,-947.59 11130.17,-925.04 12271.99,-924.87 12296,-947.59 12325.42,-975.43 12276.62,-1101.7 12306,-1129.59 12402.7,-1221.37 21571.27,-1161.22 22221.68,-1156.84"/>
<polygon fill="black" stroke="black" points="22221.9,-1160.34 22231.88,-1156.77 22221.86,-1153.34 22221.9,-1160.34"/>
<text text-anchor="middle" x="11701" y="-951.39" font-family="Times,serif" font-size="14.00">(r1, r1r2r2r2r2r2r1r3)</text>
</g>
<!-- M5S82&#45;&gt;M6S42 -->
<g id="edge55" class="edge">
<title>M5S82&#45;&gt;M6S42</title>
<path fill="none" stroke="black" d="M7721.35,-1118.29C8034.38,-1114.82 11031.78,-1083.2 11096,-1145.59 11117.61,-1166.59 11084.3,-1395.68 11106,-1416.59 11129.8,-1439.53 12271.71,-1439.01 12296,-1416.59 12316.48,-1397.69 12285.55,-1310.52 12306,-1291.59 12403.83,-1201.02 21571.35,-1260.05 22221.68,-1264.35"/>
<polygon fill="black" stroke="black" points="22221.86,-1267.85 22231.88,-1264.41 22221.91,-1260.85 22221.86,-1267.85"/>
<text text-anchor="middle" x="11701" y="-1437.39" font-family="Times,serif" font-size="14.00">((r1r2)|(r2r1), r1r2r2r2r2r2(r1r2)|(r2r1)r1)</text>
</g>
<!-- M5S82&#45;&gt;M6S23 -->
<g id="edge56" class="edge">
<title>M5S82&#45;&gt;M6S23</title>
<path fill="none" stroke="black" d="M7721.13,-1118.74C7953.38,-1120.12 9688.55,-1130.62 11096,-1145.59 11229.34,-1147.01 12184.37,-1088.65 12296,-1161.59 12304.99,-1167.46 12296.98,-1177.76 12306,-1183.59 12417.99,-1255.92 21572.36,-1213.84 22221.74,-1210.76"/>
<polygon fill="black" stroke="black" points="22221.94,-1214.26 22231.92,-1210.71 22221.9,-1207.26 22221.94,-1214.26"/>
<text text-anchor="middle" x="11701" y="-1165.39" font-family="Times,serif" font-size="14.00">((r1r2)|(r2r1), r1r2r2r2r2r2(r1r2)|(r2r1)r3)</text>
</g>
<!-- M5S82&#45;&gt;M6S45 -->
<g id="edge57" class="edge">
<title>M5S82&#45;&gt;M6S45</title>
<path fill="none" stroke="black" d="M7721.36,-1118.29C8034.45,-1114.75 11032.45,-1082.51 11096,-1145.59 11121.59,-1170.99 11080.31,-1769.29 11106,-1794.59 11129.55,-1817.78 12272.29,-1817.62 12296,-1794.59 12323.19,-1768.18 12278.84,-1480.03 12306,-1453.59 12401.52,-1360.58 21571.19,-1421.87 22221.67,-1426.34"/>
<polygon fill="black" stroke="black" points="22221.85,-1429.84 22231.88,-1426.41 22221.9,-1422.84 22221.85,-1429.84"/>
<text text-anchor="middle" x="11701" y="-1815.39" font-family="Times,serif" font-size="14.00">(r2, r1r2r2r2r2r2r2r1)</text>
</g>
<!-- M5S82&#45;&gt;M6S28 -->
<g id="edge58" class="edge">
<title>M5S82&#45;&gt;M6S28</title>
<path fill="none" stroke="black" d="M7721.36,-1118.29C8034.47,-1114.73 11032.61,-1082.36 11096,-1145.59 11114.78,-1164.32 11087.14,-2081.93 11106,-2100.59 11129.5,-2123.84 12272.41,-2123.75 12296,-2100.59 12317.37,-2079.61 12284.66,-1582.6 12306,-1561.59 12401.01,-1468.07 21571.15,-1529.84 22221.67,-1534.34"/>
<polygon fill="black" stroke="black" points="22221.85,-1537.84 22231.87,-1534.41 22221.9,-1530.84 22221.85,-1537.84"/>
<text text-anchor="middle" x="11701" y="-2121.39" font-family="Times,serif" font-size="14.00">(r2, r1r2r2r2r2r2r2r3)</text>
</g>
<!-- M5S79&#45;&gt;M6S80 -->
<g id="edge59" class="edge">
<title>M5S79&#45;&gt;M6S80</title>
<path fill="none" stroke="black" d="M7721.36,-1010.89C8034.4,-1014.37 11031.9,-1046.11 11096,-983.59 11120.19,-959.99 11081.71,-703.09 11106,-679.59 11129.75,-656.6 12272.29,-656.56 12296,-679.59 12323.27,-706.08 12278.76,-995.07 12306,-1021.59 12401.51,-1114.6 21571.19,-1053.31 22221.67,-1048.84"/>
<polygon fill="black" stroke="black" points="22221.9,-1052.34 22231.88,-1048.77 22221.85,-1045.34 22221.9,-1052.34"/>
<text text-anchor="middle" x="11701" y="-683.39" font-family="Times,serif" font-size="14.00">(ε, (((r1r2r2r2(r2r1)|(r1r2)r2)|(r1r2r2r2r2r1r2))|((r1r2r2(r2r1)|(r1r2)r2)|(r1r2r2r2r1r2)r2))|(r1r2r2r1r2r2r2)r1)</text>
</g>
<!-- M5S79&#45;&gt;M6S61 -->
<g id="edge60" class="edge">
<title>M5S79&#45;&gt;M6S61</title>
<path fill="none" stroke="black" d="M7721.33,-1010.86C8034.06,-1014.01 11028.71,-1042.66 11096,-983.59 11120.28,-962.28 11081.63,-932.8 11106,-911.59 11130.93,-889.88 12272.1,-888.76 12296,-911.59 12313.53,-928.34 12288.49,-1112.82 12306,-1129.59 12402.28,-1221.81 21571.24,-1161.25 22221.68,-1156.84"/>
<polygon fill="black" stroke="black" points="22221.9,-1160.34 22231.88,-1156.77 22221.85,-1153.34 22221.9,-1160.34"/>
<text text-anchor="middle" x="11701" y="-915.39" font-family="Times,serif" font-size="14.00">(ε, (((r1r2r2r2(r2r1)|(r1r2)r2)|(r1r2r2r2r2r1r2))|((r1r2r2(r2r1)|(r1r2)r2)|(r1r2r2r2r1r2)r2))|(r1r2r2r1r2r2r2)r3)</text>
</g>
<!-- M5S79&#45;&gt;M6S42 -->
<g id="edge61" class="edge">
<title>M5S79&#45;&gt;M6S42</title>
<path fill="none" stroke="black" d="M7721.36,-1010.29C8034.4,-1006.81 11031.89,-975.08 11096,-1037.59 11119.96,-1060.95 11081.95,-1315.32 11106,-1338.59 11129.76,-1361.57 12270.31,-1359.39 12296,-1338.59 12312.6,-1325.15 12289.42,-1305.05 12306,-1291.59 12409.5,-1207.56 21571.76,-1260.51 22221.7,-1264.37"/>
<polygon fill="black" stroke="black" points="22221.88,-1267.87 22231.9,-1264.43 22221.92,-1260.87 22221.88,-1267.87"/>
<text text-anchor="middle" x="11701" y="-1358.39" font-family="Times,serif" font-size="14.00">(r2, (((r1r2r2r2(r2r1)|(r1r2)r2)|(r1r2r2r2r2r1r2))|((r1r2r2(r2r1)|(r1r2)r2)|(r1r2r2r2r1r2)r2))|(r1r2r2r1r2r2r2)r2r1)</text>
</g>
<!-- M5S79&#45;&gt;M6S23 -->
<g id="edge62" class="edge">
<title>M5S79&#45;&gt;M6S23</title>
<path fill="none" stroke="black" d="M7721.13,-1010.67C7953.39,-1011.39 9688.61,-1017.34 11096,-1037.59 11129.34,-1038.07 12271.71,-1039.75 12296,-1062.59 12315.66,-1081.07 12286.18,-1165.29 12306,-1183.59 12403.95,-1274.03 21571.36,-1215.12 22221.68,-1210.83"/>
<polygon fill="black" stroke="black" points="22221.91,-1214.33 22231.88,-1210.76 22221.86,-1207.33 22221.91,-1214.33"/>
<text text-anchor="middle" x="11701" y="-1066.39" font-family="Times,serif" font-size="14.00">(r2, (((r1r2r2r2(r2r1)|(r1r2)r2)|(r1r2r2r2r2r1r2))|((r1r2r2(r2r1)|(r1r2)r2)|(r1r2r2r2r1r2)r2))|(r1r2r2r1r2r2r2)r2r3)</text>
</g>
<!-- M5S41&#45;&gt;M6S42 -->
<g id="edge63" class="edge">
<title>M5S41&#45;&gt;M6S42</title>
<path fill="none" stroke="black" d="M7721.36,-1064.29C8034.39,-1060.81 11031.84,-1029.13 11096,-1091.59 11118.86,-1113.85 11083.05,-1356.42 11106,-1378.59 11129.78,-1401.55 12271.33,-1400.59 12296,-1378.59 12325.05,-1352.69 12276.98,-1317.53 12306,-1291.59 12405.39,-1202.73 21571.46,-1260.17 22221.69,-1264.35"/>
<polygon fill="black" stroke="black" points="22221.86,-1267.85 22231.89,-1264.42 22221.91,-1260.85 22221.86,-1267.85"/>
<text text-anchor="middle" x="11701" y="-1398.39" font-family="Times,serif" font-size="14.00">(ε, (((r1r2r2r2(r2(r1r2)|(r2r1))|((r1r2r2)|((r1r2r2)|(r2(r2r1)|(r1r2))))r2)|(r1r2r2r2r2(r1r2)|(r2r1)r2))|((r1r2r2(r2r1)|(r1r2)r2)|(r1r2r2r2r1r2)r2r2))|(r1r2r2r1r2r2r2r2)r1)</text>
</g>
<!-- M5S41&#45;&gt;M6S23 -->
<g id="edge64" class="edge">
<title>M5S41&#45;&gt;M6S23</title>
<path fill="none" stroke="black" d="M7721.13,-1064.76C7953.38,-1066.28 9688.53,-1077.79 11096,-1091.59 11162.67,-1092.24 12246.21,-1061.25 12296,-1105.59 12322.1,-1128.83 12279.79,-1160.47 12306,-1183.59 12405.97,-1271.8 21571.51,-1214.97 22221.69,-1210.82"/>
<polygon fill="black" stroke="black" points="22221.91,-1214.32 22231.89,-1210.76 22221.87,-1207.32 22221.91,-1214.32"/>
<text text-anchor="middle" x="11701" y="-1109.39" font-family="Times,serif" font-size="14.00">(ε, (((r1r2r2r2(r2(r1r2)|(r2r1))|((r1r2r2)|((r1r2r2)|(r2(r2r1)|(r1r2))))r2)|(r1r2r2r2r2(r1r2)|(r2r1)r2))|((r1r2r2(r2r1)|(r1r2)r2)|(r1r2r2r2r1r2)r2r2))|(r1r2r2r1r2r2r2r2)r3)</text>
</g>
<!-- M5S44&#45;&gt;M6S42 -->
<g id="edge67" class="edge">
<title>M5S44&#45;&gt;M6S42</title>
<path fill="none" stroke="black" d="M7721.35,-1280.29C8034.36,-1276.84 11031.53,-1245.45 11096,-1307.59 11113.86,-1324.8 11088.07,-1513.45 11106,-1530.59 11129.89,-1553.43 12272.14,-1553.47 12296,-1530.59 12315.18,-1512.19 12286.84,-1310.01 12306,-1291.59 12402.1,-1199.18 21571.23,-1259.91 22221.68,-1264.34"/>
<polygon fill="black" stroke="black" points="22221.85,-1267.84 22231.88,-1264.41 22221.9,-1260.84 22221.85,-1267.84"/>
<text text-anchor="middle" x="11701" y="-1551.39" font-family="Times,serif" font-size="14.00">(r1, r1r2r2r2r2r2r2r1r1)</text>
</g>
<!-- M5S44&#45;&gt;M6S23 -->
<g id="edge68" class="edge">
<title>M5S44&#45;&gt;M6S23</title>
<path fill="none" stroke="black" d="M7721.26,-1280.97C8018.48,-1285.26 10745.48,-1322.54 11096,-1253.59 11100.7,-1252.67 11101.3,-1250.52 11106,-1249.59 11236.81,-1223.72 12172.66,-1238.44 12306,-1237.59 16519.81,-1210.8 21737.39,-1210.55 22221.59,-1210.59"/>
<polygon fill="black" stroke="black" points="22221.83,-1214.09 22231.84,-1210.59 22221.84,-1207.09 22221.83,-1214.09"/>
<text text-anchor="middle" x="11701" y="-1253.39" font-family="Times,serif" font-size="14.00">(r1, r1r2r2r2r2r2r2r1r3)</text>
</g>
<!-- M5S44&#45;&gt;M6S45 -->
<g id="edge65" class="edge">
<title>M5S44&#45;&gt;M6S45</title>
<path fill="none" stroke="black" d="M7721.36,-1280.29C8034.44,-1276.76 11032.34,-1244.63 11096,-1307.59 11116.82,-1328.18 11085.1,-1814.08 11106,-1834.59 11129.59,-1857.74 12272.32,-1857.65 12296,-1834.59 12311.17,-1819.82 12290.85,-1468.38 12306,-1453.59 12401.37,-1360.43 21571.18,-1421.86 22221.67,-1426.34"/>
<polygon fill="black" stroke="black" points="22221.85,-1429.84 22231.88,-1426.41 22221.9,-1422.84 22221.85,-1429.84"/>
<text text-anchor="middle" x="11701" y="-1855.39" font-family="Times,serif" font-size="14.00">(ε, r1r2r2r2r2r2r2r1)</text>
</g>
<!-- M5S44&#45;&gt;M6S28 -->
<g id="edge66" class="edge">
<title>M5S44&#45;&gt;M6S28</title>
<path fill="none" stroke="black" d="M7721.36,-1280.29C8034.47,-1276.74 11032.56,-1244.41 11096,-1307.59 11112.36,-1323.88 11089.58,-2122.36 11106,-2138.59 11129.51,-2161.82 12272.42,-2161.76 12296,-2138.59 12318.87,-2116.12 12283.16,-1584.09 12306,-1561.59 12400.96,-1468.01 21571.15,-1529.83 22221.67,-1534.34"/>
<polygon fill="black" stroke="black" points="22221.85,-1537.84 22231.87,-1534.41 22221.9,-1530.84 22221.85,-1537.84"/>
<text text-anchor="middle" x="11701" y="-2159.39" font-family="Times,serif" font-size="14.00">(ε, r1r2r2r2r2r2r2r3)</text>
</g>
<!-- M5S78&#45;&gt;M6S80 -->
<g id="edge70" class="edge">
<title>M5S78&#45;&gt;M6S80</title>
<path fill="none" stroke="black" d="M7721.36,-1172.89C8034.42,-1176.4 11032.13,-1208.34 11096,-1145.59 11111.46,-1130.4 11090.48,-770.72 11106,-755.59 11129.67,-732.52 12272.19,-732.66 12296,-755.59 12317.3,-776.11 12284.72,-1001.04 12306,-1021.59 12401.9,-1114.2 21571.22,-1053.28 22221.68,-1048.84"/>
<polygon fill="black" stroke="black" points="22221.9,-1052.34 22231.88,-1048.77 22221.85,-1045.34 22221.9,-1052.34"/>
<text text-anchor="middle" x="11701" y="-759.39" font-family="Times,serif" font-size="14.00">(r2, (r1r2r2r2r1r2)|(r1r2r2r1r2r2)r2r1)</text>
</g>
<!-- M5S78&#45;&gt;M6S61 -->
<g id="edge71" class="edge">
<title>M5S78&#45;&gt;M6S61</title>
<path fill="none" stroke="black" d="M7721.35,-1172.88C8034.3,-1176.28 11031.01,-1207.18 11096,-1145.59 11122.18,-1120.78 11079.72,-1008.3 11106,-983.59 11130.08,-960.95 12271.84,-961.03 12296,-983.59 12319.77,-1005.79 12282.26,-1107.36 12306,-1129.59 12403.32,-1220.71 21571.32,-1161.17 22221.68,-1156.83"/>
<polygon fill="black" stroke="black" points="22221.9,-1160.33 22231.88,-1156.77 22221.86,-1153.33 22221.9,-1160.33"/>
<text text-anchor="middle" x="11701" y="-987.39" font-family="Times,serif" font-size="14.00">(r2, (r1r2r2r2r1r2)|(r1r2r2r1r2r2)r2r3)</text>
</g>
<!-- M5S78&#45;&gt;M6S42 -->
<g id="edge72" class="edge">
<title>M5S78&#45;&gt;M6S42</title>
<path fill="none" stroke="black" d="M7721.35,-1172.29C8034.38,-1168.83 11031.7,-1137.27 11096,-1199.59 11116.36,-1219.32 11085.56,-1434.94 11106,-1454.59 11129.83,-1477.5 12271.92,-1477.24 12296,-1454.59 12322.44,-1429.73 12279.6,-1316.49 12306,-1291.59 12402.99,-1200.12 21571.29,-1259.98 22221.68,-1264.34"/>
<polygon fill="black" stroke="black" points="22221.86,-1267.85 22231.88,-1264.41 22221.9,-1260.85 22221.86,-1267.85"/>
<text text-anchor="middle" x="11701" y="-1475.39" font-family="Times,serif" font-size="14.00">(r2r2, (r1r2r2r2r1r2)|(r1r2r2r1r2r2)r2r2r1)</text>
</g>
<!-- M5S78&#45;&gt;M6S23 -->
<g id="edge73" class="edge">
<title>M5S78&#45;&gt;M6S23</title>
<path fill="none" stroke="black" d="M7721.13,-1172.66C8383.9,-1174.39 21441.02,-1208.46 22221.54,-1210.49"/>
<polygon fill="black" stroke="black" points="22221.64,-1213.99 22231.65,-1210.52 22221.66,-1206.99 22221.64,-1213.99"/>
<text text-anchor="middle" x="11701" y="-1187.39" font-family="Times,serif" font-size="14.00">(r2r2, (r1r2r2r2r1r2)|(r1r2r2r1r2r2)r2r2r3)</text>
</g>
<!-- M5S78&#45;&gt;M6S60 -->
<g id="edge69" class="edge">
<title>M5S78&#45;&gt;M6S60</title>
<path fill="none" stroke="black" d="M7721.36,-1172.29C8034.44,-1168.76 11032.33,-1136.64 11096,-1199.59 11116.51,-1219.87 11085.41,-1698.4 11106,-1718.59 11129.6,-1741.74 12272.26,-1741.59 12296,-1718.59 12321.47,-1693.91 12280.57,-1424.3 12306,-1399.59 12401.61,-1306.68 21571.2,-1367.88 22221.67,-1372.34"/>
<polygon fill="black" stroke="black" points="22221.85,-1375.84 22231.88,-1372.41 22221.9,-1368.84 22221.85,-1375.84"/>
<text text-anchor="middle" x="11701" y="-1739.39" font-family="Times,serif" font-size="14.00">(ε, (r1r2r2r2r1r2)|(r1r2r2r1r2r2)r3)</text>
</g>
<!-- M5S78&#45;&gt;M6S22 -->
<g id="edge74" class="edge">
<title>M5S78&#45;&gt;M6S22</title>
<path fill="none" stroke="black" d="M7721.36,-1172.29C8034.46,-1168.74 11032.52,-1136.45 11096,-1199.59 11125.51,-1228.94 11076.38,-1919.36 11106,-1948.59 11129.53,-1971.81 12272.36,-1971.7 12296,-1948.59 12313.52,-1931.46 12288.5,-1524.74 12306,-1507.59 12401.21,-1414.26 21571.17,-1475.85 22221.67,-1480.34"/>
<polygon fill="black" stroke="black" points="22221.85,-1483.84 22231.88,-1480.41 22221.9,-1476.84 22221.85,-1483.84"/>
<text text-anchor="middle" x="11701" y="-1969.39" font-family="Times,serif" font-size="14.00">(r2, (r1r2r2r2r1r2)|(r1r2r2r1r2r2)r2r3)</text>
</g>
<!-- M5S40&#45;&gt;M6S42 -->
<g id="edge76" class="edge">
<title>M5S40&#45;&gt;M6S42</title>
<path fill="none" stroke="black" d="M7721.35,-1226.29C8034.37,-1222.83 11031.62,-1191.36 11096,-1253.59 11115.11,-1272.06 11086.82,-1474.19 11106,-1492.59 11129.86,-1515.47 12272.05,-1515.38 12296,-1492.59 12312.2,-1477.18 12289.82,-1307.03 12306,-1291.59 12402.46,-1199.56 21571.26,-1259.94 22221.68,-1264.34"/>
<polygon fill="black" stroke="black" points="22221.85,-1267.84 22231.88,-1264.41 22221.9,-1260.84 22221.85,-1267.84"/>
<text text-anchor="middle" x="11701" y="-1513.39" font-family="Times,serif" font-size="14.00">(r2, (r1r2r2r2(r1r2)|(r2r1)r2)|(r1r2r2r1r2r2r2)r2r1)</text>
</g>
<!-- M5S40&#45;&gt;M6S23 -->
<g id="edge77" class="edge">
<title>M5S40&#45;&gt;M6S23</title>
<path fill="none" stroke="black" d="M7721.2,-1226.43C7954.13,-1225.03 9694.36,-1214.76 11106,-1211.59 15841.11,-1200.97 21707.16,-1209.73 22221.6,-1210.53"/>
<polygon fill="black" stroke="black" points="22221.78,-1214.03 22231.79,-1210.55 22221.79,-1207.03 22221.78,-1214.03"/>
<text text-anchor="middle" x="11701" y="-1215.39" font-family="Times,serif" font-size="14.00">(r2, (r1r2r2r2(r1r2)|(r2r1)r2)|(r1r2r2r1r2r2r2)r2r3)</text>
</g>
<!-- M5S40&#45;&gt;M6S22 -->
<g id="edge75" class="edge">
<title>M5S40&#45;&gt;M6S22</title>
<path fill="none" stroke="black" d="M7721.36,-1226.29C8034.46,-1222.74 11032.51,-1190.46 11096,-1253.59 11124.88,-1282.31 11077.01,-1957.99 11106,-1986.59 11129.53,-2009.8 12272.38,-2009.72 12296,-1986.59 12315.02,-1967.97 12287.01,-1526.24 12306,-1507.59 12401.12,-1414.18 21571.16,-1475.84 22221.67,-1480.34"/>
<polygon fill="black" stroke="black" points="22221.85,-1483.84 22231.87,-1480.41 22221.9,-1476.84 22221.85,-1483.84"/>
<text text-anchor="middle" x="11701" y="-2007.39" font-family="Times,serif" font-size="14.00">(ε, (r1r2r2r2(r1r2)|(r2r1)r2)|(r1r2r2r1r2r2r2)r3)</text>
</g>
<!-- M5S39&#45;&gt;M6S42 -->
<g id="edge81" class="edge">
<title>M5S39&#45;&gt;M6S42</title>
<path fill="none" stroke="black" d="M7721.03,-1394.11C7952.45,-1442.87 9682.15,-1800.68 11106,-1908.59 11171.92,-1913.59 12248.88,-1954.96 12296,-1908.59 12320.44,-1884.55 12281.6,-1315.67 12306,-1291.59 12400.9,-1197.96 21571.15,-1259.83 22221.67,-1264.34"/>
<polygon fill="black" stroke="black" points="22221.85,-1267.84 22231.87,-1264.41 22221.9,-1260.84 22221.85,-1267.84"/>
<text text-anchor="middle" x="11701" y="-1933.39" font-family="Times,serif" font-size="14.00">((r2r1)|(r1r2), r1r2r2r2r2r2(r2r1)|(r1r2)r1)</text>
</g>
<!-- M5S39&#45;&gt;M6S23 -->
<g id="edge82" class="edge">
<title>M5S39&#45;&gt;M6S23</title>
<path fill="none" stroke="black" d="M7721.18,-1390.86C7953.85,-1410.94 9692.29,-1558.29 11106,-1602.59 11172.08,-1604.66 12248.62,-1648.69 12296,-1602.59 12325.08,-1574.3 12276.96,-1265.92 12306,-1237.59 12401.43,-1144.49 21571.18,-1205.87 22221.67,-1210.34"/>
<polygon fill="black" stroke="black" points="22221.85,-1213.84 22231.88,-1210.41 22221.9,-1206.84 22221.85,-1213.84"/>
<text text-anchor="middle" x="11701" y="-1626.39" font-family="Times,serif" font-size="14.00">((r2r1)|(r1r2), r1r2r2r2r2r2(r2r1)|(r1r2)r3)</text>
</g>
<!-- M5S39&#45;&gt;M6S45 -->
<g id="edge79" class="edge">
<title>M5S39&#45;&gt;M6S45</title>
<path fill="none" stroke="black" d="M7721.28,-1395.84C7953.13,-1459.39 9674.67,-1922.53 11106,-2062.59 11171.8,-2069.03 12248.87,-2108.95 12296,-2062.59 12320.12,-2038.86 12281.91,-1477.35 12306,-1453.59 12400.91,-1359.97 21571.15,-1421.83 22221.67,-1426.34"/>
<polygon fill="black" stroke="black" points="22221.85,-1429.84 22231.87,-1426.41 22221.9,-1422.84 22221.85,-1429.84"/>
<text text-anchor="middle" x="11701" y="-2088.39" font-family="Times,serif" font-size="14.00">(r2, r1r2r2r2r2r2r2r1)</text>
</g>
<!-- M5S39&#45;&gt;M6S28 -->
<g id="edge80" class="edge">
<title>M5S39&#45;&gt;M6S28</title>
<path fill="none" stroke="black" d="M7721,-1398.69C7950.5,-1487.22 9655.73,-2132.41 11106,-2328.59 11171.51,-2337.45 12248.95,-2375.03 12296,-2328.59 12311.16,-2313.62 12290.86,-1576.58 12306,-1561.59 12400.76,-1467.81 21571.14,-1529.82 22221.67,-1534.34"/>
<polygon fill="black" stroke="black" points="22221.85,-1537.84 22231.87,-1534.41 22221.9,-1530.84 22221.85,-1537.84"/>
<text text-anchor="middle" x="11701" y="-2354.39" font-family="Times,serif" font-size="14.00">(r2, r1r2r2r2r2r2r2r3)</text>
</g>
<!-- M5S39&#45;&gt;M6S22 -->
<g id="edge83" class="edge">
<title>M5S39&#45;&gt;M6S22</title>
<path fill="none" stroke="black" d="M7721.13,-1397.47C7951.73,-1475.3 9664.57,-2042.55 11106,-2214.59 11171.65,-2222.42 12248.92,-2261.01 12296,-2214.59 12323.97,-2187.01 12278.07,-1535.21 12306,-1507.59 12400.81,-1413.86 21571.14,-1475.82 22221.67,-1480.34"/>
<polygon fill="black" stroke="black" points="22221.85,-1483.84 22231.87,-1480.41 22221.9,-1476.84 22221.85,-1483.84"/>
<text text-anchor="middle" x="11701" y="-2240.39" font-family="Times,serif" font-size="14.00">(r1, r1r2r2r2r2r2r1r3)</text>
</g>
<!-- M5S39&#45;&gt;M6S21 -->
<g id="edge78" class="edge">
<title>M5S39&#45;&gt;M6S21</title>
<path fill="none" stroke="black" d="M7721.32,-1399.24C7951.84,-1491.89 9653.31,-2162.45 11106,-2366.59 12292.01,-2533.26 21564.93,-1704.87 22221.37,-1645.89"/>
<polygon fill="black" stroke="black" points="22222.01,-1649.34 22231.66,-1644.96 22221.39,-1642.37 22222.01,-1649.34"/>
<text text-anchor="middle" x="11701" y="-2392.39" font-family="Times,serif" font-size="14.00">(ε, r1r2r2r2r2r2r3)</text>
</g>
<!-- M5S121&#45;&gt;M6S83 -->
<g id="edge84" class="edge">
<title>M5S121&#45;&gt;M6S83</title>
<path fill="none" stroke="black" d="M7721.28,-848.8C8033.44,-851.22 11022.71,-873.03 11096,-821.59 11106.47,-814.24 11095.5,-801.9 11106,-794.59 11133.13,-775.71 12272.21,-771.64 12296,-794.59 12318.48,-816.28 12283.55,-1053.86 12306,-1075.59 12401.81,-1168.3 21571.21,-1107.29 22221.68,-1102.84"/>
<polygon fill="black" stroke="black" points="22221.9,-1106.34 22231.88,-1102.77 22221.85,-1099.34 22221.9,-1106.34"/>
<text text-anchor="middle" x="11701" y="-798.39" font-family="Times,serif" font-size="14.00">(ε, r1r2r2r2r1r2r2)</text>
</g>
<!-- M5S121&#45;&gt;M6S80 -->
<g id="edge90" class="edge">
<title>M5S121&#45;&gt;M6S80</title>
<path fill="none" stroke="black" d="M7721.35,-848.89C8034.38,-852.35 11031.7,-883.9 11096,-821.59 11116.28,-801.93 11085.64,-587.16 11106,-567.59 11129.83,-544.68 12272.37,-544.47 12296,-567.59 12314.03,-585.23 12287.99,-1003.92 12306,-1021.59 12401.18,-1114.95 21571.17,-1053.33 22221.67,-1048.84"/>
<polygon fill="black" stroke="black" points="22221.9,-1052.34 22231.88,-1048.77 22221.85,-1045.34 22221.9,-1052.34"/>
<text text-anchor="middle" x="11701" y="-571.39" font-family="Times,serif" font-size="14.00">(r1, r1r2r2r2r1r2r1r2)</text>
</g>
<!-- M6S105 -->
<g id="node36" class="node">
<title>M6S105</title>
<path fill="#ffffff" stroke="black" d="M22274,-850.59C22274,-850.59 22244,-850.59 22244,-850.59 22238,-850.59 22232,-844.59 22232,-838.59 22232,-838.59 22232,-826.59 22232,-826.59 22232,-820.59 22238,-814.59 22244,-814.59 22244,-814.59 22274,-814.59 22274,-814.59 22280,-814.59 22286,-820.59 22286,-826.59 22286,-826.59 22286,-838.59 22286,-838.59 22286,-844.59 22280,-850.59 22274,-850.59"/>
<text text-anchor="middle" x="22259" y="-828.89" font-family="Times,serif" font-size="14.00">105</text>
</g>
<!-- M5S121&#45;&gt;M6S105 -->
<g id="edge85" class="edge">
<title>M5S121&#45;&gt;M6S105</title>
<path fill="none" stroke="black" d="M7721.36,-848.89C8034.45,-852.43 11032.41,-884.62 11096,-821.59 11119.6,-798.2 11082.31,-246.89 11106,-223.59 11129.57,-200.41 12272.43,-200.42 12296,-223.59 12319.06,-246.26 12282.97,-782.89 12306,-805.59 12400.95,-899.18 21571.15,-837.35 22221.67,-832.84"/>
<polygon fill="black" stroke="black" points="22221.9,-836.34 22231.87,-832.77 22221.85,-829.34 22221.9,-836.34"/>
<text text-anchor="middle" x="11701" y="-227.39" font-family="Times,serif" font-size="14.00">(ε, r1r2r2r2r1r2r3)</text>
</g>
<!-- M6S84 -->
<g id="node37" class="node">
<title>M6S84</title>
<path fill="#ffffff" stroke="black" d="M22274,-796.59C22274,-796.59 22244,-796.59 22244,-796.59 22238,-796.59 22232,-790.59 22232,-784.59 22232,-784.59 22232,-772.59 22232,-772.59 22232,-766.59 22238,-760.59 22244,-760.59 22244,-760.59 22274,-760.59 22274,-760.59 22280,-760.59 22286,-766.59 22286,-772.59 22286,-772.59 22286,-784.59 22286,-784.59 22286,-790.59 22280,-796.59 22274,-796.59"/>
<text text-anchor="middle" x="22259" y="-774.89" font-family="Times,serif" font-size="14.00">84</text>
</g>
<!-- M5S121&#45;&gt;M6S84 -->
<g id="edge86" class="edge">
<title>M5S121&#45;&gt;M6S84</title>
<path fill="none" stroke="black" d="M7721.36,-848.89C8034.46,-852.44 11032.47,-884.68 11096,-821.59 11122.57,-795.2 11079.32,-173.87 11106,-147.59 11129.55,-124.39 12272.43,-124.41 12296,-147.59 12319.93,-171.12 12282.11,-728.02 12306,-751.59 12400.92,-845.21 21571.15,-783.35 22221.67,-778.84"/>
<polygon fill="black" stroke="black" points="22221.9,-782.34 22231.87,-778.77 22221.85,-775.34 22221.9,-782.34"/>
<text text-anchor="middle" x="11701" y="-151.39" font-family="Times,serif" font-size="14.00">(r1, r1r2r2r2r1r2r1r2)</text>
</g>
<!-- M6S106 -->
<g id="node38" class="node">
<title>M6S106</title>
<path fill="#ffffff" stroke="black" d="M22274,-742.59C22274,-742.59 22244,-742.59 22244,-742.59 22238,-742.59 22232,-736.59 22232,-730.59 22232,-730.59 22232,-718.59 22232,-718.59 22232,-712.59 22238,-706.59 22244,-706.59 22244,-706.59 22274,-706.59 22274,-706.59 22280,-706.59 22286,-712.59 22286,-718.59 22286,-718.59 22286,-730.59 22286,-730.59 22286,-736.59 22280,-742.59 22274,-742.59"/>
<text text-anchor="middle" x="22259" y="-720.89" font-family="Times,serif" font-size="14.00">106</text>
</g>
<!-- M5S121&#45;&gt;M6S106 -->
<g id="edge87" class="edge">
<title>M5S121&#45;&gt;M6S106</title>
<path fill="none" stroke="black" d="M7721.36,-848.89C8034.46,-852.44 11032.49,-884.71 11096,-821.59 11123.98,-793.78 11077.91,-139.29 11106,-111.59 11153.08,-65.17 12229.92,-109.56 12296,-111.59 16520.1,-241.43 21737.44,-680.25 22221.59,-721.48"/>
<polygon fill="black" stroke="black" points="22221.58,-724.99 22231.84,-722.35 22222.17,-718.01 22221.58,-724.99"/>
<text text-anchor="middle" x="11701" y="-115.39" font-family="Times,serif" font-size="14.00">(r1, r1r2r2r2r1r2r1r3)</text>
</g>
<!-- M6S81 -->
<g id="node39" class="node">
<title>M6S81</title>
<path fill="#ffffff" stroke="black" d="M22274,-958.59C22274,-958.59 22244,-958.59 22244,-958.59 22238,-958.59 22232,-952.59 22232,-946.59 22232,-946.59 22232,-934.59 22232,-934.59 22232,-928.59 22238,-922.59 22244,-922.59 22244,-922.59 22274,-922.59 22274,-922.59 22280,-922.59 22286,-928.59 22286,-934.59 22286,-934.59 22286,-946.59 22286,-946.59 22286,-952.59 22280,-958.59 22274,-958.59"/>
<text text-anchor="middle" x="22259" y="-936.89" font-family="Times,serif" font-size="14.00">81</text>
</g>
<!-- M5S121&#45;&gt;M6S81 -->
<g id="edge88" class="edge">
<title>M5S121&#45;&gt;M6S81</title>
<path fill="none" stroke="black" d="M7721.36,-848.89C8034.43,-852.41 11032.23,-884.44 11096,-821.59 11113.57,-804.27 11088.36,-394.84 11106,-377.59 11129.64,-354.48 12272.41,-354.43 12296,-377.59 12317.26,-398.45 12284.77,-892.7 12306,-913.59 12401.02,-1007.11 21571.15,-945.34 22221.67,-940.84"/>
<polygon fill="black" stroke="black" points="22221.9,-944.34 22231.87,-940.77 22221.85,-937.34 22221.9,-944.34"/>
<text text-anchor="middle" x="11701" y="-381.39" font-family="Times,serif" font-size="14.00">(r1r1, r1r2r2r2r1r2r1r1r2)</text>
</g>
<!-- M6S101 -->
<g id="node40" class="node">
<title>M6S101</title>
<path fill="#ffffff" stroke="black" d="M22274,-904.59C22274,-904.59 22244,-904.59 22244,-904.59 22238,-904.59 22232,-898.59 22232,-892.59 22232,-892.59 22232,-880.59 22232,-880.59 22232,-874.59 22238,-868.59 22244,-868.59 22244,-868.59 22274,-868.59 22274,-868.59 22280,-868.59 22286,-874.59 22286,-880.59 22286,-880.59 22286,-892.59 22286,-892.59 22286,-898.59 22280,-904.59 22274,-904.59"/>
<text text-anchor="middle" x="22259" y="-882.89" font-family="Times,serif" font-size="14.00">101</text>
</g>
<!-- M5S121&#45;&gt;M6S101 -->
<g id="edge89" class="edge">
<title>M5S121&#45;&gt;M6S101</title>
<path fill="none" stroke="black" d="M7721.36,-848.89C8034.45,-852.42 11032.37,-884.59 11096,-821.59 11118.03,-799.78 11083.88,-285.32 11106,-263.59 11129.58,-240.43 12272.43,-240.41 12296,-263.59 12319.61,-286.81 12282.42,-836.34 12306,-859.59 12400.93,-953.2 21571.15,-891.35 22221.67,-886.84"/>
<polygon fill="black" stroke="black" points="22221.9,-890.34 22231.87,-886.77 22221.85,-883.34 22221.9,-890.34"/>
<text text-anchor="middle" x="11701" y="-267.39" font-family="Times,serif" font-size="14.00">(r1r1, r1r2r2r2r1r2r1r1r3)</text>
</g>
<!-- M6S100 -->
<g id="node41" class="node">
<title>M6S100</title>
<path fill="#ffffff" stroke="black" d="M22274,-1012.59C22274,-1012.59 22244,-1012.59 22244,-1012.59 22238,-1012.59 22232,-1006.59 22232,-1000.59 22232,-1000.59 22232,-988.59 22232,-988.59 22232,-982.59 22238,-976.59 22244,-976.59 22244,-976.59 22274,-976.59 22274,-976.59 22280,-976.59 22286,-982.59 22286,-988.59 22286,-988.59 22286,-1000.59 22286,-1000.59 22286,-1006.59 22280,-1012.59 22274,-1012.59"/>
<text text-anchor="middle" x="22259" y="-990.89" font-family="Times,serif" font-size="14.00">100</text>
</g>
<!-- M5S121&#45;&gt;M6S100 -->
<g id="edge91" class="edge">
<title>M5S121&#45;&gt;M6S100</title>
<path fill="none" stroke="black" d="M7721.36,-848.89C8034.41,-852.38 11031.98,-884.19 11096,-821.59 11122.23,-795.94 11079.67,-517.13 11106,-491.59 11129.73,-468.57 12272.38,-468.46 12296,-491.59 12314.9,-510.1 12287.13,-949.06 12306,-967.59 12401.13,-1060.99 21571.16,-999.34 22221.67,-994.84"/>
<polygon fill="black" stroke="black" points="22221.9,-998.34 22231.87,-994.77 22221.85,-991.34 22221.9,-998.34"/>
<text text-anchor="middle" x="11701" y="-495.39" font-family="Times,serif" font-size="14.00">(r1, r1r2r2r2r1r2r1r3)</text>
</g>
<!-- M5S122&#45;&gt;M6S84 -->
<g id="edge92" class="edge">
<title>M5S122&#45;&gt;M6S84</title>
<path fill="none" stroke="black" d="M7721.23,-786.81C7952.7,-718.65 9671.63,-221.94 11106,-71.59 11171.75,-64.7 12248.91,-25.19 12296,-71.59 12322.91,-98.11 12279.12,-725.03 12306,-751.59 12400.83,-845.29 21571.14,-783.36 22221.67,-778.84"/>
<polygon fill="black" stroke="black" points="22221.9,-782.34 22231.87,-778.77 22221.85,-775.34 22221.9,-782.34"/>
<text text-anchor="middle" x="11701" y="-75.39" font-family="Times,serif" font-size="14.00">(ε, r1r2r2r2r1r1r2r2)</text>
</g>
<!-- M5S122&#45;&gt;M6S106 -->
<g id="edge93" class="edge">
<title>M5S122&#45;&gt;M6S106</title>
<path fill="none" stroke="black" d="M7721.19,-786.37C7952.33,-714.36 9668.92,-189.56 11106,-30.59 11631.68,27.56 11767.43,-12.2 12296,-30.59 16521.78,-177.61 21737.6,-674.39 22221.6,-721.06"/>
<polygon fill="black" stroke="black" points="22221.56,-724.58 22231.85,-722.05 22222.23,-717.61 22221.56,-724.58"/>
<text text-anchor="middle" x="11701" y="-34.39" font-family="Times,serif" font-size="14.00">(ε, r1r2r2r2r1r1r2r3)</text>
</g>
<!-- M5S122&#45;&gt;M6S81 -->
<g id="edge94" class="edge">
<title>M5S122&#45;&gt;M6S81</title>
<path fill="none" stroke="black" d="M7721.07,-789.78C7952.86,-747.3 9685.08,-435.53 11106,-341.59 11171.97,-337.23 12248.85,-295.25 12296,-341.59 12318.67,-363.87 12283.36,-891.28 12306,-913.59 12400.96,-1007.16 21571.15,-945.35 22221.67,-940.84"/>
<polygon fill="black" stroke="black" points="22221.9,-944.34 22231.87,-940.77 22221.85,-937.34 22221.9,-944.34"/>
<text text-anchor="middle" x="11701" y="-345.39" font-family="Times,serif" font-size="14.00">(r1, r1r2r2r2r1r1r2r1r2)</text>
</g>
<!-- M5S122&#45;&gt;M6S101 -->
<g id="edge95" class="edge">
<title>M5S122&#45;&gt;M6S101</title>
<path fill="none" stroke="black" d="M7721.33,-788.06C7953.66,-730.81 9678.5,-313.61 11106,-187.59 11171.85,-181.78 12248.91,-141.19 12296,-187.59 12322.6,-213.79 12279.44,-833.35 12306,-859.59 12400.84,-953.29 21571.14,-891.36 22221.67,-886.84"/>
<polygon fill="black" stroke="black" points="22221.9,-890.34 22231.87,-886.77 22221.85,-883.34 22221.9,-890.34"/>
<text text-anchor="middle" x="11701" y="-191.39" font-family="Times,serif" font-size="14.00">(r1, r1r2r2r2r1r1r2r1r3)</text>
</g>
<!-- M5S119&#45;&gt;M6S81 -->
<g id="edge96" class="edge">
<title>M5S119&#45;&gt;M6S81</title>
<path fill="none" stroke="black" d="M7721.36,-902.89C8034.43,-906.41 11032.25,-938.47 11096,-875.59 11114.28,-857.56 11087.65,-431.55 11106,-413.59 11129.63,-390.47 12272.39,-390.45 12296,-413.59 12315.84,-433.04 12286.19,-894.11 12306,-913.59 12401.08,-1007.04 21571.16,-945.34 22221.67,-940.84"/>
<polygon fill="black" stroke="black" points="22221.9,-944.34 22231.87,-940.77 22221.85,-937.34 22221.9,-944.34"/>
<text text-anchor="middle" x="11701" y="-417.39" font-family="Times,serif" font-size="14.00">(ε, (r1r2r2r2r1r1r1r2)|((r1r2r2(r2r1)|(r1r2)r1)|(r1r2r2r2r1r1)r1r2)r2)</text>
</g>
<!-- M5S119&#45;&gt;M6S101 -->
<g id="edge97" class="edge">
<title>M5S119&#45;&gt;M6S101</title>
<path fill="none" stroke="black" d="M7721.36,-902.89C8034.45,-906.43 11032.39,-938.6 11096,-875.59 11118.74,-853.07 11083.17,-322.02 11106,-299.59 11129.58,-276.42 12272.42,-276.43 12296,-299.59 12318.2,-321.39 12283.83,-837.75 12306,-859.59 12400.98,-953.14 21571.15,-891.35 22221.67,-886.84"/>
<polygon fill="black" stroke="black" points="22221.9,-890.34 22231.87,-886.77 22221.85,-883.34 22221.9,-890.34"/>
<text text-anchor="middle" x="11701" y="-303.39" font-family="Times,serif" font-size="14.00">(ε, (r1r2r2r2r1r1r1r2)|((r1r2r2(r2r1)|(r1r2)r1)|(r1r2r2r2r1r1)r1r2)r3)</text>
</g>
<!-- M5S118&#45;&gt;M6S80 -->
<g id="edge98" class="edge">
<title>M5S118&#45;&gt;M6S80</title>
<path fill="none" stroke="black" d="M7721.36,-956.89C8034.39,-960.37 11031.84,-992.04 11096,-929.59 11118.79,-907.41 11083.13,-665.68 11106,-643.59 11129.78,-620.63 12272.32,-620.53 12296,-643.59 12311.05,-658.25 12290.97,-1006.91 12306,-1021.59 12401.38,-1114.74 21571.18,-1053.32 22221.67,-1048.84"/>
<polygon fill="black" stroke="black" points="22221.9,-1052.34 22231.88,-1048.77 22221.85,-1045.34 22221.9,-1052.34"/>
<text text-anchor="middle" x="11701" y="-647.39" font-family="Times,serif" font-size="14.00">(ε, (r1r2r2r2r1r1r2)|((r1r2r2(r2r1)|(r1r2)r1)|(r1r2r2r2r1r1)r2)r2)</text>
</g>
<!-- M5S118&#45;&gt;M6S81 -->
<g id="edge100" class="edge">
<title>M5S118&#45;&gt;M6S81</title>
<path fill="none" stroke="black" d="M7721.36,-956.89C8034.42,-960.4 11032.15,-992.37 11096,-929.59 11111.93,-913.93 11090.01,-543.19 11106,-527.59 11129.66,-504.51 12272.33,-504.52 12296,-527.59 12311.36,-542.56 12290.66,-898.6 12306,-913.59 12401.36,-1006.76 21571.18,-945.32 22221.67,-940.84"/>
<polygon fill="black" stroke="black" points="22221.9,-944.34 22231.88,-940.77 22221.85,-937.34 22221.9,-944.34"/>
<text text-anchor="middle" x="11701" y="-531.39" font-family="Times,serif" font-size="14.00">(r1, (r1r2r2r2r1r1r2)|((r1r2r2(r2r1)|(r1r2)r1)|(r1r2r2r2r1r1)r2)r1r2)</text>
</g>
<!-- M5S118&#45;&gt;M6S101 -->
<g id="edge101" class="edge">
<title>M5S118&#45;&gt;M6S101</title>
<path fill="none" stroke="black" d="M7721.36,-956.89C8034.44,-960.41 11032.28,-992.49 11096,-929.59 11114.9,-910.93 11087.02,-470.17 11106,-451.59 11129.62,-428.46 12272.34,-428.5 12296,-451.59 12312.23,-467.42 12289.79,-843.73 12306,-859.59 12401.29,-952.83 21571.17,-891.32 22221.67,-886.84"/>
<polygon fill="black" stroke="black" points="22221.9,-890.34 22231.88,-886.77 22221.85,-883.34 22221.9,-890.34"/>
<text text-anchor="middle" x="11701" y="-455.39" font-family="Times,serif" font-size="14.00">(r1, (r1r2r2r2r1r1r2)|((r1r2r2(r2r1)|(r1r2)r1)|(r1r2r2r2r1r1)r2)r1r3)</text>
</g>
<!-- M5S118&#45;&gt;M6S100 -->
<g id="edge99" class="edge">
<title>M5S118&#45;&gt;M6S100</title>
<path fill="none" stroke="black" d="M7721.36,-956.89C8034.4,-960.38 11031.97,-992.18 11096,-929.59 11121.91,-904.26 11079.99,-628.82 11106,-603.59 11129.73,-580.58 12272.31,-580.54 12296,-603.59 12325,-631.8 12277.04,-939.34 12306,-967.59 12401.43,-1060.69 21571.18,-999.31 22221.67,-994.84"/>
<polygon fill="black" stroke="black" points="22221.9,-998.34 22231.88,-994.77 22221.85,-991.34 22221.9,-998.34"/>
<text text-anchor="middle" x="11701" y="-607.39" font-family="Times,serif" font-size="14.00">(ε, (r1r2r2r2r1r1r2)|((r1r2r2(r2r1)|(r1r2)r1)|(r1r2r2r2r1r1)r2)r3)</text>
</g>
</g>
</svg>
