<?xml version="1.0" encoding="UTF-8" standalone="no"?>
<!DOCTYPE svg PUBLIC "-//W3C//DTD SVG 1.1//EN"
 "http://www.w3.org/Graphics/SVG/1.1/DTD/svg11.dtd">
<!-- Generated by graphviz version 2.43.0 (0)
 -->
<!-- Title: gen/Seed1322877352 Pages: 1 -->
<svg width="1379pt" height="843pt"
 viewBox="0.00 0.00 1379.00 843.16" xmlns="http://www.w3.org/2000/svg" xmlns:xlink="http://www.w3.org/1999/xlink">
<g id="graph0" class="graph" transform="scale(1 1) rotate(0) translate(4 839.16)">
<title>gen/Seed1322877352</title>
<polygon fill="white" stroke="transparent" points="-4,4 -4,-839.16 1375,-839.16 1375,4 -4,4"/>
<g id="clust1" class="cluster">
<title>cluster0</title>
<path fill="#ffeeee" stroke="#ffeeee" d="M20,-126.59C20,-126.59 267,-126.59 267,-126.59 273,-126.59 279,-132.59 279,-138.59 279,-138.59 279,-815.16 279,-815.16 279,-821.16 273,-827.16 267,-827.16 267,-827.16 20,-827.16 20,-827.16 14,-827.16 8,-821.16 8,-815.16 8,-815.16 8,-138.59 8,-138.59 8,-132.59 14,-126.59 20,-126.59"/>
</g>
<g id="clust2" class="cluster">
<title>cluster1</title>
<path fill="#ffeeee" stroke="#ffeeee" d="M1171,-126.59C1171,-126.59 1351,-126.59 1351,-126.59 1357,-126.59 1363,-132.59 1363,-138.59 1363,-138.59 1363,-688.56 1363,-688.56 1363,-694.56 1357,-700.56 1351,-700.56 1351,-700.56 1171,-700.56 1171,-700.56 1165,-700.56 1159,-694.56 1159,-688.56 1159,-688.56 1159,-138.59 1159,-138.59 1159,-132.59 1165,-126.59 1171,-126.59"/>
</g>
<g id="clust3" class="cluster">
<title>cluster2</title>
<path fill="#ffeeee" stroke="#ffeeee" d="M907,-363.78C907,-363.78 1139,-363.78 1139,-363.78 1145,-363.78 1151,-369.78 1151,-375.78 1151,-375.78 1151,-561.97 1151,-561.97 1151,-567.97 1145,-573.97 1139,-573.97 1139,-573.97 907,-573.97 907,-573.97 901,-573.97 895,-567.97 895,-561.97 895,-561.97 895,-375.78 895,-375.78 895,-369.78 901,-363.78 907,-363.78"/>
</g>
<g id="clust4" class="cluster">
<title>cluster3</title>
<path fill="#ffeeee" stroke="#ffeeee" d="M299,-8C299,-8 537,-8 537,-8 543,-8 549,-14 549,-20 549,-20 549,-688.56 549,-688.56 549,-694.56 543,-700.56 537,-700.56 537,-700.56 299,-700.56 299,-700.56 293,-700.56 287,-694.56 287,-688.56 287,-688.56 287,-20 287,-20 287,-14 293,-8 299,-8"/>
</g>
<g id="clust5" class="cluster">
<title>cluster4</title>
<path fill="#ffeeee" stroke="#ffeeee" d="M569,-363.78C569,-363.78 875,-363.78 875,-363.78 881,-363.78 887,-369.78 887,-375.78 887,-375.78 887,-815.16 887,-815.16 887,-821.16 881,-827.16 875,-827.16 875,-827.16 569,-827.16 569,-827.16 563,-827.16 557,-821.16 557,-815.16 557,-815.16 557,-375.78 557,-375.78 557,-369.78 563,-363.78 569,-363.78"/>
</g>
<!-- C0_0 -->
<g id="node1" class="node">
<title>C0_0</title>
<ellipse fill="white" stroke="black" cx="130" cy="-781.36" rx="33.62" ry="33.62"/>
<ellipse fill="none" stroke="black" cx="130" cy="-781.36" rx="37.6" ry="37.6"/>
<text text-anchor="middle" x="130" y="-777.66" font-family="Times,serif" font-size="14.00">C0_0</text>
</g>
<!-- C0_0&#45;&gt;C0_0 -->
<g id="edge63" class="edge">
<title>C0_0&#45;&gt;C0_0</title>
<path fill="none" stroke="black" d="M166.22,-792.97C177.21,-792.68 185.8,-788.81 185.8,-781.36 185.8,-776.47 182.1,-773.13 176.45,-771.32"/>
<polygon fill="black" stroke="black" points="176.64,-767.81 166.22,-769.75 175.58,-774.73 176.64,-767.81"/>
<text text-anchor="middle" x="204.3" y="-777.66" font-family="Times,serif" font-size="14.00">L6{}</text>
</g>
<!-- C0_1 -->
<g id="node2" class="node">
<title>C0_1</title>
<ellipse fill="white" stroke="black" cx="189" cy="-654.77" rx="33.6" ry="33.6"/>
<text text-anchor="middle" x="189" y="-651.07" font-family="Times,serif" font-size="14.00">C0_1</text>
</g>
<!-- C0_0&#45;&gt;C0_1 -->
<g id="edge1" class="edge">
<title>C0_0&#45;&gt;C0_1</title>
<path fill="none" stroke="black" d="M145.81,-746.97C153.34,-731.06 162.41,-711.93 170.28,-695.3"/>
<polygon fill="black" stroke="black" points="173.64,-696.37 174.76,-685.84 167.32,-693.38 173.64,-696.37"/>
<text text-anchor="middle" x="182" y="-714.36" font-family="Times,serif" font-size="14.00">t0O2</text>
</g>
<!-- C0_2 -->
<g id="node4" class="node">
<title>C0_2</title>
<ellipse fill="white" stroke="black" cx="156" cy="-286.99" rx="33.6" ry="33.6"/>
<text text-anchor="middle" x="156" y="-283.29" font-family="Times,serif" font-size="14.00">C0_2</text>
</g>
<!-- C0_0&#45;&gt;C0_2 -->
<g id="edge3" class="edge">
<title>C0_0&#45;&gt;C0_2</title>
<path fill="none" stroke="black" d="M124.39,-743.85C123.54,-737.75 122.7,-731.48 122,-725.56 109.62,-621.59 97.81,-594.59 108,-490.38 110.79,-461.84 117.07,-387.63 133,-363.78 137.45,-357.12 143.8,-360.6 148,-353.78 152.2,-346.96 154.71,-338.98 156.13,-330.99"/>
<polygon fill="black" stroke="black" points="159.62,-331.29 157.4,-320.93 152.68,-330.41 159.62,-331.29"/>
<text text-anchor="middle" x="116" y="-524.47" font-family="Times,serif" font-size="14.00">t0</text>
</g>
<!-- C0_3 -->
<g id="node5" class="node">
<title>C0_3</title>
<ellipse fill="white" stroke="black" cx="109" cy="-168.39" rx="33.6" ry="33.6"/>
<text text-anchor="middle" x="109" y="-164.69" font-family="Times,serif" font-size="14.00">C0_3</text>
</g>
<!-- C0_0&#45;&gt;C0_3 -->
<g id="edge4" class="edge">
<title>C0_0&#45;&gt;C0_3</title>
<path fill="none" stroke="black" d="M101.47,-756.34C86.25,-741.83 68.7,-722.02 59,-700.56 10.83,-593.99 34.12,-556.11 27,-439.38 21.96,-356.78 -4.25,-329.81 27,-253.19 36.53,-229.82 56.07,-209.42 73.69,-194.61"/>
<polygon fill="black" stroke="black" points="76.03,-197.22 81.6,-188.2 71.62,-191.77 76.03,-197.22"/>
<text text-anchor="middle" x="37" y="-461.18" font-family="Times,serif" font-size="14.00">t0</text>
</g>
<!-- C0_5 -->
<g id="node8" class="node">
<title>C0_5</title>
<ellipse fill="white" stroke="black" cx="176" cy="-405.58" rx="33.6" ry="33.6"/>
<text text-anchor="middle" x="176" y="-401.88" font-family="Times,serif" font-size="14.00">C0_5</text>
</g>
<!-- C0_0&#45;&gt;C0_5 -->
<g id="edge7" class="edge">
<title>C0_0&#45;&gt;C0_5</title>
<path fill="none" stroke="black" d="M126.98,-743.65C123.35,-688.07 120.04,-579.6 140,-490.38 143.43,-475.06 149.6,-459.04 155.87,-445.16"/>
<polygon fill="black" stroke="black" points="159.13,-446.47 160.2,-435.93 152.79,-443.49 159.13,-446.47"/>
<text text-anchor="middle" x="145" y="-587.77" font-family="Times,serif" font-size="14.00">t0O5</text>
</g>
<!-- C3_0 -->
<g id="node19" class="node">
<title>C3_0</title>
<ellipse fill="white" stroke="black" cx="440" cy="-654.77" rx="33.62" ry="33.62"/>
<ellipse fill="none" stroke="black" cx="440" cy="-654.77" rx="37.6" ry="37.6"/>
<text text-anchor="middle" x="440" y="-651.07" font-family="Times,serif" font-size="14.00">C3_0</text>
</g>
<!-- C0_0&#45;&gt;C3_0 -->
<g id="edge68" class="edge">
<title>C0_0&#45;&gt;C3_0</title>
<path fill="none" stroke="black" d="M279,-720.48C292.41,-715.09 305.88,-709.67 319.02,-704.39"/>
<polygon fill="black" stroke="black" points="320.57,-707.54 328.55,-700.56 317.96,-701.04 320.57,-707.54"/>
<text text-anchor="middle" x="327" y="-714.36" font-family="Times,serif" font-size="14.00">L11{}</text>
</g>
<!-- C0_7 -->
<g id="node3" class="node">
<title>C0_7</title>
<ellipse fill="white" stroke="black" cx="183" cy="-528.17" rx="33.6" ry="33.6"/>
<text text-anchor="middle" x="183" y="-524.47" font-family="Times,serif" font-size="14.00">C0_7</text>
</g>
<!-- C0_1&#45;&gt;C0_7 -->
<g id="edge2" class="edge">
<title>C0_1&#45;&gt;C0_7</title>
<path fill="none" stroke="black" d="M187.41,-620.71C186.69,-605.8 185.83,-588.01 185.07,-572.1"/>
<polygon fill="black" stroke="black" points="188.56,-571.78 184.58,-561.96 181.56,-572.11 188.56,-571.78"/>
<text text-anchor="middle" x="195" y="-587.77" font-family="Times,serif" font-size="14.00">t0</text>
</g>
<!-- C0_7&#45;&gt;C0_7 -->
<g id="edge10" class="edge">
<title>C0_7&#45;&gt;C0_7</title>
<path fill="none" stroke="black" d="M214.87,-539.8C225.89,-539.92 234.8,-536.04 234.8,-528.17 234.8,-523.01 230.96,-519.56 225.21,-517.84"/>
<polygon fill="black" stroke="black" points="225.22,-514.32 214.87,-516.55 224.36,-521.26 225.22,-514.32"/>
<text text-anchor="middle" x="242.8" y="-524.47" font-family="Times,serif" font-size="14.00">t9</text>
</g>
<!-- C0_6 -->
<g id="node7" class="node">
<title>C0_6</title>
<ellipse fill="white" stroke="black" cx="70" cy="-405.58" rx="33.6" ry="33.6"/>
<text text-anchor="middle" x="70" y="-401.88" font-family="Times,serif" font-size="14.00">C0_6</text>
</g>
<!-- C0_7&#45;&gt;C0_6 -->
<g id="edge6" class="edge">
<title>C0_7&#45;&gt;C0_6</title>
<path fill="none" stroke="black" d="M160.13,-502.77C142.75,-484.22 118.69,-458.54 99.8,-438.38"/>
<polygon fill="black" stroke="black" points="102.22,-435.85 92.83,-430.95 97.12,-440.64 102.22,-435.85"/>
<text text-anchor="middle" x="138" y="-461.18" font-family="Times,serif" font-size="14.00">t0</text>
</g>
<!-- C0_7&#45;&gt;C0_5 -->
<g id="edge11" class="edge">
<title>C0_7&#45;&gt;C0_5</title>
<path fill="none" stroke="black" d="M173.49,-495.56C171.63,-488.03 169.96,-479.97 169,-472.38 168.05,-464.85 168.06,-456.82 168.59,-449.06"/>
<polygon fill="black" stroke="black" points="172.08,-449.36 169.56,-439.07 165.11,-448.69 172.08,-449.36"/>
<text text-anchor="middle" x="191.5" y="-461.18" font-family="Times,serif" font-size="14.00">t10O2</text>
</g>
<!-- C0_3&#45;&gt;C0_1 -->
<g id="edge14" class="edge">
<title>C0_3&#45;&gt;C0_1</title>
<path fill="none" stroke="black" d="M140.25,-181.87C168.59,-195.01 208.78,-218.63 228,-253.19 253.85,-299.67 256.44,-437.31 260,-490.38 262.49,-527.45 273.21,-539.25 260,-573.97 252.36,-594.04 237.11,-612.28 222.68,-626.24"/>
<polygon fill="black" stroke="black" points="220.21,-623.77 215.26,-633.14 224.97,-628.9 220.21,-623.77"/>
<text text-anchor="middle" x="270.5" y="-401.88" font-family="Times,serif" font-size="14.00">t13</text>
</g>
<!-- C0_4 -->
<g id="node6" class="node">
<title>C0_4</title>
<ellipse fill="white" stroke="black" cx="70" cy="-286.99" rx="33.6" ry="33.6"/>
<text text-anchor="middle" x="70" y="-283.29" font-family="Times,serif" font-size="14.00">C0_4</text>
</g>
<!-- C0_3&#45;&gt;C0_4 -->
<g id="edge5" class="edge">
<title>C0_3&#45;&gt;C0_4</title>
<path fill="none" stroke="black" d="M86.22,-193.41C80.1,-201.34 74.27,-210.6 71,-220.19 68.54,-227.41 67.29,-235.33 66.8,-243.11"/>
<polygon fill="black" stroke="black" points="63.29,-243.08 66.53,-253.17 70.29,-243.26 63.29,-243.08"/>
<text text-anchor="middle" x="79" y="-223.99" font-family="Times,serif" font-size="14.00">t0</text>
</g>
<!-- C0_4&#45;&gt;C0_3 -->
<g id="edge12" class="edge">
<title>C0_4&#45;&gt;C0_3</title>
<path fill="none" stroke="black" d="M80.45,-254.74C85,-241.15 90.39,-225.04 95.25,-210.49"/>
<polygon fill="black" stroke="black" points="98.67,-211.32 98.52,-200.72 92.03,-209.1 98.67,-211.32"/>
<text text-anchor="middle" x="104.5" y="-223.99" font-family="Times,serif" font-size="14.00">t11</text>
</g>
<!-- C0_4&#45;&gt;C0_6 -->
<g id="edge16" class="edge">
<title>C0_4&#45;&gt;C0_6</title>
<path fill="none" stroke="black" d="M51.13,-315.06C46.97,-322.43 43.16,-330.64 41,-338.78 38.28,-349.02 40.55,-359.71 44.81,-369.41"/>
<polygon fill="black" stroke="black" points="41.72,-371.06 49.39,-378.37 47.95,-367.88 41.72,-371.06"/>
<text text-anchor="middle" x="53.5" y="-342.58" font-family="Times,serif" font-size="14.00">t15</text>
</g>
<!-- C0_6&#45;&gt;C0_0 -->
<g id="edge17" class="edge">
<title>C0_6&#45;&gt;C0_0</title>
<path fill="none" stroke="black" d="M64.99,-439.05C57.28,-498.7 47.49,-628.48 90,-725.56 92.73,-731.8 96.27,-738.01 100.1,-743.89"/>
<polygon fill="black" stroke="black" points="97.31,-746.01 105.89,-752.24 103.07,-742.02 97.31,-746.01"/>
<text text-anchor="middle" x="73.5" y="-587.77" font-family="Times,serif" font-size="14.00">t16</text>
</g>
<!-- C0_6&#45;&gt;C0_2 -->
<g id="edge13" class="edge">
<title>C0_6&#45;&gt;C0_2</title>
<path fill="none" stroke="black" d="M89.73,-377.83C101.75,-361.54 117.24,-340.54 130.22,-322.94"/>
<polygon fill="black" stroke="black" points="133.24,-324.73 136.36,-314.61 127.61,-320.58 133.24,-324.73"/>
<text text-anchor="middle" x="131.5" y="-342.58" font-family="Times,serif" font-size="14.00">t12</text>
</g>
<!-- C0_6&#45;&gt;C0_4 -->
<g id="edge8" class="edge">
<title>C0_6&#45;&gt;C0_4</title>
<path fill="none" stroke="black" d="M70,-371.48C70,-359.05 70,-344.73 70,-331.49"/>
<polygon fill="black" stroke="black" points="73.5,-331.17 70,-321.17 66.5,-331.17 73.5,-331.17"/>
<text text-anchor="middle" x="78" y="-342.58" font-family="Times,serif" font-size="14.00">t7</text>
</g>
<!-- C0_5&#45;&gt;C0_7 -->
<g id="edge15" class="edge">
<title>C0_5&#45;&gt;C0_7</title>
<path fill="none" stroke="black" d="M198.87,-430.57C204.99,-438.5 210.8,-447.76 214,-457.38 217.92,-469.17 214.82,-481.69 209.3,-492.82"/>
<polygon fill="black" stroke="black" points="206.1,-491.37 204.2,-501.79 212.19,-494.82 206.1,-491.37"/>
<text text-anchor="middle" x="228.5" y="-461.18" font-family="Times,serif" font-size="14.00">t14</text>
</g>
<!-- C0_5&#45;&gt;C0_3 -->
<g id="edge9" class="edge">
<title>C0_5&#45;&gt;C0_3</title>
<path fill="none" stroke="black" d="M189.86,-374.6C202.33,-343.12 216.24,-292.8 199,-253.19 188.12,-228.18 165.68,-207.26 145.94,-192.58"/>
<polygon fill="black" stroke="black" points="147.85,-189.65 137.68,-186.68 143.78,-195.34 147.85,-189.65"/>
<text text-anchor="middle" x="216" y="-283.29" font-family="Times,serif" font-size="14.00">t8</text>
</g>
<!-- C1_0 -->
<g id="node9" class="node">
<title>C1_0</title>
<ellipse fill="white" stroke="black" cx="1205" cy="-654.77" rx="33.62" ry="33.62"/>
<ellipse fill="none" stroke="black" cx="1205" cy="-654.77" rx="37.6" ry="37.6"/>
<text text-anchor="middle" x="1205" y="-651.07" font-family="Times,serif" font-size="14.00">C1_0</text>
</g>
<!-- C1_0&#45;&gt;C1_0 -->
<g id="edge67" class="edge">
<title>C1_0&#45;&gt;C1_0</title>
<path fill="none" stroke="black" d="M1241.22,-666.37C1252.21,-666.08 1260.8,-662.21 1260.8,-654.77 1260.8,-649.88 1257.1,-646.53 1251.45,-644.73"/>
<polygon fill="black" stroke="black" points="1251.64,-641.22 1241.22,-643.16 1250.58,-648.14 1251.64,-641.22"/>
<text text-anchor="middle" x="1283.8" y="-651.07" font-family="Times,serif" font-size="14.00">L10{}</text>
</g>
<!-- C1_3 -->
<g id="node10" class="node">
<title>C1_3</title>
<ellipse fill="white" stroke="black" cx="1248" cy="-286.99" rx="33.6" ry="33.6"/>
<text text-anchor="middle" x="1248" y="-283.29" font-family="Times,serif" font-size="14.00">C1_3</text>
</g>
<!-- C1_0&#45;&gt;C1_3 -->
<g id="edge18" class="edge">
<title>C1_0&#45;&gt;C1_3</title>
<path fill="none" stroke="black" d="M1201.34,-617C1196.85,-561.35 1192.15,-452.78 1213,-363.78 1216.03,-350.86 1221.36,-337.49 1226.97,-325.65"/>
<polygon fill="black" stroke="black" points="1230.19,-327.03 1231.49,-316.51 1223.92,-323.92 1230.19,-327.03"/>
<text text-anchor="middle" x="1217" y="-461.18" font-family="Times,serif" font-size="14.00">t0O9</text>
</g>
<!-- C1_5 -->
<g id="node11" class="node">
<title>C1_5</title>
<ellipse fill="white" stroke="black" cx="1256" cy="-528.17" rx="33.6" ry="33.6"/>
<text text-anchor="middle" x="1256" y="-524.47" font-family="Times,serif" font-size="14.00">C1_5</text>
</g>
<!-- C1_0&#45;&gt;C1_5 -->
<g id="edge19" class="edge">
<title>C1_0&#45;&gt;C1_5</title>
<path fill="none" stroke="black" d="M1219.07,-619.39C1225.42,-603.88 1232.96,-585.46 1239.57,-569.32"/>
<polygon fill="black" stroke="black" points="1242.99,-570.2 1243.54,-559.61 1236.51,-567.54 1242.99,-570.2"/>
<text text-anchor="middle" x="1251" y="-587.77" font-family="Times,serif" font-size="14.00">t0O3</text>
</g>
<!-- C2_0 -->
<g id="node15" class="node">
<title>C2_0</title>
<ellipse fill="white" stroke="black" cx="1023" cy="-528.17" rx="33.62" ry="33.62"/>
<ellipse fill="none" stroke="black" cx="1023" cy="-528.17" rx="37.6" ry="37.6"/>
<text text-anchor="middle" x="1023" y="-524.47" font-family="Times,serif" font-size="14.00">C2_0</text>
</g>
<!-- C1_0&#45;&gt;C2_0 -->
<g id="edge57" class="edge">
<title>C1_0&#45;&gt;C2_0</title>
<path fill="none" stroke="black" d="M1159,-622.28C1140.12,-609.35 1117.79,-594.07 1096.74,-579.66"/>
<polygon fill="black" stroke="black" points="1098.66,-576.73 1088.43,-573.97 1094.71,-582.5 1098.66,-576.73"/>
<text text-anchor="middle" x="1142.5" y="-587.77" font-family="Times,serif" font-size="14.00">L0{}</text>
</g>
<!-- C1_0&#45;&gt;C3_0 -->
<g id="edge58" class="edge">
<title>C1_0&#45;&gt;C3_0</title>
<path fill="none" stroke="black" d="M1159,-662.56C1035.58,-682.93 699.06,-734.85 589.5,-714.56 575.98,-712.06 562.14,-708.31 548.6,-703.89"/>
<polygon fill="black" stroke="black" points="549.4,-700.46 538.81,-700.56 547.15,-707.09 549.4,-700.46"/>
<text text-anchor="middle" x="608" y="-714.36" font-family="Times,serif" font-size="14.00">L1{}</text>
</g>
<!-- C1_4 -->
<g id="node13" class="node">
<title>C1_4</title>
<ellipse fill="white" stroke="black" cx="1201" cy="-168.39" rx="33.6" ry="33.6"/>
<text text-anchor="middle" x="1201" y="-164.69" font-family="Times,serif" font-size="14.00">C1_4</text>
</g>
<!-- C1_3&#45;&gt;C1_4 -->
<g id="edge21" class="edge">
<title>C1_3&#45;&gt;C1_4</title>
<path fill="none" stroke="black" d="M1219.47,-268.81C1208.07,-260.27 1196.19,-248.84 1190,-235.19 1186.46,-227.38 1185.89,-218.58 1186.86,-210.03"/>
<polygon fill="black" stroke="black" points="1190.31,-210.62 1188.63,-200.16 1183.42,-209.39 1190.31,-210.62"/>
<text text-anchor="middle" x="1208" y="-223.99" font-family="Times,serif" font-size="14.00">t0O2</text>
</g>
<!-- C1_2 -->
<g id="node14" class="node">
<title>C1_2</title>
<ellipse fill="white" stroke="black" cx="1287" cy="-168.39" rx="33.6" ry="33.6"/>
<text text-anchor="middle" x="1287" y="-164.69" font-family="Times,serif" font-size="14.00">C1_2</text>
</g>
<!-- C1_3&#45;&gt;C1_2 -->
<g id="edge22" class="edge">
<title>C1_3&#45;&gt;C1_2</title>
<path fill="none" stroke="black" d="M1258.45,-254.74C1263,-241.15 1268.39,-225.04 1273.25,-210.49"/>
<polygon fill="black" stroke="black" points="1276.67,-211.32 1276.52,-200.72 1270.03,-209.1 1276.67,-211.32"/>
<text text-anchor="middle" x="1287" y="-223.99" font-family="Times,serif" font-size="14.00">t0O1</text>
</g>
<!-- C1_1 -->
<g id="node12" class="node">
<title>C1_1</title>
<ellipse fill="white" stroke="black" cx="1256" cy="-405.58" rx="33.6" ry="33.6"/>
<text text-anchor="middle" x="1256" y="-401.88" font-family="Times,serif" font-size="14.00">C1_1</text>
</g>
<!-- C1_5&#45;&gt;C1_1 -->
<g id="edge20" class="edge">
<title>C1_5&#45;&gt;C1_1</title>
<path fill="none" stroke="black" d="M1268.86,-496.8C1272.58,-484.63 1275.13,-470.42 1273,-457.38 1272.44,-453.97 1271.69,-450.48 1270.81,-447.01"/>
<polygon fill="black" stroke="black" points="1274.16,-445.99 1268.05,-437.34 1267.43,-447.92 1274.16,-445.99"/>
<text text-anchor="middle" x="1281" y="-461.18" font-family="Times,serif" font-size="14.00">t0</text>
</g>
<!-- C1_1&#45;&gt;C1_3 -->
<g id="edge24" class="edge">
<title>C1_1&#45;&gt;C1_3</title>
<path fill="none" stroke="black" d="M1253.75,-371.79C1252.88,-359.12 1251.87,-344.46 1250.95,-330.97"/>
<polygon fill="black" stroke="black" points="1254.44,-330.67 1250.26,-320.93 1247.45,-331.15 1254.44,-330.67"/>
<text text-anchor="middle" x="1270" y="-342.58" font-family="Times,serif" font-size="14.00">t6O7</text>
</g>
<!-- C1_1&#45;&gt;C1_5 -->
<g id="edge26" class="edge">
<title>C1_1&#45;&gt;C1_5</title>
<path fill="none" stroke="black" d="M1253.78,-439.36C1253.45,-445.35 1253.17,-451.55 1253,-457.38 1252.75,-466 1252.86,-475.23 1253.17,-484.05"/>
<polygon fill="black" stroke="black" points="1249.68,-484.32 1253.6,-494.16 1256.67,-484.02 1249.68,-484.32"/>
<text text-anchor="middle" x="1261" y="-461.18" font-family="Times,serif" font-size="14.00">t8</text>
</g>
<!-- C1_4&#45;&gt;C1_3 -->
<g id="edge23" class="edge">
<title>C1_4&#45;&gt;C1_3</title>
<path fill="none" stroke="black" d="M1216.22,-198.63C1219.63,-205.61 1223.09,-213.1 1226,-220.19 1229.26,-228.11 1232.41,-236.72 1235.25,-245.01"/>
<polygon fill="black" stroke="black" points="1231.95,-246.17 1238.44,-254.54 1238.59,-243.95 1231.95,-246.17"/>
<text text-anchor="middle" x="1239" y="-223.99" font-family="Times,serif" font-size="14.00">t5</text>
</g>
<!-- C1_2&#45;&gt;C1_2 -->
<g id="edge25" class="edge">
<title>C1_2&#45;&gt;C1_2</title>
<path fill="none" stroke="black" d="M1319.12,-179.27C1330.03,-179.32 1338.8,-175.7 1338.8,-168.39 1338.8,-163.6 1335.02,-160.39 1329.34,-158.76"/>
<polygon fill="black" stroke="black" points="1329.47,-155.25 1319.12,-157.52 1328.62,-162.2 1329.47,-155.25"/>
<text text-anchor="middle" x="1346.8" y="-164.69" font-family="Times,serif" font-size="14.00">t7</text>
</g>
<!-- C2_0&#45;&gt;C1_0 -->
<g id="edge61" class="edge">
<title>C2_0&#45;&gt;C1_0</title>
<path fill="none" stroke="black" d="M1041.92,-573.97C1047.37,-583.13 1054.04,-592.07 1062,-598.97 1089.27,-622.58 1127.79,-636.55 1157.99,-644.48"/>
<polygon fill="black" stroke="black" points="1148.45,-643.98 1159,-644.94 1151.35,-637.61 1148.45,-643.98"/>
<text text-anchor="middle" x="1080.5" y="-587.77" font-family="Times,serif" font-size="14.00">L4{}</text>
</g>
<!-- C2_0&#45;&gt;C2_0 -->
<g id="edge60" class="edge">
<title>C2_0&#45;&gt;C2_0</title>
<path fill="none" stroke="black" d="M1059.22,-539.78C1070.21,-539.49 1078.8,-535.62 1078.8,-528.17 1078.8,-523.29 1075.1,-519.94 1069.45,-518.13"/>
<polygon fill="black" stroke="black" points="1069.64,-514.62 1059.22,-516.57 1068.58,-521.54 1069.64,-514.62"/>
<text text-anchor="middle" x="1097.3" y="-524.47" font-family="Times,serif" font-size="14.00">L3{}</text>
</g>
<!-- C2_2 -->
<g id="node16" class="node">
<title>C2_2</title>
<ellipse fill="white" stroke="black" cx="1023" cy="-405.58" rx="33.6" ry="33.6"/>
<text text-anchor="middle" x="1023" y="-401.88" font-family="Times,serif" font-size="14.00">C2_2</text>
</g>
<!-- C2_0&#45;&gt;C2_2 -->
<g id="edge27" class="edge">
<title>C2_0&#45;&gt;C2_2</title>
<path fill="none" stroke="black" d="M1023,-490.34C1023,-477.55 1023,-463.09 1023,-449.83"/>
<polygon fill="black" stroke="black" points="1026.5,-449.51 1023,-439.51 1019.5,-449.51 1026.5,-449.51"/>
<text text-anchor="middle" x="1041" y="-461.18" font-family="Times,serif" font-size="14.00">t0O2</text>
</g>
<!-- C2_3 -->
<g id="node17" class="node">
<title>C2_3</title>
<ellipse fill="white" stroke="black" cx="937" cy="-405.58" rx="33.6" ry="33.6"/>
<text text-anchor="middle" x="937" y="-401.88" font-family="Times,serif" font-size="14.00">C2_3</text>
</g>
<!-- C2_0&#45;&gt;C2_3 -->
<g id="edge28" class="edge">
<title>C2_0&#45;&gt;C2_3</title>
<path fill="none" stroke="black" d="M988.2,-512.57C971.28,-503.57 952.4,-490.29 942,-472.38 938,-465.48 935.8,-457.47 934.73,-449.46"/>
<polygon fill="black" stroke="black" points="938.21,-449.08 933.91,-439.4 931.23,-449.65 938.21,-449.08"/>
<text text-anchor="middle" x="950" y="-461.18" font-family="Times,serif" font-size="14.00">t0</text>
</g>
<!-- C2_1 -->
<g id="node18" class="node">
<title>C2_1</title>
<ellipse fill="white" stroke="black" cx="1109" cy="-405.58" rx="33.6" ry="33.6"/>
<text text-anchor="middle" x="1109" y="-401.88" font-family="Times,serif" font-size="14.00">C2_1</text>
</g>
<!-- C2_0&#45;&gt;C2_1 -->
<g id="edge29" class="edge">
<title>C2_0&#45;&gt;C2_1</title>
<path fill="none" stroke="black" d="M1045.12,-497.11C1050.96,-489.09 1057.25,-480.43 1063,-472.38 1069.96,-462.64 1077.42,-452.03 1084.27,-442.24"/>
<polygon fill="black" stroke="black" points="1087.25,-444.08 1090.1,-433.88 1081.51,-440.08 1087.25,-444.08"/>
<text text-anchor="middle" x="1091" y="-461.18" font-family="Times,serif" font-size="14.00">t0O9</text>
</g>
<!-- C2_3&#45;&gt;C2_0 -->
<g id="edge30" class="edge">
<title>C2_3&#45;&gt;C2_0</title>
<path fill="none" stroke="black" d="M956.16,-433.44C967.71,-449.64 982.62,-470.55 995.43,-488.51"/>
<polygon fill="black" stroke="black" points="992.86,-490.94 1001.52,-497.05 998.56,-486.88 992.86,-490.94"/>
<text text-anchor="middle" x="990" y="-461.18" font-family="Times,serif" font-size="14.00">t3</text>
</g>
<!-- C3_0&#45;&gt;C2_0 -->
<g id="edge62" class="edge">
<title>C3_0&#45;&gt;C2_0</title>
<path fill="none" stroke="black" d="M549,-578.69C631.69,-572.21 828.1,-579.05 885.03,-574.4"/>
<polygon fill="black" stroke="black" points="885.48,-577.88 895,-573.22 884.66,-570.92 885.48,-577.88"/>
<text text-anchor="middle" x="534.5" y="-587.77" font-family="Times,serif" font-size="14.00">L5{}</text>
</g>
<!-- C3_0&#45;&gt;C3_0 -->
<g id="edge41" class="edge">
<title>C3_0&#45;&gt;C3_0</title>
<path fill="none" stroke="black" d="M476.22,-666.37C487.21,-666.08 495.8,-662.21 495.8,-654.77 495.8,-649.88 492.1,-646.53 486.45,-644.73"/>
<polygon fill="black" stroke="black" points="486.64,-641.22 476.22,-643.16 485.58,-648.14 486.64,-641.22"/>
<text text-anchor="middle" x="518.3" y="-651.07" font-family="Times,serif" font-size="14.00">t10O9</text>
</g>
<!-- C3_6 -->
<g id="node20" class="node">
<title>C3_6</title>
<ellipse fill="white" stroke="black" cx="436" cy="-528.17" rx="33.6" ry="33.6"/>
<text text-anchor="middle" x="436" y="-524.47" font-family="Times,serif" font-size="14.00">C3_6</text>
</g>
<!-- C3_0&#45;&gt;C3_6 -->
<g id="edge31" class="edge">
<title>C3_0&#45;&gt;C3_6</title>
<path fill="none" stroke="black" d="M420.07,-622.37C416.33,-614.96 412.97,-606.91 411,-598.97 408.32,-588.16 410.3,-576.69 414.11,-566.23"/>
<polygon fill="black" stroke="black" points="417.36,-567.54 418.03,-556.96 410.91,-564.81 417.36,-567.54"/>
<text text-anchor="middle" x="419" y="-587.77" font-family="Times,serif" font-size="14.00">t0</text>
</g>
<!-- C3_1 -->
<g id="node21" class="node">
<title>C3_1</title>
<ellipse fill="white" stroke="black" cx="485" cy="-168.39" rx="33.6" ry="33.6"/>
<text text-anchor="middle" x="485" y="-164.69" font-family="Times,serif" font-size="14.00">C3_1</text>
</g>
<!-- C3_0&#45;&gt;C3_1 -->
<g id="edge32" class="edge">
<title>C3_0&#45;&gt;C3_1</title>
<path fill="none" stroke="black" d="M458.59,-621.73C466.05,-607.53 474.05,-590.35 479,-573.97 509.52,-473.05 516.19,-444.03 510,-338.78 506.88,-285.8 504.74,-272.54 496,-220.19 495.53,-217.35 495,-214.43 494.44,-211.5"/>
<polygon fill="black" stroke="black" points="497.85,-210.67 492.45,-201.55 490.98,-212.04 497.85,-210.67"/>
<text text-anchor="middle" x="520" y="-401.88" font-family="Times,serif" font-size="14.00">t0</text>
</g>
<!-- C4_0 -->
<g id="node26" class="node">
<title>C4_0</title>
<ellipse fill="white" stroke="black" cx="626" cy="-781.36" rx="33.62" ry="33.62"/>
<ellipse fill="none" stroke="black" cx="626" cy="-781.36" rx="37.6" ry="37.6"/>
<text text-anchor="middle" x="626" y="-777.66" font-family="Times,serif" font-size="14.00">C4_0</text>
</g>
<!-- C3_0&#45;&gt;C4_0 -->
<g id="edge64" class="edge">
<title>C3_0&#45;&gt;C4_0</title>
<path fill="none" stroke="black" d="M453.43,-700.56C457.84,-709.76 463.59,-718.71 471,-725.56 492.07,-745.04 520.49,-757.67 547.24,-765.83"/>
<polygon fill="black" stroke="black" points="546.43,-769.24 557,-768.64 548.36,-762.51 546.43,-769.24"/>
<text text-anchor="middle" x="489.5" y="-714.36" font-family="Times,serif" font-size="14.00">L7{}</text>
</g>
<!-- C3_6&#45;&gt;C3_0 -->
<g id="edge42" class="edge">
<title>C3_6&#45;&gt;C3_0</title>
<path fill="none" stroke="black" d="M437.06,-562.05C437.49,-575.7 438.01,-591.8 438.49,-606.67"/>
<polygon fill="black" stroke="black" points="434.99,-606.84 438.81,-616.72 441.99,-606.61 434.99,-606.84"/>
<text text-anchor="middle" x="450.5" y="-587.77" font-family="Times,serif" font-size="14.00">t11</text>
</g>
<!-- C3_4 -->
<g id="node23" class="node">
<title>C3_4</title>
<ellipse fill="white" stroke="black" cx="422" cy="-405.58" rx="33.6" ry="33.6"/>
<text text-anchor="middle" x="422" y="-401.88" font-family="Times,serif" font-size="14.00">C3_4</text>
</g>
<!-- C3_6&#45;&gt;C3_4 -->
<g id="edge38" class="edge">
<title>C3_6&#45;&gt;C3_4</title>
<path fill="none" stroke="black" d="M432.21,-494.54C430.59,-480.6 428.68,-464.13 426.95,-449.25"/>
<polygon fill="black" stroke="black" points="430.42,-448.77 425.79,-439.24 423.47,-449.58 430.42,-448.77"/>
<text text-anchor="middle" x="437" y="-461.18" font-family="Times,serif" font-size="14.00">t7</text>
</g>
<!-- C3_1&#45;&gt;C3_6 -->
<g id="edge40" class="edge">
<title>C3_1&#45;&gt;C3_6</title>
<path fill="none" stroke="black" d="M488.84,-201.97C490.48,-217.46 492.19,-236.25 493,-253.19 494.43,-283.2 496.47,-290.94 493,-320.78 486.74,-374.58 479.73,-387.26 465,-439.38 460.64,-454.81 455.26,-471.58 450.33,-486.28"/>
<polygon fill="black" stroke="black" points="446.9,-485.49 447,-496.09 453.53,-487.74 446.9,-485.49"/>
<text text-anchor="middle" x="498" y="-342.58" font-family="Times,serif" font-size="14.00">t9</text>
</g>
<!-- C3_2 -->
<g id="node22" class="node">
<title>C3_2</title>
<ellipse fill="white" stroke="black" cx="460" cy="-49.8" rx="33.6" ry="33.6"/>
<text text-anchor="middle" x="460" y="-46.1" font-family="Times,serif" font-size="14.00">C3_2</text>
</g>
<!-- C3_1&#45;&gt;C3_2 -->
<g id="edge33" class="edge">
<title>C3_1&#45;&gt;C3_2</title>
<path fill="none" stroke="black" d="M457.48,-148.55C447.49,-140.07 437.35,-129.14 432,-116.59 427.67,-106.45 429.72,-95.43 434.23,-85.36"/>
<polygon fill="black" stroke="black" points="437.38,-86.9 438.97,-76.42 431.19,-83.62 437.38,-86.9"/>
<text text-anchor="middle" x="450" y="-105.39" font-family="Times,serif" font-size="14.00">t0O4</text>
</g>
<!-- C3_1&#45;&gt;C3_4 -->
<g id="edge34" class="edge">
<title>C3_1&#45;&gt;C3_4</title>
<path fill="none" stroke="black" d="M481.37,-202.08C477.41,-233.09 469.99,-280.76 458,-320.78 453.49,-335.82 447.08,-351.77 440.91,-365.68"/>
<polygon fill="black" stroke="black" points="437.65,-364.39 436.71,-374.95 444.03,-367.29 437.65,-364.39"/>
<text text-anchor="middle" x="481" y="-283.29" font-family="Times,serif" font-size="14.00">t0</text>
</g>
<!-- C3_5 -->
<g id="node25" class="node">
<title>C3_5</title>
<ellipse fill="white" stroke="black" cx="329" cy="-286.99" rx="33.6" ry="33.6"/>
<text text-anchor="middle" x="329" y="-283.29" font-family="Times,serif" font-size="14.00">C3_5</text>
</g>
<!-- C3_1&#45;&gt;C3_5 -->
<g id="edge37" class="edge">
<title>C3_1&#45;&gt;C3_5</title>
<path fill="none" stroke="black" d="M452.46,-178.28C427.99,-186.21 394.73,-199.76 371,-220.19 362.27,-227.7 354.71,-237.48 348.5,-247.19"/>
<polygon fill="black" stroke="black" points="345.35,-245.65 343.19,-256.02 351.34,-249.26 345.35,-245.65"/>
<text text-anchor="middle" x="389" y="-223.99" font-family="Times,serif" font-size="14.00">t6O2</text>
</g>
<!-- C3_2&#45;&gt;C3_1 -->
<g id="edge43" class="edge">
<title>C3_2&#45;&gt;C3_1</title>
<path fill="none" stroke="black" d="M466.96,-83.27C469.76,-96.32 473.02,-111.53 476,-125.41"/>
<polygon fill="black" stroke="black" points="472.58,-126.18 478.1,-135.22 479.43,-124.71 472.58,-126.18"/>
<text text-anchor="middle" x="495.5" y="-105.39" font-family="Times,serif" font-size="14.00">t12O2</text>
</g>
<!-- C3_3 -->
<g id="node24" class="node">
<title>C3_3</title>
<ellipse fill="white" stroke="black" cx="415" cy="-286.99" rx="33.6" ry="33.6"/>
<text text-anchor="middle" x="415" y="-283.29" font-family="Times,serif" font-size="14.00">C3_3</text>
</g>
<!-- C3_4&#45;&gt;C3_3 -->
<g id="edge35" class="edge">
<title>C3_4&#45;&gt;C3_3</title>
<path fill="none" stroke="black" d="M420.03,-371.79C419.27,-359.12 418.39,-344.46 417.58,-330.97"/>
<polygon fill="black" stroke="black" points="421.07,-330.7 416.98,-320.93 414.08,-331.12 421.07,-330.7"/>
<text text-anchor="middle" x="426" y="-342.58" font-family="Times,serif" font-size="14.00">t0</text>
</g>
<!-- C3_4&#45;&gt;C3_5 -->
<g id="edge36" class="edge">
<title>C3_4&#45;&gt;C3_5</title>
<path fill="none" stroke="black" d="M399.92,-379.83C392.79,-371.64 384.94,-362.42 378,-353.78 370.12,-343.98 361.85,-333.12 354.4,-323.08"/>
<polygon fill="black" stroke="black" points="357.11,-320.86 348.35,-314.9 351.47,-325.02 357.11,-320.86"/>
<text text-anchor="middle" x="396" y="-342.58" font-family="Times,serif" font-size="14.00">t0O1</text>
</g>
<!-- C3_5&#45;&gt;C3_1 -->
<g id="edge39" class="edge">
<title>C3_5&#45;&gt;C3_1</title>
<path fill="none" stroke="black" d="M354.85,-265.11C360.38,-260.97 366.28,-256.8 372,-253.19 386.79,-243.85 392.44,-244.89 407,-235.19 423.02,-224.51 439.5,-211.04 453.15,-199.08"/>
<polygon fill="black" stroke="black" points="455.7,-201.5 460.84,-192.24 451.04,-196.27 455.7,-201.5"/>
<text text-anchor="middle" x="445" y="-223.99" font-family="Times,serif" font-size="14.00">t8O6</text>
</g>
<!-- C4_0&#45;&gt;C0_0 -->
<g id="edge65" class="edge">
<title>C4_0&#45;&gt;C0_0</title>
<path fill="none" stroke="black" d="M557,-781.36C488.03,-781.36 379.51,-781.36 289.13,-781.36"/>
<polygon fill="black" stroke="black" points="289,-777.86 279,-781.36 289,-784.86 289,-777.86"/>
<text text-anchor="middle" x="378" y="-788.16" font-family="Times,serif" font-size="14.00">L8{}</text>
</g>
<!-- C4_0&#45;&gt;C1_0 -->
<g id="edge59" class="edge">
<title>C4_0&#45;&gt;C1_0</title>
<path fill="none" stroke="black" d="M887,-724.2C990.28,-701.97 1098.44,-678.7 1158.23,-665.83"/>
<polygon fill="black" stroke="black" points="1156.32,-674.94 1159,-664.68 1150.51,-671.03 1156.32,-674.94"/>
<text text-anchor="middle" x="968.5" y="-714.36" font-family="Times,serif" font-size="14.00">L2{}</text>
</g>
<!-- C4_0&#45;&gt;C3_0 -->
<g id="edge66" class="edge">
<title>C4_0&#45;&gt;C3_0</title>
<path fill="none" stroke="black" d="M557,-736.15C551.58,-732.59 546.19,-729.03 541,-725.56 531.74,-719.38 522.05,-712.82 512.5,-706.28"/>
<polygon fill="black" stroke="black" points="514.38,-703.33 504.16,-700.56 510.42,-709.1 514.38,-703.33"/>
<text text-anchor="middle" x="559.5" y="-714.36" font-family="Times,serif" font-size="14.00">L9{}</text>
</g>
<!-- C4_4 -->
<g id="node27" class="node">
<title>C4_4</title>
<ellipse fill="white" stroke="black" cx="619" cy="-405.58" rx="33.6" ry="33.6"/>
<text text-anchor="middle" x="619" y="-401.88" font-family="Times,serif" font-size="14.00">C4_4</text>
</g>
<!-- C4_0&#45;&gt;C4_4 -->
<g id="edge44" class="edge">
<title>C4_0&#45;&gt;C4_4</title>
<path fill="none" stroke="black" d="M602.01,-751.8C596.48,-743.77 591.27,-734.72 588,-725.56 552.83,-626.98 551.42,-592.11 576,-490.38 579.94,-474.08 587.62,-457.39 595.41,-443.24"/>
<polygon fill="black" stroke="black" points="598.58,-444.76 600.52,-434.34 592.51,-441.28 598.58,-444.76"/>
<text text-anchor="middle" x="567" y="-587.77" font-family="Times,serif" font-size="14.00">t0</text>
</g>
<!-- C4_2 -->
<g id="node28" class="node">
<title>C4_2</title>
<ellipse fill="white" stroke="black" cx="636" cy="-654.77" rx="33.6" ry="33.6"/>
<text text-anchor="middle" x="636" y="-651.07" font-family="Times,serif" font-size="14.00">C4_2</text>
</g>
<!-- C4_0&#45;&gt;C4_2 -->
<g id="edge45" class="edge">
<title>C4_0&#45;&gt;C4_2</title>
<path fill="none" stroke="black" d="M628.95,-743.65C630.07,-729.67 631.36,-713.62 632.52,-699.08"/>
<polygon fill="black" stroke="black" points="636.04,-699.07 633.35,-688.82 629.06,-698.51 636.04,-699.07"/>
<text text-anchor="middle" x="649" y="-714.36" font-family="Times,serif" font-size="14.00">t0O7</text>
</g>
<!-- C4_1 -->
<g id="node29" class="node">
<title>C4_1</title>
<ellipse fill="white" stroke="black" cx="783" cy="-654.77" rx="33.6" ry="33.6"/>
<text text-anchor="middle" x="783" y="-651.07" font-family="Times,serif" font-size="14.00">C4_1</text>
</g>
<!-- C4_0&#45;&gt;C4_1 -->
<g id="edge46" class="edge">
<title>C4_0&#45;&gt;C4_1</title>
<path fill="none" stroke="black" d="M658.51,-761.49C674.79,-751.53 694.5,-738.67 711,-725.56 725.7,-713.89 740.79,-699.66 753.34,-687.11"/>
<polygon fill="black" stroke="black" points="755.87,-689.52 760.41,-679.94 750.89,-684.6 755.87,-689.52"/>
<text text-anchor="middle" x="745" y="-714.36" font-family="Times,serif" font-size="14.00">t0O6</text>
</g>
<!-- C4_6 -->
<g id="node31" class="node">
<title>C4_6</title>
<ellipse fill="white" stroke="black" cx="619" cy="-528.17" rx="33.6" ry="33.6"/>
<text text-anchor="middle" x="619" y="-524.47" font-family="Times,serif" font-size="14.00">C4_6</text>
</g>
<!-- C4_2&#45;&gt;C4_6 -->
<g id="edge55" class="edge">
<title>C4_2&#45;&gt;C4_6</title>
<path fill="none" stroke="black" d="M631.53,-621.03C629.48,-606.01 627.03,-588 624.83,-571.92"/>
<polygon fill="black" stroke="black" points="628.26,-571.12 623.44,-561.69 621.32,-572.07 628.26,-571.12"/>
<text text-anchor="middle" x="640.5" y="-587.77" font-family="Times,serif" font-size="14.00">t11</text>
</g>
<!-- C4_1&#45;&gt;C4_1 -->
<g id="edge52" class="edge">
<title>C4_1&#45;&gt;C4_1</title>
<path fill="none" stroke="black" d="M814.87,-666.39C825.89,-666.51 834.8,-662.64 834.8,-654.77 834.8,-649.6 830.96,-646.16 825.21,-644.43"/>
<polygon fill="black" stroke="black" points="825.22,-640.91 814.87,-643.14 824.36,-647.86 825.22,-640.91"/>
<text text-anchor="middle" x="852.8" y="-651.07" font-family="Times,serif" font-size="14.00">t8O3</text>
</g>
<!-- C4_5 -->
<g id="node30" class="node">
<title>C4_5</title>
<ellipse fill="white" stroke="black" cx="759" cy="-528.17" rx="33.6" ry="33.6"/>
<text text-anchor="middle" x="759" y="-524.47" font-family="Times,serif" font-size="14.00">C4_5</text>
</g>
<!-- C4_1&#45;&gt;C4_5 -->
<g id="edge47" class="edge">
<title>C4_1&#45;&gt;C4_5</title>
<path fill="none" stroke="black" d="M761.49,-628.66C755.23,-619.85 749.22,-609.51 746,-598.97 743.14,-589.61 743.3,-579.34 744.89,-569.63"/>
<polygon fill="black" stroke="black" points="748.33,-570.28 746.99,-559.77 741.48,-568.82 748.33,-570.28"/>
<text text-anchor="middle" x="754" y="-587.77" font-family="Times,serif" font-size="14.00">t0</text>
</g>
<!-- C4_1&#45;&gt;C4_6 -->
<g id="edge48" class="edge">
<title>C4_1&#45;&gt;C4_6</title>
<path fill="none" stroke="black" d="M756.61,-633.49C749.6,-628.11 742.02,-622.31 735,-616.97 707.8,-596.25 676.93,-572.89 653.88,-555.48"/>
<polygon fill="black" stroke="black" points="655.85,-552.58 645.76,-549.35 651.63,-558.17 655.85,-552.58"/>
<text text-anchor="middle" x="717" y="-587.77" font-family="Times,serif" font-size="14.00">t0</text>
</g>
<!-- C4_3 -->
<g id="node32" class="node">
<title>C4_3</title>
<ellipse fill="white" stroke="black" cx="845" cy="-528.17" rx="33.6" ry="33.6"/>
<text text-anchor="middle" x="845" y="-524.47" font-family="Times,serif" font-size="14.00">C4_3</text>
</g>
<!-- C4_1&#45;&gt;C4_3 -->
<g id="edge49" class="edge">
<title>C4_1&#45;&gt;C4_3</title>
<path fill="none" stroke="black" d="M798.75,-624.6C803.12,-616.35 807.81,-607.34 812,-598.97 816.91,-589.16 822.06,-578.49 826.78,-568.51"/>
<polygon fill="black" stroke="black" points="830.07,-569.74 831.16,-559.21 823.74,-566.76 830.07,-569.74"/>
<text text-anchor="middle" x="826" y="-587.77" font-family="Times,serif" font-size="14.00">t0</text>
</g>
<!-- C4_5&#45;&gt;C4_0 -->
<g id="edge54" class="edge">
<title>C4_5&#45;&gt;C4_0</title>
<path fill="none" stroke="black" d="M743.54,-558.56C734.82,-575.48 723.92,-597.24 715,-616.97 693.54,-664.42 697.61,-680.8 671,-725.56 667.15,-732.04 662.57,-738.55 657.83,-744.71"/>
<polygon fill="black" stroke="black" points="654.83,-742.86 651.32,-752.85 660.3,-747.23 654.83,-742.86"/>
<text text-anchor="middle" x="727.5" y="-651.07" font-family="Times,serif" font-size="14.00">t10</text>
</g>
<!-- C4_5&#45;&gt;C4_1 -->
<g id="edge51" class="edge">
<title>C4_5&#45;&gt;C4_1</title>
<path fill="none" stroke="black" d="M765.21,-561.42C768.15,-576.68 771.7,-595.11 774.85,-611.48"/>
<polygon fill="black" stroke="black" points="771.43,-612.2 776.76,-621.36 778.3,-610.88 771.43,-612.2"/>
<text text-anchor="middle" x="790" y="-587.77" font-family="Times,serif" font-size="14.00">t7O7</text>
</g>
<!-- C4_6&#45;&gt;C4_4 -->
<g id="edge53" class="edge">
<title>C4_6&#45;&gt;C4_4</title>
<path fill="none" stroke="black" d="M619,-494.22C619,-480.53 619,-464.45 619,-449.83"/>
<polygon fill="black" stroke="black" points="622.5,-449.49 619,-439.49 615.5,-449.49 622.5,-449.49"/>
<text text-anchor="middle" x="637" y="-461.18" font-family="Times,serif" font-size="14.00">t9O6</text>
</g>
<!-- C4_6&#45;&gt;C4_6 -->
<g id="edge50" class="edge">
<title>C4_6&#45;&gt;C4_6</title>
<path fill="none" stroke="black" d="M650.87,-539.8C661.89,-539.92 670.8,-536.04 670.8,-528.17 670.8,-523.01 666.96,-519.56 661.21,-517.84"/>
<polygon fill="black" stroke="black" points="661.22,-514.32 650.87,-516.55 660.36,-521.26 661.22,-514.32"/>
<text text-anchor="middle" x="688.8" y="-524.47" font-family="Times,serif" font-size="14.00">t6O4</text>
</g>
<!-- C4_3&#45;&gt;C4_4 -->
<g id="edge56" class="edge">
<title>C4_3&#45;&gt;C4_4</title>
<path fill="none" stroke="black" d="M820.45,-504.14C814.64,-499.27 808.29,-494.4 802,-490.38 756.32,-461.19 698.8,-436.6 660.57,-421.76"/>
<polygon fill="black" stroke="black" points="661.39,-418.33 650.8,-418.02 658.88,-424.86 661.39,-418.33"/>
<text text-anchor="middle" x="780.5" y="-461.18" font-family="Times,serif" font-size="14.00">t12</text>
</g>
</g>
</svg>
