<?xml version="1.0" encoding="UTF-8" standalone="no"?>
<!DOCTYPE svg PUBLIC "-//W3C//DTD SVG 1.1//EN"
 "http://www.w3.org/Graphics/SVG/1.1/DTD/svg11.dtd">
<!-- Generated by graphviz version 2.43.0 (0)
 -->
<!-- Title: gen/Seed744556043 Pages: 1 -->
<svg width="1046pt" height="843pt"
 viewBox="0.00 0.00 1046.00 843.16" xmlns="http://www.w3.org/2000/svg" xmlns:xlink="http://www.w3.org/1999/xlink">
<g id="graph0" class="graph" transform="scale(1 1) rotate(0) translate(4 839.16)">
<title>gen/Seed744556043</title>
<polygon fill="white" stroke="transparent" points="-4,4 -4,-839.16 1042,-839.16 1042,4 -4,4"/>
<g id="clust1" class="cluster">
<title>cluster0</title>
<path fill="#ffeeee" stroke="#ffeeee" d="M20,-363.78C20,-363.78 282,-363.78 282,-363.78 288,-363.78 294,-369.78 294,-375.78 294,-375.78 294,-815.16 294,-815.16 294,-821.16 288,-827.16 282,-827.16 282,-827.16 20,-827.16 20,-827.16 14,-827.16 8,-821.16 8,-815.16 8,-815.16 8,-375.78 8,-375.78 8,-369.78 14,-363.78 20,-363.78"/>
</g>
<g id="clust2" class="cluster">
<title>cluster1</title>
<path fill="#ffeeee" stroke="#ffeeee" d="M872,-486.38C872,-486.38 1018,-486.38 1018,-486.38 1024,-486.38 1030,-492.38 1030,-498.38 1030,-498.38 1030,-815.16 1030,-815.16 1030,-821.16 1024,-827.16 1018,-827.16 1018,-827.16 872,-827.16 872,-827.16 866,-827.16 860,-821.16 860,-815.16 860,-815.16 860,-498.38 860,-498.38 860,-492.38 866,-486.38 872,-486.38"/>
</g>
<g id="clust3" class="cluster">
<title>cluster2</title>
<path fill="#ffeeee" stroke="#ffeeee" d="M497,-8C497,-8 840,-8 840,-8 846,-8 852,-14 852,-20 852,-20 852,-688.56 852,-688.56 852,-694.56 846,-700.56 840,-700.56 840,-700.56 497,-700.56 497,-700.56 491,-700.56 485,-694.56 485,-688.56 485,-688.56 485,-20 485,-20 485,-14 491,-8 497,-8"/>
</g>
<g id="clust4" class="cluster">
<title>cluster3</title>
<path fill="#ffeeee" stroke="#ffeeee" d="M314,-8C314,-8 465,-8 465,-8 471,-8 477,-14 477,-20 477,-20 477,-561.97 477,-561.97 477,-567.97 471,-573.97 465,-573.97 465,-573.97 314,-573.97 314,-573.97 308,-573.97 302,-567.97 302,-561.97 302,-561.97 302,-20 302,-20 302,-14 308,-8 314,-8"/>
</g>
<!-- C0_0 -->
<g id="node1" class="node">
<title>C0_0</title>
<ellipse fill="white" stroke="black" cx="193" cy="-781.36" rx="33.62" ry="33.62"/>
<ellipse fill="none" stroke="black" cx="193" cy="-781.36" rx="37.6" ry="37.6"/>
<text text-anchor="middle" x="193" y="-777.66" font-family="Times,serif" font-size="14.00">C0_0</text>
</g>
<!-- C0_0&#45;&gt;C0_0 -->
<g id="edge40" class="edge">
<title>C0_0&#45;&gt;C0_0</title>
<path fill="none" stroke="black" d="M229.22,-792.97C240.21,-792.68 248.8,-788.81 248.8,-781.36 248.8,-776.47 245.1,-773.13 239.45,-771.32"/>
<polygon fill="black" stroke="black" points="239.64,-767.81 229.22,-769.75 238.58,-774.73 239.64,-767.81"/>
<text text-anchor="middle" x="267.3" y="-777.66" font-family="Times,serif" font-size="14.00">L3{}</text>
</g>
<!-- C0_2 -->
<g id="node2" class="node">
<title>C0_2</title>
<ellipse fill="white" stroke="black" cx="50" cy="-654.77" rx="33.6" ry="33.6"/>
<text text-anchor="middle" x="50" y="-651.07" font-family="Times,serif" font-size="14.00">C0_2</text>
</g>
<!-- C0_0&#45;&gt;C0_2 -->
<g id="edge1" class="edge">
<title>C0_0&#45;&gt;C0_2</title>
<path fill="none" stroke="black" d="M156.62,-770.13C132.22,-761.65 100.86,-747.4 80,-725.56 72.4,-717.61 66.58,-707.44 62.17,-697.34"/>
<polygon fill="black" stroke="black" points="65.3,-695.75 58.36,-687.74 58.79,-698.33 65.3,-695.75"/>
<text text-anchor="middle" x="97.5" y="-714.36" font-family="Times,serif" font-size="14.00">t0R1</text>
</g>
<!-- C0_4 -->
<g id="node4" class="node">
<title>C0_4</title>
<ellipse fill="white" stroke="black" cx="185" cy="-405.58" rx="33.6" ry="33.6"/>
<text text-anchor="middle" x="185" y="-401.88" font-family="Times,serif" font-size="14.00">C0_4</text>
</g>
<!-- C0_0&#45;&gt;C0_4 -->
<g id="edge6" class="edge">
<title>C0_0&#45;&gt;C0_4</title>
<path fill="none" stroke="black" d="M221.18,-755.67C235.47,-741.23 251.39,-721.71 259,-700.56 268.96,-672.89 256.26,-497.17 252,-486.38 244.49,-467.35 230.54,-449.57 217.31,-435.64"/>
<polygon fill="black" stroke="black" points="219.6,-432.97 210.08,-428.31 214.62,-437.89 219.6,-432.97"/>
<text text-anchor="middle" x="279.5" y="-587.77" font-family="Times,serif" font-size="14.00">t5R2</text>
</g>
<!-- C0_5 -->
<g id="node5" class="node">
<title>C0_5</title>
<ellipse fill="white" stroke="black" cx="136" cy="-528.17" rx="33.6" ry="33.6"/>
<text text-anchor="middle" x="136" y="-524.47" font-family="Times,serif" font-size="14.00">C0_5</text>
</g>
<!-- C0_0&#45;&gt;C0_5 -->
<g id="edge4" class="edge">
<title>C0_0&#45;&gt;C0_5</title>
<path fill="none" stroke="black" d="M166.83,-754.07C154.29,-739.59 140.58,-720.53 134,-700.56 122.37,-665.28 117.06,-650.04 134,-616.97 140.24,-604.78 152.76,-611.16 159,-598.97 162.04,-593.04 160.32,-590.51 159,-583.97 157.96,-578.79 156.41,-573.5 154.61,-568.33"/>
<polygon fill="black" stroke="black" points="157.74,-566.71 150.88,-558.64 151.2,-569.23 157.74,-566.71"/>
<text text-anchor="middle" x="161.5" y="-651.07" font-family="Times,serif" font-size="14.00">t0O3R2</text>
</g>
<!-- C2_0 -->
<g id="node11" class="node">
<title>C2_0</title>
<ellipse fill="white" stroke="black" cx="607" cy="-654.77" rx="33.62" ry="33.62"/>
<ellipse fill="none" stroke="black" cx="607" cy="-654.77" rx="37.6" ry="37.6"/>
<text text-anchor="middle" x="607" y="-651.07" font-family="Times,serif" font-size="14.00">C2_0</text>
</g>
<!-- C0_0&#45;&gt;C2_0 -->
<g id="edge43" class="edge">
<title>C0_0&#45;&gt;C2_0</title>
<path fill="none" stroke="black" d="M294,-749.97C348.61,-733.53 416.71,-713.04 475.43,-695.36"/>
<polygon fill="black" stroke="black" points="476.44,-698.72 485,-692.48 474.42,-692.01 476.44,-698.72"/>
<text text-anchor="middle" x="442.5" y="-714.36" font-family="Times,serif" font-size="14.00">L6{}</text>
</g>
<!-- C3_0 -->
<g id="node19" class="node">
<title>C3_0</title>
<ellipse fill="white" stroke="black" cx="376" cy="-528.17" rx="33.62" ry="33.62"/>
<ellipse fill="none" stroke="black" cx="376" cy="-528.17" rx="37.6" ry="37.6"/>
<text text-anchor="middle" x="376" y="-524.47" font-family="Times,serif" font-size="14.00">C3_0</text>
</g>
<!-- C0_0&#45;&gt;C3_0 -->
<g id="edge39" class="edge">
<title>C0_0&#45;&gt;C3_0</title>
<path fill="none" stroke="black" d="M294,-721.01C330.84,-677.74 353.14,-616.47 365,-574.91"/>
<polygon fill="black" stroke="black" points="362.71,-584.15 365.66,-573.97 357.01,-580.08 362.71,-584.15"/>
<text text-anchor="middle" x="369.5" y="-651.07" font-family="Times,serif" font-size="14.00">L2{}</text>
</g>
<!-- C0_3 -->
<g id="node3" class="node">
<title>C0_3</title>
<ellipse fill="white" stroke="black" cx="50" cy="-528.17" rx="33.6" ry="33.6"/>
<text text-anchor="middle" x="50" y="-524.47" font-family="Times,serif" font-size="14.00">C0_3</text>
</g>
<!-- C0_2&#45;&gt;C0_3 -->
<g id="edge2" class="edge">
<title>C0_2&#45;&gt;C0_3</title>
<path fill="none" stroke="black" d="M38.6,-622.68C35.44,-610.66 33.28,-596.75 35,-583.97 35.6,-579.51 36.46,-574.89 37.48,-570.32"/>
<polygon fill="black" stroke="black" points="40.91,-571.01 39.89,-560.46 34.11,-569.34 40.91,-571.01"/>
<text text-anchor="middle" x="62.5" y="-587.77" font-family="Times,serif" font-size="14.00">t0O1R3</text>
</g>
<!-- C0_2&#45;&gt;C0_5 -->
<g id="edge8" class="edge">
<title>C0_2&#45;&gt;C0_5</title>
<path fill="none" stroke="black" d="M69.79,-627.19C76.32,-618.29 83.55,-608.26 90,-598.97 97.51,-588.15 105.47,-576.23 112.63,-565.35"/>
<polygon fill="black" stroke="black" points="115.62,-567.17 118.17,-556.89 109.76,-563.34 115.62,-567.17"/>
<text text-anchor="middle" x="127.5" y="-587.77" font-family="Times,serif" font-size="14.00">t7O1R2</text>
</g>
<!-- C0_3&#45;&gt;C0_4 -->
<g id="edge3" class="edge">
<title>C0_3&#45;&gt;C0_4</title>
<path fill="none" stroke="black" d="M73.93,-504.11C80.09,-498.27 86.75,-492.05 93,-486.38 112.15,-469.01 133.99,-450.02 151.59,-434.93"/>
<polygon fill="black" stroke="black" points="154.03,-437.45 159.35,-428.29 149.48,-432.13 154.03,-437.45"/>
<text text-anchor="middle" x="143.5" y="-461.18" font-family="Times,serif" font-size="14.00">t0R3</text>
</g>
<!-- C0_1 -->
<g id="node6" class="node">
<title>C0_1</title>
<ellipse fill="white" stroke="black" cx="50" cy="-405.58" rx="33.6" ry="33.6"/>
<text text-anchor="middle" x="50" y="-401.88" font-family="Times,serif" font-size="14.00">C0_1</text>
</g>
<!-- C0_3&#45;&gt;C0_1 -->
<g id="edge5" class="edge">
<title>C0_3&#45;&gt;C0_1</title>
<path fill="none" stroke="black" d="M50,-494.22C50,-480.53 50,-464.45 50,-449.83"/>
<polygon fill="black" stroke="black" points="53.5,-449.49 50,-439.49 46.5,-449.49 53.5,-449.49"/>
<text text-anchor="middle" x="67.5" y="-461.18" font-family="Times,serif" font-size="14.00">t0R3</text>
</g>
<!-- C0_5&#45;&gt;C0_0 -->
<g id="edge7" class="edge">
<title>C0_5&#45;&gt;C0_0</title>
<path fill="none" stroke="black" d="M156.63,-555.13C168.53,-571.77 182.42,-594.41 189,-616.97 200.08,-654.95 200.27,-700.02 198.16,-733.19"/>
<polygon fill="black" stroke="black" points="194.64,-733.29 197.4,-743.52 201.62,-733.8 194.64,-733.29"/>
<text text-anchor="middle" x="227.5" y="-651.07" font-family="Times,serif" font-size="14.00">t6O1R2</text>
</g>
<!-- C0_5&#45;&gt;C0_5 -->
<g id="edge9" class="edge">
<title>C0_5&#45;&gt;C0_5</title>
<path fill="none" stroke="black" d="M167.87,-539.8C178.89,-539.92 187.8,-536.04 187.8,-528.17 187.8,-523.01 183.96,-519.56 178.21,-517.84"/>
<polygon fill="black" stroke="black" points="178.22,-514.32 167.87,-516.55 177.36,-521.26 178.22,-514.32"/>
<text text-anchor="middle" x="215.3" y="-524.47" font-family="Times,serif" font-size="14.00">t8O2R3</text>
</g>
<!-- C1_0 -->
<g id="node7" class="node">
<title>C1_0</title>
<ellipse fill="white" stroke="black" cx="906" cy="-781.36" rx="33.62" ry="33.62"/>
<ellipse fill="none" stroke="black" cx="906" cy="-781.36" rx="37.6" ry="37.6"/>
<text text-anchor="middle" x="906" y="-777.66" font-family="Times,serif" font-size="14.00">C1_0</text>
</g>
<!-- C1_3 -->
<g id="node8" class="node">
<title>C1_3</title>
<ellipse fill="white" stroke="black" cx="902" cy="-654.77" rx="33.6" ry="33.6"/>
<text text-anchor="middle" x="902" y="-651.07" font-family="Times,serif" font-size="14.00">C1_3</text>
</g>
<!-- C1_0&#45;&gt;C1_3 -->
<g id="edge10" class="edge">
<title>C1_0&#45;&gt;C1_3</title>
<path fill="none" stroke="black" d="M904.81,-743.32C904.36,-729.35 903.85,-713.34 903.38,-698.86"/>
<polygon fill="black" stroke="black" points="906.87,-698.53 903.06,-688.65 899.88,-698.75 906.87,-698.53"/>
<text text-anchor="middle" x="931.5" y="-714.36" font-family="Times,serif" font-size="14.00">t0O2R2</text>
</g>
<!-- C1_1 -->
<g id="node9" class="node">
<title>C1_1</title>
<ellipse fill="white" stroke="black" cx="988" cy="-654.77" rx="33.6" ry="33.6"/>
<text text-anchor="middle" x="988" y="-651.07" font-family="Times,serif" font-size="14.00">C1_1</text>
</g>
<!-- C1_0&#45;&gt;C1_1 -->
<g id="edge11" class="edge">
<title>C1_0&#45;&gt;C1_1</title>
<path fill="none" stroke="black" d="M935.1,-757.22C945,-748.19 955.47,-737.2 963,-725.56 968.56,-716.97 973.08,-706.99 976.67,-697.3"/>
<polygon fill="black" stroke="black" points="980,-698.37 979.95,-687.78 973.38,-696.09 980,-698.37"/>
<text text-anchor="middle" x="987.5" y="-714.36" font-family="Times,serif" font-size="14.00">t0R2</text>
</g>
<!-- C1_0&#45;&gt;C2_0 -->
<g id="edge37" class="edge">
<title>C1_0&#45;&gt;C2_0</title>
<path fill="none" stroke="black" d="M860,-761.19C823.75,-746.09 771.54,-724.33 723.95,-704.5"/>
<polygon fill="black" stroke="black" points="725.08,-701.18 714.5,-700.56 722.39,-707.64 725.08,-701.18"/>
<text text-anchor="middle" x="792.5" y="-714.36" font-family="Times,serif" font-size="14.00">L0{}</text>
</g>
<!-- C1_2 -->
<g id="node10" class="node">
<title>C1_2</title>
<ellipse fill="white" stroke="black" cx="933" cy="-528.17" rx="33.6" ry="33.6"/>
<text text-anchor="middle" x="933" y="-524.47" font-family="Times,serif" font-size="14.00">C1_2</text>
</g>
<!-- C1_3&#45;&gt;C1_2 -->
<g id="edge13" class="edge">
<title>C1_3&#45;&gt;C1_2</title>
<path fill="none" stroke="black" d="M902.53,-620.7C903.32,-608.96 904.91,-595.73 908,-583.97 909.41,-578.6 911.31,-573.09 913.44,-567.75"/>
<polygon fill="black" stroke="black" points="916.75,-568.92 917.46,-558.35 910.31,-566.17 916.75,-568.92"/>
<text text-anchor="middle" x="925.5" y="-587.77" font-family="Times,serif" font-size="14.00">t3R2</text>
</g>
<!-- C1_1&#45;&gt;C1_2 -->
<g id="edge12" class="edge">
<title>C1_1&#45;&gt;C1_2</title>
<path fill="none" stroke="black" d="M974.69,-623.61C967.44,-607.2 958.39,-586.7 950.58,-568.99"/>
<polygon fill="black" stroke="black" points="953.62,-567.22 946.38,-559.49 947.22,-570.05 953.62,-567.22"/>
<text text-anchor="middle" x="990.5" y="-587.77" font-family="Times,serif" font-size="14.00">t0O1R2</text>
</g>
<!-- C2_0&#45;&gt;C2_0 -->
<g id="edge21" class="edge">
<title>C2_0&#45;&gt;C2_0</title>
<path fill="none" stroke="black" d="M644.55,-660.54C654.89,-660.26 662.8,-658.34 662.8,-654.77 662.8,-652.53 659.71,-650.94 654.87,-650"/>
<polygon fill="black" stroke="black" points="654.84,-646.48 644.55,-648.99 654.16,-653.45 654.84,-646.48"/>
<text text-anchor="middle" x="690.3" y="-651.07" font-family="Times,serif" font-size="14.00">t7O3R1</text>
</g>
<!-- C2_0&#45;&gt;C2_0 -->
<g id="edge41" class="edge">
<title>C2_0&#45;&gt;C2_0</title>
<path fill="none" stroke="black" d="M643.6,-664.76C677.05,-668.75 717.8,-665.42 717.8,-654.77 717.8,-645.15 684.62,-641.5 653.56,-643.82"/>
<polygon fill="black" stroke="black" points="653.22,-640.33 643.6,-644.78 653.89,-647.3 653.22,-640.33"/>
<text text-anchor="middle" x="736.3" y="-651.07" font-family="Times,serif" font-size="14.00">L4{}</text>
</g>
<!-- C2_5 -->
<g id="node12" class="node">
<title>C2_5</title>
<ellipse fill="white" stroke="black" cx="607" cy="-528.17" rx="33.6" ry="33.6"/>
<text text-anchor="middle" x="607" y="-524.47" font-family="Times,serif" font-size="14.00">C2_5</text>
</g>
<!-- C2_0&#45;&gt;C2_5 -->
<g id="edge14" class="edge">
<title>C2_0&#45;&gt;C2_5</title>
<path fill="none" stroke="black" d="M607,-616.72C607,-602.75 607,-586.75 607,-572.27"/>
<polygon fill="black" stroke="black" points="610.5,-572.05 607,-562.05 603.5,-572.05 610.5,-572.05"/>
<text text-anchor="middle" x="634.5" y="-587.77" font-family="Times,serif" font-size="14.00">t0O2R1</text>
</g>
<!-- C2_6 -->
<g id="node13" class="node">
<title>C2_6</title>
<ellipse fill="white" stroke="black" cx="588" cy="-286.99" rx="33.6" ry="33.6"/>
<text text-anchor="middle" x="588" y="-283.29" font-family="Times,serif" font-size="14.00">C2_6</text>
</g>
<!-- C2_0&#45;&gt;C2_6 -->
<g id="edge15" class="edge">
<title>C2_0&#45;&gt;C2_6</title>
<path fill="none" stroke="black" d="M587.21,-622.15C579.01,-607.88 570.03,-590.53 564,-573.97 548.23,-530.64 547.69,-518.24 543,-472.38 542.32,-465.74 539.85,-463.25 543,-457.38 549.81,-444.66 563.19,-452.09 570,-439.38 585.85,-409.75 591.85,-389.31 570,-363.78 551.28,-341.91 524.72,-375.65 506,-353.78 488.57,-333.41 518.14,-314.76 546.51,-302.55"/>
<polygon fill="black" stroke="black" points="548.09,-305.69 556.02,-298.67 545.44,-299.21 548.09,-305.69"/>
<text text-anchor="middle" x="560.5" y="-461.18" font-family="Times,serif" font-size="14.00">t0R3</text>
</g>
<!-- C2_2 -->
<g id="node14" class="node">
<title>C2_2</title>
<ellipse fill="white" stroke="black" cx="784" cy="-168.39" rx="33.6" ry="33.6"/>
<text text-anchor="middle" x="784" y="-164.69" font-family="Times,serif" font-size="14.00">C2_2</text>
</g>
<!-- C2_0&#45;&gt;C2_2 -->
<g id="edge16" class="edge">
<title>C2_0&#45;&gt;C2_2</title>
<path fill="none" stroke="black" d="M639.11,-634.46C683.18,-605.7 759.92,-546.92 786,-472.38 788.2,-466.08 786.79,-464 786,-457.38 779.64,-403.89 757.37,-392.53 761,-338.78 763.94,-295.31 771.07,-245.99 776.62,-211.82"/>
<polygon fill="black" stroke="black" points="780.11,-212.17 778.29,-201.73 773.2,-211.03 780.11,-212.17"/>
<text text-anchor="middle" x="809.5" y="-401.88" font-family="Times,serif" font-size="14.00">t0O1R2</text>
</g>
<!-- C2_4 -->
<g id="node16" class="node">
<title>C2_4</title>
<ellipse fill="white" stroke="black" cx="527" cy="-168.39" rx="33.6" ry="33.6"/>
<text text-anchor="middle" x="527" y="-164.69" font-family="Times,serif" font-size="14.00">C2_4</text>
</g>
<!-- C2_0&#45;&gt;C2_4 -->
<g id="edge18" class="edge">
<title>C2_0&#45;&gt;C2_4</title>
<path fill="none" stroke="black" d="M579.8,-628.07C565.89,-613.47 549.86,-594.12 540,-573.97 493.34,-478.68 490.32,-444.53 499,-338.78 502.58,-295.17 511.26,-245.87 518.02,-211.75"/>
<polygon fill="black" stroke="black" points="521.5,-212.16 520.04,-201.67 514.64,-210.78 521.5,-212.16"/>
<text text-anchor="middle" x="523.5" y="-401.88" font-family="Times,serif" font-size="14.00">t0O1R2</text>
</g>
<!-- C2_3 -->
<g id="node17" class="node">
<title>C2_3</title>
<ellipse fill="white" stroke="black" cx="703" cy="-286.99" rx="33.6" ry="33.6"/>
<text text-anchor="middle" x="703" y="-283.29" font-family="Times,serif" font-size="14.00">C2_3</text>
</g>
<!-- C2_0&#45;&gt;C2_3 -->
<g id="edge19" class="edge">
<title>C2_0&#45;&gt;C2_3</title>
<path fill="none" stroke="black" d="M636.77,-631.47C647.23,-622.38 658.29,-611.13 666,-598.97 727.24,-502.4 726.46,-466.78 744,-353.78 745.02,-347.19 746.22,-345.07 744,-338.78 741.53,-331.8 737.66,-325.08 733.25,-318.93"/>
<polygon fill="black" stroke="black" points="735.92,-316.66 727,-310.94 730.41,-320.97 735.92,-316.66"/>
<text text-anchor="middle" x="754.5" y="-461.18" font-family="Times,serif" font-size="14.00">t0O2R2</text>
</g>
<!-- C2_0&#45;&gt;C3_0 -->
<g id="edge38" class="edge">
<title>C2_0&#45;&gt;C3_0</title>
<path fill="none" stroke="black" d="M485,-607.43C479.53,-604.69 474.17,-601.87 469,-598.97 458.89,-593.31 448.65,-586.67 438.83,-579.79"/>
<polygon fill="black" stroke="black" points="440.86,-576.94 430.69,-573.97 436.79,-582.64 440.86,-576.94"/>
<text text-anchor="middle" x="487.5" y="-587.77" font-family="Times,serif" font-size="14.00">L1{}</text>
</g>
<!-- C2_7 -->
<g id="node15" class="node">
<title>C2_7</title>
<ellipse fill="white" stroke="black" cx="666" cy="-405.58" rx="33.6" ry="33.6"/>
<text text-anchor="middle" x="666" y="-401.88" font-family="Times,serif" font-size="14.00">C2_7</text>
</g>
<!-- C2_5&#45;&gt;C2_7 -->
<g id="edge17" class="edge">
<title>C2_5&#45;&gt;C2_7</title>
<path fill="none" stroke="black" d="M630.58,-503.55C638.47,-494.47 646.61,-483.58 652,-472.38 655.45,-465.2 658.06,-457.18 660.03,-449.27"/>
<polygon fill="black" stroke="black" points="663.47,-449.9 662.19,-439.38 656.64,-448.4 663.47,-449.9"/>
<text text-anchor="middle" x="674.5" y="-461.18" font-family="Times,serif" font-size="14.00">t0R1</text>
</g>
<!-- C2_6&#45;&gt;C2_4 -->
<g id="edge22" class="edge">
<title>C2_6&#45;&gt;C2_4</title>
<path fill="none" stroke="black" d="M570.17,-258.12C565.69,-250.77 561.02,-242.76 557,-235.19 552.59,-226.88 548.2,-217.8 544.18,-209.11"/>
<polygon fill="black" stroke="black" points="547.31,-207.55 539.99,-199.9 540.94,-210.45 547.31,-207.55"/>
<text text-anchor="middle" x="574.5" y="-223.99" font-family="Times,serif" font-size="14.00">t8R3</text>
</g>
<!-- C2_1 -->
<g id="node18" class="node">
<title>C2_1</title>
<ellipse fill="white" stroke="black" cx="725" cy="-49.8" rx="33.6" ry="33.6"/>
<text text-anchor="middle" x="725" y="-46.1" font-family="Times,serif" font-size="14.00">C2_1</text>
</g>
<!-- C2_6&#45;&gt;C2_1 -->
<g id="edge30" class="edge">
<title>C2_6&#45;&gt;C2_1</title>
<path fill="none" stroke="black" d="M592.45,-253.46C598,-221.29 609.75,-171.64 633,-134.59 647.47,-111.54 669.98,-90.88 689.12,-75.84"/>
<polygon fill="black" stroke="black" points="691.26,-78.61 697.08,-69.75 687.01,-73.05 691.26,-78.61"/>
<text text-anchor="middle" x="665" y="-164.69" font-family="Times,serif" font-size="14.00">t16O1R3</text>
</g>
<!-- C2_2&#45;&gt;C2_1 -->
<g id="edge29" class="edge">
<title>C2_2&#45;&gt;C2_1</title>
<path fill="none" stroke="black" d="M769.11,-137.97C761.64,-123.19 752.48,-105.11 744.46,-89.25"/>
<polygon fill="black" stroke="black" points="747.52,-87.55 739.88,-80.21 741.28,-90.71 747.52,-87.55"/>
<text text-anchor="middle" x="780" y="-105.39" font-family="Times,serif" font-size="14.00">t15R1</text>
</g>
<!-- C2_7&#45;&gt;C2_5 -->
<g id="edge24" class="edge">
<title>C2_7&#45;&gt;C2_5</title>
<path fill="none" stroke="black" d="M636.53,-422.67C624.05,-431.19 610.85,-442.91 604,-457.38 600,-465.83 598.68,-475.52 598.79,-484.94"/>
<polygon fill="black" stroke="black" points="595.3,-485.22 599.41,-494.98 602.29,-484.79 595.3,-485.22"/>
<text text-anchor="middle" x="626" y="-461.18" font-family="Times,serif" font-size="14.00">t10R2</text>
</g>
<!-- C2_7&#45;&gt;C2_6 -->
<g id="edge25" class="edge">
<title>C2_7&#45;&gt;C2_6</title>
<path fill="none" stroke="black" d="M645.15,-378.66C639.09,-370.81 632.61,-362.07 627,-353.78 620.97,-344.86 614.84,-334.99 609.29,-325.67"/>
<polygon fill="black" stroke="black" points="612.25,-323.8 604.16,-316.95 606.21,-327.34 612.25,-323.8"/>
<text text-anchor="middle" x="649" y="-342.58" font-family="Times,serif" font-size="14.00">t11R3</text>
</g>
<!-- C2_7&#45;&gt;C2_3 -->
<g id="edge26" class="edge">
<title>C2_7&#45;&gt;C2_3</title>
<path fill="none" stroke="black" d="M671.47,-372.08C673.66,-361.35 676.5,-349.43 680,-338.78 681.26,-334.96 682.71,-331.04 684.27,-327.15"/>
<polygon fill="black" stroke="black" points="687.62,-328.22 688.28,-317.64 681.17,-325.49 687.62,-328.22"/>
<text text-anchor="middle" x="712" y="-342.58" font-family="Times,serif" font-size="14.00">t12O3R3</text>
</g>
<!-- C2_4&#45;&gt;C2_5 -->
<g id="edge27" class="edge">
<title>C2_4&#45;&gt;C2_5</title>
<path fill="none" stroke="black" d="M530.88,-202.17C534.51,-232.84 540.09,-279.92 545,-320.78 546.76,-335.45 540.37,-341.79 549,-353.78 555.04,-362.17 563.54,-355.71 570,-363.78 570.97,-364.99 587.04,-436.97 597.68,-484.97"/>
<polygon fill="black" stroke="black" points="594.28,-485.81 599.86,-494.82 601.11,-484.3 594.28,-485.81"/>
<text text-anchor="middle" x="581" y="-342.58" font-family="Times,serif" font-size="14.00">t13O2R1</text>
</g>
<!-- C2_3&#45;&gt;C2_2 -->
<g id="edge23" class="edge">
<title>C2_3&#45;&gt;C2_2</title>
<path fill="none" stroke="black" d="M708.28,-253.52C711.13,-242.33 715.46,-230.12 722,-220.19 728.69,-210.03 738.04,-200.89 747.45,-193.26"/>
<polygon fill="black" stroke="black" points="749.87,-195.81 755.68,-186.94 745.61,-190.26 749.87,-195.81"/>
<text text-anchor="middle" x="739.5" y="-223.99" font-family="Times,serif" font-size="14.00">t9R2</text>
</g>
<!-- C2_3&#45;&gt;C2_1 -->
<g id="edge20" class="edge">
<title>C2_3&#45;&gt;C2_1</title>
<path fill="none" stroke="black" d="M701.74,-253.07C701.01,-222.31 701.05,-175.17 706,-134.59 707.68,-120.79 710.66,-105.92 713.77,-92.6"/>
<polygon fill="black" stroke="black" points="717.2,-93.3 716.15,-82.76 710.39,-91.66 717.2,-93.3"/>
<text text-anchor="middle" x="723.5" y="-164.69" font-family="Times,serif" font-size="14.00">t0R1</text>
</g>
<!-- C2_1&#45;&gt;C2_0 -->
<g id="edge28" class="edge">
<title>C2_1&#45;&gt;C2_0</title>
<path fill="none" stroke="black" d="M755.84,-64.21C781.81,-77.62 816.36,-101.06 827,-134.59 860.31,-239.54 854.34,-382.91 838,-439.38 818.34,-507.34 804.58,-525.54 753,-573.97 723.51,-601.65 682.61,-622.92 651.59,-636.52"/>
<polygon fill="black" stroke="black" points="650.13,-633.34 642.31,-640.49 652.88,-639.77 650.13,-633.34"/>
<text text-anchor="middle" x="882" y="-342.58" font-family="Times,serif" font-size="14.00">t14O1R2</text>
</g>
<!-- C3_0&#45;&gt;C3_0 -->
<g id="edge42" class="edge">
<title>C3_0&#45;&gt;C3_0</title>
<path fill="none" stroke="black" d="M412.22,-539.78C423.21,-539.49 431.8,-535.62 431.8,-528.17 431.8,-523.29 428.1,-519.94 422.45,-518.13"/>
<polygon fill="black" stroke="black" points="422.64,-514.62 412.22,-516.57 421.58,-521.54 422.64,-514.62"/>
<text text-anchor="middle" x="450.3" y="-524.47" font-family="Times,serif" font-size="14.00">L5{}</text>
</g>
<!-- C3_4 -->
<g id="node20" class="node">
<title>C3_4</title>
<ellipse fill="white" stroke="black" cx="364" cy="-168.39" rx="33.6" ry="33.6"/>
<text text-anchor="middle" x="364" y="-164.69" font-family="Times,serif" font-size="14.00">C3_4</text>
</g>
<!-- C3_0&#45;&gt;C3_4 -->
<g id="edge31" class="edge">
<title>C3_0&#45;&gt;C3_4</title>
<path fill="none" stroke="black" d="M359.86,-493.67C337.01,-441.85 300.21,-339.25 321,-253.19 324.94,-236.89 332.62,-220.2 340.41,-206.06"/>
<polygon fill="black" stroke="black" points="343.58,-207.57 345.52,-197.15 337.51,-204.09 343.58,-207.57"/>
<text text-anchor="middle" x="335.5" y="-342.58" font-family="Times,serif" font-size="14.00">t0R2</text>
</g>
<!-- C3_2 -->
<g id="node21" class="node">
<title>C3_2</title>
<ellipse fill="white" stroke="black" cx="386" cy="-405.58" rx="33.6" ry="33.6"/>
<text text-anchor="middle" x="386" y="-401.88" font-family="Times,serif" font-size="14.00">C3_2</text>
</g>
<!-- C3_0&#45;&gt;C3_2 -->
<g id="edge32" class="edge">
<title>C3_0&#45;&gt;C3_2</title>
<path fill="none" stroke="black" d="M379.05,-490.34C380.12,-477.55 381.31,-463.09 382.41,-449.83"/>
<polygon fill="black" stroke="black" points="385.93,-449.76 383.27,-439.51 378.96,-449.18 385.93,-449.76"/>
<text text-anchor="middle" x="408.5" y="-461.18" font-family="Times,serif" font-size="14.00">t0O2R1</text>
</g>
<!-- C3_3 -->
<g id="node23" class="node">
<title>C3_3</title>
<ellipse fill="white" stroke="black" cx="403" cy="-49.8" rx="33.6" ry="33.6"/>
<text text-anchor="middle" x="403" y="-46.1" font-family="Times,serif" font-size="14.00">C3_3</text>
</g>
<!-- C3_4&#45;&gt;C3_3 -->
<g id="edge34" class="edge">
<title>C3_4&#45;&gt;C3_3</title>
<path fill="none" stroke="black" d="M366.57,-134.69C368.04,-123.94 370.36,-112.07 374,-101.59 375.67,-96.8 377.79,-91.94 380.12,-87.23"/>
<polygon fill="black" stroke="black" points="383.21,-88.87 384.81,-78.4 377.03,-85.59 383.21,-88.87"/>
<text text-anchor="middle" x="401.5" y="-105.39" font-family="Times,serif" font-size="14.00">t0O2R1</text>
</g>
<!-- C3_1 -->
<g id="node22" class="node">
<title>C3_1</title>
<ellipse fill="white" stroke="black" cx="364" cy="-286.99" rx="33.6" ry="33.6"/>
<text text-anchor="middle" x="364" y="-283.29" font-family="Times,serif" font-size="14.00">C3_1</text>
</g>
<!-- C3_2&#45;&gt;C3_1 -->
<g id="edge33" class="edge">
<title>C3_2&#45;&gt;C3_1</title>
<path fill="none" stroke="black" d="M379.87,-372.1C377.44,-359.21 374.61,-344.22 372.02,-330.49"/>
<polygon fill="black" stroke="black" points="375.39,-329.47 370.1,-320.29 368.51,-330.76 375.39,-329.47"/>
<text text-anchor="middle" x="403.5" y="-342.58" font-family="Times,serif" font-size="14.00">t0O2R2</text>
</g>
<!-- C3_1&#45;&gt;C3_4 -->
<g id="edge36" class="edge">
<title>C3_1&#45;&gt;C3_4</title>
<path fill="none" stroke="black" d="M364,-252.89C364,-240.45 364,-226.13 364,-212.9"/>
<polygon fill="black" stroke="black" points="367.5,-212.57 364,-202.57 360.5,-212.57 367.5,-212.57"/>
<text text-anchor="middle" x="381.5" y="-223.99" font-family="Times,serif" font-size="14.00">t5R2</text>
</g>
<!-- C3_3&#45;&gt;C3_0 -->
<g id="edge35" class="edge">
<title>C3_3&#45;&gt;C3_0</title>
<path fill="none" stroke="black" d="M420.17,-78.93C423.74,-86.08 427.02,-93.92 429,-101.59 448.72,-178.2 438.78,-378.29 440,-457.38 440.1,-464.04 442.79,-466.32 440,-472.38 434.79,-483.69 425.97,-493.54 416.51,-501.65"/>
<polygon fill="black" stroke="black" points="414.12,-499.08 408.48,-508.05 418.48,-504.55 414.12,-499.08"/>
<text text-anchor="middle" x="458.5" y="-283.29" font-family="Times,serif" font-size="14.00">t4R1</text>
</g>
</g>
</svg>
