<?xml version="1.0" encoding="UTF-8" standalone="no"?>
<!DOCTYPE svg PUBLIC "-//W3C//DTD SVG 1.1//EN"
 "http://www.w3.org/Graphics/SVG/1.1/DTD/svg11.dtd">
<!-- Generated by graphviz version 2.43.0 (0)
 -->
<!-- Title: gen/Seed496502817 Pages: 1 -->
<svg width="680pt" height="777pt"
 viewBox="0.00 0.00 680.00 777.16" xmlns="http://www.w3.org/2000/svg" xmlns:xlink="http://www.w3.org/1999/xlink">
<g id="graph0" class="graph" transform="scale(1 1) rotate(0) translate(4 773.16)">
<title>gen/Seed496502817</title>
<polygon fill="white" stroke="transparent" points="-4,4 -4,-773.16 676,-773.16 676,4 -4,4"/>
<g id="clust1" class="cluster">
<title>cluster0</title>
<path fill="#ffeeee" stroke="#ffeeee" d="M302,-8C302,-8 474,-8 474,-8 480,-8 486,-14 486,-20 486,-20 486,-622.56 486,-622.56 486,-628.56 480,-634.56 474,-634.56 474,-634.56 302,-634.56 302,-634.56 296,-634.56 290,-628.56 290,-622.56 290,-622.56 290,-20 290,-20 290,-14 296,-8 302,-8"/>
</g>
<g id="clust2" class="cluster">
<title>cluster1</title>
<path fill="#ffeeee" stroke="#ffeeee" d="M20,-245.19C20,-245.19 270,-245.19 270,-245.19 276,-245.19 282,-251.19 282,-257.19 282,-257.19 282,-749.16 282,-749.16 282,-755.16 276,-761.16 270,-761.16 270,-761.16 20,-761.16 20,-761.16 14,-761.16 8,-755.16 8,-749.16 8,-749.16 8,-257.19 8,-257.19 8,-251.19 14,-245.19 20,-245.19"/>
</g>
<g id="clust3" class="cluster">
<title>cluster2</title>
<path fill="#ffeeee" stroke="#ffeeee" d="M506,-8C506,-8 652,-8 652,-8 658,-8 664,-14 664,-20 664,-20 664,-495.97 664,-495.97 664,-501.97 658,-507.97 652,-507.97 652,-507.97 506,-507.97 506,-507.97 500,-507.97 494,-501.97 494,-495.97 494,-495.97 494,-20 494,-20 494,-14 500,-8 506,-8"/>
</g>
<!-- C0_0 -->
<g id="node1" class="node">
<title>C0_0</title>
<ellipse fill="white" stroke="black" cx="372" cy="-588.77" rx="33.62" ry="33.62"/>
<ellipse fill="none" stroke="black" cx="372" cy="-588.77" rx="37.6" ry="37.6"/>
<text text-anchor="middle" x="372" y="-585.07" font-family="Times,serif" font-size="14.00">C0_0</text>
</g>
<!-- C0_0&#45;&gt;C0_0 -->
<g id="edge25" class="edge">
<title>C0_0&#45;&gt;C0_0</title>
<path fill="none" stroke="black" d="M408.22,-600.37C419.21,-600.08 427.8,-596.21 427.8,-588.77 427.8,-583.88 424.1,-580.53 418.45,-578.73"/>
<polygon fill="black" stroke="black" points="418.64,-575.22 408.22,-577.16 417.58,-582.14 418.64,-575.22"/>
<text text-anchor="middle" x="446.3" y="-585.07" font-family="Times,serif" font-size="14.00">L0{}</text>
</g>
<!-- C0_3 -->
<g id="node2" class="node">
<title>C0_3</title>
<ellipse fill="white" stroke="black" cx="372" cy="-462.17" rx="33.6" ry="33.6"/>
<text text-anchor="middle" x="372" y="-458.47" font-family="Times,serif" font-size="14.00">C0_3</text>
</g>
<!-- C0_0&#45;&gt;C0_3 -->
<g id="edge1" class="edge">
<title>C0_0&#45;&gt;C0_3</title>
<path fill="none" stroke="black" d="M372,-550.72C372,-536.75 372,-520.75 372,-506.27"/>
<polygon fill="black" stroke="black" points="375.5,-506.05 372,-496.05 368.5,-506.05 375.5,-506.05"/>
<text text-anchor="middle" x="390" y="-521.77" font-family="Times,serif" font-size="14.00">t0O4</text>
</g>
<!-- C0_1 -->
<g id="node5" class="node">
<title>C0_1</title>
<ellipse fill="white" stroke="black" cx="343" cy="-49.8" rx="33.6" ry="33.6"/>
<text text-anchor="middle" x="343" y="-46.1" font-family="Times,serif" font-size="14.00">C0_1</text>
</g>
<!-- C0_0&#45;&gt;C0_1 -->
<g id="edge9" class="edge">
<title>C0_0&#45;&gt;C0_1</title>
<path fill="none" stroke="black" d="M346.82,-560.45C340.02,-552.07 333.14,-542.53 328,-532.97 309.3,-498.16 306.27,-423.69 305,-406.38 296.67,-292.94 319.72,-159.76 333.51,-93.19"/>
<polygon fill="black" stroke="black" points="337,-93.6 335.63,-83.09 330.15,-92.15 337,-93.6"/>
<text text-anchor="middle" x="317" y="-283.29" font-family="Times,serif" font-size="14.00">t8</text>
</g>
<!-- C0_2 -->
<g id="node6" class="node">
<title>C0_2</title>
<ellipse fill="white" stroke="black" cx="342" cy="-372.58" rx="33.6" ry="33.6"/>
<text text-anchor="middle" x="342" y="-368.88" font-family="Times,serif" font-size="14.00">C0_2</text>
</g>
<!-- C0_0&#45;&gt;C0_2 -->
<g id="edge5" class="edge">
<title>C0_0&#45;&gt;C0_2</title>
<path fill="none" stroke="black" d="M350.81,-557.03C342.24,-542.78 333.35,-525.21 329,-507.97 321.3,-477.44 325.26,-441.94 330.76,-415.1"/>
<polygon fill="black" stroke="black" points="334.2,-415.78 332.93,-405.26 327.36,-414.28 334.2,-415.78"/>
<text text-anchor="middle" x="345" y="-521.77" font-family="Times,serif" font-size="14.00">t0</text>
</g>
<!-- C2_0 -->
<g id="node13" class="node">
<title>C2_0</title>
<ellipse fill="white" stroke="black" cx="540" cy="-462.17" rx="33.62" ry="33.62"/>
<ellipse fill="none" stroke="black" cx="540" cy="-462.17" rx="37.6" ry="37.6"/>
<text text-anchor="middle" x="540" y="-458.47" font-family="Times,serif" font-size="14.00">C2_0</text>
</g>
<!-- C0_0&#45;&gt;C2_0 -->
<g id="edge28" class="edge">
<title>C0_0&#45;&gt;C2_0</title>
<path fill="none" stroke="black" d="M486,-510.66C488,-509.24 490,-507.81 492,-506.39"/>
<polygon fill="black" stroke="black" points="487.88,-513.62 494,-504.97 483.82,-507.91 487.88,-513.62"/>
<text text-anchor="middle" x="491.5" y="-521.77" font-family="Times,serif" font-size="14.00">L3{}</text>
</g>
<!-- C0_5 -->
<g id="node3" class="node">
<title>C0_5</title>
<ellipse fill="white" stroke="black" cx="436" cy="-286.99" rx="33.6" ry="33.6"/>
<text text-anchor="middle" x="436" y="-283.29" font-family="Times,serif" font-size="14.00">C0_5</text>
</g>
<!-- C0_3&#45;&gt;C0_5 -->
<g id="edge2" class="edge">
<title>C0_3&#45;&gt;C0_5</title>
<path fill="none" stroke="black" d="M376.38,-428.42C380.55,-403.14 388.15,-367.72 401,-338.78 403.42,-333.33 406.45,-327.84 409.7,-322.59"/>
<polygon fill="black" stroke="black" points="412.76,-324.32 415.32,-314.04 406.91,-320.47 412.76,-324.32"/>
<text text-anchor="middle" x="419" y="-368.88" font-family="Times,serif" font-size="14.00">t0O7</text>
</g>
<!-- C0_5&#45;&gt;C0_0 -->
<g id="edge6" class="edge">
<title>C0_5&#45;&gt;C0_0</title>
<path fill="none" stroke="black" d="M439.04,-320.9C442.18,-369.5 442.94,-462.31 412,-532.97 409.27,-539.2 405.73,-545.42 401.9,-551.3"/>
<polygon fill="black" stroke="black" points="398.93,-549.43 396.11,-559.64 404.69,-553.42 398.93,-549.43"/>
<text text-anchor="middle" x="455" y="-458.47" font-family="Times,serif" font-size="14.00">t5O5</text>
</g>
<!-- C0_4 -->
<g id="node4" class="node">
<title>C0_4</title>
<ellipse fill="white" stroke="black" cx="369" cy="-168.39" rx="33.6" ry="33.6"/>
<text text-anchor="middle" x="369" y="-164.69" font-family="Times,serif" font-size="14.00">C0_4</text>
</g>
<!-- C0_5&#45;&gt;C0_4 -->
<g id="edge3" class="edge">
<title>C0_5&#45;&gt;C0_4</title>
<path fill="none" stroke="black" d="M419.44,-257.16C410.74,-242.03 399.98,-223.3 390.63,-207.03"/>
<polygon fill="black" stroke="black" points="393.62,-205.21 385.6,-198.28 387.55,-208.7 393.62,-205.21"/>
<text text-anchor="middle" x="424" y="-223.99" font-family="Times,serif" font-size="14.00">t0O2</text>
</g>
<!-- C0_4&#45;&gt;C0_4 -->
<g id="edge7" class="edge">
<title>C0_4&#45;&gt;C0_4</title>
<path fill="none" stroke="black" d="M401.12,-179.27C412.03,-179.32 420.8,-175.7 420.8,-168.39 420.8,-163.6 417.02,-160.39 411.34,-158.76"/>
<polygon fill="black" stroke="black" points="411.47,-155.25 401.12,-157.52 410.62,-162.2 411.47,-155.25"/>
<text text-anchor="middle" x="438.8" y="-164.69" font-family="Times,serif" font-size="14.00">t6O1</text>
</g>
<!-- C0_4&#45;&gt;C0_1 -->
<g id="edge4" class="edge">
<title>C0_4&#45;&gt;C0_1</title>
<path fill="none" stroke="black" d="M361.83,-135.22C358.9,-122.1 355.48,-106.74 352.36,-92.75"/>
<polygon fill="black" stroke="black" points="355.74,-91.86 350.15,-82.86 348.91,-93.38 355.74,-91.86"/>
<text text-anchor="middle" x="365" y="-105.39" font-family="Times,serif" font-size="14.00">t0</text>
</g>
<!-- C0_2&#45;&gt;C0_4 -->
<g id="edge8" class="edge">
<title>C0_2&#45;&gt;C0_4</title>
<path fill="none" stroke="black" d="M346.4,-338.64C351,-304.17 358.25,-249.92 363.29,-212.16"/>
<polygon fill="black" stroke="black" points="366.79,-212.35 364.65,-201.98 359.86,-211.43 366.79,-212.35"/>
<text text-anchor="middle" x="366" y="-283.29" font-family="Times,serif" font-size="14.00">t7</text>
</g>
<!-- C1_0 -->
<g id="node7" class="node">
<title>C1_0</title>
<ellipse fill="white" stroke="black" cx="236" cy="-715.36" rx="33.62" ry="33.62"/>
<ellipse fill="none" stroke="black" cx="236" cy="-715.36" rx="37.6" ry="37.6"/>
<text text-anchor="middle" x="236" y="-711.66" font-family="Times,serif" font-size="14.00">C1_0</text>
</g>
<!-- C1_0&#45;&gt;C0_0 -->
<g id="edge27" class="edge">
<title>C1_0&#45;&gt;C0_0</title>
<path fill="none" stroke="black" d="M282,-672.22C292.76,-662.37 304.34,-651.76 315.49,-641.54"/>
<polygon fill="black" stroke="black" points="318.1,-643.9 323.11,-634.56 313.37,-638.73 318.1,-643.9"/>
<text text-anchor="middle" x="330.5" y="-648.36" font-family="Times,serif" font-size="14.00">L2{}</text>
</g>
<!-- C1_4 -->
<g id="node8" class="node">
<title>C1_4</title>
<ellipse fill="white" stroke="black" cx="138" cy="-588.77" rx="33.6" ry="33.6"/>
<text text-anchor="middle" x="138" y="-585.07" font-family="Times,serif" font-size="14.00">C1_4</text>
</g>
<!-- C1_0&#45;&gt;C1_4 -->
<g id="edge10" class="edge">
<title>C1_0&#45;&gt;C1_4</title>
<path fill="none" stroke="black" d="M213.02,-685.15C198.57,-666.77 179.86,-642.98 164.74,-623.76"/>
<polygon fill="black" stroke="black" points="167.43,-621.53 158.5,-615.83 161.93,-625.86 167.43,-621.53"/>
<text text-anchor="middle" x="210" y="-648.36" font-family="Times,serif" font-size="14.00">t0O5</text>
</g>
<!-- C1_1 -->
<g id="node10" class="node">
<title>C1_1</title>
<ellipse fill="white" stroke="black" cx="236" cy="-588.77" rx="33.6" ry="33.6"/>
<text text-anchor="middle" x="236" y="-585.07" font-family="Times,serif" font-size="14.00">C1_1</text>
</g>
<!-- C1_0&#45;&gt;C1_1 -->
<g id="edge12" class="edge">
<title>C1_0&#45;&gt;C1_1</title>
<path fill="none" stroke="black" d="M236,-677.32C236,-663.35 236,-647.34 236,-632.86"/>
<polygon fill="black" stroke="black" points="239.5,-632.65 236,-622.65 232.5,-632.65 239.5,-632.65"/>
<text text-anchor="middle" x="254" y="-648.36" font-family="Times,serif" font-size="14.00">t0O9</text>
</g>
<!-- C1_3 -->
<g id="node9" class="node">
<title>C1_3</title>
<ellipse fill="white" stroke="black" cx="188" cy="-462.17" rx="33.6" ry="33.6"/>
<text text-anchor="middle" x="188" y="-458.47" font-family="Times,serif" font-size="14.00">C1_3</text>
</g>
<!-- C1_4&#45;&gt;C1_3 -->
<g id="edge11" class="edge">
<title>C1_4&#45;&gt;C1_3</title>
<path fill="none" stroke="black" d="M158.78,-561.7C164.83,-552.99 170.91,-542.95 175,-532.97 178.46,-524.52 181.01,-515.11 182.88,-506.01"/>
<polygon fill="black" stroke="black" points="186.37,-506.4 184.72,-495.93 179.49,-505.14 186.37,-506.4"/>
<text text-anchor="middle" x="187" y="-521.77" font-family="Times,serif" font-size="14.00">t0</text>
</g>
<!-- C1_5 -->
<g id="node11" class="node">
<title>C1_5</title>
<ellipse fill="white" stroke="black" cx="50" cy="-462.17" rx="33.6" ry="33.6"/>
<text text-anchor="middle" x="50" y="-458.47" font-family="Times,serif" font-size="14.00">C1_5</text>
</g>
<!-- C1_4&#45;&gt;C1_5 -->
<g id="edge13" class="edge">
<title>C1_4&#45;&gt;C1_5</title>
<path fill="none" stroke="black" d="M116.2,-562.68C108.58,-553.54 100.15,-542.99 93,-532.97 85.7,-522.74 78.32,-511.27 71.79,-500.62"/>
<polygon fill="black" stroke="black" points="74.69,-498.66 66.52,-491.92 68.7,-502.29 74.69,-498.66"/>
<text text-anchor="middle" x="101" y="-521.77" font-family="Times,serif" font-size="14.00">t0</text>
</g>
<!-- C1_3&#45;&gt;C1_4 -->
<g id="edge15" class="edge">
<title>C1_3&#45;&gt;C1_4</title>
<path fill="none" stroke="black" d="M161.27,-483.14C151.01,-492.46 140.46,-504.47 135,-517.97 131.56,-526.47 130.42,-536.03 130.51,-545.29"/>
<polygon fill="black" stroke="black" points="127.03,-545.75 131.08,-555.54 134.02,-545.36 127.03,-545.75"/>
<text text-anchor="middle" x="153" y="-521.77" font-family="Times,serif" font-size="14.00">t5O7</text>
</g>
<!-- C1_1&#45;&gt;C1_3 -->
<g id="edge17" class="edge">
<title>C1_1&#45;&gt;C1_3</title>
<path fill="none" stroke="black" d="M227.05,-556.18C223.37,-544.09 218.83,-530.27 214,-517.97 211.96,-512.76 209.64,-507.36 207.25,-502.06"/>
<polygon fill="black" stroke="black" points="210.3,-500.31 202.93,-492.71 203.95,-503.25 210.3,-500.31"/>
<text text-anchor="middle" x="226" y="-521.77" font-family="Times,serif" font-size="14.00">t7</text>
</g>
<!-- C1_2 -->
<g id="node12" class="node">
<title>C1_2</title>
<ellipse fill="white" stroke="black" cx="120" cy="-286.99" rx="33.6" ry="33.6"/>
<text text-anchor="middle" x="120" y="-283.29" font-family="Times,serif" font-size="14.00">C1_2</text>
</g>
<!-- C1_1&#45;&gt;C1_2 -->
<g id="edge14" class="edge">
<title>C1_1&#45;&gt;C1_2</title>
<path fill="none" stroke="black" d="M241.35,-555.13C245.49,-521.17 248.01,-467.09 231,-424.38 214.04,-381.78 178.78,-342.22 152.53,-316.8"/>
<polygon fill="black" stroke="black" points="154.7,-314.04 145.04,-309.69 149.89,-319.12 154.7,-314.04"/>
<text text-anchor="middle" x="252" y="-458.47" font-family="Times,serif" font-size="14.00">t0</text>
</g>
<!-- C1_5&#45;&gt;C1_2 -->
<g id="edge18" class="edge">
<title>C1_5&#45;&gt;C1_2</title>
<path fill="none" stroke="black" d="M62.19,-430.45C72.05,-405.68 86.32,-369.95 99,-338.78 100.41,-335.31 101.89,-331.7 103.37,-328.09"/>
<polygon fill="black" stroke="black" points="106.71,-329.16 107.29,-318.58 100.24,-326.5 106.71,-329.16"/>
<text text-anchor="middle" x="107" y="-368.88" font-family="Times,serif" font-size="14.00">t8</text>
</g>
<!-- C1_2&#45;&gt;C1_4 -->
<g id="edge16" class="edge">
<title>C1_2&#45;&gt;C1_4</title>
<path fill="none" stroke="black" d="M119.53,-320.98C119.22,-368.13 119.92,-457.44 128,-532.97 128.43,-536.97 128.98,-541.11 129.61,-545.25"/>
<polygon fill="black" stroke="black" points="126.2,-546.13 131.28,-555.43 133.11,-544.99 126.2,-546.13"/>
<text text-anchor="middle" x="134" y="-458.47" font-family="Times,serif" font-size="14.00">t6</text>
</g>
<!-- C2_0&#45;&gt;C0_0 -->
<g id="edge26" class="edge">
<title>C2_0&#45;&gt;C0_0</title>
<path fill="none" stroke="black" d="M529.69,-507.97C525.94,-517.1 520.87,-526.02 514,-532.97 508.24,-538.79 501.8,-544.01 494.92,-548.68"/>
<polygon fill="black" stroke="black" points="492.59,-546.01 486,-554.31 496.32,-551.94 492.59,-546.01"/>
<text text-anchor="middle" x="542.5" y="-521.77" font-family="Times,serif" font-size="14.00">L1{}</text>
</g>
<!-- C2_3 -->
<g id="node14" class="node">
<title>C2_3</title>
<ellipse fill="white" stroke="black" cx="540" cy="-286.99" rx="33.6" ry="33.6"/>
<text text-anchor="middle" x="540" y="-283.29" font-family="Times,serif" font-size="14.00">C2_3</text>
</g>
<!-- C2_0&#45;&gt;C2_3 -->
<g id="edge19" class="edge">
<title>C2_0&#45;&gt;C2_3</title>
<path fill="none" stroke="black" d="M540,-424.02C540,-396.76 540,-359.66 540,-331.09"/>
<polygon fill="black" stroke="black" points="543.5,-330.98 540,-320.98 536.5,-330.98 543.5,-330.98"/>
<text text-anchor="middle" x="548" y="-368.88" font-family="Times,serif" font-size="14.00">t0</text>
</g>
<!-- C2_4 -->
<g id="node17" class="node">
<title>C2_4</title>
<ellipse fill="white" stroke="black" cx="622" cy="-168.39" rx="33.6" ry="33.6"/>
<text text-anchor="middle" x="622" y="-164.69" font-family="Times,serif" font-size="14.00">C2_4</text>
</g>
<!-- C2_0&#45;&gt;C2_4 -->
<g id="edge23" class="edge">
<title>C2_0&#45;&gt;C2_4</title>
<path fill="none" stroke="black" d="M553.16,-426.54C555.54,-419.89 557.92,-412.94 560,-406.38 581.32,-338.94 601.1,-259.12 612.35,-211.45"/>
<polygon fill="black" stroke="black" points="615.81,-212.03 614.69,-201.5 608.99,-210.43 615.81,-212.03"/>
<text text-anchor="middle" x="622" y="-283.29" font-family="Times,serif" font-size="14.00">t4O4</text>
</g>
<!-- C2_1 -->
<g id="node15" class="node">
<title>C2_1</title>
<ellipse fill="white" stroke="black" cx="536" cy="-168.39" rx="33.6" ry="33.6"/>
<text text-anchor="middle" x="536" y="-164.69" font-family="Times,serif" font-size="14.00">C2_1</text>
</g>
<!-- C2_3&#45;&gt;C2_1 -->
<g id="edge20" class="edge">
<title>C2_3&#45;&gt;C2_1</title>
<path fill="none" stroke="black" d="M538.88,-253.2C538.44,-240.53 537.94,-225.86 537.47,-212.37"/>
<polygon fill="black" stroke="black" points="540.97,-212.21 537.13,-202.34 533.98,-212.45 540.97,-212.21"/>
<text text-anchor="middle" x="546" y="-223.99" font-family="Times,serif" font-size="14.00">t0</text>
</g>
<!-- C2_3&#45;&gt;C2_4 -->
<g id="edge22" class="edge">
<title>C2_3&#45;&gt;C2_4</title>
<path fill="none" stroke="black" d="M559.02,-258.94C570.32,-242.87 584.79,-222.3 597.01,-204.93"/>
<polygon fill="black" stroke="black" points="599.91,-206.88 602.8,-196.69 594.18,-202.86 599.91,-206.88"/>
<text text-anchor="middle" x="593" y="-223.99" font-family="Times,serif" font-size="14.00">t0</text>
</g>
<!-- C2_2 -->
<g id="node16" class="node">
<title>C2_2</title>
<ellipse fill="white" stroke="black" cx="572" cy="-49.8" rx="33.6" ry="33.6"/>
<text text-anchor="middle" x="572" y="-46.1" font-family="Times,serif" font-size="14.00">C2_2</text>
</g>
<!-- C2_1&#45;&gt;C2_2 -->
<g id="edge21" class="edge">
<title>C2_1&#45;&gt;C2_2</title>
<path fill="none" stroke="black" d="M545.74,-135.84C549.9,-122.36 554.82,-106.44 559.26,-92.05"/>
<polygon fill="black" stroke="black" points="562.64,-92.96 562.25,-82.37 555.96,-90.9 562.64,-92.96"/>
<text text-anchor="middle" x="574" y="-105.39" font-family="Times,serif" font-size="14.00">t0O6</text>
</g>
<!-- C2_4&#45;&gt;C2_2 -->
<g id="edge24" class="edge">
<title>C2_4&#45;&gt;C2_2</title>
<path fill="none" stroke="black" d="M608.99,-137.06C602.96,-123 595.72,-106.1 589.24,-91"/>
<polygon fill="black" stroke="black" points="592.27,-89.19 585.11,-81.38 585.84,-91.95 592.27,-89.19"/>
<text text-anchor="middle" x="607" y="-105.39" font-family="Times,serif" font-size="14.00">t5</text>
</g>
</g>
</svg>
