<?xml version="1.0" encoding="UTF-8" standalone="no"?>
<!DOCTYPE svg PUBLIC "-//W3C//DTD SVG 1.1//EN"
 "http://www.w3.org/Graphics/SVG/1.1/DTD/svg11.dtd">
<!-- Generated by graphviz version 2.43.0 (0)
 -->
<!-- Title: gen/Seed1139298772 Pages: 1 -->
<svg width="1421pt" height="843pt"
 viewBox="0.00 0.00 1421.00 843.16" xmlns="http://www.w3.org/2000/svg" xmlns:xlink="http://www.w3.org/1999/xlink">
<g id="graph0" class="graph" transform="scale(1 1) rotate(0) translate(4 839.16)">
<title>gen/Seed1139298772</title>
<polygon fill="white" stroke="transparent" points="-4,4 -4,-839.16 1417,-839.16 1417,4 -4,4"/>
<g id="clust1" class="cluster">
<title>cluster0</title>
<path fill="#ffeeee" stroke="#ffeeee" d="M581,-245.19C581,-245.19 1033,-245.19 1033,-245.19 1039,-245.19 1045,-251.19 1045,-257.19 1045,-257.19 1045,-561.97 1045,-561.97 1045,-567.97 1039,-573.97 1033,-573.97 1033,-573.97 581,-573.97 581,-573.97 575,-573.97 569,-567.97 569,-561.97 569,-561.97 569,-257.19 569,-257.19 569,-251.19 575,-245.19 581,-245.19"/>
</g>
<g id="clust2" class="cluster">
<title>cluster1</title>
<path fill="#ffeeee" stroke="#ffeeee" d="M276,-126.59C276,-126.59 549,-126.59 549,-126.59 555,-126.59 561,-132.59 561,-138.59 561,-138.59 561,-811.16 561,-811.16 561,-817.16 555,-823.16 549,-823.16 549,-823.16 276,-823.16 276,-823.16 270,-823.16 264,-817.16 264,-811.16 264,-811.16 264,-138.59 264,-138.59 264,-132.59 270,-126.59 276,-126.59"/>
</g>
<g id="clust3" class="cluster">
<title>cluster2</title>
<path fill="#ffeeee" stroke="#ffeeee" d="M1065,-8C1065,-8 1318,-8 1318,-8 1324,-8 1330,-14 1330,-20 1330,-20 1330,-688.56 1330,-688.56 1330,-694.56 1324,-700.56 1318,-700.56 1318,-700.56 1065,-700.56 1065,-700.56 1059,-700.56 1053,-694.56 1053,-688.56 1053,-688.56 1053,-20 1053,-20 1053,-14 1059,-8 1065,-8"/>
</g>
<g id="clust4" class="cluster">
<title>cluster3</title>
<path fill="#ffeeee" stroke="#ffeeee" d="M20,-363.78C20,-363.78 244,-363.78 244,-363.78 250,-363.78 256,-369.78 256,-375.78 256,-375.78 256,-815.16 256,-815.16 256,-821.16 250,-827.16 244,-827.16 244,-827.16 20,-827.16 20,-827.16 14,-827.16 8,-821.16 8,-815.16 8,-815.16 8,-375.78 8,-375.78 8,-369.78 14,-363.78 20,-363.78"/>
</g>
<!-- C0_0 -->
<g id="node1" class="node">
<title>C0_0</title>
<ellipse fill="white" stroke="black" cx="682" cy="-528.17" rx="33.62" ry="33.62"/>
<ellipse fill="none" stroke="black" cx="682" cy="-528.17" rx="37.6" ry="37.6"/>
<text text-anchor="middle" x="682" y="-524.47" font-family="Times,serif" font-size="14.00">C0_0</text>
</g>
<!-- C0_0&#45;&gt;C0_0 -->
<g id="edge51" class="edge">
<title>C0_0&#45;&gt;C0_0</title>
<path fill="none" stroke="black" d="M718.22,-539.78C729.21,-539.49 737.8,-535.62 737.8,-528.17 737.8,-523.29 734.1,-519.94 728.45,-518.13"/>
<polygon fill="black" stroke="black" points="728.64,-514.62 718.22,-516.57 727.58,-521.54 728.64,-514.62"/>
<text text-anchor="middle" x="756.3" y="-524.47" font-family="Times,serif" font-size="14.00">L0{}</text>
</g>
<!-- C0_4 -->
<g id="node2" class="node">
<title>C0_4</title>
<ellipse fill="white" stroke="black" cx="682" cy="-405.58" rx="33.6" ry="33.6"/>
<text text-anchor="middle" x="682" y="-401.88" font-family="Times,serif" font-size="14.00">C0_4</text>
</g>
<!-- C0_0&#45;&gt;C0_4 -->
<g id="edge5" class="edge">
<title>C0_0&#45;&gt;C0_4</title>
<path fill="none" stroke="black" d="M682,-490.34C682,-477.55 682,-463.09 682,-449.83"/>
<polygon fill="black" stroke="black" points="685.5,-449.51 682,-439.51 678.5,-449.51 685.5,-449.51"/>
<text text-anchor="middle" x="699.5" y="-461.18" font-family="Times,serif" font-size="14.00">t4R5</text>
</g>
<!-- C0_2 -->
<g id="node3" class="node">
<title>C0_2</title>
<ellipse fill="white" stroke="black" cx="838" cy="-286.99" rx="33.6" ry="33.6"/>
<text text-anchor="middle" x="838" y="-283.29" font-family="Times,serif" font-size="14.00">C0_2</text>
</g>
<!-- C0_0&#45;&gt;C0_2 -->
<g id="edge9" class="edge">
<title>C0_0&#45;&gt;C0_2</title>
<path fill="none" stroke="black" d="M719.84,-527.86C781.06,-526.65 900.46,-514.21 955,-439.38 974.79,-412.22 970.76,-393.45 955,-363.78 939.26,-334.15 906.25,-314.38 879.29,-302.48"/>
<polygon fill="black" stroke="black" points="880.62,-299.25 870.05,-298.6 877.91,-305.7 880.62,-299.25"/>
<text text-anchor="middle" x="995.5" y="-401.88" font-family="Times,serif" font-size="14.00">t8O2R1</text>
</g>
<!-- C0_3 -->
<g id="node5" class="node">
<title>C0_3</title>
<ellipse fill="white" stroke="black" cx="619" cy="-286.99" rx="33.6" ry="33.6"/>
<text text-anchor="middle" x="619" y="-283.29" font-family="Times,serif" font-size="14.00">C0_3</text>
</g>
<!-- C0_0&#45;&gt;C0_3 -->
<g id="edge4" class="edge">
<title>C0_0&#45;&gt;C0_3</title>
<path fill="none" stroke="black" d="M652.75,-504.12C634.93,-488.11 613.78,-465.11 604,-439.38 590.45,-403.73 596.96,-360.14 605.2,-328.9"/>
<polygon fill="black" stroke="black" points="608.59,-329.79 607.92,-319.22 601.85,-327.9 608.59,-329.79"/>
<text text-anchor="middle" x="621.5" y="-401.88" font-family="Times,serif" font-size="14.00">t3R4</text>
</g>
<!-- C1_0 -->
<g id="node6" class="node">
<title>C1_0</title>
<ellipse fill="white" stroke="black" cx="379" cy="-654.77" rx="33.62" ry="33.62"/>
<ellipse fill="none" stroke="black" cx="379" cy="-654.77" rx="37.6" ry="37.6"/>
<text text-anchor="middle" x="379" y="-651.07" font-family="Times,serif" font-size="14.00">C1_0</text>
</g>
<!-- C0_0&#45;&gt;C1_0 -->
<g id="edge53" class="edge">
<title>C0_0&#45;&gt;C1_0</title>
<path fill="none" stroke="black" d="M573.06,-573.97C572.24,-574.31 571.41,-574.65 570.58,-574.99"/>
<polygon fill="black" stroke="black" points="568.91,-571.89 561,-578.93 571.58,-578.36 568.91,-571.89"/>
<text text-anchor="middle" x="567.5" y="-587.77" font-family="Times,serif" font-size="14.00">L2{}</text>
</g>
<!-- C0_4&#45;&gt;C0_4 -->
<g id="edge10" class="edge">
<title>C0_4&#45;&gt;C0_4</title>
<path fill="none" stroke="black" d="M714.12,-416.45C725.03,-416.51 733.8,-412.89 733.8,-405.58 733.8,-400.78 730.02,-397.57 724.34,-395.95"/>
<polygon fill="black" stroke="black" points="724.47,-392.44 714.12,-394.7 723.62,-399.39 724.47,-392.44"/>
<text text-anchor="middle" x="751.3" y="-401.88" font-family="Times,serif" font-size="14.00">t9R4</text>
</g>
<!-- C0_4&#45;&gt;C0_2 -->
<g id="edge1" class="edge">
<title>C0_4&#45;&gt;C0_2</title>
<path fill="none" stroke="black" d="M707.84,-383.41C724.06,-370.3 745.52,-353.26 765,-338.78 776.87,-329.96 790.07,-320.63 801.95,-312.41"/>
<polygon fill="black" stroke="black" points="804.08,-315.2 810.33,-306.64 800.11,-309.43 804.08,-315.2"/>
<text text-anchor="middle" x="782.5" y="-342.58" font-family="Times,serif" font-size="14.00">t0R5</text>
</g>
<!-- C0_4&#45;&gt;C0_3 -->
<g id="edge3" class="edge">
<title>C0_4&#45;&gt;C0_3</title>
<path fill="none" stroke="black" d="M683.12,-371.8C682.32,-360.81 680.1,-348.82 675,-338.78 670.14,-329.22 662.67,-320.58 654.76,-313.25"/>
<polygon fill="black" stroke="black" points="656.64,-310.25 646.78,-306.38 652.07,-315.56 656.64,-310.25"/>
<text text-anchor="middle" x="697" y="-342.58" font-family="Times,serif" font-size="14.00">t2O4</text>
</g>
<!-- C0_2&#45;&gt;C0_0 -->
<g id="edge8" class="edge">
<title>C0_2&#45;&gt;C0_0</title>
<path fill="none" stroke="black" d="M827.43,-319.39C814.27,-357.54 791.84,-419.3 778,-439.38 762.41,-461.99 739.96,-482.93 720.69,-498.69"/>
<polygon fill="black" stroke="black" points="718.28,-496.14 712.66,-505.11 722.66,-501.6 718.28,-496.14"/>
<text text-anchor="middle" x="838.5" y="-401.88" font-family="Times,serif" font-size="14.00">t7O1R3</text>
</g>
<!-- C0_2&#45;&gt;C0_2 -->
<g id="edge6" class="edge">
<title>C0_2&#45;&gt;C0_2</title>
<path fill="none" stroke="black" d="M870.12,-297.86C881.03,-297.92 889.8,-294.29 889.8,-286.99 889.8,-282.19 886.02,-278.98 880.34,-277.36"/>
<polygon fill="black" stroke="black" points="880.47,-273.85 870.12,-276.11 879.62,-280.8 880.47,-273.85"/>
<text text-anchor="middle" x="917.3" y="-283.29" font-family="Times,serif" font-size="14.00">t5O5R5</text>
</g>
<!-- C0_1 -->
<g id="node4" class="node">
<title>C0_1</title>
<ellipse fill="white" stroke="black" cx="912" cy="-405.58" rx="33.6" ry="33.6"/>
<text text-anchor="middle" x="912" y="-401.88" font-family="Times,serif" font-size="14.00">C0_1</text>
</g>
<!-- C0_1&#45;&gt;C0_2 -->
<g id="edge2" class="edge">
<title>C0_1&#45;&gt;C0_2</title>
<path fill="none" stroke="black" d="M894.28,-376.65C884.37,-361.05 871.91,-341.42 861.23,-324.59"/>
<polygon fill="black" stroke="black" points="864.15,-322.66 855.84,-316.09 858.24,-326.41 864.15,-322.66"/>
<text text-anchor="middle" x="896.5" y="-342.58" font-family="Times,serif" font-size="14.00">t1R5</text>
</g>
<!-- C0_3&#45;&gt;C0_4 -->
<g id="edge7" class="edge">
<title>C0_3&#45;&gt;C0_4</title>
<path fill="none" stroke="black" d="M610.63,-319.86C609.36,-331.24 610.09,-343.73 616,-353.78 620.64,-361.67 626.48,-358.57 634,-363.78 639.19,-367.38 644.48,-371.43 649.57,-375.54"/>
<polygon fill="black" stroke="black" points="647.41,-378.3 657.34,-382.01 651.89,-372.92 647.41,-378.3"/>
<text text-anchor="middle" x="643.5" y="-342.58" font-family="Times,serif" font-size="14.00">t6O1R4</text>
</g>
<!-- C1_0&#45;&gt;C0_0 -->
<g id="edge56" class="edge">
<title>C1_0&#45;&gt;C0_0</title>
<path fill="none" stroke="black" d="M561,-611.52C570.95,-607.66 580.69,-603.49 590,-598.97 600.84,-593.71 611.66,-587.08 621.88,-580"/>
<polygon fill="black" stroke="black" points="624.21,-582.64 630.3,-573.97 620.13,-576.94 624.21,-582.64"/>
<text text-anchor="middle" x="632.5" y="-587.77" font-family="Times,serif" font-size="14.00">L5{}</text>
</g>
<!-- C1_0&#45;&gt;C1_0 -->
<g id="edge13" class="edge">
<title>C1_0&#45;&gt;C1_0</title>
<path fill="none" stroke="black" d="M416.55,-660.54C426.89,-660.26 434.8,-658.34 434.8,-654.77 434.8,-652.53 431.71,-650.94 426.87,-650"/>
<polygon fill="black" stroke="black" points="426.84,-646.48 416.55,-648.99 426.16,-653.45 426.84,-646.48"/>
<text text-anchor="middle" x="462.3" y="-651.07" font-family="Times,serif" font-size="14.00">t2O2R1</text>
</g>
<!-- C1_0&#45;&gt;C1_0 -->
<g id="edge52" class="edge">
<title>C1_0&#45;&gt;C1_0</title>
<path fill="none" stroke="black" d="M415.6,-664.76C449.05,-668.75 489.8,-665.42 489.8,-654.77 489.8,-645.15 456.62,-641.5 425.56,-643.82"/>
<polygon fill="black" stroke="black" points="425.22,-640.33 415.6,-644.78 425.89,-647.3 425.22,-640.33"/>
<text text-anchor="middle" x="508.3" y="-651.07" font-family="Times,serif" font-size="14.00">L1{}</text>
</g>
<!-- C1_5 -->
<g id="node7" class="node">
<title>C1_5</title>
<ellipse fill="white" stroke="black" cx="377" cy="-528.17" rx="33.6" ry="33.6"/>
<text text-anchor="middle" x="377" y="-524.47" font-family="Times,serif" font-size="14.00">C1_5</text>
</g>
<!-- C1_0&#45;&gt;C1_5 -->
<g id="edge14" class="edge">
<title>C1_0&#45;&gt;C1_5</title>
<path fill="none" stroke="black" d="M374.41,-616.97C373.83,-610.96 373.32,-604.8 373,-598.97 372.52,-590.26 372.63,-580.94 373.03,-572.04"/>
<polygon fill="black" stroke="black" points="376.54,-572.02 373.62,-561.84 369.55,-571.62 376.54,-572.02"/>
<text text-anchor="middle" x="400.5" y="-587.77" font-family="Times,serif" font-size="14.00">t3O5R1</text>
</g>
<!-- C1_3 -->
<g id="node8" class="node">
<title>C1_3</title>
<ellipse fill="white" stroke="black" cx="306" cy="-405.58" rx="33.6" ry="33.6"/>
<text text-anchor="middle" x="306" y="-401.88" font-family="Times,serif" font-size="14.00">C1_3</text>
</g>
<!-- C1_0&#45;&gt;C1_3 -->
<g id="edge12" class="edge">
<title>C1_0&#45;&gt;C1_3</title>
<path fill="none" stroke="black" d="M346.96,-634.13C333.81,-624.8 319.28,-612.67 309,-598.97 301.82,-589.4 301.26,-585.72 299,-573.97 290.92,-532.04 294.41,-483.15 298.86,-449.07"/>
<polygon fill="black" stroke="black" points="302.35,-449.38 300.26,-439 295.42,-448.42 302.35,-449.38"/>
<text text-anchor="middle" x="316.5" y="-524.47" font-family="Times,serif" font-size="14.00">t1R4</text>
</g>
<!-- C1_4 -->
<g id="node9" class="node">
<title>C1_4</title>
<ellipse fill="white" stroke="black" cx="427" cy="-168.39" rx="33.6" ry="33.6"/>
<text text-anchor="middle" x="427" y="-164.69" font-family="Times,serif" font-size="14.00">C1_4</text>
</g>
<!-- C1_0&#45;&gt;C1_4 -->
<g id="edge20" class="edge">
<title>C1_0&#45;&gt;C1_4</title>
<path fill="none" stroke="black" d="M407.36,-629.3C416.62,-620.38 426.45,-609.81 434,-598.97 469.37,-548.19 473.89,-531.56 492,-472.38 506.31,-425.59 478.43,-401.15 510,-363.78 518.8,-353.37 531.09,-364.88 539,-353.78 573.98,-304.72 560.79,-260.49 516,-220.19 501.63,-207.26 483.42,-196.15 467.22,-187.65"/>
<polygon fill="black" stroke="black" points="468.46,-184.35 457.96,-182.95 465.3,-190.6 468.46,-184.35"/>
<text text-anchor="middle" x="537.5" y="-401.88" font-family="Times,serif" font-size="14.00">t9O5R1</text>
</g>
<!-- C1_5&#45;&gt;C1_0 -->
<g id="edge11" class="edge">
<title>C1_5&#45;&gt;C1_0</title>
<path fill="none" stroke="black" d="M353.14,-552.6C345.6,-559.68 337.12,-567.33 329,-573.97 323.08,-578.81 318.5,-577.17 315,-583.97 311.95,-589.9 312.21,-592.91 315,-598.97 320.21,-610.29 329.03,-620.14 338.49,-628.24"/>
<polygon fill="black" stroke="black" points="336.52,-631.15 346.52,-634.64 340.88,-625.67 336.52,-631.15"/>
<text text-anchor="middle" x="332.5" y="-587.77" font-family="Times,serif" font-size="14.00">t0R5</text>
</g>
<!-- C1_5&#45;&gt;C1_3 -->
<g id="edge19" class="edge">
<title>C1_5&#45;&gt;C1_3</title>
<path fill="none" stroke="black" d="M360.17,-498.59C350.61,-482.34 338.51,-461.79 328.17,-444.24"/>
<polygon fill="black" stroke="black" points="331.04,-442.21 322.95,-435.37 325.01,-445.76 331.04,-442.21"/>
<text text-anchor="middle" x="361.5" y="-461.18" font-family="Times,serif" font-size="14.00">t8R4</text>
</g>
<!-- C1_3&#45;&gt;C1_3 -->
<g id="edge17" class="edge">
<title>C1_3&#45;&gt;C1_3</title>
<path fill="none" stroke="black" d="M338.12,-416.45C349.03,-416.51 357.8,-412.89 357.8,-405.58 357.8,-400.78 354.02,-397.57 348.34,-395.95"/>
<polygon fill="black" stroke="black" points="348.47,-392.44 338.12,-394.7 347.62,-399.39 348.47,-392.44"/>
<text text-anchor="middle" x="385.3" y="-401.88" font-family="Times,serif" font-size="14.00">t6O3R5</text>
</g>
<!-- C1_3&#45;&gt;C1_4 -->
<g id="edge15" class="edge">
<title>C1_3&#45;&gt;C1_4</title>
<path fill="none" stroke="black" d="M295.31,-373.22C285.76,-339.3 276.44,-284.77 299,-245.19 317.27,-213.14 355.01,-193.25 384.8,-181.94"/>
<polygon fill="black" stroke="black" points="386.33,-185.11 394.55,-178.43 383.96,-178.52 386.33,-185.11"/>
<text text-anchor="middle" x="326.5" y="-283.29" font-family="Times,serif" font-size="14.00">t4O1R5</text>
</g>
<!-- C1_2 -->
<g id="node10" class="node">
<title>C1_2</title>
<ellipse fill="white" stroke="black" cx="397" cy="-286.99" rx="33.6" ry="33.6"/>
<text text-anchor="middle" x="397" y="-283.29" font-family="Times,serif" font-size="14.00">C1_2</text>
</g>
<!-- C1_3&#45;&gt;C1_2 -->
<g id="edge18" class="edge">
<title>C1_3&#45;&gt;C1_2</title>
<path fill="none" stroke="black" d="M326.42,-378.41C339.42,-361.76 356.39,-340.02 370.43,-322.03"/>
<polygon fill="black" stroke="black" points="373.25,-324.1 376.65,-314.06 367.73,-319.79 373.25,-324.1"/>
<text text-anchor="middle" x="384.5" y="-342.58" font-family="Times,serif" font-size="14.00">t7O3R1</text>
</g>
<!-- C1_4&#45;&gt;C1_5 -->
<g id="edge16" class="edge">
<title>C1_4&#45;&gt;C1_5</title>
<path fill="none" stroke="black" d="M457.15,-183.97C479.62,-196.68 508.64,-217.43 522,-245.19 536.57,-275.46 539.97,-292.39 522,-320.78 512.01,-336.57 496.31,-324.72 484,-338.78 476.32,-347.56 477.8,-352.26 476,-363.78 470.82,-396.98 467.57,-406.85 476,-439.38 478.3,-448.24 483.7,-448.52 486,-457.38 487.67,-463.83 489.5,-466.7 486,-472.38 471.54,-495.83 443.63,-509.59 419.68,-517.46"/>
<polygon fill="black" stroke="black" points="418.6,-514.13 410.05,-520.39 420.63,-520.83 418.6,-514.13"/>
<text text-anchor="middle" x="511.5" y="-342.58" font-family="Times,serif" font-size="14.00">t5O1R5</text>
</g>
<!-- C1_4&#45;&gt;C1_4 -->
<g id="edge23" class="edge">
<title>C1_4&#45;&gt;C1_4</title>
<path fill="none" stroke="black" d="M459.12,-179.27C470.03,-179.32 478.8,-175.7 478.8,-168.39 478.8,-163.6 475.02,-160.39 469.34,-158.76"/>
<polygon fill="black" stroke="black" points="469.47,-155.25 459.12,-157.52 468.62,-162.2 469.47,-155.25"/>
<text text-anchor="middle" x="510.8" y="-164.69" font-family="Times,serif" font-size="14.00">t12O5R5</text>
</g>
<!-- C1_2&#45;&gt;C1_0 -->
<g id="edge25" class="edge">
<title>C1_2&#45;&gt;C1_0</title>
<path fill="none" stroke="black" d="M409.9,-318.35C414.93,-331.97 419.97,-348.4 422,-363.78 423.71,-376.74 432.66,-586.76 428,-598.97 424.86,-607.2 419.85,-614.97 414.21,-621.94"/>
<polygon fill="black" stroke="black" points="411.34,-619.9 407.37,-629.72 416.6,-624.52 411.34,-619.9"/>
<text text-anchor="middle" x="460" y="-461.18" font-family="Times,serif" font-size="14.00">t14O2R2</text>
</g>
<!-- C1_2&#45;&gt;C1_4 -->
<g id="edge24" class="edge">
<title>C1_2&#45;&gt;C1_4</title>
<path fill="none" stroke="black" d="M405.2,-254.13C408.6,-240.89 412.6,-225.34 416.24,-211.2"/>
<polygon fill="black" stroke="black" points="419.71,-211.77 418.81,-201.21 412.93,-210.02 419.71,-211.77"/>
<text text-anchor="middle" x="446" y="-223.99" font-family="Times,serif" font-size="14.00">t13O2R2</text>
</g>
<!-- C1_2&#45;&gt;C1_2 -->
<g id="edge22" class="edge">
<title>C1_2&#45;&gt;C1_2</title>
<path fill="none" stroke="black" d="M429.12,-297.86C440.03,-297.92 448.8,-294.29 448.8,-286.99 448.8,-282.19 445.02,-278.98 439.34,-277.36"/>
<polygon fill="black" stroke="black" points="439.47,-273.85 429.12,-276.11 438.62,-280.8 439.47,-273.85"/>
<text text-anchor="middle" x="480.8" y="-283.29" font-family="Times,serif" font-size="14.00">t11O5R2</text>
</g>
<!-- C1_1 -->
<g id="node11" class="node">
<title>C1_1</title>
<ellipse fill="white" stroke="black" cx="379" cy="-781.36" rx="33.6" ry="33.6"/>
<text text-anchor="middle" x="379" y="-777.66" font-family="Times,serif" font-size="14.00">C1_1</text>
</g>
<!-- C1_1&#45;&gt;C1_0 -->
<g id="edge21" class="edge">
<title>C1_1&#45;&gt;C1_0</title>
<path fill="none" stroke="black" d="M379,-747.3C379,-733.84 379,-718.03 379,-703.37"/>
<polygon fill="black" stroke="black" points="382.5,-702.94 379,-692.94 375.5,-702.94 382.5,-702.94"/>
<text text-anchor="middle" x="411" y="-714.36" font-family="Times,serif" font-size="14.00">t10O3R4</text>
</g>
<!-- C2_0 -->
<g id="node12" class="node">
<title>C2_0</title>
<ellipse fill="white" stroke="black" cx="1105" cy="-654.77" rx="33.62" ry="33.62"/>
<ellipse fill="none" stroke="black" cx="1105" cy="-654.77" rx="37.6" ry="37.6"/>
<text text-anchor="middle" x="1105" y="-651.07" font-family="Times,serif" font-size="14.00">C2_0</text>
</g>
<!-- C2_0&#45;&gt;C0_0 -->
<g id="edge54" class="edge">
<title>C2_0&#45;&gt;C0_0</title>
<path fill="none" stroke="black" d="M1053,-638.45C1000.91,-623.11 918.03,-598.7 843.81,-576.83"/>
<polygon fill="black" stroke="black" points="844.66,-573.44 834.08,-573.97 842.68,-580.15 844.66,-573.44"/>
<text text-anchor="middle" x="936.5" y="-587.77" font-family="Times,serif" font-size="14.00">L3{}</text>
</g>
<!-- C2_0&#45;&gt;C2_0 -->
<g id="edge33" class="edge">
<title>C2_0&#45;&gt;C2_0</title>
<path fill="none" stroke="black" d="M1141.22,-666.37C1152.21,-666.08 1160.8,-662.21 1160.8,-654.77 1160.8,-649.88 1157.1,-646.53 1151.45,-644.73"/>
<polygon fill="black" stroke="black" points="1151.64,-641.22 1141.22,-643.16 1150.58,-648.14 1151.64,-641.22"/>
<text text-anchor="middle" x="1178.3" y="-651.07" font-family="Times,serif" font-size="14.00">t7R2</text>
</g>
<!-- C2_4 -->
<g id="node17" class="node">
<title>C2_4</title>
<ellipse fill="white" stroke="black" cx="1192" cy="-528.17" rx="33.6" ry="33.6"/>
<text text-anchor="middle" x="1192" y="-524.47" font-family="Times,serif" font-size="14.00">C2_4</text>
</g>
<!-- C2_0&#45;&gt;C2_4 -->
<g id="edge40" class="edge">
<title>C2_0&#45;&gt;C2_4</title>
<path fill="none" stroke="black" d="M1135.7,-632.5C1147.13,-623.3 1159.41,-611.71 1168,-598.97 1173.69,-590.52 1178.17,-580.59 1181.63,-570.91"/>
<polygon fill="black" stroke="black" points="1184.96,-571.97 1184.76,-561.38 1178.31,-569.79 1184.96,-571.97"/>
<text text-anchor="middle" x="1207" y="-587.77" font-family="Times,serif" font-size="14.00">t14O1R4</text>
</g>
<!-- C2_3 -->
<g id="node13" class="node">
<title>C2_3</title>
<ellipse fill="white" stroke="black" cx="1140" cy="-168.39" rx="33.6" ry="33.6"/>
<text text-anchor="middle" x="1140" y="-164.69" font-family="Times,serif" font-size="14.00">C2_3</text>
</g>
<!-- C2_3&#45;&gt;C2_3 -->
<g id="edge36" class="edge">
<title>C2_3&#45;&gt;C2_3</title>
<path fill="none" stroke="black" d="M1172.12,-179.27C1183.03,-179.32 1191.8,-175.7 1191.8,-168.39 1191.8,-163.6 1188.02,-160.39 1182.34,-158.76"/>
<polygon fill="black" stroke="black" points="1182.47,-155.25 1172.12,-157.52 1181.62,-162.2 1182.47,-155.25"/>
<text text-anchor="middle" x="1223.8" y="-164.69" font-family="Times,serif" font-size="14.00">t10O3R5</text>
</g>
<!-- C2_5 -->
<g id="node14" class="node">
<title>C2_5</title>
<ellipse fill="white" stroke="black" cx="1140" cy="-49.8" rx="33.6" ry="33.6"/>
<text text-anchor="middle" x="1140" y="-46.1" font-family="Times,serif" font-size="14.00">C2_5</text>
</g>
<!-- C2_3&#45;&gt;C2_5 -->
<g id="edge26" class="edge">
<title>C2_3&#45;&gt;C2_5</title>
<path fill="none" stroke="black" d="M1140,-134.29C1140,-121.86 1140,-107.54 1140,-94.3"/>
<polygon fill="black" stroke="black" points="1143.5,-93.98 1140,-83.98 1136.5,-93.98 1143.5,-93.98"/>
<text text-anchor="middle" x="1167.5" y="-105.39" font-family="Times,serif" font-size="14.00">t0O4R5</text>
</g>
<!-- C2_5&#45;&gt;C2_5 -->
<g id="edge31" class="edge">
<title>C2_5&#45;&gt;C2_5</title>
<path fill="none" stroke="black" d="M1172.12,-60.67C1183.03,-60.73 1191.8,-57.1 1191.8,-49.8 1191.8,-45 1188.02,-41.79 1182.34,-40.17"/>
<polygon fill="black" stroke="black" points="1182.47,-36.66 1172.12,-38.92 1181.62,-43.61 1182.47,-36.66"/>
<text text-anchor="middle" x="1219.3" y="-46.1" font-family="Times,serif" font-size="14.00">t5O2R1</text>
</g>
<!-- C2_1 -->
<g id="node15" class="node">
<title>C2_1</title>
<ellipse fill="white" stroke="black" cx="1095" cy="-405.58" rx="33.6" ry="33.6"/>
<text text-anchor="middle" x="1095" y="-401.88" font-family="Times,serif" font-size="14.00">C2_1</text>
</g>
<!-- C2_5&#45;&gt;C2_1 -->
<g id="edge27" class="edge">
<title>C2_5&#45;&gt;C2_1</title>
<path fill="none" stroke="black" d="M1121.71,-78.22C1113.11,-92.19 1103.37,-109.76 1097,-126.59 1066.19,-207.98 1060.38,-234.54 1072,-320.78 1073.89,-334.84 1077.5,-349.88 1081.3,-363.28"/>
<polygon fill="black" stroke="black" points="1078.04,-364.56 1084.23,-373.16 1084.75,-362.58 1078.04,-364.56"/>
<text text-anchor="middle" x="1085.5" y="-223.99" font-family="Times,serif" font-size="14.00">t1R5</text>
</g>
<!-- C2_1&#45;&gt;C2_0 -->
<g id="edge29" class="edge">
<title>C2_1&#45;&gt;C2_0</title>
<path fill="none" stroke="black" d="M1093.37,-439.34C1092.02,-473.12 1090.8,-527.29 1094,-573.97 1094.74,-584.75 1096.04,-596.3 1097.48,-607.17"/>
<polygon fill="black" stroke="black" points="1094.05,-607.91 1098.91,-617.33 1100.99,-606.94 1094.05,-607.91"/>
<text text-anchor="middle" x="1121.5" y="-524.47" font-family="Times,serif" font-size="14.00">t3O1R3</text>
</g>
<!-- C2_2 -->
<g id="node16" class="node">
<title>C2_2</title>
<ellipse fill="white" stroke="black" cx="1115" cy="-286.99" rx="33.6" ry="33.6"/>
<text text-anchor="middle" x="1115" y="-283.29" font-family="Times,serif" font-size="14.00">C2_2</text>
</g>
<!-- C2_1&#45;&gt;C2_2 -->
<g id="edge32" class="edge">
<title>C2_1&#45;&gt;C2_2</title>
<path fill="none" stroke="black" d="M1099.65,-372.07C1101.25,-361.44 1103.11,-349.6 1105,-338.78 1105.49,-335.96 1106.02,-333.05 1106.56,-330.13"/>
<polygon fill="black" stroke="black" points="1110.02,-330.67 1108.44,-320.19 1103.14,-329.37 1110.02,-330.67"/>
<text text-anchor="middle" x="1132.5" y="-342.58" font-family="Times,serif" font-size="14.00">t6O5R4</text>
</g>
<!-- C2_2&#45;&gt;C2_3 -->
<g id="edge28" class="edge">
<title>C2_2&#45;&gt;C2_3</title>
<path fill="none" stroke="black" d="M1121.9,-253.82C1124.69,-240.8 1127.95,-225.59 1130.93,-211.69"/>
<polygon fill="black" stroke="black" points="1134.36,-212.37 1133.04,-201.86 1127.52,-210.9 1134.36,-212.37"/>
<text text-anchor="middle" x="1145.5" y="-223.99" font-family="Times,serif" font-size="14.00">t2R5</text>
</g>
<!-- C2_2&#45;&gt;C2_2 -->
<g id="edge34" class="edge">
<title>C2_2&#45;&gt;C2_2</title>
<path fill="none" stroke="black" d="M1147.12,-297.86C1158.03,-297.92 1166.8,-294.29 1166.8,-286.99 1166.8,-282.19 1163.02,-278.98 1157.34,-277.36"/>
<polygon fill="black" stroke="black" points="1157.47,-273.85 1147.12,-276.11 1156.62,-280.8 1157.47,-273.85"/>
<text text-anchor="middle" x="1194.3" y="-283.29" font-family="Times,serif" font-size="14.00">t8O5R2</text>
</g>
<!-- C2_2&#45;&gt;C2_4 -->
<g id="edge30" class="edge">
<title>C2_2&#45;&gt;C2_4</title>
<path fill="none" stroke="black" d="M1139.57,-310.25C1147.25,-318.48 1155.01,-328.37 1160,-338.78 1163.14,-345.34 1176.97,-431.16 1185.39,-484.68"/>
<polygon fill="black" stroke="black" points="1181.94,-485.26 1186.94,-494.6 1188.85,-484.18 1181.94,-485.26"/>
<text text-anchor="middle" x="1194.5" y="-401.88" font-family="Times,serif" font-size="14.00">t4R5</text>
</g>
<!-- C2_4&#45;&gt;C2_0 -->
<g id="edge35" class="edge">
<title>C2_4&#45;&gt;C2_0</title>
<path fill="none" stroke="black" d="M1169.76,-553.76C1162.16,-561.06 1153.24,-568.54 1144,-573.97 1131.52,-581.31 1122.18,-572.77 1113,-583.97 1107.67,-590.48 1104.63,-598.54 1103.03,-606.85"/>
<polygon fill="black" stroke="black" points="1099.53,-606.67 1101.75,-617.03 1106.47,-607.55 1099.53,-606.67"/>
<text text-anchor="middle" x="1140.5" y="-587.77" font-family="Times,serif" font-size="14.00">t9O4R4</text>
</g>
<!-- C2_4&#45;&gt;C2_3 -->
<g id="edge37" class="edge">
<title>C2_4&#45;&gt;C2_3</title>
<path fill="none" stroke="black" d="M1201.49,-495.36C1206.04,-478.81 1211.11,-458.17 1214,-439.38 1217.4,-417.24 1213.3,-360.15 1220,-338.78 1222.81,-329.84 1228.46,-329.81 1231,-320.78 1240.1,-288.44 1245.25,-275.61 1231,-245.19 1220.06,-221.83 1197.99,-203.17 1178.33,-190.2"/>
<polygon fill="black" stroke="black" points="1180.13,-187.2 1169.8,-184.83 1176.39,-193.12 1180.13,-187.2"/>
<text text-anchor="middle" x="1252" y="-342.58" font-family="Times,serif" font-size="14.00">t11O2R5</text>
</g>
<!-- C2_4&#45;&gt;C2_5 -->
<g id="edge39" class="edge">
<title>C2_4&#45;&gt;C2_5</title>
<path fill="none" stroke="black" d="M1211.63,-500.36C1234.24,-467.67 1270.05,-409.83 1284,-353.78 1301.29,-284.29 1484.67,-478.93 1265,-126.59 1246.06,-96.22 1210.04,-76.3 1181.52,-64.54"/>
<polygon fill="black" stroke="black" points="1182.75,-61.27 1172.17,-60.87 1180.19,-67.78 1182.75,-61.27"/>
<text text-anchor="middle" x="1391" y="-283.29" font-family="Times,serif" font-size="14.00">t13R5</text>
</g>
<!-- C2_4&#45;&gt;C2_1 -->
<g id="edge38" class="edge">
<title>C2_4&#45;&gt;C2_1</title>
<path fill="none" stroke="black" d="M1165.88,-506.53C1158.86,-501.15 1151.22,-495.45 1144,-490.38 1131.9,-481.87 1125,-484.12 1116,-472.38 1110.7,-465.47 1106.72,-457.19 1103.74,-448.87"/>
<polygon fill="black" stroke="black" points="1107.02,-447.64 1100.67,-439.16 1100.34,-449.75 1107.02,-447.64"/>
<text text-anchor="middle" x="1138" y="-461.18" font-family="Times,serif" font-size="14.00">t12R4</text>
</g>
<!-- C3_0 -->
<g id="node18" class="node">
<title>C3_0</title>
<ellipse fill="white" stroke="black" cx="144" cy="-781.36" rx="33.62" ry="33.62"/>
<ellipse fill="none" stroke="black" cx="144" cy="-781.36" rx="37.6" ry="37.6"/>
<text text-anchor="middle" x="144" y="-777.66" font-family="Times,serif" font-size="14.00">C3_0</text>
</g>
<!-- C3_0&#45;&gt;C1_0 -->
<g id="edge55" class="edge">
<title>C3_0&#45;&gt;C1_0</title>
<path fill="none" stroke="black" d="M256,-721.48C258,-720.29 260,-719.11 262,-717.92"/>
<polygon fill="black" stroke="black" points="257.19,-724.85 264,-716.74 253.62,-718.82 257.19,-724.85"/>
<text text-anchor="middle" x="294.5" y="-714.36" font-family="Times,serif" font-size="14.00">L4{}</text>
</g>
<!-- C3_0&#45;&gt;C3_0 -->
<g id="edge49" class="edge">
<title>C3_0&#45;&gt;C3_0</title>
<path fill="none" stroke="black" d="M180.22,-792.97C191.21,-792.68 199.8,-788.81 199.8,-781.36 199.8,-776.47 196.1,-773.13 190.45,-771.32"/>
<polygon fill="black" stroke="black" points="190.64,-767.81 180.22,-769.75 189.58,-774.73 190.64,-767.81"/>
<text text-anchor="middle" x="217.3" y="-777.66" font-family="Times,serif" font-size="14.00">t8R4</text>
</g>
<!-- C3_3 -->
<g id="node21" class="node">
<title>C3_3</title>
<ellipse fill="white" stroke="black" cx="50" cy="-654.77" rx="33.6" ry="33.6"/>
<text text-anchor="middle" x="50" y="-651.07" font-family="Times,serif" font-size="14.00">C3_3</text>
</g>
<!-- C3_0&#45;&gt;C3_3 -->
<g id="edge43" class="edge">
<title>C3_0&#45;&gt;C3_3</title>
<path fill="none" stroke="black" d="M117.83,-753.59C109.84,-744.93 101.26,-735.09 94,-725.56 86.27,-715.42 78.59,-703.88 71.87,-693.15"/>
<polygon fill="black" stroke="black" points="74.69,-691.06 66.46,-684.38 68.73,-694.73 74.69,-691.06"/>
<text text-anchor="middle" x="111.5" y="-714.36" font-family="Times,serif" font-size="14.00">t2R4</text>
</g>
<!-- C3_4 -->
<g id="node22" class="node">
<title>C3_4</title>
<ellipse fill="white" stroke="black" cx="136" cy="-654.77" rx="33.6" ry="33.6"/>
<text text-anchor="middle" x="136" y="-651.07" font-family="Times,serif" font-size="14.00">C3_4</text>
</g>
<!-- C3_0&#45;&gt;C3_4 -->
<g id="edge47" class="edge">
<title>C3_0&#45;&gt;C3_4</title>
<path fill="none" stroke="black" d="M135.7,-744.26C134.58,-738.05 133.6,-731.65 133,-725.56 132.14,-716.89 132,-707.58 132.24,-698.69"/>
<polygon fill="black" stroke="black" points="135.74,-698.63 132.68,-688.49 128.75,-698.33 135.74,-698.63"/>
<text text-anchor="middle" x="160.5" y="-714.36" font-family="Times,serif" font-size="14.00">t6O1R3</text>
</g>
<!-- C3_1 -->
<g id="node19" class="node">
<title>C3_1</title>
<ellipse fill="white" stroke="black" cx="50" cy="-528.17" rx="33.6" ry="33.6"/>
<text text-anchor="middle" x="50" y="-524.47" font-family="Times,serif" font-size="14.00">C3_1</text>
</g>
<!-- C3_1&#45;&gt;C3_1 -->
<g id="edge45" class="edge">
<title>C3_1&#45;&gt;C3_1</title>
<path fill="none" stroke="black" d="M81.87,-539.8C92.89,-539.92 101.8,-536.04 101.8,-528.17 101.8,-523.01 97.96,-519.56 92.21,-517.84"/>
<polygon fill="black" stroke="black" points="92.22,-514.32 81.87,-516.55 91.36,-521.26 92.22,-514.32"/>
<text text-anchor="middle" x="129.3" y="-524.47" font-family="Times,serif" font-size="14.00">t4O3R5</text>
</g>
<!-- C3_2 -->
<g id="node20" class="node">
<title>C3_2</title>
<ellipse fill="white" stroke="black" cx="141" cy="-405.58" rx="33.6" ry="33.6"/>
<text text-anchor="middle" x="141" y="-401.88" font-family="Times,serif" font-size="14.00">C3_2</text>
</g>
<!-- C3_1&#45;&gt;C3_2 -->
<g id="edge41" class="edge">
<title>C3_1&#45;&gt;C3_2</title>
<path fill="none" stroke="black" d="M69.97,-500.71C83.19,-483.19 100.65,-460.05 114.96,-441.09"/>
<polygon fill="black" stroke="black" points="117.85,-443.07 121.08,-432.98 112.26,-438.86 117.85,-443.07"/>
<text text-anchor="middle" x="128.5" y="-461.18" font-family="Times,serif" font-size="14.00">t0O4R2</text>
</g>
<!-- C3_1&#45;&gt;C3_4 -->
<g id="edge50" class="edge">
<title>C3_1&#45;&gt;C3_4</title>
<path fill="none" stroke="black" d="M42.07,-561.29C40.74,-573.98 41.7,-588.1 49,-598.97 60.78,-616.51 74.97,-605.96 93,-616.97 96.68,-619.22 100.36,-621.77 103.94,-624.47"/>
<polygon fill="black" stroke="black" points="102.03,-627.43 112.03,-630.93 106.4,-621.96 102.03,-627.43"/>
<text text-anchor="middle" x="66.5" y="-587.77" font-family="Times,serif" font-size="14.00">t9R5</text>
</g>
<!-- C3_2&#45;&gt;C3_0 -->
<g id="edge44" class="edge">
<title>C3_2&#45;&gt;C3_0</title>
<path fill="none" stroke="black" d="M166.57,-428.24C182.72,-443.68 202.14,-465.96 211,-490.38 223.67,-525.3 220.92,-538.17 211,-573.97 209.62,-578.97 206.68,-579.07 205,-583.97 184.46,-643.93 212.57,-667.14 188,-725.56 185.07,-732.52 180.99,-739.32 176.48,-745.62"/>
<polygon fill="black" stroke="black" points="173.45,-743.82 170.14,-753.89 179.01,-748.09 173.45,-743.82"/>
<text text-anchor="middle" x="232.5" y="-587.77" font-family="Times,serif" font-size="14.00">t3O5R3</text>
</g>
<!-- C3_2&#45;&gt;C3_2 -->
<g id="edge42" class="edge">
<title>C3_2&#45;&gt;C3_2</title>
<path fill="none" stroke="black" d="M173.12,-416.45C184.03,-416.51 192.8,-412.89 192.8,-405.58 192.8,-400.78 189.02,-397.57 183.34,-395.95"/>
<polygon fill="black" stroke="black" points="183.47,-392.44 173.12,-394.7 182.62,-399.39 183.47,-392.44"/>
<text text-anchor="middle" x="220.3" y="-401.88" font-family="Times,serif" font-size="14.00">t1O3R5</text>
</g>
<!-- C3_4&#45;&gt;C3_1 -->
<g id="edge46" class="edge">
<title>C3_4&#45;&gt;C3_1</title>
<path fill="none" stroke="black" d="M117.13,-626.42C104.64,-608.33 88.13,-584.41 74.61,-564.83"/>
<polygon fill="black" stroke="black" points="77.39,-562.69 68.83,-556.45 71.63,-566.67 77.39,-562.69"/>
<text text-anchor="middle" x="126.5" y="-587.77" font-family="Times,serif" font-size="14.00">t5O4R5</text>
</g>
<!-- C3_4&#45;&gt;C3_2 -->
<g id="edge48" class="edge">
<title>C3_4&#45;&gt;C3_2</title>
<path fill="none" stroke="black" d="M150.57,-623.87C156.83,-609.22 163.33,-591.08 166,-573.97 174,-522.7 173.78,-507.4 160,-457.38 159.03,-453.86 157.92,-450.24 156.73,-446.63"/>
<polygon fill="black" stroke="black" points="160.03,-445.48 153.45,-437.18 153.42,-447.78 160.03,-445.48"/>
<text text-anchor="middle" x="189.5" y="-524.47" font-family="Times,serif" font-size="14.00">t7R4</text>
</g>
</g>
</svg>
