<?xml version="1.0" encoding="UTF-8" standalone="no"?>
<!DOCTYPE svg PUBLIC "-//W3C//DTD SVG 1.1//EN"
 "http://www.w3.org/Graphics/SVG/1.1/DTD/svg11.dtd">
<!-- Generated by graphviz version 2.43.0 (0)
 -->
<!-- Title: gen/Seed1462881539 Pages: 1 -->
<svg width="823pt" height="598pt"
 viewBox="0.00 0.00 823.00 597.97" xmlns="http://www.w3.org/2000/svg" xmlns:xlink="http://www.w3.org/1999/xlink">
<g id="graph0" class="graph" transform="scale(1 1) rotate(0) translate(4 593.97)">
<title>gen/Seed1462881539</title>
<polygon fill="white" stroke="transparent" points="-4,4 -4,-593.97 819,-593.97 819,4 -4,4"/>
<g id="clust1" class="cluster">
<title>cluster0</title>
<path fill="#ffeeee" stroke="#ffeeee" d="M20,-126.59C20,-126.59 243,-126.59 243,-126.59 249,-126.59 255,-132.59 255,-138.59 255,-138.59 255,-569.97 255,-569.97 255,-575.97 249,-581.97 243,-581.97 243,-581.97 20,-581.97 20,-581.97 14,-581.97 8,-575.97 8,-569.97 8,-569.97 8,-138.59 8,-138.59 8,-132.59 14,-126.59 20,-126.59"/>
</g>
<g id="clust2" class="cluster">
<title>cluster1</title>
<path fill="#ffeeee" stroke="#ffeeee" d="M275,-8C275,-8 493,-8 493,-8 499,-8 505,-14 505,-20 505,-20 505,-443.38 505,-443.38 505,-449.38 499,-455.38 493,-455.38 493,-455.38 275,-455.38 275,-455.38 269,-455.38 263,-449.38 263,-443.38 263,-443.38 263,-20 263,-20 263,-14 269,-8 275,-8"/>
</g>
<g id="clust3" class="cluster">
<title>cluster2</title>
<path fill="#ffeeee" stroke="#ffeeee" d="M525,-126.59C525,-126.59 795,-126.59 795,-126.59 801,-126.59 807,-132.59 807,-138.59 807,-138.59 807,-569.97 807,-569.97 807,-575.97 801,-581.97 795,-581.97 795,-581.97 525,-581.97 525,-581.97 519,-581.97 513,-575.97 513,-569.97 513,-569.97 513,-138.59 513,-138.59 513,-132.59 519,-126.59 525,-126.59"/>
</g>
<!-- C0_0 -->
<g id="node1" class="node">
<title>C0_0</title>
<ellipse fill="white" stroke="black" cx="154" cy="-536.17" rx="33.62" ry="33.62"/>
<ellipse fill="none" stroke="black" cx="154" cy="-536.17" rx="37.6" ry="37.6"/>
<text text-anchor="middle" x="154" y="-532.47" font-family="Times,serif" font-size="14.00">C0_0</text>
</g>
<!-- C0_0&#45;&gt;C0_0 -->
<g id="edge31" class="edge">
<title>C0_0&#45;&gt;C0_0</title>
<path fill="none" stroke="black" d="M190.22,-547.78C201.21,-547.49 209.8,-543.62 209.8,-536.17 209.8,-531.29 206.1,-527.94 200.45,-526.13"/>
<polygon fill="black" stroke="black" points="200.64,-522.62 190.22,-524.57 199.58,-529.54 200.64,-522.62"/>
<text text-anchor="middle" x="228.3" y="-532.47" font-family="Times,serif" font-size="14.00">L3{}</text>
</g>
<!-- C0_4 -->
<g id="node2" class="node">
<title>C0_4</title>
<ellipse fill="white" stroke="black" cx="152" cy="-409.58" rx="33.6" ry="33.6"/>
<text text-anchor="middle" x="152" y="-405.88" font-family="Times,serif" font-size="14.00">C0_4</text>
</g>
<!-- C0_0&#45;&gt;C0_4 -->
<g id="edge1" class="edge">
<title>C0_0&#45;&gt;C0_4</title>
<path fill="none" stroke="black" d="M153.41,-498.13C153.18,-484.16 152.92,-468.15 152.69,-453.68"/>
<polygon fill="black" stroke="black" points="156.19,-453.4 152.53,-443.46 149.19,-453.51 156.19,-453.4"/>
<text text-anchor="middle" x="162" y="-469.18" font-family="Times,serif" font-size="14.00">t0</text>
</g>
<!-- C0_3 -->
<g id="node3" class="node">
<title>C0_3</title>
<ellipse fill="white" stroke="black" cx="207" cy="-168.39" rx="33.6" ry="33.6"/>
<text text-anchor="middle" x="207" y="-164.69" font-family="Times,serif" font-size="14.00">C0_3</text>
</g>
<!-- C0_0&#45;&gt;C0_3 -->
<g id="edge2" class="edge">
<title>C0_0&#45;&gt;C0_3</title>
<path fill="none" stroke="black" d="M173.72,-503.74C181.7,-489.5 190.15,-472.13 195,-455.38 219.13,-372.02 215.92,-269.31 211.45,-212.44"/>
<polygon fill="black" stroke="black" points="214.93,-212.04 210.6,-202.37 207.95,-212.62 214.93,-212.04"/>
<text text-anchor="middle" x="232" y="-342.58" font-family="Times,serif" font-size="14.00">t0O7</text>
</g>
<!-- C0_2 -->
<g id="node6" class="node">
<title>C0_2</title>
<ellipse fill="white" stroke="black" cx="77" cy="-168.39" rx="33.6" ry="33.6"/>
<text text-anchor="middle" x="77" y="-164.69" font-family="Times,serif" font-size="14.00">C0_2</text>
</g>
<!-- C0_0&#45;&gt;C0_2 -->
<g id="edge5" class="edge">
<title>C0_0&#45;&gt;C0_2</title>
<path fill="none" stroke="black" d="M131.11,-505.7C102.05,-466.21 53.48,-392.73 35,-320.78 27.53,-291.68 28.08,-282.42 35,-253.19 38.84,-236.95 46.34,-220.28 53.96,-206.12"/>
<polygon fill="black" stroke="black" points="57.11,-207.65 58.94,-197.21 51,-204.23 57.11,-207.65"/>
<text text-anchor="middle" x="63" y="-342.58" font-family="Times,serif" font-size="14.00">t0O7</text>
</g>
<!-- C1_0 -->
<g id="node7" class="node">
<title>C1_0</title>
<ellipse fill="white" stroke="black" cx="354" cy="-409.58" rx="33.62" ry="33.62"/>
<ellipse fill="none" stroke="black" cx="354" cy="-409.58" rx="37.6" ry="37.6"/>
<text text-anchor="middle" x="354" y="-405.88" font-family="Times,serif" font-size="14.00">C1_0</text>
</g>
<!-- C0_0&#45;&gt;C1_0 -->
<g id="edge28" class="edge">
<title>C0_0&#45;&gt;C1_0</title>
<path fill="none" stroke="black" d="M255,-472.25C261.2,-468.39 267.39,-464.53 273.49,-460.74"/>
<polygon fill="black" stroke="black" points="275.46,-463.63 282.1,-455.37 271.76,-457.69 275.46,-463.63"/>
<text text-anchor="middle" x="284.5" y="-469.18" font-family="Times,serif" font-size="14.00">L0{}</text>
</g>
<!-- C0_5 -->
<g id="node4" class="node">
<title>C0_5</title>
<ellipse fill="white" stroke="black" cx="78" cy="-286.99" rx="33.6" ry="33.6"/>
<text text-anchor="middle" x="78" y="-283.29" font-family="Times,serif" font-size="14.00">C0_5</text>
</g>
<!-- C0_4&#45;&gt;C0_5 -->
<g id="edge3" class="edge">
<title>C0_4&#45;&gt;C0_5</title>
<path fill="none" stroke="black" d="M131.62,-382.39C125.06,-373.51 117.95,-363.4 112,-353.78 106.78,-345.34 101.62,-336.01 96.95,-327.09"/>
<polygon fill="black" stroke="black" points="99.97,-325.3 92.29,-318 93.74,-328.49 99.97,-325.3"/>
<text text-anchor="middle" x="130" y="-342.58" font-family="Times,serif" font-size="14.00">t0O2</text>
</g>
<!-- C0_1 -->
<g id="node5" class="node">
<title>C0_1</title>
<ellipse fill="white" stroke="black" cx="164" cy="-286.99" rx="33.6" ry="33.6"/>
<text text-anchor="middle" x="164" y="-283.29" font-family="Times,serif" font-size="14.00">C0_1</text>
</g>
<!-- C0_4&#45;&gt;C0_1 -->
<g id="edge4" class="edge">
<title>C0_4&#45;&gt;C0_1</title>
<path fill="none" stroke="black" d="M151.13,-375.47C151.18,-363.84 151.64,-350.7 153,-338.78 153.33,-335.92 153.74,-332.99 154.22,-330.04"/>
<polygon fill="black" stroke="black" points="157.69,-330.54 156.04,-320.07 150.8,-329.28 157.69,-330.54"/>
<text text-anchor="middle" x="171" y="-342.58" font-family="Times,serif" font-size="14.00">t0O4</text>
</g>
<!-- C0_5&#45;&gt;C0_2 -->
<g id="edge8" class="edge">
<title>C0_5&#45;&gt;C0_2</title>
<path fill="none" stroke="black" d="M77.72,-252.89C77.61,-240.45 77.49,-226.13 77.37,-212.9"/>
<polygon fill="black" stroke="black" points="80.87,-212.54 77.28,-202.57 73.87,-212.6 80.87,-212.54"/>
<text text-anchor="middle" x="86" y="-223.99" font-family="Times,serif" font-size="14.00">t7</text>
</g>
<!-- C0_1&#45;&gt;C0_3 -->
<g id="edge6" class="edge">
<title>C0_1&#45;&gt;C0_3</title>
<path fill="none" stroke="black" d="M167.55,-253.21C169.35,-242.46 172.03,-230.6 176,-220.19 177.88,-215.25 180.25,-210.25 182.84,-205.42"/>
<polygon fill="black" stroke="black" points="186.08,-206.81 188.01,-196.39 180,-203.33 186.08,-206.81"/>
<text text-anchor="middle" x="194" y="-223.99" font-family="Times,serif" font-size="14.00">t5O7</text>
</g>
<!-- C0_1&#45;&gt;C0_2 -->
<g id="edge7" class="edge">
<title>C0_1&#45;&gt;C0_2</title>
<path fill="none" stroke="black" d="M144.26,-259.53C132.11,-243.25 116.39,-222.18 103.21,-204.51"/>
<polygon fill="black" stroke="black" points="105.75,-202.07 96.96,-196.15 100.14,-206.25 105.75,-202.07"/>
<text text-anchor="middle" x="144" y="-223.99" font-family="Times,serif" font-size="14.00">t6O1</text>
</g>
<!-- C0_2&#45;&gt;C0_2 -->
<g id="edge9" class="edge">
<title>C0_2&#45;&gt;C0_2</title>
<path fill="none" stroke="black" d="M109.12,-179.27C120.03,-179.32 128.8,-175.7 128.8,-168.39 128.8,-163.6 125.02,-160.39 119.34,-158.76"/>
<polygon fill="black" stroke="black" points="119.47,-155.25 109.12,-157.52 118.62,-162.2 119.47,-155.25"/>
<text text-anchor="middle" x="136.8" y="-164.69" font-family="Times,serif" font-size="14.00">t8</text>
</g>
<!-- C1_4 -->
<g id="node8" class="node">
<title>C1_4</title>
<ellipse fill="white" stroke="black" cx="377" cy="-286.99" rx="33.6" ry="33.6"/>
<text text-anchor="middle" x="377" y="-283.29" font-family="Times,serif" font-size="14.00">C1_4</text>
</g>
<!-- C1_0&#45;&gt;C1_4 -->
<g id="edge10" class="edge">
<title>C1_0&#45;&gt;C1_4</title>
<path fill="none" stroke="black" d="M331.51,-378.97C324.81,-366.53 320.54,-351.92 326,-338.78 329.7,-329.88 335.79,-321.74 342.51,-314.7"/>
<polygon fill="black" stroke="black" points="345.19,-316.97 349.95,-307.51 340.33,-311.94 345.19,-316.97"/>
<text text-anchor="middle" x="344" y="-342.58" font-family="Times,serif" font-size="14.00">t0O7</text>
</g>
<!-- C1_5 -->
<g id="node9" class="node">
<title>C1_5</title>
<ellipse fill="white" stroke="black" cx="338" cy="-168.39" rx="33.6" ry="33.6"/>
<text text-anchor="middle" x="338" y="-164.69" font-family="Times,serif" font-size="14.00">C1_5</text>
</g>
<!-- C1_0&#45;&gt;C1_5 -->
<g id="edge11" class="edge">
<title>C1_0&#45;&gt;C1_5</title>
<path fill="none" stroke="black" d="M329.98,-380.18C317.82,-363.92 304.32,-342.48 298,-320.78 289.6,-291.94 291.37,-282.49 298,-253.19 301.62,-237.2 308.68,-220.68 315.87,-206.59"/>
<polygon fill="black" stroke="black" points="318.99,-208.18 320.58,-197.7 312.81,-204.9 318.99,-208.18"/>
<text text-anchor="middle" x="316" y="-283.29" font-family="Times,serif" font-size="14.00">t0O9</text>
</g>
<!-- C1_3 -->
<g id="node10" class="node">
<title>C1_3</title>
<ellipse fill="white" stroke="black" cx="463" cy="-286.99" rx="33.6" ry="33.6"/>
<text text-anchor="middle" x="463" y="-283.29" font-family="Times,serif" font-size="14.00">C1_3</text>
</g>
<!-- C1_0&#45;&gt;C1_3 -->
<g id="edge12" class="edge">
<title>C1_0&#45;&gt;C1_3</title>
<path fill="none" stroke="black" d="M379.9,-381.77C388.31,-372.94 397.63,-363.01 406,-353.78 415.55,-343.25 425.77,-331.58 434.89,-321.03"/>
<polygon fill="black" stroke="black" points="437.74,-323.08 441.61,-313.21 432.43,-318.51 437.74,-323.08"/>
<text text-anchor="middle" x="426" y="-342.58" font-family="Times,serif" font-size="14.00">t0</text>
</g>
<!-- C1_4&#45;&gt;C1_0 -->
<g id="edge15" class="edge">
<title>C1_4&#45;&gt;C1_0</title>
<path fill="none" stroke="black" d="M370.81,-320.45C368.35,-333.35 365.47,-348.43 362.8,-362.44"/>
<polygon fill="black" stroke="black" points="359.34,-361.92 360.9,-372.4 366.21,-363.23 359.34,-361.92"/>
<text text-anchor="middle" x="384" y="-342.58" font-family="Times,serif" font-size="14.00">t5O3</text>
</g>
<!-- C1_4&#45;&gt;C1_5 -->
<g id="edge17" class="edge">
<title>C1_4&#45;&gt;C1_5</title>
<path fill="none" stroke="black" d="M366.55,-254.74C362,-241.15 356.61,-225.04 351.75,-210.49"/>
<polygon fill="black" stroke="black" points="354.97,-209.1 348.48,-200.72 348.33,-211.32 354.97,-209.1"/>
<text text-anchor="middle" x="367" y="-223.99" font-family="Times,serif" font-size="14.00">t7</text>
</g>
<!-- C1_1 -->
<g id="node11" class="node">
<title>C1_1</title>
<ellipse fill="white" stroke="black" cx="442" cy="-168.39" rx="33.6" ry="33.6"/>
<text text-anchor="middle" x="442" y="-164.69" font-family="Times,serif" font-size="14.00">C1_1</text>
</g>
<!-- C1_4&#45;&gt;C1_1 -->
<g id="edge13" class="edge">
<title>C1_4&#45;&gt;C1_1</title>
<path fill="none" stroke="black" d="M393.07,-257.16C401.51,-242.03 411.95,-223.3 421.02,-207.03"/>
<polygon fill="black" stroke="black" points="424.08,-208.72 425.89,-198.28 417.97,-205.31 424.08,-208.72"/>
<text text-anchor="middle" x="421" y="-223.99" font-family="Times,serif" font-size="14.00">t0</text>
</g>
<!-- C1_5&#45;&gt;C1_4 -->
<g id="edge16" class="edge">
<title>C1_5&#45;&gt;C1_4</title>
<path fill="none" stroke="black" d="M334.53,-202.21C334.43,-212.96 335.46,-224.81 339,-235.19 341.2,-241.63 344.55,-247.92 348.37,-253.76"/>
<polygon fill="black" stroke="black" points="345.56,-255.86 354.22,-261.96 351.26,-251.79 345.56,-255.86"/>
<text text-anchor="middle" x="347" y="-223.99" font-family="Times,serif" font-size="14.00">t6</text>
</g>
<!-- C1_2 -->
<g id="node12" class="node">
<title>C1_2</title>
<ellipse fill="white" stroke="black" cx="338" cy="-49.8" rx="33.6" ry="33.6"/>
<text text-anchor="middle" x="338" y="-46.1" font-family="Times,serif" font-size="14.00">C1_2</text>
</g>
<!-- C1_5&#45;&gt;C1_2 -->
<g id="edge14" class="edge">
<title>C1_5&#45;&gt;C1_2</title>
<path fill="none" stroke="black" d="M338,-134.29C338,-121.86 338,-107.54 338,-94.3"/>
<polygon fill="black" stroke="black" points="341.5,-93.98 338,-83.98 334.5,-93.98 341.5,-93.98"/>
<text text-anchor="middle" x="346" y="-105.39" font-family="Times,serif" font-size="14.00">t0</text>
</g>
<!-- C1_3&#45;&gt;C1_1 -->
<g id="edge18" class="edge">
<title>C1_3&#45;&gt;C1_1</title>
<path fill="none" stroke="black" d="M457.15,-253.51C454.83,-240.62 452.13,-225.62 449.66,-211.89"/>
<polygon fill="black" stroke="black" points="453.04,-210.92 447.82,-201.69 446.15,-212.16 453.04,-210.92"/>
<text text-anchor="middle" x="461" y="-223.99" font-family="Times,serif" font-size="14.00">t8</text>
</g>
<!-- C2_0 -->
<g id="node13" class="node">
<title>C2_0</title>
<ellipse fill="white" stroke="black" cx="582" cy="-536.17" rx="33.62" ry="33.62"/>
<ellipse fill="none" stroke="black" cx="582" cy="-536.17" rx="37.6" ry="37.6"/>
<text text-anchor="middle" x="582" y="-532.47" font-family="Times,serif" font-size="14.00">C2_0</text>
</g>
<!-- C2_0&#45;&gt;C1_0 -->
<g id="edge29" class="edge">
<title>C2_0&#45;&gt;C1_0</title>
<path fill="none" stroke="black" d="M513,-498.26C501.95,-492.31 490.65,-486.19 480,-480.38 468.14,-473.91 455.68,-467.06 443.4,-460.29"/>
<polygon fill="black" stroke="black" points="444.95,-457.14 434.5,-455.37 441.56,-463.27 444.95,-457.14"/>
<text text-anchor="middle" x="498.5" y="-469.18" font-family="Times,serif" font-size="14.00">L1{}</text>
</g>
<!-- C2_0&#45;&gt;C2_0 -->
<g id="edge30" class="edge">
<title>C2_0&#45;&gt;C2_0</title>
<path fill="none" stroke="black" d="M618.22,-547.78C629.21,-547.49 637.8,-543.62 637.8,-536.17 637.8,-531.29 634.1,-527.94 628.45,-526.13"/>
<polygon fill="black" stroke="black" points="628.64,-522.62 618.22,-524.57 627.58,-529.54 628.64,-522.62"/>
<text text-anchor="middle" x="656.3" y="-532.47" font-family="Times,serif" font-size="14.00">L2{}</text>
</g>
<!-- C2_5 -->
<g id="node14" class="node">
<title>C2_5</title>
<ellipse fill="white" stroke="black" cx="627" cy="-409.58" rx="33.6" ry="33.6"/>
<text text-anchor="middle" x="627" y="-405.88" font-family="Times,serif" font-size="14.00">C2_5</text>
</g>
<!-- C2_0&#45;&gt;C2_5 -->
<g id="edge19" class="edge">
<title>C2_0&#45;&gt;C2_5</title>
<path fill="none" stroke="black" d="M594.54,-500.47C600.05,-485.2 606.56,-467.17 612.3,-451.27"/>
<polygon fill="black" stroke="black" points="615.66,-452.29 615.76,-441.7 609.07,-449.91 615.66,-452.29"/>
<text text-anchor="middle" x="615" y="-469.18" font-family="Times,serif" font-size="14.00">t0</text>
</g>
<!-- C2_3 -->
<g id="node15" class="node">
<title>C2_3</title>
<ellipse fill="white" stroke="black" cx="566" cy="-168.39" rx="33.6" ry="33.6"/>
<text text-anchor="middle" x="566" y="-164.69" font-family="Times,serif" font-size="14.00">C2_3</text>
</g>
<!-- C2_0&#45;&gt;C2_3 -->
<g id="edge20" class="edge">
<title>C2_0&#45;&gt;C2_3</title>
<path fill="none" stroke="black" d="M569.19,-500.3C566.98,-493.72 564.81,-486.87 563,-480.38 545.79,-418.67 531.18,-402.66 536,-338.78 538.9,-300.41 542.28,-291.08 549,-253.19 551.42,-239.56 554.33,-224.74 557.05,-211.41"/>
<polygon fill="black" stroke="black" points="560.49,-212.05 559.09,-201.55 553.64,-210.64 560.49,-212.05"/>
<text text-anchor="middle" x="554" y="-342.58" font-family="Times,serif" font-size="14.00">t0O1</text>
</g>
<!-- C2_2 -->
<g id="node16" class="node">
<title>C2_2</title>
<ellipse fill="white" stroke="black" cx="592" cy="-286.99" rx="33.6" ry="33.6"/>
<text text-anchor="middle" x="592" y="-283.29" font-family="Times,serif" font-size="14.00">C2_2</text>
</g>
<!-- C2_0&#45;&gt;C2_2 -->
<g id="edge24" class="edge">
<title>C2_0&#45;&gt;C2_2</title>
<path fill="none" stroke="black" d="M572.97,-499.42C565.95,-466.07 558.81,-415.09 568,-371.78 569.82,-363.22 573.18,-362.07 576,-353.78 578.56,-346.27 580.88,-338.15 582.91,-330.25"/>
<polygon fill="black" stroke="black" points="586.34,-330.99 585.33,-320.44 579.54,-329.32 586.34,-330.99"/>
<text text-anchor="middle" x="576" y="-405.88" font-family="Times,serif" font-size="14.00">t5</text>
</g>
<!-- C2_1 -->
<g id="node17" class="node">
<title>C2_1</title>
<ellipse fill="white" stroke="black" cx="713" cy="-409.58" rx="33.6" ry="33.6"/>
<text text-anchor="middle" x="713" y="-405.88" font-family="Times,serif" font-size="14.00">C2_1</text>
</g>
<!-- C2_0&#45;&gt;C2_1 -->
<g id="edge22" class="edge">
<title>C2_0&#45;&gt;C2_1</title>
<path fill="none" stroke="black" d="M610.2,-510.5C627.69,-494.97 650.48,-474.35 670,-455.38 674.26,-451.24 678.68,-446.8 682.99,-442.4"/>
<polygon fill="black" stroke="black" points="685.65,-444.68 690.09,-435.06 680.62,-439.81 685.65,-444.68"/>
<text text-anchor="middle" x="666" y="-469.18" font-family="Times,serif" font-size="14.00">t0</text>
</g>
<!-- C2_5&#45;&gt;C2_2 -->
<g id="edge21" class="edge">
<title>C2_5&#45;&gt;C2_2</title>
<path fill="none" stroke="black" d="M617.8,-376.89C613.62,-362.47 608.6,-345.2 604.12,-329.73"/>
<polygon fill="black" stroke="black" points="607.4,-328.5 601.26,-319.88 600.68,-330.46 607.4,-328.5"/>
<text text-anchor="middle" x="618" y="-342.58" font-family="Times,serif" font-size="14.00">t0</text>
</g>
<!-- C2_4 -->
<g id="node18" class="node">
<title>C2_4</title>
<ellipse fill="white" stroke="black" cx="713" cy="-286.99" rx="33.6" ry="33.6"/>
<text text-anchor="middle" x="713" y="-283.29" font-family="Times,serif" font-size="14.00">C2_4</text>
</g>
<!-- C2_5&#45;&gt;C2_4 -->
<g id="edge26" class="edge">
<title>C2_5&#45;&gt;C2_4</title>
<path fill="none" stroke="black" d="M646.3,-381.52C658.58,-364.29 674.62,-341.81 687.89,-323.2"/>
<polygon fill="black" stroke="black" points="690.81,-325.13 693.76,-314.96 685.11,-321.07 690.81,-325.13"/>
<text text-anchor="middle" x="683" y="-342.58" font-family="Times,serif" font-size="14.00">t7</text>
</g>
<!-- C2_2&#45;&gt;C2_3 -->
<g id="edge27" class="edge">
<title>C2_2&#45;&gt;C2_3</title>
<path fill="none" stroke="black" d="M584.83,-253.82C581.9,-240.69 578.48,-225.34 575.36,-211.35"/>
<polygon fill="black" stroke="black" points="578.74,-210.45 573.15,-201.45 571.91,-211.98 578.74,-210.45"/>
<text text-anchor="middle" x="588" y="-223.99" font-family="Times,serif" font-size="14.00">t8</text>
</g>
<!-- C2_1&#45;&gt;C2_4 -->
<g id="edge23" class="edge">
<title>C2_1&#45;&gt;C2_4</title>
<path fill="none" stroke="black" d="M713,-375.63C713,-361.93 713,-345.85 713,-331.23"/>
<polygon fill="black" stroke="black" points="716.5,-330.9 713,-320.9 709.5,-330.9 716.5,-330.9"/>
<text text-anchor="middle" x="721" y="-342.58" font-family="Times,serif" font-size="14.00">t0</text>
</g>
<!-- C2_4&#45;&gt;C2_0 -->
<g id="edge25" class="edge">
<title>C2_4&#45;&gt;C2_0</title>
<path fill="none" stroke="black" d="M732.09,-314.98C754.19,-349.89 784.19,-411.43 756,-455.38 728.31,-498.53 670.8,-518.65 629.47,-527.83"/>
<polygon fill="black" stroke="black" points="628.68,-524.42 619.6,-529.88 630.11,-531.27 628.68,-524.42"/>
<text text-anchor="middle" x="775" y="-405.88" font-family="Times,serif" font-size="14.00">t6</text>
</g>
</g>
</svg>
